<?xml version="1.0" encoding="UTF-8" standalone="no"?>
<!DOCTYPE svg PUBLIC "-//W3C//DTD SVG 1.1//EN" "http://www.w3.org/Graphics/SVG/1.1/DTD/svg11.dtd">
<svg width="100%" height="100%" viewBox="0 0 556 237" version="1.1" xmlns="http://www.w3.org/2000/svg" xmlns:xlink="http://www.w3.org/1999/xlink" xml:space="preserve" xmlns:serif="http://www.serif.com/" style="fill-rule:evenodd;clip-rule:evenodd;stroke-linejoin:round;stroke-miterlimit:2;">
    <g id="Artboard1" transform="matrix(1,0,0,1,27.0715,0)">
        <rect x="-27.071" y="0" width="555.983" height="236.22" style="fill:none;"/>
        <g transform="matrix(1.0173,0,0,1,-36.6922,1.49415)">
            <path d="M555.983,61.957L555.983,171.275C555.983,201.443 531.908,225.935 502.254,225.935L63.187,225.935C33.532,225.935 9.457,201.443 9.457,171.275L9.457,61.957C9.457,31.79 33.532,7.298 63.187,7.298L502.254,7.298C531.908,7.298 555.983,31.79 555.983,61.957Z" style="fill:rgb(148,108,230);"/>
        </g>
        <g transform="matrix(0.313701,0,0,0.313701,0.479209,14.3029)">
            <g transform="matrix(4.16667,0,0,4.16667,0,0)">
                <path d="M65,90.568C63.431,90.568 62.162,91.836 62.162,93.404C62.162,94.975 63.431,96.243 65,96.243C66.569,96.243 67.838,94.975 67.838,93.404C67.838,91.836 66.569,90.568 65,90.568Z" style="fill:white;"/>
            </g>
            <g transform="matrix(4.16667,0,0,4.16667,0,0)">
                <path d="M91.757,99.081C90.188,99.081 88.919,100.349 88.919,101.917C88.919,103.489 90.188,104.757 91.757,104.757C93.326,104.757 94.595,103.489 94.595,101.917C94.595,100.349 93.326,99.081 91.757,99.081Z" style="fill:white;"/>
            </g>
            <g transform="matrix(4.16667,0,0,4.16667,0,0)">
                <path d="M133.76,106.248C132.813,106.722 131.453,106.747 130.197,106.313C129.349,106.014 128.434,105.732 127.523,105.451C125.832,104.935 123.006,104.074 122.468,103.422C121.585,102.244 119.908,102.009 118.73,102.899C117.552,103.785 117.317,105.455 118.207,106.633C118.502,107.032 118.901,107.359 119.303,107.676C115.224,113.321 97.314,124.555 71.985,119.02C60.572,116.525 52.89,111.969 49.764,105.85C47.511,101.429 48.023,96.876 49.102,94.403C52.203,87.963 74.584,73.134 88.873,64.737C90.141,63.987 90.564,62.353 89.817,61.082C89.069,59.815 87.364,59.306 86.164,60.135C85.011,60.811 81.091,63.139 76.09,66.307C74.399,65.172 71.476,63.769 66.791,63.31C59.362,62.573 42.192,59.295 36.646,56.949C32.673,55.269 23.656,50.82 25.653,45.812C26.116,44.644 28.291,42.754 33.004,40.953C36.635,39.568 40.248,38.803 42.979,38.497C42.612,38.675 42.256,38.846 41.922,39.009C38.711,40.569 35.208,42.313 32.855,44.374C32.684,44.263 32.506,44.153 32.385,44.032C31.37,42.971 29.697,42.893 28.615,43.947C27.547,44.965 27.508,46.655 28.529,47.719C29.48,48.716 30.886,49.467 32.676,50.04C32.744,50.062 32.805,50.094 32.872,50.108C39.095,52.023 50.159,51.785 65.759,51.165C72.483,50.902 78.834,50.653 84.131,50.756C101.692,51.105 114.889,58.088 124.479,72.109C130.371,80.723 128.246,89.209 124.875,96.584C124.472,96.275 124.042,95.873 123.718,95.474C122.796,94.324 121.09,94.164 119.969,95.05C118.816,95.972 118.623,97.649 119.542,98.802C120.083,99.485 122.867,102.685 126.316,102.411C126.38,102.415 126.437,102.408 126.501,102.404C126.605,102.39 126.711,102.408 126.822,102.39C129.178,101.959 130.659,102.073 132.044,102.942C133.878,104.099 134.782,104.789 134.6,105.366C134.493,105.729 134.219,105.989 133.76,106.248ZM60.949,76.512C60.419,76.9 59.899,77.285 59.376,77.669C58.813,77.064 58.365,76.488 58.158,76.067C58.778,75.882 59.81,76.103 60.949,76.512ZM134.614,98.257C133.294,97.421 131.909,97.058 130.563,96.908C133.724,89.202 135.736,79.114 128.887,69.094C118.406,53.764 103.38,45.797 84.235,45.417C78.781,45.31 72.352,45.563 65.549,45.833C57.649,46.146 47.137,46.556 39.992,45.965C41.416,45.192 42.933,44.452 44.246,43.815C49.273,41.369 53.231,39.465 51.921,36.087C51.234,34.115 49.187,33.079 45.823,33.005C38.743,32.844 23.442,36.938 20.69,43.84C19.142,47.727 18.885,55.23 34.567,61.862C41.017,64.595 59.237,67.927 66.268,68.625C68.254,68.817 69.774,69.219 70.928,69.646C69.315,70.707 67.66,71.821 65.997,72.96C63.11,71.316 58.39,69.376 54.865,71.778C53.502,72.7 52.726,74.06 52.69,75.608C52.641,77.534 53.808,79.417 55.122,80.933C49.931,85.073 45.734,89.085 44.246,92.178C42.587,95.979 41.911,102.201 45.008,108.27C48.938,115.973 57.628,121.344 70.842,124.235C88.111,128.004 103.027,124.608 112.895,119.415C118.388,116.525 122.286,113.076 124.18,109.997C124.768,110.182 125.355,110.37 125.96,110.559C126.804,110.815 127.648,111.072 128.438,111.353C131.051,112.257 133.942,112.136 136.167,111.015C136.206,110.997 136.248,110.972 136.291,110.951C137.968,110.068 139.175,108.651 139.705,106.943C141.129,102.337 137.064,99.792 134.614,98.257Z" style="fill:white;"/>
            </g>
        </g>
        <g transform="matrix(1.63252,0,0,1.63252,-144.83,10.1863)">
            <g transform="matrix(50,0,0,50,225.431,67.2918)">
                <path d="M0.666,-0.181C0.639,-0.153 0.605,-0.13 0.567,-0.11C0.523,-0.13 0.484,-0.153 0.45,-0.181L0.666,-0.181ZM0.167,-0.429L0.167,-0.5L0.831,-0.5L0.831,-0.429L0.431,-0.429C0.434,-0.445 0.437,-0.462 0.44,-0.478L0.327,-0.491C0.324,-0.469 0.32,-0.449 0.316,-0.429L0.167,-0.429ZM0.438,-0.679C0.446,-0.655 0.455,-0.626 0.464,-0.599L0.339,-0.599C0.331,-0.628 0.316,-0.664 0.302,-0.696C0.37,-0.698 0.44,-0.701 0.507,-0.705L0.438,-0.679ZM0.568,-0.599C0.559,-0.63 0.544,-0.672 0.53,-0.706C0.593,-0.71 0.655,-0.714 0.712,-0.72C0.698,-0.683 0.674,-0.636 0.653,-0.599L0.568,-0.599ZM0.767,-0.284L0.749,-0.281L0.391,-0.281C0.397,-0.297 0.402,-0.314 0.407,-0.331L0.85,-0.331L0.85,-0.414L0.933,-0.414L0.933,-0.599L0.759,-0.599C0.777,-0.628 0.798,-0.661 0.818,-0.694L0.724,-0.721C0.778,-0.726 0.829,-0.732 0.875,-0.738L0.842,-0.833C0.65,-0.805 0.352,-0.788 0.099,-0.783C0.108,-0.758 0.12,-0.72 0.122,-0.692C0.17,-0.692 0.221,-0.693 0.271,-0.695L0.211,-0.668C0.22,-0.647 0.229,-0.623 0.237,-0.599L0.069,-0.599L0.069,-0.414L0.154,-0.414L0.154,-0.331L0.292,-0.331C0.245,-0.183 0.165,-0.075 0.035,-0.009C0.057,0.012 0.097,0.059 0.109,0.081C0.211,0.022 0.285,-0.058 0.34,-0.161C0.373,-0.124 0.412,-0.09 0.455,-0.061C0.393,-0.04 0.325,-0.027 0.254,-0.017C0.272,0.005 0.299,0.054 0.308,0.081C0.4,0.065 0.489,0.039 0.568,0C0.66,0.041 0.764,0.067 0.878,0.08C0.892,0.051 0.917,0.003 0.939,-0.022C0.847,-0.03 0.76,-0.044 0.682,-0.067C0.745,-0.113 0.795,-0.169 0.832,-0.239L0.767,-0.284Z" style="fill:white;fill-rule:nonzero;"/>
            </g>
            <g transform="matrix(50,0,0,50,275.431,67.2918)">
                <path d="M0.879,-0.706C0.852,-0.743 0.798,-0.801 0.759,-0.843L0.667,-0.788C0.706,-0.743 0.758,-0.681 0.783,-0.644L0.879,-0.706ZM0.712,-0.325C0.681,-0.27 0.641,-0.221 0.592,-0.179C0.542,-0.221 0.5,-0.27 0.466,-0.325L0.712,-0.325ZM0.798,-0.445L0.776,-0.44L0.484,-0.44C0.494,-0.467 0.503,-0.493 0.512,-0.522L0.942,-0.522L0.942,-0.636L0.541,-0.636C0.554,-0.698 0.565,-0.764 0.574,-0.832L0.441,-0.854C0.432,-0.777 0.419,-0.704 0.403,-0.636L0.265,-0.636C0.292,-0.687 0.318,-0.748 0.335,-0.805L0.209,-0.825C0.19,-0.747 0.153,-0.669 0.14,-0.648C0.127,-0.626 0.112,-0.612 0.097,-0.607C0.11,-0.578 0.129,-0.524 0.136,-0.499C0.145,-0.514 0.187,-0.522 0.241,-0.522L0.371,-0.522C0.306,-0.329 0.199,-0.18 0.022,-0.085C0.051,-0.064 0.093,-0.015 0.109,0.011C0.23,-0.057 0.321,-0.143 0.389,-0.248C0.42,-0.197 0.455,-0.152 0.497,-0.112C0.42,-0.068 0.333,-0.036 0.239,-0.016C0.261,0.011 0.288,0.057 0.301,0.089C0.409,0.061 0.508,0.022 0.594,-0.033C0.679,0.023 0.78,0.064 0.902,0.089C0.918,0.056 0.95,0.007 0.976,-0.019C0.867,-0.037 0.774,-0.068 0.695,-0.11C0.777,-0.185 0.841,-0.282 0.881,-0.406L0.798,-0.445Z" style="fill:white;fill-rule:nonzero;"/>
            </g>
            <g transform="matrix(50,0,0,50,325.431,67.2918)">
                <path d="M0.62,-0.044C0.565,-0.044 0.558,-0.054 0.558,-0.116L0.558,-0.172L0.852,-0.172C0.843,-0.07 0.831,-0.044 0.784,-0.044L0.62,-0.044ZM0.236,-0.288L0.236,-0.381L0.43,-0.381L0.43,-0.288L0.236,-0.288ZM0.43,-0.587L0.43,-0.49L0.236,-0.49L0.236,-0.587L0.43,-0.587ZM0.752,-0.381L0.752,-0.288L0.558,-0.288L0.558,-0.381L0.752,-0.381ZM0.752,-0.587L0.752,-0.49L0.558,-0.49L0.558,-0.587L0.752,-0.587ZM0.874,-0.703L0.558,-0.703L0.558,-0.842L0.43,-0.842L0.43,-0.703L0.113,-0.703L0.113,-0.113L0.236,-0.113L0.236,-0.172L0.43,-0.172L0.43,-0.117C0.43,0.035 0.469,0.076 0.606,0.076L0.796,0.076C0.918,0.076 0.954,0.018 0.971,-0.139C0.942,-0.145 0.904,-0.161 0.874,-0.177L0.874,-0.703Z" style="fill:white;fill-rule:nonzero;"/>
            </g>
        </g>
        <g transform="matrix(1.63252,0,0,1.63252,-144.59,66.0459)">
            <g transform="matrix(28.6243,0,0,28.6243,225.431,67.2918)">
                <path d="M0.478,0.19C0.558,0.19 0.63,0.173 0.698,0.135L0.665,0.053C0.617,0.08 0.551,0.099 0.49,0.099C0.308,0.099 0.156,-0.013 0.156,-0.236C0.156,-0.494 0.349,-0.661 0.545,-0.661C0.763,-0.661 0.856,-0.52 0.856,-0.351C0.856,-0.221 0.785,-0.139 0.716,-0.139C0.662,-0.139 0.644,-0.173 0.662,-0.246L0.711,-0.49L0.62,-0.49L0.604,-0.443L0.602,-0.443C0.583,-0.482 0.553,-0.499 0.515,-0.499C0.385,-0.499 0.289,-0.358 0.289,-0.225C0.289,-0.121 0.349,-0.057 0.435,-0.057C0.482,-0.057 0.539,-0.088 0.572,-0.133L0.574,-0.133C0.585,-0.077 0.637,-0.047 0.701,-0.047C0.816,-0.047 0.951,-0.151 0.951,-0.356C0.951,-0.589 0.798,-0.752 0.557,-0.752C0.286,-0.752 0.056,-0.545 0.056,-0.232C0.056,0.051 0.252,0.19 0.478,0.19ZM0.466,-0.15C0.427,-0.15 0.4,-0.177 0.4,-0.233C0.4,-0.306 0.446,-0.403 0.519,-0.403C0.544,-0.403 0.563,-0.391 0.578,-0.366L0.549,-0.206C0.517,-0.166 0.492,-0.15 0.466,-0.15Z" style="fill:white;fill-rule:nonzero;"/>
            </g>
            <g transform="matrix(28.6243,0,0,28.6243,254.255,67.2918)">
                <path d="M0.393,0.014C0.489,0.014 0.568,-0.024 0.629,-0.095L0.551,-0.187C0.511,-0.144 0.461,-0.114 0.398,-0.114C0.281,-0.114 0.205,-0.211 0.205,-0.372C0.205,-0.531 0.289,-0.627 0.401,-0.627C0.457,-0.627 0.5,-0.601 0.537,-0.565L0.615,-0.659C0.567,-0.709 0.492,-0.754 0.398,-0.754C0.211,-0.754 0.054,-0.611 0.054,-0.367C0.054,-0.12 0.206,0.014 0.393,0.014Z" style="fill:white;fill-rule:nonzero;"/>
            </g>
            <g transform="matrix(28.6243,0,0,28.6243,273.061,67.2918)">
                <path d="M0.313,0.014C0.453,0.014 0.582,-0.094 0.582,-0.279C0.582,-0.466 0.453,-0.574 0.313,-0.574C0.173,-0.574 0.044,-0.466 0.044,-0.279C0.044,-0.094 0.173,0.014 0.313,0.014ZM0.313,-0.106C0.237,-0.106 0.194,-0.174 0.194,-0.279C0.194,-0.385 0.237,-0.454 0.313,-0.454C0.389,-0.454 0.432,-0.385 0.432,-0.279C0.432,-0.174 0.389,-0.106 0.313,-0.106Z" style="fill:white;fill-rule:nonzero;"/>
            </g>
            <g transform="matrix(28.6243,0,0,28.6243,290.98,67.2918)">
                <path d="M0.217,0.014C0.251,0.014 0.276,0.008 0.293,0.001L0.275,-0.108C0.265,-0.106 0.261,-0.106 0.255,-0.106C0.241,-0.106 0.225,-0.117 0.225,-0.15L0.225,-0.798L0.079,-0.798L0.079,-0.157C0.079,-0.053 0.115,0.014 0.217,0.014Z" style="fill:white;fill-rule:nonzero;"/>
            </g>
            <g transform="matrix(28.6243,0,0,28.6243,299.997,67.2918)">
                <path d="M0.217,0.014C0.281,0.014 0.337,-0.018 0.386,-0.06L0.389,-0.06L0.4,-0L0.52,-0L0.52,-0.327C0.52,-0.489 0.447,-0.574 0.305,-0.574C0.217,-0.574 0.137,-0.541 0.071,-0.5L0.124,-0.403C0.176,-0.433 0.226,-0.456 0.278,-0.456C0.347,-0.456 0.371,-0.414 0.373,-0.359C0.148,-0.335 0.051,-0.272 0.051,-0.152C0.051,-0.057 0.117,0.014 0.217,0.014ZM0.265,-0.101C0.222,-0.101 0.191,-0.12 0.191,-0.164C0.191,-0.214 0.237,-0.251 0.373,-0.269L0.373,-0.156C0.338,-0.121 0.307,-0.101 0.265,-0.101Z" style="fill:white;fill-rule:nonzero;"/>
            </g>
            <g transform="matrix(28.6243,0,0,28.6243,316.914,67.2918)">
                <path d="M0.079,-0L0.225,-0L0.225,-0.385C0.267,-0.426 0.296,-0.448 0.342,-0.448C0.397,-0.448 0.421,-0.417 0.421,-0.331L0.421,-0L0.568,-0L0.568,-0.349C0.568,-0.49 0.516,-0.574 0.395,-0.574C0.319,-0.574 0.262,-0.534 0.213,-0.486L0.209,-0.486L0.199,-0.56L0.079,-0.56L0.079,-0Z" style="fill:white;fill-rule:nonzero;"/>
            </g>
            <g transform="matrix(28.6243,0,0,28.6243,335.262,67.2918)">
                <path d="M0.079,-0L0.225,-0L0.225,-0.385C0.267,-0.426 0.296,-0.448 0.342,-0.448C0.397,-0.448 0.421,-0.417 0.421,-0.331L0.421,-0L0.568,-0L0.568,-0.349C0.568,-0.49 0.516,-0.574 0.395,-0.574C0.319,-0.574 0.262,-0.534 0.213,-0.486L0.209,-0.486L0.199,-0.56L0.079,-0.56L0.079,-0Z" style="fill:white;fill-rule:nonzero;"/>
            </g>
            <g transform="matrix(28.6243,0,0,28.6243,353.61,67.2918)">
                <path d="M0.239,0.014C0.385,0.014 0.462,-0.065 0.462,-0.163C0.462,-0.267 0.38,-0.304 0.306,-0.332C0.247,-0.354 0.192,-0.369 0.192,-0.41C0.192,-0.442 0.216,-0.464 0.266,-0.464C0.308,-0.464 0.347,-0.444 0.387,-0.416L0.453,-0.505C0.406,-0.54 0.344,-0.574 0.262,-0.574C0.136,-0.574 0.054,-0.503 0.054,-0.402C0.054,-0.309 0.136,-0.266 0.207,-0.239C0.266,-0.216 0.324,-0.197 0.324,-0.155C0.324,-0.12 0.299,-0.096 0.243,-0.096C0.191,-0.096 0.143,-0.118 0.093,-0.157L0.026,-0.065C0.081,-0.019 0.164,0.014 0.239,0.014Z" style="fill:white;fill-rule:nonzero;"/>
            </g>
        </g>
    </g>
</svg>
