<?xml version="1.0" encoding="UTF-8" standalone="no"?>
<!DOCTYPE svg PUBLIC "-//W3C//DTD SVG 1.1//EN" "http://www.w3.org/Graphics/SVG/1.1/DTD/svg11.dtd">
<svg width="100%" height="100%" viewBox="0 0 1478 332" version="1.1" xmlns="http://www.w3.org/2000/svg" xmlns:xlink="http://www.w3.org/1999/xlink" xml:space="preserve" xmlns:serif="http://www.serif.com/" style="fill-rule:evenodd;clip-rule:evenodd;stroke-linejoin:round;stroke-miterlimit:2;">
    <g transform="matrix(1,0,0,1,-2655.8,-2670.38)">
        <g id="图层1">
        </g>
        <g id="Artboard1" transform="matrix(0.940041,0,0,0.337901,1579.52,2409.98)">
            <rect x="1144.93" y="770.653" width="1571.4" height="980.8" style="fill:none;"/>
            <g transform="matrix(3.5956,0,0,10.003,-9196.61,-25027.3)">
                <g transform="matrix(83.3333,0,0,83.3333,2886.88,2648.55)">
                    <path d="M0.369,-0.699L0.378,-0.699C0.386,-0.699 0.46,-0.543 0.601,-0.231L0.709,-0.005L0.7,-0L0.596,-0C0.586,-0.005 0.537,-0.103 0.449,-0.293L0.378,-0.454C0.374,-0.453 0.305,-0.303 0.171,-0.005L0.161,-0L0.057,-0L0.048,-0.005C0.253,-0.456 0.36,-0.688 0.369,-0.699Z" style="fill:white;fill-rule:nonzero;"/>
                </g>
                <g transform="matrix(83.3333,0,0,83.3333,2951.29,2648.55)">
                    <path d="M0.078,-0.086L0.125,-0.13C0.13,-0.135 0.136,-0.137 0.141,-0.137C0.146,-0.137 0.151,-0.134 0.158,-0.129L0.203,-0.084C0.207,-0.079 0.209,-0.074 0.209,-0.069C0.209,-0.064 0.207,-0.059 0.202,-0.054L0.157,-0.008C0.149,-0.001 0.144,0.002 0.141,0.002C0.135,0.002 0.129,0 0.125,-0.005L0.075,-0.057C0.072,-0.062 0.07,-0.066 0.07,-0.07C0.07,-0.076 0.073,-0.081 0.078,-0.086Z" style="fill:white;fill-rule:nonzero;"/>
                </g>
                <g transform="matrix(83.3333,0,0,83.3333,2976.72,2648.55)">
                    <path d="M0.059,-0.7L0.449,-0.7C0.514,-0.7 0.569,-0.656 0.613,-0.568C0.619,-0.548 0.623,-0.534 0.623,-0.526L0.623,-0.488C0.623,-0.411 0.579,-0.352 0.491,-0.31L0.665,-0.009C0.665,-0.003 0.662,-0 0.656,-0L0.552,-0C0.525,-0.032 0.466,-0.132 0.374,-0.301L0.163,-0.301L0.163,-0.014C0.163,-0.008 0.16,-0.005 0.153,-0.005L0.059,-0.005C0.053,-0.005 0.05,-0.008 0.05,-0.014L0.05,-0.69C0.051,-0.697 0.054,-0.7 0.059,-0.7ZM0.163,-0.587L0.163,-0.413L0.425,-0.413C0.482,-0.422 0.51,-0.448 0.51,-0.493L0.51,-0.507C0.501,-0.56 0.474,-0.587 0.43,-0.587L0.163,-0.587Z" style="fill:white;fill-rule:nonzero;"/>
                </g>
                <g transform="matrix(83.3333,0,0,83.3333,3036.74,2648.55)">
                    <path d="M0.078,-0.086L0.125,-0.13C0.13,-0.135 0.136,-0.137 0.141,-0.137C0.146,-0.137 0.151,-0.134 0.158,-0.129L0.203,-0.084C0.207,-0.079 0.209,-0.074 0.209,-0.069C0.209,-0.064 0.207,-0.059 0.202,-0.054L0.157,-0.008C0.149,-0.001 0.144,0.002 0.141,0.002C0.135,0.002 0.129,0 0.125,-0.005L0.075,-0.057C0.072,-0.062 0.07,-0.066 0.07,-0.07C0.07,-0.076 0.073,-0.081 0.078,-0.086Z" style="fill:white;fill-rule:nonzero;"/>
                </g>
                <g transform="matrix(83.3333,0,0,83.3333,3062.17,2648.55)">
                    <path d="M0.058,-0.7L0.511,-0.7C0.517,-0.699 0.52,-0.696 0.52,-0.69L0.52,-0.601C0.52,-0.594 0.517,-0.591 0.511,-0.591L0.171,-0.591L0.171,-0.402L0.454,-0.402C0.46,-0.401 0.463,-0.398 0.463,-0.393L0.463,-0.303C0.463,-0.297 0.46,-0.294 0.454,-0.294L0.171,-0.294L0.171,-0.11L0.511,-0.11C0.517,-0.109 0.52,-0.106 0.52,-0.101L0.52,-0.011C0.52,-0.005 0.517,-0.001 0.511,-0.001L0.058,-0.001C0.051,-0.001 0.048,-0.005 0.048,-0.011L0.048,-0.69C0.049,-0.697 0.052,-0.7 0.058,-0.7Z" style="fill:white;fill-rule:nonzero;"/>
                </g>
                <g transform="matrix(83.3333,0,0,83.3333,3109.53,2648.55)">
                    <path d="M0.078,-0.086L0.125,-0.13C0.13,-0.135 0.136,-0.137 0.141,-0.137C0.146,-0.137 0.151,-0.134 0.158,-0.129L0.203,-0.084C0.207,-0.079 0.209,-0.074 0.209,-0.069C0.209,-0.064 0.207,-0.059 0.202,-0.054L0.157,-0.008C0.149,-0.001 0.144,0.002 0.141,0.002C0.135,0.002 0.129,0 0.125,-0.005L0.075,-0.057C0.072,-0.062 0.07,-0.066 0.07,-0.07C0.07,-0.076 0.073,-0.081 0.078,-0.086Z" style="fill:white;fill-rule:nonzero;"/>
                </g>
                <g transform="matrix(83.3333,0,0,83.3333,3134.96,2648.55)">
                    <path d="M0.046,-0.7L0.051,-0.7C0.35,-0.423 0.499,-0.281 0.499,-0.275L0.503,-0.275L0.503,-0.686C0.504,-0.692 0.507,-0.695 0.513,-0.695L0.616,-0.695C0.622,-0.694 0.625,-0.691 0.625,-0.686L0.625,-0.005L0.62,-0.005L0.167,-0.429L0.167,-0.009C0.167,-0.003 0.164,-0 0.158,-0L0.056,-0C0.049,-0 0.046,-0.003 0.046,-0.009L0.046,-0.7Z" style="fill:white;fill-rule:nonzero;"/>
                </g>
                <g transform="matrix(83.3333,0,0,83.3333,3191.2,2648.55)">
                    <path d="M0.078,-0.086L0.125,-0.13C0.13,-0.135 0.136,-0.137 0.141,-0.137C0.146,-0.137 0.151,-0.134 0.158,-0.129L0.203,-0.084C0.207,-0.079 0.209,-0.074 0.209,-0.069C0.209,-0.064 0.207,-0.059 0.202,-0.054L0.157,-0.008C0.149,-0.001 0.144,0.002 0.141,0.002C0.135,0.002 0.129,0 0.125,-0.005L0.075,-0.057C0.072,-0.062 0.07,-0.066 0.07,-0.07C0.07,-0.076 0.073,-0.081 0.078,-0.086Z" style="fill:white;fill-rule:nonzero;"/>
                </g>
                <g transform="matrix(83.3333,0,0,83.3333,3216.63,2648.55)">
                    <path d="M0.369,-0.699L0.378,-0.699C0.386,-0.699 0.46,-0.543 0.601,-0.231L0.709,-0.005L0.7,-0L0.596,-0C0.586,-0.005 0.537,-0.103 0.449,-0.293L0.378,-0.454C0.374,-0.453 0.305,-0.303 0.171,-0.005L0.161,-0L0.057,-0L0.048,-0.005C0.253,-0.456 0.36,-0.688 0.369,-0.699Z" style="fill:white;fill-rule:nonzero;"/>
                </g>
                <g transform="matrix(83.3333,0,0,83.3333,3281.04,2648.55)">
                    <path d="M0.078,-0.086L0.125,-0.13C0.13,-0.135 0.136,-0.137 0.141,-0.137C0.146,-0.137 0.151,-0.134 0.158,-0.129L0.203,-0.084C0.207,-0.079 0.209,-0.074 0.209,-0.069C0.209,-0.064 0.207,-0.059 0.202,-0.054L0.157,-0.008C0.149,-0.001 0.144,0.002 0.141,0.002C0.135,0.002 0.129,0 0.125,-0.005L0.075,-0.057C0.072,-0.062 0.07,-0.066 0.07,-0.07C0.07,-0.076 0.073,-0.081 0.078,-0.086Z" style="fill:white;fill-rule:nonzero;"/>
                </g>
            </g>
            <g transform="matrix(2.91053,0,0,7.40471,-7840.26,-17923.7)">
                <path d="M3111.5,2642.66L3105.29,2642.66L3105.29,2627.71L3112.91,2627.71L3111.5,2642.66ZM3115.03,2627.71L3132.55,2627.71L3132.55,2642.66L3131.08,2642.66L3131.08,2633.28C3131.08,2632.49 3130.86,2631.86 3130.41,2631.39C3129.97,2630.92 3129.36,2630.68 3128.6,2630.68C3127.84,2630.68 3127.24,2630.92 3126.79,2631.39C3126.34,2631.86 3126.11,2632.49 3126.11,2633.28L3126.11,2634.85L3127.93,2634.85L3127.93,2632.16C3127.93,2631.48 3128.15,2631.14 3128.6,2631.14C3129.05,2631.14 3129.28,2631.48 3129.28,2632.16L3129.28,2636.43L3128.72,2636.43C3126.94,2636.43 3126.04,2637.24 3126.04,2638.88L3126.04,2641.81C3126.04,2642.13 3126.07,2642.41 3126.12,2642.66L3123.89,2642.66L3124.84,2631.27L3125.42,2631.27L3125.42,2630.81L3123.61,2630.81L3123.61,2631.27L3124.2,2631.27L3123.42,2641.28L3122.61,2630.81L3120.89,2630.81L3120.24,2641.28L3119.59,2631.27L3120.17,2631.27L3120.17,2630.81L3117.22,2630.81L3117.22,2631.27L3117.8,2631.27L3118.76,2642.66L3116.34,2642.66L3115.03,2627.71ZM3134.36,2627.71L3161.69,2627.71L3161.69,2631.17C3161.35,2630.85 3160.9,2630.68 3160.34,2630.68C3159.03,2630.68 3158.37,2631.46 3158.37,2633.02L3158.37,2641.81C3158.37,2642.13 3158.4,2642.41 3158.45,2642.66L3156.95,2642.66C3157.11,2642.33 3157.19,2641.96 3157.19,2641.55L3157.19,2639.97L3155.37,2639.97L3155.37,2642.66L3153.75,2642.66L3153.75,2637.62L3157.19,2637.62L3157.19,2633.28C3157.19,2632.55 3156.94,2631.93 3156.45,2631.43C3155.95,2630.93 3155.33,2630.68 3154.57,2630.68C3153.81,2630.68 3153.18,2630.93 3152.69,2631.43C3152.19,2631.93 3151.94,2632.55 3151.94,2633.28L3151.94,2641.55C3151.94,2641.96 3152.02,2642.33 3152.17,2642.66L3150.66,2642.66L3150.66,2633.02C3150.66,2631.46 3150,2630.68 3148.68,2630.68C3148.12,2630.68 3147.67,2630.85 3147.33,2631.17L3147.33,2630.81L3144.94,2630.81L3144.94,2631.27L3145.53,2631.27L3145.53,2642.66L3143.9,2642.66C3144.06,2642.33 3144.13,2641.96 3144.13,2641.55L3144.13,2639.97L3142.32,2639.97L3142.32,2642.66L3140.7,2642.66L3140.7,2637.62L3144.13,2637.62L3144.13,2633.28C3144.13,2632.55 3143.89,2631.93 3143.39,2631.43C3142.9,2630.93 3142.27,2630.68 3141.51,2630.68C3140.76,2630.68 3140.13,2630.93 3139.63,2631.43C3139.13,2631.93 3138.88,2632.55 3138.88,2633.28L3138.88,2641.55C3138.88,2641.96 3138.96,2642.33 3139.12,2642.66L3137.37,2642.66L3135.55,2635.34L3137.26,2631.27L3137.85,2631.27L3137.85,2630.81L3136.08,2630.81L3136.08,2631.27L3136.68,2631.27L3134.36,2636.67L3134.36,2627.71ZM3163.51,2627.71L3168.68,2627.71L3168.68,2642.66L3163.51,2642.66L3163.51,2627.71ZM3173.87,2627.71L3199.02,2627.71L3199.02,2642.66L3193.79,2642.66C3193.95,2642.33 3194.03,2641.96 3194.03,2641.55L3194.03,2639.97L3192.21,2639.97L3192.21,2642.66L3190.59,2642.66L3190.59,2637.62L3194.03,2637.62L3194.03,2633.28C3194.03,2632.55 3193.78,2631.93 3193.28,2631.43C3192.79,2630.93 3192.16,2630.68 3191.41,2630.68C3190.65,2630.68 3190.02,2630.93 3189.53,2631.43C3189.03,2631.93 3188.78,2632.55 3188.78,2633.28L3188.78,2641.55C3188.78,2641.96 3188.86,2642.33 3189.01,2642.66L3187.49,2642.66L3187.49,2633.02C3187.49,2631.46 3186.84,2630.68 3185.52,2630.68C3184.96,2630.68 3184.51,2630.85 3184.17,2631.17L3184.17,2630.81L3181.78,2630.81L3181.78,2631.27L3182.37,2631.27L3182.37,2642.66L3180.78,2642.66L3180.78,2630.81L3178.39,2630.81L3178.39,2631.27L3178.97,2631.27L3178.97,2642.66L3177.46,2642.66L3177.46,2630.81L3175.06,2630.81L3175.06,2631.27L3175.64,2631.27L3175.64,2641.81C3175.64,2642.13 3175.67,2642.41 3175.72,2642.66L3174.13,2642.66L3174.13,2636.98C3174.13,2635.9 3173.59,2635.11 3172.51,2634.62C3173.59,2634.15 3174.13,2633.37 3174.13,2632.26L3174.13,2628.82C3174.13,2628.42 3174.05,2628.05 3173.87,2627.71ZM3204.25,2627.71L3218.58,2627.71L3218.58,2642.66L3217.07,2642.66C3217.22,2642.33 3217.3,2641.96 3217.3,2641.55L3217.3,2639.97L3215.49,2639.97L3215.49,2642.66L3213.86,2642.66L3213.86,2632.16C3213.86,2631.48 3214.14,2631.14 3214.68,2631.14C3215.22,2631.14 3215.49,2631.48 3215.49,2632.16L3215.49,2634.85L3217.3,2634.85L3217.3,2633.28C3217.3,2632.55 3217.05,2631.93 3216.56,2631.43C3216.06,2630.93 3215.44,2630.68 3214.68,2630.68C3213.93,2630.68 3213.3,2630.93 3212.8,2631.43C3212.3,2631.93 3212.05,2632.55 3212.05,2633.28L3212.05,2641.55C3212.05,2641.96 3212.13,2642.33 3212.28,2642.66L3210.77,2642.66L3210.77,2633.02C3210.77,2631.46 3210.11,2630.68 3208.8,2630.68C3208.24,2630.68 3207.78,2630.85 3207.45,2631.17L3207.45,2630.81L3205.05,2630.81L3205.05,2631.27L3205.64,2631.27L3205.64,2642.66L3204.25,2642.66L3204.25,2638.68L3202.39,2638.68L3202.39,2642.66L3200.88,2642.66L3200.88,2634.85L3203.08,2634.85L3203.08,2634.39L3200.88,2634.39L3200.88,2627.71L3202.39,2627.71L3202.39,2631.57L3204.25,2631.57L3204.25,2627.71ZM3220.39,2627.71L3238.08,2627.71L3238.08,2630.81L3237.49,2630.81L3237.49,2631.27L3238.08,2631.27L3238.08,2641.43C3238.08,2641.88 3238.18,2642.3 3238.38,2642.66L3236.61,2642.66L3236.61,2633.02C3236.61,2631.46 3235.95,2630.68 3234.63,2630.68C3234.07,2630.68 3233.62,2630.85 3233.28,2631.17L3233.28,2630.81L3230.89,2630.81L3230.89,2631.27L3231.48,2631.27L3231.48,2642.66L3229.96,2642.66L3229.96,2633.28C3229.96,2632.49 3229.74,2631.86 3229.29,2631.39C3228.84,2630.92 3228.24,2630.68 3227.47,2630.68C3226.72,2630.68 3226.12,2630.92 3225.67,2631.39C3225.22,2631.86 3224.99,2632.49 3224.99,2633.28L3224.99,2634.85L3226.81,2634.85L3226.81,2632.16C3226.81,2631.48 3227.03,2631.14 3227.47,2631.14C3227.93,2631.14 3228.16,2631.48 3228.16,2632.16L3228.16,2636.43L3227.6,2636.43C3225.82,2636.43 3224.92,2637.24 3224.92,2638.88L3224.92,2641.81C3224.92,2642.13 3224.95,2642.41 3225,2642.66L3223.71,2642.66L3223.71,2633.02C3223.71,2631.46 3223.05,2630.68 3221.74,2630.68C3221.18,2630.68 3220.73,2630.85 3220.39,2631.17L3220.39,2627.71ZM3239.88,2627.71L3270.47,2627.71L3270.47,2642.66L3265.36,2642.66C3265.5,2642.33 3265.57,2641.96 3265.57,2641.55L3265.57,2640.14C3265.57,2639.14 3265.33,2638.39 3264.86,2637.87L3262.95,2635.81C3262.54,2635.36 3262.33,2634.73 3262.33,2633.91L3262.33,2632.16C3262.33,2631.48 3262.56,2631.14 3263.02,2631.14C3263.49,2631.14 3263.72,2631.48 3263.72,2632.16L3263.72,2634.85L3265.53,2634.85L3265.53,2633.28C3265.53,2632.54 3265.3,2631.92 3264.84,2631.43C3264.37,2630.93 3263.77,2630.68 3263.02,2630.68C3262.27,2630.68 3261.67,2630.93 3261.21,2631.43C3260.74,2631.92 3260.51,2632.54 3260.51,2633.28L3260.51,2634.49C3260.51,2635.48 3260.75,2636.24 3261.23,2636.75L3263.13,2638.81C3263.56,2639.26 3263.77,2639.9 3263.77,2640.72L3263.77,2642.66L3262.33,2642.66L3262.33,2639.97L3260.51,2639.97L3260.51,2641.55C3260.51,2641.96 3260.59,2642.33 3260.74,2642.66L3259.33,2642.66C3259.47,2642.33 3259.54,2641.96 3259.54,2641.55L3259.54,2640.14C3259.54,2639.14 3259.3,2638.39 3258.82,2637.87L3256.92,2635.81C3256.5,2635.36 3256.3,2634.73 3256.3,2633.91L3256.3,2632.16C3256.3,2631.48 3256.53,2631.14 3256.99,2631.14C3257.45,2631.14 3257.69,2631.48 3257.69,2632.16L3257.69,2634.85L3259.49,2634.85L3259.49,2633.28C3259.49,2632.54 3259.26,2631.92 3258.8,2631.43C3258.34,2630.93 3257.74,2630.68 3256.99,2630.68C3256.24,2630.68 3255.63,2630.93 3255.17,2631.43C3254.71,2631.92 3254.48,2632.54 3254.48,2633.28L3254.48,2634.49C3254.48,2635.48 3254.72,2636.24 3255.19,2636.75L3257.1,2638.81C3257.52,2639.26 3257.74,2639.9 3257.74,2640.72L3257.74,2642.66L3256.3,2642.66L3256.3,2639.97L3254.48,2639.97L3254.48,2641.55C3254.48,2641.96 3254.56,2642.33 3254.7,2642.66L3253.18,2642.66C3253.34,2642.33 3253.41,2641.96 3253.41,2641.55L3253.41,2639.97L3251.6,2639.97L3251.6,2642.66L3249.98,2642.66L3249.98,2637.62L3253.41,2637.62L3253.41,2633.28C3253.41,2632.55 3253.17,2631.93 3252.67,2631.43C3252.18,2630.93 3251.55,2630.68 3250.79,2630.68C3250.04,2630.68 3249.41,2630.93 3248.91,2631.43C3248.41,2631.93 3248.16,2632.55 3248.16,2633.28L3248.16,2641.55C3248.16,2641.96 3248.24,2642.33 3248.4,2642.66L3244.14,2642.66L3244.14,2631.63C3244.38,2631.34 3244.62,2631.19 3244.86,2631.19C3245.23,2631.19 3245.42,2631.51 3245.42,2632.16L3245.42,2634.85L3247.23,2634.85L3247.23,2633.02C3247.23,2631.46 3246.63,2630.68 3245.42,2630.68C3244.9,2630.68 3244.48,2630.85 3244.14,2631.17L3244.14,2630.81L3241.74,2630.81L3241.74,2631.27L3242.33,2631.27L3242.33,2642.66L3239.89,2642.66C3239.88,2642.62 3239.88,2642.58 3239.88,2642.54L3239.88,2631.27L3241.19,2631.27L3241.19,2630.81L3239.88,2630.81L3239.88,2627.71ZM3272.54,2627.71L3274.77,2627.71L3274.77,2638.58L3272.54,2627.71ZM3275.35,2627.71L3300.74,2627.71L3299.33,2642.66L3294.37,2642.66L3294.37,2633.28C3294.37,2632.49 3294.15,2631.86 3293.7,2631.39C3293.25,2630.92 3292.65,2630.68 3291.89,2630.68C3291.13,2630.68 3290.53,2630.92 3290.08,2631.39C3289.63,2631.86 3289.4,2632.49 3289.4,2633.28L3289.4,2634.85L3291.22,2634.85L3291.22,2632.16C3291.22,2631.48 3291.44,2631.14 3291.89,2631.14C3292.34,2631.14 3292.57,2631.48 3292.57,2632.16L3292.57,2636.43L3292.01,2636.43C3290.23,2636.43 3289.33,2637.24 3289.33,2638.88L3289.33,2641.81C3289.33,2642.13 3289.36,2642.41 3289.41,2642.66L3286.75,2642.66L3288.12,2631.27L3288.7,2631.27L3288.7,2630.81L3286.94,2630.81L3286.94,2631.27L3287.52,2631.27L3286.39,2641.6L3285.33,2631.27L3285.92,2631.27L3285.92,2630.81L3282.8,2630.81L3282.8,2631.27L3283.38,2631.27L3284.76,2642.66L3281.88,2642.66C3282.03,2642.33 3282.11,2641.96 3282.11,2641.55L3282.11,2633.28C3282.11,2632.55 3281.86,2631.93 3281.37,2631.43C3280.87,2630.93 3280.24,2630.68 3279.49,2630.68C3278.73,2630.68 3278.11,2630.93 3277.61,2631.43C3277.11,2631.93 3276.86,2632.55 3276.86,2633.28L3276.86,2641.55C3276.86,2641.96 3276.94,2642.33 3277.09,2642.66L3275.35,2642.66L3275.35,2627.71ZM3302.87,2627.71L3370.24,2627.71L3370.24,2642.66L3329.61,2642.66L3329.61,2633.28C3329.61,2632.49 3329.39,2631.86 3328.94,2631.39C3328.49,2630.92 3327.89,2630.68 3327.12,2630.68C3326.37,2630.68 3325.77,2630.92 3325.32,2631.39C3324.87,2631.86 3324.64,2632.49 3324.64,2633.28L3324.64,2634.85L3326.46,2634.85L3326.46,2632.16C3326.46,2631.48 3326.68,2631.14 3327.12,2631.14C3327.58,2631.14 3327.81,2631.48 3327.81,2632.16L3327.81,2636.43L3327.25,2636.43C3325.47,2636.43 3324.57,2637.24 3324.57,2638.88L3324.57,2641.81C3324.57,2642.13 3324.6,2642.41 3324.65,2642.66L3323.36,2642.66L3323.36,2633.02C3323.36,2631.46 3322.7,2630.68 3321.39,2630.68C3320.83,2630.68 3320.38,2630.85 3320.04,2631.17L3320.04,2630.81L3317.64,2630.81L3317.64,2631.27L3318.23,2631.27L3318.23,2642.66L3316.6,2642.66C3316.76,2642.33 3316.84,2641.96 3316.84,2641.55L3316.84,2639.97L3315.02,2639.97L3315.02,2642.66L3313.4,2642.66L3313.4,2637.62L3316.84,2637.62L3316.84,2633.28C3316.84,2632.55 3316.59,2631.93 3316.1,2631.43C3315.6,2630.93 3314.97,2630.68 3314.22,2630.68C3313.46,2630.68 3312.83,2630.93 3312.34,2631.43C3311.84,2631.93 3311.59,2632.55 3311.59,2633.28L3311.59,2641.55C3311.59,2641.96 3311.66,2642.33 3311.82,2642.66L3307.56,2642.66L3307.56,2631.63C3307.8,2631.34 3308.04,2631.19 3308.29,2631.19C3308.66,2631.19 3308.84,2631.51 3308.84,2632.16L3308.84,2634.85L3310.66,2634.85L3310.66,2633.02C3310.66,2631.46 3310.05,2630.68 3308.84,2630.68C3308.33,2630.68 3307.9,2630.85 3307.56,2631.17L3307.56,2630.81L3305.17,2630.81L3305.17,2631.27L3305.76,2631.27L3305.76,2642.66L3304.17,2642.66L3302.87,2627.71ZM3321.56,2642.66L3320.04,2642.66L3320.04,2631.63C3320.3,2631.34 3320.58,2631.19 3320.88,2631.19C3321.33,2631.19 3321.56,2631.51 3321.56,2632.16L3321.56,2642.66ZM3302.32,2642.66L3299.92,2642.66L3300.3,2638.4L3301.97,2638.4L3302.32,2642.66ZM3273.59,2642.66L3271.05,2642.66L3271.05,2630.18L3273.59,2642.66ZM3234.8,2642.66L3233.28,2642.66L3233.28,2631.63C3233.55,2631.34 3233.83,2631.19 3234.12,2631.19C3234.58,2631.19 3234.8,2631.51 3234.8,2632.16L3234.8,2642.66ZM3221.89,2642.66L3220.39,2642.66L3220.39,2631.63C3220.65,2631.34 3220.93,2631.19 3221.22,2631.19C3221.67,2631.19 3221.89,2631.51 3221.89,2632.16L3221.89,2642.66ZM3208.97,2642.66L3207.45,2642.66L3207.45,2631.63C3207.71,2631.34 3207.99,2631.19 3208.28,2631.19C3208.74,2631.19 3208.97,2631.51 3208.97,2632.16L3208.97,2642.66ZM3185.69,2642.66L3184.17,2642.66L3184.17,2631.63C3184.44,2631.34 3184.72,2631.19 3185.01,2631.19C3185.46,2631.19 3185.69,2631.51 3185.69,2632.16L3185.69,2642.66ZM3172.31,2642.66L3170.54,2642.66L3170.54,2634.85L3171.34,2634.85C3171.6,2634.85 3171.82,2634.95 3172,2635.15C3172.18,2635.35 3172.27,2635.59 3172.27,2635.87L3172.27,2642.16C3172.27,2642.34 3172.29,2642.51 3172.31,2642.66ZM3148.85,2642.66L3147.33,2642.66L3147.33,2631.63C3147.6,2631.34 3147.88,2631.19 3148.17,2631.19C3148.63,2631.19 3148.85,2631.51 3148.85,2632.16L3148.85,2642.66ZM3135.55,2642.66L3134.36,2642.66L3134.36,2637.54L3135.55,2642.66ZM3121.89,2642.66L3120.72,2642.66L3121.21,2634.39L3121.89,2642.66ZM3114.48,2642.66L3112.08,2642.66L3112.47,2638.4L3114.14,2638.4L3114.48,2642.66ZM3129.28,2642.66L3127.86,2642.66L3127.86,2637.89C3127.86,2637.22 3128.15,2636.89 3128.74,2636.89L3129.28,2636.89L3129.28,2642.66ZM3161.69,2642.66L3160.18,2642.66L3160.18,2632.16C3160.18,2631.51 3160.41,2631.19 3160.85,2631.19C3161.15,2631.19 3161.43,2631.34 3161.69,2631.63L3161.69,2642.66ZM3170.54,2627.71L3172.27,2627.71L3172.27,2633.38C3172.27,2633.66 3172.18,2633.9 3172,2634.1C3171.82,2634.29 3171.6,2634.39 3171.34,2634.39L3170.54,2634.39L3170.54,2627.71ZM3228.16,2642.66L3226.74,2642.66L3226.74,2637.89C3226.74,2637.22 3227.03,2636.89 3227.62,2636.89L3228.16,2636.89L3228.16,2642.66ZM3292.57,2642.66L3291.15,2642.66L3291.15,2637.89C3291.15,2637.22 3291.44,2636.89 3292.03,2636.89L3292.57,2636.89L3292.57,2642.66ZM3280.29,2642.66L3278.67,2642.66L3278.67,2632.16C3278.67,2631.48 3278.94,2631.14 3279.49,2631.14C3280.03,2631.14 3280.29,2631.48 3280.29,2632.16L3280.29,2642.66ZM3327.81,2642.66L3326.39,2642.66L3326.39,2637.89C3326.39,2637.22 3326.68,2636.89 3327.27,2636.89L3327.81,2636.89L3327.81,2642.66ZM3114.11,2637.95L3112.49,2637.95L3113.34,2628.34L3114.11,2637.95ZM3192.21,2637.16L3190.59,2637.16L3190.59,2632.16C3190.59,2631.48 3190.86,2631.14 3191.41,2631.14C3191.94,2631.14 3192.21,2631.48 3192.21,2632.16L3192.21,2637.16ZM3155.37,2637.16L3153.75,2637.16L3153.75,2632.16C3153.75,2631.48 3154.03,2631.14 3154.57,2631.14C3155.11,2631.14 3155.37,2631.48 3155.37,2632.16L3155.37,2637.16ZM3142.32,2637.16L3140.7,2637.16L3140.7,2632.16C3140.7,2631.48 3140.97,2631.14 3141.51,2631.14C3142.05,2631.14 3142.32,2631.48 3142.32,2632.16L3142.32,2637.16ZM3251.6,2637.16L3249.98,2637.16L3249.98,2632.16C3249.98,2631.48 3250.25,2631.14 3250.79,2631.14C3251.33,2631.14 3251.6,2631.48 3251.6,2632.16L3251.6,2637.16ZM3301.95,2637.95L3300.32,2637.95L3301.17,2628.34L3301.95,2637.95ZM3315.02,2637.16L3313.4,2637.16L3313.4,2632.16C3313.4,2631.48 3313.67,2631.14 3314.22,2631.14C3314.75,2631.14 3315.02,2631.48 3315.02,2632.16L3315.02,2637.16Z" style="fill:white;"/>
            </g>
        </g>
    </g>
</svg>
