<?xml version="1.0" encoding="UTF-8" standalone="no"?>
<!DOCTYPE svg PUBLIC "-//W3C//DTD SVG 1.1//EN" "http://www.w3.org/Graphics/SVG/1.1/DTD/svg11.dtd">
<svg width="100%" height="100%" viewBox="0 0 1478 429" version="1.1" xmlns="http://www.w3.org/2000/svg" xmlns:xlink="http://www.w3.org/1999/xlink" xml:space="preserve" xmlns:serif="http://www.serif.com/" style="fill-rule:evenodd;clip-rule:evenodd;stroke-linejoin:round;stroke-miterlimit:2;">
    <g transform="matrix(1,0,0,1,-2655.8,-2152.27)">
        <g id="图层1">
        </g>
        <g id="Artboard1" transform="matrix(0.940041,0,0,0.437032,1579.52,1815.47)">
            <rect x="1144.93" y="770.653" width="1571.4" height="980.8" style="fill:none;"/>
            <g transform="matrix(3.5956,0,0,7.73402,-9196.61,-19188.6)">
                <g transform="matrix(83.3333,0,0,83.3333,2886.88,2648.55)">
                    <path d="M0.369,-0.699L0.378,-0.699C0.386,-0.699 0.46,-0.543 0.601,-0.231L0.709,-0.005L0.7,-0L0.596,-0C0.586,-0.005 0.537,-0.103 0.449,-0.293L0.378,-0.454C0.374,-0.453 0.305,-0.303 0.171,-0.005L0.161,-0L0.057,-0L0.048,-0.005C0.253,-0.456 0.36,-0.688 0.369,-0.699Z" style="fill-rule:nonzero;"/>
                </g>
                <g transform="matrix(83.3333,0,0,83.3333,2951.29,2648.55)">
                    <path d="M0.078,-0.086L0.125,-0.13C0.13,-0.135 0.136,-0.137 0.141,-0.137C0.146,-0.137 0.151,-0.134 0.158,-0.129L0.203,-0.084C0.207,-0.079 0.209,-0.074 0.209,-0.069C0.209,-0.064 0.207,-0.059 0.202,-0.054L0.157,-0.008C0.149,-0.001 0.144,0.002 0.141,0.002C0.135,0.002 0.129,0 0.125,-0.005L0.075,-0.057C0.072,-0.062 0.07,-0.066 0.07,-0.07C0.07,-0.076 0.073,-0.081 0.078,-0.086Z" style="fill-rule:nonzero;"/>
                </g>
                <g transform="matrix(83.3333,0,0,83.3333,2976.72,2648.55)">
                    <path d="M0.059,-0.7L0.449,-0.7C0.514,-0.7 0.569,-0.656 0.613,-0.568C0.619,-0.548 0.623,-0.534 0.623,-0.526L0.623,-0.488C0.623,-0.411 0.579,-0.352 0.491,-0.31L0.665,-0.009C0.665,-0.003 0.662,-0 0.656,-0L0.552,-0C0.525,-0.032 0.466,-0.132 0.374,-0.301L0.163,-0.301L0.163,-0.014C0.163,-0.008 0.16,-0.005 0.153,-0.005L0.059,-0.005C0.053,-0.005 0.05,-0.008 0.05,-0.014L0.05,-0.69C0.051,-0.697 0.054,-0.7 0.059,-0.7ZM0.163,-0.587L0.163,-0.413L0.425,-0.413C0.482,-0.422 0.51,-0.448 0.51,-0.493L0.51,-0.507C0.501,-0.56 0.474,-0.587 0.43,-0.587L0.163,-0.587Z" style="fill-rule:nonzero;"/>
                </g>
                <g transform="matrix(83.3333,0,0,83.3333,3036.74,2648.55)">
                    <path d="M0.078,-0.086L0.125,-0.13C0.13,-0.135 0.136,-0.137 0.141,-0.137C0.146,-0.137 0.151,-0.134 0.158,-0.129L0.203,-0.084C0.207,-0.079 0.209,-0.074 0.209,-0.069C0.209,-0.064 0.207,-0.059 0.202,-0.054L0.157,-0.008C0.149,-0.001 0.144,0.002 0.141,0.002C0.135,0.002 0.129,0 0.125,-0.005L0.075,-0.057C0.072,-0.062 0.07,-0.066 0.07,-0.07C0.07,-0.076 0.073,-0.081 0.078,-0.086Z" style="fill-rule:nonzero;"/>
                </g>
                <g transform="matrix(83.3333,0,0,83.3333,3062.17,2648.55)">
                    <path d="M0.058,-0.7L0.511,-0.7C0.517,-0.699 0.52,-0.696 0.52,-0.69L0.52,-0.601C0.52,-0.594 0.517,-0.591 0.511,-0.591L0.171,-0.591L0.171,-0.402L0.454,-0.402C0.46,-0.401 0.463,-0.398 0.463,-0.393L0.463,-0.303C0.463,-0.297 0.46,-0.294 0.454,-0.294L0.171,-0.294L0.171,-0.11L0.511,-0.11C0.517,-0.109 0.52,-0.106 0.52,-0.101L0.52,-0.011C0.52,-0.005 0.517,-0.001 0.511,-0.001L0.058,-0.001C0.051,-0.001 0.048,-0.005 0.048,-0.011L0.048,-0.69C0.049,-0.697 0.052,-0.7 0.058,-0.7Z" style="fill-rule:nonzero;"/>
                </g>
                <g transform="matrix(83.3333,0,0,83.3333,3109.53,2648.55)">
                    <path d="M0.078,-0.086L0.125,-0.13C0.13,-0.135 0.136,-0.137 0.141,-0.137C0.146,-0.137 0.151,-0.134 0.158,-0.129L0.203,-0.084C0.207,-0.079 0.209,-0.074 0.209,-0.069C0.209,-0.064 0.207,-0.059 0.202,-0.054L0.157,-0.008C0.149,-0.001 0.144,0.002 0.141,0.002C0.135,0.002 0.129,0 0.125,-0.005L0.075,-0.057C0.072,-0.062 0.07,-0.066 0.07,-0.07C0.07,-0.076 0.073,-0.081 0.078,-0.086Z" style="fill-rule:nonzero;"/>
                </g>
                <g transform="matrix(83.3333,0,0,83.3333,3134.96,2648.55)">
                    <path d="M0.046,-0.7L0.051,-0.7C0.35,-0.423 0.499,-0.281 0.499,-0.275L0.503,-0.275L0.503,-0.686C0.504,-0.692 0.507,-0.695 0.513,-0.695L0.616,-0.695C0.622,-0.694 0.625,-0.691 0.625,-0.686L0.625,-0.005L0.62,-0.005L0.167,-0.429L0.167,-0.009C0.167,-0.003 0.164,-0 0.158,-0L0.056,-0C0.049,-0 0.046,-0.003 0.046,-0.009L0.046,-0.7Z" style="fill-rule:nonzero;"/>
                </g>
                <g transform="matrix(83.3333,0,0,83.3333,3191.2,2648.55)">
                    <path d="M0.078,-0.086L0.125,-0.13C0.13,-0.135 0.136,-0.137 0.141,-0.137C0.146,-0.137 0.151,-0.134 0.158,-0.129L0.203,-0.084C0.207,-0.079 0.209,-0.074 0.209,-0.069C0.209,-0.064 0.207,-0.059 0.202,-0.054L0.157,-0.008C0.149,-0.001 0.144,0.002 0.141,0.002C0.135,0.002 0.129,0 0.125,-0.005L0.075,-0.057C0.072,-0.062 0.07,-0.066 0.07,-0.07C0.07,-0.076 0.073,-0.081 0.078,-0.086Z" style="fill-rule:nonzero;"/>
                </g>
                <g transform="matrix(83.3333,0,0,83.3333,3216.63,2648.55)">
                    <path d="M0.369,-0.699L0.378,-0.699C0.386,-0.699 0.46,-0.543 0.601,-0.231L0.709,-0.005L0.7,-0L0.596,-0C0.586,-0.005 0.537,-0.103 0.449,-0.293L0.378,-0.454C0.374,-0.453 0.305,-0.303 0.171,-0.005L0.161,-0L0.057,-0L0.048,-0.005C0.253,-0.456 0.36,-0.688 0.369,-0.699Z" style="fill-rule:nonzero;"/>
                </g>
                <g transform="matrix(83.3333,0,0,83.3333,3281.04,2648.55)">
                    <path d="M0.078,-0.086L0.125,-0.13C0.13,-0.135 0.136,-0.137 0.141,-0.137C0.146,-0.137 0.151,-0.134 0.158,-0.129L0.203,-0.084C0.207,-0.079 0.209,-0.074 0.209,-0.069C0.209,-0.064 0.207,-0.059 0.202,-0.054L0.157,-0.008C0.149,-0.001 0.144,0.002 0.141,0.002C0.135,0.002 0.129,0 0.125,-0.005L0.075,-0.057C0.072,-0.062 0.07,-0.066 0.07,-0.07C0.07,-0.076 0.073,-0.081 0.078,-0.086Z" style="fill-rule:nonzero;"/>
                </g>
            </g>
            <g transform="matrix(2.91053,0,0,5.72511,-7840.26,-13696.3)">
                <path d="M3111.5,2642.66L3105.29,2642.66L3105.29,2627.71L3112.91,2627.71L3111.5,2642.66ZM3115.03,2627.71L3132.55,2627.71L3132.55,2642.66L3131.08,2642.66L3131.08,2633.28C3131.08,2632.49 3130.86,2631.86 3130.41,2631.39C3129.97,2630.92 3129.36,2630.68 3128.6,2630.68C3127.84,2630.68 3127.24,2630.92 3126.79,2631.39C3126.34,2631.86 3126.11,2632.49 3126.11,2633.28L3126.11,2634.85L3127.93,2634.85L3127.93,2632.16C3127.93,2631.48 3128.15,2631.14 3128.6,2631.14C3129.05,2631.14 3129.28,2631.48 3129.28,2632.16L3129.28,2636.43L3128.72,2636.43C3126.94,2636.43 3126.04,2637.24 3126.04,2638.88L3126.04,2641.81C3126.04,2642.13 3126.07,2642.41 3126.12,2642.66L3123.89,2642.66L3124.84,2631.27L3125.42,2631.27L3125.42,2630.81L3123.61,2630.81L3123.61,2631.27L3124.2,2631.27L3123.42,2641.28L3122.61,2630.81L3120.89,2630.81L3120.24,2641.28L3119.59,2631.27L3120.17,2631.27L3120.17,2630.81L3117.22,2630.81L3117.22,2631.27L3117.8,2631.27L3118.76,2642.66L3116.34,2642.66L3115.03,2627.71ZM3134.36,2627.71L3161.69,2627.71L3161.69,2631.17C3161.35,2630.85 3160.9,2630.68 3160.34,2630.68C3159.03,2630.68 3158.37,2631.46 3158.37,2633.02L3158.37,2641.81C3158.37,2642.13 3158.4,2642.41 3158.45,2642.66L3156.95,2642.66C3157.11,2642.33 3157.19,2641.96 3157.19,2641.55L3157.19,2639.97L3155.37,2639.97L3155.37,2642.66L3153.75,2642.66L3153.75,2637.62L3157.19,2637.62L3157.19,2633.28C3157.19,2632.55 3156.94,2631.93 3156.45,2631.43C3155.95,2630.93 3155.33,2630.68 3154.57,2630.68C3153.81,2630.68 3153.18,2630.93 3152.69,2631.43C3152.19,2631.93 3151.94,2632.55 3151.94,2633.28L3151.94,2641.55C3151.94,2641.96 3152.02,2642.33 3152.17,2642.66L3150.66,2642.66L3150.66,2633.02C3150.66,2631.46 3150,2630.68 3148.68,2630.68C3148.12,2630.68 3147.67,2630.85 3147.33,2631.17L3147.33,2630.81L3144.94,2630.81L3144.94,2631.27L3145.53,2631.27L3145.53,2642.66L3143.9,2642.66C3144.06,2642.33 3144.13,2641.96 3144.13,2641.55L3144.13,2639.97L3142.32,2639.97L3142.32,2642.66L3140.7,2642.66L3140.7,2637.62L3144.13,2637.62L3144.13,2633.28C3144.13,2632.55 3143.89,2631.93 3143.39,2631.43C3142.9,2630.93 3142.27,2630.68 3141.51,2630.68C3140.76,2630.68 3140.13,2630.93 3139.63,2631.43C3139.13,2631.93 3138.88,2632.55 3138.88,2633.28L3138.88,2641.55C3138.88,2641.96 3138.96,2642.33 3139.12,2642.66L3137.37,2642.66L3135.55,2635.34L3137.26,2631.27L3137.85,2631.27L3137.85,2630.81L3136.08,2630.81L3136.08,2631.27L3136.68,2631.27L3134.36,2636.67L3134.36,2627.71ZM3163.51,2627.71L3168.68,2627.71L3168.68,2642.66L3163.51,2642.66L3163.51,2627.71ZM3173.87,2627.71L3199.02,2627.71L3199.02,2642.66L3193.79,2642.66C3193.95,2642.33 3194.03,2641.96 3194.03,2641.55L3194.03,2639.97L3192.21,2639.97L3192.21,2642.66L3190.59,2642.66L3190.59,2637.62L3194.03,2637.62L3194.03,2633.28C3194.03,2632.55 3193.78,2631.93 3193.28,2631.43C3192.79,2630.93 3192.16,2630.68 3191.41,2630.68C3190.65,2630.68 3190.02,2630.93 3189.53,2631.43C3189.03,2631.93 3188.78,2632.55 3188.78,2633.28L3188.78,2641.55C3188.78,2641.96 3188.86,2642.33 3189.01,2642.66L3187.49,2642.66L3187.49,2633.02C3187.49,2631.46 3186.84,2630.68 3185.52,2630.68C3184.96,2630.68 3184.51,2630.85 3184.17,2631.17L3184.17,2630.81L3181.78,2630.81L3181.78,2631.27L3182.37,2631.27L3182.37,2642.66L3180.78,2642.66L3180.78,2630.81L3178.39,2630.81L3178.39,2631.27L3178.97,2631.27L3178.97,2642.66L3177.46,2642.66L3177.46,2630.81L3175.06,2630.81L3175.06,2631.27L3175.64,2631.27L3175.64,2641.81C3175.64,2642.13 3175.67,2642.41 3175.72,2642.66L3174.13,2642.66L3174.13,2636.98C3174.13,2635.9 3173.59,2635.11 3172.51,2634.62C3173.59,2634.15 3174.13,2633.37 3174.13,2632.26L3174.13,2628.82C3174.13,2628.42 3174.05,2628.05 3173.87,2627.71ZM3204.25,2627.71L3218.58,2627.71L3218.58,2642.66L3217.07,2642.66C3217.22,2642.33 3217.3,2641.96 3217.3,2641.55L3217.3,2639.97L3215.49,2639.97L3215.49,2642.66L3213.86,2642.66L3213.86,2632.16C3213.86,2631.48 3214.14,2631.14 3214.68,2631.14C3215.22,2631.14 3215.49,2631.48 3215.49,2632.16L3215.49,2634.85L3217.3,2634.85L3217.3,2633.28C3217.3,2632.55 3217.05,2631.93 3216.56,2631.43C3216.06,2630.93 3215.44,2630.68 3214.68,2630.68C3213.93,2630.68 3213.3,2630.93 3212.8,2631.43C3212.3,2631.93 3212.05,2632.55 3212.05,2633.28L3212.05,2641.55C3212.05,2641.96 3212.13,2642.33 3212.28,2642.66L3210.77,2642.66L3210.77,2633.02C3210.77,2631.46 3210.11,2630.68 3208.8,2630.68C3208.24,2630.68 3207.78,2630.85 3207.45,2631.17L3207.45,2630.81L3205.05,2630.81L3205.05,2631.27L3205.64,2631.27L3205.64,2642.66L3204.25,2642.66L3204.25,2638.68L3202.39,2638.68L3202.39,2642.66L3200.88,2642.66L3200.88,2634.85L3203.08,2634.85L3203.08,2634.39L3200.88,2634.39L3200.88,2627.71L3202.39,2627.71L3202.39,2631.57L3204.25,2631.57L3204.25,2627.71ZM3220.39,2627.71L3238.08,2627.71L3238.08,2630.81L3237.49,2630.81L3237.49,2631.27L3238.08,2631.27L3238.08,2641.43C3238.08,2641.88 3238.18,2642.3 3238.38,2642.66L3236.61,2642.66L3236.61,2633.02C3236.61,2631.46 3235.95,2630.68 3234.63,2630.68C3234.07,2630.68 3233.62,2630.85 3233.28,2631.17L3233.28,2630.81L3230.89,2630.81L3230.89,2631.27L3231.48,2631.27L3231.48,2642.66L3229.96,2642.66L3229.96,2633.28C3229.96,2632.49 3229.74,2631.86 3229.29,2631.39C3228.84,2630.92 3228.24,2630.68 3227.47,2630.68C3226.72,2630.68 3226.12,2630.92 3225.67,2631.39C3225.22,2631.86 3224.99,2632.49 3224.99,2633.28L3224.99,2634.85L3226.81,2634.85L3226.81,2632.16C3226.81,2631.48 3227.03,2631.14 3227.47,2631.14C3227.93,2631.14 3228.16,2631.48 3228.16,2632.16L3228.16,2636.43L3227.6,2636.43C3225.82,2636.43 3224.92,2637.24 3224.92,2638.88L3224.92,2641.81C3224.92,2642.13 3224.95,2642.41 3225,2642.66L3223.71,2642.66L3223.71,2633.02C3223.71,2631.46 3223.05,2630.68 3221.74,2630.68C3221.18,2630.68 3220.73,2630.85 3220.39,2631.17L3220.39,2627.71ZM3239.88,2627.71L3270.47,2627.71L3270.47,2642.66L3265.36,2642.66C3265.5,2642.33 3265.57,2641.96 3265.57,2641.55L3265.57,2640.14C3265.57,2639.14 3265.33,2638.39 3264.86,2637.87L3262.95,2635.81C3262.54,2635.36 3262.33,2634.73 3262.33,2633.91L3262.33,2632.16C3262.33,2631.48 3262.56,2631.14 3263.02,2631.14C3263.49,2631.14 3263.72,2631.48 3263.72,2632.16L3263.72,2634.85L3265.53,2634.85L3265.53,2633.28C3265.53,2632.54 3265.3,2631.92 3264.84,2631.43C3264.37,2630.93 3263.77,2630.68 3263.02,2630.68C3262.27,2630.68 3261.67,2630.93 3261.21,2631.43C3260.74,2631.92 3260.51,2632.54 3260.51,2633.28L3260.51,2634.49C3260.51,2635.48 3260.75,2636.24 3261.23,2636.75L3263.13,2638.81C3263.56,2639.26 3263.77,2639.9 3263.77,2640.72L3263.77,2642.66L3262.33,2642.66L3262.33,2639.97L3260.51,2639.97L3260.51,2641.55C3260.51,2641.96 3260.59,2642.33 3260.74,2642.66L3259.33,2642.66C3259.47,2642.33 3259.54,2641.96 3259.54,2641.55L3259.54,2640.14C3259.54,2639.14 3259.3,2638.39 3258.82,2637.87L3256.92,2635.81C3256.5,2635.36 3256.3,2634.73 3256.3,2633.91L3256.3,2632.16C3256.3,2631.48 3256.53,2631.14 3256.99,2631.14C3257.45,2631.14 3257.69,2631.48 3257.69,2632.16L3257.69,2634.85L3259.49,2634.85L3259.49,2633.28C3259.49,2632.54 3259.26,2631.92 3258.8,2631.43C3258.34,2630.93 3257.74,2630.68 3256.99,2630.68C3256.24,2630.68 3255.63,2630.93 3255.17,2631.43C3254.71,2631.92 3254.48,2632.54 3254.48,2633.28L3254.48,2634.49C3254.48,2635.48 3254.72,2636.24 3255.19,2636.75L3257.1,2638.81C3257.52,2639.26 3257.74,2639.9 3257.74,2640.72L3257.74,2642.66L3256.3,2642.66L3256.3,2639.97L3254.48,2639.97L3254.48,2641.55C3254.48,2641.96 3254.56,2642.33 3254.7,2642.66L3253.18,2642.66C3253.34,2642.33 3253.41,2641.96 3253.41,2641.55L3253.41,2639.97L3251.6,2639.97L3251.6,2642.66L3249.98,2642.66L3249.98,2637.62L3253.41,2637.62L3253.41,2633.28C3253.41,2632.55 3253.17,2631.93 3252.67,2631.43C3252.18,2630.93 3251.55,2630.68 3250.79,2630.68C3250.04,2630.68 3249.41,2630.93 3248.91,2631.43C3248.41,2631.93 3248.16,2632.55 3248.16,2633.28L3248.16,2641.55C3248.16,2641.96 3248.24,2642.33 3248.4,2642.66L3244.14,2642.66L3244.14,2631.63C3244.38,2631.34 3244.62,2631.19 3244.86,2631.19C3245.23,2631.19 3245.42,2631.51 3245.42,2632.16L3245.42,2634.85L3247.23,2634.85L3247.23,2633.02C3247.23,2631.46 3246.63,2630.68 3245.42,2630.68C3244.9,2630.68 3244.48,2630.85 3244.14,2631.17L3244.14,2630.81L3241.74,2630.81L3241.74,2631.27L3242.33,2631.27L3242.33,2642.66L3239.89,2642.66C3239.88,2642.62 3239.88,2642.58 3239.88,2642.54L3239.88,2631.27L3241.19,2631.27L3241.19,2630.81L3239.88,2630.81L3239.88,2627.71ZM3272.54,2627.71L3274.77,2627.71L3274.77,2638.58L3272.54,2627.71ZM3275.35,2627.71L3300.74,2627.71L3299.33,2642.66L3294.37,2642.66L3294.37,2633.28C3294.37,2632.49 3294.15,2631.86 3293.7,2631.39C3293.25,2630.92 3292.65,2630.68 3291.89,2630.68C3291.13,2630.68 3290.53,2630.92 3290.08,2631.39C3289.63,2631.86 3289.4,2632.49 3289.4,2633.28L3289.4,2634.85L3291.22,2634.85L3291.22,2632.16C3291.22,2631.48 3291.44,2631.14 3291.89,2631.14C3292.34,2631.14 3292.57,2631.48 3292.57,2632.16L3292.57,2636.43L3292.01,2636.43C3290.23,2636.43 3289.33,2637.24 3289.33,2638.88L3289.33,2641.81C3289.33,2642.13 3289.36,2642.41 3289.41,2642.66L3286.75,2642.66L3288.12,2631.27L3288.7,2631.27L3288.7,2630.81L3286.94,2630.81L3286.94,2631.27L3287.52,2631.27L3286.39,2641.6L3285.33,2631.27L3285.92,2631.27L3285.92,2630.81L3282.8,2630.81L3282.8,2631.27L3283.38,2631.27L3284.76,2642.66L3281.88,2642.66C3282.03,2642.33 3282.11,2641.96 3282.11,2641.55L3282.11,2633.28C3282.11,2632.55 3281.86,2631.93 3281.37,2631.43C3280.87,2630.93 3280.24,2630.68 3279.49,2630.68C3278.73,2630.68 3278.11,2630.93 3277.61,2631.43C3277.11,2631.93 3276.86,2632.55 3276.86,2633.28L3276.86,2641.55C3276.86,2641.96 3276.94,2642.33 3277.09,2642.66L3275.35,2642.66L3275.35,2627.71ZM3302.87,2627.71L3370.24,2627.71L3370.24,2642.66L3329.61,2642.66L3329.61,2633.28C3329.61,2632.49 3329.39,2631.86 3328.94,2631.39C3328.49,2630.92 3327.89,2630.68 3327.12,2630.68C3326.37,2630.68 3325.77,2630.92 3325.32,2631.39C3324.87,2631.86 3324.64,2632.49 3324.64,2633.28L3324.64,2634.85L3326.46,2634.85L3326.46,2632.16C3326.46,2631.48 3326.68,2631.14 3327.12,2631.14C3327.58,2631.14 3327.81,2631.48 3327.81,2632.16L3327.81,2636.43L3327.25,2636.43C3325.47,2636.43 3324.57,2637.24 3324.57,2638.88L3324.57,2641.81C3324.57,2642.13 3324.6,2642.41 3324.65,2642.66L3323.36,2642.66L3323.36,2633.02C3323.36,2631.46 3322.7,2630.68 3321.39,2630.68C3320.83,2630.68 3320.38,2630.85 3320.04,2631.17L3320.04,2630.81L3317.64,2630.81L3317.64,2631.27L3318.23,2631.27L3318.23,2642.66L3316.6,2642.66C3316.76,2642.33 3316.84,2641.96 3316.84,2641.55L3316.84,2639.97L3315.02,2639.97L3315.02,2642.66L3313.4,2642.66L3313.4,2637.62L3316.84,2637.62L3316.84,2633.28C3316.84,2632.55 3316.59,2631.93 3316.1,2631.43C3315.6,2630.93 3314.97,2630.68 3314.22,2630.68C3313.46,2630.68 3312.83,2630.93 3312.34,2631.43C3311.84,2631.93 3311.59,2632.55 3311.59,2633.28L3311.59,2641.55C3311.59,2641.96 3311.66,2642.33 3311.82,2642.66L3307.56,2642.66L3307.56,2631.63C3307.8,2631.34 3308.04,2631.19 3308.29,2631.19C3308.66,2631.19 3308.84,2631.51 3308.84,2632.16L3308.84,2634.85L3310.66,2634.85L3310.66,2633.02C3310.66,2631.46 3310.05,2630.68 3308.84,2630.68C3308.33,2630.68 3307.9,2630.85 3307.56,2631.17L3307.56,2630.81L3305.17,2630.81L3305.17,2631.27L3305.76,2631.27L3305.76,2642.66L3304.17,2642.66L3302.87,2627.71ZM3321.56,2642.66L3320.04,2642.66L3320.04,2631.63C3320.3,2631.34 3320.58,2631.19 3320.88,2631.19C3321.33,2631.19 3321.56,2631.51 3321.56,2632.16L3321.56,2642.66ZM3302.32,2642.66L3299.92,2642.66L3300.3,2638.4L3301.97,2638.4L3302.32,2642.66ZM3273.59,2642.66L3271.05,2642.66L3271.05,2630.18L3273.59,2642.66ZM3234.8,2642.66L3233.28,2642.66L3233.28,2631.63C3233.55,2631.34 3233.83,2631.19 3234.12,2631.19C3234.58,2631.19 3234.8,2631.51 3234.8,2632.16L3234.8,2642.66ZM3221.89,2642.66L3220.39,2642.66L3220.39,2631.63C3220.65,2631.34 3220.93,2631.19 3221.22,2631.19C3221.67,2631.19 3221.89,2631.51 3221.89,2632.16L3221.89,2642.66ZM3208.97,2642.66L3207.45,2642.66L3207.45,2631.63C3207.71,2631.34 3207.99,2631.19 3208.28,2631.19C3208.74,2631.19 3208.97,2631.51 3208.97,2632.16L3208.97,2642.66ZM3185.69,2642.66L3184.17,2642.66L3184.17,2631.63C3184.44,2631.34 3184.72,2631.19 3185.01,2631.19C3185.46,2631.19 3185.69,2631.51 3185.69,2632.16L3185.69,2642.66ZM3172.31,2642.66L3170.54,2642.66L3170.54,2634.85L3171.34,2634.85C3171.6,2634.85 3171.82,2634.95 3172,2635.15C3172.18,2635.35 3172.27,2635.59 3172.27,2635.87L3172.27,2642.16C3172.27,2642.34 3172.29,2642.51 3172.31,2642.66ZM3148.85,2642.66L3147.33,2642.66L3147.33,2631.63C3147.6,2631.34 3147.88,2631.19 3148.17,2631.19C3148.63,2631.19 3148.85,2631.51 3148.85,2632.16L3148.85,2642.66ZM3135.55,2642.66L3134.36,2642.66L3134.36,2637.54L3135.55,2642.66ZM3121.89,2642.66L3120.72,2642.66L3121.21,2634.39L3121.89,2642.66ZM3114.48,2642.66L3112.08,2642.66L3112.47,2638.4L3114.14,2638.4L3114.48,2642.66ZM3129.28,2642.66L3127.86,2642.66L3127.86,2637.89C3127.86,2637.22 3128.15,2636.89 3128.74,2636.89L3129.28,2636.89L3129.28,2642.66ZM3161.69,2642.66L3160.18,2642.66L3160.18,2632.16C3160.18,2631.51 3160.41,2631.19 3160.85,2631.19C3161.15,2631.19 3161.43,2631.34 3161.69,2631.63L3161.69,2642.66ZM3170.54,2627.71L3172.27,2627.71L3172.27,2633.38C3172.27,2633.66 3172.18,2633.9 3172,2634.1C3171.82,2634.29 3171.6,2634.39 3171.34,2634.39L3170.54,2634.39L3170.54,2627.71ZM3228.16,2642.66L3226.74,2642.66L3226.74,2637.89C3226.74,2637.22 3227.03,2636.89 3227.62,2636.89L3228.16,2636.89L3228.16,2642.66ZM3292.57,2642.66L3291.15,2642.66L3291.15,2637.89C3291.15,2637.22 3291.44,2636.89 3292.03,2636.89L3292.57,2636.89L3292.57,2642.66ZM3280.29,2642.66L3278.67,2642.66L3278.67,2632.16C3278.67,2631.48 3278.94,2631.14 3279.49,2631.14C3280.03,2631.14 3280.29,2631.48 3280.29,2632.16L3280.29,2642.66ZM3327.81,2642.66L3326.39,2642.66L3326.39,2637.89C3326.39,2637.22 3326.68,2636.89 3327.27,2636.89L3327.81,2636.89L3327.81,2642.66ZM3114.11,2637.95L3112.49,2637.95L3113.34,2628.34L3114.11,2637.95ZM3192.21,2637.16L3190.59,2637.16L3190.59,2632.16C3190.59,2631.48 3190.86,2631.14 3191.41,2631.14C3191.94,2631.14 3192.21,2631.48 3192.21,2632.16L3192.21,2637.16ZM3155.37,2637.16L3153.75,2637.16L3153.75,2632.16C3153.75,2631.48 3154.03,2631.14 3154.57,2631.14C3155.11,2631.14 3155.37,2631.48 3155.37,2632.16L3155.37,2637.16ZM3142.32,2637.16L3140.7,2637.16L3140.7,2632.16C3140.7,2631.48 3140.97,2631.14 3141.51,2631.14C3142.05,2631.14 3142.32,2631.48 3142.32,2632.16L3142.32,2637.16ZM3251.6,2637.16L3249.98,2637.16L3249.98,2632.16C3249.98,2631.48 3250.25,2631.14 3250.79,2631.14C3251.33,2631.14 3251.6,2631.48 3251.6,2632.16L3251.6,2637.16ZM3301.95,2637.95L3300.32,2637.95L3301.17,2628.34L3301.95,2637.95ZM3315.02,2637.16L3313.4,2637.16L3313.4,2632.16C3313.4,2631.48 3313.67,2631.14 3314.22,2631.14C3314.75,2631.14 3315.02,2631.48 3315.02,2632.16L3315.02,2637.16Z"/>
            </g>
            <g transform="matrix(2.26191,0,0,4.86529,-5739.37,-11499)">
                <g transform="matrix(39.47,0,0,39.47,3066.27,2702.39)">
                    <path d="M0.408,-0.355C0.459,-0.343 0.498,-0.328 0.526,-0.309C0.553,-0.29 0.572,-0.27 0.583,-0.249C0.593,-0.227 0.596,-0.207 0.592,-0.189C0.588,-0.17 0.58,-0.155 0.566,-0.143C0.553,-0.132 0.537,-0.126 0.518,-0.126C0.5,-0.127 0.48,-0.136 0.461,-0.153C0.461,-0.187 0.455,-0.222 0.443,-0.257C0.431,-0.292 0.417,-0.323 0.4,-0.35L0.408,-0.355ZM0.228,-0.589L0.4,-0.516C0.394,-0.503 0.38,-0.497 0.358,-0.499C0.334,-0.459 0.309,-0.422 0.282,-0.39L0.345,-0.367C0.343,-0.363 0.339,-0.359 0.334,-0.355C0.33,-0.352 0.322,-0.349 0.313,-0.348L0.313,0.059C0.312,0.062 0.306,0.066 0.295,0.072C0.284,0.078 0.27,0.083 0.253,0.088C0.236,0.093 0.218,0.095 0.2,0.095L0.174,0.095L0.174,-0.282C0.151,-0.264 0.128,-0.247 0.104,-0.231C0.08,-0.215 0.056,-0.201 0.031,-0.188L0.021,-0.197C0.047,-0.227 0.073,-0.263 0.098,-0.305C0.124,-0.346 0.149,-0.392 0.171,-0.44C0.194,-0.489 0.213,-0.538 0.228,-0.589ZM0.669,-0.55L0.844,-0.535C0.842,-0.521 0.831,-0.512 0.809,-0.508L0.809,-0.423L0.821,-0.423L0.878,-0.509C0.878,-0.509 0.884,-0.503 0.896,-0.492C0.908,-0.482 0.922,-0.469 0.938,-0.453C0.954,-0.438 0.969,-0.424 0.981,-0.411C0.978,-0.4 0.969,-0.395 0.954,-0.395L0.809,-0.395L0.809,-0.067C0.809,-0.035 0.805,-0.008 0.797,0.014C0.789,0.036 0.772,0.053 0.746,0.067C0.721,0.08 0.682,0.089 0.629,0.094C0.627,0.071 0.624,0.051 0.62,0.035C0.615,0.019 0.609,0.005 0.599,-0.006C0.589,-0.017 0.577,-0.026 0.563,-0.034C0.548,-0.042 0.526,-0.048 0.496,-0.053L0.496,-0.066C0.496,-0.066 0.503,-0.066 0.516,-0.065C0.529,-0.064 0.545,-0.063 0.563,-0.062C0.581,-0.061 0.598,-0.06 0.615,-0.059C0.631,-0.059 0.642,-0.058 0.648,-0.058C0.662,-0.058 0.669,-0.064 0.669,-0.076L0.669,-0.395L0.354,-0.395L0.346,-0.423L0.669,-0.423L0.669,-0.55ZM0.562,-0.856L0.741,-0.795C0.739,-0.789 0.734,-0.784 0.728,-0.78C0.721,-0.776 0.712,-0.775 0.7,-0.775C0.695,-0.765 0.689,-0.756 0.683,-0.747C0.677,-0.738 0.671,-0.73 0.665,-0.721L0.795,-0.721L0.86,-0.804C0.86,-0.804 0.867,-0.799 0.88,-0.789C0.894,-0.778 0.91,-0.766 0.928,-0.751C0.947,-0.736 0.963,-0.722 0.978,-0.709C0.976,-0.698 0.967,-0.693 0.95,-0.693L0.748,-0.693C0.776,-0.682 0.795,-0.668 0.805,-0.653C0.816,-0.637 0.819,-0.621 0.817,-0.605C0.814,-0.59 0.807,-0.577 0.795,-0.566C0.783,-0.556 0.769,-0.55 0.751,-0.549C0.734,-0.548 0.716,-0.554 0.698,-0.568C0.697,-0.59 0.691,-0.612 0.682,-0.634C0.673,-0.656 0.663,-0.676 0.651,-0.693L0.644,-0.693C0.618,-0.661 0.59,-0.633 0.56,-0.609C0.53,-0.584 0.498,-0.564 0.465,-0.547L0.454,-0.555C0.479,-0.594 0.501,-0.642 0.52,-0.699C0.516,-0.695 0.51,-0.693 0.501,-0.693L0.325,-0.693C0.358,-0.682 0.38,-0.668 0.393,-0.652C0.405,-0.635 0.41,-0.619 0.408,-0.603C0.406,-0.587 0.399,-0.574 0.386,-0.563C0.373,-0.553 0.358,-0.547 0.34,-0.547C0.322,-0.547 0.304,-0.554 0.286,-0.57C0.286,-0.591 0.283,-0.613 0.276,-0.635C0.269,-0.657 0.26,-0.676 0.251,-0.693L0.246,-0.693C0.215,-0.651 0.182,-0.614 0.145,-0.582C0.108,-0.55 0.069,-0.523 0.027,-0.502L0.017,-0.51C0.046,-0.551 0.073,-0.603 0.099,-0.665C0.125,-0.726 0.145,-0.791 0.158,-0.857L0.337,-0.794C0.331,-0.78 0.318,-0.774 0.296,-0.775C0.291,-0.765 0.286,-0.756 0.281,-0.747C0.276,-0.738 0.271,-0.73 0.265,-0.721L0.366,-0.721L0.424,-0.801C0.424,-0.801 0.43,-0.796 0.441,-0.786C0.453,-0.777 0.466,-0.765 0.482,-0.751C0.498,-0.737 0.512,-0.724 0.525,-0.712C0.532,-0.735 0.539,-0.759 0.546,-0.783C0.552,-0.807 0.557,-0.832 0.562,-0.856Z" style="fill-rule:nonzero;"/>
                </g>
                <g transform="matrix(39.47,0,0,39.47,3105.74,2702.39)">
                    <path d="M0.383,-0.852C0.441,-0.849 0.488,-0.841 0.521,-0.826C0.555,-0.812 0.579,-0.794 0.594,-0.774C0.608,-0.753 0.614,-0.733 0.612,-0.713C0.611,-0.693 0.603,-0.676 0.59,-0.662C0.577,-0.648 0.56,-0.639 0.539,-0.637C0.519,-0.635 0.497,-0.642 0.473,-0.658C0.467,-0.693 0.455,-0.727 0.437,-0.761C0.419,-0.795 0.399,-0.823 0.377,-0.847L0.383,-0.852ZM0.637,-0.594L0.265,-0.594C0.287,-0.515 0.318,-0.446 0.36,-0.388C0.401,-0.33 0.449,-0.28 0.504,-0.238C0.542,-0.291 0.572,-0.347 0.593,-0.406C0.614,-0.466 0.629,-0.528 0.637,-0.594ZM0.821,-0.732C0.821,-0.732 0.826,-0.728 0.836,-0.72C0.846,-0.712 0.858,-0.702 0.873,-0.689C0.888,-0.677 0.904,-0.663 0.92,-0.649C0.936,-0.635 0.951,-0.622 0.964,-0.61C0.961,-0.599 0.951,-0.594 0.935,-0.594L0.812,-0.594C0.797,-0.512 0.773,-0.435 0.74,-0.364C0.708,-0.293 0.664,-0.229 0.608,-0.171C0.664,-0.141 0.723,-0.116 0.785,-0.096C0.848,-0.076 0.912,-0.059 0.978,-0.046L0.975,-0.034C0.939,-0.029 0.908,-0.015 0.883,0.008C0.857,0.03 0.838,0.059 0.825,0.096C0.763,0.075 0.705,0.049 0.651,0.021C0.598,-0.008 0.549,-0.043 0.504,-0.083C0.445,-0.041 0.377,-0.006 0.299,0.024C0.221,0.054 0.131,0.077 0.031,0.094L0.027,0.084C0.116,0.054 0.194,0.019 0.261,-0.021C0.328,-0.061 0.386,-0.106 0.434,-0.155C0.39,-0.208 0.352,-0.271 0.321,-0.343C0.289,-0.415 0.265,-0.499 0.248,-0.594L0.045,-0.594L0.037,-0.622L0.74,-0.622L0.821,-0.732Z" style="fill-rule:nonzero;"/>
                </g>
                <g transform="matrix(39.47,0,0,39.47,3145.21,2702.39)">
                    <path d="M0.623,-0.594L0.708,-0.594L0.709,-0.66L0.638,-0.66C0.633,-0.651 0.622,-0.648 0.605,-0.652C0.601,-0.645 0.596,-0.639 0.59,-0.633C0.584,-0.627 0.578,-0.621 0.571,-0.615C0.59,-0.6 0.599,-0.585 0.599,-0.569C0.6,-0.552 0.594,-0.54 0.583,-0.531C0.571,-0.522 0.556,-0.521 0.537,-0.528C0.533,-0.534 0.529,-0.541 0.523,-0.548C0.518,-0.554 0.513,-0.561 0.506,-0.568C0.469,-0.546 0.43,-0.528 0.388,-0.516L0.38,-0.531C0.396,-0.541 0.412,-0.551 0.427,-0.563C0.443,-0.576 0.457,-0.588 0.471,-0.602C0.462,-0.611 0.452,-0.618 0.443,-0.626C0.433,-0.633 0.424,-0.639 0.416,-0.645L0.424,-0.654C0.458,-0.654 0.486,-0.651 0.508,-0.645C0.514,-0.652 0.518,-0.658 0.523,-0.665C0.527,-0.672 0.531,-0.679 0.535,-0.686L0.531,-0.687C0.527,-0.692 0.523,-0.697 0.518,-0.703C0.513,-0.709 0.507,-0.715 0.5,-0.72C0.486,-0.711 0.472,-0.702 0.457,-0.694C0.442,-0.686 0.427,-0.678 0.412,-0.672C0.408,-0.664 0.401,-0.66 0.388,-0.66L0.285,-0.66L0.288,-0.594L0.303,-0.594L0.343,-0.647C0.343,-0.647 0.347,-0.643 0.356,-0.636C0.364,-0.629 0.374,-0.621 0.385,-0.611C0.396,-0.601 0.406,-0.591 0.416,-0.582C0.414,-0.571 0.405,-0.566 0.391,-0.566L0.288,-0.566L0.29,-0.509L0.704,-0.509L0.707,-0.566L0.631,-0.566L0.623,-0.594ZM0.399,-0.689C0.41,-0.698 0.421,-0.708 0.432,-0.718C0.443,-0.729 0.453,-0.74 0.463,-0.751C0.45,-0.761 0.437,-0.77 0.424,-0.778L0.423,-0.778C0.408,-0.774 0.387,-0.769 0.362,-0.764C0.336,-0.759 0.31,-0.755 0.283,-0.752L0.285,-0.688L0.302,-0.688L0.341,-0.738C0.341,-0.738 0.348,-0.733 0.361,-0.722C0.373,-0.712 0.386,-0.701 0.399,-0.689ZM0.131,-0.57L0.144,-0.571C0.152,-0.555 0.159,-0.54 0.164,-0.527L0.157,-0.806L0.275,-0.786C0.291,-0.799 0.306,-0.811 0.32,-0.825C0.334,-0.838 0.345,-0.849 0.354,-0.858L0.438,-0.796C0.449,-0.796 0.459,-0.796 0.469,-0.795C0.479,-0.795 0.487,-0.794 0.496,-0.792C0.511,-0.813 0.522,-0.833 0.531,-0.852L0.625,-0.805C0.62,-0.797 0.609,-0.794 0.591,-0.797C0.587,-0.792 0.583,-0.787 0.578,-0.782C0.573,-0.777 0.567,-0.772 0.562,-0.766C0.578,-0.753 0.586,-0.74 0.587,-0.725C0.588,-0.71 0.583,-0.699 0.572,-0.692L0.636,-0.661L0.627,-0.688L0.71,-0.688L0.713,-0.755L0.625,-0.755L0.616,-0.783L0.705,-0.783L0.755,-0.844L0.883,-0.753C0.877,-0.745 0.865,-0.739 0.846,-0.736L0.839,-0.546L0.872,-0.578L0.991,-0.465C0.984,-0.457 0.972,-0.453 0.954,-0.452C0.936,-0.443 0.915,-0.433 0.89,-0.422C0.865,-0.41 0.841,-0.401 0.82,-0.393L0.833,-0.384C0.831,-0.381 0.826,-0.377 0.82,-0.373C0.814,-0.369 0.806,-0.366 0.796,-0.364L0.796,-0.115C0.796,-0.113 0.789,-0.109 0.776,-0.104C0.763,-0.1 0.747,-0.095 0.729,-0.091C0.711,-0.087 0.694,-0.085 0.679,-0.085L0.669,-0.085L0.669,-0.048C0.669,-0.043 0.671,-0.04 0.674,-0.038C0.676,-0.036 0.684,-0.035 0.696,-0.035L0.839,-0.035C0.851,-0.036 0.86,-0.039 0.865,-0.046C0.876,-0.057 0.893,-0.087 0.916,-0.136L0.924,-0.136L0.927,-0.045C0.945,-0.038 0.956,-0.031 0.962,-0.022C0.967,-0.014 0.97,-0.004 0.97,0.008C0.97,0.024 0.964,0.038 0.953,0.048C0.941,0.058 0.92,0.066 0.889,0.071C0.859,0.076 0.815,0.078 0.759,0.078L0.663,0.078C0.625,0.078 0.598,0.075 0.579,0.069C0.561,0.063 0.548,0.053 0.542,0.038C0.535,0.023 0.532,0.002 0.532,-0.025L0.532,-0.102L0.486,-0.102C0.472,-0.057 0.445,-0.021 0.406,0.006C0.367,0.032 0.318,0.053 0.259,0.066C0.2,0.08 0.132,0.089 0.058,0.094L0.055,0.081C0.132,0.064 0.192,0.043 0.237,0.017C0.282,-0.009 0.312,-0.045 0.328,-0.09C0.317,-0.083 0.302,-0.077 0.284,-0.072C0.266,-0.067 0.248,-0.064 0.229,-0.064L0.209,-0.064L0.209,-0.469L0.354,-0.413L0.645,-0.413L0.707,-0.48L0.805,-0.405L0.811,-0.481L0.176,-0.481C0.181,-0.453 0.179,-0.428 0.169,-0.407C0.16,-0.385 0.143,-0.37 0.118,-0.361C0.098,-0.353 0.08,-0.353 0.064,-0.361C0.049,-0.368 0.038,-0.38 0.032,-0.395C0.026,-0.41 0.026,-0.426 0.033,-0.443C0.039,-0.459 0.054,-0.473 0.076,-0.484C0.091,-0.489 0.104,-0.5 0.115,-0.514C0.126,-0.529 0.131,-0.547 0.131,-0.57ZM0.654,-0.13L0.654,-0.194L0.346,-0.194L0.346,-0.13L0.654,-0.13ZM0.654,-0.222L0.654,-0.286L0.346,-0.286L0.346,-0.222L0.654,-0.222ZM0.654,-0.314L0.654,-0.385L0.346,-0.385L0.346,-0.314L0.654,-0.314Z" style="fill-rule:nonzero;"/>
                </g>
                <g transform="matrix(39.47,0,0,39.47,3184.68,2702.39)">
                    <path d="M0.651,-0.621L0.651,-0.509L0.811,-0.509L0.811,-0.621L0.651,-0.621ZM0.651,-0.649L0.811,-0.649L0.811,-0.755L0.651,-0.755L0.651,-0.649ZM0.53,-0.434L0.53,-0.833L0.662,-0.783L0.807,-0.783L0.866,-0.849L0.976,-0.766C0.973,-0.762 0.969,-0.758 0.963,-0.754C0.957,-0.751 0.949,-0.748 0.938,-0.746L0.938,-0.47C0.938,-0.468 0.929,-0.463 0.91,-0.455C0.891,-0.448 0.866,-0.444 0.833,-0.444L0.811,-0.444L0.811,-0.481L0.651,-0.481L0.651,-0.462C0.651,-0.458 0.642,-0.452 0.625,-0.445C0.607,-0.438 0.583,-0.434 0.552,-0.434L0.53,-0.434ZM0.53,-0.427L0.673,-0.389L0.673,-0.446L0.828,-0.432C0.827,-0.426 0.825,-0.42 0.82,-0.416C0.816,-0.411 0.808,-0.409 0.796,-0.407L0.796,-0.306L0.812,-0.306L0.87,-0.385C0.87,-0.385 0.876,-0.38 0.888,-0.37C0.9,-0.36 0.914,-0.348 0.93,-0.334C0.946,-0.32 0.96,-0.306 0.973,-0.294C0.971,-0.283 0.962,-0.278 0.946,-0.278L0.796,-0.278L0.796,-0.155L0.813,-0.155L0.867,-0.232C0.867,-0.232 0.873,-0.227 0.884,-0.217C0.895,-0.208 0.908,-0.196 0.924,-0.182C0.939,-0.168 0.952,-0.155 0.964,-0.143C0.963,-0.138 0.96,-0.133 0.955,-0.131C0.95,-0.128 0.944,-0.127 0.938,-0.127L0.796,-0.127L0.796,0.032L0.813,0.032L0.874,-0.054C0.874,-0.054 0.88,-0.049 0.893,-0.038C0.906,-0.027 0.921,-0.014 0.938,0.001C0.956,0.016 0.971,0.031 0.985,0.044C0.982,0.055 0.973,0.06 0.957,0.06L0.496,0.06L0.488,0.032L0.673,0.032L0.673,-0.127L0.548,-0.127L0.54,-0.155L0.673,-0.155L0.673,-0.278L0.606,-0.278C0.593,-0.249 0.577,-0.222 0.56,-0.198C0.542,-0.174 0.522,-0.153 0.5,-0.135L0.486,-0.142C0.499,-0.181 0.509,-0.225 0.517,-0.275C0.525,-0.326 0.529,-0.376 0.53,-0.427ZM0.673,-0.382C0.669,-0.371 0.658,-0.366 0.64,-0.366C0.637,-0.355 0.634,-0.345 0.63,-0.335C0.626,-0.325 0.622,-0.316 0.619,-0.306L0.673,-0.306L0.673,-0.382ZM0.268,-0.743L0.243,-0.743L0.243,-0.593L0.268,-0.593L0.268,-0.743ZM0.027,-0.771L0.338,-0.771L0.401,-0.855C0.401,-0.855 0.405,-0.852 0.413,-0.846C0.421,-0.84 0.431,-0.832 0.443,-0.822C0.455,-0.812 0.468,-0.802 0.481,-0.79C0.494,-0.779 0.506,-0.769 0.516,-0.759C0.514,-0.748 0.505,-0.743 0.489,-0.743L0.353,-0.743L0.353,-0.593L0.405,-0.65L0.509,-0.568C0.502,-0.559 0.49,-0.553 0.473,-0.549L0.473,0.047C0.472,0.049 0.467,0.053 0.457,0.059C0.447,0.064 0.435,0.069 0.421,0.073C0.406,0.078 0.393,0.08 0.38,0.08L0.362,0.08L0.362,-0.004L0.155,-0.004L0.155,0.055C0.155,0.061 0.146,0.069 0.129,0.078C0.111,0.087 0.091,0.092 0.069,0.092L0.052,0.092L0.052,-0.639L0.158,-0.594L0.158,-0.743L0.035,-0.743L0.027,-0.771ZM0.362,-0.172L0.155,-0.172L0.155,-0.032L0.362,-0.032L0.362,-0.172ZM0.362,-0.2L0.362,-0.311L0.34,-0.31L0.318,-0.31C0.296,-0.31 0.282,-0.314 0.277,-0.323C0.271,-0.332 0.268,-0.347 0.268,-0.368L0.268,-0.565L0.243,-0.565L0.243,-0.528C0.243,-0.505 0.242,-0.479 0.238,-0.448C0.235,-0.418 0.227,-0.387 0.215,-0.357C0.203,-0.326 0.184,-0.298 0.157,-0.274L0.155,-0.276L0.155,-0.2L0.362,-0.2ZM0.362,-0.386L0.362,-0.565L0.332,-0.565L0.332,-0.399C0.332,-0.39 0.334,-0.386 0.339,-0.386L0.362,-0.386ZM0.155,-0.311C0.168,-0.348 0.176,-0.386 0.178,-0.425C0.179,-0.463 0.18,-0.498 0.18,-0.529L0.18,-0.565L0.155,-0.565L0.155,-0.311Z" style="fill-rule:nonzero;"/>
                </g>
                <g transform="matrix(39.47,0,0,39.47,3224.15,2702.39)">
                    <path d="M0.788,-0.126C0.776,-0.116 0.762,-0.106 0.746,-0.098L0.821,-0.103C0.815,-0.113 0.81,-0.121 0.806,-0.126C0.801,-0.125 0.795,-0.125 0.788,-0.126ZM0.712,-0.026L0.68,-0.105C0.68,-0.105 0.683,-0.106 0.688,-0.107C0.693,-0.108 0.697,-0.109 0.699,-0.11C0.706,-0.113 0.712,-0.122 0.719,-0.136C0.725,-0.15 0.729,-0.162 0.732,-0.172L0.657,-0.172L0.657,-0.042C0.657,-0.036 0.659,-0.032 0.663,-0.03C0.667,-0.027 0.677,-0.026 0.692,-0.026L0.712,-0.026ZM0.881,-0.695C0.881,-0.695 0.886,-0.69 0.897,-0.682C0.907,-0.673 0.92,-0.662 0.934,-0.649C0.948,-0.637 0.961,-0.625 0.972,-0.614C0.97,-0.603 0.961,-0.598 0.946,-0.598L0.807,-0.598C0.829,-0.58 0.856,-0.564 0.889,-0.552C0.922,-0.54 0.955,-0.532 0.989,-0.528L0.989,-0.518C0.948,-0.505 0.922,-0.469 0.911,-0.41C0.882,-0.427 0.858,-0.449 0.839,-0.475C0.819,-0.501 0.803,-0.531 0.791,-0.566L0.791,-0.452C0.791,-0.45 0.786,-0.447 0.777,-0.443C0.768,-0.439 0.756,-0.436 0.742,-0.433C0.729,-0.43 0.715,-0.428 0.701,-0.428L0.681,-0.428L0.681,-0.5C0.666,-0.491 0.65,-0.482 0.634,-0.473C0.617,-0.465 0.6,-0.457 0.581,-0.45L0.654,-0.436C0.65,-0.421 0.637,-0.412 0.614,-0.41L0.561,-0.388L0.733,-0.388L0.785,-0.441L0.889,-0.363C0.884,-0.357 0.876,-0.353 0.864,-0.35L0.864,-0.189C0.864,-0.185 0.856,-0.179 0.842,-0.172C0.827,-0.165 0.811,-0.159 0.793,-0.156L0.827,-0.142C0.826,-0.14 0.825,-0.139 0.824,-0.137C0.822,-0.135 0.821,-0.133 0.819,-0.132C0.847,-0.126 0.867,-0.118 0.88,-0.108C0.893,-0.098 0.9,-0.087 0.902,-0.077C0.904,-0.066 0.902,-0.057 0.896,-0.049C0.89,-0.041 0.882,-0.036 0.871,-0.035C0.861,-0.033 0.85,-0.037 0.839,-0.046C0.839,-0.051 0.838,-0.056 0.837,-0.062C0.836,-0.067 0.834,-0.073 0.832,-0.078C0.819,-0.073 0.805,-0.068 0.789,-0.063C0.773,-0.057 0.756,-0.052 0.739,-0.048C0.735,-0.039 0.73,-0.031 0.722,-0.026L0.79,-0.026C0.807,-0.026 0.823,-0.026 0.838,-0.026C0.853,-0.027 0.864,-0.027 0.871,-0.027C0.883,-0.028 0.892,-0.031 0.898,-0.037C0.903,-0.043 0.908,-0.052 0.914,-0.066C0.921,-0.079 0.928,-0.096 0.936,-0.115L0.947,-0.115L0.95,-0.036C0.965,-0.031 0.976,-0.024 0.981,-0.017C0.986,-0.01 0.989,-0.002 0.989,0.009C0.989,0.024 0.983,0.036 0.972,0.046C0.961,0.055 0.94,0.062 0.909,0.067C0.879,0.072 0.835,0.074 0.778,0.074L0.67,0.074C0.637,0.074 0.612,0.072 0.595,0.067C0.578,0.062 0.566,0.053 0.56,0.04C0.554,0.027 0.551,0.008 0.551,-0.016L0.551,-0.116C0.518,-0.075 0.47,-0.037 0.407,-0.001C0.345,0.034 0.259,0.066 0.15,0.094L0.142,0.08C0.206,0.054 0.259,0.027 0.302,-0C0.344,-0.028 0.378,-0.056 0.403,-0.084C0.428,-0.113 0.448,-0.142 0.461,-0.172L0.398,-0.172L0.398,-0.149C0.398,-0.145 0.393,-0.141 0.382,-0.135C0.372,-0.129 0.359,-0.124 0.343,-0.119C0.327,-0.114 0.311,-0.112 0.294,-0.112L0.277,-0.112L0.277,-0.437L0.405,-0.388L0.482,-0.388L0.487,-0.468L0.545,-0.457C0.57,-0.476 0.591,-0.497 0.608,-0.521C0.626,-0.545 0.64,-0.57 0.651,-0.598L0.603,-0.598L0.6,-0.609L0.595,-0.626L0.681,-0.626L0.681,-0.701L0.824,-0.688C0.823,-0.682 0.82,-0.677 0.816,-0.673C0.811,-0.668 0.803,-0.665 0.791,-0.663L0.791,-0.626L0.831,-0.626L0.881,-0.695ZM0.492,-0.297L0.496,-0.36L0.398,-0.36L0.398,-0.297L0.492,-0.297ZM0.489,-0.269L0.398,-0.269L0.398,-0.2L0.472,-0.2C0.476,-0.212 0.479,-0.223 0.482,-0.235C0.485,-0.246 0.487,-0.258 0.489,-0.269ZM0.629,-0.297L0.741,-0.297L0.741,-0.36L0.638,-0.36C0.637,-0.349 0.635,-0.339 0.634,-0.329C0.632,-0.318 0.631,-0.308 0.629,-0.297ZM0.623,-0.269C0.62,-0.258 0.617,-0.246 0.613,-0.235C0.61,-0.223 0.606,-0.212 0.601,-0.2L0.741,-0.2L0.741,-0.269L0.623,-0.269ZM0.516,-0.682C0.516,-0.682 0.521,-0.678 0.53,-0.67C0.54,-0.662 0.551,-0.653 0.564,-0.641C0.577,-0.63 0.589,-0.619 0.6,-0.609C0.597,-0.598 0.589,-0.593 0.574,-0.593L0.453,-0.593L0.453,-0.584C0.491,-0.584 0.518,-0.579 0.535,-0.569C0.552,-0.559 0.562,-0.548 0.564,-0.536C0.566,-0.523 0.563,-0.511 0.555,-0.501C0.546,-0.491 0.535,-0.484 0.52,-0.482C0.505,-0.479 0.489,-0.484 0.473,-0.495C0.472,-0.506 0.47,-0.516 0.467,-0.527C0.463,-0.537 0.459,-0.547 0.453,-0.555L0.453,-0.442C0.453,-0.44 0.449,-0.437 0.44,-0.433C0.432,-0.429 0.421,-0.426 0.409,-0.423C0.396,-0.42 0.384,-0.418 0.371,-0.418L0.353,-0.418L0.353,-0.494C0.335,-0.481 0.317,-0.469 0.297,-0.458C0.277,-0.447 0.256,-0.437 0.235,-0.428L0.226,-0.442C0.249,-0.462 0.268,-0.486 0.284,-0.512C0.3,-0.538 0.313,-0.565 0.323,-0.593L0.237,-0.593L0.229,-0.621L0.353,-0.621L0.353,-0.699L0.486,-0.687C0.485,-0.681 0.482,-0.676 0.478,-0.672C0.473,-0.667 0.465,-0.664 0.453,-0.662L0.453,-0.621L0.47,-0.621L0.516,-0.682ZM0.851,-0.822C0.851,-0.822 0.881,-0.796 0.894,-0.786C0.906,-0.775 0.919,-0.764 0.933,-0.752C0.946,-0.74 0.958,-0.729 0.969,-0.719C0.966,-0.708 0.957,-0.703 0.941,-0.703L0.223,-0.703L0.223,-0.461C0.223,-0.418 0.222,-0.372 0.219,-0.324C0.216,-0.275 0.209,-0.226 0.197,-0.177C0.185,-0.128 0.167,-0.08 0.142,-0.034C0.116,0.012 0.081,0.054 0.036,0.092L0.025,0.085C0.049,0.031 0.066,-0.026 0.076,-0.088C0.086,-0.149 0.092,-0.212 0.094,-0.276C0.096,-0.339 0.097,-0.401 0.097,-0.461L0.097,-0.781L0.242,-0.731L0.514,-0.731C0.505,-0.734 0.497,-0.738 0.488,-0.744C0.486,-0.765 0.481,-0.785 0.472,-0.804C0.463,-0.823 0.454,-0.839 0.444,-0.851L0.45,-0.856C0.501,-0.859 0.539,-0.856 0.564,-0.846C0.59,-0.836 0.606,-0.823 0.612,-0.808C0.618,-0.792 0.616,-0.777 0.608,-0.762C0.599,-0.748 0.586,-0.737 0.569,-0.731L0.785,-0.731L0.851,-0.822Z" style="fill-rule:nonzero;"/>
                </g>
                <g transform="matrix(39.47,0,0,39.47,3263.62,2702.39)">
                    <path d="M0.833,-0.694C0.833,-0.694 0.838,-0.69 0.848,-0.682C0.857,-0.675 0.87,-0.665 0.885,-0.653C0.901,-0.641 0.916,-0.628 0.933,-0.615C0.949,-0.601 0.964,-0.589 0.978,-0.577C0.975,-0.566 0.965,-0.561 0.948,-0.561L0.802,-0.561C0.784,-0.484 0.763,-0.414 0.739,-0.352C0.715,-0.29 0.685,-0.235 0.649,-0.186C0.718,-0.161 0.771,-0.136 0.81,-0.112C0.848,-0.087 0.875,-0.063 0.89,-0.041C0.905,-0.018 0.911,0.002 0.908,0.02C0.906,0.038 0.897,0.053 0.883,0.064C0.869,0.075 0.852,0.082 0.832,0.085C0.812,0.087 0.793,0.084 0.774,0.075C0.746,0.047 0.713,0.018 0.676,-0.009C0.639,-0.037 0.599,-0.064 0.558,-0.09C0.501,-0.043 0.43,-0.005 0.344,0.025C0.258,0.054 0.152,0.078 0.025,0.095L0.02,0.084C0.119,0.054 0.204,0.02 0.274,-0.018C0.344,-0.056 0.403,-0.1 0.451,-0.151C0.402,-0.178 0.352,-0.202 0.301,-0.224C0.249,-0.246 0.199,-0.264 0.151,-0.28C0.168,-0.314 0.188,-0.356 0.21,-0.406C0.232,-0.456 0.253,-0.508 0.275,-0.561L0.029,-0.561L0.021,-0.589L0.286,-0.589C0.308,-0.644 0.327,-0.695 0.344,-0.743C0.361,-0.792 0.373,-0.83 0.381,-0.858L0.565,-0.807C0.563,-0.801 0.559,-0.796 0.553,-0.792C0.547,-0.787 0.536,-0.785 0.52,-0.786L0.442,-0.589L0.753,-0.589L0.833,-0.694ZM0.304,-0.277C0.344,-0.269 0.381,-0.261 0.415,-0.253C0.45,-0.245 0.483,-0.237 0.513,-0.229C0.542,-0.274 0.567,-0.323 0.587,-0.378C0.607,-0.433 0.623,-0.494 0.636,-0.561L0.431,-0.561C0.411,-0.512 0.39,-0.462 0.368,-0.413C0.346,-0.363 0.325,-0.318 0.304,-0.277Z" style="fill-rule:nonzero;"/>
                </g>
                <g transform="matrix(39.47,0,0,39.47,3303.09,2702.39)">
                    <path d="M0.427,-0.778C0.427,-0.778 0.433,-0.773 0.445,-0.763C0.457,-0.753 0.471,-0.741 0.487,-0.727C0.503,-0.713 0.517,-0.699 0.53,-0.687C0.527,-0.676 0.518,-0.671 0.503,-0.671L0.367,-0.671L0.498,-0.631C0.496,-0.625 0.492,-0.62 0.486,-0.617C0.48,-0.613 0.472,-0.612 0.461,-0.613C0.446,-0.594 0.427,-0.573 0.404,-0.55C0.381,-0.526 0.358,-0.504 0.334,-0.483L0.386,-0.483L0.445,-0.566C0.445,-0.566 0.45,-0.562 0.459,-0.554C0.468,-0.546 0.48,-0.535 0.494,-0.523C0.508,-0.511 0.521,-0.499 0.534,-0.487L0.534,-0.773L0.672,-0.73C0.701,-0.75 0.73,-0.771 0.758,-0.794C0.785,-0.818 0.808,-0.838 0.824,-0.856L0.969,-0.741C0.963,-0.736 0.955,-0.732 0.944,-0.731C0.933,-0.73 0.919,-0.732 0.902,-0.737C0.874,-0.728 0.839,-0.72 0.798,-0.712C0.758,-0.704 0.716,-0.697 0.673,-0.692L0.673,-0.496L0.783,-0.496L0.855,-0.597C0.855,-0.597 0.888,-0.569 0.902,-0.557C0.916,-0.546 0.93,-0.534 0.944,-0.521C0.959,-0.507 0.972,-0.495 0.984,-0.484C0.983,-0.478 0.98,-0.474 0.974,-0.472C0.969,-0.469 0.963,-0.468 0.956,-0.468L0.882,-0.468L0.882,0.056C0.882,0.06 0.871,0.067 0.851,0.078C0.831,0.089 0.803,0.094 0.766,0.094L0.74,0.094L0.74,-0.468L0.673,-0.468L0.673,-0.429C0.673,-0.385 0.671,-0.339 0.666,-0.291C0.662,-0.243 0.652,-0.197 0.636,-0.15C0.62,-0.104 0.595,-0.06 0.561,-0.018C0.527,0.024 0.48,0.061 0.421,0.094L0.412,0.084C0.449,0.035 0.476,-0.019 0.494,-0.075C0.511,-0.132 0.522,-0.191 0.527,-0.251C0.532,-0.312 0.534,-0.373 0.534,-0.433L0.534,-0.456L0.524,-0.455L0.347,-0.455L0.347,-0.338L0.371,-0.338L0.427,-0.417C0.427,-0.417 0.433,-0.412 0.444,-0.402C0.456,-0.392 0.469,-0.38 0.485,-0.366C0.5,-0.352 0.514,-0.339 0.527,-0.326C0.524,-0.315 0.515,-0.31 0.5,-0.31L0.347,-0.31L0.347,-0.28L0.355,-0.284C0.397,-0.271 0.429,-0.254 0.451,-0.236C0.473,-0.218 0.488,-0.199 0.495,-0.18C0.502,-0.162 0.503,-0.144 0.499,-0.128C0.494,-0.112 0.486,-0.1 0.474,-0.091C0.462,-0.082 0.448,-0.078 0.432,-0.079C0.416,-0.08 0.4,-0.088 0.384,-0.104C0.386,-0.133 0.383,-0.163 0.376,-0.194C0.368,-0.224 0.359,-0.251 0.347,-0.275L0.347,-0.047C0.347,-0.019 0.344,0.004 0.337,0.024C0.33,0.043 0.315,0.059 0.293,0.071C0.272,0.082 0.238,0.09 0.193,0.093C0.193,0.075 0.192,0.059 0.19,0.045C0.188,0.032 0.185,0.021 0.18,0.012C0.175,0.004 0.168,-0.003 0.159,-0.01C0.151,-0.016 0.137,-0.021 0.117,-0.025L0.117,-0.037C0.117,-0.037 0.122,-0.037 0.133,-0.036C0.143,-0.035 0.155,-0.035 0.167,-0.034C0.179,-0.034 0.188,-0.033 0.194,-0.033C0.2,-0.033 0.205,-0.035 0.207,-0.038C0.209,-0.041 0.21,-0.045 0.21,-0.05L0.21,-0.202C0.19,-0.165 0.166,-0.127 0.136,-0.087C0.106,-0.047 0.072,-0.013 0.032,0.017L0.023,0.007C0.038,-0.023 0.05,-0.056 0.061,-0.094C0.071,-0.131 0.08,-0.168 0.086,-0.205C0.093,-0.241 0.097,-0.274 0.099,-0.303L0.21,-0.254L0.21,-0.31L0.045,-0.31L0.037,-0.338L0.21,-0.338L0.21,-0.455L0.032,-0.455L0.024,-0.483L0.175,-0.483C0.162,-0.487 0.15,-0.495 0.139,-0.506C0.14,-0.534 0.138,-0.563 0.132,-0.592C0.125,-0.622 0.118,-0.648 0.11,-0.671L0.048,-0.671L0.04,-0.699L0.247,-0.699C0.243,-0.701 0.24,-0.702 0.237,-0.705C0.234,-0.707 0.231,-0.709 0.227,-0.712C0.227,-0.737 0.223,-0.762 0.214,-0.787C0.205,-0.811 0.194,-0.832 0.183,-0.849L0.19,-0.854C0.239,-0.85 0.276,-0.841 0.302,-0.828C0.327,-0.814 0.344,-0.799 0.351,-0.782C0.359,-0.766 0.36,-0.75 0.354,-0.734C0.348,-0.719 0.338,-0.707 0.323,-0.699L0.37,-0.699L0.427,-0.778ZM0.303,-0.483C0.311,-0.512 0.318,-0.543 0.324,-0.577C0.331,-0.612 0.336,-0.643 0.34,-0.671L0.13,-0.671C0.17,-0.655 0.199,-0.637 0.218,-0.617C0.237,-0.597 0.248,-0.578 0.251,-0.559C0.254,-0.54 0.252,-0.524 0.243,-0.51C0.235,-0.496 0.224,-0.487 0.209,-0.483L0.303,-0.483Z" style="fill-rule:nonzero;"/>
                </g>
                <g transform="matrix(39.47,0,0,39.47,3342.56,2702.39)">
                    <path d="M0.684,-0.615L0.335,-0.615L0.335,-0.499L0.684,-0.499L0.684,-0.615ZM0.684,-0.643L0.684,-0.755L0.335,-0.755L0.335,-0.643L0.684,-0.643ZM0.441,-0.449L0.631,-0.434C0.631,-0.427 0.628,-0.42 0.623,-0.416C0.619,-0.411 0.609,-0.407 0.595,-0.405L0.595,-0.299L0.713,-0.299L0.783,-0.395C0.783,-0.395 0.787,-0.392 0.796,-0.385C0.804,-0.378 0.815,-0.368 0.828,-0.357C0.842,-0.346 0.855,-0.334 0.869,-0.322C0.884,-0.309 0.896,-0.298 0.908,-0.287C0.905,-0.276 0.896,-0.271 0.879,-0.271L0.595,-0.271L0.595,-0.147L0.716,-0.147L0.784,-0.241C0.784,-0.241 0.788,-0.238 0.797,-0.231C0.805,-0.224 0.816,-0.215 0.829,-0.204C0.842,-0.193 0.855,-0.182 0.869,-0.17C0.883,-0.157 0.896,-0.146 0.907,-0.135C0.904,-0.124 0.895,-0.119 0.878,-0.119L0.595,-0.119L0.595,0.026L0.775,0.026L0.846,-0.072C0.846,-0.072 0.851,-0.068 0.859,-0.061C0.868,-0.054 0.879,-0.045 0.892,-0.033C0.905,-0.022 0.919,-0.01 0.933,0.002C0.947,0.015 0.96,0.027 0.972,0.038C0.969,0.049 0.96,0.054 0.944,0.054L0.042,0.054L0.034,0.026L0.441,0.026L0.441,-0.119L0.189,-0.119L0.181,-0.147L0.441,-0.147L0.441,-0.271L0.294,-0.271C0.261,-0.232 0.226,-0.199 0.187,-0.171C0.149,-0.144 0.108,-0.121 0.064,-0.102L0.054,-0.11C0.086,-0.145 0.117,-0.19 0.147,-0.243C0.177,-0.296 0.201,-0.354 0.22,-0.415L0.204,-0.414L0.182,-0.414L0.182,-0.844L0.343,-0.783L0.674,-0.783L0.74,-0.856L0.877,-0.753C0.874,-0.749 0.869,-0.745 0.863,-0.74C0.857,-0.736 0.848,-0.733 0.838,-0.731L0.838,-0.462C0.838,-0.459 0.83,-0.455 0.816,-0.45C0.802,-0.445 0.785,-0.44 0.765,-0.436C0.745,-0.431 0.727,-0.429 0.711,-0.429L0.684,-0.429L0.684,-0.471L0.335,-0.471L0.335,-0.461C0.335,-0.457 0.331,-0.453 0.323,-0.448C0.315,-0.442 0.304,-0.437 0.291,-0.431L0.404,-0.387C0.399,-0.373 0.385,-0.367 0.362,-0.369C0.355,-0.356 0.348,-0.344 0.34,-0.333C0.332,-0.321 0.324,-0.31 0.316,-0.299L0.441,-0.299L0.441,-0.449Z" style="fill-rule:nonzero;"/>
                </g>
                <g transform="matrix(39.47,0,0,39.47,3382.03,2702.39)">
                    <path d="M0.222,-0.772C0.286,-0.775 0.339,-0.77 0.379,-0.759C0.419,-0.747 0.45,-0.731 0.47,-0.711C0.49,-0.692 0.502,-0.671 0.506,-0.65C0.509,-0.629 0.506,-0.61 0.497,-0.593C0.487,-0.576 0.472,-0.564 0.453,-0.558C0.433,-0.552 0.41,-0.554 0.385,-0.565C0.373,-0.59 0.358,-0.614 0.339,-0.639C0.32,-0.664 0.3,-0.687 0.279,-0.709C0.257,-0.731 0.236,-0.75 0.216,-0.766L0.222,-0.772ZM0.148,-0.502C0.214,-0.508 0.268,-0.506 0.31,-0.496C0.352,-0.485 0.384,-0.47 0.405,-0.451C0.426,-0.431 0.439,-0.41 0.443,-0.389C0.448,-0.367 0.445,-0.347 0.435,-0.329C0.426,-0.312 0.411,-0.299 0.391,-0.292C0.371,-0.285 0.347,-0.287 0.321,-0.298C0.309,-0.323 0.294,-0.348 0.274,-0.373C0.255,-0.397 0.234,-0.42 0.211,-0.442C0.188,-0.463 0.165,-0.481 0.142,-0.495L0.148,-0.502ZM0.57,-0.854L0.76,-0.836C0.759,-0.829 0.756,-0.823 0.751,-0.818C0.747,-0.813 0.737,-0.809 0.723,-0.807L0.723,-0.267L0.747,-0.27L0.824,-0.4C0.824,-0.4 0.83,-0.396 0.84,-0.39C0.851,-0.383 0.864,-0.374 0.881,-0.363C0.897,-0.352 0.915,-0.34 0.934,-0.328C0.952,-0.316 0.969,-0.304 0.985,-0.293C0.985,-0.287 0.982,-0.283 0.976,-0.279C0.971,-0.275 0.965,-0.273 0.958,-0.272L0.723,-0.239L0.723,0.043C0.723,0.048 0.717,0.054 0.704,0.063C0.691,0.071 0.676,0.079 0.656,0.085C0.637,0.092 0.618,0.095 0.599,0.095L0.57,0.095L0.57,-0.217L0.048,-0.143L0.036,-0.169L0.57,-0.245L0.57,-0.854Z" style="fill-rule:nonzero;"/>
                </g>
                <g transform="matrix(39.47,0,0,39.47,3421.5,2702.39)">
                    <path d="M0.015,-0.384C0.028,-0.386 0.045,-0.39 0.066,-0.396C0.087,-0.401 0.111,-0.407 0.137,-0.414L0.137,-0.587L0.034,-0.587L0.026,-0.615L0.137,-0.615L0.137,-0.856L0.309,-0.84C0.308,-0.832 0.305,-0.826 0.299,-0.821C0.293,-0.816 0.284,-0.813 0.272,-0.811L0.272,-0.623L0.322,-0.706L0.377,-0.65L0.372,-0.668L0.569,-0.668L0.569,-0.845L0.751,-0.831C0.75,-0.824 0.747,-0.817 0.742,-0.813C0.737,-0.808 0.728,-0.804 0.714,-0.802L0.714,-0.668L0.781,-0.668L0.852,-0.763C0.852,-0.763 0.856,-0.76 0.865,-0.753C0.874,-0.746 0.885,-0.737 0.899,-0.726C0.912,-0.715 0.926,-0.703 0.941,-0.691C0.956,-0.678 0.969,-0.667 0.981,-0.656C0.979,-0.651 0.976,-0.647 0.97,-0.644C0.965,-0.641 0.959,-0.64 0.952,-0.64L0.714,-0.64L0.714,-0.462L0.727,-0.462L0.808,-0.54L0.938,-0.423C0.934,-0.417 0.93,-0.413 0.924,-0.41C0.918,-0.408 0.908,-0.405 0.895,-0.404C0.876,-0.355 0.854,-0.309 0.828,-0.266C0.801,-0.222 0.77,-0.181 0.734,-0.144C0.775,-0.122 0.817,-0.102 0.862,-0.086C0.907,-0.07 0.952,-0.056 0.998,-0.045L0.996,-0.033C0.965,-0.028 0.938,-0.014 0.916,0.008C0.893,0.03 0.877,0.058 0.866,0.093C0.822,0.072 0.781,0.049 0.744,0.024C0.706,-0.001 0.672,-0.03 0.641,-0.063C0.594,-0.028 0.54,0.002 0.48,0.029C0.421,0.055 0.353,0.076 0.278,0.093L0.272,0.082C0.335,0.054 0.392,0.022 0.443,-0.016C0.494,-0.054 0.539,-0.096 0.578,-0.142C0.552,-0.18 0.53,-0.223 0.511,-0.271C0.492,-0.319 0.476,-0.374 0.463,-0.434L0.399,-0.434L0.39,-0.462L0.569,-0.462L0.569,-0.64L0.387,-0.64L0.42,-0.603C0.417,-0.592 0.408,-0.587 0.393,-0.587L0.272,-0.587L0.272,-0.45L0.395,-0.485L0.397,-0.477C0.381,-0.463 0.363,-0.448 0.343,-0.431C0.322,-0.413 0.298,-0.395 0.272,-0.375L0.272,-0.058C0.272,-0.028 0.268,-0.002 0.261,0.02C0.254,0.041 0.24,0.058 0.217,0.07C0.194,0.083 0.16,0.091 0.113,0.095C0.112,0.074 0.11,0.055 0.107,0.039C0.105,0.023 0.1,0.009 0.094,-0.001C0.088,-0.011 0.08,-0.02 0.07,-0.027C0.059,-0.034 0.043,-0.039 0.022,-0.044L0.022,-0.057C0.022,-0.057 0.086,-0.053 0.096,-0.053C0.107,-0.052 0.114,-0.052 0.119,-0.052C0.131,-0.052 0.137,-0.057 0.137,-0.067L0.137,-0.277L0.101,-0.253C0.097,-0.237 0.087,-0.227 0.073,-0.223L0.015,-0.384ZM0.734,-0.434L0.479,-0.434C0.496,-0.388 0.517,-0.347 0.543,-0.311C0.569,-0.275 0.599,-0.243 0.633,-0.214C0.656,-0.248 0.675,-0.284 0.692,-0.32C0.708,-0.357 0.722,-0.395 0.734,-0.434Z" style="fill-rule:nonzero;"/>
                </g>
                <g transform="matrix(39.47,0,0,39.47,3460.97,2702.39)">
                    <path d="M0.548,-0.638L0.548,-0.536L0.736,-0.536L0.736,-0.638L0.548,-0.638ZM0.548,-0.666L0.736,-0.666L0.736,-0.764L0.548,-0.764L0.548,-0.666ZM0.412,-0.447L0.412,-0.846L0.553,-0.792L0.726,-0.792L0.789,-0.859L0.915,-0.763C0.912,-0.76 0.908,-0.756 0.901,-0.752C0.895,-0.748 0.887,-0.745 0.878,-0.743L0.878,-0.51C0.878,-0.508 0.874,-0.504 0.867,-0.499C0.875,-0.493 0.885,-0.486 0.899,-0.475C0.912,-0.465 0.927,-0.453 0.942,-0.441C0.957,-0.429 0.971,-0.418 0.983,-0.407C0.98,-0.396 0.97,-0.391 0.954,-0.391L0.593,-0.391C0.58,-0.364 0.564,-0.339 0.546,-0.314L0.796,-0.314L0.865,-0.379L0.982,-0.281C0.974,-0.272 0.96,-0.266 0.941,-0.263C0.936,-0.197 0.929,-0.143 0.921,-0.1C0.912,-0.057 0.902,-0.022 0.889,0.003C0.876,0.028 0.86,0.047 0.841,0.06C0.808,0.083 0.764,0.094 0.71,0.094C0.71,0.075 0.709,0.058 0.707,0.042C0.705,0.027 0.7,0.015 0.693,0.006C0.681,-0.011 0.66,-0.024 0.632,-0.034C0.572,0.018 0.499,0.061 0.414,0.096L0.406,0.084C0.472,0.039 0.527,-0.015 0.569,-0.079C0.611,-0.142 0.643,-0.212 0.663,-0.286L0.658,-0.286C0.623,-0.221 0.574,-0.163 0.512,-0.112C0.451,-0.061 0.38,-0.018 0.299,0.016L0.289,0.003C0.342,-0.034 0.39,-0.078 0.431,-0.128C0.472,-0.179 0.505,-0.231 0.53,-0.286L0.523,-0.286C0.487,-0.244 0.444,-0.207 0.394,-0.175C0.344,-0.142 0.289,-0.114 0.228,-0.09L0.22,-0.101C0.27,-0.138 0.312,-0.181 0.348,-0.232C0.384,-0.284 0.413,-0.336 0.433,-0.391L0.318,-0.391L0.31,-0.419L0.785,-0.419L0.837,-0.485C0.826,-0.48 0.813,-0.476 0.8,-0.473C0.786,-0.469 0.774,-0.468 0.761,-0.468L0.736,-0.468L0.736,-0.508L0.548,-0.508L0.548,-0.489C0.548,-0.485 0.542,-0.48 0.531,-0.473C0.519,-0.466 0.504,-0.46 0.486,-0.455C0.468,-0.449 0.45,-0.447 0.431,-0.447L0.412,-0.447ZM0.801,-0.286C0.769,-0.192 0.717,-0.112 0.646,-0.046L0.718,-0.043C0.731,-0.043 0.742,-0.046 0.75,-0.051C0.761,-0.061 0.772,-0.085 0.781,-0.124C0.791,-0.162 0.799,-0.216 0.805,-0.286L0.801,-0.286ZM0.016,-0.231C0.028,-0.235 0.044,-0.239 0.063,-0.245C0.081,-0.251 0.103,-0.258 0.126,-0.266L0.126,-0.548L0.04,-0.548L0.032,-0.576L0.126,-0.576L0.126,-0.84L0.3,-0.825C0.299,-0.818 0.296,-0.812 0.292,-0.807C0.287,-0.802 0.278,-0.799 0.263,-0.797L0.263,-0.609L0.299,-0.674C0.299,-0.674 0.302,-0.67 0.309,-0.663C0.316,-0.656 0.324,-0.646 0.334,-0.635C0.344,-0.623 0.354,-0.611 0.365,-0.599C0.375,-0.586 0.384,-0.574 0.392,-0.564C0.389,-0.553 0.38,-0.548 0.365,-0.548L0.263,-0.548L0.263,-0.312L0.38,-0.354L0.383,-0.346C0.357,-0.319 0.322,-0.285 0.278,-0.245C0.234,-0.204 0.18,-0.158 0.115,-0.108C0.114,-0.101 0.111,-0.095 0.106,-0.089C0.102,-0.083 0.096,-0.078 0.09,-0.076L0.016,-0.231Z" style="fill-rule:nonzero;"/>
                </g>
            </g>
        </g>
    </g>
</svg>
