<?xml version="1.0" encoding="UTF-8" standalone="no"?>
<!DOCTYPE svg PUBLIC "-//W3C//DTD SVG 1.1//EN" "http://www.w3.org/Graphics/SVG/1.1/DTD/svg11.dtd">
<svg width="100%" height="100%" viewBox="0 0 898 953" version="1.1" xmlns="http://www.w3.org/2000/svg" xmlns:xlink="http://www.w3.org/1999/xlink" xml:space="preserve" xmlns:serif="http://www.serif.com/" style="fill-rule:evenodd;clip-rule:evenodd;stroke-linejoin:round;stroke-miterlimit:2;">
    <g transform="matrix(1,0,0,1,-1622,-1915.74)">
        <g id="图层1">
        </g>
        <g id="Artboard4" transform="matrix(1.3954,0,0,1.40475,-642.736,833.183)">
            <rect x="1623" y="770.643" width="643.172" height="678.12" style="fill:none;"/>
            <g transform="matrix(0.264009,0,0,0.262253,1954.96,1133.34)">
                <path d="M908.7,173.6C870.9,173.6 826.4,180.1 791.6,204C739.3,240 717.5,311.3 709,351.7C724.6,354.2 745,356.6 767.2,356.6C803.9,356.6 845.4,350.2 877.9,327.8C930,292 950.6,218.5 958.3,177.2C944.8,175.2 927.5,173.6 908.7,173.6ZM860.9,302.9C849,311.1 834.4,317.3 817.4,321.2C802.4,324.7 785.5,326.4 767.2,326.4C760.6,326.4 753.7,326.2 746.7,325.7C750.4,314 755,301.4 761,289C774,261.8 790,241.4 808.6,228.6C832.5,212.2 867.1,203.5 908.7,203.5C912.8,203.5 917,203.6 921.2,203.8C917.7,216 913.2,229.1 907.4,242.1C894.9,269.9 879.2,290.3 860.9,302.9ZM622,616.7C558.9,620.3 502.9,672.3 474.8,703.6C505.2,728.3 563.2,767.3 623.7,767.3C626.1,767.3 628.6,767.2 631,767.1C694.7,763.5 750.3,714 778.6,684C747.9,658.1 689,616.5 628.8,616.5C626.6,616.5 624.3,616.5 622,616.7ZM732.9,686.6C706.2,710 668.9,734.9 629.5,737.2C627.6,737.3 625.7,737.4 623.8,737.4C601.8,737.4 577.4,730.9 551.4,717.9C540.2,712.3 529.8,706.1 520.5,700C529.8,691.4 540.5,682.6 552.2,674.5C577.4,657.3 601.4,647.9 623.6,646.6C625.3,646.5 627.1,646.5 628.8,646.5C650.4,646.5 674.7,653.4 700.9,667.1C712.6,673.2 723.4,679.9 732.9,686.6ZM592.1,284.4C605.7,295.1 619.8,308.4 632.4,322C651.9,336.3 673.5,347.9 691,356C706.9,317.4 729.5,245.3 706.9,186.4C684.1,127.6 617.3,90.6 578.7,73.6C564,111.8 543.5,182.9 566.3,241.7C572,256.5 580.7,270.8 592.1,284.4ZM588.2,154C590.1,140.5 593,127.5 596.3,115.8C607.4,122 619.2,129.4 630.5,138.1C654.6,156.6 670.9,176.5 679,197.2C687,218.2 688.7,244.1 683.9,274.2C681.7,288.2 678.3,301.6 674.6,313.6C666.7,309 659.3,304.2 652.6,299.4C640.1,286 626.7,273.5 613.5,262.9C605.1,252.4 598.7,241.6 594.6,230.9C586.1,209.7 584.1,183.9 588.2,154ZM586.3,545.1C608.3,509.7 642.3,442.2 629.1,380.2C623.8,354.7 610,329.3 587.8,304.6C573.8,294.1 559.5,280.6 547.1,266.6C538.3,259.9 528.8,253.3 520.8,248.2C500.2,283.4 468.5,350.3 481.5,412.1C494.7,474.2 552.3,521.7 586.3,545.1ZM517.3,329C521.2,316.3 526.1,304.2 531.1,293.4C542.6,305.7 555.2,317.2 567.4,326.7C584.8,346.6 595.7,366.7 599.8,386.3L599.8,386.5C604.5,408.5 602,434.3 592.4,463.2C588,476.6 582.5,489.2 576.9,500.4C549.5,477.5 519,444.4 510.8,405.9C506.2,383.8 508.4,357.9 517.3,329ZM715.2,420.7C657.5,446.5 624.1,515.1 609,554.5C632.9,562.3 669.4,571.5 707.5,571.5C731.3,571.5 755.7,567.9 778,557.9C836.1,531.9 870.3,465.8 885.8,427.6C860.7,418.7 821.8,407.7 782,407.7C759.2,407.8 736.2,411.3 715.2,420.7ZM844.1,446.3C838.4,457.1 831.6,468.7 823.5,479.8C805.8,504.2 786.4,521.3 765.7,530.6C749.4,537.9 729.8,541.6 707.5,541.6C687.5,541.6 667.7,538.7 650.4,534.8C656,523.4 662.9,511.2 670.9,499.6C688.2,474.5 707.2,457.2 727.6,448.2C742.9,441.4 761.2,437.9 782,437.9C803.7,437.8 825.3,441.5 844.1,446.3ZM473.1,688.1C495.1,652.7 529.1,585.2 515.9,523.2C502.9,461.4 443,414.1 407.6,391.2C387,426.4 355.3,493.3 368.3,555C381.5,617.2 439.1,664.7 473.1,688.1ZM404,472C408,459 413,446.6 418.1,435.6C428,443.5 438.5,452.7 448.3,463.1C469.1,485.3 482,507.6 486.6,529.3C491.3,551.3 488.8,577.1 479.2,606C474.8,619.4 469.3,632 463.7,643.2C454.3,635.3 444.4,626.1 435.2,615.9C415,593.4 402.4,570.8 397.7,548.7C393,526.7 395.2,500.8 404,472ZM488.8,754.4C478.6,752.1 468.3,751.1 457.9,751.1C403.1,751.1 348.1,779.7 317.2,799.6C341.4,834 390.7,893.2 454.8,907.7C465.6,910.1 476.6,911.2 487.5,911.2C541.8,911.2 595.3,884.8 625.6,866.5C602.1,830.4 553.1,768.8 488.8,754.4ZM487.5,881.1C478.3,881.1 469.5,880.2 461.4,878.3C420.9,869.2 385.9,836.9 361.8,808.4C370.2,804.1 379.6,799.7 389.5,795.8C414.3,786 437.3,781.1 457.8,781.1C466.3,781.1 474.5,782 482.1,783.7C505.1,788.9 528.6,802.5 551.9,824.3C563.1,834.7 572.9,845.9 581.3,856.4C555.4,868.8 521.4,881.1 487.5,881.1ZM377.7,642.3C375.9,579.2 325.6,522 294.9,492.9C268.2,524 225.1,584 226.7,647.1C228.5,710.6 276.4,767.6 305.7,796.7C333.7,765.8 379.5,705.4 377.7,642.3ZM326.5,717.2C319.7,729.5 312,741 304.5,751C296.7,741.6 288.6,730.8 281.4,719.1C265.6,693.4 257.3,668.9 256.6,646.3C256,623.6 262.8,598.6 276.7,571.8C283,559.7 290.1,548.5 297.1,538.6C305.5,548.2 314.1,559.2 321.8,571.1C338.3,596.7 347,620.9 347.6,643.2C348.3,665.5 341.2,690.4 326.5,717.2Z" style="fill:rgb(44,44,44);fill-rule:nonzero;"/>
            </g>
            <g transform="matrix(0.264009,0,0,0.262253,1954.96,1133.34)">
                <path d="M79.8,883.6C73.2,883.6 67,879.4 64.7,872.8C61.8,864.5 66.2,855.3 74.6,852.4C89.1,847.4 107.8,842.6 129.4,837C239.6,808.7 424,761.4 560.3,570.2C657.6,433.7 715.2,287.4 731.4,135.3C732.3,126.5 740.2,120.2 749,121.1C757.8,122 764.1,129.9 763.2,138.7C756.4,202.1 742.4,265.7 721.4,327.7C690.8,418.2 645.3,506 586.4,588.8C553,635.7 514.2,677.5 471.1,713.2C434.2,743.8 393.1,770.7 348.9,793.3C268.3,834.4 192.6,853.8 137.4,868C116.5,873.4 98.4,878 85.1,882.6C83.3,883.3 81.5,883.6 79.8,883.6Z" style="fill:rgb(44,44,44);fill-rule:nonzero;"/>
            </g>
            <g transform="matrix(-0.264009,0,0,0.262253,1934.21,1133.34)">
                <path d="M908.7,173.6C870.9,173.6 826.4,180.1 791.6,204C739.3,240 717.5,311.3 709,351.7C724.6,354.2 745,356.6 767.2,356.6C803.9,356.6 845.4,350.2 877.9,327.8C930,292 950.6,218.5 958.3,177.2C944.8,175.2 927.5,173.6 908.7,173.6ZM860.9,302.9C849,311.1 834.4,317.3 817.4,321.2C802.4,324.7 785.5,326.4 767.2,326.4C760.6,326.4 753.7,326.2 746.7,325.7C750.4,314 755,301.4 761,289C774,261.8 790,241.4 808.6,228.6C832.5,212.2 867.1,203.5 908.7,203.5C912.8,203.5 917,203.6 921.2,203.8C917.7,216 913.2,229.1 907.4,242.1C894.9,269.9 879.2,290.3 860.9,302.9ZM622,616.7C558.9,620.3 502.9,672.3 474.8,703.6C505.2,728.3 563.2,767.3 623.7,767.3C626.1,767.3 628.6,767.2 631,767.1C694.7,763.5 750.3,714 778.6,684C747.9,658.1 689,616.5 628.8,616.5C626.6,616.5 624.3,616.5 622,616.7ZM732.9,686.6C706.2,710 668.9,734.9 629.5,737.2C627.6,737.3 625.7,737.4 623.8,737.4C601.8,737.4 577.4,730.9 551.4,717.9C540.2,712.3 529.8,706.1 520.5,700C529.8,691.4 540.5,682.6 552.2,674.5C577.4,657.3 601.4,647.9 623.6,646.6C625.3,646.5 627.1,646.5 628.8,646.5C650.4,646.5 674.7,653.4 700.9,667.1C712.6,673.2 723.4,679.9 732.9,686.6ZM592.1,284.4C605.7,295.1 619.8,308.4 632.4,322C651.9,336.3 673.5,347.9 691,356C706.9,317.4 729.5,245.3 706.9,186.4C684.1,127.6 617.3,90.6 578.7,73.6C564,111.8 543.5,182.9 566.3,241.7C572,256.5 580.7,270.8 592.1,284.4ZM588.2,154C590.1,140.5 593,127.5 596.3,115.8C607.4,122 619.2,129.4 630.5,138.1C654.6,156.6 670.9,176.5 679,197.2C687,218.2 688.7,244.1 683.9,274.2C681.7,288.2 678.3,301.6 674.6,313.6C666.7,309 659.3,304.2 652.6,299.4C640.1,286 626.7,273.5 613.5,262.9C605.1,252.4 598.7,241.6 594.6,230.9C586.1,209.7 584.1,183.9 588.2,154ZM586.3,545.1C608.3,509.7 642.3,442.2 629.1,380.2C623.8,354.7 610,329.3 587.8,304.6C573.8,294.1 559.5,280.6 547.1,266.6C538.3,259.9 528.8,253.3 520.8,248.2C500.2,283.4 468.5,350.3 481.5,412.1C494.7,474.2 552.3,521.7 586.3,545.1ZM517.3,329C521.2,316.3 526.1,304.2 531.1,293.4C542.6,305.7 555.2,317.2 567.4,326.7C584.8,346.6 595.7,366.7 599.8,386.3L599.8,386.5C604.5,408.5 602,434.3 592.4,463.2C588,476.6 582.5,489.2 576.9,500.4C549.5,477.5 519,444.4 510.8,405.9C506.2,383.8 508.4,357.9 517.3,329ZM715.2,420.7C657.5,446.5 624.1,515.1 609,554.5C632.9,562.3 669.4,571.5 707.5,571.5C731.3,571.5 755.7,567.9 778,557.9C836.1,531.9 870.3,465.8 885.8,427.6C860.7,418.7 821.8,407.7 782,407.7C759.2,407.8 736.2,411.3 715.2,420.7ZM844.1,446.3C838.4,457.1 831.6,468.7 823.5,479.8C805.8,504.2 786.4,521.3 765.7,530.6C749.4,537.9 729.8,541.6 707.5,541.6C687.5,541.6 667.7,538.7 650.4,534.8C656,523.4 662.9,511.2 670.9,499.6C688.2,474.5 707.2,457.2 727.6,448.2C742.9,441.4 761.2,437.9 782,437.9C803.7,437.8 825.3,441.5 844.1,446.3ZM473.1,688.1C495.1,652.7 529.1,585.2 515.9,523.2C502.9,461.4 443,414.1 407.6,391.2C387,426.4 355.3,493.3 368.3,555C381.5,617.2 439.1,664.7 473.1,688.1ZM404,472C408,459 413,446.6 418.1,435.6C428,443.5 438.5,452.7 448.3,463.1C469.1,485.3 482,507.6 486.6,529.3C491.3,551.3 488.8,577.1 479.2,606C474.8,619.4 469.3,632 463.7,643.2C454.3,635.3 444.4,626.1 435.2,615.9C415,593.4 402.4,570.8 397.7,548.7C393,526.7 395.2,500.8 404,472ZM488.8,754.4C478.6,752.1 468.3,751.1 457.9,751.1C403.1,751.1 348.1,779.7 317.2,799.6C341.4,834 390.7,893.2 454.8,907.7C465.6,910.1 476.6,911.2 487.5,911.2C541.8,911.2 595.3,884.8 625.6,866.5C602.1,830.4 553.1,768.8 488.8,754.4ZM487.5,881.1C478.3,881.1 469.5,880.2 461.4,878.3C420.9,869.2 385.9,836.9 361.8,808.4C370.2,804.1 379.6,799.7 389.5,795.8C414.3,786 437.3,781.1 457.8,781.1C466.3,781.1 474.5,782 482.1,783.7C505.1,788.9 528.6,802.5 551.9,824.3C563.1,834.7 572.9,845.9 581.3,856.4C555.4,868.8 521.4,881.1 487.5,881.1ZM377.7,642.3C375.9,579.2 325.6,522 294.9,492.9C268.2,524 225.1,584 226.7,647.1C228.5,710.6 276.4,767.6 305.7,796.7C333.7,765.8 379.5,705.4 377.7,642.3ZM326.5,717.2C319.7,729.5 312,741 304.5,751C296.7,741.6 288.6,730.8 281.4,719.1C265.6,693.4 257.3,668.9 256.6,646.3C256,623.6 262.8,598.6 276.7,571.8C283,559.7 290.1,548.5 297.1,538.6C305.5,548.2 314.1,559.2 321.8,571.1C338.3,596.7 347,620.9 347.6,643.2C348.3,665.5 341.2,690.4 326.5,717.2Z" style="fill:rgb(44,44,44);fill-rule:nonzero;"/>
            </g>
            <g transform="matrix(-0.264009,0,0,0.262253,1934.21,1133.34)">
                <path d="M79.8,883.6C73.2,883.6 67,879.4 64.7,872.8C61.8,864.5 66.2,855.3 74.6,852.4C89.1,847.4 107.8,842.6 129.4,837C239.6,808.7 424,761.4 560.3,570.2C657.6,433.7 715.2,287.4 731.4,135.3C732.3,126.5 740.2,120.2 749,121.1C757.8,122 764.1,129.9 763.2,138.7C756.4,202.1 742.4,265.7 721.4,327.7C690.8,418.2 645.3,506 586.4,588.8C553,635.7 514.2,677.5 471.1,713.2C434.2,743.8 393.1,770.7 348.9,793.3C268.3,834.4 192.6,853.8 137.4,868C116.5,873.4 98.4,878 85.1,882.6C83.3,883.3 81.5,883.6 79.8,883.6Z" style="fill:rgb(44,44,44);fill-rule:nonzero;"/>
            </g>
        </g>
    </g>
</svg>
