<?xml version="1.0" encoding="UTF-8" standalone="no"?>
<!DOCTYPE svg PUBLIC "-//W3C//DTD SVG 1.1//EN" "http://www.w3.org/Graphics/SVG/1.1/DTD/svg11.dtd">
<svg width="100%" height="100%" viewBox="0 0 1553 555" version="1.1" xmlns="http://www.w3.org/2000/svg" xmlns:xlink="http://www.w3.org/1999/xlink" xml:space="preserve" xmlns:serif="http://www.serif.com/" style="fill-rule:evenodd;clip-rule:evenodd;stroke-linejoin:round;stroke-miterlimit:2;">
    <g transform="matrix(1,0,0,1,-1547.69,-3538.11)">
        <g id="图层1">
        </g>
        <g id="Artboard1-with-二维码" serif:id="Artboard1 with 二维码" transform="matrix(0.987783,0,0,0.565392,416.75,3102.39)">
            <rect x="1144.93" y="770.653" width="1571.4" height="980.8" style="fill:none;"/>
            <g id="g1" transform="matrix(3.82627,0,0,6.68479,1561.81,-693.373)">
                <g id="path1" transform="matrix(1.59344,0,0,1.59344,-95.6571,-142.765)">
                    <path d="M1.028,304.47C6.913,297.605 16.248,285.503 19.059,281.092L20.031,279.568L19.48,279.706C19.177,279.782 18.456,280.073 17.879,280.351C16.593,280.971 16.797,281.559 16.414,276.125L16.088,271.493L15.874,271.279C15.757,271.162 15.66,270.957 15.66,270.825L15.66,270.585L16.125,270.633C16.381,270.66 17.962,270.694 19.638,270.709L22.686,270.735L22.69,271.923C22.691,272.577 22.772,273.237 22.87,273.391L23.047,273.67L24.165,272.204L25.166,268.732C25.717,266.822 26.314,264.852 26.494,264.355C26.673,263.857 26.819,263.369 26.819,263.27L26.819,263.089L23.364,263.089L22.066,266.137C21.353,267.814 20.677,269.301 20.566,269.443L20.363,269.702L12.396,269.702L14.252,265.62C15.272,263.376 16.601,260.377 17.204,258.956C17.806,257.536 18.682,255.509 19.15,254.452C19.617,253.396 20,252.452 20,252.356L20,252.18L14.897,252.034L14.523,251.724C14.317,251.553 13.248,250.298 12.147,248.934C9.54,245.703 8.696,244.856 6.517,243.286C5.522,242.57 4.708,241.891 4.708,241.779C4.708,241.666 4.787,241.622 4.883,241.682C6.159,242.47 24.275,246.537 33.587,248.125L36.945,248.698L36.945,249.229C36.944,249.9 36.369,253.195 36.228,253.336C36.118,253.446 29.867,253.027 28.77,252.836L28.138,252.726L26.962,254.989C26.315,256.234 25.786,257.311 25.786,257.381C25.786,257.452 27.836,257.51 30.342,257.51L34.897,257.51L34.786,258.181C34.726,258.551 34.581,259.767 34.464,260.884C34.175,263.66 34.126,263.847 31.907,270.565L29.95,276.49L28.671,279.244C27.967,280.758 26.86,283.117 26.21,284.487L25.028,286.976L21.454,291.24L17.879,295.504L16.615,296.17C15.92,296.536 12.933,298.187 9.978,299.838C4.196,303.069 0.961,304.831 0.812,304.831C0.76,304.831 0.858,304.668 1.028,304.47L1.028,304.47ZM236.149,302.787C233.933,301.695 230.027,299.837 227.47,298.659C224.913,297.481 222.411,296.318 221.911,296.076L221.001,295.635L219.981,292.329C219.421,290.511 218.91,288.801 218.847,288.529L218.732,288.036L219.474,288.175L220.216,288.314L220.325,287.635C220.622,285.78 220.858,283.93 220.858,283.456L220.858,282.927L218.275,282.927C216.854,282.927 215.691,282.993 215.691,283.074C215.691,283.154 215.545,284.418 215.366,285.882C214.995,288.917 214.933,288.698 216.216,288.882L217.195,289.023L218.206,291.916C218.762,293.507 219.276,294.985 219.346,295.201L219.475,295.593L218.978,295.476C218.216,295.295 208.905,293.501 207.736,293.309L206.702,293.139L206.771,292.011C206.844,290.817 208.596,278.378 208.705,278.278C208.74,278.246 212.954,278.152 218.07,278.07L227.37,277.919L227.744,279.958C227.95,281.079 228.637,284.508 229.271,287.576L230.424,293.156L232.202,295.252C233.179,296.406 235.406,298.993 237.151,301.001C238.895,303.01 240.289,304.681 240.25,304.713C240.211,304.746 238.365,303.879 236.149,302.787L236.149,302.787ZM62.833,303.61C61.03,300.39 58.386,296.513 57.157,295.284L56.185,294.312L54.262,293.383C53.205,292.872 51.602,292.263 50.699,292.03L49.059,291.606L46.45,291.606L46.45,291.348C46.449,289.746 45.444,283.547 45.186,283.547C44.818,283.547 31.321,290.351 30.603,290.898C29.632,291.639 29.566,291.445 30.233,289.807C30.548,289.035 31.147,287.287 31.566,285.923L32.327,283.444L34.584,282.307C35.826,281.682 38.613,280.303 40.778,279.242L44.715,277.314L44.341,273.988C44.135,272.158 43.938,270.633 43.903,270.599C43.869,270.564 41.49,270.681 38.617,270.857C35.744,271.034 33.342,271.127 33.278,271.063C33.16,270.946 34.441,266.21 34.666,265.934C34.733,265.851 36.674,265.698 38.978,265.595C41.282,265.493 43.215,265.36 43.274,265.302C43.332,265.243 43.211,264.047 43.004,262.644L42.627,260.093L36.48,259.978L36.616,258.899C36.691,258.305 36.802,257.54 36.862,257.197L36.972,256.575L36.442,255.793C36.15,255.363 35.912,254.969 35.912,254.918C35.912,254.866 37.244,254.823 38.873,254.823C40.502,254.823 41.88,254.778 41.935,254.723C41.99,254.668 41.911,253.716 41.759,252.608C41.607,251.499 41.402,249.874 41.304,248.996L41.125,247.401L39.803,245.731L40.098,245.731C40.26,245.731 42.058,246.006 44.093,246.343C46.128,246.679 48.073,246.989 48.413,247.031L49.033,247.108L49.171,249.364C49.326,251.916 49.695,254.428 49.952,254.687L50.125,254.861L60.502,254.72L60.501,255.237C60.499,255.851 59.952,259.579 59.85,259.671C59.811,259.706 57.687,259.783 55.129,259.841L50.48,259.948L50.518,260.33C50.759,262.775 51.022,264.837 51.104,264.918C51.159,264.974 53.64,264.913 56.617,264.784C59.594,264.654 62.07,264.588 62.118,264.636C62.167,264.685 61.745,265.449 61.182,266.335C60.618,267.221 59.939,268.341 59.672,268.824L59.186,269.702L58.863,269.71C57.2,269.748 51.752,270.118 51.673,270.197C51.616,270.254 51.689,271.095 51.833,272.067L52.096,273.835L52.376,273.835C52.53,273.835 53.905,273.324 55.43,272.699C58.942,271.26 59.058,271.253 58.66,272.513C58.555,272.842 58.268,274.042 58.02,275.178C57.773,276.315 57.524,277.415 57.467,277.624L57.363,278.003L53.063,280.037L53.063,280.476C53.063,281.209 53.71,285.088 53.856,285.231C53.931,285.304 54.783,285.008 55.749,284.572C56.715,284.136 57.601,283.774 57.717,283.767L57.929,283.754L58.616,286.595C59.736,291.227 61.241,296.846 62.36,300.572C63.405,304.052 63.53,304.855 62.833,303.611L62.833,303.61ZM188.126,301.758C184.026,296.677 177.552,291.079 174.946,290.361L174.186,290.151L173.974,289.484C173.857,289.117 173.425,287.235 173.012,285.303C172.6,283.371 172.19,281.604 172.102,281.377L171.942,280.964L170.105,282.708C169.094,283.668 166.473,286.248 164.28,288.443C162.087,290.637 160.256,292.433 160.212,292.433C160.168,292.433 160.459,291.619 160.859,290.624C161.258,289.63 162.1,287.282 162.729,285.407L163.873,281.997L165.867,280.034C166.965,278.954 168.547,277.433 169.383,276.654L170.905,275.237L169.85,270.248C169.27,267.504 168.55,264.097 168.25,262.676C167.95,261.255 167.639,260.022 167.56,259.936L167.415,259.779L161.125,260.013C157.666,260.142 154.771,260.305 154.692,260.377C154.536,260.519 153.815,264.536 153.934,264.599C153.975,264.621 156.519,264.588 159.588,264.526C162.656,264.463 165.238,264.469 165.324,264.538C165.551,264.72 163.186,279.446 162.438,282.514C162.042,284.138 161.936,284.288 161.083,284.438C160.715,284.503 158.671,284.922 156.54,285.37C154.409,285.818 152.665,286.12 152.665,286.043C152.665,285.965 153.222,284.96 153.902,283.809L155.139,281.717L155.553,279.171C155.781,277.77 156.201,275.285 156.486,273.649C156.771,272.012 157.005,270.431 157.005,270.136L157.006,269.598L155.094,269.664C154.042,269.7 153.116,269.794 153.036,269.872C152.795,270.107 150.672,278.704 149.565,283.93C148.996,286.617 148.456,289.088 148.365,289.42L148.201,290.024L146.892,290.291C146.172,290.438 145.15,290.702 144.621,290.878L143.66,291.197L142.221,292.343C141.43,292.973 139.5,294.703 137.932,296.189C136.365,297.674 135.033,298.84 134.973,298.78C134.913,298.72 135.373,297.57 135.995,296.224C137.521,292.919 138.757,290.002 140.666,285.2L142.267,281.17L143.432,276.624C145.235,269.586 146.879,260.76 146.879,258.116L146.879,257.363L146.141,256.396C145.735,255.864 145.433,255.354 145.469,255.262L145.536,255.095L147.602,255.501L149.669,255.907L153.388,255.67C163.477,255.025 166.352,254.818 166.504,254.724L166.67,254.622L166.388,253.121C165.954,250.805 165.944,250.78 165.056,249.855C164.596,249.377 164.254,248.952 164.295,248.911C164.387,248.818 173.11,247.183 173.526,247.18L173.825,247.178L173.577,247.426C173.202,247.801 173.286,248.871 173.92,251.827L174.496,254.514L175.514,254.511C176.074,254.509 178.555,254.431 181.027,254.338L185.521,254.17L185.521,254.432C185.521,254.577 185.183,255.655 184.769,256.829L184.016,258.964L183.581,259.062C183.341,259.117 181.433,259.254 179.341,259.368C177.248,259.481 175.513,259.598 175.485,259.627C175.4,259.714 177.405,269.093 177.536,269.225C177.704,269.392 178.544,268.718 181.905,265.717C183.496,264.296 184.832,263.165 184.872,263.203C184.961,263.286 184.18,265.317 182.345,269.776L180.996,273.053L178.737,275.421L179.014,276.849C179.384,278.766 180.567,284.034 180.644,284.111C180.677,284.145 181.142,283.788 181.676,283.318C182.21,282.848 182.678,282.498 182.716,282.54C182.755,282.583 183.223,284.467 183.755,286.727C185.039,292.173 185.988,294.85 188.304,299.562C191.109,305.267 191.095,305.438 188.126,301.759L188.126,301.758ZM98.727,294.527C96.356,292.573 91.679,289.876 90.259,289.644C88.986,289.436 89.013,289.49 89.463,288.045L89.865,286.755L89.731,285.097L89.272,286.078C89.019,286.618 88.636,287.463 88.421,287.956L88.029,288.853L84.339,288.983C80.228,289.128 63.05,290.1 62,290.246L61.329,290.34L61.329,290.133C61.329,290.019 61.424,289.747 61.541,289.53C61.657,289.312 62.083,286.83 62.487,284.015L63.222,278.897L63.136,277.813L63.051,276.728L66.271,276.73C68.042,276.731 75.98,276.626 83.912,276.496C91.843,276.366 98.371,276.299 98.419,276.346C98.466,276.394 98.217,278.382 97.865,280.765L97.225,285.097L97.595,286.956C97.901,288.497 99.045,292.799 99.643,294.654L99.792,295.119L99.619,295.119C99.523,295.119 99.122,294.852 98.727,294.527L98.727,294.527ZM83.853,284.816L88.089,284.683L88.954,282.927C89.43,281.961 89.825,280.998 89.832,280.787L89.846,280.403L89.519,280.528C89.339,280.597 85.476,280.654 80.934,280.654L72.676,280.654L70.647,282.552L70.517,283.514C70.445,284.044 70.34,284.644 70.283,284.849L70.18,285.22L74.898,285.084C77.493,285.009 81.523,284.889 83.853,284.816ZM192.569,291.586C188.774,291.261 185.63,290.957 185.583,290.91C185.438,290.765 187.124,278.763 187.316,278.57L187.497,278.389L206.289,278.371L206.246,278.841C206.222,279.099 205.968,281.031 205.682,283.133L205.161,286.956L202.441,289.591C200.945,291.04 199.664,292.215 199.595,292.201C199.526,292.188 196.365,291.911 192.569,291.586L192.569,291.586ZM198.279,285.116C198.595,282.428 198.862,282.754 196.306,282.706C193.79,282.659 194.05,282.476 193.784,284.491C193.665,285.392 193.518,286.38 193.457,286.685L193.347,287.24L194.135,287.326C194.569,287.373 195.619,287.402 196.469,287.39L198.015,287.37L198.279,285.116ZM98.288,287.375C98.168,287.255 99.565,282.011 99.764,281.835C99.821,281.784 103.955,281.68 108.951,281.603C113.947,281.527 118.07,281.428 118.115,281.384C118.213,281.285 118.972,274.978 118.978,274.208L118.982,273.651L112.783,273.775L106.583,273.9L106.585,273.712C106.589,273.296 107.205,268.598 107.264,268.539C107.299,268.504 110.133,268.466 113.562,268.453L119.796,268.429L119.904,267.774C120.229,265.804 120.635,262.642 120.635,262.081L120.635,261.436L113.592,261.436L112.986,262.831C112.652,263.598 112.214,264.551 112.013,264.949L111.646,265.672L109.373,265.806C108.123,265.88 106.232,265.999 105.171,266.07L103.242,266.2L103.649,265.626C104.236,264.799 108.062,255.499 108.182,254.608L108.282,253.857L107.95,253.214C107.767,252.86 107.617,252.52 107.617,252.457C107.617,252.395 109.895,252.344 112.68,252.344C115.464,252.344 117.742,252.399 117.742,252.467C117.742,252.534 117.568,252.837 117.356,253.138C116.86,253.841 115.883,255.778 115.883,256.056L115.883,256.27L121.395,256.27L121.761,253.409L122.126,250.549L121.787,249.893L121.448,249.237L121.713,249.147C121.859,249.098 123.606,248.55 125.595,247.93C127.584,247.31 129.723,246.608 130.348,246.37C130.973,246.132 131.61,245.938 131.765,245.938L132.045,245.938L131.891,246.299C130.973,248.448 129.529,254.246 129.523,255.805L129.521,256.27L142.746,256.27L142.739,256.631C142.735,256.83 142.598,257.923 142.433,259.06C142.268,260.196 142.132,261.196 142.13,261.281C142.128,261.366 139.152,261.436 135.517,261.436L128.908,261.436L128.812,261.901C128.617,262.848 128.071,267.139 128.072,267.719L128.073,268.32L134.199,268.198L140.324,268.076L140.194,269.773C140.122,270.706 140.005,271.895 139.934,272.415L139.804,273.36L137.316,273.494C135.948,273.568 133.122,273.628 131.037,273.628L127.247,273.628L127.246,273.886C127.245,274.028 127.06,275.679 126.834,277.554C126.608,279.429 126.423,281.042 126.422,281.137L126.421,281.311L141.403,281.197L141.339,281.559C141.304,281.757 140.814,282.89 140.25,284.076L139.225,286.233L138.028,286.233C136.974,286.233 111.847,287.026 102.031,287.369C100.039,287.439 98.355,287.441 98.288,287.374L98.288,287.375ZM186.958,275.48C188.271,274.624 190.391,273.242 191.669,272.41C192.948,271.578 193.994,270.819 193.994,270.725L193.994,270.553L183.623,270.801L184.874,268.443L186.126,266.085L188.148,265.955C189.261,265.883 191.519,265.813 193.167,265.799C194.815,265.785 197.745,265.714 199.677,265.641L203.19,265.508L203.891,264.577L204.593,263.646L204.342,263.244C203.988,262.678 203.707,262.711 209.547,262.639C214.439,262.578 215.232,262.632 214.661,262.984C214.318,263.196 213.164,264.97 213.289,265.095C213.412,265.219 219.866,265.183 219.991,265.058C220.127,264.921 219.572,264.023 218.935,263.351C218.105,262.473 217.872,262.529 222.746,262.43L227.012,262.344L227.293,263.698L227.574,265.052L231.448,265.004L235.323,264.956L235.323,265.13C235.323,265.225 234.418,266.27 233.313,267.451L231.302,269.598L230.579,269.729C230.182,269.8 228.136,269.875 226.034,269.896C223.931,269.916 222.181,269.963 222.144,270C222.107,270.036 223.174,270.895 224.515,271.908C231.309,277.04 231.682,277.348 230.725,277.039C230.469,276.956 227.749,276.825 224.68,276.748L219.101,276.607L217.205,275.169C216.162,274.378 214.675,273.283 213.9,272.735L212.49,271.739L203.973,271.872L202.135,273.087C201.124,273.755 199.506,274.886 198.54,275.6L196.784,276.897L184.572,277.038L186.958,275.48ZM59.473,275.131C59.483,274.76 60.479,271.102 60.605,270.976C60.681,270.9 64.013,270.778 68.01,270.705C92.106,270.264 104.346,270.082 104.429,270.164C104.48,270.216 103.894,271.192 103.125,272.335L101.728,274.412L99.041,274.537C97.564,274.607 89.939,274.754 82.096,274.866C74.254,274.977 65.955,275.118 63.653,275.18L59.469,275.291L59.473,275.131ZM62.982,268.97C62.982,268.789 63.4,265.575 63.912,261.827C64.941,254.28 64.974,253.837 64.538,253.261C64.371,253.041 64.232,252.791 64.228,252.705C64.225,252.62 65.803,252.55 67.735,252.55C69.667,252.55 71.248,252.495 71.248,252.427C71.248,252.359 70.83,251.538 70.32,250.602L69.392,248.899L68.047,247.371C66.116,245.177 66.21,245.018 68.567,246.487C69.416,247.016 70.974,247.867 72.028,248.378L73.946,249.306L75.983,249.502L77.727,252.55L88.396,252.55L89.531,251.016L90.665,249.482L92.889,248.836L96.32,246.457C100.771,243.371 100.698,243.355 98.357,246.902C96.538,249.657 95.012,252.18 95.012,252.433L95.012,252.602L98.731,252.514C100.777,252.466 102.451,252.471 102.451,252.527C102.451,252.582 102.257,252.833 102.021,253.085L101.591,253.543L101.303,255.681C101.145,256.857 100.697,260.221 100.306,263.156C99.915,266.091 99.564,268.522 99.525,268.558C99.486,268.593 92.48,268.725 83.956,268.851C75.432,268.977 67.226,269.13 65.72,269.19L62.982,269.299L62.982,268.97ZM77.941,264.415C78.01,264.236 78.067,263.771 78.067,263.382L78.067,262.676L71.454,262.676L71.454,263.063C71.454,263.276 71.396,263.741 71.325,264.097L71.196,264.742L77.816,264.742L77.941,264.415ZM92.492,263.554L92.556,262.676L86.377,262.676L86.251,263.003C86.182,263.182 86.126,263.603 86.126,263.938L86.126,264.546L89.277,264.489L92.429,264.432L92.492,263.554ZM78.768,258.423C78.837,258.243 78.894,257.801 78.894,257.441L78.894,256.786L72.177,256.993L72.05,258.75L78.643,258.75L78.768,258.423ZM93.222,258.595C93.274,258.509 93.349,258.08 93.389,257.641L93.462,256.843L87.064,256.787L86.927,257.613C86.734,258.778 86.657,258.75 90.052,258.75C91.744,258.75 93.17,258.68 93.222,258.595L93.222,258.595ZM188.208,261.963C188.208,261.912 188.483,259.936 188.82,257.572C189.157,255.208 189.496,252.641 189.573,251.869L189.714,250.464L189.443,249.958C189.089,249.296 188.855,249.366 192.754,248.968C201.05,248.122 202.37,247.983 206.042,247.569C208.179,247.328 209.971,247.174 210.024,247.227C210.076,247.28 209.786,249.631 209.378,252.451L208.636,257.58L204.471,261.746L199.594,261.88C193.517,262.046 188.208,262.085 188.208,261.963L188.208,261.963ZM200.995,255.538C201.122,254.681 201.226,253.693 201.226,253.342L201.226,252.704L198.902,252.853C197.623,252.935 196.548,253.031 196.513,253.065C196.407,253.166 196.069,255.701 196.064,256.425L196.06,257.096L200.763,257.096L200.995,255.538ZM210.462,261.284C210.412,261.197 210.596,259.638 210.872,257.82C211.147,256.001 211.584,252.864 211.841,250.849C212.099,248.833 212.356,247.138 212.412,247.082C212.468,247.025 214.164,246.701 216.179,246.362C220.666,245.605 237.499,241.958 238.709,241.48L239.099,241.326L239.019,241.542C238.975,241.661 237.475,243.073 235.687,244.679C231.781,248.189 232.009,247.779 231.201,252.717C230.423,257.468 230.588,257.02 229.266,257.971C228.676,258.396 227.668,259.245 227.025,259.859L225.857,260.975L220.723,261.101C217.899,261.171 214.455,261.276 213.07,261.334C211.686,261.393 210.512,261.37 210.462,261.284L210.462,261.284ZM223.408,254.152C223.599,252.873 223.754,251.757 223.753,251.672C223.752,251.587 222.59,251.517 221.171,251.517L218.592,251.517L218.493,251.982C218.306,252.852 217.965,255.417 217.965,255.948L217.965,256.477L223.061,256.477L223.408,254.152ZM52.308,253.206L52.65,252.828L52.646,252.224C52.641,251.227 52.1,249.235 51.677,248.653C51.458,248.353 51.202,247.977 51.106,247.817L50.932,247.526L51.533,247.653C54.964,248.374 58.543,249.29 58.658,249.476C58.736,249.603 58.862,250.336 58.938,251.106L59.076,252.505L59.479,252.87C59.701,253.07 59.882,253.313 59.882,253.409L59.882,253.584L51.966,253.584L52.308,253.206Z" style="fill:white;fill-rule:nonzero;"/>
                </g>
                <g transform="matrix(0.264583,0,0,0.264583,-509.989,-716.629)">
                    <path d="M2645.04,3676.54L2670.49,3687.01L2627.64,3695.86L2625.54,3657.85L2645.04,3676.54Z" style="fill:white;"/>
                </g>
            </g>
        </g>
    </g>
</svg>
