<?xml version="1.0" encoding="UTF-8" standalone="no"?>
<!DOCTYPE svg PUBLIC "-//W3C//DTD SVG 1.1//EN" "http://www.w3.org/Graphics/SVG/1.1/DTD/svg11.dtd">
<svg width="100%" height="100%" viewBox="0 0 1553 555" version="1.1" xmlns="http://www.w3.org/2000/svg" xmlns:xlink="http://www.w3.org/1999/xlink" xml:space="preserve" xmlns:serif="http://www.serif.com/" style="fill-rule:evenodd;clip-rule:evenodd;stroke-linejoin:round;stroke-miterlimit:2;">
    <g transform="matrix(1,0,0,1,-1547.69,-4193.82)">
        <g id="图层1">
        </g>
        <g id="Artboard1-with-二维码" serif:id="Artboard1 with 二维码" transform="matrix(0.987783,0,0,0.565392,416.75,3758.1)">
            <rect x="1144.93" y="770.653" width="1571.4" height="980.8" style="fill:none;"/>
            <g id="g1" transform="matrix(3.82627,0,0,6.68479,1561.81,-693.373)">
                <g transform="matrix(0.264583,0,0,0.264583,-509.989,-716.629)">
                    <path d="M2645.04,3676.54L2670.49,3687.01L2627.64,3695.86L2625.54,3657.85L2645.04,3676.54Z" style="fill:white;"/>
                </g>
                <g id="g11" serif:id="g1" transform="matrix(0.771912,0,0,0.771912,-4.97178,125.883)">
                    <path id="path2" d="M-111.492,298.258C-111.492,297.787 -106.351,290.487 -103.555,286.987C-93.324,274.178 -80.485,261.956 -64.247,249.565C-62.017,247.864 -58.871,245.127 -57.257,243.484L-54.321,240.496L-51.035,235.536C-49.228,232.808 -46.849,228.943 -45.75,226.947L-43.752,223.319L-43.99,222.114L-47.067,222.242C-48.759,222.313 -50.157,222.313 -50.172,222.242C-50.187,222.172 -50.404,220.289 -50.653,218.059C-51.536,210.169 -51.986,206.579 -52.323,204.746L-52.663,202.892L-53.519,201.875C-53.99,201.315 -54.375,200.744 -54.375,200.604C-54.375,200.465 -50.693,200.425 -46.193,200.516L-38.01,200.681L-37.766,201.173C-37.632,201.443 -37.251,203.727 -36.92,206.248C-36.588,208.769 -36.176,210.982 -36.003,211.166L-35.689,211.501L-35.28,211.093C-35.055,210.868 -33.81,207.703 -32.513,204.059C-31.217,200.415 -29.414,195.411 -28.506,192.939C-27.599,190.467 -26.761,187.963 -26.643,187.374L-26.429,186.304L-30.437,186.404L-34.445,186.504L-36.776,192.322L-39.107,198.139L-39.954,198.215C-40.42,198.257 -45.045,198.336 -50.232,198.391L-59.663,198.492L-59.662,198.139C-59.662,197.945 -59.179,197.469 -58.589,197.081C-57.119,196.115 -55.799,194.037 -54.306,190.335C-51.854,184.259 -45.27,167.435 -44.486,165.245L-43.691,163.024L-44.084,162.631L-44.476,162.238L-48.23,162.071L-51.983,161.905L-52.48,160.63C-54.561,155.298 -58.394,151.349 -67.236,145.429C-71.858,142.335 -71.702,142.156 -65.975,143.974C-53.366,147.978 -43.904,150.246 -30.576,152.458C-17.754,154.586 -9.014,155.963 -6.866,156.193L-4.662,156.428L-4.638,157.011C-4.56,158.908 -4.709,163.807 -4.883,165.062L-5.088,166.536L-5.568,166.72C-5.831,166.822 -9.9,166.507 -14.61,166.021C-19.319,165.535 -23.793,165.106 -24.552,165.067L-25.931,164.997L-26.784,167.113C-27.254,168.276 -28.18,170.392 -28.842,171.816C-29.505,173.239 -30.047,174.548 -30.047,174.724L-30.047,175.045L-26.962,175.08C-20.995,175.145 -10.007,175.576 -9.847,175.751C-9.759,175.848 -9.81,179.021 -9.962,182.802L-10.239,189.677L-11.645,193.556C-12.419,195.689 -14.242,200.21 -15.697,203.604C-17.151,206.997 -19.092,211.678 -20.009,214.005C-20.927,216.332 -22.43,219.981 -23.349,222.114C-24.269,224.247 -25.929,228.134 -27.037,230.752C-28.146,233.37 -30.383,238.22 -32.01,241.529L-34.966,247.547L-35.768,247.937C-36.209,248.151 -39.664,249.543 -43.445,251.03C-69.127,261.129 -91.918,276.519 -107.067,293.993C-110.492,297.943 -111.492,298.907 -111.492,298.258L-111.492,298.258ZM373.414,296.946C373.026,296.51 371.959,295.063 371.043,293.729C360.068,277.748 341.269,262.175 317.589,249.447C311.418,246.131 310.238,244.782 305.543,235.678C304.178,233.031 300.615,227.024 298.479,223.767C297.374,222.082 296.581,220.602 296.716,220.479C296.944,220.272 311.085,221.006 315.411,221.45L317.288,221.642L319.995,225.364C323.556,230.262 330.981,239.899 333.245,242.56C335.728,245.479 346.517,257.644 347.006,258.076C350.546,261.203 364.45,280.037 368.897,287.729C369.918,289.494 371.145,291.559 371.623,292.317C373.847,295.839 374.934,298.65 373.414,296.946ZM14.975,264.863C14.874,264.427 14.775,262.483 14.754,260.544C14.709,256.273 14.074,243.545 13.858,242.563C13.773,242.175 13.535,239.716 13.329,237.098C13.123,234.48 12.771,231.109 12.547,229.606L12.139,226.874L11.742,226.874C11.524,226.874 9.528,227.679 7.308,228.664C5.087,229.649 1.843,231.033 0.097,231.74C-1.648,232.447 -5.746,234.339 -9.011,235.943C-12.275,237.548 -15.088,238.861 -15.262,238.861C-15.435,238.861 -14.776,236.6 -13.797,233.837C-12.817,231.074 -11.715,227.861 -11.347,226.697L-10.679,224.582L-7.935,223.449C-6.426,222.826 -2.335,221.108 1.155,219.632C4.646,218.155 8.334,216.63 9.352,216.244L11.204,215.541L11.197,214.244C11.188,212.3 9.871,200.49 9.619,200.081L9.399,199.726L7.375,199.726C5.302,199.726 -3.222,200.303 -5.279,200.583L-6.425,200.739L-6.383,196.795C-6.36,194.625 -6.24,192.374 -6.117,191.793L-5.891,190.735L-1.31,190.511C1.209,190.387 4.223,190.266 5.386,190.241C6.55,190.216 7.717,190.059 7.98,189.892L8.458,189.589L7.876,185.402C7.556,183.1 7.176,180.66 7.031,179.982L6.769,178.748L1.318,178.571L-4.133,178.395L-4.111,177.425C-4.099,176.892 -4.06,174.711 -4.023,172.578L-3.957,168.699L5.287,168.699L5.13,167.553C4.983,166.485 2.699,157.576 1.446,153.186L0.892,151.247L-2.207,148.25L-1.583,148.252C-1.241,148.253 0.309,148.555 1.86,148.922C3.412,149.29 8.33,150.336 12.79,151.247C17.25,152.159 20.919,152.928 20.942,152.957C20.966,152.986 21.636,156.279 22.433,160.276C23.229,164.273 23.972,167.781 24.083,168.072L24.286,168.601L27.705,168.822C29.585,168.944 34.694,169.134 39.057,169.245C43.42,169.356 47.347,169.52 47.783,169.609L48.576,169.77L48.571,173.73C48.569,175.907 48.465,178.07 48.34,178.535L48.114,179.382L37.236,179.132L26.358,178.883L26.187,179.344C26.093,179.597 26.32,181.771 26.691,184.174L27.366,188.543L27.804,188.814C28.045,188.963 28.732,189.023 29.331,188.948C29.929,188.872 33.037,188.638 36.236,188.427C39.436,188.216 43.64,187.915 45.579,187.758C49.794,187.418 49.574,187.289 48.345,189.385L47.346,191.087L46.99,197.385L46.02,197.643C45.487,197.785 41.448,198.075 37.044,198.288C32.64,198.5 28.925,198.792 28.787,198.935C28.553,199.18 28.911,203.921 29.386,206.865L29.599,208.187L30.039,208.187C30.557,208.187 35.998,205.964 39.762,204.216C41.216,203.54 43.337,202.645 44.475,202.227L46.545,201.466L46.335,203.328C46.22,204.352 46.028,206.539 45.908,208.187C45.789,209.835 45.55,211.746 45.377,212.433L45.063,213.681L41.266,215.216C39.178,216.06 36.674,217.112 35.702,217.554C34.729,217.995 33.506,218.464 32.984,218.595C32.461,218.726 31.845,219.061 31.614,219.339L31.194,219.846L31.588,223.271C31.804,225.155 32.178,228.579 32.419,230.879L32.856,235.06L33.73,235.396L36.527,233.267C39.513,230.993 40.828,229.526 42.772,226.297L43.993,224.27L43.991,225.131C43.989,226.33 42.726,234.795 42.016,238.37L41.427,241.334L38.743,243.297C37.267,244.377 34.688,246.24 33.012,247.437C31.335,248.634 27.812,251.25 25.182,253.249L20.401,256.883L19.038,258.925C18.288,260.048 17.226,262.022 16.678,263.311C15.615,265.812 15.267,266.129 14.975,264.863L14.975,264.863ZM149.925,252.788C150.044,250.073 150.29,245.392 150.471,242.387C150.652,239.381 150.891,234.621 151.003,231.81C151.114,228.998 151.427,223.524 151.697,219.646C152.936,201.88 153.66,188.154 153.385,187.642L153.239,187.371L148.329,187.603L143.418,187.835L143.418,183.761C143.418,181.52 143.514,179.436 143.632,179.129L143.846,178.571L153.547,178.571L153.771,176.935C153.894,176.036 153.995,174.455 153.995,173.422L153.995,171.545L153.313,171.18C152.938,170.979 152.145,170.815 151.55,170.815C148.036,170.815 153.584,169.221 166.273,166.584C172.334,165.325 172.427,165.335 171.077,167.105L170.106,168.378L169.829,171.271C169.677,172.862 169.543,175.156 169.531,176.368L169.508,178.571L170.125,178.611C170.465,178.632 172.47,178.617 174.582,178.576L178.423,178.502L178.234,182.741C178.13,185.072 177.939,187.15 177.81,187.359L177.576,187.738L169.134,187.738L168.98,188.179C168.828,188.617 168.593,193.401 167.584,216.649C167.293,223.339 166.991,230.107 166.913,231.688L166.77,234.564L164.671,237.329C163.517,238.851 162.112,240.809 161.55,241.682C159.235,245.276 151.865,255.308 150.023,257.371L149.709,257.724L149.925,252.788ZM129.488,251.73C128.711,250.566 126.911,247.976 125.487,245.973L122.897,242.331L120.093,240.252L117.289,238.173L115.81,237.724L114.331,237.274L106.574,237.308C98.336,237.343 77.627,237.954 66.205,238.499C62.423,238.679 57.346,238.874 54.922,238.932L50.515,239.037L50.571,238.508C50.602,238.218 50.968,236.393 51.384,234.454C52.376,229.826 53.16,223.515 53.16,220.146L53.16,217.447L62.062,217.226C66.958,217.105 84.626,216.903 101.323,216.779L131.682,216.552L131.844,216.865C131.933,217.037 131.874,221.065 131.712,225.816C131.55,230.567 131.301,238.817 131.158,244.15L130.9,253.845L129.488,251.73ZM93.7,230.019C103.684,229.807 111.974,229.558 112.122,229.467C112.27,229.375 112.392,228.04 112.392,226.5L112.392,223.7L111.775,223.678C111.435,223.666 102.435,223.675 91.774,223.699L72.39,223.743L72.123,224.162C71.977,224.393 71.854,225.878 71.851,227.461L71.846,230.341L72.287,230.522C72.529,230.622 73.362,230.637 74.138,230.554C74.913,230.471 83.716,230.23 93.7,230.018L93.7,230.019ZM274.764,248.645C274.666,248.209 274.272,246.265 273.889,244.326C273.505,242.387 273.01,240.245 272.789,239.566L272.387,238.332L272.095,228.149L271.802,217.966L271.506,217.67C271.107,217.271 268.348,217.078 257.123,216.664C251.887,216.471 244.716,216.206 241.186,216.076L234.77,215.84L234.651,215.451C234.586,215.237 234.593,213.254 234.666,211.044L234.799,207.026L244.903,207.274C250.46,207.41 258.432,207.663 262.619,207.836C266.805,208.009 270.566,208.063 270.975,207.956L271.72,207.761L271.931,204.133L273.693,204.147C274.663,204.155 279.105,204.377 283.565,204.641L291.675,205.12L291.934,205.508C292.076,205.721 292.195,206.471 292.198,207.175L292.203,208.454L292.644,208.803L293.084,209.152L304.367,209.393C310.572,209.525 318.426,209.777 321.819,209.952C325.213,210.127 330.052,210.294 332.573,210.324C335.093,210.354 337.683,210.463 338.327,210.567L339.498,210.756L337.249,212.909L335,215.062L332.697,219.117L330.167,219.117C328.775,219.117 319.816,218.795 310.257,218.401C300.698,218.007 292.713,217.786 292.512,217.91L292.147,218.135L292.403,230.261L292.658,242.387L291.637,242.388C290.357,242.389 283.138,241.702 282.05,241.476L281.241,241.307L281.438,239.291C281.854,235.049 280.844,233.769 279.643,237.014C279.231,238.127 278.384,240.386 277.761,242.034C277.137,243.683 276.318,246.023 275.939,247.235C275.187,249.645 275.029,249.834 274.763,248.645L274.764,248.645ZM240.552,238.313C234.734,238.065 229.426,237.809 228.756,237.744L227.538,237.627L230.933,236.26C235.897,234.263 237.163,232.995 243.482,223.7C244.866,221.664 246.447,219.468 246.994,218.82L247.99,217.642L253.79,217.676C256.98,217.694 261.534,217.811 263.91,217.936L268.229,218.162L268.229,218.564C268.229,218.785 267.015,220.705 265.533,222.831C264.05,224.958 261.108,229.282 258.996,232.441L255.154,238.185L254.264,238.523C253.775,238.709 252.869,238.839 252.252,238.813C251.634,238.786 246.369,238.561 240.552,238.313L240.552,238.313ZM209.349,235.303C204.016,235.131 194.894,234.869 189.076,234.722L178.499,234.454L178.395,231.281C178.338,229.536 178.385,227.736 178.498,227.281L178.705,226.455L192.352,226.677C199.858,226.8 207.613,226.973 209.584,227.063C211.556,227.153 213.42,227.13 213.727,227.012L214.285,226.798L214.285,217.098L211.024,216.879C209.23,216.759 201.852,216.555 194.629,216.425C187.406,216.296 181.496,216.119 181.496,216.033C181.496,215.946 182.13,215.155 182.906,214.274L184.316,212.671L184.316,211.001L182.919,210.035C182.151,209.503 181.517,208.846 181.509,208.575L181.496,208.081L214.461,208.364L214.561,204.162C214.616,201.851 214.537,199.837 214.385,199.687C214.094,199.398 201.245,199.076 188.635,199.041L181.143,199.02L181.169,196.464C181.184,195.058 181.303,193.217 181.434,192.372L181.672,190.835L197.955,190.945L198.187,185.054C198.315,181.814 198.419,176.365 198.419,172.944L198.419,166.725L197.996,166.302C197.763,166.069 196.97,165.879 196.233,165.879L194.893,165.879L194.893,165.533C194.893,165.343 195.25,165.113 195.687,165.023C196.123,164.933 198.067,164.54 200.006,164.149C201.945,163.758 205.392,163.043 207.665,162.561C212.245,161.59 216.048,161.08 216.048,161.436C216.048,161.563 215.593,162.576 215.038,163.685L214.027,165.702L213.605,178.167C213.373,185.023 213.232,190.68 213.293,190.738C213.354,190.796 217.673,190.938 222.892,191.052C233.515,191.285 233.034,191.198 231.795,192.67C230.513,194.193 230.528,193.958 230.422,215.138L230.327,234.253L229.719,234.861L229.111,235.469L224.078,235.543C221.31,235.584 214.682,235.476 209.349,235.303L209.349,235.303ZM143.242,234.017C139.997,233.849 140.133,234.571 141.499,224.758C143.491,210.453 144.398,203.315 144.837,198.492C145.067,195.971 145.357,193.203 145.482,192.342L145.71,190.775L148.168,190.322L150.626,189.869L150.899,190.142L151.171,190.414L150.117,204.678C149.538,212.522 148.967,219.287 148.85,219.711C148.732,220.135 148.212,223.544 147.694,227.288L146.751,234.095L146.231,234.12C145.944,234.134 144.599,234.088 143.242,234.017L143.242,234.017ZM170.411,228.196C170.156,221.487 170.632,190.956 171,190.359L171.232,189.984L173.631,190.31L176.031,190.635L176.015,212.016C176.006,223.775 175.967,233.595 175.927,233.837L175.855,234.278L170.642,234.278L170.411,228.196ZM49.418,212.565C49.555,211.611 49.759,209.8 49.872,208.54L50.076,206.248L78.854,206.146C94.682,206.09 115.049,205.998 124.115,205.943C133.18,205.888 140.597,205.9 140.597,205.971C140.597,206.042 140.262,206.555 139.851,207.11C139.06,208.18 138.523,210.322 138.497,212.506L138.482,213.828L117.738,213.828C106.329,213.828 86.234,213.934 73.082,214.063L49.169,214.298L49.418,212.565ZM318.999,204.278C316.381,204.125 311.225,203.677 307.54,203.282C303.856,202.887 297.827,202.245 294.143,201.854C290.458,201.464 287.064,201.055 286.601,200.945C285.216,200.616 278.767,200.724 276.79,201.108C274.926,201.471 265.85,202.436 255.089,203.417L249.178,203.956L235.834,203.956L235.625,203.619C235.163,202.871 238.478,201.476 244.43,199.915C246.175,199.458 249.904,198.432 252.715,197.635C255.527,196.839 258.542,196.012 259.414,195.799L261.001,195.41L260.119,195.066C259.635,194.876 256.62,193.925 253.421,192.951C246.469,190.834 247.323,191.572 247.284,187.654L247.25,184.389L236.396,184.58L236.579,180.732C236.679,178.616 236.87,176.708 237.002,176.494L237.244,176.103L241.013,176.099C243.086,176.097 245.377,175.997 246.105,175.877L247.427,175.658L247.427,174.399L246.457,174.06L245.488,173.722L246.369,173.51C247.115,173.331 265.047,172.225 267.211,172.225L267.934,172.225L267.817,173.899L267.7,175.574L270.168,175.543C273.71,175.499 296.531,174.328 297.026,174.166C297.254,174.091 297.492,173.584 297.555,173.039L297.668,172.049L300.136,171.957C301.494,171.907 305.681,171.625 309.44,171.331C316.849,170.75 316.798,170.746 316.115,171.849L315.649,172.599L316.707,173.316L318.491,173.128C319.473,173.024 322.394,172.832 324.982,172.701L329.688,172.463L329.402,172.961C329.245,173.235 328.876,173.739 328.582,174.08L328.048,174.702L328.048,176.223C328.048,178.171 328.211,178.403 330.319,179.472L332.07,180.359L331.65,181.039L328.586,181.037C324.786,181.034 316.459,181.744 316.059,182.105C315.896,182.252 315.737,183.857 315.706,185.672L315.649,188.973L314.063,189.729C313.19,190.145 309.898,191.398 306.747,192.513C303.596,193.628 301.018,194.663 301.018,194.813C301.018,195.086 305.411,196.2 306.486,196.2C306.799,196.2 309.227,196.895 311.881,197.745C314.535,198.594 319.087,200.011 321.996,200.892C327.929,202.69 330.634,203.756 330.634,204.297L330.634,204.662L327.196,204.61C325.306,204.581 321.617,204.432 318.999,204.279L318.999,204.278ZM288.074,186.876C296.595,184.014 297.603,183.477 296.507,182.381L296.133,182.007L286.147,182.587C280.655,182.906 274.376,183.259 272.194,183.372C268.14,183.581 267.282,183.869 268.604,184.577C269.518,185.066 272.904,186.168 274.55,186.512C275.215,186.651 276.802,187.216 278.076,187.767C281.184,189.113 281.494,189.086 288.074,186.876ZM53.162,202.983C53.163,202.452 53.399,199.161 53.686,195.671C53.972,192.181 54.312,186.39 54.439,182.802C54.567,179.215 54.795,175.946 54.945,175.539L55.217,174.798L63.551,174.609C68.134,174.505 71.988,174.316 72.115,174.189C72.512,173.791 69.159,168.006 66.842,165.091C65.775,163.749 66.15,163.612 68.543,164.468C69.681,164.876 73.547,165.921 77.134,166.791C85.969,168.935 86.301,169.03 86.301,169.418L86.301,169.757L83.811,169.757L83.619,170.257C83.419,170.78 84.17,172.19 85.373,173.55L86.078,174.347L106.986,174.312L107.721,173.798C108.125,173.515 108.801,172.724 109.224,172.04L109.992,170.797L109.793,170.277L109.593,169.757L108.348,169.757C107.029,169.757 106.689,169.287 107.72,168.889C108.059,168.758 111.431,167.946 115.212,167.085C118.994,166.225 123.014,165.271 124.146,164.967C126.535,164.325 126.838,164.454 125.925,165.725C125.56,166.234 124.271,168.182 123.062,170.055L120.863,173.459L121.455,173.9L122.046,174.34L137.03,174.34L137.251,174.698C137.373,174.895 137.287,177.79 137.06,181.132C136.833,184.475 136.464,190.807 136.24,195.204C136.015,199.601 135.754,203.268 135.658,203.353C135.563,203.437 116.962,203.606 94.322,203.728L53.16,203.95L53.162,202.983ZM85.157,196.2L85.997,195.188L85.772,192.85L81.894,192.738C79.761,192.677 76.548,192.731 74.755,192.859L71.493,193.092L71.493,194.411C71.493,196.258 71.264,196.2 78.56,196.2L85.157,196.2ZM117.945,195.213C118.187,194.906 118.385,194.126 118.385,193.481L118.385,192.306L104.842,192.498L104.558,193.867L104.274,195.236L105.112,196.246L111.308,196.008L117.504,195.771L117.945,195.213ZM85.972,184.905L86.654,184.54L86.654,181.392L72.928,181.392L72.563,182.074C72.154,182.839 72.074,184.675 72.434,185.035C72.563,185.164 75.508,185.27 78.979,185.27L85.29,185.27L85.972,184.905ZM119.002,184.287C119.562,183.574 119.572,182.014 119.02,181.462L118.597,181.039L105.779,181.039L105.433,181.48C105.243,181.722 104.985,182.459 104.86,183.117L104.632,184.313L104.98,184.732L105.328,185.151L111.945,185L118.562,184.848L119.002,184.287ZM186.188,187.834L184.711,187.7L184.358,186.573C184.163,185.953 183.194,182.511 182.204,178.924C181.214,175.336 180.094,171.554 179.716,170.519C179.337,169.484 179.028,168.492 179.028,168.315L179.028,167.994L190.636,167.994L191.035,169.492C191.254,170.317 192.068,173.133 192.844,175.751C195.766,185.615 196.304,187.485 196.304,187.784L196.304,188.091L191.985,188.029C189.609,187.995 187.001,187.907 186.188,187.834ZM214.99,187.792C214.99,187.628 216.243,183.86 217.775,179.419C219.307,174.977 220.788,170.629 221.065,169.757L221.57,168.17L227.359,167.994C230.543,167.897 233.256,167.86 233.389,167.913C233.522,167.965 233.156,169.155 232.576,170.557C231.996,171.959 230.986,174.693 230.331,176.632C227.754,184.267 226.515,187.573 226.138,187.821C225.921,187.963 223.324,188.082 220.367,188.085L214.99,188.09L214.99,187.792ZM237.555,172.387C237.555,170.943 238.252,164.799 238.638,162.845L238.994,161.045L242.407,160.805C245.465,160.59 251.71,159.858 255.272,159.298L256.594,159.09L256.594,160.59L257.889,160.59C258.601,160.59 261.655,160.267 264.676,159.871C267.696,159.476 270.86,159.067 271.707,158.962L273.246,158.772L273.021,157.301L272.796,155.83L271.324,154.596L269.797,154.596C268.957,154.596 268.177,154.445 268.062,154.26L267.855,153.924L269.187,153.576C269.92,153.385 271.552,153.049 272.812,152.831C274.072,152.613 276.928,151.97 279.158,151.404C283.556,150.287 290.62,148.808 294.302,148.233C295.571,148.034 296.888,147.788 297.228,147.685L297.845,147.497L297.845,147.84C297.845,148.029 297.151,148.589 296.304,149.086L294.763,149.989L294.188,151.2C293.872,151.866 293.614,153.061 293.614,153.856L293.614,155.301L294.407,155.297C301.161,155.267 325.163,150.072 336.611,146.163C343.583,143.782 345.898,143.129 345.06,143.78C344.979,143.843 343.961,144.615 342.798,145.496C337.192,149.741 331.686,158.959 330.475,166.129C330.338,166.938 330.039,167.756 329.809,167.946L329.392,168.292L320.088,169.042L310.784,169.792L310.199,169.206L310.551,166.109C310.744,164.405 310.799,162.843 310.672,162.637L310.44,162.263L308.462,162.461C307.373,162.57 303.151,163.074 299.079,163.581C295.006,164.088 289.215,164.803 286.21,165.17C283.204,165.536 277.413,166.244 273.341,166.744C269.269,167.243 263.795,167.891 261.177,168.184C258.559,168.476 256.145,168.8 255.813,168.903L255.208,169.091L254.993,170.238L254.778,171.384L249.075,171.816C245.938,172.053 242.262,172.48 240.904,172.765C239.547,173.049 238.238,173.282 237.996,173.282L237.555,173.282L237.555,172.387ZM45.374,167.153C45.293,167.078 42.212,166.831 38.528,166.603C34.843,166.375 31.551,166.109 31.212,166.01L30.595,165.831L30.59,165.062C30.587,164.638 30.271,163.023 29.887,161.471L29.191,158.651L26.188,156.009L26.757,156.008C27.07,156.007 28.18,156.17 29.225,156.37C30.269,156.569 33.266,156.965 35.884,157.25C38.501,157.534 40.961,157.842 41.348,157.935L42.054,158.104L43.052,160.583C43.601,161.946 44.592,163.85 45.255,164.814C46.608,166.782 46.689,168.371 45.374,167.153Z" style="fill:white;fill-rule:nonzero;"/>
                </g>
            </g>
        </g>
    </g>
</svg>
