<?xml version="1.0" encoding="UTF-8" standalone="no"?>
<!DOCTYPE svg PUBLIC "-//W3C//DTD SVG 1.1//EN" "http://www.w3.org/Graphics/SVG/1.1/DTD/svg11.dtd">
<svg width="100%" height="100%" viewBox="0 0 1898 457" version="1.1" xmlns="http://www.w3.org/2000/svg" xmlns:xlink="http://www.w3.org/1999/xlink" xml:space="preserve" xmlns:serif="http://www.serif.com/" style="fill-rule:evenodd;clip-rule:evenodd;stroke-linejoin:round;stroke-miterlimit:2;">
    <g transform="matrix(1,0,0,1,1770,1)">
        <path d="M-169.162,145.919C-169.688,146.459 -170.437,146.958 -172,148L-176,148C-177.462,143.381 -176.313,140.163 -174.605,135.832L-172.973,131.488L-172.091,129.182C-159.745,96.798 -150.791,63.39 -143.625,29.5L-142.864,25.94C-141.364,18.636 -140.438,11.444 -140,4C-136.227,2.61 -133.691,3.416 -129.906,4.547L-126.281,5.609L-122.5,6.75C-120.053,7.476 -117.605,8.2 -115.156,8.922L-111.551,9.986C-106.399,11.457 -101.209,12.752 -96,14L-96,21C-99.861,22.437 -102.896,23.112 -107,23L-107.043,24.809C-107.632,35.524 -110.84,46.131 -115,56C-110.998,56.066 -107.002,56.048 -103,56L-99.297,55.988C-91.566,55.943 -91.566,55.943 -85.188,52.125C-82.899,49.171 -82.899,49.171 -82,46L-80,46L-80,44L-78,44L-78,42C-77.065,42.152 -76.257,42.356 -75.528,42.618L-74,43L-74,43.308C-72.653,44.051 -71.491,45.075 -70.063,46.438C-64.35,51.701 -58.196,56.327 -52,61L-51.219,58.91C-49.844,55.627 -48.184,52.573 -46.5,49.438C-42.759,42.228 -41,35.173 -41,27C-39.164,27.16 -39.164,27.16 -37,28C-33.002,34.704 -31.209,42.363 -30,50L-28.303,49.801C-18.496,48.775 -8.663,48.656 1.188,48.438L6.674,48.307C11.116,48.201 15.558,48.099 20,48C15.384,32.174 15.384,32.174 8.875,17.063L7.93,15.189C6.258,12.017 4.391,9.116 2.258,6.246C0,3 0,3 0,0C14.837,0.553 32.446,4.058 43.73,14.535L46,17L47.512,18.625C51.149,22.878 52.816,25.934 53.313,31.5C52.755,37.741 49.408,40.812 45,45C43.998,45.998 42.997,46.997 42,48C46.609,47.906 51.216,47.8 55.824,47.683C57.391,47.644 58.957,47.61 60.524,47.578C62.78,47.532 65.037,47.474 67.293,47.414L69.402,47.379C75.247,47.203 78.616,46.348 82.824,42.25C83.111,41.93 83.397,41.609 83.682,41.288C84.617,38.928 86.3,37.343 88.438,35.25L90.871,32.828C91.61,32.193 92.093,31.779 92.491,31.509L93,31C93.206,31.012 93.407,31.03 93.603,31.053C93.96,31 94.386,31 95,31L95,31.332C97.743,32.117 99.503,34.125 101.75,36.313C107.047,41.28 112.648,45.617 118.517,49.888C125.379,54.908 125.379,54.908 128,58C128.25,60.75 128.25,60.75 128,63C124.19,65.117 120.49,66.49 116.313,67.75C105.929,71.16 98.402,77.276 90.527,84.688C87.513,87.446 84.395,89.737 81,92L83.125,93.32C87.687,96.184 92.234,99.066 96.625,102.188L98.539,103.543C100.29,105.289 100.618,106.589 101,109C96.08,110.606 92.23,111.043 87,111L87.007,113.099C87.029,120.301 87.044,127.504 87.055,134.706C87.059,137.395 87.066,140.084 87.075,142.772C87.088,146.635 87.093,150.497 87.098,154.359L87.113,158.009L87.114,161.405L87.12,164.393C87.011,166.754 86.674,168.743 86,171L84,171L84,173C72.902,176.918 63.772,178.121 52,178L52,165L-3,165L-2,197C9.131,197.291 9.131,197.291 20.262,197.488C24.81,197.548 29.356,197.618 33.902,197.754C37.572,197.864 41.24,197.923 44.912,197.949C46.305,197.967 47.698,198.003 49.09,198.057C55.083,198.282 59.987,198.415 65.012,194.883C68.392,191.557 71.236,187.997 74.115,184.239C76,182 76,182 78.469,180.918C81,181 81,181 83.219,182.738L85.5,185.313C89.33,189.394 93.207,192.899 97.688,196.25L99.364,197.507L100.992,198.727C104.464,201.351 107.74,204.119 111,207C109.17,211.147 106.977,212.773 103,215L99,215L100,217C100.123,219.158 100.18,221.32 100.209,223.482L100.238,225.498C100.268,227.703 100.29,229.908 100.309,232.113L100.329,234.396C100.361,238.382 100.386,242.369 100.405,246.356C100.423,249.655 100.458,252.954 100.508,256.253C100.568,260.236 100.599,264.219 100.608,268.203C100.617,269.72 100.636,271.237 100.665,272.754C100.881,284.557 100.881,284.557 98.766,288.021C96.229,290.255 93.185,291.644 89.898,292.363L87.679,292.862L85.375,293.313L82.989,293.813C76.584,295.075 70.531,295.335 64,295L64,274L-3,274L-3,290C-11.981,295.107 -21.098,297.201 -31.43,297.078L-35.179,297.044L-38,297C-38.024,276.273 -38.041,255.547 -38.052,234.82C-38.057,225.192 -38.064,215.563 -38.075,205.935C-38.086,197.522 -38.092,189.11 -38.094,180.697C-38.095,176.261 -38.098,171.826 -38.106,167.39C-38.145,143.243 -37.762,119.135 -37,95L-39,95L-40,98C-45.006,101.732 -49.903,102.787 -56,102C-56.71,101.611 -57.269,101.306 -57.733,101.044L-58,101L-57.977,100.907C-59.485,100.047 -59.993,99.634 -62,98L-63.594,96.75C-65.603,94.25 -65.747,91.961 -66.188,88.813L-66.668,85.52L-67,83L-68.137,84.793L-69.688,87.188L-71.199,89.543C-73.243,92.331 -75.516,94.596 -78,97C-78.195,97.198 -78.389,97.397 -78.584,97.595C-78.842,97.983 -79.214,98.417 -79.75,99.043L-82,101.188L-83.808,102.93L-84,103.125L-85.539,104.715C-88.479,107.693 -91.268,110.01 -95,112L-93.5,113.188C-92.843,113.981 -92.474,114.427 -92.225,114.888L-92,115L-92,115.39C-91.826,115.872 -91.705,116.476 -91.5,117.5C-91.688,118.438 -91.805,119.024 -92,119.479L-92,120L-92.129,119.741C-92.47,120.343 -93.043,120.761 -94.313,121.688L-97,123C-100.153,124.592 -100.153,124.592 -100.385,126.917L-100.399,129.303L-100.437,132.039L-100.432,135.049L-100.463,138.213C-100.494,141.676 -100.503,145.138 -100.512,148.602C-100.529,150.998 -100.547,153.394 -100.566,155.79C-100.614,162.106 -100.643,168.422 -100.67,174.738C-100.699,181.18 -100.746,187.621 -100.791,194.063C-100.877,206.708 -100.945,219.354 -101,232L-97.918,230.347L-93.854,228.172L-91.831,227.086C-86.382,224.173 -80.854,221.475 -75.25,218.875C-68.65,215.78 -62.179,212.607 -55.863,208.961C-54,208 -54,208 -52,208C-52.392,213.227 -55.144,215.963 -58.5,219.688L-60.144,221.558C-64.003,225.935 -67.928,230.254 -71.855,234.57C-74.153,237.174 -76.328,239.854 -78.5,242.563C-82.049,246.952 -85.826,250.932 -89.863,254.871C-93.903,258.896 -97.59,263.216 -101.125,267.688C-103.256,270.315 -105.606,272.609 -108,275C-113.411,280.733 -118.622,286.433 -123,293C-126.739,290.343 -128.65,288.419 -130,284L-132,284L-133.375,281.125C-134.802,277.997 -134.802,277.997 -137,276L-138.625,273.438C-141.085,269.591 -144.282,266.475 -147.488,263.246C-149,261 -149,261 -149.035,258.453C-147.676,255.232 -146.045,254.196 -143.125,252.313L-140.445,250.551L-138,249L-135,247C-134.536,244.464 -134.536,244.464 -134.601,241.445L-134.563,237.867L-134.568,233.921C-134.559,232.542 -134.548,231.162 -134.537,229.783C-134.509,226.031 -134.5,222.279 -134.494,218.527C-134.485,214.609 -134.458,210.69 -134.434,206.772C-134.39,199.349 -134.362,191.926 -134.339,184.502C-134.312,176.053 -134.268,167.603 -134.222,159.153C-134.129,141.769 -134.058,124.385 -134,107C-131.768,107.148 -129.536,107.3 -127.304,107.453L-123.538,107.708C-119.326,108.056 -115.257,108.701 -111.125,109.563L-109.004,109.982C-107.334,110.314 -105.667,110.656 -104,111L-103.75,109C-103.099,106.395 -102.369,104.645 -101.133,102.309C-98.752,97.723 -97.301,93.015 -95.875,88.063L-95.113,85.51C-93.499,80.021 -92.249,74.618 -91,69L-121,68L-122,74C-123.088,76.51 -123.088,76.51 -124.441,78.977L-125.948,81.74L-127.563,84.625L-129.214,87.611C-132.599,93.67 -136.123,99.523 -140.078,105.227C-142.274,108.395 -144.362,111.627 -146.438,114.875L-147.566,116.633C-149.52,119.678 -151.463,122.73 -153.395,125.789L-154.59,127.672C-155.683,129.394 -156.771,131.119 -157.859,132.844C-160.086,136.127 -162.332,139.067 -165,142L-167,142L-167.813,143.875C-168.15,144.479 -168.391,144.911 -168.633,145.266L-169,146L-169.162,145.919ZM-4,210L-3,262L64,262L64,210L-4,210ZM-3,109L-3,153L52,153L53,109L-3,109ZM-29,61L-30,85L-32,86C-14.733,94.94 1.163,98.083 20.581,98.065C24.119,98.062 27.653,98.108 31.189,98.162C33.45,98.185 35.712,98.205 37.973,98.223L41.157,98.254L44.106,98.246L46.686,98.25C50.123,97.879 52.272,96.843 54.527,94.23L55.938,92.188C58.365,88.786 61.043,85.957 64,83L65,80C69.248,80.472 71.2,82.967 74,86C76.049,79.953 77.471,73.897 78.605,67.625L79.016,65.395C79.346,63.597 79.674,61.798 80,60C43.652,59.842 7.34,60.287 -29,61ZM-1172,167L-1172,169L-1170.36,169.676C-1167.26,171.416 -1164.86,173.753 -1162.31,176.188C-1157.93,180.298 -1153.45,184.138 -1148.64,187.758C-1147,189 -1147,189 -1146,190C-1145.88,193 -1145.88,193 -1146,196C-1147.56,197.557 -1149.08,197.163 -1151.24,197.205L-1154.01,197.266L-1156.94,197.316L-1159.62,197.373C-1162.93,197.441 -1166.25,197.501 -1169.56,197.563L-1192,198L-1192,245C-1204.62,250.257 -1213.6,252.837 -1227,252L-1229,251C-1230.39,245.799 -1229.71,242.706 -1229,237L-1279,237C-1278.84,248.727 -1278.84,248.727 -1278.64,260.453C-1278.52,270.31 -1278.94,278.235 -1284.8,286.551C-1296.94,297.502 -1316.26,299.653 -1332,299L-1332.23,296.727C-1333.34,288.056 -1335.47,281.223 -1342,275.141C-1351.67,268.215 -1363.89,264.917 -1375,261L-1375,257C-1364.31,256.769 -1353.78,257.391 -1343.13,258.227C-1340.41,258.44 -1337.69,258.643 -1334.98,258.846L-1329.75,259.246L-1327.31,259.429L-1325.02,259.611L-1323.03,259.766C-1320.66,260.039 -1318.33,260.534 -1316,261L-1316,237L-1324.21,237.079C-1333.16,237.162 -1342.1,237.217 -1351.05,237.259C-1356.47,237.285 -1361.9,237.321 -1367.32,237.377C-1372.55,237.431 -1377.79,237.461 -1383.02,237.474C-1385.02,237.484 -1387.02,237.502 -1389.02,237.529C-1391.81,237.565 -1394.6,237.57 -1397.4,237.568L-1399.91,237.622C-1403.49,237.59 -1405.45,237.546 -1408.04,234.965C-1409,232 -1409,232 -1409,224L-1316,224L-1316,197L-1326.78,197.079C-1338.52,197.162 -1350.26,197.218 -1362,197.259C-1369.12,197.285 -1376.24,197.32 -1383.36,197.377C-1390.23,197.432 -1397.09,197.461 -1403.96,197.474C-1406.58,197.484 -1409.21,197.502 -1411.83,197.529C-1415.5,197.565 -1419.16,197.57 -1422.83,197.568L-1426.14,197.622C-1433.42,197.572 -1433.42,197.572 -1436.2,194.84C-1437.07,191.751 -1437.22,189.194 -1437,186C-1427.44,185.867 -1417.89,185.737 -1408.33,185.609C-1403.89,185.549 -1399.45,185.489 -1395.01,185.427C-1378.04,185.191 -1361.07,184.956 -1344.09,184.938L-1340.76,184.931C-1332.47,184.939 -1324.27,185.338 -1316,186L-1316,159L-1321,160C-1323.69,160.097 -1326.36,160.147 -1329.05,160.145L-1331.46,160.155C-1334.08,160.165 -1336.7,160.167 -1339.32,160.168L-1344.79,160.178C-1348.61,160.184 -1352.43,160.186 -1356.25,160.185C-1361.14,160.185 -1366.04,160.199 -1370.94,160.216C-1374.7,160.227 -1378.47,160.229 -1382.23,160.229C-1384.04,160.23 -1385.84,160.234 -1387.65,160.242C-1390.17,160.252 -1392.69,160.249 -1395.21,160.243L-1397.48,160.26C-1401.21,160.237 -1402.81,160.124 -1406,158C-1407.5,154.376 -1408,151.96 -1408,148C-1404.81,146.937 -1402.56,146.871 -1399.2,146.867L-1395.43,146.861L-1391.25,146.875L-1389.1,146.878C-1364.73,146.913 -1340.36,147.508 -1316,148L-1316,122L-1364,122L-1364,130C-1366.05,133.504 -1370.26,134.777 -1374,136C-1381.87,137.574 -1390.01,137.087 -1398,137C-1399.06,133.82 -1399.13,131.562 -1399.13,128.222L-1399.14,124.618L-1399.13,120.707L-1399.14,116.665C-1399.14,113.831 -1399.13,110.997 -1399.13,108.163C-1399.12,104.578 -1399.13,100.994 -1399.13,97.409C-1399.17,69.03 -1399.17,69.03 -1398,56C-1394.35,56.539 -1391.04,57.211 -1387.61,58.559L-1385.21,59.479C-1383.58,60.112 -1381.96,60.747 -1380.34,61.385L-1377.92,62.309L-1375.78,63.146C-1367.81,65.593 -1360.05,66.316 -1351.74,66.414L-1348.62,66.473C-1345.37,66.532 -1342.12,66.579 -1338.88,66.625L-1332.22,66.742C-1326.81,66.839 -1321.41,66.919 -1316,67L-1316,46L-1318,47C-1319.5,47.101 -1321.01,47.139 -1322.51,47.147L-1325.39,47.169L-1328.55,47.177L-1331.88,47.197C-1335.52,47.217 -1339.16,47.228 -1342.81,47.238L-1346.57,47.251C-1352.46,47.269 -1358.35,47.284 -1364.23,47.292C-1371.03,47.302 -1377.83,47.328 -1384.63,47.369C-1390.52,47.403 -1396.41,47.414 -1402.3,47.418C-1404.8,47.423 -1407.31,47.435 -1409.82,47.453C-1413.32,47.478 -1416.82,47.477 -1420.32,47.47L-1423.48,47.509L-1426.36,47.488L-1428.87,47.495C-1431,47 -1431,47 -1432.66,45.47C-1434,43 -1434,43 -1436,35L-1316,35L-1316,1L-1308.55,1.84L-1301.28,2.654L-1296.29,3.216C-1293.87,3.488 -1291.46,3.758 -1289.05,4.027L-1286.68,4.292C-1281.15,4.9 -1275.62,5.384 -1270.06,5.756C-1268,6 -1268,6 -1267,7C-1266.62,9.875 -1266.62,9.875 -1267,13C-1270.62,16.092 -1273.09,16.182 -1278,17L-1278,35C-1269.35,34.96 -1260.7,34.903 -1252.05,34.816C-1248.04,34.777 -1244.02,34.744 -1240,34.729C-1236.12,34.714 -1232.25,34.679 -1228.37,34.632C-1226.89,34.617 -1225.41,34.609 -1223.94,34.608C-1221.86,34.606 -1219.79,34.579 -1217.72,34.546L-1214.14,34.519C-1212.07,34.176 -1210.63,33.641 -1209.3,32.787C-1208.16,31.031 -1206.78,29.553 -1205,28L-1203,28L-1202,25L-1201.78,25.448C-1200.09,22.656 -1198,20.243 -1195.88,17.75L-1194.46,16.07C-1193.31,14.711 -1192.15,13.355 -1191,12C-1187.03,12.555 -1185.1,14.475 -1182.25,17.188C-1178.01,21.113 -1173.68,24.624 -1169,28C-1166.96,29.51 -1164.92,31.027 -1162.9,32.57C-1161.67,33.496 -1160.41,34.39 -1159.13,35.242C-1157.44,36.438 -1157.44,36.438 -1155,39C-1155.35,42.66 -1155.35,42.66 -1156,46C-1170.18,46.993 -1184.3,47.132 -1198.51,47.098L-1205.43,47.093C-1211.43,47.09 -1217.44,47.08 -1223.45,47.069C-1229.6,47.058 -1235.76,47.054 -1241.91,47.049C-1253.94,47.038 -1265.97,47.021 -1278,47L-1278,66L-1229,66L-1227,62C-1225.67,60.444 -1225.67,60.444 -1224.18,58.984L-1222.56,57.383L-1220.88,55.75L-1219.17,54.07C-1217.78,52.709 -1216.39,51.354 -1215,50C-1211.9,51.035 -1210.7,52.213 -1208.47,54.504C-1201.02,62.072 -1192.25,67.886 -1183.55,73.896C-1182,75 -1182,75 -1181,76L-1181,81L-1193,83L-1192.97,86.501C-1192.93,90.796 -1192.91,95.092 -1192.89,99.388C-1192.88,101.245 -1192.87,103.103 -1192.85,104.96C-1192.83,107.634 -1192.81,110.307 -1192.81,112.98L-1192.77,115.487C-1192.77,119.732 -1192.86,123.203 -1195,127C-1199.09,129.631 -1203.36,130.725 -1208,131.775L-1208,133.19C-1207.44,133.856 -1206.88,134.522 -1206.31,135.188L-1204.8,136.98C-1201.68,140.484 -1198.53,143.702 -1194.7,146.43L-1192.99,147.652C-1191.82,148.472 -1190.65,149.279 -1189.46,150.074C-1186.11,152.505 -1185.07,153.719 -1184.11,157.82L-1184,161L-1191,165L-1191,184C-1185.8,178.149 -1180.85,172.146 -1176,166L-1172,167ZM-1214.25,132.878C-1217.25,131.499 -1219.84,132.429 -1223.12,132.938L-1227.01,133.527L-1230,134L-1230,122L-1279,122L-1279.06,134.438L-1279.09,138.365L-1279.1,141.434L-1279.11,144.592C-1279.27,146.951 -1279.27,146.951 -1278,148C-1276.5,148.156 -1274.98,148.244 -1273.47,148.304L-1270.55,148.421C-1266.09,148.559 -1261.63,148.657 -1257.17,148.735C-1254.82,148.786 -1252.48,148.861 -1250.14,148.96C-1236.38,150.154 -1236.38,150.154 -1224.05,145.376C-1221.22,142.56 -1219.11,139.385 -1217,136C-1215.65,134.557 -1215.34,134.219 -1214.71,133.638C-1214.55,133.357 -1214.4,133.105 -1214.25,132.878ZM-1279,197L-1279,224C-1274.29,224.145 -1269.58,224.288 -1264.87,224.427L-1260.09,224.573C-1249.72,224.893 -1239.37,225.069 -1229,225C-1227.64,222.286 -1227.89,220.152 -1227.9,217.117L-1227.91,213.933L-1227.94,209.875L-1228,197L-1279,197ZM-1278,160C-1279.03,163.085 -1279.05,164.897 -1278.88,168.105L-1278.73,171.084L-1278.56,174.188L-1278.4,177.326C-1278.28,179.884 -1278.14,182.442 -1278,185C-1261.66,185.883 -1245.37,186.128 -1229,186C-1227.7,183.404 -1227.87,181.493 -1227.87,178.59L-1227.86,175.342L-1227.88,171.938L-1227.86,168.521L-1227.87,165.277L-1227.87,162.285C-1227.74,160.034 -1227.74,160.034 -1229,159C-1230.39,158.902 -1231.79,158.872 -1233.18,158.871L-1235.87,158.861L-1238.8,158.867L-1241.79,158.864C-1243.89,158.864 -1245.99,158.865 -1248.08,158.87C-1251.29,158.875 -1254.5,158.87 -1257.7,158.863L-1263.8,158.867L-1266.71,158.861L-1269.43,158.871L-1271.82,158.873C-1274.06,159.003 -1275.9,159.198 -1278,160ZM-1278,80L-1278,109L-1230,109L-1229,80L-1278,80ZM-1364,80L-1364,109L-1316,109L-1316,80L-1364,80ZM-1476,231L-1476,264L-1472,266C-1467.22,269.556 -1467.22,269.556 -1466,272C-1465.72,276.826 -1466.24,280.499 -1468,285L-1470,285L-1471,288C-1477.42,292.565 -1483.66,293.731 -1491.37,293.631L-1494.35,293.653C-1497.57,293.67 -1500.79,293.65 -1504.01,293.629C-1506.26,293.63 -1508.52,293.632 -1510.77,293.636C-1515.48,293.639 -1520.18,293.624 -1524.89,293.597C-1530.92,293.563 -1536.94,293.569 -1542.96,293.588C-1547.61,293.598 -1552.26,293.589 -1556.91,293.574C-1559.13,293.569 -1561.35,293.569 -1563.57,293.576C-1566.68,293.581 -1569.78,293.561 -1572.89,293.533L-1575.64,293.553C-1581.68,293.463 -1585.85,292.125 -1591,289L-1593.75,287.438C-1600.04,280.623 -1600.57,271.262 -1600.39,262.426L-1600.37,259.244C-1600.35,255.933 -1600.3,252.623 -1600.25,249.313C-1600.23,247.05 -1600.21,244.788 -1600.19,242.525C-1600.15,237.017 -1600.09,231.508 -1600,226L-1601.38,228.938C-1603,232 -1603,232 -1605,233L-1605.88,235.734C-1612.83,255.972 -1641.83,271.909 -1660.16,281.129C-1673.26,287.524 -1686.71,292.972 -1701,296L-1703.35,296.508C-1706,297.079 -1708.66,297.636 -1711.31,298.188L-1713.88,298.731C-1718.69,299.699 -1723.1,300.192 -1728,300C-1726.97,296.619 -1725.85,295.915 -1722.73,294.105C-1721.36,293.455 -1720,292.817 -1718.62,292.188C-1717.17,291.49 -1715.71,290.79 -1714.25,290.086L-1712.07,289.03C-1708.15,287.077 -1704.41,284.822 -1700.66,282.574C-1698.31,281.18 -1695.92,279.895 -1693.5,278.625C-1688.51,275.908 -1684.14,272.4 -1679.7,268.891C-1677.31,267.216 -1675.84,266.405 -1673,266L-1673,264L-1669,263L-1669,261C-1667.02,259.633 -1665.02,258.305 -1663,257C-1652.45,248.529 -1641.36,237.083 -1637,224L-1635,224L-1634.38,221.848L-1633.56,219.063L-1632.75,216.285C-1632,214 -1632,214 -1631,213L-1655,213L-1655,223C-1658.6,226.795 -1664.38,226.979 -1669.38,227.688L-1671.88,228.08C-1684.53,229.979 -1684.53,229.979 -1689,227C-1689.26,223.947 -1689.32,221.103 -1689.25,218.052L-1689.22,215.244C-1689.19,212.17 -1689.13,209.097 -1689.07,206.023C-1689.05,203.896 -1689.02,201.769 -1688.99,199.642C-1688.92,194.036 -1688.84,188.43 -1688.74,182.824C-1688.65,177.107 -1688.58,171.389 -1688.5,165.672C-1688.35,154.448 -1688.18,143.224 -1688,132C-1684.47,132.562 -1681.27,133.116 -1677.98,134.523L-1675.82,135.43L-1673.62,136.375C-1667.26,139.08 -1667.26,139.08 -1660.84,141.664L-1659.03,142.374C-1654,143.925 -1649.09,144.12 -1643.85,144.098L-1641.86,144.093C-1639.78,144.088 -1637.7,144.075 -1635.62,144.063L-1631.37,144.049C-1627.91,144.038 -1624.46,144.021 -1621,144C-1620.8,141.313 -1620.62,138.626 -1620.44,135.938L-1620.27,133.658L-1620.12,131.402L-1619.98,129.355C-1620.01,126.218 -1620.56,123.105 -1621,120L-1603,120L-1601,116C-1599,113.75 -1599,113.75 -1597,112L-1595,112L-1594.22,109.813C-1592.55,105.961 -1590.14,102.864 -1587.66,99.5C-1586.04,97.059 -1584.98,94.75 -1584,92L-1582,92L-1581.62,89.688C-1581.29,88.238 -1581.13,87.571 -1580.75,86.792C-1580.28,85.528 -1579.7,84.336 -1579,83L-1581.05,82.816L-1583.75,82.563L-1586.42,82.316C-1589,82 -1589,82 -1590.91,81.482C-1593.05,80.988 -1594.84,80.914 -1597.03,80.978L-1599.4,81.039L-1601.92,81.121L-1604.53,81.193C-1607.27,81.269 -1610.01,81.353 -1612.75,81.438L-1618.33,81.596C-1622.89,81.725 -1627.44,81.861 -1632,82L-1629.36,82.595L-1625.86,83.391L-1622.41,84.173C-1612.73,86.52 -1603.96,89.558 -1598.5,98.438C-1597.55,103.307 -1597.26,107.344 -1599.31,111.938C-1601,114 -1601,114 -1604,115C-1605.79,115.144 -1607.58,115.221 -1609.38,115.25L-1612.21,115.328C-1615.57,114.933 -1617.31,114.034 -1620,112C-1621.59,109.906 -1621.59,109.906 -1622.94,107.5L-1624.28,105.156L-1626,102L-1627.53,99.203C-1629.02,96.47 -1630.51,93.735 -1632,91L-1631.95,94.257C-1631.9,98.243 -1631.86,102.23 -1631.84,106.216C-1631.82,107.942 -1631.8,109.667 -1631.77,111.393C-1631.74,113.873 -1631.72,116.352 -1631.71,118.832L-1631.66,121.171C-1631.66,126.498 -1631.66,126.498 -1633.32,128.94C-1641.65,134.195 -1653.88,133 -1663,133L-1663,104C-1666.38,107.367 -1666.38,107.367 -1669.69,110.813C-1670,111.095 -1670.24,111.31 -1670.44,111.474C-1670.63,111.65 -1670.81,111.825 -1671,112L-1673,112L-1673,114C-1675.19,115.827 -1677.38,117.519 -1679.69,119.188L-1681.73,120.671C-1697.6,132 -1697.6,132 -1704,132C-1704,125.567 -1701.31,122.591 -1697.25,117.789C-1692.97,112.477 -1689.24,106.563 -1685.97,100.4C-1685.1,98.415 -1684.11,96.502 -1683.05,94.591C-1681.22,90.751 -1679.54,86.861 -1678,83L-1698,83C-1699.62,78.148 -1700.23,75.818 -1700,71C-1696.31,69.768 -1692.9,69.876 -1689.05,69.902L-1686.71,69.907C-1684.24,69.912 -1681.78,69.925 -1679.31,69.938L-1674.3,69.951C-1670.2,69.961 -1666.1,69.981 -1662,70L-1662,47C-1656.48,47.405 -1650.96,47.813 -1645.45,48.227C-1643.57,48.367 -1641.69,48.506 -1639.81,48.643C-1637.12,48.84 -1634.42,49.042 -1631.73,49.246L-1629.17,49.429C-1623.23,49.886 -1623.23,49.886 -1621,51C-1619.74,55.475 -1619.74,55.475 -1621,58C-1623.94,58.633 -1623.94,58.633 -1627.56,59.125L-1630.79,59.576L-1631,60L-1634,60L-1633,62C-1632.87,64.672 -1632.96,67.323 -1633,70C-1623.99,67.105 -1617.73,62.516 -1612,55C-1607.59,56.796 -1604.52,60.053 -1601.61,63.773C-1597.82,67.989 -1594.56,69.41 -1588.86,69.818C-1584.91,69.963 -1580.96,69.966 -1577,69.938C-1575.35,69.951 -1573.7,69.967 -1572.05,69.986C-1568.03,70.033 -1564.02,70.015 -1560,70L-1561,48C-1552.64,48 -1544.42,48.216 -1536.09,48.745C-1533.98,48.876 -1531.86,48.995 -1529.75,49.113L-1525.69,49.367L-1522.01,49.589C-1519,50 -1519,50 -1516,52C-1515.31,55.625 -1515.31,55.625 -1515,59C-1518.15,60.05 -1520.39,60.101 -1523.69,60.063L-1526.7,60.035L-1529,60L-1529,70C-1517.26,67.894 -1510.77,62.014 -1504,52.469L-1503,51C-1500,52 -1500,52 -1497.62,54.938C-1494.17,59.157 -1490.03,62.227 -1485.67,65.447C-1477.89,71.212 -1477.89,71.212 -1476,75L-1476,81L-1525,82L-1515,86C-1512.33,87.457 -1512.33,87.457 -1510.25,88.813C-1506.18,91.34 -1502.03,93.604 -1497.75,95.75L-1494.3,97.484C-1491.22,98.898 -1488.21,99.941 -1485,101C-1481.69,102.328 -1478.41,103.726 -1475.12,105.125L-1472.46,106.254C-1470.31,107.167 -1468.15,108.083 -1466,109C-1467.63,112.552 -1468.99,113.883 -1472.38,115.875C-1476.54,118.494 -1478.52,120.824 -1481,125L-1483,125L-1483.25,127.125C-1484.19,130.714 -1485.71,133.1 -1488,136C-1491.34,136 -1493.04,135.518 -1496,134C-1497.39,132.377 -1498.73,130.713 -1500,129L-1502,128L-1502,126L-1503.88,125.25C-1506.35,123.794 -1506.95,122.622 -1508,120L-1510,120C-1511.8,117.742 -1513.48,115.487 -1515.12,113.125L-1516.54,111.152C-1520,106.264 -1520,106.264 -1520,104L-1522,104L-1523,99L-1525,99L-1526,93L-1528,93L-1529,91L-1529,129C-1536.52,132.01 -1543.52,132.146 -1551.5,132.063L-1560,132L-1560,98L-1564,104C-1569.51,109 -1569.51,109 -1573,109L-1573,111C-1580.08,117.429 -1588.01,121.027 -1597,124L-1593.64,124.184L-1589.25,124.438L-1587.04,124.557C-1583.53,124.764 -1580.42,125.144 -1577,126L-1577,135L-1585.44,136L-1587.87,136.289C-1593.89,137 -1593.89,137 -1595,137L-1595,144L-1538,144L-1537,141L-1532,136L-1532,134C-1526.64,129 -1526.64,129 -1523,129C-1520,132.333 -1520,132.333 -1520,135L-1518.38,135.75C-1515.42,137.307 -1512.7,139.034 -1510,141L-1510,143L-1508.29,143.809C-1505.84,145.081 -1503.6,146.522 -1501.31,148.063L-1498.93,149.66C-1497,151 -1497,151 -1496,152C-1495.54,157.297 -1495.54,157.297 -1497.19,159.813C-1499.41,161.268 -1501.4,161.537 -1504,162L-1504,163.954C-1504.02,170.654 -1504.08,177.353 -1504.15,184.052C-1504.18,186.554 -1504.19,189.055 -1504.2,191.557C-1504.2,195.149 -1504.25,198.74 -1504.29,202.332L-1504.28,205.732L-1504.34,208.886L-1504.36,211.665C-1505,214 -1505,214 -1507.35,215.798C-1510.62,217.282 -1513.02,217.342 -1516.61,217.293L-1520.39,217.264L-1524.31,217.188L-1528.29,217.146C-1531.44,217.112 -1534.58,217.065 -1537.73,217.005C-1535.92,217.368 -1534.1,217.802 -1532.19,218.273C-1529.41,218.906 -1526.77,219.31 -1523.94,219.563C-1520.49,219.946 -1518.91,220.388 -1516,222L-1516,226L-1522,228L-1518.71,229.504C-1502.07,237.324 -1502.07,237.324 -1498,247C-1497.7,249.438 -1497.7,249.438 -1497.69,252L-1497.64,254.563C-1498.11,257.757 -1498.49,258.909 -1501,261C-1504.22,261.642 -1507.41,261.697 -1510.69,261.75L-1513.39,261.84C-1515.6,261.91 -1517.8,261.958 -1520,262L-1518,253L-1520.12,253.778C-1528.07,256.574 -1535.96,258.318 -1544.25,259.75L-1547.99,260.418C-1550.99,260.953 -1554,261.481 -1557,262C-1557.96,260.583 -1558.92,259.163 -1559.88,257.742L-1561.5,255.347C-1564.01,251.423 -1566,247.742 -1566,243L-1563.88,242.484L-1561.12,241.75L-1558.38,241.047C-1555.46,239.762 -1555.17,238.895 -1554,236C-1552.41,233.75 -1550.79,231.528 -1549.14,229.316C-1547.7,226.387 -1548.1,225.081 -1549,222C-1549.34,220.001 -1549.67,218.001 -1550,216C-1545.75,215.75 -1541.92,216.179 -1538.01,216.95L-1539,211L-1542.04,211.438C-1550.75,212.637 -1559.19,213.272 -1568,213L-1567.97,216.84L-1567.94,221.938L-1567.91,224.455C-1567.89,229.299 -1568.18,233.97 -1568.77,238.774C-1569.16,242.577 -1569.14,246.369 -1569.12,250.188L-1569.14,252.514L-1569.13,254.793L-1569.13,256.809C-1568.97,259.582 -1568.47,262.264 -1568,265C-1559.26,265.07 -1550.51,265.123 -1541.76,265.155C-1537.7,265.171 -1533.64,265.192 -1529.58,265.226C-1525.66,265.259 -1521.74,265.277 -1517.81,265.285C-1516.32,265.29 -1514.83,265.301 -1513.33,265.317C-1511.23,265.339 -1509.14,265.342 -1507.04,265.341L-1503.42,265.361C-1498.65,264.857 -1494.54,263.587 -1491.11,260.055C-1488.37,255.657 -1486.26,251.525 -1484.79,246.551C-1483.15,241.267 -1481.01,236.149 -1479,231L-1476,231ZM-1528.77,230.012C-1531.63,230.107 -1532.39,230.797 -1534.88,232.75L-1537,234.406L-1539,236L-1541.88,238.25C-1544.04,239.975 -1544.04,239.975 -1546,242C-1542.81,242.029 -1539.62,242.047 -1536.44,242.063L-1533.73,242.088C-1528.7,242.106 -1523.95,241.863 -1519,241L-1520.21,239.609L-1521.81,237.75L-1523.48,235.824C-1523.94,235.266 -1524.27,234.878 -1524.54,234.539L-1525,235C-1527.45,232.093 -1528.4,230.965 -1528.77,230.012ZM-1655,185.293L-1655,201C-1650.05,201.069 -1645.11,201.129 -1640.16,201.165C-1638.47,201.18 -1636.79,201.2 -1635.1,201.226C-1632.69,201.263 -1630.27,201.28 -1627.85,201.293L-1625.56,201.34C-1623.22,201.376 -1623.22,201.376 -1620,201C-1616.48,195.72 -1616.97,191.957 -1617,185.529C-1620.11,186.191 -1623.23,186.142 -1626.47,186.133L-1628.64,186.136C-1630.15,186.136 -1631.67,186.135 -1633.18,186.13C-1635.49,186.125 -1637.8,186.13 -1640.11,186.137L-1644.53,186.133L-1646.62,186.139C-1649.54,186.125 -1652.23,186.028 -1655,185.293ZM-1654,157C-1654.88,160.507 -1655.13,163.12 -1655.12,166.688L-1655.13,169.637C-1655.27,171.956 -1655.27,171.956 -1654,173C-1651.12,173.089 -1648.26,173.115 -1645.37,173.098L-1642.75,173.093C-1639.98,173.088 -1637.21,173.075 -1634.44,173.063L-1628.81,173.049C-1624.21,173.038 -1619.61,173.021 -1615,173L-1612,157L-1654,157ZM-1577,157L-1579,173L-1539,173L-1539,156C-1544.25,155.977 -1549.5,155.957 -1554.75,155.945C-1556.54,155.94 -1558.33,155.933 -1560.12,155.925C-1562.68,155.912 -1565.25,155.907 -1567.81,155.902L-1570.25,155.887C-1573.92,155.533 -1573.92,155.533 -1577,157ZM-1581,185L-1583,201L-1540,202L-1540,185L-1581,185ZM-479,290C-479.286,287.718 -479.286,287.718 -479,285C-477.095,283.182 -477.095,283.182 -474.426,281.512L-471.481,279.633L-468.313,277.688L-465.116,275.666C-462.089,273.757 -459.049,271.873 -456,270L-453.812,268.655C-451.137,267.016 -448.458,265.385 -445.777,263.754C-433.028,255.702 -416.015,244.639 -407.773,231.664L-406,229L-404,229L-403.328,227.383C-401.546,224.185 -399.163,221.602 -396.75,218.875C-392.158,213.587 -388.314,208.195 -385,202L-387,203C-389.76,203.119 -392.496,203.178 -395.258,203.193L-397.845,203.218C-400.676,203.243 -403.508,203.259 -406.34,203.273L-409.265,203.29C-414.371,203.316 -419.477,203.336 -424.584,203.35C-429.868,203.367 -435.152,203.412 -440.436,203.462C-444.491,203.496 -448.546,203.508 -452.601,203.513C-454.55,203.52 -456.498,203.535 -458.447,203.559C-461.169,203.591 -463.89,203.591 -466.613,203.583L-469.064,203.633C-471.312,203.608 -471.312,203.608 -475,203C-477.573,199.918 -478.57,196.98 -479,193L-478,191L-360,191L-360,160.139C-374.525,164.173 -389.493,167.02 -404,169L-406.271,169.326C-410.838,169.977 -415.406,170.573 -420,171L-422.896,171.27C-433.064,172.109 -443.18,172.115 -453.375,172.063L-458.531,172.049C-462.688,172.038 -466.844,172.021 -471,172L-472,167C-466.757,165.332 -461.53,164.354 -456.105,163.454C-431.578,159.376 -407.233,153.971 -384,145C-382.101,144.284 -380.201,143.569 -378.301,142.855C-371.511,140.296 -364.727,137.721 -358,135C-360.549,133.726 -362.676,133.652 -365.52,133.387L-369.014,133.048L-372.813,132.688C-383.313,131.656 -393.744,130.391 -404.188,128.875C-414.796,127.343 -425.285,126.287 -436,126L-436,122C-434.102,120.297 -434.102,120.297 -431.625,118.75L-429.164,117.172C-427,116 -427,116 -425,116L-425,114C-423.426,112.449 -423.426,112.449 -421.313,110.688C-416.443,106.534 -412.089,102.124 -407.844,97.336L-405.662,94.876L-404,93L-406.289,93.04C-413.41,93.161 -420.531,93.252 -427.653,93.311C-431.315,93.342 -434.975,93.385 -438.636,93.453C-442.17,93.518 -445.703,93.554 -449.237,93.569C-451.241,93.586 -453.244,93.633 -455.246,93.68C-464.265,93.683 -464.265,93.683 -467.796,90.401C-469,87 -469,87 -470,80L-393,79L-392,76L-389,73L-388,70L-386,70L-386,67L-384,67L-383.195,64.895C-381.894,61.743 -380.413,58.73 -378.875,55.688L-378.612,55.166C-377.791,53.42 -376.921,51.695 -376,50C-366.577,49.724 -357.272,50.158 -347.875,50.875L-344.571,51.113L-341.43,51.367L-338.625,51.589C-335.848,52.024 -333.561,52.862 -331,54C-331.063,56.313 -331.063,56.313 -332,59C-335.501,60.88 -338.008,62 -342,62C-343.075,64.652 -344.095,67.284 -345,70L-347,72C-347.893,73.195 -348.766,74.405 -349.625,75.625L-350.977,77.539L-352,79C-339.178,79.069 -326.357,79.123 -313.535,79.155C-307.581,79.171 -301.628,79.192 -295.675,79.226C-289.93,79.259 -284.185,79.277 -278.44,79.285C-276.248,79.29 -274.055,79.301 -271.863,79.317C-268.794,79.339 -265.725,79.342 -262.656,79.341L-259.905,79.373C-253.551,79.342 -250.288,78.106 -245.543,73.738L-243.188,71.313L-240.793,68.863L-239,67L-241.816,68.313L-245.563,70L-247.408,70.867C-251.774,72.808 -255.251,73.293 -260,73C-259,65 -259,65 -253,48L-431,48L-431,56C-431.875,59.188 -431.875,59.188 -433,62L-434.125,64.875L-435,67L-437,67L-437,70C-442.643,75.761 -449.051,78.012 -457,78.313C-462.973,78.167 -467.06,76.362 -471.938,72.938C-474.929,68.677 -474.857,65.05 -474,60C-470.607,52.932 -463.369,46.496 -457,42L-455,42L-455,40L-452.75,38.25C-447.578,34.018 -445.365,28.852 -443.25,22.625L-441.953,18.852L-441,16C-439.172,16.078 -439.172,16.078 -437,17C-435.516,19.984 -435.516,19.984 -434.25,23.75L-432.953,27.484C-432.11,30.595 -431.917,32.83 -432,36C-424.574,35.891 -417.148,35.778 -409.723,35.661C-406.272,35.606 -402.821,35.553 -399.37,35.503C-382.565,35.256 -365.786,34.851 -349,34C-353.8,23.25 -358.219,13.392 -366.938,5.188C-369,3 -369,3 -369,-1C-353.323,-1.667 -338.129,-0.386 -324,7L-321.797,7.895C-317.795,9.586 -316.275,10.55 -313.938,14.375C-312.761,18.924 -313.294,21.669 -314.625,26.063C-316.472,28.664 -318.788,30.119 -321.441,31.852C-323.156,32.932 -323.156,32.932 -324,35L-249,34L-248,32L-246,32L-245.313,30.313C-245.056,29.861 -244.788,29.431 -244.509,29.018L-244,28L-243.774,28C-242.381,26.188 -240.763,24.677 -239,23L-237.438,21.125C-236,20 -236,20 -234.184,20.184C-231.34,21.247 -229.802,22.823 -227.625,24.938C-221.987,30.175 -215.889,34.492 -209.592,38.879C-206.334,41.173 -203.171,43.59 -200,46C-200,48.313 -200,48.313 -201,51C-207.07,53.601 -213.381,55.333 -219.732,57.105C-224.338,58.421 -228.633,60.026 -233,62C-230.297,65.65 -227.685,68.162 -223.902,70.664L-220.975,72.625L-217.938,74.625C-215.945,75.948 -213.954,77.273 -211.965,78.602L-209.297,80.362C-207.263,81.812 -205.548,83.044 -204,85C-203.813,88.688 -203.813,88.688 -204,92C-223.018,92.872 -241.967,93.13 -261,93L-261.883,94.946C-264.621,100.731 -267.529,105.313 -272,109.875L-273.539,111.516C-276.492,114.62 -279.51,117.491 -283,120L-285,120L-285,122L-288,124C-283.107,125.641 -278.208,127.258 -273.293,128.832C-240.227,139.501 -240.227,139.501 -234.063,150.438C-232.935,154.22 -232.429,157.376 -233.153,160.694L-233,161C-233.189,161.391 -233.366,161.759 -233.533,162.104C-233.808,162.964 -234.169,163.842 -234.625,164.75C-234.973,165.294 -235.322,165.789 -235.678,166.242C-236.627,167.761 -237.389,168.249 -239.25,169.438L-239.47,169.508C-240.49,170.075 -241.643,170.548 -243,171C-255.911,171.665 -268.324,165.899 -280,161C-290.169,156.75 -300.341,152.701 -310.875,149.438L-313.378,148.639C-320.17,146.613 -324.493,147.223 -331.046,150.069C-338.788,153.403 -346.88,156.274 -355.151,158.743C-354.474,158.772 -353.792,158.816 -353.125,158.813C-345.361,158.831 -337.62,159.302 -329.875,159.813L-326.282,160.025L-322.867,160.27L-319.808,160.476C-316.661,161.063 -314.629,162.208 -312,164C-312.985,167.644 -313.658,168.789 -316.938,170.813C-320,172 -320,172 -323,172L-323,191C-314.498,190.96 -305.997,190.902 -297.495,190.816C-293.547,190.777 -289.599,190.744 -285.651,190.729C-281.838,190.714 -278.026,190.679 -274.213,190.632C-272.761,190.617 -271.309,190.609 -269.857,190.608C-267.817,190.606 -265.779,190.579 -263.74,190.546L-260.227,190.519C-254.64,189.62 -250.922,186.188 -247.125,182.188C-243.766,178.725 -240.257,175.551 -236.566,172.445C-234.885,171.065 -234.885,171.065 -234,169C-232.063,169.313 -232.063,169.313 -230,170L-229,173L-226,174L-226,176L-224.223,176.801C-221.92,178.043 -220.335,179.396 -218.438,181.188C-214.413,184.819 -210.076,187.571 -205.418,190.324C-203.842,191.416 -202.681,192.379 -201.654,193.607L-201,194L-201.103,194.31C-200.729,194.817 -200.366,195.374 -200,196C-200.188,199.188 -200.188,199.188 -201,202C-203.366,203.183 -204.814,203.137 -207.454,203.158L-210.293,203.188L-213.417,203.205L-216.698,203.235C-220.291,203.267 -223.884,203.292 -227.477,203.316L-234.934,203.379C-240.816,203.429 -246.699,203.474 -252.582,203.517C-259.935,203.572 -267.288,203.633 -274.641,203.693C-287.76,203.801 -300.88,203.903 -314,204C-313.069,204.985 -312.13,205.963 -311.188,206.938L-309.605,208.59C-307.942,210.235 -307.942,210.235 -305,211L-304,213L-301,214L-301,216L-298,216L-298,218L-295,218L-295,220L-292.555,220.707C-288.16,222.305 -284.224,224.454 -280.125,226.688C-253.991,240.6 -225.457,250.438 -196.082,254.641C-194,255 -194,255 -192,256L-192,259L-194.563,260.125C-198.036,262.02 -200.602,264.125 -203.484,266.793C-205,268 -205,268 -207,268L-207.816,269.738C-209.027,272.051 -210.419,274.066 -211.938,276.188C-214.919,280.576 -216.625,284.899 -218,290C-241.59,286.016 -264.816,270.847 -283,256L-284.664,254.707C-288.074,252.005 -290.808,249.012 -293.57,245.684C-294.79,244.248 -296.105,242.895 -297.438,241.563C-300.223,238.777 -302.784,235.853 -305.352,232.867C-306.958,230.991 -306.958,230.991 -308.711,229.383C-310,228 -310,228 -310,226L-312,226C-313.428,223.941 -314.728,221.902 -316,219.75L-317.078,217.973C-318.847,215.036 -320.49,212.076 -322,209L-322.018,212.055C-322.075,221.546 -322.148,231.037 -322.236,240.528C-322.28,245.407 -322.32,250.287 -322.346,255.167C-322.372,259.874 -322.413,264.581 -322.463,269.289C-322.48,271.086 -322.491,272.884 -322.498,274.682C-322.507,277.196 -322.535,279.71 -322.568,282.224L-322.563,284.486C-322.655,289.516 -322.655,289.516 -324.366,291.917C-330.957,296.284 -339.848,297.32 -347.563,298.313L-349.618,298.58C-353.034,298.967 -355.712,298.944 -359,298L-359.031,296.031C-359.14,289.216 -359.255,282.402 -359.372,275.588C-359.415,273.051 -359.457,270.514 -359.497,267.977C-359.556,264.312 -359.619,260.648 -359.684,256.984L-359.734,253.593C-359.868,246.36 -360.311,239.201 -361,232L-363.063,234.063L-364.473,235.457C-365.481,236.476 -366.469,237.515 -367.434,238.574C-375.31,247 -385.561,252.813 -395.313,258.813L-397.556,260.194C-404.592,264.467 -411.697,267.953 -419.362,270.951C-422.071,272.028 -424.744,273.17 -427.418,274.332C-437.596,278.727 -447.772,282.803 -458.375,286.063L-461.161,286.931C-467.093,288.687 -472.828,289.607 -479,290ZM-372.846,99.999L-373.93,101.721C-376.723,106.146 -380.063,108.487 -384.234,111.609L-386,113L-386,114C-378.438,114.573 -370.876,115.143 -363.313,115.709L-355.599,116.291C-351.898,116.571 -348.197,116.849 -344.496,117.125L-341.026,117.39C-338.018,117.613 -335.01,117.809 -332,118L-328.029,118.315C-324.085,117.905 -322.795,116.646 -320.047,113.836L-317.422,111.184L-314.75,108.375L-312.031,105.637C-307.791,101.289 -304.536,97.574 -302,92C-309.876,91.697 -317.75,91.467 -325.63,91.326C-329.29,91.259 -332.947,91.168 -336.605,91.019C-357.047,89.275 -357.047,89.275 -372.846,99.999ZM-690,264.377C-690.195,262.693 -690.117,260.991 -690,259C-673.623,258.977 -657.247,258.959 -640.87,258.948C-633.267,258.943 -625.663,258.936 -618.059,258.925C-611.433,258.915 -604.807,258.908 -598.18,258.906C-594.671,258.905 -591.161,258.902 -587.652,258.894C-583.737,258.886 -579.822,258.886 -575.907,258.886L-572.369,258.876L-569.144,258.88L-566.337,258.877C-564,259 -564,259 -561,260L-561,198L-674,198C-677,191 -677,191 -676,186L-561,186L-561,129L-587.074,129.176C-593.213,129.205 -599.351,129.23 -605.489,129.251C-613.444,129.279 -621.399,129.314 -629.353,129.377C-635.651,129.427 -641.948,129.459 -648.246,129.47C-651.58,129.477 -654.914,129.495 -658.248,129.529C-661.971,129.565 -665.693,129.57 -669.417,129.568L-672.763,129.622C-677.089,129.593 -678.916,129.58 -680.442,129L-681,129L-681.163,128.674C-682.01,128.23 -682.874,127.571 -684.161,126.59C-687.516,121.865 -687,121.85 -687,115L-624,115L-623,4C-608.359,5.126 -608.359,5.126 -602.309,5.938L-598.389,6.461L-594.438,7L-590.381,7.539C-579.68,8.981 -579.68,8.981 -576,10C-575.688,13.313 -575.688,13.313 -576,17C-579.573,20.153 -582.103,20.184 -587,21L-587,111.843C-586.933,112.625 -586.84,113.38 -586.707,114.136C-586.654,114.386 -586.598,114.636 -586.541,114.885L-583,114L-582.742,111.055C-582.063,106.35 -580.109,102.406 -578.125,98.125C-567.437,74.001 -560.407,48.765 -555,23C-549.868,23.591 -545.199,24.753 -540.309,26.434L-538.162,27.155C-535.919,27.91 -533.678,28.674 -531.438,29.438L-526.916,30.963C-524.143,31.898 -521.37,32.837 -518.599,33.779C-515.403,34.863 -512.203,35.936 -509,37L-509,42C-512.409,43.875 -515.525,45.195 -519.313,46L-523,47L-524,50L-526,50L-528,57L-530,57L-531,62L-533,62L-535,66L-535.813,67.938C-537,70 -537,70 -539.266,72.258C-541.521,74.52 -543.567,76.835 -545.59,79.301C-554.237,89.801 -564.036,99.217 -573.717,108.749C-575.82,110.823 -577.911,112.911 -580,115L-561,115L-559,110C-557.414,107.973 -557.414,107.973 -555.625,106.063C-552.715,102.861 -550.291,99.665 -548,96C-544.377,96.584 -542.584,98.012 -539.938,100.5C-537.494,102.788 -536.219,103.927 -533,105C-531.854,106.146 -530.712,107.296 -529.594,108.469C-526.952,111.007 -524.007,113.148 -521.086,115.352C-519,117 -519,117 -517.414,118.648C-515.928,120.261 -515.928,120.261 -513,121C-512.196,124.872 -511.881,126.392 -512.039,127.536C-512.027,127.684 -512.014,127.838 -512,128C-512.086,128.129 -512.17,128.252 -512.253,128.37C-512.41,128.792 -512.638,129.233 -512.938,129.813C-513.509,130.142 -514.052,130.417 -514.587,130.655C-515.467,131.17 -516.509,131.503 -518,132L-522.998,133.428L-522.986,135.394C-522.876,154.606 -522.793,173.818 -522.741,193.03C-522.715,202.321 -522.68,211.612 -522.623,220.902C-522.573,228.999 -522.541,237.096 -522.53,245.193C-522.523,249.481 -522.508,253.769 -522.471,258.057C-522.437,262.092 -522.427,266.127 -522.434,270.162C-522.433,271.644 -522.423,273.126 -522.404,274.607C-522.379,276.629 -522.388,278.651 -522.399,280.673L-522.385,284.103C-522.594,285.087 -522.732,285.737 -522.916,286.258C-522.941,286.481 -522.969,286.727 -523,287C-523.337,287.312 -523.628,287.581 -523.887,287.819C-524.243,288.216 -524.718,288.68 -525.373,289.321C-525.834,289.615 -526.301,289.897 -526.772,290.166C-527.11,290.399 -527.506,290.667 -528,291L-528.066,290.868C-538.023,295.997 -550.081,296.109 -561,297L-562,272L-573.427,271.988C-585.864,271.97 -598.301,271.926 -610.738,271.868C-618.282,271.833 -625.825,271.808 -633.368,271.804C-639.942,271.801 -646.515,271.781 -653.089,271.739C-656.57,271.718 -660.052,271.706 -663.533,271.714C-667.417,271.723 -671.301,271.693 -675.185,271.659L-678.694,271.686L-681.894,271.639L-684.679,271.631C-685.593,271.382 -686.147,271.232 -686.593,271L-687,271C-687.159,270.768 -687.31,270.547 -687.452,270.339C-687.805,269.974 -688.206,269.464 -688.807,268.698C-688.979,268.31 -689.13,267.93 -689.262,267.557C-689.941,266.356 -689.995,265.742 -690,264.377ZM-1041.88,12.371C-1040.92,11.576 -1039.96,10.786 -1039,10L-1038,8C-1036.06,8.813 -1036.06,8.813 -1034,10L-1033,13C-1031.14,14.069 -1031.14,14.069 -1029,15C-1027.75,15.864 -1026.53,16.759 -1025.32,17.68L-1023.25,19.246L-1021.12,20.875C-1015.47,25.205 -1015.47,25.205 -1009.62,29.258C-1007,31 -1007,31 -1005,33C-1004.62,35.438 -1004.62,35.438 -1005,38C-1006.8,40.115 -1008.24,40.925 -1011.02,41.199C-1014.77,41.578 -1017.19,42.016 -1019.65,45.01C-1021.16,47.768 -1022.47,50.562 -1023.75,53.438C-1024.77,55.546 -1025.8,57.65 -1026.83,59.75L-1028.41,62.945C-1037.02,79.477 -1049.65,95.053 -1063,108C-1060.44,110.653 -1057.84,112.944 -1054.88,115.125C-1034.3,131.025 -1018.89,153.57 -1015.25,179.563C-1015.14,181.04 -1015.06,182.52 -1015,184L-1014.84,187.234C-1014.5,200.367 -1017.07,213.881 -1025.85,224.168C-1032.7,230.563 -1039.9,233.483 -1049.26,233.352L-1052.06,233.25L-1054.97,233.195C-1057.32,233.149 -1059.66,233.083 -1062,233L-1062.37,230.551L-1062.88,227.313L-1063.37,224.113C-1063.96,221.197 -1064.89,218.745 -1066,216L-1066,213L-1068,213L-1070,209L-1079,203L-1079,293C-1094.98,299.145 -1094.98,299.145 -1101.21,299.098L-1103.48,299.088L-1105.81,299.063L-1108.2,299.049C-1110.13,299.037 -1112.07,299.019 -1114,299C-1114.03,282.729 -1114.05,266.458 -1114.06,250.188L-1114.07,246.348C-1114.1,193.252 -1113.83,140.158 -1113.5,87.063L-1113.48,84.12C-1113.33,59.08 -1113.17,34.04 -1113,9C-1111.56,9.304 -1110.12,9.612 -1108.68,9.923L-1106.25,10.442C-1103.48,11.129 -1101.19,12.218 -1098.71,13.602C-1081.6,22.473 -1067.81,23.393 -1049,22L-1048.56,20.889L-1049,20L-1047,17L-1045,17L-1045,15C-1043.5,13.375 -1043.5,13.375 -1042,12L-1041.88,12.371ZM-1079,36C-1079.02,56.975 -1079.04,77.949 -1079.05,98.924C-1079.06,108.662 -1079.06,118.4 -1079.08,128.138C-1079.09,136.622 -1079.09,145.107 -1079.09,153.592C-1079.1,158.087 -1079.1,162.582 -1079.11,167.078C-1079.11,171.304 -1079.12,175.53 -1079.11,179.756C-1079.11,181.312 -1079.12,182.868 -1079.12,184.423C-1079.12,186.538 -1079.12,188.653 -1079.12,190.768L-1079.12,194.363C-1079.3,196.924 -1079.3,196.924 -1078,198C-1074.97,198.28 -1071.92,198.232 -1068.88,198.25L-1066.32,198.313C-1060.76,198.347 -1056.91,197.651 -1052,195C-1046.86,189.72 -1045.39,183.931 -1044.91,176.75C-1045.24,162.563 -1049.99,149.005 -1055.21,135.968C-1055.88,134.313 -1056.51,132.646 -1057.13,130.977C-1059.68,124.218 -1062.7,116.437 -1067.75,111.18C-1069.71,107.772 -1068.85,104.655 -1068,101C-1067.16,98.039 -1066.16,95.149 -1065.12,92.25C-1062.98,86.039 -1061.08,79.869 -1059.58,73.465C-1059.1,71.418 -1058.53,69.393 -1057.94,67.375C-1057,63.989 -1056.31,60.623 -1055.64,57.176C-1054.21,50.093 -1052.58,43.051 -1051,36L-1079,36ZM-805,229C-804.423,223.503 -803.021,218.858 -801.008,213.727L-800.885,213.405C-797.687,202.011 -796.953,200.137 -795.036,198.062C-781.868,162.648 -771.786,127.124 -764,90L-766.475,90.124C-770.191,90.302 -773.908,90.464 -777.625,90.625L-781.52,90.82L-785.289,90.977L-788.749,91.135C-792.233,90.99 -794.813,90.407 -798,89C-799.945,85.022 -800,82.514 -800,78L-759,77L-759,3C-745.502,4.125 -745.502,4.125 -740.168,4.938L-736.689,5.461L-733.188,6L-726.168,7.063L-722.912,7.563C-720.523,7.921 -718.134,8.25 -715.738,8.563C-713,9 -713,9 -712,10C-711.959,12.333 -711.958,14.667 -712,17L-723,21L-723,76L-721,73L-719,73L-718.184,71.254C-716.979,68.961 -715.625,67.001 -714.063,64.938L-712.535,62.902C-711.093,61.116 -709.761,59.476 -708,58L-705,58C-703.646,59.65 -702.313,61.317 -701,63L-698,64L-698,66L-695.852,66.691C-692.394,68.278 -690.146,70.338 -687.375,72.938L-684.523,75.59L-682,78L-680.211,79.66C-678.434,81.626 -678.259,83.406 -678,86L-679,89C-684.675,89.814 -690.147,90.136 -695.875,90.098L-698.329,90.093C-700.886,90.088 -703.443,90.075 -706,90.063L-711.238,90.049C-715.492,90.038 -719.746,90.021 -724,90C-725.268,100.927 -725.268,100.927 -721.576,110.736C-717.799,113.777 -713.476,115.82 -709.123,117.907C-705.826,119.605 -702.934,121.747 -700,124L-697.063,126.188L-695,128L-695,130L-693.25,130.688C-690.436,132.329 -688.973,134.436 -687,137L-685,138L-685,141L-683,141L-683,144L-681,145C-677.54,150.259 -676.847,155.818 -677,162C-678.204,167.324 -681.282,172.093 -685.754,175.23C-689.243,177.231 -692.133,178.331 -696.188,178.063C-700.674,176.812 -702.184,175.677 -705,172C-709.244,164.411 -711.426,156.403 -713.824,148.082C-715.605,142.073 -717.624,136.31 -720.137,130.577L-720.974,128.646C-721.647,127.096 -722.323,125.548 -723,124L-723.002,126.584C-723.017,147.315 -723.059,168.045 -723.132,188.776C-723.167,198.801 -723.192,208.826 -723.196,218.851C-723.199,227.587 -723.219,236.322 -723.261,245.058C-723.282,249.686 -723.294,254.313 -723.286,258.94C-723.279,263.293 -723.294,267.645 -723.328,271.998C-723.336,273.598 -723.336,275.198 -723.327,276.798C-723.315,278.979 -723.334,281.157 -723.361,283.337L-723.369,287.038C-724,290 -724,290 -726.345,291.846C-729.339,293.147 -732.309,294.189 -735.438,295.125L-738.746,296.133C-746.274,298.139 -751.724,298 -760,298L-760,172L-766,183C-767.698,185.661 -769.401,188.278 -771.188,190.875C-774.5,195.741 -777.652,200.628 -780.563,205.75C-782,208 -782,208 -784,209L-785,212L-787,213L-788,216C-789.644,217.689 -791.314,219.353 -793,221L-795.188,223.813L-797,226L-798.333,226L-799,228L-805,229ZM-1051.75,299.063L-1054.17,299.035L-1056,299L-1056,297L-1052,296L-1052,294C-1050.1,292.492 -1050.1,292.492 -1047.62,290.875L-1045.16,289.242C-1043,288 -1043,288 -1041,288L-1041,286C-1039.6,284.809 -1039.6,284.809 -1037.62,283.438C-1032.41,279.648 -1027.71,275.394 -1023,271L-1020.68,268.879C-1014.41,262.924 -1008.95,256.072 -1004.27,248.62C-1002.49,243.44 -999.713,238.795 -997,234C-996.908,234.277 -996.826,234.542 -996.756,234.796C-988.157,216.433 -983.47,195.867 -982.24,176.607C-982,174 -982,174 -981.473,172.03C-980.844,169.332 -980.937,166.759 -981,164L-984.073,163.972C-987.837,163.932 -991.599,163.866 -995.362,163.792C-996.99,163.764 -998.619,163.743 -1000.25,163.729C-1002.59,163.708 -1004.93,163.661 -1007.27,163.609L-1009.48,163.606C-1014.54,163.459 -1014.54,163.459 -1016.92,161.087C-1019.1,156.868 -1019,156.635 -1019,151L-878,150L-876,146C-874.784,144.39 -873.531,142.809 -872.25,141.25C-868.722,136.911 -865.319,132.501 -862,128C-858.814,129.396 -856.761,131.046 -854.375,133.563C-851.955,136.14 -851.955,136.14 -849,138L-849,140L-847.313,140.188C-844.051,141.334 -842.402,143.54 -840,146L-837,147.938C-834.182,149.875 -832.323,151.595 -830.455,154L-830,154L-829.836,154.821C-829.561,155.196 -829.283,155.588 -829,156C-829.022,156.799 -829.085,157.437 -829.204,157.982L-829,159L-829.918,159.689C-830.382,160.385 -831.052,161.052 -832,162C-834.366,162.241 -834.366,162.241 -837.368,162.227L-840.812,162.226L-844.445,162.195L-847.775,162.189C-851.892,162.179 -856.008,162.151 -860.125,162.125L-888,162L-887,256C-881.71,256.661 -877.116,257.121 -871.875,257.098L-868.367,257.09L-864,257.063L-850,257L-837,219L-834,220C-832.823,223.532 -832.805,226.462 -832.719,230.188L-832.663,232.305C-832.584,235.292 -832.517,238.279 -832.448,241.267C-832.396,243.449 -832.339,245.631 -832.281,247.813L-832.189,251.77C-832.14,255.014 -832.14,255.014 -831,258C-829.886,258.896 -828.735,259.746 -827.563,260.563C-823.725,263.745 -822.731,266.599 -822.102,271.48C-821.942,275.428 -821.989,278.518 -824,282C-829.127,287.251 -834.672,290.635 -842.091,291.261L-845.413,291.275L-849.207,291.304L-853.27,291.301L-857.484,291.314C-860.423,291.321 -863.363,291.321 -866.302,291.316C-870.048,291.31 -873.793,291.327 -877.538,291.35C-880.439,291.365 -883.339,291.366 -886.24,291.363C-887.62,291.363 -889,291.368 -890.379,291.378C-899.408,291.436 -906.908,290.942 -914.813,286.375C-920.1,280.635 -922.129,273.019 -922.12,265.337L-922.124,262.588L-922.114,259.61L-922.114,256.445C-922.113,252.999 -922.105,249.552 -922.098,246.105L-922.093,238.93C-922.09,232.639 -922.08,226.347 -922.069,220.056C-922.058,213.634 -922.054,207.213 -922.049,200.791C-922.038,188.194 -922.021,175.597 -922,163L-944,163L-944,172C-944.234,174.096 -944.524,176.187 -944.883,178.266L-945.472,181.68C-950.129,207.131 -955.816,231.852 -973,252L-975.18,254.598C-989.626,271.229 -989.626,271.229 -998,274L-998,276L-1002,277L-1002,279L-1005,279L-1005,281C-1006.83,281.915 -1008.66,282.829 -1010.49,283.738C-1012.19,284.594 -1013.89,285.467 -1015.57,286.355C-1040.35,299.23 -1040.35,299.23 -1051.75,299.063ZM-1747.3,282.851C-1747.86,283.57 -1748.42,284.287 -1749,285L-1751.31,288.063C-1756.67,293.917 -1761.86,299.182 -1770,300C-1769.57,292.899 -1767.87,287.784 -1764.75,281.438C-1753.51,257.326 -1749.44,231.29 -1746.19,205.063L-1745.87,202.496C-1745.57,200.03 -1745.27,197.564 -1744.98,195.098L-1744.72,192.944C-1743.24,179.962 -1742.76,166.958 -1742.47,153.906L-1742.41,151.278C-1741.78,124.716 -1741.65,98.146 -1741.45,71.579C-1741.4,65.962 -1741.36,60.345 -1741.31,54.728C-1741.28,51.608 -1741.26,48.487 -1741.24,45.367L-1741.19,39.643L-1741.18,37.074C-1741.12,31.651 -1740.67,26.382 -1740,21C-1731.37,22.609 -1723.37,25.606 -1715.36,29.18C-1709.84,31.5 -1704.69,32.342 -1698.75,32.603L-1696.36,32.721C-1688,33.1 -1679.64,33.127 -1671.27,33.098L-1666.44,33.093C-1662.27,33.09 -1658.1,33.08 -1653.92,33.069C-1649.64,33.058 -1645.36,33.054 -1641.07,33.049C-1632.71,33.038 -1624.36,33.021 -1616,33C-1617.41,29.977 -1618.83,26.957 -1620.25,23.938L-1621.45,21.369C-1624.92,12.52 -1624.92,12.52 -1631,6L-1631,3L-1633,3L-1633,-1C-1615.21,-1.662 -1596.35,-1.272 -1582.38,11.375C-1580.53,14.889 -1579.66,18.062 -1580,22C-1581.05,24.859 -1582.4,27.415 -1584,30L-1586,30L-1586,32L-1588,33C-1579.48,32.985 -1570.96,32.943 -1562.44,32.868C-1558.49,32.834 -1554.53,32.809 -1550.58,32.804C-1546.76,32.8 -1542.94,32.772 -1539.12,32.727C-1537.66,32.714 -1536.21,32.709 -1534.75,32.714C-1532.71,32.719 -1530.67,32.693 -1528.63,32.659L-1525.11,32.639C-1521.08,31.811 -1519.63,30.072 -1517,27L-1514.97,25.043C-1510.48,20.674 -1506.6,16.131 -1503,11C-1499.5,12.511 -1497.13,14.576 -1494.38,17.188C-1489.1,22.036 -1483.45,26.775 -1477,30L-1477,32L-1475.25,32.813C-1472.97,34.017 -1471.03,35.408 -1469,37L-1470,44C-1475.92,44.858 -1481.64,45.14 -1487.62,45.12L-1490.46,45.123C-1493.59,45.124 -1496.71,45.119 -1499.84,45.114L-1506.58,45.114C-1512.67,45.114 -1518.76,45.108 -1524.85,45.101C-1531.22,45.095 -1537.59,45.095 -1543.96,45.093C-1554.64,45.091 -1565.33,45.084 -1576.02,45.075C-1587.02,45.066 -1598.02,45.059 -1609.03,45.055L-1611.09,45.054L-1621.3,45.05C-1649.54,45.04 -1677.77,45.022 -1706,45L-1705.99,47.737C-1705.97,56.354 -1705.96,64.971 -1705.95,73.588C-1705.94,78.015 -1705.94,82.442 -1705.92,86.87C-1705.83,122.574 -1705.83,122.574 -1706.78,138.498C-1707.03,142.849 -1707.03,147.187 -1707,151.545C-1707.01,157.466 -1707.69,163.361 -1708.25,169.25L-1708.45,171.354C-1709.77,185.337 -1711.51,199.371 -1715,213L-1715.73,216.004C-1716.49,219.009 -1717.3,221.979 -1718.17,224.916L-1718,225L-1719.39,228.885C-1722.72,239.361 -1726.83,249.391 -1731.89,258.972C-1732.82,261.783 -1734.29,264.194 -1736,267L-1736.42,267C-1738.66,270.731 -1741.07,274.39 -1743.65,277.978L-1747,283L-1747.3,282.851ZM-824.994,63.886C-826.956,64.707 -828.867,65.358 -831,66C-840.681,69.007 -848.157,72.558 -856,79L-858.949,81.41C-860.806,82.935 -862.655,84.47 -864.492,86.02C-870.799,91 -870.799,91 -874,91C-875.135,87.563 -874.869,85.008 -874.258,81.465L-873.715,78.264L-873.125,74.938L-872.559,71.6C-871.16,63.479 -871.16,63.479 -870,60L-983,61L-983,69C-983.516,74.674 -985.013,79.697 -987,85L-988.188,88.25C-991.233,92.871 -995.82,95.273 -1001,97C-1007.42,97.798 -1012,97.219 -1017.31,93.434C-1021.33,90.024 -1023.6,86.841 -1024.34,81.582C-1024.63,76.572 -1024.62,72.949 -1021.31,69C-1018.45,66.141 -1015.33,63.604 -1012.21,61.036C-1000.94,51.738 -996.047,43.193 -993,29L-992.2,28.8L-992,28L-989,28C-988.346,29.851 -987.702,31.706 -987.063,33.563L-985.973,36.691C-985,40 -985,40 -984,47L-937,48C-941.78,30.195 -941.78,30.195 -948.934,13.293C-950,11 -950,11 -950,8L-952,8C-955,2.375 -955,2.375 -955,-1C-953.494,-1.059 -952.061,-1.06 -950.669,-1L-948,-1L-948.093,-0.814C-944.984,-0.496 -941.98,0.158 -938.688,1.188L-936.457,1.867C-920.917,6.734 -920.917,6.734 -916,12C-914.839,12.966 -913.672,13.924 -912.5,14.875C-907.847,18.841 -905.856,22.549 -905.017,27.926C-905.011,27.951 -905.006,27.975 -905,28L-905.006,27.999C-904.872,28.869 -904.768,29.784 -904.688,30.75C-904.743,36.702 -907.788,41.183 -911,46L-913,46L-913,48L-910.556,47.506C-906.366,46.91 -902.326,46.875 -898.102,46.902L-895.571,46.907C-892.923,46.912 -890.274,46.925 -887.625,46.938L-882.215,46.951C-877.81,46.962 -873.405,46.979 -869,47L-868.126,45.157C-866.657,42.344 -864.744,40.233 -862.625,37.875L-860.289,35.242C-858.221,33.217 -856.653,32.078 -854,31C-852.827,31.951 -851.662,32.911 -850.5,33.875L-848.531,35.492L-847,37L-847,39L-845.232,39.819C-843.002,40.999 -841.23,42.297 -839.285,43.898L-837.205,45.602L-835.063,47.375L-830.848,50.836L-828.848,52.483C-826.582,54.343 -824.295,56.176 -822,58C-822,60.313 -822,60.313 -823,63L-825,64L-824.994,63.886ZM-498,420L-519,420L-518,414L-515.563,413.625L-513,413C-511.791,410.582 -511.879,409.067 -511.886,406.367L-511.887,403.455L-511.902,400.305L-511.907,397.085C-511.912,393.681 -511.925,390.278 -511.938,386.875L-511.951,379.965C-511.962,374.31 -511.979,368.655 -512,363L-518,361L-519,356L-498,356C-491.974,369.499 -486.677,382.956 -482.237,397L-482,397L-481,401L-479.731,397.452C-478.18,393.116 -476.627,388.782 -475.073,384.447L-473.057,378.813C-472.482,377.207 -471.907,375.601 -471.332,373.995L-470,370C-469.986,370.055 -469.973,370.11 -469.959,370.164L-469.248,368.173L-468.399,365.807L-467.652,363.721C-467.449,363.185 -467.309,362.815 -467.182,362.5C-466.441,360.338 -465.723,358.168 -465,356L-443,356L-443,361L-450,361L-449.801,363.112C-448.892,373.669 -448.669,384.223 -448.438,394.813L-448.307,400.416C-448.201,404.944 -448.099,409.472 -448,414L-441,415L-441,420L-468,420C-469,417 -469,417 -468,414C-464.938,412.813 -464.938,412.813 -462,412C-461.975,406.822 -461.957,401.644 -461.945,396.467C-461.94,394.706 -461.933,392.946 -461.925,391.185C-461.912,388.651 -461.907,386.116 -461.902,383.582L-461.887,381.208C-461.886,377.369 -462.053,373.8 -462.982,370.071C-463.157,370.554 -463.328,371.037 -463.497,371.522L-463.594,371.816C-464.716,375.216 -465.854,378.609 -467,382L-467.917,384.755C-468.803,387.403 -469.699,390.048 -470.597,392.692C-470.894,394.532 -471.668,396.279 -472.47,398.264L-473.098,400.098L-473.989,402.739C-474.086,402.956 -474.184,403.165 -474.282,403.366C-477.677,413.099 -478.456,414.483 -481,419L-484,420C-485.148,419.383 -486.119,418.679 -486.954,417.902C-488.278,416.888 -488.785,416.255 -489.242,415.133C-490.947,412.465 -491.886,409.297 -493.063,405.938L-494.113,403.063C-495.09,400.38 -496.048,397.692 -497,395C-497.728,392.979 -498.457,390.958 -499.188,388.938L-500.059,386.508C-501.896,381.614 -503.959,376.812 -506,372L-505.801,374.089C-505.048,382.471 -504.695,390.839 -504.438,399.25L-504.307,403.277C-504.202,406.518 -504.1,409.759 -504,413L-498,414L-498,420ZM-393,416C-391.045,414.045 -391.001,414.001 -389.074,413.533C-388.526,413.382 -387.854,413.214 -387,413L-386,383L-392,382L-392,376C-389.751,375.495 -387.501,374.996 -385.25,374.5L-381.453,373.656C-378,373 -378,373 -374,373L-373,379L-370.563,376.563C-366.709,373.372 -362.942,372.667 -358,373C-355.418,373.752 -353.393,374.727 -351,376L-351,379C-349.72,378.561 -348.636,378.144 -347.631,377.643C-346.454,376.506 -346.296,376.405 -344.5,375.25L-342.531,373.953L-341,373C-340.959,373.123 -340.919,373.242 -340.882,373.356C-338.425,372.415 -336.014,372.508 -333,373C-328.849,374.596 -325.652,376.401 -323,380C-320.948,387.347 -320.585,394.463 -320.375,402.063L-320.258,405.553C-320.164,408.368 -320.079,411.184 -320,414L-316,416L-316,420L-338,420L-339,415L-335,414C-334.168,408.961 -333.892,404.187 -333.938,399.063L-333.951,396.99C-333.954,396.517 -333.958,396.045 -333.963,395.572C-333.974,395.049 -333.987,394.525 -334,394L-334.051,391.266C-334.259,387.628 -334.493,385.59 -337.009,382.994C-337.175,382.882 -337.355,382.79 -337.567,382.707C-340.976,381.795 -342.743,382.371 -346,384C-347.721,389.162 -347.269,394.596 -347.313,400L-347.4,403.641L-347.426,407.125L-347.47,410.32C-347.254,413.145 -347.254,413.145 -344.973,414.867L-343,416L-344,420L-364,420L-365,416L-362.527,415.207C-359.811,413.292 -359.811,413.292 -359.555,410.693C-359.433,407.678 -359.468,404.703 -359.563,401.688L-359.58,398.557C-359.664,393.348 -359.917,388.86 -362,384C-366.497,382.954 -368.819,383.134 -373,385C-373.124,388.932 -373.214,392.864 -373.275,396.798C-373.312,398.794 -373.376,400.788 -373.439,402.783L-373.488,406.582L-373.568,410.089C-373.312,413.223 -373.312,413.223 -370.469,414.714L-368,416L-368,419C-370.997,419.87 -373.65,420.118 -376.766,420.098L-379.461,420.088L-382.25,420.063L-385.086,420.049C-387.391,420.037 -389.695,420.021 -392,420C-392.625,418.125 -392.625,418.125 -393,416ZM-833,384L-833,414L-828,415L-827,417L-828,419L-852,420L-852,415L-846,414C-846.019,409.639 -846.071,405.28 -846.153,400.92C-846.176,399.437 -846.19,397.954 -846.196,396.471C-846.205,394.338 -846.246,392.207 -846.293,390.074L-846.341,386.186C-846.652,382.802 -846.652,382.802 -849.544,381.308L-852,380L-852,376C-849.941,375.466 -847.877,374.949 -845.813,374.438L-842.332,373.559C-839.115,373.019 -837.103,373.118 -834,374L-833,379L-831.855,377.652C-829.845,375.586 -828.244,374.098 -825.934,373.266L-826,373L-825.088,373C-824.537,372.85 -823.943,372.733 -823.297,372.648C-816.942,373.013 -813.37,374.394 -809,379L-807.531,377.688C-801.368,372.568 -801.368,372.568 -796.875,372.438C-791.625,373.2 -788.462,374.497 -784.75,378.313C-781.552,383.224 -780.749,387.691 -780.805,393.492L-780.824,397.125L-780.875,400.875L-780.902,404.695C-780.926,407.797 -780.959,410.898 -781,414L-777,414L-776,420L-798,419L-798,415L-793,414L-793.469,410.645C-794.203,404.776 -794.375,398.888 -794.605,392.982L-794.719,390.387L-794.811,388.05C-794.94,385.801 -794.94,385.801 -796,383C-801.578,382.875 -801.578,382.875 -807,384C-808.04,387.411 -808.115,390.523 -808.098,394.078L-808.088,397.594L-808.063,401.25L-808.049,404.953C-808.037,407.969 -808.021,410.984 -808,414L-803,415L-803,420L-823,420L-823,415L-821,414C-820.876,409.925 -820.786,405.851 -820.725,401.775C-820.7,400.388 -820.666,399.002 -820.623,397.616C-820.562,395.624 -820.536,393.63 -820.512,391.637L-820.432,388.003C-820.726,384.877 -820.726,384.877 -823.093,382.96C-825.85,381.816 -826.477,381.556 -829.543,382.659C-830.012,383.103 -830.497,383.547 -831,384L-833,384ZM-1483.06,419.403C-1491.31,423.097 -1502.69,421.418 -1511.14,419.633C-1513,419 -1513,419 -1515,417C-1515.17,414.129 -1515.23,411.367 -1515.19,408.5L-1515.19,406.121C-1515.14,400.281 -1515.14,400.281 -1514,398C-1512.18,398.133 -1512.18,398.133 -1510,399C-1508.32,401.95 -1507.08,404.99 -1505.76,408.117C-1503.6,411.651 -1501.84,412.569 -1498,414C-1497.96,414.007 -1497.92,414.014 -1497.88,414.022L-1497.17,414.035L-1494.75,414.063L-1492.36,414.098C-1491.66,414.069 -1490.99,414.013 -1490.34,413.931C-1489.26,413.729 -1488.17,413.455 -1487.06,413.125C-1484.19,410.169 -1484.06,407.566 -1483.56,403.57C-1484.23,399.683 -1485.94,398.442 -1489,396C-1491.92,394.418 -1494.93,393.136 -1498,391.875C-1511.27,386.298 -1511.27,386.298 -1513.28,382.738C-1514.9,376.56 -1515.43,369.381 -1512.9,363.414C-1507.6,355.812 -1500.81,354.514 -1492.06,354.75L-1489.76,354.766C-1487.5,354.796 -1485.26,354.883 -1483,355L-1480.72,355.1C-1478.56,355.266 -1478.56,355.266 -1475,356C-1474.76,356.282 -1474.55,356.563 -1474.36,356.846L-1474,357C-1473.88,357.37 -1473.77,357.725 -1473.67,358.068C-1472.71,360.163 -1472.77,362.371 -1472.81,365L-1472.83,367.563C-1472.93,368.922 -1473.1,370.179 -1473.36,371.438C-1473.53,372.28 -1473.75,373.123 -1474,374L-1478,373L-1478,370L-1480,370L-1480,366L-1482,365L-1486,361C-1489.06,359.472 -1491.63,359.768 -1495,360C-1497.29,361.4 -1497.29,361.4 -1499,363L-1501,363L-1502.27,368.762C-1501.83,372.404 -1499.76,373.729 -1497,376C-1493.8,377.617 -1493.8,377.617 -1490.31,378.875C-1483.65,381.539 -1476.02,384.72 -1471.75,390.773C-1470.7,393.897 -1470.74,396.711 -1470.75,400L-1470.73,403.688C-1470.98,406.753 -1471.38,408.437 -1473,411L-1475,411L-1475,414C-1476.83,415.57 -1476.83,415.57 -1479.25,417.125L-1481.64,418.695C-1482.12,418.959 -1482.59,419.194 -1483.06,419.403ZM-1418,375L-1415.23,374.598L-1411.62,374.063L-1408.04,373.535C-1404.96,372.993 -1403.14,372 -1400,372L-1400.06,374.938C-1400.36,377.875 -1400.36,377.875 -1399,379L-1397.31,377.125C-1394.17,374.237 -1391.59,372.982 -1387.28,373.031C-1378.84,374.454 -1378.84,374.454 -1375.88,377.625C-1371.97,384.65 -1372.73,393.624 -1372.44,401.5L-1372.31,404.859C-1372.2,407.573 -1372.1,410.286 -1372,413L-1368,415L-1368,420L-1389,420L-1389,414C-1387.13,413.377 -1387.12,413.375 -1385.02,413.003C-1385.08,409.099 -1385.16,405.196 -1385.26,401.292C-1385.3,399.851 -1385.32,398.41 -1385.35,396.968C-1385.38,394.898 -1385.43,392.828 -1385.49,390.758L-1385.57,386.981L-1386,384C-1389.47,381.687 -1390.92,381.66 -1395,382C-1398.1,383.595 -1398.1,383.595 -1398.5,385.817L-1398.66,388.008L-1398.86,390.446L-1399,393L-1399,407L-1399.5,406.833C-1399.5,408.582 -1399.41,410.225 -1399,412C-1396.56,413.792 -1396.56,413.792 -1394,415L-1394,420L-1418,420L-1418,415L-1412,414L-1413,382L-1418,381L-1418,375ZM-738,413C-737.876,408.783 -737.786,404.566 -737.725,400.347C-737.7,398.913 -737.666,397.478 -737.623,396.044C-737.562,393.981 -737.534,391.919 -737.512,389.855L-737.432,386.094L-738,383C-740.455,381.23 -740.455,381.23 -743,380L-743,377C-740.731,376.328 -738.46,375.663 -736.188,375L-732.355,373.875C-730.672,373.436 -729.833,373.217 -729.036,373.108L-729,373L-726,373C-725.543,373.913 -725.273,374.78 -725.119,375.643L-724,379L-722.75,377.688C-719.476,374.531 -717.667,373.106 -713.063,372.375C-708.461,372.796 -704.614,374.092 -701,377C-696.827,384.054 -697.655,392.691 -697.813,400.563L-697.854,404.486C-697.889,407.658 -697.938,410.829 -698,414L-693,415L-693,419L-715,420C-714.604,417.792 -714.387,416.584 -714.164,415.819L-714,415L-713.813,414.953C-713.616,414.616 -713.368,414.368 -713,414L-712.769,414.692L-710,414C-710.081,409.416 -710.194,404.833 -710.313,400.25L-710.381,396.305L-710.488,392.516L-710.568,389.024C-711.031,385.781 -711.808,384.379 -714,382C-718.598,382.317 -718.598,382.317 -722.712,384.156C-724.594,386.85 -724.339,388.94 -724.293,392.199L-724.264,395.861L-724.188,399.688L-724.146,403.549C-724.111,406.7 -724.062,409.85 -724,413L-720,414L-719,420L-743,420L-743,415L-738,413ZM-892,420.698C-893.124,420.509 -894.264,420.218 -895.438,419.813C-899.342,417.051 -901.09,414.654 -902,410C-902.147,407.831 -902.247,405.658 -902.316,403.484L-902.443,399.695L-902.563,395.75L-902.693,391.758C-902.799,388.505 -902.901,385.253 -903,382L-908,380L-908,375C-905.375,374.665 -902.75,374.332 -900.125,374L-897.863,373.711C-892.227,373 -892.227,373 -890,373L-889.94,376.073C-889.864,379.836 -889.775,383.599 -889.683,387.362C-889.644,388.99 -889.609,390.619 -889.578,392.247C-889.532,394.588 -889.474,396.929 -889.414,399.27L-889.379,401.476C-889.271,405.17 -889.101,406.848 -887,410C-883.859,410.237 -881.201,410.053 -878.339,409.605C-878.233,409.418 -878.121,409.217 -878,409L-875,409L-875,381L-880,381L-881,375L-863,373L-862,413L-856,413C-855.957,414.666 -855.959,416.334 -856,418C-858.119,420.119 -862.62,419.418 -865.563,419.563L-868.006,419.693C-870.004,419.8 -872.002,419.9 -874,420L-874,413L-876,413L-876.75,414.813C-878.223,417.391 -879.486,418.429 -882,420C-884.919,420.761 -887.595,421.12 -890.305,420.906L-892,421L-892,420.698ZM-606.248,415.202L-608.375,416.938C-612.265,419.994 -614.389,420.207 -619.313,420.313L-622.738,420.426C-626.713,419.907 -628.239,418.869 -631,416C-633.04,411.959 -633.299,408.442 -633.414,403.949L-633.473,401.953C-633.532,399.865 -633.579,397.776 -633.625,395.688L-633.742,391.42C-633.838,387.947 -633.922,384.474 -634,381L-639,380L-639,375C-636.563,374.664 -634.125,374.331 -631.688,374L-629.596,373.711C-626.704,373.32 -623.922,373 -621,373L-621.032,375.858C-621.066,379.371 -621.091,382.884 -621.11,386.397C-621.12,387.915 -621.134,389.433 -621.151,390.951C-621.175,393.138 -621.187,395.325 -621.195,397.512L-621.227,401.495C-621.01,404.841 -620.58,407.062 -619,410C-614.385,411.978 -612.19,410.483 -607,409L-606,381L-607.053,380.789L-607,381L-611,380L-611,375C-608.04,374.323 -605.309,373.992 -602.352,373.983L-594,373L-593,413L-588,414L-588,418C-590.059,420.059 -594.217,419.414 -597.063,419.563L-599.361,419.693C-601.241,419.8 -603.12,419.9 -605,420L-605.905,415.476L-606.248,415.202ZM-1255.97,415L-1257.38,416.438C-1260.9,419.88 -1262.5,420.172 -1267.31,420.25C-1274.76,420.143 -1274.76,420.143 -1278,417C-1282.02,410.222 -1281.34,403.248 -1281.19,395.563L-1281.15,391.611C-1281.11,388.407 -1281.06,385.204 -1281,382L-1286,381L-1286,375L-1283.23,374.598L-1279.62,374.063L-1276.04,373.535C-1273.47,373.083 -1271.54,372 -1269,372L-1268.92,375.149C-1268.83,379.011 -1268.73,382.872 -1268.63,386.734C-1268.58,388.404 -1268.54,390.074 -1268.5,391.745C-1268.44,394.148 -1268.38,396.55 -1268.32,398.953L-1268.27,401.211C-1268.17,404.595 -1268.04,407.76 -1267,411C-1265.38,410.859 -1263.75,410.712 -1262.12,410.563L-1261.07,410.468C-1259.67,410.121 -1258.25,409.85 -1256.81,409.563L-1255,409L-1254,381L-1259,381L-1260,375C-1255.47,374.216 -1253.7,373.91 -1252.2,374.082L-1243,373C-1241.83,376.498 -1241.9,379.209 -1241.94,382.898L-1241.95,384.935C-1241.96,387.804 -1241.99,390.674 -1242.02,393.543C-1242.04,395.641 -1242.05,397.738 -1242.06,399.836L-1242.1,403.634C-1242.01,406.603 -1241.87,409.164 -1241,412C-1238.52,413.375 -1238.52,413.375 -1236,414L-1236,418C-1241.84,419.698 -1246.93,420.253 -1253,420L-1254.67,415L-1255.97,415ZM-964,417C-962.813,415.5 -962.813,415.5 -961,414L-959.659,414C-958.654,413.834 -957.493,413.879 -956,414L-957,362L-963,360L-963,356L-950.688,355.5L-947.15,355.355L-943.762,355.219L-940.635,355.092C-938.758,355.026 -936.879,355 -935,355L-934,360L-942,361L-942,414C-923.431,414.275 -923.431,414.275 -918,408C-916.722,404.365 -916.722,404.365 -916,401L-912,400C-910.499,406.606 -911.693,412.42 -913,419C-918.547,419.931 -923.927,420.175 -929.547,420.203L-932.253,420.22C-934.129,420.23 -936.005,420.236 -937.88,420.24C-940.755,420.25 -943.629,420.281 -946.504,420.313C-948.331,420.319 -950.158,420.324 -951.984,420.328L-954.589,420.366L-957.007,420.356L-959.13,420.367C-959.689,420.258 -960.167,420.116 -960.591,419.941C-960.718,419.96 -960.854,419.979 -961,420C-962.75,418.563 -962.75,418.563 -964,417ZM-994,420L-1017,420L-1019,416L-1014,414L-1014,381L-1018,380L-1019,375L-1014,374L-1013.96,371.656C-1013.63,364.581 -1012.83,359.369 -1008,354C-1001.52,348.738 -992.241,346.8 -984.723,351.391C-983,353 -983,353 -982.5,355.5C-983,358 -983,358 -984.625,359.813C-987.736,361.368 -989.564,361.573 -993,361C-995.375,358.5 -995.375,358.5 -997,356C-998.618,357.026 -998.618,357.026 -1000,359C-1000.38,361.629 -1000.6,364.051 -1000.69,366.688L-1000.79,368.814C-1000.87,370.542 -1000.94,372.271 -1001,374L-990,374C-989,378 -989,378 -990,380L-1001,380L-1000,413L-995.634,414.247C-994.73,414.423 -994.354,414.549 -993,415L-994,420ZM-1118.05,426.918C-1119.31,429.829 -1120.92,432.593 -1123,435L-1125,435L-1125,437C-1133.88,440.828 -1133.88,440.828 -1139,439C-1140.8,437.039 -1140.99,435.655 -1141.03,433.027C-1140.88,430.875 -1140.88,430.875 -1140,427C-1137.94,425.5 -1137.94,425.5 -1136,425L-1131,431C-1126.63,427.078 -1126.63,427.078 -1124,422C-1124.44,416.681 -1125.94,412.342 -1128.19,407.563C-1130.16,403.26 -1132.06,398.978 -1133.62,394.508L-1134.39,392.314C-1134.87,390.928 -1135.33,389.537 -1135.78,388.141C-1137.33,383.679 -1138.89,382.169 -1143,380C-1143.81,376.813 -1143.81,376.813 -1144,374C-1141.28,373.523 -1138.73,373.276 -1136.15,373.212C-1134.38,373.06 -1132.63,373.168 -1130.76,373.319C-1130.2,373.352 -1129.63,373.392 -1129.06,373.438L-1126.99,373.596C-1125.33,373.724 -1123.66,373.861 -1122,374L-1123,380L-1126,380L-1117,405L-1115.01,399.797C-1114.16,395.085 -1112.73,390.097 -1110.44,386.753C-1109.73,383.94 -1109.26,381.102 -1109,378L-1113,377L-1113,374L-1097,374C-1098.03,379.142 -1098.88,380.143 -1102,384C-1103.04,386.246 -1103.99,388.535 -1104.88,390.848L-1105.64,392.825C-1106.16,394.203 -1106.69,395.582 -1107.21,396.963C-1107.65,398.143 -1108.1,399.322 -1108.55,400.5C-1108.88,401.436 -1109.22,402.371 -1109.56,403.313L-1110.27,405.268C-1110.84,406.846 -1111.42,408.423 -1112,410L-1112.1,409.899C-1113.18,412.856 -1114.23,415.822 -1115.24,418.807C-1115.3,419.157 -1115.41,419.582 -1115.56,420.164L-1116.44,422.625L-1117.02,424.277C-1117.04,424.342 -1117.06,424.407 -1117.08,424.471C-1117.13,424.611 -1117.18,424.75 -1117.23,424.889L-1117.31,425.102L-1118,427C-1118.02,426.972 -1118.04,426.945 -1118.05,426.918ZM-1069,404C-1069.9,396.471 -1069.81,389.663 -1066,383L-1064,383L-1064,380C-1055.72,371.547 -1046.01,370.299 -1035.69,375.75C-1030.46,380.127 -1027.4,383.622 -1026.22,390.375C-1025.55,398.265 -1025.74,405.793 -1030.54,412.352C-1032.3,414.341 -1034.09,416.14 -1036.06,417.596C-1036.55,418.319 -1037.28,418.733 -1038.94,419.688C-1040.09,420.149 -1041.25,420.479 -1042.4,420.709C-1043.32,420.949 -1044.28,421.122 -1045.29,421.219C-1046.77,421.272 -1048.13,421.259 -1049.43,421.164C-1050.61,421.131 -1051.79,421.066 -1053,421L-1053,420.653C-1055.29,420.149 -1057.51,419.299 -1060,418L-1060,416L-1061.83,415.266C-1066.04,412.809 -1067.55,408.498 -1069,404ZM-1042.18,414C-1037.49,407.913 -1037.58,401.557 -1037.71,393.855C-1038.09,388.766 -1039.27,384.341 -1042,380C-1044.82,377.856 -1044.82,377.856 -1047.88,377.375C-1051.01,377.675 -1051.01,377.675 -1052.46,379.648C-1057.45,387.428 -1058.04,394.987 -1056.47,404.059C-1055.3,409.458 -1055.3,409.458 -1052.11,413.777C-1051.48,414.14 -1050.9,414.431 -1050.33,414.659L-1050,414L-1042.18,414ZM-153.956,413.762C-155.444,415.778 -157.583,417.233 -160,419C-164.608,421.74 -169.793,421.612 -175,421C-181.28,419.35 -184.531,415.755 -187.813,410.297C-191.38,403.396 -192.095,396.424 -190,389L-189,386L-187,386L-186.773,383.734C-185.797,380.282 -184.49,379.345 -181.625,377.25L-179.227,375.453C-173.687,371.838 -166.792,372.052 -160.688,374.125C-155.519,377.731 -152.411,381.845 -151,388C-150.875,391.375 -150.875,391.375 -151,394C-153.714,395.357 -155.848,395.112 -158.883,395.098L-162.418,395.088L-166.125,395.063L-169.855,395.049C-172.904,395.037 -175.952,395.021 -179,395C-178.407,396.774 -177.8,398.544 -177.188,400.313L-176.168,403.301C-175.041,405.905 -174.207,407.267 -172,409C-169.451,409.869 -169.451,409.869 -166.625,410.313L-163.789,410.863C-160.62,411.019 -158.877,410.251 -156,409L-152,409C-152.26,411.424 -152.699,412.466 -153.956,413.762ZM-173,378L-173,380L-176,381C-178.067,384.045 -178.077,386.4 -178,390C-175.521,390.027 -173.042,390.047 -170.563,390.063L-168.42,390.088C-166.613,390.097 -164.806,390.052 -163,390L-162,389C-162.271,383.772 -162.271,383.772 -164.125,379C-167.042,377.444 -169.766,377.817 -173,378ZM-568.932,420.536C-570.82,420.23 -572.712,419.822 -574.641,419.34C-577.331,418.952 -579.365,419.423 -582,420L-583,419C-582.935,417.226 -582.798,415.454 -582.625,413.688L-582.352,410.762C-582.054,408.427 -581.634,406.262 -581,404C-578.645,404.223 -578.645,404.223 -576,405C-574.699,406.996 -574.699,406.996 -573.688,409.438C-571.996,412.856 -571.996,412.856 -569.047,415.109C-566.798,415.726 -564.785,415.987 -562.627,415.803C-561.586,415.256 -560.535,414.729 -559.473,414.224C-558.249,412.414 -558.218,410.507 -558,408C-562.564,404.04 -567.316,401.979 -572.844,399.66C-576.339,397.821 -578.528,396.08 -581,393C-582.125,388.136 -581.768,383.505 -579.5,379.063C-577.683,377.564 -575.855,376.378 -574,375.46L-574,375C-573.006,374.518 -572.057,374.142 -571.127,373.851L-569,373L-568.899,373.303C-567.738,373.093 -566.57,372.992 -565.338,372.959C-560.855,372.466 -556.13,372.996 -551,374C-549.262,375.738 -549.828,378.079 -549.813,380.438L-549.77,383.434C-550,386 -550,386 -552,388C-553.938,388.063 -553.938,388.063 -556,387L-559,380L-560.625,379.5C-563.459,378.903 -566.112,378.934 -569,379C-569.685,381.858 -569.685,381.858 -570,385C-567.082,389.377 -562.67,390.425 -557.941,392.307C-553.872,393.989 -550.805,395.455 -548,399C-546.644,403.068 -546.469,406.747 -547,411C-549.654,416.118 -552.531,419.177 -558,421C-560.039,421.179 -562.018,421.199 -563.971,421.088L-564.641,421.098C-566.167,421.034 -567.537,420.845 -568.932,420.536ZM-1337.4,372.575C-1334.03,372.886 -1330.54,373.789 -1326.94,375.188C-1325,377 -1325,377 -1323.75,380.25C-1324.08,385.146 -1325.88,386.555 -1329.43,389.715L-1331,391L-1334,390C-1334.69,387.969 -1334.69,387.969 -1335.12,385.5C-1335.48,382.461 -1335.48,382.461 -1337,380C-1338.52,379.928 -1340.04,379.916 -1341.56,379.938L-1344.07,379.965L-1346,380C-1349.46,388.151 -1349.96,395.936 -1348.31,404.625C-1346.59,407.736 -1345.37,407.973 -1342,409C-1338.78,409.278 -1338.78,409.278 -1335.44,409.188L-1332.06,409.168C-1329.52,409.029 -1327.41,408.737 -1325,408C-1325.19,412.182 -1325.71,413.703 -1328.69,416.75C-1334.31,420.893 -1340.17,421.763 -1347,421C-1352.22,419.346 -1355.53,417.243 -1359,413C-1363.17,404.651 -1363.84,397.4 -1361.84,389.079L-1362,389L-1361.01,386.036C-1360.9,385.662 -1360.78,385.285 -1360.66,384.906L-1360,383L-1358,383L-1358,380C-1352.56,374.946 -1346.83,372.639 -1340.73,372.466C-1339.51,372.075 -1338.64,372.216 -1337.4,372.575ZM-1322,379L-1322,374L-1313,373L-1313,371L-1312.9,371.295L-1312.81,369.75C-1312,366 -1312,366 -1309.62,363.625C-1304.9,360.7 -1304.9,360.7 -1301,362L-1301,374L-1292,374L-1292,381L-1301,381L-1301,404L-1301.11,404L-1301.11,404.273C-1301.12,407.095 -1301.12,407.095 -1300,410L-1291,410C-1290.25,412.188 -1290.25,412.188 -1290,415C-1290.74,416.158 -1291.35,417.085 -1292,417.854L-1292,418C-1292.12,418.085 -1292.24,418.167 -1292.35,418.247C-1293.47,419.46 -1294.77,420.258 -1297,421C-1302.59,421.366 -1306.21,421.232 -1311,418C-1314.12,413.929 -1314.47,410.265 -1314.51,405.293L-1314.57,403.095C-1314.62,400.792 -1314.65,398.49 -1314.69,396.188C-1314.72,394.62 -1314.76,393.053 -1314.79,391.486C-1314.88,387.658 -1314.94,383.829 -1315,380L-1322,379ZM-1185,420C-1184.82,419.233 -1184.64,418.509 -1184.44,417.804C-1183.95,415.894 -1183.77,415.541 -1183,414L-1179,413L-1179,383L-1183,382L-1183,376C-1180.92,375.495 -1178.83,374.996 -1176.75,374.5L-1173.23,373.656C-1170,373 -1170,373 -1166,373L-1165.09,378.471C-1164.47,378.001 -1163.97,377.672 -1163.25,377.251L-1162.56,376.563C-1160.97,375.214 -1159.38,374.392 -1157.71,373.883C-1157.49,373.785 -1157.26,373.696 -1157.05,373.615L-1156,373C-1156,373.097 -1156,373.191 -1156,373.282C-1154.11,372.777 -1152.34,372.837 -1150,373L-1148,377L-1146,377C-1145.5,382.274 -1146.67,384.91 -1150,389L-1153,390L-1154.69,387.063C-1156.67,383.857 -1156.67,383.857 -1159.56,383.063C-1161.82,382.883 -1162.1,382.861 -1164.06,383.625L-1164.25,384.063L-1165,385.704L-1165,413L-1160,414L-1160,419L-1185,420ZM-262,416C-259,414 -259,414 -256,414C-255.999,414.001 -255.999,414.001 -255.998,414.002C-255.695,414 -255.364,414 -255,414L-256,383L-261,381L-261,376C-258.709,375.498 -256.417,374.998 -254.125,374.5L-250.258,373.656C-247,373 -247,373 -245,373L-243,380L-240.688,377C-238.461,374.714 -237.356,374.05 -234.152,373.602C-231.413,373.623 -228.726,373.738 -226,374L-226,376L-224,376C-223.508,383.385 -223.508,383.385 -226,386.5L-228,388C-231.653,386.75 -232.781,386.329 -235,383C-238.653,384.25 -239.781,384.671 -242,388C-242.835,391.29 -243.164,394.479 -243.316,397.863L-243.443,400.549L-243.563,403.313L-243.693,406.135C-243.799,408.423 -243.901,410.711 -244,413L-237,414L-236,419L-255.079,419.763C-256.971,420.217 -258.799,420.048 -261,420L-262,416ZM-772,415L-766,413L-765,383L-770,381L-770,375L-767.699,374.598L-764.688,374.063C-764.688,374.063 -753.956,372 -753,372L-753,414L-747,415L-747,420L-772,420L-772,415ZM-266.132,401.044C-266.263,401.739 -266.43,402.432 -266.637,403.121C-267.382,405.102 -268.181,407.049 -269,409L-270,412C-271.891,413.754 -271.891,413.754 -274.25,415.563L-276.578,417.379C-282.515,421.353 -288.015,421.765 -295,421C-300.891,419.406 -304.432,416.049 -307.813,411.07C-311.43,404.763 -312.054,397.656 -310.465,390.637C-309.75,388.311 -308.953,386.217 -307.987,384.316C-306.868,381.66 -305.413,379.212 -303.211,377.425C-302.142,376.43 -300.918,375.523 -299.5,374.688C-299.102,374.502 -298.697,374.328 -298.287,374.167C-298.192,374.111 -298.097,374.055 -298,374C-297.485,373.828 -296.958,373.671 -296.421,373.528C-293.899,372.787 -291.226,372.469 -288.56,372.524C-285.256,372.527 -281.956,373.057 -279.063,374.188C-275.794,376.122 -273.451,378.103 -271,381L-271,383L-269,384C-266.639,388.999 -265.208,394.601 -265.975,400.087C-265.985,400.388 -265.994,400.692 -266,401L-266.132,401.044ZM-294.144,379.276C-294.746,380.432 -295.343,381.59 -295.938,382.75L-297.027,384.859C-300.582,392.683 -299.136,400.501 -296.949,408.52C-295.952,411.124 -294.85,412.92 -293,415C-289.914,416.218 -288.504,416.18 -285.375,415.063C-280.964,411.231 -280.19,407.081 -279.68,401.492C-279.444,393.717 -279.873,386.778 -284,380C-284.316,379.842 -284.613,379.707 -284.898,379.591L-285,380L-287.738,379.781L-291.313,379.5L-294.144,379.276ZM-129.038,420.924C-133.695,420.876 -138.329,420.412 -143,420L-143,404C-139,405 -139,405 -137.402,407.031L-135.938,409.5C-133.836,413.258 -133.836,413.258 -130,415C-127.782,415.232 -127.782,415.232 -125.438,415.25L-123.059,415.328L-121,415C-118.801,412.332 -118.801,412.332 -119.063,410.063C-120.755,406.339 -123.569,404.576 -127.309,403.07L-129.875,402.125C-134.715,400.258 -138.816,398.21 -142,394C-143.69,389.701 -143.192,386.605 -141.813,382.25C-136.592,372.89 -130.091,371.99 -120,373C-116.677,374.104 -113.524,375.476 -111,378C-110.727,383.736 -110.727,383.736 -111,386L-113,388C-114.984,387.879 -114.984,387.879 -117,387C-118.266,385.152 -118.266,385.152 -119.25,382.938L-120.266,380.715L-121,379L-129,379C-130.405,381.232 -130.991,382.733 -131.078,385.387C-129.584,389.008 -127.545,389.59 -124.064,391.137L-121.688,392.125C-112.467,396.109 -110.35,397.023 -109.16,398.902C-109.108,398.934 -109.055,398.966 -109,399C-108.929,399.184 -108.861,399.369 -108.796,399.555C-108.596,399.959 -108.404,400.413 -108.18,400.945C-108.075,401.694 -107.997,402.396 -107.951,403.063C-107.651,405.378 -107.879,407.722 -108.84,409.926C-109.088,410.296 -109.28,410.582 -109.452,410.832C-109.783,411.485 -110.172,412.161 -110.625,412.875C-113.306,416.389 -115.584,418.484 -118.924,419.697L-119,420L-120.295,420.129C-121.248,420.389 -122.287,420.592 -123.438,420.75C-125.055,420.875 -126.666,420.928 -128.275,420.927L-129,421L-129.038,420.924ZM-66.921,355.04C-62.28,348.602 -56.409,343.13 -49,339C-29.076,330.049 -9.311,330.415 9,343L11.148,344.438C22.593,352.505 29.525,364.015 32.531,377.668C34.675,392.904 32.559,406.495 25,420L23,420L22.5,422.063C20.255,426.459 16.839,428.98 13,432L10.707,433.828C-2.894,444.034 -18.695,446.845 -35.324,444.539C-49.831,441.315 -61.644,432.422 -70.465,420.598C-78.222,407.471 -80.55,390.099 -76.938,375.25C-74.71,368.504 -71.793,362.204 -67.999,356.584C-67.69,356.064 -67.359,355.538 -67,355L-66.921,355.04ZM-7.362,354.619C-10.548,353.849 -13.645,353.935 -17,354C-22.371,364.01 -27.645,374.028 -32.311,384.39C-33.756,387.557 -35.25,390.484 -37.227,393.355C-37.581,393.788 -37.871,394.142 -38.108,394.446L-37,395L-39,398L-26,398L-25,401L-26.304,400.826L-27,405L-26,407L-28,408C-29.064,410.171 -29.064,410.171 -30,412.75L-30.479,414L-30,414C-30.449,415.482 -30.91,416.961 -31.375,418.438L-32.148,420.934C-32.819,422.561 -32.962,422.907 -33.969,423.469C-33.871,424.064 -33.553,424.772 -33,426L-31.574,423.918L-29.688,421.188L-27.824,418.48C-26.313,416.426 -24.809,414.774 -23,413C-21.712,411.236 -20.498,409.435 -19.281,407.621C-18,406 -18,406 -15,404L-15,401L-12,400L-12,397L-10,397L-9.1,394.3L-10,394L-8.5,393.5L-6.369,391.369C-5.799,389.87 -5.651,389.341 -5,387L-4,386L-3.613,386.775C-2.574,385.416 -1.363,384.272 0,383C-3.213,381.393 -6.63,382.175 -10.125,382.438L-12.41,382.596C-14.274,382.725 -16.137,382.862 -18,383C-16.732,378.595 -15.173,374.396 -13.414,370.293L-14,370L-12.469,366.535L-10.5,362.063L-9.488,359.775C-8.085,357.103 -7.827,356.611 -7.362,354.619ZM-656.281,419.32C-660.493,421.566 -665.11,421.435 -670,421C-675.998,419.716 -680.37,416.953 -684,412C-688.27,404.943 -688.149,395.986 -686.344,388.152C-683.965,381.355 -680.184,377.613 -674.18,373.863C-668.501,371.614 -661.139,372.236 -655.5,374.25L-653,376L-650.313,377.813C-644.56,383.254 -643.989,389.85 -643.75,397.375C-643.831,403.98 -645.027,408.715 -649.375,413.75L-652,416L-654.563,418.25C-654.708,418.354 -654.854,418.455 -655,418.553L-655,419L-656.281,419.32ZM-672,381C-676.138,389.868 -675.966,398.632 -672.91,407.758C-671.681,410.787 -670.495,412.861 -668,415C-664.819,415.382 -662.875,415.437 -660,414L-660,411L-658,410C-656.956,406.867 -657.066,406.01 -658,403L-656,402C-656.12,390.542 -656.12,390.542 -660,380C-664.634,376.91 -667.927,377.45 -672,381ZM-411.808,420.939C-413.867,421.32 -416.06,421.433 -418.512,421.34C-424.617,420.506 -428.575,417.917 -432.375,413.125C-437.106,406.105 -438.002,399.365 -437,391C-434.712,383.499 -430.281,378.534 -424,374C-419.193,371.597 -411.796,372.202 -406.727,373.648C-402.309,375.905 -399.622,379.403 -398,384C-397.636,385.935 -397.383,387.853 -397.212,389.788L-397,390C-397.046,390.38 -397.084,390.69 -397.119,390.954C-397.07,391.633 -397.031,392.314 -397,393C-397.286,393.191 -397.558,393.366 -397.817,393.527C-397.873,393.671 -397.933,393.828 -398,394C-398.894,394.447 -399.772,394.721 -400.652,394.883C-402.007,395.295 -403.371,395.345 -405.543,395.414L-408.795,395.531L-412.188,395.625L-415.615,395.742C-418.41,395.837 -421.205,395.922 -424,396C-423.702,397.449 -423.397,398.897 -423.09,400.344L-422.578,402.787C-421.886,405.438 -420.98,407.1 -419,409C-412.339,411.22 -405.517,410.267 -399,408C-399.302,411.319 -399.616,413.483 -401.625,416.188C-404.544,418.415 -407.281,419.815 -410.241,420.59C-410.795,420.783 -411.274,420.885 -411.808,420.939ZM-409.591,381.337C-410.141,380.442 -410.91,379.432 -412,378C-416.379,377.531 -418.296,377.531 -422,380C-423.013,382.41 -423.013,382.41 -423.688,385.125L-425,390L-408,390C-408.085,387.968 -408.147,386.514 -408.276,385.362L-409,385C-409.273,383.78 -409.452,382.562 -409.591,381.337ZM-209.318,352.227C-208.792,352.283 -208.116,352.441 -207.063,352.688C-203.76,354.103 -202.592,354.816 -201,358C-200.615,361.141 -200.434,363.088 -202.125,365.813C-204.839,367.531 -206.786,367.936 -210,368C-213.452,366.082 -214.716,364.785 -216.063,361.063C-216.004,358.202 -215.347,356.704 -213.947,355.053L-214,355C-213.854,354.874 -213.72,354.759 -213.595,354.651C-213.134,354.14 -212.604,353.604 -212,353C-211.339,352.669 -210.896,352.448 -210.494,352.325C-210.343,352.225 -210.179,352.117 -210,352L-209.318,352.227ZM-1643.58,344.823L-1639.64,344.784L-1635.38,344.762L-1633.21,344.749C-1629.42,344.729 -1625.62,344.714 -1621.83,344.705C-1617.92,344.694 -1614.01,344.659 -1610.1,344.62C-1607.09,344.593 -1604.07,344.585 -1601.06,344.582C-1599.62,344.577 -1598.18,344.565 -1596.74,344.547C-1594.72,344.522 -1592.7,344.526 -1590.68,344.53L-1587.2,344.512C-1583.26,345.113 -1581.1,346.534 -1578,349C-1575.06,353.447 -1574.6,357.097 -1574.49,362.367L-1574.43,364.427C-1574.38,366.576 -1574.35,368.725 -1574.31,370.875C-1574.28,372.341 -1574.25,373.807 -1574.21,375.273C-1574.12,378.849 -1574.06,382.424 -1574,386L-1571.94,386.796L-1569.22,387.859L-1566.53,388.905C-1562.82,390.511 -1560.74,391.985 -1558,395C-1556.17,400.813 -1555.7,406.142 -1555.66,412.207L-1555.61,414.774C-1555.55,418.366 -1555.51,421.958 -1555.47,425.551C-1555.43,428.186 -1555.39,430.822 -1555.34,433.457L-1555.33,435.919C-1555.26,439.785 -1555.19,441.711 -1553,445C-1552.66,449.661 -1552.87,451.742 -1555,456L-1629,456C-1633.5,447 -1633.5,447 -1632.25,441L-1631.58,437.562L-1631,435L-1632.85,435.048C-1635.63,435.11 -1638.41,435.149 -1641.19,435.187L-1644.1,435.264C-1653.13,435.357 -1653.13,435.357 -1657,432C-1660.87,427.994 -1661.5,425.445 -1661.5,419.918L-1661.52,417.817C-1661.53,415.535 -1661.51,413.255 -1661.5,410.973C-1661.5,409.38 -1661.5,407.787 -1661.5,406.194C-1661.5,402.86 -1661.49,399.525 -1661.47,396.191C-1661.44,391.926 -1661.44,387.662 -1661.45,383.397C-1661.46,380.108 -1661.45,376.82 -1661.44,373.532C-1661.44,371.96 -1661.44,370.388 -1661.44,368.816C-1661.44,366.614 -1661.43,364.413 -1661.4,362.211L-1661.39,358.421C-1660.87,353.81 -1659.47,350.379 -1656.06,347.187C-1652.02,344.859 -1648.19,344.863 -1643.58,344.823ZM-1619,397C-1619.26,398.892 -1619.26,398.892 -1619.15,401.067L-1619.1,403.605L-1619.01,406.348L-1618.94,409.157C-1618.89,411.118 -1618.84,413.079 -1618.78,415.04C-1618.69,418.053 -1618.61,421.067 -1618.54,424.08L-1618.39,429.785L-1618.32,432.534C-1618.59,436.593 -1618.59,436.593 -1617,440C-1615.6,440.098 -1614.2,440.128 -1612.8,440.129L-1610.1,440.139L-1607.16,440.133L-1604.16,440.136C-1602.06,440.136 -1599.96,440.135 -1597.86,440.13C-1594.65,440.125 -1591.43,440.13 -1588.21,440.137L-1582.1,440.133L-1579.17,440.139L-1576.46,440.129L-1574.06,440.127C-1571.8,440.077 -1571.8,440.077 -1569,439C-1568.98,433.055 -1568.96,427.11 -1568.94,421.166C-1568.94,419.142 -1568.93,417.119 -1568.92,415.095C-1568.91,412.191 -1568.91,409.287 -1568.9,406.383L-1568.89,403.63L-1568.89,401.083L-1568.88,398.835C-1568.89,396.902 -1568.89,396.902 -1570,395C-1576.66,394.949 -1583.31,394.914 -1589.97,394.89C-1592.24,394.88 -1594.5,394.866 -1596.77,394.849C-1600.02,394.825 -1603.27,394.814 -1606.52,394.805L-1609.61,394.773L-1612.46,394.773L-1614.98,394.759C-1617.23,394.815 -1617.23,394.815 -1619,397ZM-1585.75,401.875L-1582.67,401.863L-1579.73,401.867L-1577.12,401.871C-1575,402 -1575,402 -1573,403L-1573,434L-1612,434L-1612,403C-1603.17,402.369 -1594.57,401.84 -1585.75,401.875ZM-1647,359L-1647,420L-1631,420L-1630.96,413.395C-1630.93,411.273 -1630.89,409.152 -1630.85,407.03C-1630.82,405.561 -1630.81,404.091 -1630.8,402.622C-1630.8,400.503 -1630.75,398.387 -1630.71,396.27L-1630.66,392.413C-1629.83,388.104 -1628.46,386.635 -1625,384C-1620.91,382.585 -1616.58,382.871 -1612.29,382.902L-1610.1,382.907C-1607.79,382.912 -1605.49,382.925 -1603.19,382.937L-1598.49,382.951C-1594.66,382.961 -1590.83,382.981 -1587,383L-1587,358C-1607.02,357.845 -1626.99,358.45 -1647,359ZM-1638.1,365.88L-1635.57,365.886L-1632.72,365.887L-1629.62,365.902L-1626.46,365.907C-1623.12,365.912 -1619.78,365.925 -1616.44,365.938L-1609.66,365.951C-1604.11,365.962 -1598.55,365.98 -1593,366L-1593,376C-1599.51,376.049 -1606.03,376.086 -1612.54,376.11C-1614.76,376.12 -1616.98,376.134 -1619.2,376.151C-1622.38,376.175 -1625.56,376.186 -1628.74,376.195L-1631.76,376.227L-1634.55,376.227L-1637.01,376.241C-1639,376 -1639,376 -1641,374C-1641.19,370.438 -1641.19,370.438 -1641,367C-1640,366 -1640,366 -1638.1,365.88ZM-686,24C-669.998,26.303 -655.485,38.82 -645.938,51.188C-642.601,55.925 -639.501,60.766 -637,66L-635.895,68.297C-633.701,74.925 -633.704,84.287 -636.688,90.688C-640.111,96.179 -644.586,98.684 -650.66,100.523C-655.492,101.508 -659.399,101.028 -663.632,98.31C-666.453,95.558 -666.915,93.942 -667.637,90.105L-668.333,86.607L-669,83C-669.461,80.745 -669.926,78.491 -670.395,76.238L-671.092,72.814C-675.452,50.316 -675.452,50.316 -685.117,29.727C-686,28 -686,28 -686,24ZM-894,79C-889.972,79.527 -888.369,81.439 -885.688,84.375C-880.333,89.93 -874.406,94.299 -868.125,98.75C-865,101 -865,101 -863,103C-862.875,106.125 -862.875,106.125 -863,109C-865.537,110.268 -867.315,110.137 -870.156,110.154L-873.465,110.18L-877.113,110.193L-880.942,110.218C-885.137,110.244 -889.332,110.259 -893.527,110.273L-897.857,110.29C-903.857,110.311 -909.858,110.33 -915.859,110.341C-924.466,110.357 -933.072,110.391 -941.679,110.448C-947.728,110.486 -953.776,110.506 -959.825,110.511C-963.44,110.515 -967.054,110.527 -970.668,110.559C-974.698,110.595 -978.727,110.591 -982.758,110.583L-986.399,110.633L-989.717,110.608L-992.606,110.618C-995,110 -995,110 -996.818,107.7C-998.294,104.327 -998.214,101.643 -998,98L-994.682,98.023C-984.339,98.087 -973.997,98.104 -963.654,98.075C-958.337,98.062 -953.021,98.065 -947.704,98.106C-942.568,98.146 -937.434,98.141 -932.298,98.106C-930.343,98.1 -928.389,98.111 -926.434,98.137C-913.783,98.641 -913.783,98.641 -903.228,92.556C-900.675,89.623 -900.675,89.623 -900,86L-897.563,84.063C-894.763,82.19 -894.763,82.19 -894,79ZM-1201,374C-1196.58,378.087 -1194.79,380.974 -1194,387C-1193.92,389.09 -1193.89,391.182 -1193.9,393.273L-1193.91,396.77L-1193.94,400.375L-1193.95,404.051C-1193.96,407.034 -1193.98,410.017 -1194,413L-1190,413L-1190,419L-1192.38,418.938C-1194.98,418.813 -1194.98,418.813 -1197,420C-1198.55,419.913 -1200.09,419.76 -1201.62,419.563L-1204.1,419.254L-1206,419L-1207,416L-1208.94,417.938C-1212.94,420.632 -1216.21,421.213 -1221,421C-1224.49,420.181 -1227.17,418.692 -1229.94,416.375C-1231.63,412.59 -1231.62,409.068 -1231,405C-1228.44,399.446 -1224.38,396.584 -1219,394C-1214.97,392.592 -1211.29,392 -1207,392L-1209,380L-1218,380L-1217.81,383.313C-1218,387 -1218,387 -1219.06,389C-1222.13,390.585 -1224.72,389.68 -1228,389C-1229.28,385.15 -1229.07,382.053 -1229,378C-1227.44,377.18 -1225.88,376.369 -1224.31,375.563L-1221.68,374.191C-1215.45,371.421 -1207.04,370.346 -1201,374ZM-1206.94,397.193C-1206.96,397.129 -1206.98,397.065 -1207,397C-1210.81,397 -1212.75,398.035 -1216,400C-1218.25,402.762 -1219.04,404.113 -1218.88,407.688C-1218.13,410.333 -1218.13,410.333 -1215,412C-1212.71,412.241 -1212.71,412.241 -1210.31,412.125L-1207.86,412.07L-1207.03,412.039C-1207.04,410.067 -1207.05,408.096 -1207.06,406.125L-1207.09,403.574L-1207.1,401.133L-1207.11,398.879C-1207.07,398.074 -1207.04,397.613 -1206.94,397.193ZM-1444.5,372.75L-1440.59,372.734C-1435.78,373.09 -1433.08,373.857 -1429.75,377.375C-1426.85,381.726 -1426.84,385.558 -1426.68,390.734L-1426.56,394.66L-1426.44,398.75L-1426.31,402.887C-1426.2,406.258 -1426.1,409.629 -1426,413L-1422,415L-1422,419C-1432.93,420.599 -1432.93,420.599 -1438,418L-1439,415L-1440.69,416.875C-1443.85,419.777 -1446.03,420.941 -1450.37,421.07C-1454.94,420.839 -1457.37,420.49 -1461.06,417.625C-1464.14,413.453 -1464.67,410.105 -1464,405C-1460.91,399.337 -1456.9,396.616 -1450.88,394.563C-1447.28,393.521 -1443.68,392.694 -1440,392C-1438.4,387.998 -1439.71,384.954 -1441,381C-1445.1,379.985 -1445.1,379.985 -1449,381C-1449.72,382.644 -1450.39,384.311 -1451,386L-1453,386L-1454,389C-1456.56,390.188 -1456.56,390.188 -1459,391C-1462.02,384.84 -1462.02,384.84 -1461.94,381.313C-1460.45,377.642 -1458.34,375.679 -1454.83,373.902C-1451.29,372.772 -1448.21,372.735 -1444.5,372.75ZM-1448,399C-1450.17,401.089 -1450.17,401.089 -1451,404C-1450.78,407.731 -1450.78,407.731 -1450,411C-1448.19,411.027 -1446.38,411.046 -1444.56,411.063L-1441.5,411.098C-1439.06,411.286 -1439.06,411.286 -1438,410C-1437.93,407.814 -1437.92,405.625 -1437.94,403.438L-1437.96,399.809L-1438,397C-1441.74,397 -1444.5,397.687 -1448,399ZM-202,373L-201,413L-196,415L-196,420L-219,420L-219,414L-214,413L-213,382L-218,382L-221,380L-221,376C-218.209,375.498 -215.417,374.998 -212.625,374.5L-210.219,374.066C-204.227,373 -204.227,373 -202,373ZM-757,353C-754.625,354.563 -754.625,354.563 -753,357C-752.75,360.75 -752.75,360.75 -753,364L-756,365L-756,367C-763.363,367.483 -763.363,367.483 -766.063,365.438C-767.407,361.942 -766.914,359.59 -766,356C-763.751,352.331 -761.061,352.42 -757,353Z" style="fill:white;"/>
    </g>
</svg>
