<?xml version="1.0" encoding="UTF-8" standalone="no"?>
<!DOCTYPE svg PUBLIC "-//W3C//DTD SVG 1.1//EN" "http://www.w3.org/Graphics/SVG/1.1/DTD/svg11.dtd">
<svg width="100%" height="100%" viewBox="0 0 638 163" version="1.1" xmlns="http://www.w3.org/2000/svg" xmlns:xlink="http://www.w3.org/1999/xlink" xml:space="preserve" xmlns:serif="http://www.serif.com/" style="fill-rule:evenodd;clip-rule:evenodd;stroke-linejoin:round;stroke-miterlimit:2;">
    <g transform="matrix(1,0,0,1,-4823.55,-2527.19)">
        <g id="图层1">
        </g>
        <g id="Artboard5" transform="matrix(1.27298,0,0,1,-476.687,376.349)">
            <rect x="4163.65" y="2150.84" width="501.139" height="162.726" style="fill:none;"/>
            <g transform="matrix(1.03215,0,0,1,-153.951,0.892833)">
                <path d="M4281.18,2293.06L4192.86,2293.06L4219.82,2192.24L4261.56,2271.68L4255.8,2276.91C4254.79,2277.82 4254.54,2279.64 4255.23,2280.96L4257.95,2286.13C4258.64,2287.45 4260.02,2287.78 4261.03,2286.87L4272.48,2276.49L4281.18,2293.06ZM4229.92,2169.56L4662.74,2169.56L4629.71,2293.06L4286.67,2293.06L4288.71,2291.21C4289.72,2290.3 4289.98,2288.48 4289.28,2287.16L4280.07,2269.62L4291.52,2259.24C4292.53,2258.33 4292.78,2256.51 4292.08,2255.19L4289.37,2250.02C4288.67,2248.7 4287.29,2248.37 4286.28,2249.28L4280.52,2254.5L4236.78,2171.22L4229.92,2169.56ZM4341.47,2275.38L4341.15,2275.8L4341.47,2276.12L4388.09,2276.12C4388.2,2276.12 4388.31,2276.1 4388.41,2276.07C4388.52,2276.03 4388.58,2275.94 4388.58,2275.8C4388.58,2275.59 4388.17,2274.97 4387.36,2273.94C4386.56,2272.92 4385.65,2271.82 4384.66,2270.65C4383.66,2269.48 4382.72,2268.44 4381.83,2267.52C4380.94,2266.6 4380.39,2266.14 4380.17,2266.14L4379.77,2266.35L4375.32,2274.21C4375.22,2274.35 4374.95,2274.49 4374.52,2274.63C4374.09,2274.77 4373.6,2274.9 4373.06,2275C4372.52,2275.11 4372,2275.2 4371.49,2275.27C4370.98,2275.34 4370.64,2275.38 4370.48,2275.38L4370.07,2275.16L4369.26,2274.21L4369.1,2273.68L4369.1,2245.65C4369.1,2244.94 4369.37,2244.59 4369.91,2244.59L4384.13,2244.59C4384.24,2244.59 4384.39,2244.53 4384.58,2244.43C4384.77,2244.32 4384.86,2244.16 4384.86,2243.95C4384.86,2243.45 4384.66,2243.01 4384.25,2242.62C4383.85,2242.23 4383.4,2241.85 4382.92,2241.46C4382.44,2241.07 4381.99,2240.64 4381.59,2240.18C4381.18,2239.72 4380.98,2239.17 4380.98,2238.54C4380.98,2237.83 4381.21,2237.21 4381.67,2236.68C4382.12,2236.15 4382.62,2235.62 4383.16,2235.09C4383.7,2234.55 4384.2,2233.95 4384.66,2233.28C4385.11,2232.61 4385.34,2231.78 4385.34,2230.79C4385.34,2228.45 4384.83,2226.47 4383.81,2224.84C4382.78,2223.21 4381.52,2221.85 4380.01,2220.75C4378.5,2219.66 4376.89,2218.79 4375.16,2218.15C4373.44,2217.51 4371.88,2217.05 4370.48,2216.77L4370.23,2216.98C4370.34,2217.55 4370.56,2218.1 4370.88,2218.63C4371.2,2219.16 4371.5,2219.64 4371.77,2220.06C4373.17,2222.33 4374.34,2224.7 4375.28,2227.18C4376.23,2229.65 4376.7,2232.38 4376.7,2235.35C4376.7,2235.42 4376.51,2235.83 4376.13,2236.57C4375.76,2237.32 4375.32,2238.11 4374.84,2238.96C4374.36,2239.81 4373.88,2240.62 4373.43,2241.4C4372.97,2242.18 4372.69,2242.68 4372.58,2242.89L4372.01,2243.21L4347.04,2243.21C4346.61,2243.21 4346.42,2243.44 4346.48,2243.9C4346.53,2244.36 4346.94,2244.66 4347.69,2244.8C4348.12,2244.87 4348.94,2244.84 4350.15,2244.69C4351.37,2244.55 4352.62,2244.45 4353.91,2244.38C4355.2,2244.3 4356.36,2244.34 4357.39,2244.48C4358.41,2244.62 4358.92,2245.01 4358.92,2245.65L4358.92,2273.57C4358.92,2273.93 4358.73,2274.31 4358.36,2274.74C4357.98,2275.16 4357.68,2275.38 4357.47,2275.38L4341.47,2275.38ZM4520.12,2185.24C4520.34,2185.1 4520.54,2184.91 4520.73,2184.66C4520.92,2184.41 4521.04,2184.11 4521.09,2183.75C4520.98,2183.54 4520.46,2183.31 4519.52,2183.06C4518.57,2182.82 4517.54,2182.62 4516.4,2182.48C4515.27,2182.34 4514.18,2182.22 4513.13,2182.11C4512.08,2182 4511.4,2181.95 4511.07,2181.95C4510.53,2181.95 4510.26,2182.3 4510.26,2183.01L4510.26,2204.56C4510.26,2205.06 4510.43,2205.31 4510.75,2205.31L4511.64,2205.31C4512.12,2205.31 4512.74,2205.29 4513.5,2205.25C4514.25,2205.22 4515,2205.11 4515.76,2204.93C4516.51,2204.76 4517.2,2204.51 4517.82,2204.19C4518.44,2203.87 4518.91,2203.39 4519.23,2202.76C4519.34,2202.55 4519.39,2201.68 4519.39,2200.16L4519.39,2194.95C4519.39,2193.01 4519.44,2191.12 4519.52,2189.28C4519.6,2187.43 4519.8,2186.09 4520.12,2185.24ZM4347.53,2195.43C4347.26,2195.72 4346.91,2196.67 4346.48,2198.3C4346.05,2199.93 4345.6,2201.71 4345.15,2203.66C4344.69,2205.61 4344.3,2207.47 4343.97,2209.23C4343.65,2211 4343.49,2212.14 4343.49,2212.63C4343.49,2213.06 4343.65,2213.27 4343.97,2213.27C4344.78,2213.27 4345.68,2212.9 4346.68,2212.15C4347.68,2211.41 4348.66,2210.51 4349.63,2209.45C4350.6,2208.39 4351.52,2207.29 4352.38,2206.16C4353.24,2205.02 4353.97,2204.1 4354.56,2203.39C4354.67,2203.25 4354.88,2203.02 4355.2,2202.7C4355.53,2202.39 4355.86,2202.05 4356.22,2201.7C4356.57,2201.34 4356.88,2201.02 4357.14,2200.74C4357.41,2200.46 4357.57,2200.28 4357.63,2200.21C4357.57,2200.07 4357.51,2199.96 4357.43,2199.89C4357.35,2199.82 4357.25,2199.72 4357.14,2199.57C4355.53,2198.94 4353.95,2198.16 4352.42,2197.24C4350.88,2196.32 4349.25,2195.72 4347.53,2195.43ZM4315.21,2238.96L4315.53,2239.28C4315.85,2239.35 4316.3,2239.14 4316.86,2238.64C4317.43,2238.15 4318.06,2237.6 4318.76,2237C4319.46,2236.39 4320.19,2235.83 4320.94,2235.3C4321.7,2234.77 4322.4,2234.5 4323.05,2234.5C4323.58,2234.5 4323.85,2234.86 4323.85,2235.56L4323.85,2241.03C4323.85,2242.2 4323.84,2243.26 4323.81,2244.22C4323.79,2245.17 4323.75,2245.76 4323.69,2245.97C4323.58,2246.18 4323.42,2246.29 4323.21,2246.29C4322.56,2246.29 4321.93,2246.14 4321.31,2245.86C4320.69,2245.58 4320.07,2245.28 4319.45,2244.96C4318.83,2244.64 4318.21,2244.34 4317.59,2244.06C4316.97,2243.77 4316.34,2243.63 4315.69,2243.63C4315.59,2243.63 4315.5,2243.74 4315.45,2243.95C4315.4,2244.16 4315.37,2244.34 4315.37,2244.48C4315.26,2245.76 4315.17,2247.05 4315.09,2248.36C4315.01,2249.67 4314.89,2250.96 4314.72,2252.23C4314.29,2255.42 4313.81,2258.55 4313.27,2261.63C4312.73,2264.71 4312.46,2267.84 4312.46,2271.02C4312.46,2271.59 4312.7,2271.87 4313.19,2271.87C4313.73,2271.87 4314.29,2271.39 4314.89,2270.44C4315.48,2269.48 4316.07,2268.3 4316.66,2266.88C4317.26,2265.47 4317.85,2263.93 4318.44,2262.26C4319.03,2260.6 4319.62,2259.06 4320.22,2257.65C4320.81,2256.23 4321.4,2255.05 4321.99,2254.09C4322.59,2253.13 4323.15,2252.66 4323.69,2252.66C4324.02,2252.66 4324.18,2252.94 4324.18,2253.51L4324.18,2279.52C4324.18,2280.22 4324.45,2280.58 4324.98,2280.58C4325.36,2280.58 4326.02,2280.56 4326.97,2280.53C4327.91,2280.49 4328.84,2280.37 4329.75,2280.15C4330.67,2279.94 4331.49,2279.64 4332.22,2279.25C4332.94,2278.86 4333.31,2278.28 4333.31,2277.5L4333.31,2248.52C4333.41,2248.16 4333.58,2247.83 4333.79,2247.51C4334.01,2247.19 4334.25,2247.03 4334.52,2247.03C4335.06,2247.03 4335.44,2247.44 4335.65,2248.25C4335.87,2249.06 4336.01,2250.07 4336.1,2251.28C4336.18,2252.48 4336.26,2253.79 4336.34,2255.2C4336.42,2256.62 4336.58,2257.93 4336.82,2259.13C4337.07,2260.34 4337.47,2261.34 4338.03,2262.16C4338.6,2262.97 4339.42,2263.38 4340.5,2263.38C4342.11,2263.38 4343.16,2262.74 4343.65,2261.47C4344.14,2260.19 4344.38,2258.64 4344.38,2256.8C4344.38,2254.46 4343.81,2252.46 4342.68,2250.8C4341.55,2249.14 4340.31,2247.68 4338.96,2246.45C4337.62,2245.21 4336.38,2244.13 4335.25,2243.21C4334.12,2242.29 4333.55,2241.44 4333.55,2240.66L4333.55,2230.04C4333.55,2229.76 4333.7,2229.57 4333.99,2229.46C4334.29,2229.35 4334.52,2229.3 4334.68,2229.3C4335.44,2229.3 4335.87,2229.8 4335.97,2230.79C4336.08,2231.78 4336.19,2232.86 4336.3,2234.02C4336.4,2235.19 4336.69,2236.25 4337.15,2237.21C4337.6,2238.16 4338.53,2238.64 4339.93,2238.64C4341.39,2238.64 4342.49,2238.04 4343.25,2236.84C4344,2235.63 4344.38,2234.11 4344.38,2232.27C4344.38,2230.93 4344.08,2229.49 4343.49,2227.97C4342.9,2226.45 4342.13,2225.05 4341.19,2223.78C4340.24,2222.51 4339.21,2221.46 4338.07,2220.65C4336.94,2219.83 4335.87,2219.43 4334.84,2219.43C4334.36,2219.43 4334.12,2219.78 4334.12,2220.5C4334.12,2221.08 4334.37,2221.85 4334.88,2222.82C4335.4,2223.78 4335.65,2224.66 4335.65,2225.45C4335.65,2226.17 4335.45,2226.67 4335.05,2226.96C4334.64,2227.24 4334.16,2227.41 4333.59,2227.44C4333.02,2227.48 4332.46,2227.46 4331.89,2227.39C4331.33,2227.32 4330.88,2227.28 4330.56,2227.28C4329.65,2227.28 4328.76,2227.41 4327.89,2227.65C4327.03,2227.9 4326.14,2228.03 4325.23,2228.03C4324.69,2228.03 4324.42,2227.71 4324.42,2227.07C4324.42,2226.85 4324.59,2226.46 4324.94,2225.9C4325.3,2225.33 4325.7,2224.71 4326.16,2224.03C4326.61,2223.36 4327.06,2222.72 4327.49,2222.12C4327.92,2221.51 4328.22,2221.1 4328.38,2220.89C4330.32,2218.05 4332.14,2215.1 4333.83,2212.05C4335.53,2209 4337.51,2206.23 4339.77,2203.74C4339.93,2203.6 4340.16,2203.4 4340.46,2203.16C4340.76,2202.91 4341.05,2202.64 4341.35,2202.36C4341.64,2202.07 4341.91,2201.81 4342.15,2201.56C4342.4,2201.31 4342.55,2201.11 4342.6,2200.97C4342.55,2200.76 4342.02,2200.35 4341.02,2199.75C4340.03,2199.14 4338.92,2198.52 4337.71,2197.88C4336.5,2197.24 4335.34,2196.68 4334.24,2196.18C4333.13,2195.68 4332.47,2195.43 4332.26,2195.43C4331.77,2196 4331.23,2197.13 4330.64,2198.83C4330.05,2200.53 4329.43,2202.51 4328.78,2204.78C4328.14,2207.04 4327.46,2209.43 4326.76,2211.94C4326.06,2214.45 4325.4,2216.79 4324.78,2218.95C4324.16,2221.11 4323.57,2222.97 4323.01,2224.52C4322.44,2226.08 4321.97,2227.03 4321.59,2227.39C4321.43,2227.53 4320.9,2227.65 4320.02,2227.76C4319.13,2227.87 4318.14,2227.94 4317.07,2227.97C4315.99,2228.01 4314.97,2228.04 4314,2228.08C4313.03,2228.11 4312.38,2228.13 4312.06,2228.13L4312.06,2228.66L4315.21,2238.96ZM4438.27,2259.56C4440.69,2261.54 4443.09,2263.66 4445.46,2265.93C4447.83,2268.19 4450.04,2270.63 4452.09,2273.25C4452.84,2274.17 4453.54,2275.15 4454.19,2276.17C4454.83,2277.2 4455.56,2278.1 4456.37,2278.88C4457.18,2279.66 4458.15,2280.14 4459.28,2280.31C4460.41,2280.49 4461.47,2280.38 4462.47,2279.99C4463.47,2279.61 4464.33,2278.91 4465.06,2277.92C4465.78,2276.93 4466.15,2275.66 4466.15,2274.1C4466.15,2272.19 4465.65,2270.49 4464.65,2269.01C4463.65,2267.52 4462.35,2266.21 4460.73,2265.08C4459.12,2263.95 4457.32,2263.01 4455.36,2262.26C4453.39,2261.52 4451.43,2260.9 4449.46,2260.41C4447.49,2259.91 4445.65,2259.56 4443.93,2259.35C4442.2,2259.13 4440.8,2259.03 4439.72,2259.03C4439.45,2259.03 4439.17,2259.01 4438.88,2258.97C4438.58,2258.94 4438.38,2259.13 4438.27,2259.56ZM4443.52,2185.14L4443.12,2184.71C4441.56,2184.28 4439.97,2183.95 4438.35,2183.7C4436.73,2183.45 4435.12,2183.33 4433.5,2183.33C4432.96,2183.33 4432.69,2183.68 4432.69,2184.39L4432.69,2199.26C4432.69,2199.75 4432.48,2200.09 4432.05,2200.26C4431.62,2200.44 4431.13,2200.53 4430.59,2200.53C4430.05,2200.53 4429.52,2200.49 4428.98,2200.42C4428.44,2200.35 4428.06,2200.32 4427.85,2200.32C4427.58,2200.32 4427.41,2200.18 4427.36,2199.89C4427.31,2199.61 4427.28,2199.33 4427.28,2199.04C4427.28,2197.2 4427.27,2195.22 4427.24,2193.1C4427.21,2190.97 4427.41,2189.03 4427.85,2187.26C4427.95,2186.76 4428.14,2186.27 4428.41,2185.77C4428.68,2185.28 4428.52,2184.89 4427.93,2184.6C4426.69,2184.04 4425.22,2183.68 4423.52,2183.54C4421.83,2183.4 4420.3,2183.33 4418.96,2183.33C4418.42,2183.33 4418.15,2183.68 4418.15,2184.39L4418.15,2198.62C4418.15,2199.47 4417.92,2200.02 4417.46,2200.26C4417.01,2200.51 4416.51,2200.64 4415.97,2200.64C4414.84,2200.64 4413.7,2200.33 4412.57,2199.73C4411.44,2199.13 4410.32,2198.46 4409.22,2197.72C4408.12,2196.97 4407.03,2196.28 4405.95,2195.64C4404.87,2195.01 4403.82,2194.69 4402.8,2194.69C4402.26,2194.69 4401.99,2195.01 4401.99,2195.64L4401.99,2250.21C4401.99,2250.99 4401.55,2251.4 4400.66,2251.43C4399.77,2251.47 4398.77,2251.43 4397.67,2251.33C4396.56,2251.22 4395.57,2251.14 4394.68,2251.06C4393.79,2250.99 4393.34,2251.24 4393.34,2251.81C4393.34,2252.16 4393.48,2252.34 4393.75,2252.34L4413.95,2252.34C4414.32,2252.34 4414.66,2252.51 4414.96,2252.87C4415.25,2253.22 4415.59,2253.4 4415.97,2253.4C4416.13,2253.4 4416.39,2253.22 4416.74,2252.87C4417.09,2252.51 4417.32,2252.34 4417.42,2252.34L4468.89,2252.34C4469.43,2252.34 4469.7,2252.02 4469.7,2251.38L4469.54,2250.85C4469.27,2250.57 4468.78,2249.95 4468.09,2248.99C4467.39,2248.04 4466.63,2247.03 4465.82,2245.97C4465.02,2244.91 4464.29,2243.97 4463.64,2243.15C4462.99,2242.34 4462.62,2241.93 4462.51,2241.93C4462.35,2241.93 4462.17,2242.08 4461.98,2242.36C4461.8,2242.64 4461.61,2242.94 4461.42,2243.26C4461.23,2243.58 4461.03,2243.88 4460.81,2244.16C4460.6,2244.45 4460.38,2244.59 4460.17,2244.59C4459.79,2244.59 4459.6,2244.27 4459.6,2243.63L4459.6,2204.67C4459.6,2204.32 4459.74,2204.01 4460.01,2203.77C4460.27,2203.52 4460.57,2203.31 4460.89,2203.13C4461.22,2202.95 4461.51,2202.76 4461.78,2202.55C4462.05,2202.33 4462.19,2202.09 4462.19,2201.8C4462.19,2201.45 4461.77,2200.83 4460.93,2199.95C4460.1,2199.06 4459.16,2198.16 4458.11,2197.24C4457.06,2196.32 4456.05,2195.45 4455.08,2194.64C4454.11,2193.82 4453.46,2193.27 4453.14,2192.99C4453.03,2192.92 4452.91,2192.81 4452.77,2192.67C4452.64,2192.53 4452.52,2192.49 4452.41,2192.57L4451.93,2192.89C4451.33,2194.09 4450.83,2195.13 4450.43,2196.02C4450.03,2196.9 4449.56,2197.66 4449.02,2198.3C4448.48,2198.94 4447.86,2199.49 4447.16,2199.95C4446.46,2200.41 4445.54,2200.78 4444.41,2201.06C4444.36,2201.06 4444.28,2201.13 4444.17,2201.27L4444.33,2201.48L4444.9,2201.8C4445.11,2201.8 4445.43,2201.77 4445.86,2201.7C4446.3,2201.63 4446.73,2201.61 4447.16,2201.64C4447.59,2201.68 4447.98,2201.78 4448.33,2201.96C4448.68,2202.14 4448.85,2202.44 4448.85,2202.86L4448.85,2250.21L4448.61,2250.85C4448.29,2251.06 4447.89,2251.2 4447.4,2251.28C4446.91,2251.35 4446.4,2251.38 4445.86,2251.38C4445.33,2251.38 4444.8,2251.37 4444.29,2251.33C4443.78,2251.29 4443.33,2251.28 4442.96,2251.28C4442.85,2251.14 4442.73,2250.96 4442.59,2250.74C4442.46,2250.53 4442.39,2250.32 4442.39,2250.11L4442.39,2187.79C4442.39,2187.22 4442.55,2186.76 4442.88,2186.41C4443.2,2186.05 4443.41,2185.63 4443.52,2185.14ZM4428.73,2201.8L4431.89,2201.8C4432.43,2201.8 4432.69,2202.16 4432.69,2202.86L4432.69,2224.1C4432.69,2224.8 4432.43,2225.16 4431.89,2225.16L4428.09,2225.16C4427.55,2225.16 4427.28,2224.8 4427.28,2224.1L4427.28,2203.61C4427.28,2203.25 4427.45,2202.86 4427.81,2202.44C4428.16,2202.01 4428.47,2201.8 4428.73,2201.8ZM4413.06,2226.54L4417.34,2226.54C4417.88,2226.54 4418.15,2226.89 4418.15,2227.6L4418.15,2249.58C4418.15,2250.28 4417.88,2250.64 4417.34,2250.64L4413.06,2250.64C4412.52,2250.64 4412.25,2250.28 4412.25,2249.58L4412.25,2227.6C4412.25,2226.89 4412.52,2226.54 4413.06,2226.54ZM4412.25,2224.1L4412.25,2202.86C4412.25,2202.16 4412.52,2201.8 4413.06,2201.8L4417.34,2201.8C4417.88,2201.8 4418.15,2202.16 4418.15,2202.86L4418.15,2224.1C4418.15,2224.8 4417.88,2225.16 4417.34,2225.16L4413.06,2225.16C4412.52,2225.16 4412.25,2224.8 4412.25,2224.1ZM4428.73,2226.54L4431.89,2226.54C4432.43,2226.54 4432.69,2226.89 4432.69,2227.6L4432.69,2249.58C4432.69,2250.28 4432.43,2250.64 4431.89,2250.64L4428.09,2250.64C4427.55,2250.64 4427.28,2250.28 4427.28,2249.58L4427.28,2228.34C4427.28,2227.99 4427.45,2227.6 4427.81,2227.18C4428.16,2226.75 4428.47,2226.54 4428.73,2226.54ZM4369.51,2211.89C4369.51,2212.38 4369.69,2212.63 4370.07,2212.63C4370.61,2212.63 4371.66,2212.12 4373.22,2211.09C4374.79,2210.07 4376.4,2208.86 4378.07,2207.48C4379.74,2206.1 4381.22,2204.76 4382.52,2203.45C4383.81,2202.14 4384.45,2201.17 4384.45,2200.53C4384.45,2200.18 4384.04,2199.7 4383.2,2199.1C4382.37,2198.49 4381.41,2197.93 4380.33,2197.4C4379.26,2196.87 4378.22,2196.41 4377.22,2196.02C4376.23,2195.63 4375.57,2195.43 4375.24,2195.43C4374.97,2195.43 4374.68,2195.72 4374.36,2196.28C4374.03,2196.92 4373.6,2197.96 4373.06,2199.41C4372.52,2200.87 4371.98,2202.39 4371.45,2203.98C4370.91,2205.57 4370.45,2207.11 4370.07,2208.6C4369.69,2210.08 4369.51,2211.18 4369.51,2211.89ZM4370.07,2199.57C4369.75,2199.36 4369.18,2199.06 4368.38,2198.67C4367.57,2198.28 4366.71,2197.89 4365.79,2197.5C4364.87,2197.11 4364.01,2196.78 4363.2,2196.49C4362.4,2196.21 4361.86,2196.07 4361.59,2196.07C4361.37,2196.07 4361.1,2196.42 4360.78,2197.13C4360.46,2197.84 4360.09,2198.72 4359.69,2199.78C4359.28,2200.85 4358.88,2202.01 4358.48,2203.29C4358.07,2204.56 4357.71,2205.8 4357.39,2207.01C4357.06,2208.21 4356.79,2209.29 4356.58,2210.24C4356.36,2211.2 4356.26,2211.85 4356.26,2212.21C4356.26,2212.56 4356.28,2212.81 4356.34,2212.95C4356.39,2213.09 4356.58,2213.16 4356.9,2213.16C4357.71,2213.16 4358.75,2212.65 4360.01,2211.62C4361.28,2210.6 4362.59,2209.39 4363.93,2208.01C4365.28,2206.63 4366.54,2205.24 4367.73,2203.82C4368.91,2202.4 4369.8,2201.31 4370.4,2200.53C4370.45,2200.46 4370.48,2200.41 4370.48,2200.37C4370.48,2200.33 4370.5,2200.28 4370.56,2200.21C4370.5,2200.07 4370.44,2199.96 4370.36,2199.89C4370.27,2199.82 4370.18,2199.72 4370.07,2199.57ZM4373.14,2189.81L4372.58,2190.12L4343,2190.12C4342.41,2190.12 4342.13,2190.46 4342.15,2191.13C4342.18,2191.8 4342.44,2192.14 4342.92,2192.14C4347.66,2192.14 4352.39,2192.11 4357.1,2192.03C4361.82,2191.97 4366.54,2191.93 4371.28,2191.93C4373.87,2191.93 4376.43,2191.8 4378.96,2191.56C4381.49,2191.31 4384.05,2191.19 4386.64,2191.19L4386.88,2190.76C4386.72,2190.48 4386.22,2189.84 4385.38,2188.85C4384.55,2187.86 4383.65,2186.83 4382.68,2185.77C4381.71,2184.71 4380.81,2183.77 4379.97,2182.96C4379.14,2182.14 4378.64,2181.74 4378.48,2181.74C4378.37,2181.74 4378.06,2182.11 4377.55,2182.85C4377.03,2183.6 4376.47,2184.44 4375.85,2185.4C4375.23,2186.36 4374.66,2187.28 4374.15,2188.16C4373.64,2189.05 4373.31,2189.59 4373.14,2189.81ZM4299.77,2186.38L4283.69,2182.53L4261.25,2202.87L4274.34,2227.78L4296.81,2207.41L4299.77,2186.38ZM4313.43,2200.21L4313.11,2200.64C4313.11,2200.92 4313.13,2201.13 4313.19,2201.27C4313.46,2202.12 4313.77,2202.97 4314.12,2203.82C4314.47,2204.67 4314.78,2205.52 4315.05,2206.37C4315.48,2207.78 4315.87,2209.18 4316.22,2210.56C4316.57,2211.94 4316.93,2213.34 4317.31,2214.76C4317.36,2214.97 4317.54,2215.2 4317.83,2215.45C4318.13,2215.69 4318.45,2215.91 4318.8,2216.08C4319.15,2216.26 4319.5,2216.4 4319.85,2216.51C4320.2,2216.61 4320.46,2216.67 4320.62,2216.67C4321.59,2216.67 4322.49,2216.15 4323.33,2215.13C4324.16,2214.1 4324.58,2212.95 4324.58,2211.68C4324.58,2210.83 4324.38,2209.96 4323.98,2209.08C4323.57,2208.19 4323.15,2207.31 4322.72,2206.42C4322.29,2205.54 4321.95,2204.67 4321.71,2203.82C4321.47,2202.97 4321.51,2202.23 4321.83,2201.59C4323.23,2200.32 4324.55,2198.9 4325.79,2197.34C4327.03,2195.79 4328.22,2194.19 4329.35,2192.57C4329.78,2192 4330.18,2191.43 4330.56,2190.87C4330.94,2190.3 4331.34,2189.77 4331.77,2189.28C4331.88,2189.13 4332.08,2188.99 4332.38,2188.85C4332.68,2188.71 4332.97,2188.53 4333.27,2188.32C4333.56,2188.11 4333.82,2187.89 4334.03,2187.68C4334.25,2187.47 4334.36,2187.26 4334.36,2187.05C4334.36,2186.9 4334.28,2186.76 4334.12,2186.62C4333.95,2186.48 4333.82,2186.37 4333.71,2186.3C4333.44,2186.09 4332.8,2185.72 4331.77,2185.19C4330.75,2184.66 4329.65,2184.13 4328.46,2183.6C4327.27,2183.06 4326.18,2182.59 4325.19,2182.16C4324.19,2181.74 4323.58,2181.56 4323.37,2181.63C4323.05,2181.7 4322.72,2182.46 4322.4,2183.91C4322.08,2185.37 4321.78,2186.99 4321.51,2188.8C4321.24,2190.6 4321.03,2192.32 4320.86,2193.95C4320.7,2195.57 4320.6,2196.64 4320.54,2197.13C4320.49,2197.63 4320.45,2198.25 4320.42,2198.99C4320.39,2199.73 4320.32,2200.32 4320.22,2200.74C4320.06,2201.38 4319.68,2201.71 4319.09,2201.75C4318.49,2201.78 4317.83,2201.7 4317.11,2201.48C4316.38,2201.27 4315.67,2201.01 4314.97,2200.69C4314.27,2200.37 4313.75,2200.21 4313.43,2200.21ZM4350.92,2236.41C4351.78,2236.55 4352.63,2236.59 4353.47,2236.52C4354.3,2236.45 4355.04,2236.18 4355.69,2235.72C4356.34,2235.26 4356.86,2234.61 4357.27,2233.76C4357.67,2232.91 4357.87,2231.78 4357.87,2230.36C4357.87,2228.66 4357.43,2227 4356.54,2225.37C4355.65,2223.74 4354.55,2222.31 4353.23,2221.07C4351.9,2219.83 4350.51,2218.84 4349.02,2218.1C4347.54,2217.36 4346.21,2217.02 4345.02,2217.09C4344.92,2217.09 4344.78,2217.13 4344.62,2217.2C4344.46,2217.27 4344.38,2217.37 4344.38,2217.51C4344.38,2217.8 4344.69,2218.88 4345.31,2220.75C4345.93,2222.63 4346.61,2224.68 4347.37,2226.91C4348.12,2229.14 4348.86,2231.21 4349.59,2233.12C4350.32,2235.03 4350.76,2236.13 4350.92,2236.41ZM4366.6,2236.52C4368.11,2236.52 4369.26,2236.08 4370.07,2235.19C4370.88,2234.31 4371.28,2232.84 4371.28,2230.79C4371.28,2228.8 4370.84,2226.98 4369.95,2225.32C4369.06,2223.66 4367.94,2222.24 4366.6,2221.07C4365.25,2219.9 4363.8,2218.98 4362.23,2218.31C4360.67,2217.64 4359.22,2217.3 4357.87,2217.3C4357.71,2217.3 4357.55,2217.34 4357.39,2217.41C4357.23,2217.48 4357.14,2217.66 4357.14,2217.94C4357.14,2218.08 4357.28,2218.42 4357.55,2218.95C4357.82,2219.48 4358.11,2220.05 4358.44,2220.65C4358.76,2221.25 4359.07,2221.83 4359.37,2222.4C4359.66,2222.97 4359.86,2223.39 4359.97,2223.67C4360.67,2225.37 4361.27,2227.14 4361.75,2228.98C4362.23,2230.82 4362.77,2232.66 4363.37,2234.5L4363.77,2235.56C4363.98,2236.13 4364.15,2236.41 4364.26,2236.41C4364.69,2236.41 4365.08,2236.43 4365.43,2236.47C4365.78,2236.5 4366.17,2236.52 4366.6,2236.52ZM4427.6,2264.02L4427.85,2263.7C4427.74,2263.49 4427.13,2262.94 4426.03,2262.05C4424.92,2261.17 4423.69,2260.23 4422.31,2259.24C4420.94,2258.25 4419.63,2257.35 4418.39,2256.53L4416.05,2254.99L4415.89,2255.1C4414.76,2256.44 4413.75,2257.93 4412.86,2259.56C4411.97,2261.18 4411.01,2262.74 4409.99,2264.23C4409.02,2265.64 4408.01,2266.99 4406.96,2268.26C4405.91,2269.54 4404.79,2270.74 4403.61,2271.87C4403.5,2272.01 4402.93,2272.46 4401.91,2273.2C4400.89,2273.94 4399.88,2274.74 4398.88,2275.59C4397.88,2276.44 4397.13,2277.22 4396.62,2277.92C4396.1,2278.63 4396.28,2278.99 4397.14,2278.99C4400.16,2278.99 4402.92,2278.28 4405.42,2276.86C4407.93,2275.45 4410.35,2273.87 4412.69,2272.14C4415.04,2270.4 4417.41,2268.72 4419.81,2267.1C4422.2,2265.47 4424.8,2264.44 4427.6,2264.02ZM4497.01,2279.41L4496.77,2280.05L4497.01,2280.26C4500.14,2279.55 4503.13,2278.64 4505.98,2277.51C4508.84,2276.38 4511.49,2274.88 4513.94,2273.01C4516.39,2271.13 4518.61,2268.8 4520.61,2266.02C4522.6,2263.23 4524.32,2259.86 4525.78,2255.9C4526.42,2254.07 4526.9,2252.2 4527.19,2250.29C4527.49,2248.38 4527.74,2246.44 4527.96,2244.47C4527.96,2244.25 4527.99,2243.9 4528.04,2243.41C4528.09,2242.91 4528.16,2242.37 4528.24,2241.77C4528.32,2241.16 4528.39,2240.64 4528.44,2240.18C4528.5,2239.72 4528.55,2239.45 4528.61,2239.38C4528.82,2238.96 4529.06,2238.71 4529.33,2238.64C4529.6,2238.57 4529.93,2238.54 4530.3,2238.54C4531.65,2238.54 4532.47,2238.76 4532.77,2239.21C4533.06,2239.66 4533.24,2240.14 4533.29,2240.66C4533.35,2241.18 4533.43,2241.66 4533.53,2242.11C4533.64,2242.56 4534.18,2242.78 4535.15,2242.78C4535.42,2242.78 4535.8,2242.71 4536.28,2242.57C4536.77,2242.43 4537.25,2242.32 4537.74,2242.25C4538.22,2242.18 4538.68,2242.18 4539.11,2242.25C4539.54,2242.32 4539.81,2242.61 4539.92,2243.1C4539.97,2243.24 4539.92,2243.51 4539.76,2243.9C4539.6,2244.29 4539.41,2244.69 4539.19,2245.12C4538.98,2245.54 4538.75,2245.95 4538.5,2246.34C4538.26,2246.73 4538.11,2246.99 4538.06,2247.14C4537.36,2248.41 4536.73,2249.38 4536.16,2250.05C4535.6,2250.73 4535,2251.24 4534.38,2251.6C4533.76,2251.95 4533.08,2252.2 4532.32,2252.34C4531.57,2252.48 4530.63,2252.62 4529.49,2252.76C4529.39,2252.76 4529.31,2252.8 4529.25,2252.87L4529.41,2253.19C4529.63,2253.33 4529.82,2253.4 4529.98,2253.4C4530.19,2253.47 4530.81,2253.51 4531.84,2253.51L4540,2253.51C4541.61,2253.51 4543.1,2253.49 4544.44,2253.45C4545.79,2253.42 4546.92,2253.38 4547.84,2253.35C4548.75,2253.31 4549.24,2253.26 4549.29,2253.19C4549.4,2253.05 4549.45,2252.87 4549.45,2252.66C4549.45,2252.37 4549.03,2251.84 4548.2,2251.06C4547.36,2250.28 4546.44,2249.38 4545.41,2248.36C4544.39,2247.33 4543.46,2246.25 4542.62,2245.12C4541.79,2243.99 4541.37,2242.92 4541.37,2241.93C4541.37,2241.08 4541.61,2240.5 4542.1,2240.18C4542.59,2239.86 4542.83,2239.42 4542.83,2238.86L4542.83,2215.82C4542.83,2215.46 4543.06,2215.04 4543.51,2214.54C4543.97,2214.05 4544.31,2213.66 4544.52,2213.38L4544.77,2212.63C4544.71,2211.57 4544.24,2210.67 4543.35,2209.92C4542.46,2209.18 4541.51,2208.4 4540.48,2207.59C4539.46,2206.78 4538.53,2205.8 4537.7,2204.67C4536.86,2203.54 4536.44,2202.05 4536.44,2200.21C4536.44,2200 4536.46,2199.68 4536.48,2199.26C4536.51,2198.83 4536.57,2198.41 4536.65,2197.98C4536.73,2197.56 4536.85,2197.2 4537.01,2196.92C4537.17,2196.64 4537.39,2196.49 4537.66,2196.49L4548.08,2196.49C4548.46,2196.49 4548.69,2196.32 4548.77,2195.96C4548.85,2195.61 4548.83,2195.26 4548.73,2194.9C4548.67,2194.83 4548.3,2194.35 4547.59,2193.47C4546.89,2192.58 4546.11,2191.63 4545.25,2190.6C4544.39,2189.58 4543.58,2188.64 4542.83,2187.79C4542.07,2186.94 4541.61,2186.51 4541.45,2186.51C4541.13,2186.66 4540.75,2187.15 4540.32,2188L4539.03,2190.55C4538.6,2191.4 4538.18,2192.09 4537.78,2192.62C4537.37,2193.15 4537.06,2193.24 4536.85,2192.89C4536.74,2192.74 4536.67,2192.35 4536.65,2191.72C4536.62,2191.08 4536.61,2190.37 4536.61,2189.59C4536.61,2188.82 4536.62,2188.07 4536.65,2187.36C4536.67,2186.66 4536.69,2186.16 4536.69,2185.88L4536.93,2185.14L4537.41,2184.5C4537.57,2184.28 4537.71,2184.04 4537.82,2183.75C4537.55,2183.54 4536.93,2183.33 4535.96,2183.12C4534.99,2182.91 4533.93,2182.69 4532.77,2182.48C4531.61,2182.27 4530.52,2182.11 4529.49,2182C4528.47,2181.9 4527.77,2181.84 4527.39,2181.84C4527.18,2181.84 4527.03,2182.02 4526.95,2182.37C4526.87,2182.73 4526.82,2183.14 4526.79,2183.6C4526.76,2184.05 4526.76,2184.5 4526.79,2184.92C4526.82,2185.35 4526.83,2185.66 4526.83,2185.88C4526.83,2186.73 4526.82,2187.97 4526.79,2189.59C4526.76,2191.22 4526.76,2192.94 4526.79,2194.74C4526.82,2196.55 4526.87,2198.21 4526.95,2199.73C4527.03,2201.25 4527.18,2202.33 4527.39,2202.97C4527.66,2203.61 4527.93,2203.93 4528.2,2203.93L4529.25,2203.93C4530.17,2203.93 4531.1,2203.82 4532.04,2203.61C4532.98,2203.39 4533.91,2203.29 4534.83,2203.29C4535.2,2203.29 4535.43,2203.47 4535.51,2203.82C4535.6,2204.17 4535.61,2204.53 4535.56,2204.88C4535.56,2205.09 4535.37,2205.5 4534.99,2206.1C4534.61,2206.7 4534.19,2207.31 4533.74,2207.91C4533.28,2208.51 4532.83,2209.06 4532.4,2209.55C4531.97,2210.05 4531.68,2210.3 4531.52,2210.3L4514.55,2210.3C4513.41,2210.3 4512.27,2210.05 4511.11,2209.55C4509.95,2209.06 4508.8,2208.44 4507.64,2207.7C4506.48,2206.95 4505.38,2206.14 4504.32,2205.25C4503.27,2204.37 4502.32,2203.5 4501.46,2202.65C4501.03,2202.23 4500.58,2201.71 4500.12,2201.11C4499.66,2200.51 4499.19,2200.03 4498.71,2199.68L4498.31,2200C4498.2,2200.35 4498.04,2200.87 4497.82,2201.54C4497.61,2202.21 4497.34,2202.86 4497.01,2203.5C4496.69,2204.14 4496.35,2204.69 4496,2205.15C4495.65,2205.61 4495.32,2205.84 4494.99,2205.84C4494.72,2205.84 4494.59,2205.59 4494.59,2205.09C4494.32,2202.55 4494.17,2200 4494.14,2197.45C4494.12,2194.9 4494.1,2192.32 4494.1,2189.7C4494.1,2189.35 4494.09,2188.96 4494.06,2188.53C4494.04,2188.11 4494.05,2187.72 4494.1,2187.36C4494.16,2187.08 4494.29,2186.76 4494.51,2186.41C4494.72,2186.05 4494.97,2185.7 4495.23,2185.35L4495.96,2184.39C4496.18,2184.11 4496.28,2183.86 4496.28,2183.65C4496.28,2183.29 4496.06,2183.1 4495.6,2183.06C4495.14,2183.03 4494.83,2183.01 4494.67,2183.01C4493,2182.94 4491.34,2182.73 4489.7,2182.37C4488.06,2182.02 4486.37,2181.84 4484.65,2181.84C4484.11,2181.84 4483.84,2182.2 4483.84,2182.91L4483.84,2208.17C4483.84,2211.14 4483.67,2214.22 4483.32,2217.41C4482.97,2220.59 4482.48,2223.78 4481.86,2226.96C4481.24,2230.15 4480.52,2233.28 4479.68,2236.36C4478.85,2239.44 4477.94,2242.29 4476.97,2244.91L4474.23,2252.55C4474.17,2252.69 4474.15,2252.9 4474.15,2253.19C4474.15,2253.47 4474.2,2253.68 4474.31,2253.82C4474.52,2253.61 4474.9,2253.19 4475.44,2252.55C4475.98,2251.91 4476.54,2251.19 4477.14,2250.37C4477.73,2249.56 4478.31,2248.78 4478.87,2248.04L4480.12,2246.39C4480.66,2245.68 4481.14,2244.94 4481.54,2244.16C4481.94,2243.38 4482.36,2242.57 4482.79,2241.72C4482.95,2241.37 4483.14,2241.01 4483.36,2240.66C4483.57,2240.31 4483.84,2240.06 4484.16,2239.92C4484.33,2240.13 4484.41,2240.34 4484.41,2240.55L4484.41,2279.52C4484.41,2280.22 4484.68,2280.58 4485.22,2280.58C4485.65,2280.58 4486.36,2280.51 4487.36,2280.37C4488.35,2280.22 4489.38,2280.01 4490.43,2279.73C4491.48,2279.45 4492.39,2279.06 4493.17,2278.56C4493.95,2278.07 4494.35,2277.46 4494.35,2276.76L4494.35,2226.22C4494.35,2225.94 4494.49,2225.67 4494.79,2225.43C4495.09,2225.18 4495.32,2225.05 4495.48,2225.05C4495.8,2225.05 4496.06,2225.36 4496.24,2225.96C4496.43,2226.57 4496.57,2227.28 4496.65,2228.1C4496.73,2228.92 4496.78,2229.72 4496.81,2230.51C4496.84,2231.3 4496.88,2231.83 4496.93,2232.12C4497.09,2233.54 4497.34,2234.66 4497.66,2235.49C4497.98,2236.31 4498.41,2236.95 4498.95,2237.41C4499.49,2237.88 4500.11,2238.25 4500.81,2238.53C4501.51,2238.82 4502.32,2239.1 4503.23,2239.39C4503.77,2239.6 4504.04,2240.09 4504.04,2240.87L4504.04,2243.31C4504.04,2244.16 4504.2,2244.94 4504.53,2245.65C4504.85,2246.36 4505.63,2246.71 4506.87,2246.71C4507.79,2246.71 4508.65,2246.29 4509.46,2245.44C4510.26,2244.59 4511.03,2243.67 4511.76,2242.68C4512.49,2241.69 4513.19,2240.77 4513.86,2239.92C4514.53,2239.07 4515.17,2238.64 4515.76,2238.64C4516.46,2238.64 4516.89,2238.82 4517.05,2239.17C4517.21,2239.52 4517.29,2240.12 4517.29,2240.97C4517.29,2245.77 4516.84,2250.11 4515.92,2254C4515,2257.88 4513.68,2261.37 4511.96,2264.48C4510.24,2267.59 4508.12,2270.36 4505.62,2272.79C4503.11,2275.23 4500.24,2277.44 4497.01,2279.41ZM4494.67,2210.3L4502.99,2210.3C4503.32,2210.3 4503.5,2210.38 4503.56,2210.56L4503.8,2211.36C4503.96,2212.35 4504.08,2213.48 4504.16,2214.76C4504.24,2216.03 4504.3,2217.32 4504.32,2218.63C4504.35,2219.94 4504.36,2221.23 4504.36,2222.51L4504.36,2226.01C4504.36,2226.58 4504.12,2226.86 4503.64,2226.86C4503.37,2226.86 4502.76,2226.54 4501.82,2225.9C4500.88,2225.26 4499.91,2224.52 4498.91,2223.67C4497.91,2222.82 4496.98,2221.99 4496.12,2221.18C4495.26,2220.36 4494.78,2219.78 4494.67,2219.43C4494.56,2219.21 4494.48,2218.74 4494.43,2217.99C4494.37,2217.25 4494.33,2216.47 4494.31,2215.66L4494.23,2213.27C4494.2,2212.49 4494.18,2211.92 4494.18,2211.57L4494.18,2210.72C4494.18,2210.44 4494.35,2210.3 4494.67,2210.3ZM4532.57,2236.84L4532,2237.16L4529.98,2237.16C4529.01,2237.16 4527.91,2237.14 4526.67,2237.1C4525.43,2237.07 4524.12,2237.03 4522.75,2237C4521.37,2236.96 4520.1,2236.91 4518.91,2236.84C4517.72,2236.77 4516.73,2236.7 4515.92,2236.62C4515.11,2236.55 4514.6,2236.48 4514.39,2236.41C4514.17,2236.27 4513.97,2236.13 4513.78,2235.99C4513.59,2235.85 4513.5,2235.6 4513.5,2235.24L4513.5,2213.48C4513.5,2212.77 4513.77,2212.42 4514.3,2212.42L4532.08,2212.42C4532.62,2212.42 4532.89,2212.77 4532.89,2213.48L4532.89,2235.99L4532.65,2236.73L4532.57,2236.84ZM4515.44,2224.31C4515.49,2224.38 4515.57,2224.42 4515.68,2224.42L4527.19,2224.42C4528.24,2224.42 4529.1,2224.4 4529.78,2224.36C4530.45,2224.33 4530.84,2224.31 4530.95,2224.31C4530.9,2224.1 4530.75,2223.94 4530.51,2223.83C4530.26,2223.73 4530.09,2223.67 4529.98,2223.67L4516.4,2223.67C4516.3,2223.67 4516.12,2223.73 4515.88,2223.83C4515.64,2223.94 4515.49,2224.1 4515.44,2224.31ZM4446.51,2226.12C4446.35,2225.97 4445.94,2225.87 4445.3,2225.8C4444.65,2225.72 4444.33,2225.87 4444.33,2226.22C4444.33,2226.43 4444.44,2226.56 4444.65,2226.59C4444.87,2226.63 4445.12,2226.65 4445.42,2226.65C4445.72,2226.65 4445.97,2226.59 4446.19,2226.49C4446.4,2226.38 4446.51,2226.26 4446.51,2226.12ZM4525.13,2196.07L4525.37,2195.75L4525.13,2195.43C4524.97,2195.43 4524.69,2195.41 4524.28,2195.38C4523.88,2195.34 4523.46,2195.33 4523.03,2195.33C4522.6,2195.33 4522.2,2195.34 4521.82,2195.38C4521.44,2195.41 4521.23,2195.47 4521.17,2195.54L4521.33,2195.86C4521.49,2196 4521.74,2196.09 4522.06,2196.12C4522.38,2196.16 4522.75,2196.18 4523.15,2196.18C4523.56,2196.18 4523.93,2196.16 4524.28,2196.12C4524.63,2196.09 4524.92,2196.07 4525.13,2196.07ZM4501.38,2195.43L4501.13,2195.75L4501.38,2196.07C4501.65,2196.07 4502.13,2196.09 4502.83,2196.12C4503.53,2196.16 4504.26,2196.18 4505.01,2196.18C4505.77,2196.18 4506.47,2196.16 4507.11,2196.12C4507.76,2196.09 4508.16,2196 4508.32,2195.86L4508.49,2195.54C4508.38,2195.47 4507.99,2195.41 4507.31,2195.38C4506.64,2195.34 4505.91,2195.33 4505.13,2195.33C4504.35,2195.33 4503.6,2195.34 4502.87,2195.38C4502.14,2195.41 4501.65,2195.43 4501.38,2195.43ZM4555.84,2207.11L4556.4,2207.43L4593.41,2207.43L4593.98,2207.11L4594.14,2206.79C4594.08,2206.72 4594,2206.69 4593.89,2206.69L4555.92,2206.69C4555.81,2206.69 4555.73,2206.72 4555.67,2206.79L4555.84,2207.11ZM4498.63,2252.76L4498.39,2253.08L4498.63,2253.4L4513.9,2253.4L4514.79,2252.87C4514.47,2252.8 4513.56,2252.74 4512.08,2252.71C4510.6,2252.67 4508.96,2252.66 4507.15,2252.66C4505.35,2252.66 4503.62,2252.67 4501.98,2252.71C4500.34,2252.74 4499.22,2252.76 4498.63,2252.76ZM4549.05,2266.46L4548.81,2266.03C4547.68,2265.82 4546.14,2265.27 4544.2,2264.39C4542.26,2263.5 4540.3,2262.58 4538.3,2261.63C4536.31,2260.67 4534.48,2259.8 4532.81,2259.03C4531.14,2258.25 4530.03,2257.86 4529.49,2257.86C4529.28,2257.86 4529.16,2257.98 4529.13,2258.23C4529.1,2258.48 4529.09,2258.67 4529.09,2258.81C4529.09,2260.51 4529.47,2262.58 4530.22,2265.03C4530.98,2267.47 4531.96,2269.84 4533.17,2272.14C4534.38,2274.44 4535.73,2276.38 4537.21,2277.98C4538.69,2279.57 4540.16,2280.37 4541.61,2280.37C4541.99,2280.37 4542.36,2279.82 4542.71,2278.72C4543.06,2277.62 4543.49,2276.33 4544,2274.85C4544.51,2273.36 4545.14,2271.87 4545.9,2270.39C4546.65,2268.9 4547.62,2267.77 4548.81,2266.99L4549.05,2266.46ZM4609.09,2207.43L4628.48,2207.43L4629.04,2207.11L4629.37,2206.58C4629.31,2206.16 4628.95,2205.68 4628.28,2205.15L4626.05,2203.39C4625.24,2202.76 4624.5,2202.03 4623.83,2201.22C4623.16,2200.41 4622.82,2199.54 4622.82,2198.62C4622.82,2197.63 4623.01,2196.69 4623.39,2195.8C4623.76,2194.92 4623.95,2193.98 4623.95,2192.99C4623.95,2191.08 4623.53,2189.61 4622.7,2188.59C4621.86,2187.56 4620.86,2186.8 4619.67,2186.3C4618.48,2185.81 4617.22,2185.51 4615.87,2185.4C4614.53,2185.29 4613.34,2185.24 4612.32,2185.24C4611.99,2185.24 4611.66,2185.26 4611.31,2185.29C4610.96,2185.33 4610.78,2185.66 4610.78,2186.3C4610.78,2187.15 4611.08,2188.04 4611.67,2188.96C4612.26,2189.88 4612.91,2190.87 4613.61,2191.93C4614.31,2192.99 4614.96,2194.12 4615.55,2195.33C4616.14,2196.53 4616.44,2197.84 4616.44,2199.26C4616.44,2200.39 4616.26,2201.36 4615.91,2202.17C4615.56,2202.99 4615.1,2203.68 4614.54,2204.24C4613.97,2204.81 4613.33,2205.27 4612.6,2205.62C4611.87,2205.98 4611.16,2206.26 4610.46,2206.47C4610.08,2206.62 4609.69,2206.69 4609.29,2206.69C4608.88,2206.69 4608.49,2206.76 4608.11,2206.9C4608.22,2207.04 4608.37,2207.16 4608.56,2207.27C4608.75,2207.38 4608.92,2207.43 4609.09,2207.43ZM4596.16,2255.84C4596.05,2255.63 4595.89,2255.52 4595.67,2255.52C4594.59,2255.52 4593.52,2255.66 4592.44,2255.95C4591.36,2256.23 4590.28,2256.53 4589.21,2256.85C4588.13,2257.17 4587.05,2257.47 4585.98,2257.75C4584.9,2258.03 4583.82,2258.18 4582.74,2258.18C4582.2,2258.18 4581.94,2257.82 4581.94,2257.12L4581.94,2229.41C4581.94,2228.7 4582.2,2228.34 4582.74,2228.34L4593.65,2228.34C4593.87,2228.34 4594.08,2228.31 4594.3,2228.24C4594.51,2228.17 4594.62,2227.95 4594.62,2227.6C4594.62,2227.32 4594.26,2226.63 4593.53,2225.53C4592.8,2224.43 4591.99,2223.3 4591.11,2222.13C4590.22,2220.97 4589.34,2219.92 4588.48,2219C4587.62,2218.08 4587.08,2217.62 4586.86,2217.62C4586.65,2217.62 4586.27,2218.1 4585.73,2219.05C4585.19,2220.01 4584.61,2221.07 4584,2222.24C4583.38,2223.41 4582.78,2224.47 4582.22,2225.43C4581.65,2226.38 4581.26,2226.86 4581.05,2226.86L4558.83,2226.86C4558.72,2226.86 4558.57,2226.91 4558.38,2227.02C4558.19,2227.12 4558.1,2227.28 4558.1,2227.49C4558.1,2227.71 4558.15,2227.95 4558.26,2228.24C4558.37,2228.52 4558.53,2228.66 4558.74,2228.66L4570.3,2228.66C4570.84,2228.66 4571.11,2229.02 4571.11,2229.72L4571.11,2259.77C4571.11,2260.12 4570.81,2260.41 4570.22,2260.62C4569.63,2260.83 4569.22,2260.97 4569.01,2261.04C4567.34,2261.54 4565.67,2261.95 4564,2262.26C4562.33,2262.58 4560.63,2262.81 4558.91,2262.95C4558.8,2262.95 4558.56,2262.97 4558.18,2263.01L4557.05,2263.11C4556.67,2263.15 4556.33,2263.24 4556.04,2263.38C4555.74,2263.52 4555.59,2263.7 4555.59,2263.91C4555.59,2264.55 4555.88,2265.61 4556.44,2267.1C4557.01,2268.58 4557.68,2270.1 4558.46,2271.66C4559.24,2273.22 4560.04,2274.58 4560.85,2275.75C4561.65,2276.91 4562.3,2277.5 4562.78,2277.5C4563.43,2277.5 4564.02,2277.11 4564.56,2276.33C4565.1,2275.55 4565.67,2274.99 4566.26,2274.63C4567.66,2273.64 4569.13,2272.76 4570.66,2271.98C4572.2,2271.2 4573.69,2270.39 4575.15,2269.54C4577.84,2267.98 4580.51,2266.39 4583.15,2264.76L4591.07,2259.88C4591.34,2259.66 4591.74,2259.41 4592.28,2259.13C4592.82,2258.85 4593.36,2258.51 4593.89,2258.12C4594.43,2257.74 4594.92,2257.35 4595.35,2256.96C4595.78,2256.57 4596.05,2256.2 4596.16,2255.84ZM4474.47,2208.81L4474.15,2209.13L4474.47,2209.55L4481.5,2209.55L4481.74,2209.13L4481.5,2208.81L4474.47,2208.81ZM4595.43,2206.37L4595.43,2207.01C4596.02,2209.06 4596.35,2211.2 4596.4,2213.43C4596.45,2215.66 4596.61,2217.87 4596.88,2220.06C4597.21,2223.18 4597.69,2226.8 4598.34,2230.95C4598.98,2235.09 4599.82,2239.37 4600.84,2243.79C4601.87,2248.22 4603.09,2252.59 4604.52,2256.9C4605.95,2261.22 4607.63,2265.06 4609.57,2268.42C4611.51,2271.78 4613.72,2274.51 4616.19,2276.6C4618.67,2278.68 4621.45,2279.73 4624.52,2279.73C4626.94,2279.73 4628.48,2279.18 4629.12,2278.08C4629.77,2276.99 4629.98,2275.62 4629.77,2274C4629.55,2272.37 4629.15,2270.6 4628.56,2268.69C4627.97,2266.78 4627.67,2265.01 4627.67,2263.38C4627.67,2261.47 4627.76,2259.56 4627.95,2257.65C4628.14,2255.74 4628.23,2253.82 4628.23,2251.91C4628.23,2251.7 4628.21,2251.47 4628.15,2251.22C4628.1,2250.97 4627.97,2250.82 4627.75,2250.74C4627.43,2250.67 4627.1,2251.14 4626.78,2252.12C4626.46,2253.12 4626.08,2254.23 4625.65,2255.47C4625.22,2256.71 4624.68,2257.86 4624.03,2258.92C4623.39,2259.98 4622.55,2260.51 4621.53,2260.51C4621.26,2260.51 4621.07,2260.44 4620.96,2260.3C4618.7,2257.89 4616.79,2255.12 4615.23,2251.97C4613.66,2248.82 4612.36,2245.49 4611.31,2241.99C4610.26,2238.48 4609.41,2234.86 4608.76,2231.1C4608.11,2227.35 4607.6,2223.67 4607.23,2220.06C4607.01,2218.22 4606.78,2216.42 4606.54,2214.65C4606.3,2212.88 4606.18,2211.07 4606.18,2209.23C4606.18,2208.74 4606.26,2208.31 4606.42,2207.96C4606.58,2207.61 4606.66,2207.18 4606.66,2206.69C4606.66,2206.19 4606.57,2205.73 4606.38,2205.31C4606.19,2204.88 4606.1,2204.39 4606.1,2203.82C4606.1,2203.25 4606.11,2202.7 4606.14,2202.17C4606.16,2201.64 4606.2,2201.1 4606.26,2200.53C4606.31,2199.89 4606.34,2198.92 4606.34,2197.61C4606.34,2196.3 4606.35,2194.94 4606.38,2193.52C4606.4,2192.11 4606.43,2190.8 4606.46,2189.59C4606.48,2188.39 4606.55,2187.61 4606.66,2187.26C4606.82,2186.62 4607.02,2186.18 4607.27,2185.93C4607.51,2185.68 4607.75,2185.51 4607.99,2185.4C4608.24,2185.29 4608.47,2185.2 4608.68,2185.14C4608.9,2185.06 4609.09,2184.89 4609.25,2184.6L4608.6,2183.97C4607.15,2183.61 4605.66,2183.42 4604.16,2183.38C4602.65,2183.35 4601.17,2183.19 4599.71,2182.91C4599.12,2182.76 4598.57,2182.62 4598.06,2182.48C4597.54,2182.34 4596.99,2182.27 4596.4,2182.27C4596.07,2182.27 4595.82,2182.32 4595.63,2182.43C4595.44,2182.53 4595.35,2182.83 4595.35,2183.33C4595.35,2186.73 4595.46,2190.14 4595.67,2193.58C4595.89,2197.01 4595.99,2200.42 4595.99,2203.82C4595.99,2204.39 4595.98,2204.85 4595.95,2205.2C4595.93,2205.55 4595.75,2205.94 4595.43,2206.37ZM4231.97,2229.41L4220.3,2239.98L4216.33,2232.42C4215.63,2231.09 4214.25,2230.76 4213.24,2231.67L4209.31,2235.24C4208.3,2236.15 4208.04,2237.97 4208.74,2239.29L4216.64,2254.33L4203.29,2266.43C4202.28,2267.35 4202.03,2269.16 4202.73,2270.49L4205.44,2275.65C4206.14,2276.98 4207.52,2277.31 4208.53,2276.4L4221.88,2264.3L4229.78,2279.34C4230.47,2280.66 4231.86,2281 4232.86,2280.08L4236.8,2276.52C4237.8,2275.6 4238.06,2273.79 4237.36,2272.46L4233.39,2264.89L4245.06,2254.32L4231.97,2229.41Z" style="fill:white;"/>
            </g>
        </g>
    </g>
</svg>
