<?xml version="1.0" encoding="UTF-8" standalone="no"?>
<!DOCTYPE svg PUBLIC "-//W3C//DTD SVG 1.1//EN" "http://www.w3.org/Graphics/SVG/1.1/DTD/svg11.dtd">
<svg width="100%" height="100%" viewBox="0 0 638 163" version="1.1" xmlns="http://www.w3.org/2000/svg" xmlns:xlink="http://www.w3.org/1999/xlink" xml:space="preserve" xmlns:serif="http://www.serif.com/" style="fill-rule:evenodd;clip-rule:evenodd;stroke-linejoin:round;stroke-miterlimit:2;">
    <g transform="matrix(1,0,0,1,-4823.55,-2339.17)">
        <g id="图层1">
        </g>
        <g id="Artboard5" transform="matrix(1.27298,0,0,1,-476.687,188.332)">
            <rect x="4163.65" y="2150.84" width="501.139" height="162.726" style="fill:none;"/>
            <g transform="matrix(1.03215,0,0,1,-153.951,0.892833)">
                <path d="M4223.3,2293.06L4192.86,2293.06L4225.89,2169.56L4243.76,2169.56C4244.62,2178.38 4241.6,2182.15 4237.84,2188.94C4232.69,2198.2 4231.83,2209.5 4242.21,2215.19C4242.55,2215.27 4243.42,2214.61 4243.26,2214.27C4234.08,2194.16 4257.78,2187.1 4246.55,2169.56L4260.83,2169.56C4260.61,2175.88 4257.96,2179.46 4254.75,2185.21C4249.63,2194.46 4248.74,2205.78 4259.13,2211.46C4259.46,2211.54 4260.34,2210.89 4260.2,2210.53C4251.7,2191.91 4271.38,2184.49 4265.41,2169.56L4662.74,2169.56L4629.71,2293.06L4271.87,2293.06L4276.98,2291.93C4276.98,2291.93 4306.16,2281.29 4301.51,2275.3L4223.53,2292.48C4223.43,2292.68 4223.35,2292.87 4223.3,2293.06ZM4337.67,2230.04L4337.35,2230.36L4337.67,2230.79L4363.53,2230.79L4363.77,2230.36L4363.53,2230.04L4337.67,2230.04ZM4441.02,2214.22L4440.45,2214.54L4420.49,2214.54C4419.74,2214.54 4418.9,2214.24 4417.99,2213.64C4417.07,2213.04 4416.13,2212.38 4415.16,2211.68C4414.19,2210.97 4413.23,2210.31 4412.29,2209.71C4411.35,2209.11 4410.53,2208.81 4409.83,2208.81C4409.29,2208.81 4409.02,2209.13 4409.02,2209.76C4409.02,2214.3 4409.1,2218.81 4409.26,2223.3C4409.42,2227.8 4409.5,2232.31 4409.5,2236.84C4409.5,2237.33 4409.64,2237.63 4409.91,2237.74C4410.18,2237.85 4410.45,2237.9 4410.72,2237.9C4412.06,2237.9 4413.33,2237.62 4414.51,2237.05C4415.7,2236.48 4416.83,2235.86 4417.91,2235.19C4418.98,2234.52 4420.06,2233.9 4421.14,2233.33C4422.22,2232.77 4423.32,2232.49 4424.45,2232.49C4424.99,2232.49 4425.26,2232.84 4425.26,2233.55C4425.26,2235.46 4425.25,2237.35 4425.22,2239.23C4425.19,2241.1 4425.18,2242.99 4425.18,2244.91C4425.18,2250.64 4425.26,2256.37 4425.42,2262.11C4425.58,2267.84 4425.66,2273.57 4425.66,2279.3C4425.66,2280.01 4425.93,2280.37 4426.47,2280.37C4427.01,2280.37 4427.78,2280.33 4428.78,2280.26C4429.77,2280.19 4430.76,2280.01 4431.72,2279.73C4432.69,2279.45 4433.54,2279.02 4434.27,2278.45C4435,2277.89 4435.36,2277.11 4435.36,2276.12L4435.36,2233.23C4435.36,2232.52 4435.63,2232.17 4436.17,2232.17C4436.92,2232.17 4437.73,2232.15 4438.59,2232.11C4439.45,2232.08 4440.26,2232.13 4441.02,2232.27C4441.39,2232.34 4441.65,2232.57 4441.78,2232.96C4441.92,2233.35 4442.03,2233.76 4442.11,2234.18C4442.19,2234.61 4442.3,2234.98 4442.43,2235.3C4442.57,2235.62 4442.82,2235.78 4443.2,2235.78C4443.68,2235.78 4444.29,2235.74 4445.02,2235.67C4445.74,2235.6 4446.5,2235.51 4447.28,2235.4C4448.06,2235.3 4448.8,2235.16 4449.5,2234.98C4450.2,2234.8 4450.79,2234.61 4451.28,2234.4C4451.39,2234.33 4451.59,2234.22 4451.88,2234.08C4452.18,2233.94 4452.33,2233.79 4452.33,2233.65L4452.33,2220.06C4452.33,2219.64 4452.56,2219.2 4453.02,2218.74C4453.47,2218.28 4453.81,2217.91 4454.03,2217.62L4454.27,2216.88C4454.11,2216.31 4453.68,2215.59 4452.98,2214.7C4452.28,2213.82 4451.48,2212.93 4450.59,2212.05C4449.7,2211.16 4448.83,2210.37 4447.97,2209.66C4447.1,2208.95 4446.46,2208.46 4446.03,2208.17L4445.54,2208.39L4441.02,2214.22ZM4442.15,2216.98L4442.39,2217.73L4442.39,2229.72C4442.39,2230.43 4442.12,2230.79 4441.58,2230.79L4420.01,2230.79C4419.47,2230.79 4419.2,2230.43 4419.2,2229.72L4419.2,2216.98C4419.2,2216.28 4419.47,2215.92 4420.01,2215.92L4441.02,2215.92L4441.58,2216.24L4442.15,2216.98ZM4407.16,2202.76L4407,2202.97L4407.24,2203.18C4409.07,2203.18 4410.88,2203.2 4412.65,2203.24C4414.43,2203.27 4416.24,2203.32 4418.07,2203.39C4423.99,2203.61 4429.89,2203.73 4435.76,2203.77C4441.64,2203.8 4447.53,2203.82 4453.46,2203.82C4454,2203.82 4454.27,2204.17 4454.27,2204.88L4454.27,2212.63C4454.27,2213.34 4454.48,2213.69 4454.91,2213.69C4455.29,2213.69 4456.03,2213.39 4457.14,2212.79C4458.24,2212.19 4459.44,2211.5 4460.73,2210.72C4462.03,2209.94 4463.28,2209.18 4464.49,2208.44C4465.7,2207.7 4466.63,2207.18 4467.28,2206.9C4467.44,2206.83 4467.61,2206.74 4467.8,2206.63C4467.99,2206.53 4468.09,2206.33 4468.09,2206.05C4467.98,2205.7 4467.53,2205.01 4466.75,2203.98C4465.97,2202.95 4465.07,2201.86 4464.05,2200.69C4463.02,2199.52 4462.04,2198.41 4461.1,2197.34L4459.12,2195.11C4458.9,2195.11 4458.55,2195.4 4458.07,2195.96C4457.58,2196.53 4457.07,2197.18 4456.53,2197.93C4455.99,2198.67 4455.48,2199.38 4454.99,2200.05C4454.51,2200.72 4454.16,2201.2 4453.94,2201.48L4453.38,2201.8C4451.6,2201.87 4449.81,2202.01 4448.01,2202.23C4446.2,2202.44 4444.41,2202.55 4442.63,2202.55C4442.31,2202.55 4442.07,2202.4 4441.9,2202.12L4441.99,2201.48C4442.69,2200.21 4443.59,2199.01 4444.69,2197.87C4445.8,2196.74 4446.97,2195.7 4448.21,2194.74C4449.45,2193.79 4450.7,2192.89 4451.97,2192.03C4453.23,2191.19 4454.4,2190.41 4455.48,2189.7C4455.91,2189.42 4456.13,2189.1 4456.13,2188.74C4456.13,2188.46 4456.06,2188.28 4455.92,2188.21C4455.79,2188.14 4455.64,2188.04 4455.48,2187.89C4455.05,2187.68 4454.28,2187.29 4453.18,2186.73C4452.07,2186.16 4450.89,2185.6 4449.62,2185.03C4448.36,2184.46 4447.17,2183.97 4446.07,2183.54C4444.96,2183.12 4444.22,2182.87 4443.85,2182.8C4443.36,2183.15 4443.04,2183.9 4442.88,2185.03C4442.71,2186.16 4442.61,2187.45 4442.55,2188.9C4442.5,2190.35 4442.43,2191.89 4442.35,2193.52C4442.27,2195.15 4442.09,2196.62 4441.82,2197.93C4441.56,2199.24 4441.12,2200.33 4440.53,2201.22C4439.94,2202.1 4439.1,2202.55 4438.03,2202.55C4437.6,2202.55 4437.14,2202.49 4436.65,2202.39C4436.17,2202.28 4435.93,2201.84 4435.93,2201.06L4435.93,2185.88L4436.17,2185.14C4436.28,2184.99 4436.49,2184.73 4436.82,2184.34C4437.14,2183.95 4437.3,2183.65 4437.3,2183.44C4437.3,2183.22 4437.16,2183.06 4436.9,2182.96C4436.63,2182.85 4436.44,2182.76 4436.33,2182.69C4434.77,2182.2 4433.06,2181.83 4431.2,2181.58C4429.34,2181.33 4427.6,2181.21 4425.99,2181.21C4425.45,2181.21 4425.18,2181.56 4425.18,2182.27L4425.18,2201.8C4425.18,2202.23 4424.95,2202.46 4424.49,2202.49C4424.03,2202.53 4423.7,2202.55 4423.48,2202.55C4422.14,2202.55 4420.8,2202.42 4419.48,2202.17C4418.16,2201.93 4416.83,2201.8 4415.48,2201.8C4414.19,2201.8 4412.9,2201.91 4411.61,2202.12C4410.31,2202.33 4409.02,2202.44 4407.73,2202.44L4407.16,2202.76ZM4407.57,2184.5C4407.94,2185.7 4408.31,2187.2 4408.65,2189.01C4409.01,2190.81 4409.42,2192.57 4409.91,2194.26C4410.39,2195.96 4411.03,2197.41 4411.81,2198.62C4412.59,2199.82 4413.62,2200.42 4414.92,2200.42C4416.37,2200.42 4417.57,2199.78 4418.51,2198.51C4419.46,2197.24 4419.93,2195.64 4419.93,2193.73C4419.93,2191.97 4419.52,2190.43 4418.72,2189.12C4417.91,2187.81 4416.92,2186.73 4415.77,2185.88C4414.61,2185.03 4413.36,2184.39 4412.01,2183.97C4410.66,2183.54 4409.42,2183.33 4408.29,2183.33C4407.7,2183.33 4407.46,2183.72 4407.57,2184.5ZM4337.11,2268.69L4337.67,2269.01L4363.53,2269.01L4363.77,2268.58L4363.53,2268.26L4337.19,2268.26C4337.08,2268.26 4337,2268.3 4336.94,2268.37L4337.11,2268.69ZM4403.44,2196.92C4403.23,2197.06 4402.82,2197.52 4402.23,2198.3C4401.64,2199.08 4400.97,2200.03 4400.21,2201.17C4399.46,2202.3 4398.68,2203.52 4397.87,2204.83C4397.06,2206.14 4396.32,2207.39 4395.65,2208.6C4394.97,2209.8 4394.42,2210.84 4393.99,2211.73C4393.56,2212.61 4393.34,2213.2 4393.34,2213.48C4393.34,2215.39 4393.88,2216.9 4394.96,2217.99C4396.04,2219.09 4397.28,2219.64 4398.68,2219.64C4400.19,2219.64 4401.41,2219.09 4402.35,2217.99C4403.3,2216.9 4404.02,2215.53 4404.53,2213.91C4405.05,2212.28 4405.38,2210.54 4405.54,2208.7C4405.71,2206.86 4405.79,2205.16 4405.79,2203.61C4405.79,2203.39 4405.69,2202.97 4405.5,2202.33C4405.32,2201.7 4405.09,2201.01 4404.82,2200.26C4404.55,2199.52 4404.28,2198.83 4404.01,2198.19C4403.74,2197.56 4403.55,2197.13 4403.44,2196.92ZM4369.99,2185.45L4369.51,2185.77L4368.3,2187.89C4367.81,2188.74 4367.28,2189.58 4366.72,2190.39C4366.15,2191.2 4365.57,2191.89 4364.98,2192.46C4364.39,2193.03 4363.8,2193.31 4363.2,2193.31L4335.89,2192.57C4335.36,2192.57 4334.57,2192.26 4333.55,2191.66C4332.53,2191.06 4331.46,2190.41 4330.36,2189.7C4329.25,2188.99 4328.23,2188.34 4327.29,2187.74C4326.35,2187.13 4325.66,2186.83 4325.23,2186.83C4324.69,2186.83 4324.42,2187.15 4324.42,2187.79L4324.42,2279.2C4324.42,2279.69 4324.62,2280.07 4325.02,2280.31C4325.43,2280.56 4325.77,2280.68 4326.03,2280.68C4326.57,2280.68 4327.33,2280.56 4328.3,2280.31C4329.27,2280.07 4330.24,2279.69 4331.21,2279.2C4332.18,2278.7 4333.04,2278.14 4333.79,2277.5C4334.55,2276.86 4335,2276.15 4335.17,2275.38C4335.38,2274.39 4335.53,2273.34 4335.61,2272.24C4335.69,2271.15 4335.73,2270.07 4335.73,2269.01L4335.73,2195.75C4335.73,2195.04 4336,2194.69 4336.54,2194.69L4364.58,2194.69C4365.12,2194.69 4365.39,2195.04 4365.39,2195.75L4365.39,2270.33C4365.39,2271.29 4365.4,2272.28 4365.43,2273.31C4365.45,2274.33 4365.49,2275.29 4365.55,2276.17C4365.6,2277.06 4365.68,2277.64 4365.79,2277.92C4366.06,2278.56 4366.36,2278.88 4366.68,2278.88L4367.89,2278.88C4368.38,2278.88 4369.14,2278.79 4370.19,2278.61C4371.24,2278.44 4372.28,2278.15 4373.31,2277.76C4374.33,2277.38 4375.23,2276.86 4376.01,2276.22C4376.79,2275.59 4377.18,2274.85 4377.18,2274L4377.18,2198.94C4377.18,2198.44 4377.3,2198.07 4377.55,2197.82C4377.79,2197.57 4378.05,2197.36 4378.31,2197.18C4378.58,2197.01 4378.84,2196.83 4379.08,2196.65C4379.32,2196.48 4379.44,2196.18 4379.44,2195.75C4379.44,2195.47 4379.02,2194.81 4378.15,2193.79C4377.29,2192.76 4376.31,2191.66 4375.2,2190.5C4374.1,2189.33 4373.03,2188.25 4372.01,2187.26C4370.99,2186.27 4370.32,2185.66 4369.99,2185.45ZM4596.16,2255.84C4596.05,2255.63 4595.89,2255.52 4595.67,2255.52C4594.59,2255.52 4593.52,2255.66 4592.44,2255.95C4591.36,2256.23 4590.28,2256.53 4589.21,2256.85C4588.13,2257.17 4587.05,2257.47 4585.98,2257.75C4584.9,2258.03 4583.82,2258.18 4582.74,2258.18C4582.2,2258.18 4581.94,2257.82 4581.94,2257.12L4581.94,2229.41C4581.94,2228.7 4582.2,2228.34 4582.74,2228.34L4593.65,2228.34C4593.87,2228.34 4594.08,2228.31 4594.3,2228.24C4594.51,2228.17 4594.62,2227.95 4594.62,2227.6C4594.62,2227.32 4594.26,2226.63 4593.53,2225.53C4592.8,2224.43 4591.99,2223.3 4591.11,2222.13C4590.22,2220.97 4589.34,2219.92 4588.48,2219C4587.62,2218.08 4587.08,2217.62 4586.86,2217.62C4586.65,2217.62 4586.27,2218.1 4585.73,2219.05C4585.19,2220.01 4584.61,2221.07 4584,2222.24C4583.38,2223.41 4582.78,2224.47 4582.22,2225.43C4581.65,2226.38 4581.26,2226.86 4581.05,2226.86L4558.83,2226.86C4558.72,2226.86 4558.57,2226.91 4558.38,2227.02C4558.19,2227.12 4558.1,2227.28 4558.1,2227.49C4558.1,2227.71 4558.15,2227.95 4558.26,2228.24C4558.37,2228.52 4558.53,2228.66 4558.74,2228.66L4570.3,2228.66C4570.84,2228.66 4571.11,2229.02 4571.11,2229.72L4571.11,2259.77C4571.11,2260.12 4570.81,2260.41 4570.22,2260.62C4569.63,2260.83 4569.22,2260.97 4569.01,2261.04C4567.34,2261.54 4565.67,2261.95 4564,2262.26C4562.33,2262.58 4560.63,2262.81 4558.91,2262.95C4558.8,2262.95 4558.56,2262.97 4558.18,2263.01L4557.05,2263.11C4556.67,2263.15 4556.33,2263.24 4556.04,2263.38C4555.74,2263.52 4555.59,2263.7 4555.59,2263.91C4555.59,2264.55 4555.88,2265.61 4556.44,2267.1C4557.01,2268.58 4557.68,2270.1 4558.46,2271.66C4559.24,2273.22 4560.04,2274.58 4560.85,2275.75C4561.65,2276.91 4562.3,2277.5 4562.78,2277.5C4563.43,2277.5 4564.02,2277.11 4564.56,2276.33C4565.1,2275.55 4565.67,2274.99 4566.26,2274.63C4567.66,2273.64 4569.13,2272.76 4570.66,2271.98C4572.2,2271.2 4573.69,2270.39 4575.15,2269.54C4577.84,2267.98 4580.51,2266.39 4583.15,2264.76L4591.07,2259.88C4591.34,2259.66 4591.74,2259.41 4592.28,2259.13C4592.82,2258.85 4593.36,2258.51 4593.89,2258.12C4594.43,2257.74 4594.92,2257.35 4595.35,2256.96C4595.78,2256.57 4596.05,2256.2 4596.16,2255.84ZM4498.63,2252.76L4498.39,2253.08L4498.63,2253.4L4513.9,2253.4L4514.79,2252.87C4514.47,2252.8 4513.56,2252.74 4512.08,2252.71C4510.6,2252.67 4508.96,2252.66 4507.15,2252.66C4505.35,2252.66 4503.62,2252.67 4501.98,2252.71C4500.34,2252.74 4499.22,2252.76 4498.63,2252.76ZM4501.38,2195.43L4501.13,2195.75L4501.38,2196.07C4501.65,2196.07 4502.13,2196.09 4502.83,2196.12C4503.53,2196.16 4504.26,2196.18 4505.01,2196.18C4505.77,2196.18 4506.47,2196.16 4507.11,2196.12C4507.76,2196.09 4508.16,2196 4508.32,2195.86L4508.49,2195.54C4508.38,2195.47 4507.99,2195.41 4507.31,2195.38C4506.64,2195.34 4505.91,2195.33 4505.13,2195.33C4504.35,2195.33 4503.6,2195.34 4502.87,2195.38C4502.14,2195.41 4501.65,2195.43 4501.38,2195.43ZM4555.84,2207.11L4556.4,2207.43L4593.41,2207.43L4593.98,2207.11L4594.14,2206.79C4594.08,2206.72 4594,2206.69 4593.89,2206.69L4555.92,2206.69C4555.81,2206.69 4555.73,2206.72 4555.67,2206.79L4555.84,2207.11ZM4549.05,2266.46L4548.81,2266.03C4547.68,2265.82 4546.14,2265.27 4544.2,2264.39C4542.26,2263.5 4540.3,2262.58 4538.3,2261.63C4536.31,2260.67 4534.48,2259.8 4532.81,2259.03C4531.14,2258.25 4530.03,2257.86 4529.49,2257.86C4529.28,2257.86 4529.16,2257.98 4529.13,2258.23C4529.1,2258.48 4529.09,2258.67 4529.09,2258.81C4529.09,2260.51 4529.47,2262.58 4530.22,2265.03C4530.98,2267.47 4531.96,2269.84 4533.17,2272.14C4534.38,2274.44 4535.73,2276.38 4537.21,2277.98C4538.69,2279.57 4540.16,2280.37 4541.61,2280.37C4541.99,2280.37 4542.36,2279.82 4542.71,2278.72C4543.06,2277.62 4543.49,2276.33 4544,2274.85C4544.51,2273.36 4545.14,2271.87 4545.9,2270.39C4546.65,2268.9 4547.62,2267.77 4548.81,2266.99L4549.05,2266.46ZM4423.24,2245.33L4423.4,2245.12C4423.24,2244.98 4422.76,2244.85 4421.95,2244.75C4421.14,2244.64 4420.24,2244.57 4419.24,2244.53L4416.33,2244.43C4415.39,2244.39 4414.76,2244.34 4414.43,2244.27C4413.57,2244.13 4412.64,2243.76 4411.65,2243.15C4410.65,2242.55 4409.66,2241.9 4408.7,2241.19C4407.73,2240.48 4406.77,2239.86 4405.83,2239.33C4404.89,2238.8 4404.04,2238.54 4403.28,2238.54C4402.74,2238.54 4402.47,2238.86 4402.47,2239.49C4402.47,2245.65 4402.57,2251.74 4402.76,2257.75C4402.94,2263.77 4403.04,2269.86 4403.04,2276.01C4403.04,2276.37 4403.15,2276.6 4403.36,2276.7C4403.58,2276.81 4403.79,2276.86 4404.01,2276.86C4404.55,2276.86 4405.3,2276.77 4406.27,2276.6C4407.24,2276.42 4408.21,2276.14 4409.18,2275.75C4410.15,2275.36 4410.98,2274.85 4411.69,2274.21C4412.39,2273.57 4412.74,2272.79 4412.74,2271.87L4412.74,2246.71C4412.74,2246 4413.01,2245.65 4413.54,2245.65L4422.68,2245.65L4423.24,2245.33ZM4595.43,2206.37L4595.43,2207.01C4596.02,2209.06 4596.35,2211.2 4596.4,2213.43C4596.45,2215.66 4596.61,2217.87 4596.88,2220.06C4597.21,2223.18 4597.69,2226.8 4598.34,2230.95C4598.98,2235.09 4599.82,2239.37 4600.84,2243.79C4601.87,2248.22 4603.09,2252.59 4604.52,2256.9C4605.95,2261.22 4607.63,2265.06 4609.57,2268.42C4611.51,2271.78 4613.72,2274.51 4616.19,2276.6C4618.67,2278.68 4621.45,2279.73 4624.52,2279.73C4626.94,2279.73 4628.48,2279.18 4629.12,2278.08C4629.77,2276.99 4629.98,2275.62 4629.77,2274C4629.55,2272.37 4629.15,2270.6 4628.56,2268.69C4627.97,2266.78 4627.67,2265.01 4627.67,2263.38C4627.67,2261.47 4627.76,2259.56 4627.95,2257.65C4628.14,2255.74 4628.23,2253.82 4628.23,2251.91C4628.23,2251.7 4628.21,2251.47 4628.15,2251.22C4628.1,2250.97 4627.97,2250.82 4627.75,2250.74C4627.43,2250.67 4627.1,2251.14 4626.78,2252.12C4626.46,2253.12 4626.08,2254.23 4625.65,2255.47C4625.22,2256.71 4624.68,2257.86 4624.03,2258.92C4623.39,2259.98 4622.55,2260.51 4621.53,2260.51C4621.26,2260.51 4621.07,2260.44 4620.96,2260.3C4618.7,2257.89 4616.79,2255.12 4615.23,2251.97C4613.66,2248.82 4612.36,2245.49 4611.31,2241.99C4610.26,2238.48 4609.41,2234.86 4608.76,2231.1C4608.11,2227.35 4607.6,2223.67 4607.23,2220.06C4607.01,2218.22 4606.78,2216.42 4606.54,2214.65C4606.3,2212.88 4606.18,2211.07 4606.18,2209.23C4606.18,2208.74 4606.26,2208.31 4606.42,2207.96C4606.58,2207.61 4606.66,2207.18 4606.66,2206.69C4606.66,2206.19 4606.57,2205.73 4606.38,2205.31C4606.19,2204.88 4606.1,2204.39 4606.1,2203.82C4606.1,2203.25 4606.11,2202.7 4606.14,2202.17C4606.16,2201.64 4606.2,2201.1 4606.26,2200.53C4606.31,2199.89 4606.34,2198.92 4606.34,2197.61C4606.34,2196.3 4606.35,2194.94 4606.38,2193.52C4606.4,2192.11 4606.43,2190.8 4606.46,2189.59C4606.48,2188.39 4606.55,2187.61 4606.66,2187.26C4606.82,2186.62 4607.02,2186.18 4607.27,2185.93C4607.51,2185.68 4607.75,2185.51 4607.99,2185.4C4608.24,2185.29 4608.47,2185.2 4608.68,2185.14C4608.9,2185.06 4609.09,2184.89 4609.25,2184.6L4608.6,2183.97C4607.15,2183.61 4605.66,2183.42 4604.16,2183.38C4602.65,2183.35 4601.17,2183.19 4599.71,2182.91C4599.12,2182.76 4598.57,2182.62 4598.06,2182.48C4597.54,2182.34 4596.99,2182.27 4596.4,2182.27C4596.07,2182.27 4595.82,2182.32 4595.63,2182.43C4595.44,2182.53 4595.35,2182.83 4595.35,2183.33C4595.35,2186.73 4595.46,2190.14 4595.67,2193.58C4595.89,2197.01 4595.99,2200.42 4595.99,2203.82C4595.99,2204.39 4595.98,2204.85 4595.95,2205.2C4595.93,2205.55 4595.75,2205.94 4595.43,2206.37ZM4609.09,2207.43L4628.48,2207.43L4629.04,2207.11L4629.37,2206.58C4629.31,2206.16 4628.95,2205.68 4628.28,2205.15L4626.05,2203.39C4625.24,2202.76 4624.5,2202.03 4623.83,2201.22C4623.16,2200.41 4622.82,2199.54 4622.82,2198.62C4622.82,2197.63 4623.01,2196.69 4623.39,2195.8C4623.76,2194.92 4623.95,2193.98 4623.95,2192.99C4623.95,2191.08 4623.53,2189.61 4622.7,2188.59C4621.86,2187.56 4620.86,2186.8 4619.67,2186.3C4618.48,2185.81 4617.22,2185.51 4615.87,2185.4C4614.53,2185.29 4613.34,2185.24 4612.32,2185.24C4611.99,2185.24 4611.66,2185.26 4611.31,2185.29C4610.96,2185.33 4610.78,2185.66 4610.78,2186.3C4610.78,2187.15 4611.08,2188.04 4611.67,2188.96C4612.26,2189.88 4612.91,2190.87 4613.61,2191.93C4614.31,2192.99 4614.96,2194.12 4615.55,2195.33C4616.14,2196.53 4616.44,2197.84 4616.44,2199.26C4616.44,2200.39 4616.26,2201.36 4615.91,2202.17C4615.56,2202.99 4615.1,2203.68 4614.54,2204.24C4613.97,2204.81 4613.33,2205.27 4612.6,2205.62C4611.87,2205.98 4611.16,2206.26 4610.46,2206.47C4610.08,2206.62 4609.69,2206.69 4609.29,2206.69C4608.88,2206.69 4608.49,2206.76 4608.11,2206.9C4608.22,2207.04 4608.37,2207.16 4608.56,2207.27C4608.75,2207.38 4608.92,2207.43 4609.09,2207.43ZM4474.47,2208.81L4474.15,2209.13L4474.47,2209.55L4481.5,2209.55L4481.74,2209.13L4481.5,2208.81L4474.47,2208.81ZM4520.12,2185.24C4520.34,2185.1 4520.54,2184.91 4520.73,2184.66C4520.92,2184.41 4521.04,2184.11 4521.09,2183.75C4520.98,2183.54 4520.46,2183.31 4519.52,2183.06C4518.57,2182.82 4517.54,2182.62 4516.4,2182.48C4515.27,2182.34 4514.18,2182.22 4513.13,2182.11C4512.08,2182 4511.4,2181.95 4511.07,2181.95C4510.53,2181.95 4510.26,2182.3 4510.26,2183.01L4510.26,2204.56C4510.26,2205.06 4510.43,2205.31 4510.75,2205.31L4511.64,2205.31C4512.12,2205.31 4512.74,2205.29 4513.5,2205.25C4514.25,2205.22 4515,2205.11 4515.76,2204.93C4516.51,2204.76 4517.2,2204.51 4517.82,2204.19C4518.44,2203.87 4518.91,2203.39 4519.23,2202.76C4519.34,2202.55 4519.39,2201.68 4519.39,2200.16L4519.39,2194.95C4519.39,2193.01 4519.44,2191.12 4519.52,2189.28C4519.6,2187.43 4519.8,2186.09 4520.12,2185.24ZM4497.01,2279.41L4496.77,2280.05L4497.01,2280.26C4500.14,2279.55 4503.13,2278.64 4505.98,2277.51C4508.84,2276.38 4511.49,2274.88 4513.94,2273.01C4516.39,2271.13 4518.61,2268.8 4520.61,2266.02C4522.6,2263.23 4524.32,2259.86 4525.78,2255.9C4526.42,2254.07 4526.9,2252.2 4527.19,2250.29C4527.49,2248.38 4527.74,2246.44 4527.96,2244.47C4527.96,2244.25 4527.99,2243.9 4528.04,2243.41C4528.09,2242.91 4528.16,2242.37 4528.24,2241.77C4528.32,2241.16 4528.39,2240.64 4528.44,2240.18C4528.5,2239.72 4528.55,2239.45 4528.61,2239.38C4528.82,2238.96 4529.06,2238.71 4529.33,2238.64C4529.6,2238.57 4529.93,2238.54 4530.3,2238.54C4531.65,2238.54 4532.47,2238.76 4532.77,2239.21C4533.06,2239.66 4533.24,2240.14 4533.29,2240.66C4533.35,2241.18 4533.43,2241.66 4533.53,2242.11C4533.64,2242.56 4534.18,2242.78 4535.15,2242.78C4535.42,2242.78 4535.8,2242.71 4536.28,2242.57C4536.77,2242.43 4537.25,2242.32 4537.74,2242.25C4538.22,2242.18 4538.68,2242.18 4539.11,2242.25C4539.54,2242.32 4539.81,2242.61 4539.92,2243.1C4539.97,2243.24 4539.92,2243.51 4539.76,2243.9C4539.6,2244.29 4539.41,2244.69 4539.19,2245.12C4538.98,2245.54 4538.75,2245.95 4538.5,2246.34C4538.26,2246.73 4538.11,2246.99 4538.06,2247.14C4537.36,2248.41 4536.73,2249.38 4536.16,2250.05C4535.6,2250.73 4535,2251.24 4534.38,2251.6C4533.76,2251.95 4533.08,2252.2 4532.32,2252.34C4531.57,2252.48 4530.63,2252.62 4529.49,2252.76C4529.39,2252.76 4529.31,2252.8 4529.25,2252.87L4529.41,2253.19C4529.63,2253.33 4529.82,2253.4 4529.98,2253.4C4530.19,2253.47 4530.81,2253.51 4531.84,2253.51L4540,2253.51C4541.61,2253.51 4543.1,2253.49 4544.44,2253.45C4545.79,2253.42 4546.92,2253.38 4547.84,2253.35C4548.75,2253.31 4549.24,2253.26 4549.29,2253.19C4549.4,2253.05 4549.45,2252.87 4549.45,2252.66C4549.45,2252.37 4549.03,2251.84 4548.2,2251.06C4547.36,2250.28 4546.44,2249.38 4545.41,2248.36C4544.39,2247.33 4543.46,2246.25 4542.62,2245.12C4541.79,2243.99 4541.37,2242.92 4541.37,2241.93C4541.37,2241.08 4541.61,2240.5 4542.1,2240.18C4542.59,2239.86 4542.83,2239.42 4542.83,2238.86L4542.83,2215.82C4542.83,2215.46 4543.06,2215.04 4543.51,2214.54C4543.97,2214.05 4544.31,2213.66 4544.52,2213.38L4544.77,2212.63C4544.71,2211.57 4544.24,2210.67 4543.35,2209.92C4542.46,2209.18 4541.51,2208.4 4540.48,2207.59C4539.46,2206.78 4538.53,2205.8 4537.7,2204.67C4536.86,2203.54 4536.44,2202.05 4536.44,2200.21C4536.44,2200 4536.46,2199.68 4536.48,2199.26C4536.51,2198.83 4536.57,2198.41 4536.65,2197.98C4536.73,2197.56 4536.85,2197.2 4537.01,2196.92C4537.17,2196.64 4537.39,2196.49 4537.66,2196.49L4548.08,2196.49C4548.46,2196.49 4548.69,2196.32 4548.77,2195.96C4548.85,2195.61 4548.83,2195.26 4548.73,2194.9C4548.67,2194.83 4548.3,2194.35 4547.59,2193.47C4546.89,2192.58 4546.11,2191.63 4545.25,2190.6C4544.39,2189.58 4543.58,2188.64 4542.83,2187.79C4542.07,2186.94 4541.61,2186.51 4541.45,2186.51C4541.13,2186.66 4540.75,2187.15 4540.32,2188L4539.03,2190.55C4538.6,2191.4 4538.18,2192.09 4537.78,2192.62C4537.37,2193.15 4537.06,2193.24 4536.85,2192.89C4536.74,2192.74 4536.67,2192.35 4536.65,2191.72C4536.62,2191.08 4536.61,2190.37 4536.61,2189.59C4536.61,2188.82 4536.62,2188.07 4536.65,2187.36C4536.67,2186.66 4536.69,2186.16 4536.69,2185.88L4536.93,2185.14L4537.41,2184.5C4537.57,2184.28 4537.71,2184.04 4537.82,2183.75C4537.55,2183.54 4536.93,2183.33 4535.96,2183.12C4534.99,2182.91 4533.93,2182.69 4532.77,2182.48C4531.61,2182.27 4530.52,2182.11 4529.49,2182C4528.47,2181.9 4527.77,2181.84 4527.39,2181.84C4527.18,2181.84 4527.03,2182.02 4526.95,2182.37C4526.87,2182.73 4526.82,2183.14 4526.79,2183.6C4526.76,2184.05 4526.76,2184.5 4526.79,2184.92C4526.82,2185.35 4526.83,2185.66 4526.83,2185.88C4526.83,2186.73 4526.82,2187.97 4526.79,2189.59C4526.76,2191.22 4526.76,2192.94 4526.79,2194.74C4526.82,2196.55 4526.87,2198.21 4526.95,2199.73C4527.03,2201.25 4527.18,2202.33 4527.39,2202.97C4527.66,2203.61 4527.93,2203.93 4528.2,2203.93L4529.25,2203.93C4530.17,2203.93 4531.1,2203.82 4532.04,2203.61C4532.98,2203.39 4533.91,2203.29 4534.83,2203.29C4535.2,2203.29 4535.43,2203.47 4535.51,2203.82C4535.6,2204.17 4535.61,2204.53 4535.56,2204.88C4535.56,2205.09 4535.37,2205.5 4534.99,2206.1C4534.61,2206.7 4534.19,2207.31 4533.74,2207.91C4533.28,2208.51 4532.83,2209.06 4532.4,2209.55C4531.97,2210.05 4531.68,2210.3 4531.52,2210.3L4514.55,2210.3C4513.41,2210.3 4512.27,2210.05 4511.11,2209.55C4509.95,2209.06 4508.8,2208.44 4507.64,2207.7C4506.48,2206.95 4505.38,2206.14 4504.32,2205.25C4503.27,2204.37 4502.32,2203.5 4501.46,2202.65C4501.03,2202.23 4500.58,2201.71 4500.12,2201.11C4499.66,2200.51 4499.19,2200.03 4498.71,2199.68L4498.31,2200C4498.2,2200.35 4498.04,2200.87 4497.82,2201.54C4497.61,2202.21 4497.34,2202.86 4497.01,2203.5C4496.69,2204.14 4496.35,2204.69 4496,2205.15C4495.65,2205.61 4495.32,2205.84 4494.99,2205.84C4494.72,2205.84 4494.59,2205.59 4494.59,2205.09C4494.32,2202.55 4494.17,2200 4494.14,2197.45C4494.12,2194.9 4494.1,2192.32 4494.1,2189.7C4494.1,2189.35 4494.09,2188.96 4494.06,2188.53C4494.04,2188.11 4494.05,2187.72 4494.1,2187.36C4494.16,2187.08 4494.29,2186.76 4494.51,2186.41C4494.72,2186.05 4494.97,2185.7 4495.23,2185.35L4495.96,2184.39C4496.18,2184.11 4496.28,2183.86 4496.28,2183.65C4496.28,2183.29 4496.06,2183.1 4495.6,2183.06C4495.14,2183.03 4494.83,2183.01 4494.67,2183.01C4493,2182.94 4491.34,2182.73 4489.7,2182.37C4488.06,2182.02 4486.37,2181.84 4484.65,2181.84C4484.11,2181.84 4483.84,2182.2 4483.84,2182.91L4483.84,2208.17C4483.84,2211.14 4483.67,2214.22 4483.32,2217.41C4482.97,2220.59 4482.48,2223.78 4481.86,2226.96C4481.24,2230.15 4480.52,2233.28 4479.68,2236.36C4478.85,2239.44 4477.94,2242.29 4476.97,2244.91L4474.23,2252.55C4474.17,2252.69 4474.15,2252.9 4474.15,2253.19C4474.15,2253.47 4474.2,2253.68 4474.31,2253.82C4474.52,2253.61 4474.9,2253.19 4475.44,2252.55C4475.98,2251.91 4476.54,2251.19 4477.14,2250.37C4477.73,2249.56 4478.31,2248.78 4478.87,2248.04L4480.12,2246.39C4480.66,2245.68 4481.14,2244.94 4481.54,2244.16C4481.94,2243.38 4482.36,2242.57 4482.79,2241.72C4482.95,2241.37 4483.14,2241.01 4483.36,2240.66C4483.57,2240.31 4483.84,2240.06 4484.16,2239.92C4484.33,2240.13 4484.41,2240.34 4484.41,2240.55L4484.41,2279.52C4484.41,2280.22 4484.68,2280.58 4485.22,2280.58C4485.65,2280.58 4486.36,2280.51 4487.36,2280.37C4488.35,2280.22 4489.38,2280.01 4490.43,2279.73C4491.48,2279.45 4492.39,2279.06 4493.17,2278.56C4493.95,2278.07 4494.35,2277.46 4494.35,2276.76L4494.35,2226.22C4494.35,2225.94 4494.49,2225.67 4494.79,2225.43C4495.09,2225.18 4495.32,2225.05 4495.48,2225.05C4495.8,2225.05 4496.06,2225.36 4496.24,2225.96C4496.43,2226.57 4496.57,2227.28 4496.65,2228.1C4496.73,2228.92 4496.78,2229.72 4496.81,2230.51C4496.84,2231.3 4496.88,2231.83 4496.93,2232.12C4497.09,2233.54 4497.34,2234.66 4497.66,2235.49C4497.98,2236.31 4498.41,2236.95 4498.95,2237.41C4499.49,2237.88 4500.11,2238.25 4500.81,2238.53C4501.51,2238.82 4502.32,2239.1 4503.23,2239.39C4503.77,2239.6 4504.04,2240.09 4504.04,2240.87L4504.04,2243.31C4504.04,2244.16 4504.2,2244.94 4504.53,2245.65C4504.85,2246.36 4505.63,2246.71 4506.87,2246.71C4507.79,2246.71 4508.65,2246.29 4509.46,2245.44C4510.26,2244.59 4511.03,2243.67 4511.76,2242.68C4512.49,2241.69 4513.19,2240.77 4513.86,2239.92C4514.53,2239.07 4515.17,2238.64 4515.76,2238.64C4516.46,2238.64 4516.89,2238.82 4517.05,2239.17C4517.21,2239.52 4517.29,2240.12 4517.29,2240.97C4517.29,2245.77 4516.84,2250.11 4515.92,2254C4515,2257.88 4513.68,2261.37 4511.96,2264.48C4510.24,2267.59 4508.12,2270.36 4505.62,2272.79C4503.11,2275.23 4500.24,2277.44 4497.01,2279.41ZM4532.57,2236.84L4532,2237.16L4529.98,2237.16C4529.01,2237.16 4527.91,2237.14 4526.67,2237.1C4525.43,2237.07 4524.12,2237.03 4522.75,2237C4521.37,2236.96 4520.1,2236.91 4518.91,2236.84C4517.72,2236.77 4516.73,2236.7 4515.92,2236.62C4515.11,2236.55 4514.6,2236.48 4514.39,2236.41C4514.17,2236.27 4513.97,2236.13 4513.78,2235.99C4513.59,2235.85 4513.5,2235.6 4513.5,2235.24L4513.5,2213.48C4513.5,2212.77 4513.77,2212.42 4514.3,2212.42L4532.08,2212.42C4532.62,2212.42 4532.89,2212.77 4532.89,2213.48L4532.89,2235.99L4532.65,2236.73L4532.57,2236.84ZM4515.44,2224.31C4515.49,2224.38 4515.57,2224.42 4515.68,2224.42L4527.19,2224.42C4528.24,2224.42 4529.1,2224.4 4529.78,2224.36C4530.45,2224.33 4530.84,2224.31 4530.95,2224.31C4530.9,2224.1 4530.75,2223.94 4530.51,2223.83C4530.26,2223.73 4530.09,2223.67 4529.98,2223.67L4516.4,2223.67C4516.3,2223.67 4516.12,2223.73 4515.88,2223.83C4515.64,2223.94 4515.49,2224.1 4515.44,2224.31ZM4494.67,2210.3L4502.99,2210.3C4503.32,2210.3 4503.5,2210.38 4503.56,2210.56L4503.8,2211.36C4503.96,2212.35 4504.08,2213.48 4504.16,2214.76C4504.24,2216.03 4504.3,2217.32 4504.32,2218.63C4504.35,2219.94 4504.36,2221.23 4504.36,2222.51L4504.36,2226.01C4504.36,2226.58 4504.12,2226.86 4503.64,2226.86C4503.37,2226.86 4502.76,2226.54 4501.82,2225.9C4500.88,2225.26 4499.91,2224.52 4498.91,2223.67C4497.91,2222.82 4496.98,2221.99 4496.12,2221.18C4495.26,2220.36 4494.78,2219.78 4494.67,2219.43C4494.56,2219.21 4494.48,2218.74 4494.43,2217.99C4494.37,2217.25 4494.33,2216.47 4494.31,2215.66L4494.23,2213.27C4494.2,2212.49 4494.18,2211.92 4494.18,2211.57L4494.18,2210.72C4494.18,2210.44 4494.35,2210.3 4494.67,2210.3ZM4437.3,2244.8C4437.57,2245.3 4438.04,2245.6 4438.71,2245.7C4439.39,2245.81 4440.15,2245.84 4441.02,2245.81C4441.88,2245.77 4442.77,2245.7 4443.68,2245.6C4444.6,2245.49 4445.45,2245.42 4446.23,2245.38C4447.01,2245.35 4447.64,2245.4 4448.13,2245.54C4448.61,2245.68 4448.85,2246 4448.85,2246.5C4448.85,2246.99 4448.84,2248.06 4448.81,2249.68C4448.79,2251.31 4448.75,2253.01 4448.69,2254.78C4448.64,2256.55 4448.57,2258.16 4448.49,2259.61C4448.41,2261.06 4448.32,2261.89 4448.21,2262.11C4447.94,2262.6 4447.57,2262.88 4447.12,2262.95C4446.66,2263.03 4446.22,2263.04 4445.78,2263.01C4445.35,2262.97 4444.99,2262.97 4444.69,2263.01C4444.4,2263.04 4444.25,2263.27 4444.25,2263.7C4444.25,2263.91 4444.29,2264.1 4444.37,2264.28C4444.45,2264.46 4444.55,2264.62 4444.65,2264.76C4445.3,2266.03 4445.85,2267.33 4446.31,2268.63C4446.77,2269.94 4447.05,2271.38 4447.16,2272.93L4447.16,2274C4447.16,2274.42 4447.17,2274.85 4447.2,2275.27C4447.23,2275.69 4447.31,2276.05 4447.44,2276.33C4447.57,2276.61 4447.8,2276.76 4448.13,2276.76C4448.88,2276.76 4449.86,2276.54 4451.08,2276.12C4452.29,2275.69 4453.46,2275.11 4454.59,2274.37C4455.72,2273.62 4456.71,2272.72 4457.54,2271.66C4458.38,2270.6 4458.79,2269.47 4458.79,2268.26L4458.79,2262.64C4458.79,2261.29 4458.78,2259.86 4458.75,2258.34C4458.73,2256.81 4458.73,2255.43 4458.75,2254.2C4458.78,2252.96 4458.81,2251.91 4458.83,2251.06C4458.86,2250.21 4458.9,2249.75 4458.95,2249.68C4459.06,2249.54 4459.25,2249.35 4459.52,2249.1L4460.33,2248.36C4460.6,2248.11 4460.83,2247.84 4461.02,2247.56C4461.2,2247.28 4461.3,2247.03 4461.3,2246.82C4461.3,2246.61 4460.89,2245.99 4460.09,2244.96C4459.28,2243.93 4458.36,2242.87 4457.34,2241.77C4456.32,2240.68 4455.35,2239.69 4454.43,2238.8C4453.51,2237.92 4452.95,2237.47 4452.73,2237.47C4452.46,2237.47 4452.06,2237.85 4451.52,2238.59C4450.98,2239.33 4450.42,2240.15 4449.82,2241.03C4449.23,2241.92 4448.67,2242.73 4448.13,2243.47C4447.59,2244.22 4447.18,2244.59 4446.91,2244.59L4441.82,2244.59C4440.75,2244.59 4439.76,2244.61 4438.88,2244.64C4437.99,2244.68 4437.46,2244.73 4437.3,2244.8ZM4306.43,2220.93C4305.08,2219.08 4302.52,2217.04 4297.92,2218.05L4292.56,2219.23C4292.07,2214.74 4291.47,2211.85 4291.47,2211.85L4217.1,2228.24C4217.1,2228.24 4217.96,2247.33 4226.2,2260.65C4231.37,2268.94 4234.12,2271.06 4238.13,2274.85C4244.86,2281.18 4251.79,2279.66 4251.79,2279.66L4271.31,2275.35C4271.31,2275.35 4278.23,2273.83 4282.97,2265.2C4284.05,2263.16 4285.08,2261.44 4286.05,2259.46C4305.45,2253.72 4308.12,2234.66 4308.41,2232.14C4308.62,2230.76 4309.27,2224.9 4306.43,2220.93ZM4301.81,2230.42L4301.75,2230.89C4301.74,2231.01 4300.66,2242.25 4290.35,2248.35C4290.54,2247.74 4290.72,2247.08 4290.92,2246.39C4292.61,2240.23 4293.1,2233.76 4293.05,2228.09L4299.03,2226.77C4300.62,2226.42 4301.37,2226.76 4301.54,2226.99C4301.93,2227.52 4301.98,2229.27 4301.81,2230.42ZM4525.13,2196.07L4525.37,2195.75L4525.13,2195.43C4524.97,2195.43 4524.69,2195.41 4524.28,2195.38C4523.88,2195.34 4523.46,2195.33 4523.03,2195.33C4522.6,2195.33 4522.2,2195.34 4521.82,2195.38C4521.44,2195.41 4521.23,2195.47 4521.17,2195.54L4521.33,2195.86C4521.49,2196 4521.74,2196.09 4522.06,2196.12C4522.38,2196.16 4522.75,2196.18 4523.15,2196.18C4523.56,2196.18 4523.93,2196.16 4524.28,2196.12C4524.63,2196.09 4524.92,2196.07 4525.13,2196.07Z" style="fill:white;"/>
            </g>
        </g>
    </g>
</svg>
