<?xml version="1.0" encoding="UTF-8" standalone="no"?>
<!DOCTYPE svg PUBLIC "-//W3C//DTD SVG 1.1//EN" "http://www.w3.org/Graphics/SVG/1.1/DTD/svg11.dtd">
<svg width="100%" height="100%" viewBox="0 0 638 163" version="1.1" xmlns="http://www.w3.org/2000/svg" xmlns:xlink="http://www.w3.org/1999/xlink" xml:space="preserve" xmlns:serif="http://www.serif.com/" style="fill-rule:evenodd;clip-rule:evenodd;stroke-linejoin:round;stroke-miterlimit:2;">
    <g transform="matrix(1,0,0,1,-4823.55,-2150)">
        <g id="图层1">
        </g>
        <g id="Artboard5" transform="matrix(1.27298,0,0,1,-476.687,-0.83904)">
            <rect x="4163.65" y="2150.84" width="501.139" height="162.726" style="fill:none;"/>
            <g transform="matrix(1.03215,0,0,1,-153.951,0.892833)">
                <path d="M4266.22,2293.06L4192.86,2293.06L4214.36,2212.66L4235.16,2230.2L4240.95,2279.45L4256.07,2233.75L4286.04,2220.98L4259.52,2198.62L4256.11,2169.56L4662.74,2169.56L4629.71,2293.06L4273.16,2293.06L4277.27,2280.63L4295.58,2272.83L4279.39,2259.18L4275.85,2229.1L4266.62,2257.01L4248.31,2264.81L4264.51,2278.47L4266.22,2293.06ZM4216.55,2204.47L4225.89,2169.56L4247.06,2169.56L4238.62,2195.07L4216.55,2204.47ZM4385.83,2253.82L4386.07,2253.08C4386.23,2252.94 4386.56,2252.62 4387.04,2252.12C4387.53,2251.63 4387.77,2251.24 4387.77,2250.96C4387.77,2250.82 4387.46,2250.34 4386.84,2249.52C4386.22,2248.71 4385.52,2247.86 4384.74,2246.98C4383.96,2246.09 4383.22,2245.3 4382.52,2244.59C4381.82,2243.88 4381.39,2243.53 4381.22,2243.53C4380.85,2243.53 4380.47,2243.79 4380.09,2244.32C4379.72,2244.85 4379.3,2245.44 4378.84,2246.07C4378.38,2246.71 4377.88,2247.3 4377.35,2247.83C4376.81,2248.36 4376.21,2248.62 4375.57,2248.62C4375.3,2248.62 4374.89,2248.59 4374.36,2248.52C4373.82,2248.45 4373.52,2248.2 4373.47,2247.77L4372.9,2240.24C4372.85,2239.88 4372.94,2239.46 4373.18,2238.96C4373.43,2238.47 4373.71,2238.22 4374.03,2238.22L4383.24,2238.22C4383.4,2238.22 4383.57,2238.11 4383.73,2237.9C4383.89,2237.69 4384,2237.47 4384.05,2237.26C4383.94,2236.98 4383.66,2236.5 4383.2,2235.83C4382.74,2235.16 4382.21,2234.45 4381.59,2233.71C4380.97,2232.96 4380.38,2232.27 4379.81,2231.64C4379.24,2231 4378.85,2230.57 4378.64,2230.36C4378.58,2230.29 4378.49,2230.2 4378.36,2230.1C4378.22,2229.99 4378.13,2229.97 4378.07,2230.04L4377.59,2230.36C4377.48,2230.57 4377.26,2230.98 4376.94,2231.58C4376.62,2232.18 4376.25,2232.84 4375.85,2233.55C4375.45,2234.25 4375.07,2234.87 4374.72,2235.4C4374.37,2235.93 4374.14,2236.2 4374.03,2236.2C4373.87,2236.2 4373.76,2236.16 4373.71,2236.09L4373.47,2235.35L4373.47,2227.28C4373.47,2226.93 4373.6,2226.7 4373.87,2226.59C4374.14,2226.49 4374.38,2226.43 4374.6,2226.43C4375.19,2226.43 4375.78,2226.58 4376.38,2226.86C4376.97,2227.14 4377.56,2227.28 4378.15,2227.28C4378.37,2227.28 4378.79,2227.26 4379.4,2227.23C4380.03,2227.19 4380.67,2227.11 4381.34,2226.96C4382.02,2226.82 4382.62,2226.66 4383.16,2226.49C4383.7,2226.31 4383.97,2226.04 4383.97,2225.69C4383.97,2225.55 4383.72,2225.12 4383.2,2224.42C4382.69,2223.71 4382.11,2222.93 4381.47,2222.08C4380.82,2221.23 4380.2,2220.43 4379.61,2219.69C4379.02,2218.95 4378.64,2218.47 4378.48,2218.26L4378.07,2218.05L4377.59,2218.37C4377.43,2218.72 4377.18,2219.21 4376.86,2219.85C4376.54,2220.49 4376.19,2221.14 4375.81,2221.82C4375.43,2222.49 4375.06,2223.09 4374.68,2223.62C4374.3,2224.15 4373.98,2224.45 4373.71,2224.52C4373.6,2224.31 4373.51,2223.85 4373.43,2223.14C4373.35,2222.43 4373.26,2221.67 4373.18,2220.86C4373.1,2220.05 4373.03,2219.27 4372.98,2218.52C4372.93,2217.78 4372.9,2217.27 4372.9,2216.98C4372.9,2216.21 4373.09,2215.71 4373.47,2215.5C4373.84,2215.29 4374.27,2215.18 4374.76,2215.18C4375.35,2215.18 4375.89,2215.3 4376.38,2215.55C4376.86,2215.8 4377.4,2215.92 4377.99,2215.92C4379.07,2215.92 4380.16,2215.76 4381.26,2215.45C4382.37,2215.13 4383.46,2214.86 4384.54,2214.65L4384.78,2214.12C4384.62,2213.62 4384.21,2213.07 4383.57,2212.47C4382.92,2211.87 4382.25,2211.25 4381.55,2210.61C4380.85,2209.98 4380.21,2209.34 4379.65,2208.7C4379.08,2208.07 4378.8,2207.43 4378.8,2206.79C4378.8,2206.3 4378.91,2205.93 4379.12,2205.68C4379.34,2205.43 4379.59,2205.2 4379.89,2204.99C4380.19,2204.78 4380.44,2204.56 4380.66,2204.35C4380.87,2204.14 4380.98,2203.75 4380.98,2203.18L4380.98,2193.95C4380.98,2193.45 4381.13,2193.06 4381.43,2192.78C4381.72,2192.49 4382.03,2192.23 4382.35,2191.98C4382.68,2191.74 4382.92,2191.49 4383.08,2191.24C4383.24,2190.99 4383.19,2190.66 4382.92,2190.23C4382.76,2190.02 4382.25,2189.49 4381.39,2188.64L4378.64,2185.93C4377.67,2184.97 4376.77,2184.13 4375.93,2183.38C4375.1,2182.64 4374.65,2182.27 4374.6,2182.27C4374.38,2182.27 4374.05,2182.59 4373.59,2183.22C4373.13,2183.86 4372.62,2184.55 4372.05,2185.29C4371.49,2186.04 4370.93,2186.73 4370.4,2187.36C4369.86,2188 4369.43,2188.32 4369.1,2188.32L4330.88,2188.32C4329.91,2188.32 4328.89,2188.05 4327.81,2187.52C4326.74,2186.99 4325.7,2186.39 4324.7,2185.72C4323.71,2185.05 4322.8,2184.44 4321.99,2183.91C4321.19,2183.38 4320.6,2183.12 4320.22,2183.12C4319.79,2183.12 4319.57,2183.47 4319.57,2184.18L4319.57,2206.79C4319.57,2206.86 4319.64,2207.06 4319.77,2207.38C4319.91,2207.7 4320.06,2208.05 4320.22,2208.44L4320.7,2209.61C4320.86,2209.99 4320.97,2210.3 4321.03,2210.51C4321.3,2211.92 4321.46,2213.43 4321.51,2215.02C4321.56,2216.61 4321.56,2218.24 4321.51,2219.9C4321.46,2221.57 4321.39,2223.23 4321.31,2224.89C4321.23,2226.56 4321.19,2228.13 4321.19,2229.62L4321.43,2230.36L4321.51,2230.47L4322.08,2230.79C4323.58,2230.79 4324.73,2230.73 4325.51,2230.63C4326.29,2230.52 4326.84,2230.59 4327.17,2230.84C4327.49,2231.09 4327.65,2231.67 4327.65,2232.59L4327.65,2237.16C4327.65,2237.51 4327.44,2237.72 4327.01,2237.79C4326.57,2237.86 4326.25,2237.9 4326.03,2237.9C4325.23,2237.9 4324.43,2237.67 4323.65,2237.21C4322.87,2236.75 4322.1,2236.25 4321.35,2235.72C4320.6,2235.19 4319.84,2234.7 4319.09,2234.24C4318.33,2233.78 4317.61,2233.55 4316.9,2233.55C4316.74,2233.55 4316.61,2233.65 4316.5,2233.87C4316.39,2234.08 4316.34,2234.29 4316.34,2234.5C4316.34,2237.19 4316.38,2239.92 4316.46,2242.68C4316.54,2245.44 4316.61,2248.16 4316.66,2250.85C4316.66,2251.84 4316.65,2252.9 4316.62,2254.04C4316.6,2255.17 4316.69,2256.23 4316.9,2257.22C4317.17,2258.49 4317.74,2259.13 4318.6,2259.13C4319.41,2259.13 4320.16,2258.83 4320.86,2258.23C4321.56,2257.63 4322.24,2256.97 4322.88,2256.27C4323.53,2255.56 4324.19,2254.9 4324.86,2254.3C4325.54,2253.7 4326.28,2253.4 4327.09,2253.4C4327.36,2253.4 4327.54,2253.65 4327.65,2254.14C4327.81,2254.71 4327.95,2255.61 4328.06,2256.85C4328.16,2258.09 4328.24,2259.5 4328.3,2261.1C4328.35,2262.69 4328.38,2264.41 4328.38,2266.24L4328.38,2279.41C4328.38,2280.12 4328.65,2280.47 4329.19,2280.47C4329.51,2280.47 4330.06,2280.45 4330.84,2280.42C4331.62,2280.38 4332.45,2280.28 4333.31,2280.1C4334.17,2279.92 4334.92,2279.69 4335.57,2279.41C4336.22,2279.13 4336.54,2278.74 4336.54,2278.24L4336.54,2267.2C4336.54,2266.49 4336.81,2266.14 4337.35,2266.14L4345.11,2266.14L4345.67,2266.46C4345.78,2266.6 4345.83,2266.81 4345.83,2267.1C4345.83,2267.24 4345.58,2267.78 4345.06,2268.74C4344.55,2269.7 4344.3,2270.74 4344.3,2271.87C4344.3,2272.44 4344.43,2273.18 4344.7,2274.1C4344.97,2275.02 4345.32,2275.62 4345.75,2275.91C4346.02,2276.05 4346.3,2276.12 4346.6,2276.12L4347.45,2276.12C4348.85,2276.12 4349.95,2275.8 4350.76,2275.16C4351.57,2274.53 4352.19,2273.66 4352.62,2272.56C4353.05,2271.47 4353.32,2270.23 4353.43,2268.85C4353.53,2267.47 4353.59,2266.03 4353.59,2264.55C4353.59,2264.33 4353.57,2263.93 4353.55,2263.33C4353.52,2262.72 4353.47,2262.11 4353.39,2261.47C4353.31,2260.83 4353.2,2260.28 4353.06,2259.82C4352.93,2259.36 4352.75,2259.13 4352.54,2259.13C4352.32,2259.35 4352.16,2259.66 4352.05,2260.09C4351.95,2260.51 4351.82,2260.94 4351.69,2261.36C4351.56,2261.79 4351.41,2262.19 4351.25,2262.58C4351.08,2262.97 4350.87,2263.24 4350.6,2263.38C4350.33,2263.38 4349.89,2263.1 4349.27,2262.53C4348.65,2261.96 4348.03,2261.31 4347.41,2260.57C4346.79,2259.82 4346.24,2259.1 4345.75,2258.39C4345.27,2257.68 4345.05,2257.19 4345.11,2256.9C4345.16,2256.48 4345.36,2256.12 4345.71,2255.84C4346.06,2255.56 4346.44,2255.29 4346.84,2255.05C4347.25,2254.8 4347.61,2254.53 4347.93,2254.25C4348.26,2253.97 4348.42,2253.65 4348.42,2253.29L4348.42,2242.57C4348.42,2242.29 4348.58,2241.88 4348.9,2241.35C4349.23,2240.82 4349.44,2240.45 4349.55,2240.24L4349.63,2239.7C4349.47,2239.42 4349.08,2238.89 4348.46,2238.11C4347.84,2237.33 4347.19,2236.55 4346.52,2235.78C4345.85,2235 4345.21,2234.31 4344.62,2233.71C4344.03,2233.1 4343.68,2232.84 4343.57,2232.91L4343.09,2233.23C4342.65,2233.58 4342.28,2234.01 4341.95,2234.5C4341.63,2235 4341.31,2235.51 4340.98,2236.04C4340.66,2236.57 4340.3,2237.01 4339.89,2237.37C4339.49,2237.72 4338.99,2237.9 4338.4,2237.9C4338.02,2237.9 4337.66,2237.79 4337.31,2237.58C4336.96,2237.37 4336.78,2236.98 4336.78,2236.41L4336.78,2231.53C4336.78,2230.89 4337.09,2230.5 4337.71,2230.36C4338.33,2230.22 4339.02,2230.13 4339.77,2230.1C4340.53,2230.06 4341.21,2229.97 4341.83,2229.83C4342.45,2229.69 4342.76,2229.3 4342.76,2228.66L4342.76,2219.85C4342.76,2219.14 4343.03,2218.79 4343.57,2218.79L4351.08,2218.79C4351.62,2218.79 4351.89,2219.14 4351.89,2219.85L4351.89,2254.04C4351.89,2254.74 4352.16,2255.1 4352.7,2255.1C4355.23,2255.1 4357.55,2254.25 4359.65,2252.55C4360.08,2252.2 4360.46,2251.84 4360.78,2251.49C4361.1,2251.14 4361.48,2250.85 4361.91,2250.64L4376.86,2250.64C4377.35,2250.64 4377.6,2250.92 4377.63,2251.49C4377.65,2252.05 4377.67,2252.55 4377.67,2252.97L4377.67,2254.09C4377.67,2254.55 4377.63,2254.99 4377.55,2255.42C4377.47,2255.84 4377.35,2256.21 4377.18,2256.53C4377.02,2256.85 4376.81,2257.01 4376.54,2257.01C4376.05,2257.01 4375.61,2256.9 4375.2,2256.69C4374.8,2256.48 4374.38,2256.23 4373.95,2255.95C4373.52,2255.66 4373.06,2255.42 4372.58,2255.2C4372.09,2254.99 4371.55,2254.89 4370.96,2254.89C4370.75,2254.89 4370.54,2254.94 4370.36,2255.05C4370.17,2255.15 4370.07,2255.38 4370.07,2255.74C4370.07,2255.88 4370.19,2256.28 4370.44,2256.96C4370.68,2257.63 4370.95,2258.37 4371.24,2259.18C4371.54,2260 4371.82,2260.76 4372.09,2261.47C4372.36,2262.18 4372.55,2262.6 4372.66,2262.74C4372.82,2263.1 4373.13,2263.31 4373.59,2263.38C4374.05,2263.45 4374.52,2263.56 4375,2263.7C4375.49,2263.84 4375.9,2264.09 4376.25,2264.44C4376.6,2264.8 4376.78,2265.36 4376.78,2266.14C4376.78,2267.13 4376.48,2267.87 4375.89,2268.37C4375.3,2268.86 4374.64,2269.25 4373.91,2269.54C4373.18,2269.82 4372.52,2270.07 4371.93,2270.28C4371.34,2270.49 4371.04,2270.78 4371.04,2271.13C4371.04,2271.41 4371.15,2271.77 4371.36,2272.19C4371.9,2273.25 4372.28,2274.07 4372.5,2274.63C4372.71,2275.2 4372.85,2275.69 4372.9,2276.12C4372.95,2276.54 4372.99,2277.04 4373.02,2277.61C4373.05,2278.17 4373.17,2278.99 4373.39,2280.05C4373.49,2280.4 4373.59,2280.65 4373.67,2280.79C4373.75,2280.93 4373.92,2281 4374.19,2281C4376.99,2281 4379.15,2280.08 4380.66,2278.24C4382.17,2276.4 4383.28,2274.12 4384.01,2271.39C4384.74,2268.67 4385.2,2265.73 4385.38,2262.58C4385.57,2259.43 4385.72,2256.51 4385.83,2253.82ZM4364.01,2189.7L4369.91,2189.7C4370.45,2189.7 4370.72,2190.05 4370.72,2190.76L4370.72,2201.38C4370.72,2202.09 4370.45,2202.44 4369.91,2202.44L4364.01,2202.44C4363.47,2202.44 4363.2,2202.09 4363.2,2201.38L4363.2,2190.76C4363.2,2190.05 4363.47,2189.7 4364.01,2189.7ZM4329.27,2201.38L4329.27,2191.61C4329.27,2191.26 4329.43,2190.85 4329.75,2190.39C4330.08,2189.93 4330.37,2189.7 4330.64,2189.7L4335.97,2189.7C4336.51,2189.7 4336.78,2190.05 4336.78,2190.76L4336.78,2201.38C4336.78,2202.09 4336.51,2202.44 4335.97,2202.44L4330.08,2202.44C4329.54,2202.44 4329.27,2202.09 4329.27,2201.38ZM4353.83,2190.87L4354.07,2191.61L4354.07,2201.38C4354.07,2202.09 4353.8,2202.44 4353.27,2202.44L4346.8,2202.44C4346.26,2202.44 4345.99,2202.09 4345.99,2201.38L4345.99,2190.76C4345.99,2190.05 4346.26,2189.7 4346.8,2189.7L4352.62,2189.7L4353.19,2190.02L4353.83,2190.87ZM4329.59,2217.09C4329.38,2216.74 4329.25,2216.15 4329.23,2215.34C4329.2,2214.53 4329.19,2213.87 4329.19,2213.38C4329.19,2212.81 4329.27,2212.26 4329.43,2211.73C4329.59,2211.2 4329.67,2210.65 4329.67,2210.08C4329.67,2209.73 4329.51,2209.48 4329.19,2209.34C4328.86,2209.2 4328.5,2209.08 4328.1,2208.97C4327.69,2208.86 4327.33,2208.74 4327.01,2208.6C4326.68,2208.46 4326.52,2208.21 4326.52,2207.85C4326.52,2207.64 4326.67,2207.34 4326.97,2206.95C4327.26,2206.56 4327.61,2206.19 4328.02,2205.84C4328.42,2205.48 4328.82,2205.18 4329.23,2204.93C4329.63,2204.69 4329.91,2204.56 4330.08,2204.56L4369.91,2204.56C4370.13,2204.56 4370.3,2204.7 4370.44,2204.99C4370.57,2205.27 4370.7,2205.57 4370.84,2205.89C4370.98,2206.21 4371.12,2206.49 4371.28,2206.74C4371.45,2206.99 4371.66,2207.11 4371.93,2207.11L4375.49,2207.11C4375.81,2207.11 4376,2207.24 4376.05,2207.48C4376.11,2207.73 4376.13,2208.03 4376.13,2208.39L4375.89,2209.13L4373.14,2212.74L4372.58,2213.06L4361.18,2213.06C4360.59,2213.06 4359.86,2212.83 4359,2212.37C4358.14,2211.91 4357.27,2211.41 4356.38,2210.88C4355.49,2210.35 4354.65,2209.87 4353.87,2209.45C4353.09,2209.02 4352.51,2208.85 4352.13,2208.92L4351.89,2209.45L4351.89,2214.54C4351.89,2214.97 4351.68,2215.22 4351.25,2215.29C4350.82,2215.36 4350.49,2215.32 4350.28,2215.18C4350.06,2215.04 4349.79,2214.77 4349.47,2214.38C4349.15,2213.99 4348.82,2213.59 4348.5,2213.16C4348.18,2212.74 4347.85,2212.37 4347.53,2212.05C4347.21,2211.73 4346.96,2211.57 4346.8,2211.57C4346.59,2211.57 4346.36,2211.75 4346.11,2212.1C4345.87,2212.45 4345.62,2212.83 4345.35,2213.22C4345.08,2213.61 4344.81,2213.98 4344.54,2214.33C4344.27,2214.68 4343.97,2214.86 4343.65,2214.86C4343.33,2214.86 4343.14,2214.67 4343.09,2214.28C4343.03,2213.89 4343.04,2213.43 4343.12,2212.9C4343.21,2212.37 4343.31,2211.84 4343.45,2211.3C4343.58,2210.77 4343.65,2210.4 4343.65,2210.19C4343.65,2209.84 4343.56,2209.61 4343.37,2209.5C4343.18,2209.39 4342.95,2209.3 4342.68,2209.23C4341.5,2208.95 4340.31,2208.69 4339.12,2208.44C4337.94,2208.19 4336.73,2208.07 4335.49,2208.07C4334.95,2208.07 4334.68,2208.35 4334.68,2208.92L4334.68,2216.24C4334.68,2216.74 4334.47,2217.07 4334.03,2217.25C4333.6,2217.43 4333.09,2217.51 4332.5,2217.51C4331.91,2217.51 4331.33,2217.46 4330.76,2217.36C4330.2,2217.25 4329.81,2217.16 4329.59,2217.09ZM4340.18,2240.34C4340.23,2240.62 4340.31,2240.85 4340.42,2241.03C4340.53,2241.21 4340.58,2241.44 4340.58,2241.72L4340.58,2249.9C4340.58,2250.53 4340.31,2250.96 4339.77,2251.17C4339.23,2251.38 4338.77,2251.49 4338.4,2251.49C4337.91,2251.49 4337.52,2251.42 4337.23,2251.28C4336.93,2251.14 4336.78,2250.67 4336.78,2249.9L4336.78,2241.19C4336.78,2240.98 4336.85,2240.77 4336.98,2240.55C4337.12,2240.34 4337.24,2240.16 4337.35,2240.02C4337.78,2239.95 4338.26,2239.9 4338.8,2239.86C4339.34,2239.83 4339.8,2239.99 4340.18,2240.34ZM4329.27,2226.22L4329.27,2219.85C4329.27,2219.14 4329.54,2218.79 4330.08,2218.79L4333.87,2218.79C4334.41,2218.79 4334.68,2219.14 4334.68,2219.85L4334.68,2226.22C4334.68,2226.93 4334.41,2227.28 4333.87,2227.28L4330.08,2227.28C4329.54,2227.28 4329.27,2226.93 4329.27,2226.22ZM4360.54,2235.35L4360.54,2227.28C4360.54,2227 4360.77,2226.79 4361.23,2226.65C4361.68,2226.5 4362.17,2226.43 4362.68,2226.43C4363.19,2226.43 4363.68,2226.5 4364.13,2226.65C4364.59,2226.79 4364.82,2227 4364.82,2227.28L4364.82,2235.35C4364.82,2236.06 4364.55,2236.41 4364.01,2236.41L4361.35,2236.41C4360.81,2236.41 4360.54,2236.06 4360.54,2235.35ZM4337.91,2264.12L4337.51,2264.12C4337.4,2263.98 4337.25,2263.7 4337.07,2263.27C4336.88,2262.85 4336.78,2262.53 4336.78,2262.32L4336.78,2254.46C4336.78,2253.75 4337.05,2253.4 4337.59,2253.4L4339.69,2253.4C4340.12,2253.4 4340.39,2253.74 4340.5,2254.41C4340.61,2255.08 4340.85,2255.59 4341.23,2255.95C4341.44,2256.16 4341.72,2256.3 4342.07,2256.37C4342.43,2256.44 4342.75,2256.55 4343.04,2256.69C4343.34,2256.83 4343.57,2257.04 4343.73,2257.33C4343.89,2257.61 4343.89,2258.03 4343.73,2258.6C4342.76,2262.28 4340.82,2264.12 4337.91,2264.12ZM4327.65,2240.66L4327.65,2250.64C4327.65,2250.92 4327.48,2251.14 4327.13,2251.28C4326.78,2251.42 4326.4,2251.47 4325.99,2251.43C4325.59,2251.4 4325.23,2251.26 4324.9,2251.01C4324.58,2250.76 4324.42,2250.39 4324.42,2249.9L4324.42,2240.66C4324.42,2240.38 4324.51,2240.18 4324.7,2240.08C4324.89,2239.97 4325.12,2239.9 4325.39,2239.86C4325.66,2239.83 4325.91,2239.83 4326.16,2239.86C4326.4,2239.9 4326.6,2239.92 4326.76,2239.92C4326.98,2239.92 4327.18,2239.95 4327.37,2240.02C4327.56,2240.09 4327.65,2240.31 4327.65,2240.66ZM4364.5,2215.39L4364.74,2216.14C4364.74,2216.56 4364.75,2217.18 4364.78,2217.99C4364.81,2218.81 4364.82,2219.67 4364.82,2220.59L4364.82,2223.09C4364.82,2223.83 4364.79,2224.35 4364.74,2224.63C4364.36,2225.12 4363.82,2225.34 4363.12,2225.26C4362.42,2225.2 4361.83,2225.16 4361.35,2225.16L4360.86,2224.84C4360.81,2224.77 4360.75,2224.33 4360.7,2223.51C4360.65,2222.7 4360.59,2221.78 4360.54,2220.75C4360.48,2219.73 4360.46,2218.75 4360.46,2217.83C4360.46,2216.91 4360.48,2216.35 4360.54,2216.14C4360.54,2216.06 4360.55,2215.99 4360.58,2215.92C4360.61,2215.85 4360.62,2215.78 4360.62,2215.71L4360.78,2215.5L4361.35,2215.18L4362.96,2215.18C4363.72,2215.18 4364.23,2215.25 4364.5,2215.39ZM4360.54,2247.45L4360.54,2239.6C4360.54,2238.89 4360.81,2238.54 4361.35,2238.54L4364.01,2238.54C4364.55,2238.54 4364.82,2238.89 4364.82,2239.6L4364.82,2247.45C4364.82,2248.16 4364.55,2248.52 4364.01,2248.52L4361.35,2248.52C4360.81,2248.52 4360.54,2248.16 4360.54,2247.45ZM4520.12,2185.24C4520.34,2185.1 4520.54,2184.91 4520.73,2184.66C4520.92,2184.41 4521.04,2184.11 4521.09,2183.75C4520.98,2183.54 4520.46,2183.31 4519.52,2183.06C4518.57,2182.82 4517.54,2182.62 4516.4,2182.48C4515.27,2182.34 4514.18,2182.22 4513.13,2182.11C4512.08,2182 4511.4,2181.95 4511.07,2181.95C4510.53,2181.95 4510.26,2182.3 4510.26,2183.01L4510.26,2204.56C4510.26,2205.06 4510.43,2205.31 4510.75,2205.31L4511.64,2205.31C4512.12,2205.31 4512.74,2205.29 4513.5,2205.25C4514.25,2205.22 4515,2205.11 4515.76,2204.93C4516.51,2204.76 4517.2,2204.51 4517.82,2204.19C4518.44,2203.87 4518.91,2203.39 4519.23,2202.76C4519.34,2202.55 4519.39,2201.68 4519.39,2200.16L4519.39,2194.95C4519.39,2193.01 4519.44,2191.12 4519.52,2189.28C4519.6,2187.43 4519.8,2186.09 4520.12,2185.24ZM4402.23,2227.6L4401.67,2227.92L4393.59,2227.92C4393.1,2227.92 4392.86,2228.27 4392.86,2228.98C4392.86,2229.41 4392.99,2230.17 4393.26,2231.26C4393.53,2232.36 4393.87,2233.51 4394.27,2234.71C4394.68,2235.92 4395.08,2236.98 4395.48,2237.9C4395.89,2238.82 4396.25,2239.28 4396.57,2239.28C4397.17,2239.28 4397.77,2239.07 4398.39,2238.64C4399.01,2238.22 4399.65,2237.78 4400.29,2237.32C4400.94,2236.86 4401.56,2236.41 4402.15,2235.99C4402.74,2235.56 4403.31,2235.35 4403.85,2235.35C4404.39,2235.35 4404.66,2235.67 4404.66,2236.31L4404.66,2245.22C4404.66,2245.93 4404.44,2246.29 4404.01,2246.29C4403.36,2246.29 4402.73,2246.14 4402.11,2245.86C4401.49,2245.58 4400.87,2245.28 4400.25,2244.96C4399.63,2244.64 4399.01,2244.34 4398.39,2244.06C4397.77,2243.77 4397.14,2243.63 4396.49,2243.63C4396.39,2243.63 4396.31,2243.74 4396.25,2243.95C4396.2,2244.16 4396.17,2244.34 4396.17,2244.48C4396.06,2245.76 4395.97,2247.05 4395.89,2248.36C4395.81,2249.67 4395.69,2250.96 4395.53,2252.23C4395.09,2255.42 4394.61,2258.55 4394.07,2261.63C4393.53,2264.71 4393.26,2267.84 4393.26,2271.02C4393.26,2271.59 4393.51,2271.87 4393.99,2271.87C4394.53,2271.87 4395.09,2271.39 4395.69,2270.44C4396.28,2269.48 4396.87,2268.3 4397.46,2266.88C4398.06,2265.47 4398.65,2263.93 4399.24,2262.26C4399.83,2260.6 4400.43,2259.06 4401.02,2257.65C4401.61,2256.23 4402.2,2255.05 4402.8,2254.09C4403.39,2253.13 4403.95,2252.66 4404.49,2252.66C4404.82,2252.66 4404.98,2252.94 4404.98,2253.51L4404.98,2279.52C4404.98,2280.22 4405.25,2280.58 4405.79,2280.58C4406.16,2280.58 4406.82,2280.56 4407.77,2280.53C4408.71,2280.49 4409.64,2280.37 4410.55,2280.15C4411.47,2279.94 4412.29,2279.64 4413.02,2279.25C4413.75,2278.86 4414.11,2278.28 4414.11,2277.5L4414.11,2247.77C4414.11,2247.63 4414.26,2247.33 4414.55,2246.87C4414.85,2246.41 4415.08,2246.18 4415.24,2246.18C4415.83,2246.18 4416.24,2246.59 4416.45,2247.4C4416.67,2248.22 4416.82,2249.24 4416.9,2250.48C4416.98,2251.72 4417.05,2253.05 4417.1,2254.46C4417.15,2255.88 4417.3,2257.2 4417.54,2258.44C4417.79,2259.68 4418.18,2260.71 4418.72,2261.52C4419.25,2262.34 4420.06,2262.74 4421.14,2262.74C4422.65,2262.74 4423.7,2262.19 4424.29,2261.1C4424.88,2260 4425.18,2258.53 4425.18,2256.69C4425.18,2254.36 4424.61,2252.3 4423.48,2250.53C4422.35,2248.76 4421.11,2247.22 4419.77,2245.91C4418.42,2244.61 4417.18,2243.47 4416.05,2242.52C4414.92,2241.56 4414.35,2240.73 4414.35,2240.02L4414.35,2230.79C4414.35,2230.5 4414.51,2230.29 4414.84,2230.15C4415.16,2230.01 4415.4,2229.94 4415.56,2229.94C4416.26,2229.94 4416.71,2230.34 4416.9,2231.16C4417.09,2231.97 4417.29,2232.89 4417.5,2233.92C4417.72,2234.94 4418.06,2235.86 4418.51,2236.68C4418.97,2237.49 4419.82,2237.9 4421.06,2237.9C4422.62,2237.9 4423.7,2237.35 4424.29,2236.25C4424.88,2235.16 4425.18,2233.65 4425.18,2231.74C4425.18,2230.4 4424.87,2228.98 4424.25,2227.49C4423.63,2226.01 4422.85,2224.65 4421.91,2223.41C4420.96,2222.17 4419.94,2221.14 4418.84,2220.33C4417.73,2219.51 4416.67,2219.07 4415.65,2219C4415.05,2219 4414.78,2219.28 4414.84,2219.85C4414.89,2220.42 4415.04,2221.12 4415.28,2221.97C4415.52,2222.82 4415.81,2223.67 4416.13,2224.52C4416.45,2225.37 4416.61,2226.04 4416.61,2226.54C4416.61,2226.89 4416.4,2227.14 4415.97,2227.28C4414.57,2227.64 4413.1,2227.85 4411.56,2227.92C4410.03,2227.99 4408.53,2228.03 4407.08,2228.03C4406.65,2228.03 4406.24,2227.99 4405.87,2227.92C4405.49,2227.85 4405.09,2227.81 4404.66,2227.81L4404.66,2227.28C4406.33,2225.3 4407.9,2223.14 4409.38,2220.81C4410.86,2218.47 4412.33,2216.14 4413.79,2213.8C4415.24,2211.46 4416.74,2209.2 4418.27,2207.01C4419.81,2204.81 4421.52,2202.83 4423.4,2201.06L4423.56,2200.64L4423.32,2200.21C4422.84,2199.93 4422.12,2199.5 4421.18,2198.94C4420.24,2198.37 4419.25,2197.82 4418.23,2197.29C4417.21,2196.76 4416.24,2196.3 4415.32,2195.91C4414.41,2195.52 4413.73,2195.33 4413.3,2195.33C4412.87,2195.33 4412.45,2195.8 4412.05,2196.76C4411.65,2197.72 4411.27,2198.8 4410.92,2200C4410.57,2201.2 4410.27,2202.39 4410.03,2203.55C4409.79,2204.72 4409.61,2205.55 4409.5,2206.05C4409.4,2206.4 4409.18,2207.15 4408.86,2208.28C4408.53,2209.41 4408.16,2210.7 4407.73,2212.15C4407.3,2213.61 4406.82,2215.16 4406.31,2216.83C4405.8,2218.49 4405.32,2220.01 4404.86,2221.39C4404.4,2222.77 4404.01,2223.94 4403.69,2224.89C4403.36,2225.85 4403.15,2226.4 4403.04,2226.54L4402.23,2227.6ZM4357.06,2257.97C4356.85,2258.18 4356.75,2258.58 4356.78,2259.18C4356.81,2259.79 4356.82,2260.26 4356.82,2260.62C4356.82,2262.25 4356.71,2263.89 4356.5,2265.55C4356.28,2267.22 4356.18,2268.86 4356.18,2270.49C4356.18,2271.27 4356.42,2271.82 4356.9,2272.14C4357.39,2272.46 4357.87,2272.62 4358.36,2272.62C4359.6,2272.62 4360.54,2272.1 4361.18,2271.08C4361.83,2270.05 4362.15,2268.76 4362.15,2267.2C4362.15,2265.36 4361.68,2263.59 4360.74,2261.89C4359.8,2260.19 4358.76,2258.89 4357.63,2257.97C4357.36,2257.82 4357.17,2257.82 4357.06,2257.97ZM4497.01,2279.41L4496.77,2280.05L4497.01,2280.26C4500.14,2279.55 4503.13,2278.64 4505.98,2277.51C4508.84,2276.38 4511.49,2274.88 4513.94,2273.01C4516.39,2271.13 4518.61,2268.8 4520.61,2266.02C4522.6,2263.23 4524.32,2259.86 4525.78,2255.9C4526.42,2254.07 4526.9,2252.2 4527.19,2250.29C4527.49,2248.38 4527.74,2246.44 4527.96,2244.47C4527.96,2244.25 4527.99,2243.9 4528.04,2243.41C4528.09,2242.91 4528.16,2242.37 4528.24,2241.77C4528.32,2241.16 4528.39,2240.64 4528.44,2240.18C4528.5,2239.72 4528.55,2239.45 4528.61,2239.38C4528.82,2238.96 4529.06,2238.71 4529.33,2238.64C4529.6,2238.57 4529.93,2238.54 4530.3,2238.54C4531.65,2238.54 4532.47,2238.76 4532.77,2239.21C4533.06,2239.66 4533.24,2240.14 4533.29,2240.66C4533.35,2241.18 4533.43,2241.66 4533.53,2242.11C4533.64,2242.56 4534.18,2242.78 4535.15,2242.78C4535.42,2242.78 4535.8,2242.71 4536.28,2242.57C4536.77,2242.43 4537.25,2242.32 4537.74,2242.25C4538.22,2242.18 4538.68,2242.18 4539.11,2242.25C4539.54,2242.32 4539.81,2242.61 4539.92,2243.1C4539.97,2243.24 4539.92,2243.51 4539.76,2243.9C4539.6,2244.29 4539.41,2244.69 4539.19,2245.12C4538.98,2245.54 4538.75,2245.95 4538.5,2246.34C4538.26,2246.73 4538.11,2246.99 4538.06,2247.14C4537.36,2248.41 4536.73,2249.38 4536.16,2250.05C4535.6,2250.73 4535,2251.24 4534.38,2251.6C4533.76,2251.95 4533.08,2252.2 4532.32,2252.34C4531.57,2252.48 4530.63,2252.62 4529.49,2252.76C4529.39,2252.76 4529.31,2252.8 4529.25,2252.87L4529.41,2253.19C4529.63,2253.33 4529.82,2253.4 4529.98,2253.4C4530.19,2253.47 4530.81,2253.51 4531.84,2253.51L4540,2253.51C4541.61,2253.51 4543.1,2253.49 4544.44,2253.45C4545.79,2253.42 4546.92,2253.38 4547.84,2253.35C4548.75,2253.31 4549.24,2253.26 4549.29,2253.19C4549.4,2253.05 4549.45,2252.87 4549.45,2252.66C4549.45,2252.37 4549.03,2251.84 4548.2,2251.06C4547.36,2250.28 4546.44,2249.38 4545.41,2248.36C4544.39,2247.33 4543.46,2246.25 4542.62,2245.12C4541.79,2243.99 4541.37,2242.92 4541.37,2241.93C4541.37,2241.08 4541.61,2240.5 4542.1,2240.18C4542.59,2239.86 4542.83,2239.42 4542.83,2238.86L4542.83,2215.82C4542.83,2215.46 4543.06,2215.04 4543.51,2214.54C4543.97,2214.05 4544.31,2213.66 4544.52,2213.38L4544.77,2212.63C4544.71,2211.57 4544.24,2210.67 4543.35,2209.92C4542.46,2209.18 4541.51,2208.4 4540.48,2207.59C4539.46,2206.78 4538.53,2205.8 4537.7,2204.67C4536.86,2203.54 4536.44,2202.05 4536.44,2200.21C4536.44,2200 4536.46,2199.68 4536.48,2199.26C4536.51,2198.83 4536.57,2198.41 4536.65,2197.98C4536.73,2197.56 4536.85,2197.2 4537.01,2196.92C4537.17,2196.64 4537.39,2196.49 4537.66,2196.49L4548.08,2196.49C4548.46,2196.49 4548.69,2196.32 4548.77,2195.96C4548.85,2195.61 4548.83,2195.26 4548.73,2194.9C4548.67,2194.83 4548.3,2194.35 4547.59,2193.47C4546.89,2192.58 4546.11,2191.63 4545.25,2190.6C4544.39,2189.58 4543.58,2188.64 4542.83,2187.79C4542.07,2186.94 4541.61,2186.51 4541.45,2186.51C4541.13,2186.66 4540.75,2187.15 4540.32,2188L4539.03,2190.55C4538.6,2191.4 4538.18,2192.09 4537.78,2192.62C4537.37,2193.15 4537.06,2193.24 4536.85,2192.89C4536.74,2192.74 4536.67,2192.35 4536.65,2191.72C4536.62,2191.08 4536.61,2190.37 4536.61,2189.59C4536.61,2188.82 4536.62,2188.07 4536.65,2187.36C4536.67,2186.66 4536.69,2186.16 4536.69,2185.88L4536.93,2185.14L4537.41,2184.5C4537.57,2184.28 4537.71,2184.04 4537.82,2183.75C4537.55,2183.54 4536.93,2183.33 4535.96,2183.12C4534.99,2182.91 4533.93,2182.69 4532.77,2182.48C4531.61,2182.27 4530.52,2182.11 4529.49,2182C4528.47,2181.9 4527.77,2181.84 4527.39,2181.84C4527.18,2181.84 4527.03,2182.02 4526.95,2182.37C4526.87,2182.73 4526.82,2183.14 4526.79,2183.6C4526.76,2184.05 4526.76,2184.5 4526.79,2184.92C4526.82,2185.35 4526.83,2185.66 4526.83,2185.88C4526.83,2186.73 4526.82,2187.97 4526.79,2189.59C4526.76,2191.22 4526.76,2192.94 4526.79,2194.74C4526.82,2196.55 4526.87,2198.21 4526.95,2199.73C4527.03,2201.25 4527.18,2202.33 4527.39,2202.97C4527.66,2203.61 4527.93,2203.93 4528.2,2203.93L4529.25,2203.93C4530.17,2203.93 4531.1,2203.82 4532.04,2203.61C4532.98,2203.39 4533.91,2203.29 4534.83,2203.29C4535.2,2203.29 4535.43,2203.47 4535.51,2203.82C4535.6,2204.17 4535.61,2204.53 4535.56,2204.88C4535.56,2205.09 4535.37,2205.5 4534.99,2206.1C4534.61,2206.7 4534.19,2207.31 4533.74,2207.91C4533.28,2208.51 4532.83,2209.06 4532.4,2209.55C4531.97,2210.05 4531.68,2210.3 4531.52,2210.3L4514.55,2210.3C4513.41,2210.3 4512.27,2210.05 4511.11,2209.55C4509.95,2209.06 4508.8,2208.44 4507.64,2207.7C4506.48,2206.95 4505.38,2206.14 4504.32,2205.25C4503.27,2204.37 4502.32,2203.5 4501.46,2202.65C4501.03,2202.23 4500.58,2201.71 4500.12,2201.11C4499.66,2200.51 4499.19,2200.03 4498.71,2199.68L4498.31,2200C4498.2,2200.35 4498.04,2200.87 4497.82,2201.54C4497.61,2202.21 4497.34,2202.86 4497.01,2203.5C4496.69,2204.14 4496.35,2204.69 4496,2205.15C4495.65,2205.61 4495.32,2205.84 4494.99,2205.84C4494.72,2205.84 4494.59,2205.59 4494.59,2205.09C4494.32,2202.55 4494.17,2200 4494.14,2197.45C4494.12,2194.9 4494.1,2192.32 4494.1,2189.7C4494.1,2189.35 4494.09,2188.96 4494.06,2188.53C4494.04,2188.11 4494.05,2187.72 4494.1,2187.36C4494.16,2187.08 4494.29,2186.76 4494.51,2186.41C4494.72,2186.05 4494.97,2185.7 4495.23,2185.35L4495.96,2184.39C4496.18,2184.11 4496.28,2183.86 4496.28,2183.65C4496.28,2183.29 4496.06,2183.1 4495.6,2183.06C4495.14,2183.03 4494.83,2183.01 4494.67,2183.01C4493,2182.94 4491.34,2182.73 4489.7,2182.37C4488.06,2182.02 4486.37,2181.84 4484.65,2181.84C4484.11,2181.84 4483.84,2182.2 4483.84,2182.91L4483.84,2208.17C4483.84,2211.14 4483.67,2214.22 4483.32,2217.41C4482.97,2220.59 4482.48,2223.78 4481.86,2226.96C4481.24,2230.15 4480.52,2233.28 4479.68,2236.36C4478.85,2239.44 4477.94,2242.29 4476.97,2244.91L4474.23,2252.55C4474.17,2252.69 4474.15,2252.9 4474.15,2253.19C4474.15,2253.47 4474.2,2253.68 4474.31,2253.82C4474.52,2253.61 4474.9,2253.19 4475.44,2252.55C4475.98,2251.91 4476.54,2251.19 4477.14,2250.37C4477.73,2249.56 4478.31,2248.78 4478.87,2248.04L4480.12,2246.39C4480.66,2245.68 4481.14,2244.94 4481.54,2244.16C4481.94,2243.38 4482.36,2242.57 4482.79,2241.72C4482.95,2241.37 4483.14,2241.01 4483.36,2240.66C4483.57,2240.31 4483.84,2240.06 4484.16,2239.92C4484.33,2240.13 4484.41,2240.34 4484.41,2240.55L4484.41,2279.52C4484.41,2280.22 4484.68,2280.58 4485.22,2280.58C4485.65,2280.58 4486.36,2280.51 4487.36,2280.37C4488.35,2280.22 4489.38,2280.01 4490.43,2279.73C4491.48,2279.45 4492.39,2279.06 4493.17,2278.56C4493.95,2278.07 4494.35,2277.46 4494.35,2276.76L4494.35,2226.22C4494.35,2225.94 4494.49,2225.67 4494.79,2225.43C4495.09,2225.18 4495.32,2225.05 4495.48,2225.05C4495.8,2225.05 4496.06,2225.36 4496.24,2225.96C4496.43,2226.57 4496.57,2227.28 4496.65,2228.1C4496.73,2228.92 4496.78,2229.72 4496.81,2230.51C4496.84,2231.3 4496.88,2231.83 4496.93,2232.12C4497.09,2233.54 4497.34,2234.66 4497.66,2235.49C4497.98,2236.31 4498.41,2236.95 4498.95,2237.41C4499.49,2237.88 4500.11,2238.25 4500.81,2238.53C4501.51,2238.82 4502.32,2239.1 4503.23,2239.39C4503.77,2239.6 4504.04,2240.09 4504.04,2240.87L4504.04,2243.31C4504.04,2244.16 4504.2,2244.94 4504.53,2245.65C4504.85,2246.36 4505.63,2246.71 4506.87,2246.71C4507.79,2246.71 4508.65,2246.29 4509.46,2245.44C4510.26,2244.59 4511.03,2243.67 4511.76,2242.68C4512.49,2241.69 4513.19,2240.77 4513.86,2239.92C4514.53,2239.07 4515.17,2238.64 4515.76,2238.64C4516.46,2238.64 4516.89,2238.82 4517.05,2239.17C4517.21,2239.52 4517.29,2240.12 4517.29,2240.97C4517.29,2245.77 4516.84,2250.11 4515.92,2254C4515,2257.88 4513.68,2261.37 4511.96,2264.48C4510.24,2267.59 4508.12,2270.36 4505.62,2272.79C4503.11,2275.23 4500.24,2277.44 4497.01,2279.41ZM4494.67,2210.3L4502.99,2210.3C4503.32,2210.3 4503.5,2210.38 4503.56,2210.56L4503.8,2211.36C4503.96,2212.35 4504.08,2213.48 4504.16,2214.76C4504.24,2216.03 4504.3,2217.32 4504.32,2218.63C4504.35,2219.94 4504.36,2221.23 4504.36,2222.51L4504.36,2226.01C4504.36,2226.58 4504.12,2226.86 4503.64,2226.86C4503.37,2226.86 4502.76,2226.54 4501.82,2225.9C4500.88,2225.26 4499.91,2224.52 4498.91,2223.67C4497.91,2222.82 4496.98,2221.99 4496.12,2221.18C4495.26,2220.36 4494.78,2219.78 4494.67,2219.43C4494.56,2219.21 4494.48,2218.74 4494.43,2217.99C4494.37,2217.25 4494.33,2216.47 4494.31,2215.66L4494.23,2213.27C4494.2,2212.49 4494.18,2211.92 4494.18,2211.57L4494.18,2210.72C4494.18,2210.44 4494.35,2210.3 4494.67,2210.3ZM4532.57,2236.84L4532,2237.16L4529.98,2237.16C4529.01,2237.16 4527.91,2237.14 4526.67,2237.1C4525.43,2237.07 4524.12,2237.03 4522.75,2237C4521.37,2236.96 4520.1,2236.91 4518.91,2236.84C4517.72,2236.77 4516.73,2236.7 4515.92,2236.62C4515.11,2236.55 4514.6,2236.48 4514.39,2236.41C4514.17,2236.27 4513.97,2236.13 4513.78,2235.99C4513.59,2235.85 4513.5,2235.6 4513.5,2235.24L4513.5,2213.48C4513.5,2212.77 4513.77,2212.42 4514.3,2212.42L4532.08,2212.42C4532.62,2212.42 4532.89,2212.77 4532.89,2213.48L4532.89,2235.99L4532.65,2236.73L4532.57,2236.84ZM4515.44,2224.31C4515.49,2224.38 4515.57,2224.42 4515.68,2224.42L4527.19,2224.42C4528.24,2224.42 4529.1,2224.4 4529.78,2224.36C4530.45,2224.33 4530.84,2224.31 4530.95,2224.31C4530.9,2224.1 4530.75,2223.94 4530.51,2223.83C4530.26,2223.73 4530.09,2223.67 4529.98,2223.67L4516.4,2223.67C4516.3,2223.67 4516.12,2223.73 4515.88,2223.83C4515.64,2223.94 4515.49,2224.1 4515.44,2224.31ZM4363.69,2257.75C4363.69,2258.81 4363.73,2259.98 4363.81,2261.26C4363.89,2262.53 4364.08,2263.75 4364.38,2264.92C4364.67,2266.09 4365.12,2267.06 4365.71,2267.84C4366.3,2268.62 4367.14,2269.01 4368.21,2269.01C4368.48,2269.01 4368.71,2268.85 4368.9,2268.53C4369.09,2268.21 4369.25,2267.84 4369.39,2267.41C4369.52,2266.99 4369.61,2266.55 4369.67,2266.09C4369.72,2265.63 4369.75,2265.26 4369.75,2264.97C4369.75,2264.12 4369.6,2263.18 4369.31,2262.16C4369.01,2261.13 4368.61,2260.18 4368.09,2259.29C4367.58,2258.41 4366.99,2257.68 4366.32,2257.12C4365.64,2256.55 4364.95,2256.27 4364.26,2256.27C4363.93,2256.27 4363.76,2256.44 4363.73,2256.8C4363.7,2257.15 4363.69,2257.47 4363.69,2257.75ZM4427.52,2223.04L4427.28,2223.35L4427.52,2223.67L4437.86,2223.67L4438.11,2223.35L4437.86,2223.04L4427.52,2223.04ZM4319.33,2217.94C4319.22,2217.73 4318.97,2217.57 4318.56,2217.46C4318.16,2217.36 4317.71,2217.27 4317.23,2217.2C4316.74,2217.13 4316.27,2217.09 4315.81,2217.09L4314.89,2217.09C4314.35,2217.09 4314.12,2217.37 4314.2,2217.94C4314.28,2218.51 4314.43,2218.79 4314.64,2218.79C4315.34,2218.79 4316.08,2218.74 4316.86,2218.63C4317.65,2218.52 4318.36,2218.37 4319.01,2218.15C4319.11,2218.15 4319.22,2218.08 4319.33,2217.94ZM4501.38,2195.43L4501.13,2195.75L4501.38,2196.07C4501.65,2196.07 4502.13,2196.09 4502.83,2196.12C4503.53,2196.16 4504.26,2196.18 4505.01,2196.18C4505.77,2196.18 4506.47,2196.16 4507.11,2196.12C4507.76,2196.09 4508.16,2196 4508.32,2195.86L4508.49,2195.54C4508.38,2195.47 4507.99,2195.41 4507.31,2195.38C4506.64,2195.34 4505.91,2195.33 4505.13,2195.33C4504.35,2195.33 4503.6,2195.34 4502.87,2195.38C4502.14,2195.41 4501.65,2195.43 4501.38,2195.43ZM4312.86,2264.76L4312.54,2265.08L4312.86,2265.5L4325.79,2265.5L4326.03,2265.08L4325.79,2264.76L4312.86,2264.76ZM4394.23,2200.21L4393.91,2200.64C4393.91,2200.92 4393.94,2201.13 4393.99,2201.27C4394.26,2202.12 4394.57,2202.97 4394.92,2203.82C4395.27,2204.67 4395.58,2205.52 4395.85,2206.37C4396.28,2207.78 4396.67,2209.18 4397.02,2210.56C4397.37,2211.94 4397.73,2213.34 4398.11,2214.76C4398.16,2214.97 4398.34,2215.2 4398.64,2215.45C4398.93,2215.69 4399.26,2215.91 4399.61,2216.08C4399.96,2216.26 4400.31,2216.4 4400.66,2216.51C4401.01,2216.61 4401.26,2216.67 4401.42,2216.67C4402.39,2216.67 4403.3,2216.15 4404.13,2215.13C4404.97,2214.1 4405.38,2212.95 4405.38,2211.68C4405.38,2210.83 4405.18,2209.96 4404.78,2209.08C4404.37,2208.19 4403.95,2207.31 4403.52,2206.42C4403.09,2205.54 4402.76,2204.67 4402.51,2203.82C4402.27,2202.97 4402.31,2202.23 4402.64,2201.59C4404.04,2200.32 4405.36,2198.9 4406.6,2197.34C4407.83,2195.79 4409.02,2194.19 4410.15,2192.57C4410.58,2192 4410.98,2191.43 4411.36,2190.87C4411.74,2190.3 4412.14,2189.77 4412.57,2189.28C4412.68,2189.13 4412.88,2188.99 4413.18,2188.85C4413.48,2188.71 4413.77,2188.53 4414.07,2188.32C4414.36,2188.11 4414.62,2187.89 4414.84,2187.68C4415.05,2187.47 4415.16,2187.26 4415.16,2187.05C4415.16,2186.9 4415.08,2186.76 4414.92,2186.62C4414.76,2186.48 4414.62,2186.37 4414.51,2186.3C4414.24,2186.09 4413.6,2185.72 4412.57,2185.19C4411.55,2184.66 4410.45,2184.13 4409.26,2183.6C4408.08,2183.06 4406.98,2182.59 4405.99,2182.16C4404.99,2181.74 4404.39,2181.56 4404.17,2181.63C4403.85,2181.7 4403.52,2182.46 4403.2,2183.91C4402.88,2185.37 4402.58,2186.99 4402.31,2188.8C4402.04,2190.6 4401.83,2192.32 4401.67,2193.95C4401.5,2195.57 4401.4,2196.64 4401.34,2197.13C4401.29,2197.63 4401.25,2198.25 4401.22,2198.99C4401.19,2199.73 4401.13,2200.32 4401.02,2200.74C4400.86,2201.38 4400.48,2201.71 4399.89,2201.75C4399.3,2201.78 4398.64,2201.7 4397.91,2201.48C4397.18,2201.27 4396.47,2201.01 4395.77,2200.69C4395.07,2200.37 4394.56,2200.21 4394.23,2200.21ZM4424.69,2245.12L4425.18,2245.65C4425.56,2245.65 4426.4,2245.63 4427.73,2245.6C4429.04,2245.56 4430.42,2245.51 4431.85,2245.44C4433.27,2245.37 4434.58,2245.28 4435.76,2245.17C4436.95,2245.07 4437.62,2244.94 4437.78,2244.8C4437.52,2244.45 4437.19,2244.27 4436.82,2244.27L4425.5,2244.27C4424.96,2244.27 4424.69,2244.55 4424.69,2245.12ZM4454.19,2191.4C4454.19,2192.39 4454.5,2194 4455.12,2196.23C4455.74,2198.46 4456.5,2200.72 4457.42,2203.02C4458.34,2205.32 4459.31,2207.36 4460.33,2209.13C4461.35,2210.9 4462.27,2211.78 4463.07,2211.78C4464.48,2211.78 4465.61,2211.23 4466.47,2210.14C4467.33,2209.04 4467.76,2207.57 4467.76,2205.73C4467.76,2203.89 4467.34,2202.05 4466.51,2200.21C4465.68,2198.37 4464.62,2196.72 4463.36,2195.27C4462.09,2193.82 4460.7,2192.64 4459.2,2191.72C4457.69,2190.8 4456.26,2190.34 4454.91,2190.34C4454.43,2190.34 4454.19,2190.69 4454.19,2191.4ZM4439.89,2279.94C4440.21,2280.37 4440.92,2280.54 4442.03,2280.47C4443.13,2280.4 4444.29,2280.17 4445.5,2279.78C4446.71,2279.39 4447.8,2278.88 4448.77,2278.24C4449.74,2277.61 4450.23,2276.9 4450.23,2276.12L4450.23,2246.39C4450.23,2245.68 4450.5,2245.33 4451.04,2245.33L4468.89,2245.33C4469.16,2245.33 4469.3,2245.12 4469.3,2244.69L4469.06,2243.95C4468.78,2243.6 4468.26,2242.96 4467.48,2242.04C4466.7,2241.12 4465.86,2240.15 4464.97,2239.12C4464.09,2238.09 4463.24,2237.19 4462.43,2236.41C4461.62,2235.63 4461.11,2235.17 4460.89,2235.03C4460.25,2235.1 4459.67,2235.63 4459.16,2236.62C4458.65,2237.62 4458.07,2238.68 4457.42,2239.81C4456.77,2240.94 4455.99,2241.99 4455.08,2242.94C4454.16,2243.9 4452.95,2244.38 4451.44,2244.38C4451.23,2244.38 4451.01,2244.32 4450.79,2244.22C4450.58,2244.11 4450.47,2243.88 4450.47,2243.53L4450.47,2224.74C4450.47,2224.03 4450.74,2223.67 4451.28,2223.67L4465.26,2223.67L4465.82,2223.35C4465.88,2223.28 4465.9,2223.14 4465.9,2222.93C4465.9,2222.79 4465.53,2222.26 4464.77,2221.34C4464.02,2220.42 4463.18,2219.43 4462.27,2218.37C4461.35,2217.3 4460.46,2216.35 4459.6,2215.5C4458.74,2214.65 4458.23,2214.22 4458.07,2214.22C4457.64,2214.22 4457.23,2214.65 4456.85,2215.5C4456.48,2216.35 4456.06,2217.28 4455.6,2218.31C4455.14,2219.34 4454.61,2220.28 4453.98,2221.12C4453.37,2221.97 4452.62,2222.4 4451.76,2222.4C4450.9,2222.4 4450.47,2221.9 4450.47,2220.91L4450.47,2187.36L4450.71,2186.62C4450.82,2186.48 4451.04,2186.21 4451.36,2185.83C4451.68,2185.43 4451.84,2185.14 4451.84,2184.92C4451.84,2184.78 4451.75,2184.62 4451.56,2184.44C4451.37,2184.27 4451.23,2184.14 4451.12,2184.07L4449.54,2183.86C4448.49,2183.72 4447.32,2183.54 4446.03,2183.33C4444.73,2183.12 4443.52,2182.94 4442.39,2182.8C4441.26,2182.66 4440.61,2182.59 4440.45,2182.59C4439.86,2182.59 4439.56,2183.14 4439.56,2184.23C4439.56,2185.33 4439.62,2186.51 4439.72,2187.79C4439.83,2189.06 4439.87,2190.25 4439.85,2191.35C4439.82,2192.44 4439.51,2192.99 4438.92,2192.99C4438.43,2192.99 4437.66,2192.71 4436.61,2192.14C4435.56,2191.58 4434.47,2191.01 4433.34,2190.44C4432.21,2189.88 4431.2,2189.45 4430.31,2189.17C4429.42,2188.89 4428.92,2189.03 4428.82,2189.59C4428.55,2191.22 4428.24,2192.81 4427.89,2194.37C4427.54,2195.93 4427.15,2197.49 4426.72,2199.04C4426.39,2200.18 4426.01,2201.47 4425.58,2202.92C4425.15,2204.37 4424.76,2205.84 4424.41,2207.32C4424.06,2208.81 4423.75,2210.28 4423.48,2211.73C4423.21,2213.18 4423.08,2214.51 4423.08,2215.71C4423.08,2215.85 4423.09,2216.06 4423.12,2216.35C4423.15,2216.63 4423.27,2216.77 4423.48,2216.77C4423.81,2216.77 4424.37,2216.26 4425.18,2215.23C4425.99,2214.21 4426.92,2212.91 4427.97,2211.36C4429.02,2209.8 4430.12,2208.12 4431.28,2206.32C4432.44,2204.51 4433.54,2202.85 4434.59,2201.33C4435.64,2199.8 4436.56,2198.55 4437.34,2197.56C4438.12,2196.57 4438.65,2196.07 4438.92,2196.07C4439.4,2196.14 4439.66,2196.39 4439.68,2196.81C4439.71,2197.24 4439.72,2197.7 4439.72,2198.19L4439.72,2279.2C4439.72,2279.27 4439.75,2279.39 4439.81,2279.57C4439.86,2279.75 4439.89,2279.87 4439.89,2279.94ZM4498.63,2252.76L4498.39,2253.08L4498.63,2253.4L4513.9,2253.4L4514.79,2252.87C4514.47,2252.8 4513.56,2252.74 4512.08,2252.71C4510.6,2252.67 4508.96,2252.66 4507.15,2252.66C4505.35,2252.66 4503.62,2252.67 4501.98,2252.71C4500.34,2252.74 4499.22,2252.76 4498.63,2252.76ZM4525.13,2196.07L4525.37,2195.75L4525.13,2195.43C4524.97,2195.43 4524.69,2195.41 4524.28,2195.38C4523.88,2195.34 4523.46,2195.33 4523.03,2195.33C4522.6,2195.33 4522.2,2195.34 4521.82,2195.38C4521.44,2195.41 4521.23,2195.47 4521.17,2195.54L4521.33,2195.86C4521.49,2196 4521.74,2196.09 4522.06,2196.12C4522.38,2196.16 4522.75,2196.18 4523.15,2196.18C4523.56,2196.18 4523.93,2196.16 4524.28,2196.12C4524.63,2196.09 4524.92,2196.07 4525.13,2196.07ZM4609.09,2207.43L4628.48,2207.43L4629.04,2207.11L4629.37,2206.58C4629.31,2206.16 4628.95,2205.68 4628.28,2205.15L4626.05,2203.39C4625.24,2202.76 4624.5,2202.03 4623.83,2201.22C4623.16,2200.41 4622.82,2199.54 4622.82,2198.62C4622.82,2197.63 4623.01,2196.69 4623.39,2195.8C4623.76,2194.92 4623.95,2193.98 4623.95,2192.99C4623.95,2191.08 4623.53,2189.61 4622.7,2188.59C4621.86,2187.56 4620.86,2186.8 4619.67,2186.3C4618.48,2185.81 4617.22,2185.51 4615.87,2185.4C4614.53,2185.29 4613.34,2185.24 4612.32,2185.24C4611.99,2185.24 4611.66,2185.26 4611.31,2185.29C4610.96,2185.33 4610.78,2185.66 4610.78,2186.3C4610.78,2187.15 4611.08,2188.04 4611.67,2188.96C4612.26,2189.88 4612.91,2190.87 4613.61,2191.93C4614.31,2192.99 4614.96,2194.12 4615.55,2195.33C4616.14,2196.53 4616.44,2197.84 4616.44,2199.26C4616.44,2200.39 4616.26,2201.36 4615.91,2202.17C4615.56,2202.99 4615.1,2203.68 4614.54,2204.24C4613.97,2204.81 4613.33,2205.27 4612.6,2205.62C4611.87,2205.98 4611.16,2206.26 4610.46,2206.47C4610.08,2206.62 4609.69,2206.69 4609.29,2206.69C4608.88,2206.69 4608.49,2206.76 4608.11,2206.9C4608.22,2207.04 4608.37,2207.16 4608.56,2207.27C4608.75,2207.38 4608.92,2207.43 4609.09,2207.43ZM4596.16,2255.84C4596.05,2255.63 4595.89,2255.52 4595.67,2255.52C4594.59,2255.52 4593.52,2255.66 4592.44,2255.95C4591.36,2256.23 4590.28,2256.53 4589.21,2256.85C4588.13,2257.17 4587.05,2257.47 4585.98,2257.75C4584.9,2258.03 4583.82,2258.18 4582.74,2258.18C4582.2,2258.18 4581.94,2257.82 4581.94,2257.12L4581.94,2229.41C4581.94,2228.7 4582.2,2228.34 4582.74,2228.34L4593.65,2228.34C4593.87,2228.34 4594.08,2228.31 4594.3,2228.24C4594.51,2228.17 4594.62,2227.95 4594.62,2227.6C4594.62,2227.32 4594.26,2226.63 4593.53,2225.53C4592.8,2224.43 4591.99,2223.3 4591.11,2222.13C4590.22,2220.97 4589.34,2219.92 4588.48,2219C4587.62,2218.08 4587.08,2217.62 4586.86,2217.62C4586.65,2217.62 4586.27,2218.1 4585.73,2219.05C4585.19,2220.01 4584.61,2221.07 4584,2222.24C4583.38,2223.41 4582.78,2224.47 4582.22,2225.43C4581.65,2226.38 4581.26,2226.86 4581.05,2226.86L4558.83,2226.86C4558.72,2226.86 4558.57,2226.91 4558.38,2227.02C4558.19,2227.12 4558.1,2227.28 4558.1,2227.49C4558.1,2227.71 4558.15,2227.95 4558.26,2228.24C4558.37,2228.52 4558.53,2228.66 4558.74,2228.66L4570.3,2228.66C4570.84,2228.66 4571.11,2229.02 4571.11,2229.72L4571.11,2259.77C4571.11,2260.12 4570.81,2260.41 4570.22,2260.62C4569.63,2260.83 4569.22,2260.97 4569.01,2261.04C4567.34,2261.54 4565.67,2261.95 4564,2262.26C4562.33,2262.58 4560.63,2262.81 4558.91,2262.95C4558.8,2262.95 4558.56,2262.97 4558.18,2263.01L4557.05,2263.11C4556.67,2263.15 4556.33,2263.24 4556.04,2263.38C4555.74,2263.52 4555.59,2263.7 4555.59,2263.91C4555.59,2264.55 4555.88,2265.61 4556.44,2267.1C4557.01,2268.58 4557.68,2270.1 4558.46,2271.66C4559.24,2273.22 4560.04,2274.58 4560.85,2275.75C4561.65,2276.91 4562.3,2277.5 4562.78,2277.5C4563.43,2277.5 4564.02,2277.11 4564.56,2276.33C4565.1,2275.55 4565.67,2274.99 4566.26,2274.63C4567.66,2273.64 4569.13,2272.76 4570.66,2271.98C4572.2,2271.2 4573.69,2270.39 4575.15,2269.54C4577.84,2267.98 4580.51,2266.39 4583.15,2264.76L4591.07,2259.88C4591.34,2259.66 4591.74,2259.41 4592.28,2259.13C4592.82,2258.85 4593.36,2258.51 4593.89,2258.12C4594.43,2257.74 4594.92,2257.35 4595.35,2256.96C4595.78,2256.57 4596.05,2256.2 4596.16,2255.84ZM4595.43,2206.37L4595.43,2207.01C4596.02,2209.06 4596.35,2211.2 4596.4,2213.43C4596.45,2215.66 4596.61,2217.87 4596.88,2220.06C4597.21,2223.18 4597.69,2226.8 4598.34,2230.95C4598.98,2235.09 4599.82,2239.37 4600.84,2243.79C4601.87,2248.22 4603.09,2252.59 4604.52,2256.9C4605.95,2261.22 4607.63,2265.06 4609.57,2268.42C4611.51,2271.78 4613.72,2274.51 4616.19,2276.6C4618.67,2278.68 4621.45,2279.73 4624.52,2279.73C4626.94,2279.73 4628.48,2279.18 4629.12,2278.08C4629.77,2276.99 4629.98,2275.62 4629.77,2274C4629.55,2272.37 4629.15,2270.6 4628.56,2268.69C4627.97,2266.78 4627.67,2265.01 4627.67,2263.38C4627.67,2261.47 4627.76,2259.56 4627.95,2257.65C4628.14,2255.74 4628.23,2253.82 4628.23,2251.91C4628.23,2251.7 4628.21,2251.47 4628.15,2251.22C4628.1,2250.97 4627.97,2250.82 4627.75,2250.74C4627.43,2250.67 4627.1,2251.14 4626.78,2252.12C4626.46,2253.12 4626.08,2254.23 4625.65,2255.47C4625.22,2256.71 4624.68,2257.86 4624.03,2258.92C4623.39,2259.98 4622.55,2260.51 4621.53,2260.51C4621.26,2260.51 4621.07,2260.44 4620.96,2260.3C4618.7,2257.89 4616.79,2255.12 4615.23,2251.97C4613.66,2248.82 4612.36,2245.49 4611.31,2241.99C4610.26,2238.48 4609.41,2234.86 4608.76,2231.1C4608.11,2227.35 4607.6,2223.67 4607.23,2220.06C4607.01,2218.22 4606.78,2216.42 4606.54,2214.65C4606.3,2212.88 4606.18,2211.07 4606.18,2209.23C4606.18,2208.74 4606.26,2208.31 4606.42,2207.96C4606.58,2207.61 4606.66,2207.18 4606.66,2206.69C4606.66,2206.19 4606.57,2205.73 4606.38,2205.31C4606.19,2204.88 4606.1,2204.39 4606.1,2203.82C4606.1,2203.25 4606.11,2202.7 4606.14,2202.17C4606.16,2201.64 4606.2,2201.1 4606.26,2200.53C4606.31,2199.89 4606.34,2198.92 4606.34,2197.61C4606.34,2196.3 4606.35,2194.94 4606.38,2193.52C4606.4,2192.11 4606.43,2190.8 4606.46,2189.59C4606.48,2188.39 4606.55,2187.61 4606.66,2187.26C4606.82,2186.62 4607.02,2186.18 4607.27,2185.93C4607.51,2185.68 4607.75,2185.51 4607.99,2185.4C4608.24,2185.29 4608.47,2185.2 4608.68,2185.14C4608.9,2185.06 4609.09,2184.89 4609.25,2184.6L4608.6,2183.97C4607.15,2183.61 4605.66,2183.42 4604.16,2183.38C4602.65,2183.35 4601.17,2183.19 4599.71,2182.91C4599.12,2182.76 4598.57,2182.62 4598.06,2182.48C4597.54,2182.34 4596.99,2182.27 4596.4,2182.27C4596.07,2182.27 4595.82,2182.32 4595.63,2182.43C4595.44,2182.53 4595.35,2182.83 4595.35,2183.33C4595.35,2186.73 4595.46,2190.14 4595.67,2193.58C4595.89,2197.01 4595.99,2200.42 4595.99,2203.82C4595.99,2204.39 4595.98,2204.85 4595.95,2205.2C4595.93,2205.55 4595.75,2205.94 4595.43,2206.37ZM4549.05,2266.46L4548.81,2266.03C4547.68,2265.82 4546.14,2265.27 4544.2,2264.39C4542.26,2263.5 4540.3,2262.58 4538.3,2261.63C4536.31,2260.67 4534.48,2259.8 4532.81,2259.03C4531.14,2258.25 4530.03,2257.86 4529.49,2257.86C4529.28,2257.86 4529.16,2257.98 4529.13,2258.23C4529.1,2258.48 4529.09,2258.67 4529.09,2258.81C4529.09,2260.51 4529.47,2262.58 4530.22,2265.03C4530.98,2267.47 4531.96,2269.84 4533.17,2272.14C4534.38,2274.44 4535.73,2276.38 4537.21,2277.98C4538.69,2279.57 4540.16,2280.37 4541.61,2280.37C4541.99,2280.37 4542.36,2279.82 4542.71,2278.72C4543.06,2277.62 4543.49,2276.33 4544,2274.85C4544.51,2273.36 4545.14,2271.87 4545.9,2270.39C4546.65,2268.9 4547.62,2267.77 4548.81,2266.99L4549.05,2266.46ZM4474.47,2208.81L4474.15,2209.13L4474.47,2209.55L4481.5,2209.55L4481.74,2209.13L4481.5,2208.81L4474.47,2208.81ZM4555.84,2207.11L4556.4,2207.43L4593.41,2207.43L4593.98,2207.11L4594.14,2206.79C4594.08,2206.72 4594,2206.69 4593.89,2206.69L4555.92,2206.69C4555.81,2206.69 4555.73,2206.72 4555.67,2206.79L4555.84,2207.11Z" style="fill:white;"/>
            </g>
        </g>
    </g>
</svg>
