<?xml version="1.0" encoding="UTF-8" standalone="no"?>
<!DOCTYPE svg PUBLIC "-//W3C//DTD SVG 1.1//EN" "http://www.w3.org/Graphics/SVG/1.1/DTD/svg11.dtd">
<svg width="100%" height="100%" viewBox="0 0 300 70" version="1.1" xmlns="http://www.w3.org/2000/svg" xmlns:xlink="http://www.w3.org/1999/xlink" xml:space="preserve" xmlns:serif="http://www.serif.com/" style="fill-rule:evenodd;clip-rule:evenodd;stroke-linejoin:round;stroke-miterlimit:2;">
    <g transform="matrix(1,0,0,1,-1623,-364.074)">
        <g id="图层1">
        </g>
        <g id="Artboard2" transform="matrix(0.20629,0,0,0.255517,1288.07,344.937)">
            <rect x="1623.58" y="74.895" width="1454.26" height="273.954" style="fill:none;"/>
            <g transform="matrix(1.51229,0,0,1.2928,-967.776,-7.00545)">
                <path d="M1777.84,103.372L1769.87,103.372C1768.73,103.372 1767.76,102.992 1766.96,102.233C1766.17,101.473 1765.77,100.524 1765.77,99.385C1765.77,98.246 1766.17,97.277 1766.96,96.48C1767.76,95.682 1768.73,95.284 1769.87,95.284L1793.9,95.284C1795.04,95.284 1796.01,95.682 1796.81,96.48C1797.61,97.277 1798.01,98.246 1798.01,99.385C1798.01,100.524 1797.61,101.473 1796.81,102.233C1796.01,102.992 1795.04,103.372 1793.9,103.372L1785.93,103.372L1785.93,123.648L1793.9,123.648C1795.04,123.648 1796.01,124.047 1796.81,124.844C1797.61,125.642 1798.01,126.61 1798.01,127.749C1798.01,128.812 1797.61,129.743 1796.81,130.54C1796.01,131.338 1795.04,131.736 1793.9,131.736L1785.93,131.736L1785.93,158.734L1794.47,152.81C1795.46,152.203 1796.49,151.994 1797.55,152.184C1798.61,152.374 1799.49,152.924 1800.17,153.836C1800.7,154.823 1800.87,155.848 1800.68,156.911C1800.49,157.974 1799.94,158.81 1799.03,159.417L1770.89,178.897C1769.91,179.58 1768.88,179.808 1767.82,179.58C1766.76,179.352 1765.92,178.783 1765.31,177.871C1764.63,176.884 1764.38,175.859 1764.57,174.796C1764.76,173.733 1765.31,172.859 1766.22,172.176L1777.84,164.316L1777.84,131.736L1769.87,131.736C1768.73,131.736 1767.76,131.338 1766.96,130.54C1766.17,129.743 1765.77,128.812 1765.77,127.749C1765.77,126.61 1766.17,125.642 1766.96,124.844C1767.76,124.047 1768.73,123.648 1769.87,123.648L1777.84,123.648L1777.84,103.372ZM1811.11,95.17L1811.11,136.748C1811.11,137.812 1810.73,138.742 1809.97,139.539C1809.21,140.337 1808.26,140.735 1807.12,140.735C1805.98,140.735 1804.99,140.337 1804.16,139.539C1803.32,138.742 1802.9,137.812 1802.9,136.748L1802.9,91.183C1802.9,90.044 1803.32,89.075 1804.16,88.278C1804.99,87.481 1805.98,87.082 1807.12,87.082L1840.5,87.082C1841.63,87.082 1842.6,87.481 1843.4,88.278C1844.2,89.075 1844.6,90.044 1844.6,91.183L1844.6,137.09C1844.6,138.229 1844.2,139.179 1843.4,139.938C1842.6,140.697 1841.63,141.077 1840.5,141.077C1839.43,141.077 1838.5,140.697 1837.7,139.938C1836.91,139.179 1836.51,138.229 1836.51,137.09L1836.51,95.17L1811.11,95.17ZM1803.82,187.896C1803.06,188.731 1802.14,189.225 1801.08,189.377C1800.02,189.529 1799.03,189.263 1798.12,188.579C1797.28,187.82 1796.79,186.909 1796.64,185.845C1796.49,184.782 1796.75,183.795 1797.44,182.884C1805.56,172.555 1811.32,161.601 1814.69,150.019C1818.07,138.438 1819.76,125.965 1819.76,112.599L1819.76,105.992C1819.76,104.928 1820.16,103.998 1820.96,103.201C1821.76,102.403 1822.73,102.005 1823.86,102.005C1824.93,102.005 1825.86,102.403 1826.65,103.201C1827.45,103.998 1827.85,104.928 1827.85,105.992L1827.85,112.599C1827.85,126.724 1826.03,140.052 1822.38,152.583C1818.74,165.113 1812.55,176.884 1803.82,187.896ZM1826.48,176.618L1826.48,150.19C1826.48,149.051 1826.88,148.083 1827.68,147.286C1828.48,146.488 1829.45,146.089 1830.59,146.089C1831.72,146.089 1832.67,146.488 1833.43,147.286C1834.19,148.083 1834.57,149.051 1834.57,150.19L1834.57,176.618C1834.57,178.365 1835.33,179.58 1836.85,180.264C1838.37,180.947 1839.89,180.985 1841.41,180.378C1842.93,179.77 1843.8,178.441 1844.03,176.391L1844.37,168.417C1844.44,167.277 1844.88,166.347 1845.68,165.626C1846.48,164.904 1847.44,164.581 1848.58,164.657C1849.72,164.733 1850.67,165.17 1851.43,165.967C1852.19,166.765 1852.53,167.733 1852.46,168.872L1852,176.846C1851.32,182.694 1849,186.415 1845.05,188.01C1843.38,188.693 1841.39,188.997 1839.07,188.921C1836.76,188.845 1834.8,188.427 1833.2,187.668C1828.73,185.542 1826.48,181.858 1826.48,176.618Z" style="fill:white;fill-rule:nonzero;"/>
                <path d="M1905.09,139.71C1904.78,138.571 1904.84,137.527 1905.26,136.578C1905.67,135.628 1906.41,134.926 1907.48,134.47C1908.62,134.166 1909.66,134.242 1910.61,134.698C1911.56,135.154 1912.26,135.913 1912.72,136.976C1914.77,142.824 1917.12,148.064 1919.78,152.696C1923.58,146.317 1926.77,139.52 1929.35,132.306L1903.15,132.306C1902.01,132.306 1901.04,131.926 1900.24,131.167C1899.45,130.407 1899.05,129.458 1899.05,128.319C1899.05,127.18 1899.45,126.211 1900.24,125.414C1901.04,124.617 1902.01,124.218 1903.15,124.218L1934.93,124.218C1936.37,124.218 1937.48,124.806 1938.23,125.984C1938.99,127.161 1939.18,128.395 1938.8,129.686C1935.31,140.546 1930.6,150.722 1924.68,160.215C1930.53,167.809 1937.7,175.365 1946.21,182.884C1947.04,183.643 1947.48,184.573 1947.52,185.675C1947.56,186.776 1947.23,187.744 1946.55,188.579C1945.79,189.415 1944.86,189.87 1943.76,189.946C1942.66,190.022 1941.69,189.681 1940.85,188.921C1932.8,181.782 1925.86,174.606 1920.01,167.391C1914.54,175.062 1908.16,182.2 1900.87,188.807C1900.04,189.567 1899.07,189.927 1897.97,189.889C1896.86,189.851 1895.93,189.415 1895.17,188.579C1894.41,187.744 1894.05,186.776 1894.09,185.675C1894.13,184.573 1894.57,183.643 1895.4,182.884C1902.92,175.973 1909.49,168.455 1915.11,160.329C1911.16,154.329 1907.82,147.456 1905.09,139.71ZM1887.31,127.408L1887.31,185.845C1887.31,186.909 1886.9,187.858 1886.06,188.693C1885.23,189.529 1884.28,189.946 1883.21,189.946C1882.07,189.946 1881.11,189.529 1880.31,188.693C1879.51,187.858 1879.11,186.909 1879.11,185.845L1879.11,137.204C1876.53,140.014 1873.8,142.634 1870.91,145.064C1870,145.824 1869.01,146.146 1867.95,146.032C1866.89,145.919 1865.98,145.444 1865.22,144.609C1864.46,143.697 1864.13,142.71 1864.25,141.647C1864.36,140.584 1864.84,139.672 1865.67,138.913C1870.23,134.964 1874.37,130.597 1878.09,125.813C1881.81,120.876 1884.96,115.636 1887.54,110.093C1888.07,109.029 1888.85,108.327 1889.88,107.985C1890.9,107.643 1891.95,107.7 1893.01,108.156C1894,108.688 1894.68,109.466 1895.06,110.491C1895.44,111.517 1895.4,112.523 1894.95,113.51C1892.67,118.294 1890.09,122.813 1887.2,127.066C1887.2,127.218 1887.24,127.332 1887.31,127.408ZM1905.65,119.206C1905.12,120.193 1904.33,120.857 1903.26,121.199C1902.2,121.541 1901.17,121.446 1900.19,120.914C1899.12,120.307 1898.46,119.472 1898.19,118.408C1897.93,117.345 1898.06,116.32 1898.59,115.333C1902.77,107.435 1904.86,98.815 1904.86,89.474C1904.86,88.335 1905.28,87.367 1906.11,86.569C1906.95,85.772 1907.89,85.373 1908.96,85.373L1931.29,85.373C1932.35,85.373 1933.28,85.772 1934.08,86.569C1934.87,87.367 1935.27,88.335 1935.27,89.474L1935.27,112.371L1940.06,112.371C1941.12,112.371 1942.05,112.789 1942.85,113.624C1943.64,114.459 1944.04,115.447 1944.04,116.586C1944.04,117.649 1943.64,118.579 1942.85,119.377C1942.05,120.174 1941.12,120.573 1940.06,120.573L1931.29,120.573C1930.15,120.573 1929.18,120.174 1928.38,119.377C1927.58,118.579 1927.18,117.649 1927.18,116.586L1927.18,93.461L1912.94,93.461C1912.49,102.574 1910.06,111.156 1905.65,119.206ZM1870.8,121.37C1869.96,122.205 1868.99,122.623 1867.89,122.623C1866.79,122.623 1865.86,122.205 1865.1,121.37C1864.34,120.459 1863.96,119.49 1863.96,118.465C1863.96,117.44 1864.34,116.51 1865.1,115.674C1869.66,111.27 1873.49,106.751 1876.61,102.119C1880.02,97.486 1882.95,92.322 1885.38,86.626C1885.91,85.563 1886.67,84.861 1887.66,84.519C1888.64,84.177 1889.67,84.196 1890.73,84.576C1891.8,85.107 1892.52,85.886 1892.9,86.911C1893.28,87.936 1893.24,88.981 1892.78,90.044C1890.05,96.043 1886.9,101.625 1883.33,106.789C1879.83,111.801 1875.66,116.662 1870.8,121.37Z" style="fill:white;fill-rule:nonzero;"/>
                <path d="M2001.23,136.521L2004.19,131.85C2004.87,130.863 2005.75,130.274 2006.81,130.085C2007.87,129.895 2008.9,130.103 2009.89,130.711C2010.72,131.319 2011.25,132.154 2011.48,133.217C2011.71,134.28 2011.48,135.306 2010.8,136.293L2010.57,136.521L2031.42,136.521C2032.48,136.521 2033.35,136.881 2034.04,137.603C2034.72,138.324 2035.06,139.217 2035.06,140.28L2035.06,160.898C2035.06,161.961 2034.72,162.854 2034.04,163.575C2033.35,164.297 2032.48,164.657 2031.42,164.657L2010.34,164.657C2009.35,167.088 2008.18,169.328 2006.81,171.378C2001.72,179.124 1993.98,185.2 1983.57,189.605C1982.51,189.984 1981.48,189.984 1980.5,189.605C1979.51,189.225 1978.79,188.503 1978.33,187.44C1977.95,186.377 1977.95,185.333 1978.33,184.308C1978.71,183.282 1979.39,182.542 1980.38,182.086C1989.42,178.365 1996.03,173.315 2000.2,166.936L2001.57,164.657L1988.93,164.657C1987.94,164.657 1987.07,164.297 1986.31,163.575C1985.55,162.854 1985.17,161.961 1985.17,160.898L1985.17,140.28C1985.17,139.217 1985.55,138.324 1986.31,137.603C1987.07,136.881 1987.94,136.521 1988.93,136.521L2001.23,136.521ZM2005.9,91.98L2005.9,87.652C2005.9,86.512 2006.3,85.544 2007.1,84.747C2007.89,83.949 2008.82,83.551 2009.89,83.551C2010.95,83.551 2011.88,83.949 2012.68,84.747C2013.47,85.544 2013.87,86.512 2013.87,87.652L2013.87,91.98L2038.36,91.98C2039.43,91.98 2040.36,92.379 2041.15,93.176C2041.95,93.974 2042.35,94.904 2042.35,95.967C2042.35,97.106 2041.95,98.075 2041.15,98.872C2040.36,99.669 2039.43,100.068 2038.36,100.068L1978.1,100.068L1978.1,111.346C1978.1,118.94 1977.93,126.173 1977.59,133.046C1977.25,139.919 1976.59,146.469 1975.6,152.696C1973.85,165.227 1970.24,176.922 1964.78,187.782C1964.17,188.769 1963.35,189.415 1962.33,189.718C1961.3,190.022 1960.3,189.946 1959.31,189.491C1958.32,188.883 1957.66,188.048 1957.32,186.985C1956.97,185.921 1957.07,184.896 1957.6,183.909C1962.76,173.884 1966.14,163.025 1967.74,151.329C1969.33,139.558 1970.13,126.23 1970.13,111.346L1970.13,95.967C1970.13,94.904 1970.51,93.974 1971.27,93.176C1972.03,92.379 1972.94,91.98 1974,91.98L2005.9,91.98ZM1992.23,106.561L1992.23,105.65C1992.23,104.511 1992.63,103.524 1993.42,102.688C1994.22,101.853 1995.15,101.435 1996.22,101.435C1997.28,101.435 1998.21,101.853 1999.01,102.688C1999.8,103.524 2000.2,104.511 2000.2,105.65L2000.2,106.561L2006.81,106.561C2007.95,106.561 2008.88,106.96 2009.6,107.757C2010.32,108.555 2010.68,109.523 2010.68,110.662C2010.68,111.725 2010.32,112.656 2009.6,113.453C2008.88,114.25 2007.95,114.649 2006.81,114.649L2000.2,114.649L2000.2,129.116C2000.2,130.255 1999.8,131.224 1999.01,132.021C1998.21,132.818 1997.28,133.217 1996.22,133.217C1995.15,133.217 1994.22,132.818 1993.42,132.021C1992.63,131.224 1992.23,130.255 1992.23,129.116L1992.23,114.649L1985.28,114.649C1984.29,114.649 1983.4,114.25 1982.6,113.453C1981.81,112.656 1981.41,111.725 1981.41,110.662C1981.41,109.523 1981.81,108.555 1982.6,107.757C1983.4,106.96 1984.29,106.561 1985.28,106.561L1992.23,106.561ZM2023.21,106.561L2023.21,105.65C2023.21,104.511 2023.59,103.524 2024.35,102.688C2025.11,101.853 2026.06,101.435 2027.2,101.435C2028.26,101.435 2029.17,101.853 2029.93,102.688C2030.69,103.524 2031.07,104.511 2031.07,105.65L2031.07,106.561L2037.8,106.561C2038.86,106.561 2039.77,106.96 2040.53,107.757C2041.29,108.555 2041.67,109.523 2041.67,110.662C2041.67,111.725 2041.29,112.656 2040.53,113.453C2039.77,114.25 2038.86,114.649 2037.8,114.649L2031.07,114.649L2031.07,129.116C2031.07,130.255 2030.69,131.224 2029.93,132.021C2029.17,132.818 2028.26,133.217 2027.2,133.217C2026.06,133.217 2025.11,132.818 2024.35,132.021C2023.59,131.224 2023.21,130.255 2023.21,129.116L2023.21,114.649L2016.27,114.649C2015.2,114.649 2014.29,114.25 2013.53,113.453C2012.77,112.656 2012.39,111.725 2012.39,110.662C2012.39,109.523 2012.77,108.555 2013.53,107.757C2014.29,106.96 2015.2,106.561 2016.27,106.561L2023.21,106.561ZM2010.68,174.91L2010.68,170.581C2010.68,169.518 2011.06,168.587 2011.82,167.79C2012.58,166.993 2013.53,166.594 2014.67,166.594C2015.73,166.594 2016.68,166.993 2017.52,167.79C2018.35,168.587 2018.77,169.518 2018.77,170.581L2018.77,174.91C2018.77,176.353 2019.11,177.568 2019.8,178.555C2020.48,179.542 2021.35,180.302 2022.42,180.833C2023.63,181.365 2025,181.669 2026.52,181.745C2028.04,181.745 2029.44,181.555 2030.73,181.175C2033.77,180.112 2035.59,177.871 2036.2,174.454C2036.35,173.315 2036.85,172.404 2037.68,171.72C2038.52,171.037 2039.5,170.733 2040.64,170.809C2041.71,170.961 2042.58,171.454 2043.26,172.29C2043.95,173.125 2044.25,174.112 2044.17,175.251C2043.64,178.821 2042.41,181.726 2040.47,183.966C2038.54,186.206 2036.16,187.82 2033.35,188.807C2031,189.567 2028.61,189.908 2026.18,189.832C2023.67,189.756 2021.32,189.149 2019.11,188.01C2016.68,186.871 2014.67,185.219 2013.08,183.055C2011.48,180.89 2010.68,178.175 2010.68,174.91ZM2028.68,173.087L2028.57,172.176C2028.34,170.429 2028.99,169.328 2030.5,168.872C2031.19,168.72 2031.85,168.853 2032.5,169.271C2033.14,169.689 2033.54,170.239 2033.69,170.923L2034.61,175.251C2034.76,176.011 2034.64,176.694 2034.26,177.302C2033.88,177.909 2033.31,178.327 2032.56,178.555L2022.76,178.555C2022,178.555 2021.37,178.289 2020.88,177.758C2020.38,177.226 2020.14,176.58 2020.14,175.821C2020.14,175.669 2020.16,175.498 2020.19,175.308C2020.23,175.119 2020.29,174.948 2020.37,174.796L2022.76,168.189C2022.99,167.429 2023.44,166.898 2024.12,166.594C2024.81,166.29 2025.49,166.252 2026.18,166.48C2026.86,166.708 2027.35,167.164 2027.66,167.847C2027.96,168.53 2027.96,169.252 2027.66,170.011L2026.63,173.087L2028.68,173.087ZM1985.74,131.167C1985.13,131.926 1984.37,132.344 1983.46,132.42C1982.55,132.496 1981.71,132.23 1980.95,131.622C1980.19,131.015 1979.78,130.236 1979.7,129.287C1979.62,128.338 1979.85,127.483 1980.38,126.724C1981.37,125.509 1982.13,124.332 1982.66,123.193C1983.19,122.054 1983.69,120.611 1984.14,118.864C1984.37,117.953 1984.88,117.269 1985.68,116.814C1986.48,116.358 1987.37,116.244 1988.36,116.472C1989.27,116.7 1989.95,117.212 1990.41,118.01C1990.86,118.807 1990.98,119.699 1990.75,120.687C1990.29,122.813 1989.65,124.674 1988.81,126.268C1988.13,127.863 1987.1,129.496 1985.74,131.167ZM2017.18,130.939C2016.64,131.774 2015.94,132.249 2015.07,132.363C2014.2,132.477 2013.3,132.268 2012.39,131.736C2011.63,131.205 2011.18,130.483 2011.03,129.572C2010.87,128.661 2011.06,127.787 2011.6,126.952C2012.43,125.737 2013.11,124.522 2013.64,123.307C2014.1,122.092 2014.52,120.763 2014.9,119.32C2014.9,119.168 2014.94,119.016 2015.01,118.864C2015.32,117.953 2015.85,117.269 2016.61,116.814C2017.37,116.358 2018.24,116.244 2019.23,116.472C2020.14,116.7 2020.84,117.212 2021.33,118.01C2021.83,118.807 2021.96,119.699 2021.73,120.687C2021.66,120.838 2021.62,120.99 2021.62,121.142C2021.16,122.965 2020.63,124.598 2020.02,126.041C2019.34,127.635 2018.39,129.268 2017.18,130.939ZM2035.52,129.914L2032.67,120.801C2032.37,119.813 2032.44,118.902 2032.9,118.067C2033.35,117.231 2034.04,116.7 2034.95,116.472C2035.86,116.168 2036.71,116.225 2037.51,116.643C2038.31,117.06 2038.9,117.725 2039.28,118.636L2042.12,127.863C2042.43,128.774 2042.37,129.648 2041.95,130.483C2041.54,131.319 2040.87,131.926 2039.96,132.306C2039.05,132.61 2038.17,132.534 2037.34,132.078C2036.5,131.622 2035.9,130.901 2035.52,129.914ZM2003.16,126.154L2002.25,120.231C2002.1,119.244 2002.31,118.37 2002.88,117.611C2003.45,116.851 2004.19,116.434 2005.1,116.358C2006.09,116.206 2006.94,116.396 2007.66,116.927C2008.39,117.459 2008.86,118.218 2009.09,119.206L2009.89,125.129C2009.96,126.116 2009.73,126.99 2009.2,127.749C2008.67,128.509 2007.91,128.964 2006.92,129.116C2006.01,129.268 2005.2,129.059 2004.48,128.49C2003.75,127.92 2003.32,127.142 2003.16,126.154ZM2012.73,157.139L2027.66,157.139L2027.66,154.177L2013.42,154.177L2012.73,157.139ZM1992.68,144.153L1992.68,147.115L2006.13,147.115C2006.28,146.127 2006.36,145.14 2006.36,144.153L1992.68,144.153ZM2027.66,147.115L2027.66,144.153L2014.44,144.153C2014.44,144.684 2014.4,145.216 2014.33,145.748L2014.33,147.115L2027.66,147.115ZM1992.68,154.177L1992.68,157.139L2004.53,157.139L2005.22,154.177L1992.68,154.177Z" style="fill:white;fill-rule:nonzero;"/>
                <path d="M2107.62,105.878L2092.93,105.878C2091.79,105.878 2090.82,105.479 2090.02,104.682C2089.23,103.884 2088.83,102.916 2088.83,101.777C2088.83,100.638 2089.23,99.688 2090.02,98.929C2090.82,98.17 2091.79,97.79 2092.93,97.79L2107.62,97.79L2107.62,89.018C2107.62,87.879 2108.04,86.911 2108.88,86.114C2109.71,85.316 2110.66,84.918 2111.72,84.918C2112.79,84.918 2113.74,85.316 2114.57,86.114C2115.41,86.911 2115.83,87.879 2115.83,89.018L2115.83,97.79L2130.52,97.79C2131.58,97.79 2132.51,98.17 2133.31,98.929C2134.11,99.688 2134.51,100.638 2134.51,101.777C2134.51,102.916 2134.11,103.884 2133.31,104.682C2132.51,105.479 2131.58,105.878 2130.52,105.878L2115.83,105.878L2115.83,125.015L2135.99,125.015C2137.13,125.015 2138.1,125.433 2138.89,126.268C2139.69,127.104 2140.09,128.091 2140.09,129.23C2140.09,130.293 2139.69,131.224 2138.89,132.021C2138.1,132.818 2137.13,133.217 2135.99,133.217L2110.81,133.217L2096.8,179.808L2126.88,179.808L2116.97,149.279C2116.66,148.14 2116.76,147.096 2117.25,146.146C2117.74,145.197 2118.56,144.571 2119.7,144.267C2120.84,143.963 2121.88,144.058 2122.83,144.552C2123.78,145.045 2124.41,145.862 2124.71,147.001L2136.22,182.77C2136.6,184.061 2136.41,185.238 2135.65,186.301C2134.89,187.364 2133.82,187.896 2132.46,187.896L2090.99,187.896C2089.55,187.896 2088.45,187.364 2087.69,186.301C2086.93,185.238 2086.78,183.985 2087.23,182.542L2102.38,133.217L2087.35,133.217C2086.21,133.217 2085.26,132.818 2084.5,132.021C2083.74,131.224 2083.36,130.293 2083.36,129.23C2083.36,128.091 2083.74,127.104 2084.5,126.268C2085.26,125.433 2086.21,125.015 2087.35,125.015L2107.62,125.015L2107.62,105.878ZM2060.46,182.998L2071.74,145.52C2072.05,144.457 2072.67,143.659 2073.62,143.128C2074.57,142.596 2075.61,142.444 2076.75,142.672C2077.89,143.052 2078.71,143.697 2079.2,144.609C2079.7,145.52 2079.79,146.545 2079.49,147.684L2068.32,185.162C2068.02,186.301 2067.39,187.117 2066.44,187.611C2065.49,188.105 2064.45,188.2 2063.31,187.896C2062.17,187.592 2061.34,186.985 2060.8,186.073C2060.27,185.162 2060.16,184.137 2060.46,182.998ZM2067.53,114.421L2077.1,127.18C2077.7,128.167 2077.91,129.192 2077.72,130.255C2077.53,131.319 2076.98,132.192 2076.07,132.875C2075.08,133.483 2074.06,133.673 2072.99,133.445C2071.93,133.217 2071.1,132.648 2070.49,131.736L2060.8,118.864C2060.2,117.877 2059.99,116.87 2060.18,115.845C2060.37,114.82 2060.96,113.966 2061.95,113.282C2062.93,112.675 2063.94,112.485 2064.96,112.713C2065.99,112.94 2066.84,113.51 2067.53,114.421ZM2069.35,89.816L2079.03,102.574C2079.56,103.562 2079.73,104.587 2079.54,105.65C2079.35,106.713 2078.8,107.549 2077.89,108.156C2076.91,108.84 2075.88,109.067 2074.82,108.84C2073.75,108.612 2072.92,108.042 2072.31,107.131L2062.63,94.259C2062.02,93.271 2061.83,92.246 2062.06,91.183C2062.29,90.12 2062.86,89.246 2063.77,88.563C2064.75,88.031 2065.76,87.879 2066.79,88.107C2067.81,88.335 2068.67,88.905 2069.35,89.816Z" style="fill:white;fill-rule:nonzero;"/>
                <path d="M2192.03,141.533L2192.03,87.652C2192.03,86.588 2192.43,85.658 2193.23,84.861C2194.03,84.063 2195,83.665 2196.14,83.665C2197.2,83.665 2198.13,84.063 2198.93,84.861C2199.72,85.658 2200.12,86.588 2200.12,87.652L2200.12,141.533C2200.12,142.672 2199.72,143.64 2198.93,144.438C2198.13,145.235 2197.2,145.634 2196.14,145.634C2195,145.634 2194.03,145.235 2193.23,144.438C2192.43,143.64 2192.03,142.672 2192.03,141.533ZM2225.18,126.952L2211.86,101.435C2211.32,100.448 2211.23,99.442 2211.57,98.416C2211.91,97.391 2212.58,96.613 2213.56,96.081C2214.55,95.55 2215.56,95.436 2216.58,95.739C2217.61,96.043 2218.39,96.689 2218.92,97.676L2232.36,123.193C2232.89,124.18 2233.01,125.205 2232.7,126.268C2232.4,127.332 2231.71,128.129 2230.65,128.661C2229.66,129.192 2228.66,129.287 2227.63,128.945C2226.61,128.604 2225.79,127.939 2225.18,126.952ZM2174.15,98.473C2174.53,97.334 2175.18,96.518 2176.09,96.024C2177,95.531 2178.02,95.436 2179.16,95.739C2180.3,96.043 2181.14,96.651 2181.67,97.562C2182.2,98.473 2182.31,99.461 2182.01,100.524C2180.11,107.662 2177.91,114.156 2175.4,120.003C2172.97,125.775 2169.93,131.205 2166.29,136.293C2165.61,137.204 2164.73,137.755 2163.67,137.945C2162.61,138.134 2161.58,137.926 2160.59,137.318C2159.68,136.559 2159.13,135.647 2158.94,134.584C2158.75,133.521 2159,132.534 2159.68,131.622C2162.95,127.066 2165.72,122.092 2168,116.7C2170.35,111.384 2172.4,105.308 2174.15,98.473ZM2219.6,133.787C2220.21,132.799 2221.03,132.173 2222.05,131.907C2223.08,131.641 2224.08,131.774 2225.07,132.306C2226.06,132.913 2226.68,133.73 2226.95,134.755C2227.22,135.78 2227.08,136.786 2226.55,137.774C2219.49,149.621 2210.79,159.645 2200.46,167.847C2189.53,176.732 2177.57,183.491 2164.58,188.124C2163.44,188.427 2162.4,188.352 2161.45,187.896C2160.5,187.44 2159.84,186.681 2159.45,185.618C2159.07,184.478 2159.13,183.434 2159.63,182.485C2160.12,181.536 2160.9,180.871 2161.96,180.491C2173.96,176.239 2185.05,169.935 2195.22,161.582C2204.95,153.912 2213.07,144.647 2219.6,133.787Z" style="fill:white;fill-rule:nonzero;"/>
                <path d="M2279.52,108.498L2258.22,108.498C2257.08,108.498 2256.11,108.099 2255.31,107.302C2254.52,106.504 2254.12,105.536 2254.12,104.397C2254.12,103.258 2254.52,102.308 2255.31,101.549C2256.11,100.79 2257.08,100.41 2258.22,100.41L2282.03,100.41L2286.13,87.082C2286.51,86.019 2287.15,85.221 2288.06,84.69C2288.97,84.158 2290,84.044 2291.14,84.348C2292.2,84.728 2293,85.392 2293.53,86.342C2294.06,87.291 2294.18,88.297 2293.87,89.36L2290.46,100.41L2332.6,100.41C2333.67,100.41 2334.6,100.79 2335.39,101.549C2336.19,102.308 2336.59,103.258 2336.59,104.397C2336.59,105.536 2336.19,106.504 2335.39,107.302C2334.6,108.099 2333.67,108.498 2332.6,108.498L2316.2,108.498C2313.92,124.901 2308.53,140.204 2300.03,154.405L2332.03,182.428C2332.87,183.187 2333.33,184.099 2333.4,185.162C2333.48,186.225 2333.17,187.212 2332.49,188.124C2331.73,188.959 2330.8,189.415 2329.7,189.491C2328.6,189.567 2327.59,189.225 2326.68,188.465L2295.47,161.126C2287.27,172.442 2276.18,181.858 2262.2,189.377C2261.22,189.908 2260.21,190.022 2259.19,189.718C2258.16,189.415 2257.38,188.769 2256.85,187.782C2256.32,186.719 2256.21,185.675 2256.51,184.649C2256.81,183.624 2257.5,182.808 2258.56,182.2C2271.47,175.213 2281.72,166.366 2289.32,155.658L2272.34,140.735C2270.98,139.596 2270.56,138.153 2271.09,136.407L2279.52,108.498ZM2308,108.498L2287.95,108.498L2279.52,136.407L2293.87,149.051C2301.09,136.521 2305.8,123.003 2308,108.498Z" style="fill:white;fill-rule:nonzero;"/>
                <path d="M2414.85,148.709L2394.8,165.113C2393.97,165.797 2393.07,166.138 2392.12,166.138C2391.18,166.138 2390.32,165.835 2389.56,165.227L2369.51,148.709C2369.51,148.709 2369.36,148.558 2369.28,148.482C2368.45,147.722 2368.01,146.792 2367.97,145.691C2367.94,144.59 2368.3,143.621 2369.06,142.786C2376.65,134.356 2384.32,130.141 2392.07,130.141C2399.81,130.141 2407.52,134.356 2415.19,142.786C2415.27,142.862 2415.42,143.014 2415.42,143.014C2416.18,143.925 2416.5,144.912 2416.39,145.976C2416.27,147.039 2415.76,147.95 2414.85,148.709ZM2430.34,188.124L2353.91,188.124C2352.84,188.124 2351.91,187.725 2351.12,186.928C2350.32,186.13 2349.92,185.162 2349.92,184.023C2349.92,182.96 2350.32,182.01 2351.12,181.175C2351.91,180.34 2352.84,179.922 2353.91,179.922L2373.84,179.922L2367.35,169.1C2366.82,168.037 2366.68,166.993 2366.95,165.967C2367.22,164.942 2367.8,164.126 2368.72,163.518C2369.7,162.987 2370.73,162.835 2371.79,163.063C2372.85,163.29 2373.69,163.86 2374.3,164.771L2383.41,179.922L2400.95,179.922L2410.07,164.771C2410.6,163.86 2411.39,163.29 2412.46,163.063C2413.52,162.835 2414.55,162.987 2415.53,163.518C2416.52,164.126 2417.15,164.942 2417.41,165.967C2417.68,166.993 2417.55,168.037 2417.01,169.1L2410.41,179.922L2430.34,179.922C2431.48,179.922 2432.43,180.34 2433.19,181.175C2433.95,182.01 2434.33,182.96 2434.33,184.023C2434.33,185.162 2433.95,186.13 2433.19,186.928C2432.43,187.725 2431.48,188.124 2430.34,188.124ZM2402.43,89.93L2425.22,89.93C2426.28,89.93 2427.21,90.31 2428.01,91.069C2428.8,91.828 2429.2,92.778 2429.2,93.917C2429.2,95.056 2428.8,96.024 2428.01,96.822C2427.21,97.619 2426.28,98.018 2425.22,98.018L2406.76,98.018C2407.14,98.701 2407.52,99.347 2407.9,99.954C2409.04,101.853 2410.18,103.675 2411.32,105.422L2425.22,105.422C2426.28,105.422 2427.21,105.821 2428.01,106.618C2428.8,107.416 2429.2,108.346 2429.2,109.409C2429.2,110.548 2428.8,111.517 2428.01,112.314C2427.21,113.111 2426.28,113.51 2425.22,113.51L2417.13,113.51C2421.46,119.054 2426.28,123.99 2431.6,128.319C2432.43,129.078 2432.93,130.009 2433.08,131.11C2433.23,132.211 2432.93,133.217 2432.16,134.128C2431.41,134.964 2430.49,135.438 2429.43,135.552C2428.37,135.666 2427.38,135.344 2426.47,134.584C2419.48,128.812 2413.29,122.167 2407.9,114.649C2402.51,107.055 2397.61,98.587 2393.21,89.246C2392.75,88.259 2392.69,87.253 2393.04,86.228C2393.38,85.202 2394.04,84.424 2395.03,83.892C2396.09,83.361 2397.14,83.285 2398.16,83.665C2399.19,84.044 2399.93,84.766 2400.38,85.829C2400.61,86.285 2400.84,86.74 2401.07,87.196C2401.52,88.183 2401.98,89.094 2402.43,89.93ZM2378.28,96.423L2356.75,96.423C2355.62,96.423 2354.65,96.024 2353.85,95.227C2353.05,94.429 2352.65,93.461 2352.65,92.322C2352.65,91.183 2353.05,90.234 2353.85,89.474C2354.65,88.715 2355.62,88.335 2356.75,88.335L2384.09,88.335C2385.23,88.335 2386.18,88.715 2386.94,89.474C2387.7,90.234 2388.08,91.183 2388.08,92.322C2388.08,92.854 2388,93.309 2387.85,93.689C2385.2,102.346 2381.21,110.169 2375.89,117.155C2370.58,124.522 2364.35,130.445 2357.21,134.926C2356.22,135.457 2355.2,135.609 2354.13,135.382C2353.07,135.154 2352.27,134.584 2351.74,133.673C2351.13,132.686 2350.94,131.66 2351.17,130.597C2351.4,129.534 2352.01,128.661 2352.99,127.977C2357.93,124.939 2362.45,121.028 2366.55,116.244L2355.62,110.207C2354.63,109.599 2354,108.764 2353.74,107.7C2353.47,106.637 2353.6,105.612 2354.13,104.625C2354.67,103.637 2355.44,102.992 2356.47,102.688C2357.49,102.384 2358.5,102.498 2359.49,103.03L2371.56,109.637C2374.3,105.536 2376.54,101.131 2378.28,96.423ZM2378.06,145.178L2392.18,156.911L2406.19,145.292C2401.33,140.584 2396.62,138.229 2392.07,138.229C2387.66,138.229 2382.99,140.546 2378.06,145.178ZM2404.03,124.104L2380.56,124.104C2379.5,124.104 2378.57,123.724 2377.77,122.965C2376.97,122.205 2376.58,121.256 2376.58,120.117C2376.58,118.978 2376.97,118.01 2377.77,117.212C2378.57,116.415 2379.5,116.016 2380.56,116.016L2404.03,116.016C2405.09,116.016 2406.04,116.415 2406.88,117.212C2407.71,118.01 2408.13,118.978 2408.13,120.117C2408.13,121.256 2407.71,122.205 2406.88,122.965C2406.04,123.724 2405.09,124.104 2404.03,124.104Z" style="fill:white;fill-rule:nonzero;"/>
                <path d="M2516.12,96.651L2483.31,96.651C2482.17,96.651 2481.22,96.271 2480.47,95.512C2479.7,94.752 2479.33,93.803 2479.33,92.664C2479.33,91.525 2479.7,90.556 2480.47,89.759C2481.22,88.962 2482.17,88.563 2483.31,88.563L2520.22,88.563C2521.28,88.563 2522.21,88.962 2523.01,89.759C2523.81,90.556 2524.21,91.525 2524.21,92.664L2524.21,124.787C2524.21,125.927 2523.81,126.895 2523.01,127.692C2522.21,128.49 2521.28,128.888 2520.22,128.888L2489.69,128.888L2489.69,168.075C2489.69,171.568 2490.87,174.454 2493.22,176.732C2496.03,179.314 2499.72,180.738 2504.27,181.004C2508.83,181.27 2512.85,180.378 2516.35,178.327C2519.76,176.049 2521.78,172.48 2522.39,167.619L2523.52,156.456C2523.68,155.316 2524.17,154.405 2525.01,153.722C2525.84,153.038 2526.83,152.734 2527.97,152.81C2529.11,152.962 2530.04,153.456 2530.76,154.291C2531.48,155.127 2531.8,156.114 2531.73,157.253L2530.47,168.758C2529.49,175.973 2526.41,181.289 2521.25,184.706C2516.31,187.972 2510.65,189.415 2504.27,189.035C2500.4,188.807 2496.74,187.877 2493.28,186.244C2489.83,184.611 2487.01,182.276 2484.85,179.238C2482.69,176.201 2481.6,172.48 2481.6,168.075L2481.6,125.243C2481.6,124.028 2481.97,122.984 2482.69,122.111C2483.41,121.237 2484.41,120.801 2485.7,120.801L2516.12,120.801L2516.12,96.651ZM2469.07,89.132L2469.07,102.233C2469.07,103.296 2468.68,104.226 2467.88,105.023C2467.08,105.821 2466.15,106.22 2465.09,106.22C2463.95,106.22 2462.96,105.821 2462.12,105.023C2461.29,104.226 2460.87,103.296 2460.87,102.233L2460.87,89.132C2460.87,88.069 2461.29,87.139 2462.12,86.342C2462.96,85.544 2463.95,85.145 2465.09,85.145C2466.15,85.145 2467.08,85.544 2467.88,86.342C2468.68,87.139 2469.07,88.069 2469.07,89.132ZM2474.43,183.909C2474.73,185.048 2474.62,186.073 2474.09,186.985C2473.55,187.896 2472.72,188.503 2471.58,188.807C2470.52,189.111 2469.51,189.016 2468.56,188.522C2467.61,188.029 2466.99,187.212 2466.68,186.073C2464.86,179.922 2463.57,173.049 2462.81,165.455C2461.97,157.861 2461.55,149.393 2461.55,140.052L2461.55,125.015L2452.1,125.015C2451.04,125.015 2450.09,124.617 2449.25,123.819C2448.42,123.022 2448,122.054 2448,120.914C2448,119.775 2448.42,118.807 2449.25,118.01C2450.09,117.212 2451.04,116.814 2452.1,116.814L2465.66,116.814C2466.8,116.814 2467.74,117.212 2468.5,118.01C2469.26,118.807 2469.64,119.775 2469.64,120.914L2469.64,140.052C2469.64,149.241 2470.02,157.443 2470.78,164.657C2471.54,171.796 2472.76,178.213 2474.43,183.909Z" style="fill:white;fill-rule:nonzero;"/>
                <path d="M2580.14,118.408L2558.15,118.408C2557.01,118.408 2556.05,118.01 2555.25,117.212C2554.45,116.415 2554.05,115.447 2554.05,114.307C2554.05,113.168 2554.45,112.219 2555.25,111.46C2556.05,110.7 2557.01,110.32 2558.15,110.32L2580.14,110.32L2580.14,101.891L2553.83,101.891C2552.76,101.891 2551.81,101.492 2550.98,100.695C2550.14,99.897 2549.72,98.929 2549.72,97.79C2549.72,96.651 2550.14,95.701 2550.98,94.942C2551.81,94.183 2552.76,93.803 2553.83,93.803L2580.14,93.803L2580.14,87.424C2580.14,86.361 2580.56,85.43 2581.39,84.633C2582.23,83.835 2583.18,83.437 2584.24,83.437C2585.3,83.437 2586.25,83.835 2587.09,84.633C2587.92,85.43 2588.34,86.361 2588.34,87.424L2588.34,93.803L2614.66,93.803C2615.8,93.803 2616.78,94.183 2617.62,94.942C2618.45,95.701 2618.87,96.651 2618.87,97.79C2618.87,98.929 2618.45,99.897 2617.62,100.695C2616.78,101.492 2615.8,101.891 2614.66,101.891L2588.34,101.891L2588.34,110.32L2610.44,110.32C2611.5,110.32 2612.45,110.7 2613.29,111.46C2614.12,112.219 2614.54,113.168 2614.54,114.307C2614.54,115.447 2614.12,116.415 2613.29,117.212C2612.45,118.01 2611.5,118.408 2610.44,118.408L2588.34,118.408L2588.34,127.066L2619.89,127.066C2621.03,127.066 2622,127.483 2622.8,128.319C2623.6,129.154 2624,130.141 2624,131.281C2624,132.42 2623.6,133.369 2622.8,134.128C2622,134.888 2621.03,135.268 2619.89,135.268L2591.64,135.268C2593.62,141.343 2595.97,147.001 2598.71,152.241L2614.54,142.102C2615.53,141.495 2616.53,141.305 2617.56,141.533C2618.59,141.761 2619.4,142.33 2620.01,143.242C2620.62,144.229 2620.81,145.254 2620.58,146.317C2620.35,147.38 2619.78,148.216 2618.87,148.823L2602.69,159.303L2603.26,159.987C2608.66,168.341 2615.15,175.745 2622.74,182.2C2623.58,182.96 2624.05,183.871 2624.17,184.934C2624.28,185.997 2623.96,186.985 2623.2,187.896C2622.44,188.731 2621.53,189.206 2620.47,189.32C2619.4,189.434 2618.41,189.111 2617.5,188.352C2609.38,181.441 2602.35,173.429 2596.43,164.316C2590.96,155.962 2586.56,146.279 2583.22,135.268L2581.16,135.268C2579.04,139.217 2576.76,142.9 2574.33,146.317C2574.33,152.696 2574.63,159.228 2575.24,165.91C2575.77,172.745 2577.1,178.783 2579.23,184.023C2579.61,185.086 2579.61,186.111 2579.23,187.098C2578.85,188.086 2578.13,188.845 2577.06,189.377C2575.93,189.756 2574.86,189.756 2573.87,189.377C2572.89,188.997 2572.16,188.276 2571.71,187.212C2569.28,181.213 2567.72,174.34 2567.04,166.594C2566.74,163.025 2566.51,159.493 2566.36,156C2561.04,161.544 2555.12,166.594 2548.59,171.151C2547.6,171.758 2546.59,171.967 2545.57,171.777C2544.54,171.587 2543.69,171.037 2543,170.125C2542.32,169.138 2542.09,168.113 2542.32,167.05C2542.55,165.986 2543.08,165.113 2543.91,164.43C2550.45,160.025 2556.29,154.975 2561.46,149.279C2563.28,147.229 2565.07,145.102 2566.81,142.9C2566.81,142.824 2566.85,142.748 2566.93,142.672C2566.93,142.52 2567,142.368 2567.15,142.216C2568.82,140.09 2570.38,137.774 2571.82,135.268L2548.59,135.268C2547.52,135.268 2546.59,134.888 2545.79,134.128C2545,133.369 2544.6,132.42 2544.6,131.281C2544.6,130.141 2545,129.154 2545.79,128.319C2546.59,127.483 2547.52,127.066 2548.59,127.066L2580.14,127.066L2580.14,118.408Z" style="fill:white;fill-rule:nonzero;"/>
            </g>
            <g transform="matrix(0.758634,0,0,0.648529,355.71,191.13)">
                <path d="M1799.07,181.259C1793.84,181.259 1789.26,180.166 1785.33,177.978C1781.4,175.79 1778.34,172.721 1776.16,168.772C1773.97,164.823 1772.87,160.216 1772.87,154.95L1772.87,114.513L1783.16,114.513L1783.16,155.673C1783.16,160.865 1784.62,165.055 1787.53,168.244C1790.44,171.433 1794.27,173.027 1799.02,173.027C1803.76,173.027 1807.58,171.433 1810.48,168.244C1813.37,165.055 1814.81,160.865 1814.81,155.673L1814.81,133.703C1814.81,130.143 1814.03,127.389 1812.45,125.443C1810.87,123.496 1808.64,122.523 1805.75,122.523C1804.49,122.523 1803.17,122.717 1801.8,123.107C1800.42,123.496 1799.07,124.006 1797.74,124.636L1796.12,117.739C1797.98,116.552 1800.02,115.616 1802.24,114.93C1804.47,114.244 1806.64,113.901 1808.75,113.901C1813.83,113.901 1817.84,115.598 1820.77,118.991C1823.69,122.384 1825.16,127.009 1825.16,132.868L1825.16,154.95C1825.16,160.216 1824.07,164.823 1821.9,168.772C1819.74,172.721 1816.69,175.79 1812.78,177.978C1808.87,180.166 1804.3,181.259 1799.07,181.259Z" style="fill:white;fill-rule:nonzero;"/>
                <path d="M1846.24,180.036L1846.24,122.801L1838.62,122.801L1838.62,114.513L1856.59,114.513L1856.59,180.036L1846.24,180.036Z" style="fill:white;fill-rule:nonzero;"/>
                <path d="M1899.08,181.148C1895.93,181.148 1892.47,180.833 1888.71,180.203C1884.94,179.572 1881.28,178.645 1877.72,177.422L1879.72,169.69C1883.13,170.728 1886.52,171.489 1889.88,171.971C1893.23,172.453 1896.17,172.694 1898.69,172.694C1904.77,172.62 1909.46,171.081 1912.76,168.077C1916.06,165.073 1917.71,160.772 1917.71,155.173L1917.71,122.801L1891.46,122.801C1890.27,124.84 1889.32,127.436 1888.6,130.588C1887.87,133.74 1887.51,136.855 1887.51,139.932L1887.51,144.938C1888.36,145.309 1889.48,145.569 1890.85,145.717C1892.22,145.865 1894,145.939 1896.19,145.939L1896.19,154.839C1893.11,154.839 1890.5,154.728 1888.35,154.505C1886.19,154.283 1884.28,153.893 1882.59,153.337C1880.9,152.781 1879.19,152.039 1877.44,151.112L1877.22,142.658C1877.22,138.913 1877.69,135.251 1878.64,131.672C1879.59,128.094 1880.87,125.137 1882.51,122.801L1874.55,122.801L1874.55,114.513L1928,114.513L1928,153.226C1928,159.567 1926.76,164.805 1924.28,168.939C1921.79,173.074 1918.38,176.152 1914.04,178.172C1909.7,180.193 1904.72,181.185 1899.08,181.148Z" style="fill:white;fill-rule:nonzero;"/>
                <path d="M1975.23,181.259C1969.78,181.259 1964.97,180.008 1960.82,177.505C1956.67,175.002 1953.43,171.489 1951.12,166.965C1948.8,162.441 1947.6,157.175 1947.53,151.168L1947.53,144.493C1947.53,141.601 1947.93,138.755 1948.72,135.955C1949.52,133.156 1950.62,130.634 1952.03,128.391C1953.44,126.147 1955.04,124.432 1956.82,123.246C1956.93,123.171 1957.05,123.088 1957.18,122.995C1957.31,122.903 1957.45,122.838 1957.6,122.801L1957.54,122.634C1956.13,122.782 1954.34,123.134 1952.17,123.691C1950,124.247 1947.88,124.803 1945.8,125.359L1943.8,117.572C1946.69,116.719 1949.86,115.968 1953.31,115.32C1956.76,114.671 1960.24,114.17 1963.74,113.818C1967.25,113.465 1970.52,113.289 1973.56,113.289C1979.68,113.289 1984.92,114.485 1989.3,116.877C1993.67,119.269 1997.04,122.699 1999.39,127.167C2001.75,131.635 2002.93,137.021 2002.93,143.325L2002.93,151.168C2002.93,157.175 2001.78,162.441 1999.48,166.965C1997.18,171.489 1993.95,175.002 1989.8,177.505C1985.65,180.008 1980.79,181.259 1975.23,181.259ZM1975.23,172.527C1978.71,172.527 1981.76,171.637 1984.38,169.857C1986.99,168.077 1989.03,165.593 1990.5,162.404C1991.96,159.215 1992.69,155.488 1992.69,151.224L1992.69,143.436C1992.69,138.987 1991.96,135.158 1990.5,131.951C1989.03,128.743 1986.94,126.277 1984.24,124.553C1981.53,122.828 1978.32,121.966 1974.62,121.966C1971.28,121.966 1968.38,122.847 1965.91,124.608C1963.44,126.37 1961.52,128.891 1960.13,132.173C1958.74,135.455 1957.98,139.376 1957.87,143.937L1957.87,151.224C1957.87,155.488 1958.6,159.215 1960.04,162.404C1961.49,165.593 1963.52,168.077 1966.13,169.857C1968.75,171.637 1971.78,172.527 1975.23,172.527Z" style="fill:white;fill-rule:nonzero;"/>
                <path d="M2087.08,180.036L2087.08,138.931C2087.08,133.258 2085.8,129.151 2083.24,126.611C2080.69,124.071 2076.57,122.801 2070.9,122.801L2047.15,122.801L2047.15,114.513L2071.4,114.513C2079.96,114.513 2086.44,116.58 2090.84,120.715C2095.23,124.849 2097.43,131.014 2097.43,139.209L2097.43,180.036L2087.08,180.036ZM2047.26,180.036L2047.26,157.676C2047.26,153.856 2047.57,150.945 2048.2,148.943C2048.83,146.941 2049.48,145.235 2050.15,143.826L2058.61,143.826C2058.16,145.494 2057.83,147.358 2057.6,149.416C2057.38,151.474 2057.27,154.005 2057.27,157.008L2057.27,180.036L2047.26,180.036Z" style="fill:white;fill-rule:nonzero;"/>
                <path d="M2142.98,180.036L2142.98,134.314C2142.98,130.755 2141.94,127.946 2139.84,125.888C2137.75,123.83 2134.88,122.801 2131.25,122.801L2109.22,122.801L2109.22,114.513L2131.58,114.513C2138.37,114.513 2143.68,116.321 2147.52,119.936C2151.35,123.552 2153.27,128.604 2153.27,135.093L2153.27,180.036L2142.98,180.036Z" style="fill:white;fill-rule:nonzero;"/>
                <path d="M2181.86,114.513L2181.86,168.411C2185.39,169.894 2189.11,171.071 2193.04,171.943C2196.97,172.814 2200.74,173.25 2204.33,173.25C2209.56,173.25 2214.27,172.499 2218.46,170.997C2222.65,169.495 2225.98,167.196 2228.45,164.1C2230.91,161.004 2232.14,157.082 2232.14,152.336L2232.14,114.513L2242.16,114.513L2242.16,153.282C2242.16,158.065 2241.18,162.227 2239.21,165.769C2237.24,169.31 2234.54,172.258 2231.09,174.613C2227.64,176.967 2223.67,178.719 2219.19,179.869C2214.7,181.018 2209.91,181.593 2204.84,181.593C2199.49,181.593 2193.97,180.954 2188.26,179.674C2182.55,178.395 2177.08,176.513 2171.85,174.029L2171.85,114.513L2181.86,114.513ZM2197.6,161.959C2199.01,160.475 2200.06,158.464 2200.75,155.924C2201.43,153.384 2201.78,150.445 2201.78,147.108L2201.78,114.513L2211.84,114.513L2211.84,145.272C2211.84,149.017 2211.39,152.299 2210.48,155.117C2209.57,157.935 2208.14,160.327 2206.17,162.292L2197.6,161.959Z" style="fill:white;fill-rule:nonzero;"/>
                <path d="M2261.74,180.036L2266.74,138.375C2267.15,135.297 2268.02,132.423 2269.36,129.753C2270.69,127.084 2272.27,125.026 2274.09,123.579C2274.27,123.431 2274.47,123.292 2274.67,123.162C2274.87,123.032 2275.05,122.912 2275.2,122.801L2275.09,122.634C2273.45,122.893 2271.39,123.348 2268.88,123.997C2266.38,124.645 2264.07,125.341 2261.96,126.082L2259.57,118.295C2262.42,117.294 2265.53,116.423 2268.88,115.681C2272.24,114.939 2275.64,114.355 2279.09,113.929C2282.54,113.503 2285.76,113.289 2288.77,113.289C2297.59,113.289 2304.33,115.635 2308.99,120.325C2313.64,125.016 2315.99,131.904 2316.02,140.989L2316.02,180.036L2289.05,180.036L2289.05,171.748L2305.73,171.748L2305.73,139.821C2305.73,133.962 2304.41,129.522 2301.76,126.5C2299.11,123.477 2295.3,121.966 2290.33,121.966C2286.73,121.966 2283.73,123.348 2281.32,126.11C2278.91,128.873 2277.42,132.627 2276.87,137.374L2271.91,180.036L2261.74,180.036Z" style="fill:white;fill-rule:nonzero;"/>
                <path d="M2372.65,180.036L2372.65,138.931C2372.65,133.258 2371.37,129.151 2368.81,126.611C2366.25,124.071 2362.13,122.801 2356.46,122.801L2332.71,122.801L2332.71,114.513L2356.96,114.513C2365.53,114.513 2372.01,116.58 2376.4,120.715C2380.8,124.849 2382.99,131.014 2382.99,139.209L2382.99,180.036L2372.65,180.036ZM2332.82,180.036L2332.82,157.676C2332.82,153.856 2333.14,150.945 2333.77,148.943C2334.4,146.941 2335.05,145.235 2335.71,143.826L2344.17,143.826C2343.72,145.494 2343.39,147.358 2343.17,149.416C2342.95,151.474 2342.83,154.005 2342.83,157.008L2342.83,180.036L2332.82,180.036Z" style="fill:white;fill-rule:nonzero;"/>
                <path d="M2424.32,122.801L2424.32,94.6L2434.61,94.6L2434.61,114.513L2470.21,114.513L2470.21,122.801L2424.32,122.801ZM2474.1,121.021L2450.07,180.036L2439,180.036L2466.2,114.513L2474.1,114.513L2474.1,121.021Z" style="fill:white;fill-rule:nonzero;"/>
                <path d="M2492.18,181.148C2490.25,181.148 2488.43,181.037 2486.73,180.815C2485.02,180.592 2483.3,180.295 2481.55,179.925L2481.83,171.859C2484.24,172.341 2486.95,172.582 2489.95,172.582C2492.96,172.582 2495.23,171.72 2496.77,169.996C2498.31,168.272 2499.08,165.574 2499.08,161.903L2499.08,122.801L2486.23,122.801L2486.23,114.513L2509.42,114.513L2509.42,162.737C2509.42,168.782 2507.93,173.361 2504.94,176.476C2501.96,179.591 2497.7,181.148 2492.18,181.148Z" style="fill:white;fill-rule:nonzero;"/>
                <path d="M2546.19,181.426C2542.78,181.426 2539.11,181.065 2535.2,180.342C2531.29,179.619 2527.18,178.441 2522.88,176.81L2525.39,169.134C2529.09,170.58 2532.58,171.655 2535.84,172.36C2539.11,173.064 2542.13,173.435 2544.91,173.472C2550.95,173.472 2555.82,171.822 2559.51,168.522C2563.2,165.222 2565.04,160.438 2565.04,154.172L2565.04,114.513L2575.33,114.513L2575.33,153.782C2575.33,159.789 2574.1,164.842 2571.64,168.939C2569.17,173.037 2565.75,176.142 2561.37,178.256C2557,180.37 2551.93,181.426 2546.19,181.426ZM2526.44,114.513L2536.79,114.513L2547.41,162.849C2548.01,165.63 2548.67,167.984 2549.41,169.913C2550.16,171.841 2551.18,173.621 2552.47,175.252L2544.35,175.085C2542.8,173.491 2541.39,171.683 2540.12,169.662C2538.86,167.641 2537.92,165.185 2537.29,162.292L2526.44,114.513Z" style="fill:white;fill-rule:nonzero;"/>
                <path d="M2622.5,180.036L2622.5,134.314C2622.5,130.755 2621.45,127.946 2619.36,125.888C2617.26,123.83 2614.4,122.801 2610.76,122.801L2588.74,122.801L2588.74,114.513L2611.1,114.513C2617.89,114.513 2623.2,116.321 2627.03,119.936C2630.87,123.552 2632.79,128.604 2632.79,135.093L2632.79,180.036L2622.5,180.036Z" style="fill:white;fill-rule:nonzero;"/>
                <path d="M2689.47,180.036L2689.47,138.931C2689.47,133.258 2688.19,129.151 2685.63,126.611C2683.07,124.071 2678.96,122.801 2673.28,122.801L2649.53,122.801L2649.53,114.513L2673.78,114.513C2682.35,114.513 2688.83,116.58 2693.22,120.715C2697.62,124.849 2699.82,131.014 2699.82,139.209L2699.82,180.036L2689.47,180.036ZM2649.64,180.036L2649.64,157.676C2649.64,153.856 2649.96,150.945 2650.59,148.943C2651.22,146.941 2651.87,145.235 2652.54,143.826L2660.99,143.826C2660.55,145.494 2660.21,147.358 2659.99,149.416C2659.77,151.474 2659.66,154.005 2659.66,157.008L2659.66,180.036L2649.64,180.036Z" style="fill:white;fill-rule:nonzero;"/>
                <path d="M2768.62,180.036L2768.62,171.915C2774.11,171.73 2778.53,170.005 2781.89,166.742C2785.24,163.479 2786.92,158.974 2786.92,153.226L2786.92,122.801L2746.48,122.801L2746.48,114.513L2797.27,114.513L2797.27,153.003C2797.27,158.529 2796.08,163.294 2793.71,167.298C2791.33,171.303 2787.99,174.39 2783.69,176.559C2779.39,178.729 2774.37,179.887 2768.62,180.036ZM2747.76,203.175L2747.76,155.451C2747.76,151.706 2748.08,148.832 2748.71,146.829C2749.34,144.827 2749.99,143.121 2750.66,141.712L2759.11,141.712C2758.63,143.381 2758.28,145.235 2758.08,147.274C2757.88,149.314 2757.77,151.835 2757.77,154.839L2757.77,203.175L2747.76,203.175Z" style="fill:white;fill-rule:nonzero;"/>
                <path d="M2844.49,181.259C2839.04,181.259 2834.24,180.008 2830.08,177.505C2825.93,175.002 2822.69,171.489 2820.38,166.965C2818.06,162.441 2816.86,157.175 2816.79,151.168L2816.79,144.493C2816.79,141.601 2817.19,138.755 2817.99,135.955C2818.78,133.156 2819.89,130.634 2821.3,128.391C2822.7,126.147 2824.3,124.432 2826.08,123.246C2826.19,123.171 2826.31,123.088 2826.44,122.995C2826.57,122.903 2826.71,122.838 2826.86,122.801L2826.8,122.634C2825.39,122.782 2823.6,123.134 2821.43,123.691C2819.26,124.247 2817.14,124.803 2815.07,125.359L2813.06,117.572C2815.95,116.719 2819.12,115.968 2822.57,115.32C2826.02,114.671 2829.5,114.17 2833,113.818C2836.51,113.465 2839.78,113.289 2842.82,113.289C2848.94,113.289 2854.19,114.485 2858.56,116.877C2862.94,119.269 2866.3,122.699 2868.66,127.167C2871.01,131.635 2872.19,137.021 2872.19,143.325L2872.19,151.168C2872.19,157.175 2871.04,162.441 2868.74,166.965C2866.44,171.489 2863.22,175.002 2859.06,177.505C2854.91,180.008 2850.05,181.259 2844.49,181.259ZM2844.49,172.527C2847.97,172.527 2851.03,171.637 2853.64,169.857C2856.25,168.077 2858.29,165.593 2859.76,162.404C2861.22,159.215 2861.95,155.488 2861.95,151.224L2861.95,143.436C2861.95,138.987 2861.22,135.158 2859.76,131.951C2858.29,128.743 2856.21,126.277 2853.5,124.553C2850.79,122.828 2847.59,121.966 2843.88,121.966C2840.54,121.966 2837.64,122.847 2835.17,124.608C2832.71,126.37 2830.78,128.891 2829.39,132.173C2828,135.455 2827.25,139.376 2827.14,143.937L2827.14,151.224C2827.14,155.488 2827.86,159.215 2829.3,162.404C2830.75,165.593 2832.78,168.077 2835.39,169.857C2838.01,171.637 2841.04,172.527 2844.49,172.527Z" style="fill:white;fill-rule:nonzero;"/>
                <path d="M2893.1,180.036L2893.1,122.801L2885.48,122.801L2885.48,114.513L2903.45,114.513L2903.45,180.036L2893.1,180.036Z" style="fill:white;fill-rule:nonzero;"/>
                <path d="M2923.03,180.036L2928.03,138.375C2928.44,135.297 2929.31,132.423 2930.65,129.753C2931.98,127.084 2933.56,125.026 2935.38,123.579C2935.56,123.431 2935.76,123.292 2935.96,123.162C2936.16,123.032 2936.34,122.912 2936.49,122.801L2936.38,122.634C2934.74,122.893 2932.68,123.348 2930.18,123.997C2927.67,124.645 2925.36,125.341 2923.25,126.082L2920.86,118.295C2923.71,117.294 2926.82,116.423 2930.18,115.681C2933.53,114.939 2936.93,114.355 2940.38,113.929C2943.83,113.503 2947.06,113.289 2950.06,113.289C2958.89,113.289 2965.62,115.635 2970.28,120.325C2974.93,125.016 2977.28,131.904 2977.31,140.989L2977.31,180.036L2950.34,180.036L2950.34,171.748L2967.02,171.748L2967.02,139.821C2967.02,133.962 2965.7,129.522 2963.05,126.5C2960.4,123.477 2956.59,121.966 2951.62,121.966C2948.02,121.966 2945.02,123.348 2942.61,126.11C2940.2,128.873 2938.71,132.627 2938.16,137.374L2933.21,180.036L2923.03,180.036Z" style="fill:white;fill-rule:nonzero;"/>
                <path d="M3033.94,180.036L3033.94,138.931C3033.94,133.258 3032.66,129.151 3030.1,126.611C3027.54,124.071 3023.43,122.801 3017.75,122.801L2994,122.801L2994,114.513L3018.25,114.513C3026.82,114.513 3033.3,116.58 3037.69,120.715C3042.09,124.849 3044.28,131.014 3044.28,139.209L3044.28,180.036L3033.94,180.036ZM2994.11,180.036L2994.11,157.676C2994.11,153.856 2994.43,150.945 2995.06,148.943C2995.69,146.941 2996.34,145.235 2997.01,143.826L3005.46,143.826C3005.01,145.494 3004.68,147.358 3004.46,149.416C3004.24,151.474 3004.12,154.005 3004.12,157.008L3004.12,180.036L2994.11,180.036Z" style="fill:white;fill-rule:nonzero;"/>
                <path d="M3136.95,180.036L3089.45,114.513L3101.02,114.513L3148.46,180.036L3136.95,180.036ZM3091.78,180.036L3091.78,156.285C3091.78,150.167 3092.92,145.235 3095.18,141.49C3097.44,137.744 3100.96,135 3105.75,133.258L3109.81,138.597C3104.47,141.008 3101.8,145.661 3101.8,152.558L3101.8,180.036L3091.78,180.036ZM3148.74,114.513L3126.16,154.06L3119.32,146.106L3137.12,114.513L3148.74,114.513Z" style="fill:white;fill-rule:nonzero;"/>
                <path d="M3186.18,180.036L3186.18,171.915C3191.66,171.73 3196.09,170.005 3199.44,166.742C3202.8,163.479 3204.47,158.974 3204.47,153.226L3204.47,122.801L3164.04,122.801L3164.04,114.513L3214.82,114.513L3214.82,153.003C3214.82,158.529 3213.63,163.294 3211.26,167.298C3208.89,171.303 3205.55,174.39 3201.25,176.559C3196.95,178.729 3191.92,179.887 3186.18,180.036ZM3165.32,203.175L3165.32,155.451C3165.32,151.706 3165.63,148.832 3166.26,146.829C3166.89,144.827 3167.54,143.121 3168.21,141.712L3176.66,141.712C3176.18,143.381 3175.84,145.235 3175.64,147.274C3175.43,149.314 3175.33,151.835 3175.33,154.839L3175.33,203.175L3165.32,203.175Z" style="fill:white;fill-rule:nonzero;"/>
                <path d="M3261.15,181.259C3255.93,181.259 3251.35,180.166 3247.41,177.978C3243.49,175.79 3240.43,172.721 3238.24,168.772C3236.05,164.823 3234.96,160.216 3234.96,154.95L3234.96,114.513L3245.25,114.513L3245.25,155.673C3245.25,160.865 3246.7,165.055 3249.61,168.244C3252.52,171.433 3256.35,173.027 3261.1,173.027C3265.85,173.027 3269.66,171.433 3272.56,168.244C3275.45,165.055 3276.89,160.865 3276.89,155.673L3276.89,133.703C3276.89,130.143 3276.11,127.389 3274.53,125.443C3272.95,123.496 3270.72,122.523 3267.83,122.523C3266.57,122.523 3265.25,122.717 3263.88,123.107C3262.51,123.496 3261.15,124.006 3259.82,124.636L3258.21,117.739C3260.06,116.552 3262.1,115.616 3264.32,114.93C3266.55,114.244 3268.72,113.901 3270.83,113.901C3275.91,113.901 3279.92,115.598 3282.85,118.991C3285.78,122.384 3287.24,127.009 3287.24,132.868L3287.24,154.95C3287.24,160.216 3286.16,164.823 3283.99,168.772C3281.82,172.721 3278.78,175.79 3274.87,177.978C3270.95,180.166 3266.38,181.259 3261.15,181.259Z" style="fill:white;fill-rule:nonzero;"/>
                <path d="M3310.21,151.057L3310.21,122.801L3298.2,122.801L3298.2,114.513L3320.56,114.513L3320.56,151.057L3310.21,151.057Z" style="fill:white;fill-rule:nonzero;"/>
                <path d="M3332.91,180.036L3332.91,171.692L3368.51,171.692L3378.8,171.303L3386.75,172.137L3386.75,180.036L3332.91,180.036ZM3368.51,177.7L3368.51,138.931C3368.51,133.258 3367.24,129.151 3364.69,126.611C3362.15,124.071 3358.03,122.801 3352.32,122.801L3336.47,122.801L3336.47,114.513L3352.88,114.513C3361.4,114.513 3367.86,116.58 3372.23,120.715C3376.61,124.849 3378.8,131.014 3378.8,139.209L3378.8,177.7L3368.51,177.7Z" style="fill:white;fill-rule:nonzero;"/>
                <path d="M3404.6,151.057L3404.6,122.801L3392.59,122.801L3392.59,114.513L3414.95,114.513L3414.95,151.057L3404.6,151.057Z" style="fill:white;fill-rule:nonzero;"/>
                <path d="M3460.73,114.513C3469.4,114.513 3475.88,116.58 3480.17,120.715C3484.45,124.849 3486.59,131.144 3486.59,139.599L3486.59,180.036L3476.3,180.036L3476.24,138.987C3476.24,133.313 3475.03,129.197 3472.6,126.639C3470.17,124.08 3466.25,122.801 3460.84,122.801L3451.55,122.801C3450.33,124.803 3449.35,127.371 3448.63,130.504C3447.91,133.638 3447.54,136.855 3447.54,140.155L3447.54,162.237C3447.54,168.281 3446.11,172.851 3443.23,175.948C3440.36,179.044 3436.22,180.592 3430.8,180.592C3429.69,180.592 3428.62,180.546 3427.6,180.453C3426.58,180.36 3425.52,180.24 3424.41,180.091L3424.41,171.804C3425.07,171.878 3425.73,171.934 3426.38,171.971C3427.03,172.008 3427.65,172.026 3428.24,172.026C3431.51,172.026 3433.86,171.192 3435.31,169.523C3436.75,167.855 3437.48,165.222 3437.48,161.625L3437.48,140.933C3437.48,137.633 3437.91,134.296 3438.78,130.922C3439.65,127.547 3440.89,124.84 3442.48,122.801L3430.19,122.801L3430.19,114.513L3460.73,114.513Z" style="fill:white;fill-rule:nonzero;"/>
            </g>
        </g>
    </g>
</svg>
