<?xml version="1.0" encoding="UTF-8" standalone="no"?>
<!DOCTYPE svg PUBLIC "-//W3C//DTD SVG 1.1//EN" "http://www.w3.org/Graphics/SVG/1.1/DTD/svg11.dtd">
<svg width="100%" height="100%" viewBox="0 0 300 70" version="1.1" xmlns="http://www.w3.org/2000/svg" xmlns:xlink="http://www.w3.org/1999/xlink" xml:space="preserve" xmlns:serif="http://www.serif.com/" style="fill-rule:evenodd;clip-rule:evenodd;stroke-linejoin:round;stroke-miterlimit:2;">
    <g transform="matrix(1,0,0,1,-1623,-364.074)">
        <g id="图层1">
        </g>
        <g id="Artboard2" transform="matrix(0.20629,0,0,0.255517,1288.07,344.937)">
            <rect x="1623.58" y="74.895" width="1454.26" height="273.954" style="fill:none;"/>
            <g transform="matrix(1.51229,0,0,1.2928,-967.776,-7.00545)">
                <g transform="matrix(113.914,0,0,113.914,1762.81,180.036)">
                    <path d="M0.132,-0.673L0.062,-0.673C0.052,-0.673 0.044,-0.676 0.037,-0.683C0.029,-0.69 0.026,-0.698 0.026,-0.708C0.026,-0.718 0.029,-0.727 0.037,-0.734C0.044,-0.74 0.052,-0.744 0.062,-0.744L0.273,-0.744C0.283,-0.744 0.292,-0.74 0.299,-0.734C0.306,-0.727 0.309,-0.718 0.309,-0.708C0.309,-0.698 0.306,-0.69 0.299,-0.683C0.292,-0.676 0.283,-0.673 0.273,-0.673L0.203,-0.673L0.203,-0.495L0.273,-0.495C0.283,-0.495 0.292,-0.492 0.299,-0.485C0.306,-0.478 0.309,-0.469 0.309,-0.459C0.309,-0.45 0.306,-0.442 0.299,-0.435C0.292,-0.428 0.283,-0.424 0.273,-0.424L0.203,-0.424L0.203,-0.187L0.278,-0.239C0.287,-0.244 0.296,-0.246 0.305,-0.245C0.314,-0.243 0.322,-0.238 0.328,-0.23C0.333,-0.221 0.334,-0.212 0.333,-0.203C0.331,-0.194 0.326,-0.186 0.318,-0.181L0.071,-0.01C0.062,-0.004 0.053,-0.002 0.044,-0.004C0.035,-0.006 0.027,-0.011 0.022,-0.019C0.016,-0.028 0.014,-0.037 0.016,-0.046C0.017,-0.055 0.022,-0.063 0.03,-0.069L0.132,-0.138L0.132,-0.424L0.062,-0.424C0.052,-0.424 0.044,-0.428 0.037,-0.435C0.029,-0.442 0.026,-0.45 0.026,-0.459C0.026,-0.469 0.029,-0.478 0.037,-0.485C0.044,-0.492 0.052,-0.495 0.062,-0.495L0.132,-0.495L0.132,-0.673ZM0.424,-0.745L0.424,-0.38C0.424,-0.371 0.421,-0.363 0.414,-0.356C0.407,-0.349 0.399,-0.345 0.389,-0.345C0.379,-0.345 0.37,-0.349 0.363,-0.356C0.356,-0.363 0.352,-0.371 0.352,-0.38L0.352,-0.78C0.352,-0.79 0.356,-0.799 0.363,-0.806C0.37,-0.813 0.379,-0.816 0.389,-0.816L0.682,-0.816C0.692,-0.816 0.701,-0.813 0.708,-0.806C0.715,-0.799 0.718,-0.79 0.718,-0.78L0.718,-0.377C0.718,-0.367 0.715,-0.359 0.708,-0.352C0.701,-0.345 0.692,-0.342 0.682,-0.342C0.673,-0.342 0.665,-0.345 0.658,-0.352C0.651,-0.359 0.647,-0.367 0.647,-0.377L0.647,-0.745L0.424,-0.745ZM0.36,0.069C0.353,0.076 0.345,0.081 0.336,0.082C0.327,0.083 0.318,0.081 0.31,0.075C0.303,0.068 0.298,0.06 0.297,0.051C0.296,0.042 0.298,0.033 0.304,0.025C0.375,-0.066 0.426,-0.162 0.456,-0.264C0.485,-0.365 0.5,-0.475 0.5,-0.592L0.5,-0.65C0.5,-0.659 0.503,-0.668 0.511,-0.675C0.518,-0.682 0.526,-0.685 0.536,-0.685C0.545,-0.685 0.554,-0.682 0.561,-0.675C0.568,-0.668 0.571,-0.659 0.571,-0.65L0.571,-0.592C0.571,-0.468 0.555,-0.351 0.523,-0.241C0.491,-0.131 0.437,-0.028 0.36,0.069ZM0.559,-0.03L0.559,-0.262C0.559,-0.272 0.563,-0.281 0.57,-0.288C0.576,-0.295 0.585,-0.298 0.595,-0.298C0.605,-0.298 0.613,-0.295 0.62,-0.288C0.627,-0.281 0.63,-0.272 0.63,-0.262L0.63,-0.03C0.63,-0.015 0.637,-0.004 0.65,0.002C0.663,0.008 0.677,0.008 0.69,0.003C0.703,-0.002 0.711,-0.014 0.713,-0.032L0.716,-0.102C0.717,-0.112 0.721,-0.12 0.728,-0.127C0.735,-0.133 0.743,-0.136 0.753,-0.135C0.763,-0.134 0.771,-0.131 0.778,-0.124C0.785,-0.117 0.788,-0.108 0.787,-0.098L0.783,-0.028C0.777,0.023 0.757,0.056 0.722,0.07C0.707,0.076 0.69,0.079 0.67,0.078C0.649,0.077 0.632,0.074 0.618,0.067C0.579,0.048 0.559,0.016 0.559,-0.03Z" style="fill:white;fill-rule:nonzero;"/>
                </g>
                <g transform="matrix(113.914,0,0,113.914,1859.63,180.036)">
                    <path d="M0.399,-0.354C0.396,-0.364 0.397,-0.373 0.401,-0.382C0.404,-0.39 0.411,-0.396 0.42,-0.4C0.43,-0.403 0.439,-0.402 0.448,-0.398C0.456,-0.394 0.462,-0.387 0.466,-0.378C0.484,-0.327 0.505,-0.281 0.528,-0.24C0.561,-0.296 0.589,-0.356 0.612,-0.419L0.382,-0.419C0.372,-0.419 0.364,-0.422 0.357,-0.429C0.349,-0.436 0.346,-0.444 0.346,-0.454C0.346,-0.464 0.349,-0.472 0.357,-0.48C0.364,-0.487 0.372,-0.49 0.382,-0.49L0.661,-0.49C0.674,-0.49 0.683,-0.485 0.69,-0.475C0.697,-0.464 0.698,-0.453 0.695,-0.442C0.664,-0.347 0.623,-0.257 0.571,-0.174C0.622,-0.107 0.685,-0.041 0.76,0.025C0.767,0.032 0.771,0.04 0.772,0.05C0.772,0.059 0.769,0.068 0.763,0.075C0.756,0.082 0.748,0.086 0.739,0.087C0.729,0.088 0.72,0.085 0.713,0.078C0.642,0.015 0.581,-0.048 0.53,-0.111C0.482,-0.044 0.426,0.019 0.362,0.077C0.355,0.084 0.346,0.087 0.337,0.087C0.327,0.086 0.319,0.082 0.312,0.075C0.305,0.068 0.302,0.059 0.303,0.05C0.303,0.04 0.307,0.032 0.314,0.025C0.38,-0.036 0.438,-0.102 0.487,-0.173C0.452,-0.226 0.423,-0.286 0.399,-0.354ZM0.243,-0.462L0.243,0.051C0.243,0.06 0.239,0.069 0.232,0.076C0.225,0.083 0.216,0.087 0.207,0.087C0.197,0.087 0.189,0.083 0.182,0.076C0.175,0.069 0.171,0.06 0.171,0.051L0.171,-0.376C0.148,-0.351 0.124,-0.328 0.099,-0.307C0.091,-0.3 0.082,-0.298 0.073,-0.299C0.064,-0.3 0.056,-0.304 0.049,-0.311C0.042,-0.319 0.04,-0.328 0.041,-0.337C0.042,-0.346 0.046,-0.354 0.053,-0.361C0.093,-0.396 0.129,-0.434 0.162,-0.476C0.195,-0.519 0.222,-0.565 0.245,-0.614C0.25,-0.623 0.257,-0.63 0.266,-0.633C0.275,-0.636 0.284,-0.635 0.293,-0.631C0.302,-0.626 0.308,-0.62 0.311,-0.611C0.314,-0.602 0.314,-0.593 0.31,-0.584C0.29,-0.542 0.267,-0.502 0.242,-0.465C0.242,-0.464 0.242,-0.463 0.243,-0.462ZM0.404,-0.534C0.399,-0.525 0.392,-0.52 0.383,-0.517C0.374,-0.514 0.365,-0.514 0.356,-0.519C0.347,-0.524 0.341,-0.532 0.339,-0.541C0.336,-0.55 0.337,-0.559 0.342,-0.568C0.379,-0.637 0.397,-0.713 0.397,-0.795C0.397,-0.805 0.401,-0.814 0.408,-0.821C0.415,-0.828 0.424,-0.831 0.433,-0.831L0.629,-0.831C0.638,-0.831 0.647,-0.828 0.654,-0.821C0.661,-0.814 0.664,-0.805 0.664,-0.795L0.664,-0.594L0.706,-0.594C0.715,-0.594 0.724,-0.59 0.731,-0.583C0.737,-0.576 0.741,-0.567 0.741,-0.557C0.741,-0.548 0.737,-0.54 0.731,-0.533C0.724,-0.526 0.715,-0.522 0.706,-0.522L0.629,-0.522C0.619,-0.522 0.611,-0.526 0.604,-0.533C0.596,-0.54 0.593,-0.548 0.593,-0.557L0.593,-0.76L0.468,-0.76C0.464,-0.68 0.443,-0.605 0.404,-0.534ZM0.098,-0.515C0.091,-0.508 0.082,-0.504 0.073,-0.504C0.063,-0.504 0.055,-0.508 0.048,-0.515C0.041,-0.523 0.038,-0.532 0.038,-0.541C0.038,-0.55 0.041,-0.558 0.048,-0.565C0.088,-0.604 0.122,-0.643 0.149,-0.684C0.179,-0.725 0.205,-0.77 0.226,-0.82C0.231,-0.829 0.237,-0.836 0.246,-0.839C0.255,-0.841 0.264,-0.841 0.273,-0.838C0.282,-0.833 0.289,-0.827 0.292,-0.818C0.295,-0.809 0.295,-0.799 0.291,-0.79C0.267,-0.737 0.239,-0.688 0.208,-0.643C0.177,-0.599 0.141,-0.556 0.098,-0.515Z" style="fill:white;fill-rule:nonzero;"/>
                </g>
                <g transform="matrix(113.914,0,0,113.914,1956.46,180.036)">
                    <path d="M0.393,-0.382L0.419,-0.423C0.425,-0.432 0.433,-0.437 0.442,-0.439C0.451,-0.44 0.46,-0.438 0.469,-0.433C0.476,-0.428 0.481,-0.42 0.483,-0.411C0.485,-0.402 0.483,-0.393 0.477,-0.384L0.475,-0.382L0.658,-0.382C0.667,-0.382 0.675,-0.379 0.681,-0.373C0.687,-0.366 0.69,-0.358 0.69,-0.349L0.69,-0.168C0.69,-0.159 0.687,-0.151 0.681,-0.145C0.675,-0.138 0.667,-0.135 0.658,-0.135L0.473,-0.135C0.464,-0.114 0.454,-0.094 0.442,-0.076C0.397,-0.008 0.329,0.045 0.238,0.084C0.229,0.087 0.22,0.087 0.211,0.084C0.202,0.081 0.196,0.074 0.192,0.065C0.189,0.056 0.189,0.047 0.192,0.038C0.195,0.028 0.201,0.022 0.21,0.018C0.289,-0.015 0.347,-0.059 0.384,-0.115L0.396,-0.135L0.285,-0.135C0.276,-0.135 0.269,-0.138 0.262,-0.145C0.255,-0.151 0.252,-0.159 0.252,-0.168L0.252,-0.349C0.252,-0.358 0.255,-0.366 0.262,-0.373C0.269,-0.379 0.276,-0.382 0.285,-0.382L0.393,-0.382ZM0.434,-0.773L0.434,-0.811C0.434,-0.821 0.438,-0.83 0.445,-0.837C0.452,-0.844 0.46,-0.847 0.469,-0.847C0.478,-0.847 0.487,-0.844 0.494,-0.837C0.501,-0.83 0.504,-0.821 0.504,-0.811L0.504,-0.773L0.719,-0.773C0.728,-0.773 0.737,-0.77 0.744,-0.763C0.751,-0.756 0.754,-0.747 0.754,-0.738C0.754,-0.728 0.751,-0.72 0.744,-0.713C0.737,-0.706 0.728,-0.702 0.719,-0.702L0.19,-0.702L0.19,-0.603C0.19,-0.536 0.189,-0.473 0.186,-0.413C0.183,-0.352 0.177,-0.295 0.168,-0.24C0.153,-0.13 0.121,-0.027 0.073,0.068C0.068,0.077 0.061,0.082 0.052,0.085C0.043,0.088 0.034,0.087 0.025,0.083C0.016,0.078 0.011,0.07 0.008,0.061C0.005,0.052 0.005,0.043 0.01,0.034C0.055,-0.054 0.085,-0.149 0.099,-0.252C0.113,-0.355 0.12,-0.472 0.12,-0.603L0.12,-0.738C0.12,-0.747 0.123,-0.756 0.13,-0.763C0.137,-0.77 0.145,-0.773 0.154,-0.773L0.434,-0.773ZM0.314,-0.645L0.314,-0.653C0.314,-0.663 0.318,-0.672 0.325,-0.679C0.332,-0.686 0.34,-0.69 0.349,-0.69C0.358,-0.69 0.367,-0.686 0.374,-0.679C0.381,-0.672 0.384,-0.663 0.384,-0.653L0.384,-0.645L0.442,-0.645C0.452,-0.645 0.46,-0.642 0.467,-0.635C0.473,-0.628 0.476,-0.619 0.476,-0.609C0.476,-0.6 0.473,-0.592 0.467,-0.585C0.46,-0.578 0.452,-0.574 0.442,-0.574L0.384,-0.574L0.384,-0.447C0.384,-0.437 0.381,-0.428 0.374,-0.422C0.367,-0.415 0.358,-0.411 0.349,-0.411C0.34,-0.411 0.332,-0.415 0.325,-0.422C0.318,-0.428 0.314,-0.437 0.314,-0.447L0.314,-0.574L0.253,-0.574C0.244,-0.574 0.237,-0.578 0.23,-0.585C0.223,-0.592 0.219,-0.6 0.219,-0.609C0.219,-0.619 0.223,-0.628 0.23,-0.635C0.237,-0.642 0.244,-0.645 0.253,-0.645L0.314,-0.645ZM0.586,-0.645L0.586,-0.653C0.586,-0.663 0.589,-0.672 0.596,-0.679C0.603,-0.686 0.611,-0.69 0.621,-0.69C0.63,-0.69 0.638,-0.686 0.645,-0.679C0.652,-0.672 0.655,-0.663 0.655,-0.653L0.655,-0.645L0.714,-0.645C0.723,-0.645 0.731,-0.642 0.738,-0.635C0.745,-0.628 0.748,-0.619 0.748,-0.609C0.748,-0.6 0.745,-0.592 0.738,-0.585C0.731,-0.578 0.723,-0.574 0.714,-0.574L0.655,-0.574L0.655,-0.447C0.655,-0.437 0.652,-0.428 0.645,-0.422C0.638,-0.415 0.63,-0.411 0.621,-0.411C0.611,-0.411 0.603,-0.415 0.596,-0.422C0.589,-0.428 0.586,-0.437 0.586,-0.447L0.586,-0.574L0.525,-0.574C0.516,-0.574 0.508,-0.578 0.501,-0.585C0.494,-0.592 0.491,-0.6 0.491,-0.609C0.491,-0.619 0.494,-0.628 0.501,-0.635C0.508,-0.642 0.516,-0.645 0.525,-0.645L0.586,-0.645ZM0.476,-0.045L0.476,-0.083C0.476,-0.092 0.479,-0.1 0.486,-0.108C0.493,-0.115 0.501,-0.118 0.511,-0.118C0.52,-0.118 0.529,-0.115 0.536,-0.108C0.543,-0.1 0.547,-0.092 0.547,-0.083L0.547,-0.045C0.547,-0.032 0.55,-0.022 0.556,-0.013C0.562,-0.004 0.57,0.002 0.579,0.007C0.59,0.012 0.602,0.014 0.615,0.015C0.628,0.015 0.641,0.013 0.652,0.01C0.679,0.001 0.695,-0.019 0.7,-0.049C0.701,-0.059 0.706,-0.067 0.713,-0.073C0.72,-0.079 0.729,-0.082 0.739,-0.081C0.748,-0.08 0.756,-0.075 0.762,-0.068C0.768,-0.061 0.771,-0.052 0.77,-0.042C0.765,-0.011 0.755,0.015 0.738,0.035C0.721,0.054 0.7,0.068 0.675,0.077C0.654,0.084 0.633,0.087 0.612,0.086C0.59,0.085 0.569,0.08 0.55,0.07C0.529,0.06 0.511,0.046 0.497,0.027C0.483,0.008 0.476,-0.016 0.476,-0.045ZM0.634,-0.061L0.633,-0.069C0.631,-0.084 0.637,-0.094 0.65,-0.098C0.656,-0.099 0.662,-0.098 0.668,-0.095C0.673,-0.091 0.677,-0.086 0.678,-0.08L0.686,-0.042C0.687,-0.035 0.686,-0.029 0.683,-0.024C0.68,-0.019 0.675,-0.015 0.668,-0.013L0.582,-0.013C0.575,-0.013 0.57,-0.015 0.566,-0.02C0.561,-0.025 0.559,-0.03 0.559,-0.037C0.559,-0.038 0.559,-0.04 0.56,-0.042C0.56,-0.043 0.56,-0.045 0.561,-0.046L0.582,-0.104C0.584,-0.111 0.588,-0.115 0.594,-0.118C0.6,-0.121 0.606,-0.121 0.612,-0.119C0.618,-0.117 0.622,-0.113 0.625,-0.107C0.628,-0.101 0.628,-0.095 0.625,-0.088L0.616,-0.061L0.634,-0.061ZM0.257,-0.429C0.252,-0.422 0.245,-0.419 0.237,-0.418C0.229,-0.417 0.222,-0.42 0.215,-0.425C0.208,-0.43 0.205,-0.437 0.204,-0.446C0.203,-0.454 0.205,-0.461 0.21,-0.468C0.219,-0.479 0.225,-0.489 0.23,-0.499C0.235,-0.509 0.239,-0.522 0.243,-0.537C0.245,-0.545 0.249,-0.551 0.257,-0.555C0.264,-0.559 0.271,-0.56 0.28,-0.558C0.288,-0.556 0.294,-0.552 0.298,-0.545C0.302,-0.538 0.303,-0.53 0.301,-0.521C0.297,-0.502 0.291,-0.486 0.284,-0.472C0.278,-0.458 0.269,-0.444 0.257,-0.429ZM0.533,-0.431C0.528,-0.424 0.522,-0.42 0.515,-0.419C0.507,-0.418 0.499,-0.419 0.491,-0.424C0.484,-0.429 0.48,-0.435 0.479,-0.443C0.478,-0.451 0.479,-0.459 0.484,-0.466C0.491,-0.477 0.497,-0.487 0.502,-0.498C0.506,-0.509 0.51,-0.52 0.513,-0.533C0.513,-0.534 0.513,-0.536 0.514,-0.537C0.517,-0.545 0.521,-0.551 0.528,-0.555C0.535,-0.559 0.542,-0.56 0.551,-0.558C0.559,-0.556 0.565,-0.552 0.57,-0.545C0.574,-0.538 0.575,-0.53 0.573,-0.521C0.572,-0.52 0.572,-0.518 0.572,-0.517C0.568,-0.501 0.563,-0.487 0.558,-0.474C0.552,-0.46 0.544,-0.446 0.533,-0.431ZM0.694,-0.44L0.669,-0.52C0.666,-0.529 0.667,-0.537 0.671,-0.544C0.675,-0.551 0.681,-0.556 0.689,-0.558C0.697,-0.561 0.705,-0.56 0.712,-0.557C0.719,-0.553 0.724,-0.547 0.727,-0.539L0.752,-0.458C0.755,-0.45 0.754,-0.442 0.751,-0.435C0.747,-0.428 0.741,-0.422 0.733,-0.419C0.725,-0.416 0.717,-0.417 0.71,-0.421C0.703,-0.425 0.697,-0.431 0.694,-0.44ZM0.41,-0.473L0.402,-0.525C0.401,-0.534 0.403,-0.541 0.408,-0.548C0.413,-0.555 0.419,-0.558 0.427,-0.559C0.436,-0.56 0.443,-0.559 0.45,-0.554C0.456,-0.549 0.46,-0.543 0.462,-0.534L0.469,-0.482C0.47,-0.473 0.468,-0.466 0.463,-0.459C0.458,-0.452 0.452,-0.448 0.443,-0.447C0.435,-0.446 0.428,-0.448 0.422,-0.453C0.415,-0.458 0.411,-0.464 0.41,-0.473ZM0.494,-0.201L0.625,-0.201L0.625,-0.227L0.5,-0.227L0.494,-0.201ZM0.318,-0.315L0.318,-0.289L0.436,-0.289C0.437,-0.298 0.438,-0.306 0.438,-0.315L0.318,-0.315ZM0.625,-0.289L0.625,-0.315L0.509,-0.315C0.509,-0.31 0.509,-0.306 0.508,-0.301L0.508,-0.289L0.625,-0.289ZM0.318,-0.227L0.318,-0.201L0.422,-0.201L0.428,-0.227L0.318,-0.227Z" style="fill:white;fill-rule:nonzero;"/>
                </g>
                <g transform="matrix(113.914,0,0,113.914,2053.29,180.036)">
                    <path d="M0.477,-0.651L0.348,-0.651C0.338,-0.651 0.33,-0.655 0.323,-0.662C0.316,-0.669 0.312,-0.677 0.312,-0.687C0.312,-0.697 0.316,-0.705 0.323,-0.712C0.33,-0.719 0.338,-0.722 0.348,-0.722L0.477,-0.722L0.477,-0.799C0.477,-0.809 0.481,-0.818 0.488,-0.825C0.495,-0.832 0.504,-0.835 0.513,-0.835C0.522,-0.835 0.531,-0.832 0.538,-0.825C0.545,-0.818 0.549,-0.809 0.549,-0.799L0.549,-0.722L0.678,-0.722C0.687,-0.722 0.696,-0.719 0.703,-0.712C0.709,-0.705 0.713,-0.697 0.713,-0.687C0.713,-0.677 0.709,-0.669 0.703,-0.662C0.696,-0.655 0.687,-0.651 0.678,-0.651L0.549,-0.651L0.549,-0.483L0.726,-0.483C0.736,-0.483 0.745,-0.479 0.752,-0.472C0.759,-0.465 0.762,-0.456 0.762,-0.446C0.762,-0.437 0.759,-0.428 0.752,-0.422C0.745,-0.415 0.736,-0.411 0.726,-0.411L0.505,-0.411L0.382,-0.002L0.646,-0.002L0.559,-0.27C0.556,-0.28 0.557,-0.289 0.562,-0.298C0.566,-0.306 0.573,-0.311 0.583,-0.314C0.593,-0.317 0.602,-0.316 0.611,-0.312C0.619,-0.307 0.624,-0.3 0.627,-0.29L0.728,0.024C0.731,0.035 0.73,0.046 0.723,0.055C0.716,0.064 0.707,0.069 0.695,0.069L0.331,0.069C0.318,0.069 0.309,0.064 0.302,0.055C0.295,0.046 0.294,0.035 0.298,0.022L0.431,-0.411L0.299,-0.411C0.289,-0.411 0.281,-0.415 0.274,-0.422C0.267,-0.428 0.264,-0.437 0.264,-0.446C0.264,-0.456 0.267,-0.465 0.274,-0.472C0.281,-0.479 0.289,-0.483 0.299,-0.483L0.477,-0.483L0.477,-0.651ZM0.063,0.026L0.162,-0.303C0.165,-0.312 0.17,-0.319 0.179,-0.324C0.187,-0.329 0.196,-0.33 0.206,-0.328C0.216,-0.325 0.223,-0.319 0.228,-0.311C0.232,-0.303 0.233,-0.294 0.23,-0.284L0.132,0.045C0.129,0.055 0.124,0.062 0.116,0.067C0.107,0.071 0.098,0.072 0.088,0.069C0.078,0.066 0.071,0.061 0.066,0.053C0.061,0.045 0.06,0.036 0.063,0.026ZM0.125,-0.576L0.209,-0.464C0.214,-0.455 0.216,-0.446 0.215,-0.437C0.213,-0.428 0.208,-0.42 0.2,-0.414C0.191,-0.409 0.182,-0.407 0.173,-0.409C0.164,-0.411 0.156,-0.416 0.151,-0.424L0.066,-0.537C0.061,-0.546 0.059,-0.555 0.061,-0.564C0.062,-0.572 0.067,-0.58 0.076,-0.586C0.085,-0.591 0.093,-0.593 0.103,-0.591C0.112,-0.589 0.119,-0.584 0.125,-0.576ZM0.141,-0.792L0.226,-0.68C0.231,-0.671 0.232,-0.662 0.231,-0.653C0.229,-0.644 0.224,-0.636 0.216,-0.631C0.207,-0.625 0.198,-0.623 0.189,-0.625C0.18,-0.627 0.172,-0.632 0.167,-0.64L0.082,-0.753C0.077,-0.762 0.075,-0.771 0.077,-0.78C0.079,-0.789 0.084,-0.797 0.092,-0.803C0.101,-0.808 0.11,-0.809 0.119,-0.807C0.128,-0.805 0.135,-0.8 0.141,-0.792Z" style="fill:white;fill-rule:nonzero;"/>
                </g>
                <g transform="matrix(113.914,0,0,113.914,2150.11,180.036)">
                    <path d="M0.368,-0.338L0.368,-0.811C0.368,-0.82 0.372,-0.829 0.379,-0.836C0.386,-0.842 0.394,-0.846 0.404,-0.846C0.413,-0.846 0.422,-0.842 0.429,-0.836C0.436,-0.829 0.439,-0.82 0.439,-0.811L0.439,-0.338C0.439,-0.328 0.436,-0.32 0.429,-0.313C0.422,-0.306 0.413,-0.302 0.404,-0.302C0.394,-0.302 0.386,-0.306 0.379,-0.313C0.372,-0.32 0.368,-0.328 0.368,-0.338ZM0.659,-0.466L0.542,-0.69C0.537,-0.699 0.537,-0.708 0.54,-0.717C0.543,-0.725 0.548,-0.732 0.557,-0.737C0.566,-0.742 0.575,-0.743 0.584,-0.74C0.592,-0.737 0.599,-0.732 0.604,-0.723L0.722,-0.499C0.727,-0.49 0.728,-0.481 0.725,-0.472C0.722,-0.463 0.716,-0.456 0.707,-0.451C0.698,-0.446 0.69,-0.446 0.681,-0.449C0.672,-0.452 0.664,-0.457 0.659,-0.466ZM0.211,-0.716C0.214,-0.726 0.22,-0.733 0.228,-0.738C0.236,-0.742 0.245,-0.743 0.255,-0.74C0.265,-0.737 0.272,-0.732 0.277,-0.724C0.282,-0.716 0.283,-0.707 0.28,-0.698C0.263,-0.635 0.244,-0.578 0.222,-0.527C0.201,-0.476 0.174,-0.429 0.142,-0.384C0.136,-0.376 0.128,-0.371 0.119,-0.37C0.11,-0.368 0.101,-0.37 0.092,-0.375C0.084,-0.382 0.079,-0.39 0.078,-0.399C0.076,-0.408 0.078,-0.417 0.084,-0.425C0.113,-0.465 0.137,-0.509 0.157,-0.556C0.178,-0.603 0.196,-0.656 0.211,-0.716ZM0.61,-0.406C0.615,-0.415 0.623,-0.42 0.632,-0.423C0.641,-0.425 0.649,-0.424 0.658,-0.419C0.667,-0.414 0.672,-0.407 0.675,-0.398C0.677,-0.389 0.676,-0.38 0.671,-0.371C0.609,-0.267 0.533,-0.179 0.442,-0.107C0.346,-0.029 0.241,0.03 0.127,0.071C0.117,0.074 0.108,0.073 0.1,0.069C0.091,0.065 0.085,0.058 0.082,0.049C0.079,0.039 0.079,0.03 0.084,0.022C0.088,0.013 0.095,0.007 0.104,0.004C0.209,-0.033 0.307,-0.089 0.396,-0.162C0.481,-0.229 0.553,-0.311 0.61,-0.406Z" style="fill:white;fill-rule:nonzero;"/>
                </g>
                <g transform="matrix(113.914,0,0,113.914,2246.94,180.036)">
                    <path d="M0.286,-0.628L0.099,-0.628C0.089,-0.628 0.081,-0.632 0.074,-0.639C0.067,-0.646 0.063,-0.654 0.063,-0.664C0.063,-0.674 0.067,-0.682 0.074,-0.689C0.081,-0.696 0.089,-0.699 0.099,-0.699L0.308,-0.699L0.344,-0.816C0.347,-0.825 0.353,-0.832 0.361,-0.837C0.369,-0.842 0.378,-0.843 0.388,-0.84C0.397,-0.837 0.404,-0.831 0.409,-0.823C0.414,-0.814 0.415,-0.805 0.412,-0.796L0.382,-0.699L0.752,-0.699C0.761,-0.699 0.77,-0.696 0.777,-0.689C0.784,-0.682 0.787,-0.674 0.787,-0.664C0.787,-0.654 0.784,-0.646 0.777,-0.639C0.77,-0.632 0.761,-0.628 0.752,-0.628L0.608,-0.628C0.588,-0.484 0.541,-0.35 0.466,-0.225L0.747,0.021C0.754,0.028 0.758,0.036 0.759,0.045C0.76,0.054 0.757,0.063 0.751,0.071C0.744,0.078 0.736,0.082 0.727,0.083C0.717,0.084 0.708,0.081 0.7,0.074L0.426,-0.166C0.354,-0.067 0.257,0.016 0.134,0.082C0.125,0.087 0.116,0.088 0.108,0.085C0.098,0.082 0.092,0.077 0.087,0.068C0.082,0.059 0.081,0.049 0.084,0.041C0.087,0.032 0.093,0.024 0.102,0.019C0.215,-0.042 0.305,-0.12 0.372,-0.214L0.223,-0.345C0.211,-0.355 0.207,-0.368 0.212,-0.383L0.286,-0.628ZM0.536,-0.628L0.36,-0.628L0.286,-0.383L0.412,-0.272C0.475,-0.382 0.517,-0.501 0.536,-0.628Z" style="fill:white;fill-rule:nonzero;"/>
                </g>
                <g transform="matrix(113.914,0,0,113.914,2343.77,180.036)">
                    <path d="M0.624,-0.275L0.448,-0.131C0.441,-0.125 0.433,-0.122 0.425,-0.122C0.416,-0.122 0.409,-0.125 0.402,-0.13L0.226,-0.275C0.226,-0.275 0.225,-0.276 0.224,-0.277C0.217,-0.284 0.213,-0.292 0.213,-0.302C0.212,-0.311 0.215,-0.32 0.222,-0.327C0.289,-0.401 0.356,-0.438 0.424,-0.438C0.492,-0.438 0.56,-0.401 0.627,-0.327C0.628,-0.326 0.629,-0.325 0.629,-0.325C0.636,-0.317 0.639,-0.308 0.638,-0.299C0.636,-0.29 0.632,-0.282 0.624,-0.275ZM0.76,0.071L0.089,0.071C0.08,0.071 0.071,0.068 0.065,0.061C0.057,0.054 0.054,0.045 0.054,0.035C0.054,0.026 0.057,0.017 0.065,0.01C0.071,0.003 0.08,-0.001 0.089,-0.001L0.264,-0.001L0.207,-0.096C0.202,-0.105 0.201,-0.115 0.204,-0.124C0.206,-0.133 0.211,-0.14 0.219,-0.145C0.228,-0.15 0.237,-0.151 0.246,-0.149C0.255,-0.147 0.263,-0.142 0.268,-0.134L0.348,-0.001L0.502,-0.001L0.582,-0.134C0.587,-0.142 0.594,-0.147 0.603,-0.149C0.612,-0.151 0.621,-0.15 0.63,-0.145C0.639,-0.14 0.644,-0.133 0.647,-0.124C0.649,-0.115 0.648,-0.105 0.643,-0.096L0.585,-0.001L0.76,-0.001C0.77,-0.001 0.778,0.003 0.785,0.01C0.792,0.017 0.795,0.026 0.795,0.035C0.795,0.045 0.792,0.054 0.785,0.061C0.778,0.068 0.77,0.071 0.76,0.071ZM0.515,-0.791L0.715,-0.791C0.724,-0.791 0.732,-0.788 0.74,-0.781C0.747,-0.774 0.75,-0.766 0.75,-0.756C0.75,-0.746 0.747,-0.737 0.74,-0.731C0.732,-0.724 0.724,-0.72 0.715,-0.72L0.553,-0.72C0.556,-0.714 0.56,-0.708 0.563,-0.703C0.573,-0.686 0.583,-0.67 0.593,-0.655L0.715,-0.655C0.724,-0.655 0.732,-0.652 0.74,-0.645C0.747,-0.638 0.75,-0.629 0.75,-0.62C0.75,-0.61 0.747,-0.602 0.74,-0.595C0.732,-0.588 0.724,-0.584 0.715,-0.584L0.644,-0.584C0.682,-0.535 0.724,-0.492 0.771,-0.454C0.778,-0.447 0.783,-0.439 0.784,-0.43C0.785,-0.42 0.783,-0.411 0.776,-0.403C0.769,-0.396 0.761,-0.392 0.752,-0.391C0.743,-0.39 0.734,-0.392 0.726,-0.399C0.665,-0.45 0.61,-0.508 0.563,-0.574C0.516,-0.641 0.473,-0.715 0.434,-0.797C0.43,-0.806 0.43,-0.815 0.433,-0.824C0.436,-0.833 0.441,-0.839 0.45,-0.844C0.459,-0.849 0.468,-0.849 0.478,-0.846C0.487,-0.843 0.493,-0.836 0.497,-0.827C0.499,-0.823 0.501,-0.819 0.503,-0.815C0.507,-0.806 0.511,-0.798 0.515,-0.791ZM0.303,-0.734L0.114,-0.734C0.104,-0.734 0.095,-0.737 0.089,-0.745C0.082,-0.752 0.078,-0.76 0.078,-0.77C0.078,-0.78 0.082,-0.788 0.089,-0.795C0.095,-0.802 0.104,-0.805 0.114,-0.805L0.354,-0.805C0.364,-0.805 0.372,-0.802 0.379,-0.795C0.386,-0.788 0.389,-0.78 0.389,-0.77C0.389,-0.765 0.388,-0.761 0.387,-0.758C0.364,-0.682 0.329,-0.613 0.282,-0.552C0.235,-0.487 0.181,-0.435 0.118,-0.396C0.109,-0.391 0.1,-0.39 0.091,-0.392C0.082,-0.394 0.075,-0.399 0.07,-0.407C0.065,-0.416 0.063,-0.425 0.065,-0.434C0.067,-0.443 0.072,-0.451 0.081,-0.457C0.124,-0.484 0.164,-0.518 0.2,-0.56L0.104,-0.613C0.095,-0.618 0.09,-0.626 0.088,-0.635C0.085,-0.644 0.086,-0.653 0.091,-0.662C0.096,-0.671 0.102,-0.676 0.112,-0.679C0.121,-0.682 0.129,-0.681 0.138,-0.676L0.244,-0.618C0.268,-0.654 0.288,-0.693 0.303,-0.734ZM0.301,-0.306L0.425,-0.203L0.548,-0.305C0.505,-0.346 0.464,-0.367 0.424,-0.367C0.385,-0.367 0.344,-0.347 0.301,-0.306ZM0.529,-0.491L0.323,-0.491C0.314,-0.491 0.306,-0.494 0.299,-0.501C0.292,-0.508 0.288,-0.516 0.288,-0.526C0.288,-0.536 0.292,-0.545 0.299,-0.552C0.306,-0.559 0.314,-0.562 0.323,-0.562L0.529,-0.562C0.538,-0.562 0.547,-0.559 0.554,-0.552C0.561,-0.545 0.565,-0.536 0.565,-0.526C0.565,-0.516 0.561,-0.508 0.554,-0.501C0.547,-0.494 0.538,-0.491 0.529,-0.491Z" style="fill:white;fill-rule:nonzero;"/>
                </g>
                <g transform="matrix(113.914,0,0,113.914,2440.59,180.036)">
                    <path d="M0.663,-0.732L0.375,-0.732C0.365,-0.732 0.357,-0.735 0.35,-0.742C0.343,-0.749 0.34,-0.757 0.34,-0.767C0.34,-0.777 0.343,-0.786 0.35,-0.793C0.357,-0.8 0.365,-0.803 0.375,-0.803L0.699,-0.803C0.708,-0.803 0.716,-0.8 0.724,-0.793C0.731,-0.786 0.734,-0.777 0.734,-0.767L0.734,-0.485C0.734,-0.475 0.731,-0.467 0.724,-0.46C0.716,-0.452 0.708,-0.449 0.699,-0.449L0.431,-0.449L0.431,-0.105C0.431,-0.074 0.441,-0.049 0.462,-0.029C0.487,-0.006 0.519,0.006 0.559,0.009C0.599,0.011 0.634,0.003 0.665,-0.015C0.695,-0.035 0.713,-0.066 0.718,-0.109L0.728,-0.207C0.729,-0.217 0.734,-0.225 0.741,-0.231C0.748,-0.237 0.757,-0.24 0.767,-0.239C0.777,-0.238 0.785,-0.233 0.792,-0.226C0.798,-0.219 0.801,-0.21 0.8,-0.2L0.789,-0.099C0.78,-0.036 0.753,0.011 0.708,0.041C0.665,0.07 0.615,0.082 0.559,0.079C0.525,0.077 0.493,0.069 0.463,0.055C0.432,0.04 0.407,0.02 0.389,-0.007C0.37,-0.034 0.36,-0.066 0.36,-0.105L0.36,-0.481C0.36,-0.492 0.363,-0.501 0.37,-0.509C0.376,-0.516 0.385,-0.52 0.396,-0.52L0.663,-0.52L0.663,-0.732ZM0.25,-0.798L0.25,-0.683C0.25,-0.674 0.247,-0.666 0.24,-0.659C0.233,-0.652 0.224,-0.648 0.215,-0.648C0.205,-0.648 0.196,-0.652 0.189,-0.659C0.182,-0.666 0.178,-0.674 0.178,-0.683L0.178,-0.798C0.178,-0.807 0.182,-0.816 0.189,-0.823C0.196,-0.83 0.205,-0.833 0.215,-0.833C0.224,-0.833 0.233,-0.83 0.24,-0.823C0.247,-0.816 0.25,-0.807 0.25,-0.798ZM0.297,0.034C0.3,0.044 0.299,0.053 0.294,0.061C0.289,0.069 0.282,0.074 0.272,0.077C0.263,0.08 0.254,0.079 0.246,0.075C0.237,0.07 0.232,0.063 0.229,0.053C0.213,-0.001 0.202,-0.061 0.195,-0.128C0.188,-0.195 0.184,-0.269 0.184,-0.351L0.184,-0.483L0.101,-0.483C0.092,-0.483 0.083,-0.487 0.076,-0.494C0.069,-0.501 0.065,-0.509 0.065,-0.519C0.065,-0.529 0.069,-0.538 0.076,-0.545C0.083,-0.552 0.092,-0.555 0.101,-0.555L0.22,-0.555C0.23,-0.555 0.238,-0.552 0.245,-0.545C0.252,-0.538 0.255,-0.529 0.255,-0.519L0.255,-0.351C0.255,-0.27 0.258,-0.198 0.265,-0.135C0.272,-0.072 0.282,-0.016 0.297,0.034Z" style="fill:white;fill-rule:nonzero;"/>
                </g>
                <g transform="matrix(113.914,0,0,113.914,2537.42,180.036)">
                    <path d="M0.375,-0.541L0.182,-0.541C0.172,-0.541 0.164,-0.545 0.157,-0.552C0.15,-0.559 0.146,-0.567 0.146,-0.577C0.146,-0.587 0.15,-0.595 0.157,-0.602C0.164,-0.609 0.172,-0.612 0.182,-0.612L0.375,-0.612L0.375,-0.686L0.144,-0.686C0.135,-0.686 0.126,-0.69 0.119,-0.697C0.112,-0.704 0.108,-0.712 0.108,-0.722C0.108,-0.732 0.112,-0.74 0.119,-0.747C0.126,-0.754 0.135,-0.757 0.144,-0.757L0.375,-0.757L0.375,-0.813C0.375,-0.822 0.379,-0.831 0.386,-0.838C0.393,-0.845 0.402,-0.848 0.411,-0.848C0.42,-0.848 0.429,-0.845 0.436,-0.838C0.443,-0.831 0.447,-0.822 0.447,-0.813L0.447,-0.757L0.678,-0.757C0.688,-0.757 0.697,-0.754 0.704,-0.747C0.711,-0.74 0.715,-0.732 0.715,-0.722C0.715,-0.712 0.711,-0.704 0.704,-0.697C0.697,-0.69 0.688,-0.686 0.678,-0.686L0.447,-0.686L0.447,-0.612L0.641,-0.612C0.65,-0.612 0.659,-0.609 0.666,-0.602C0.673,-0.595 0.677,-0.587 0.677,-0.577C0.677,-0.567 0.673,-0.559 0.666,-0.552C0.659,-0.545 0.65,-0.541 0.641,-0.541L0.447,-0.541L0.447,-0.465L0.724,-0.465C0.734,-0.465 0.743,-0.461 0.75,-0.454C0.756,-0.447 0.76,-0.438 0.76,-0.428C0.76,-0.418 0.756,-0.41 0.75,-0.403C0.743,-0.396 0.734,-0.393 0.724,-0.393L0.476,-0.393C0.493,-0.34 0.514,-0.29 0.538,-0.244L0.677,-0.333C0.686,-0.338 0.695,-0.34 0.704,-0.338C0.713,-0.336 0.72,-0.331 0.725,-0.323C0.73,-0.314 0.732,-0.305 0.73,-0.296C0.728,-0.287 0.723,-0.279 0.715,-0.274L0.573,-0.182L0.578,-0.176C0.625,-0.103 0.682,-0.038 0.749,0.019C0.756,0.026 0.761,0.034 0.762,0.043C0.763,0.052 0.76,0.061 0.753,0.069C0.746,0.076 0.738,0.081 0.729,0.082C0.72,0.083 0.711,0.08 0.703,0.073C0.632,0.012 0.57,-0.058 0.518,-0.138C0.47,-0.211 0.431,-0.296 0.402,-0.393L0.384,-0.393C0.365,-0.358 0.345,-0.326 0.324,-0.296C0.324,-0.24 0.327,-0.183 0.332,-0.124C0.337,-0.064 0.348,-0.011 0.367,0.035C0.37,0.044 0.37,0.053 0.367,0.062C0.364,0.071 0.357,0.077 0.348,0.082C0.338,0.085 0.329,0.085 0.32,0.082C0.311,0.079 0.305,0.072 0.301,0.063C0.28,0.01 0.266,-0.05 0.26,-0.118C0.257,-0.149 0.255,-0.18 0.254,-0.211C0.207,-0.162 0.155,-0.118 0.098,-0.078C0.089,-0.073 0.081,-0.071 0.072,-0.073C0.063,-0.074 0.055,-0.079 0.049,-0.087C0.043,-0.096 0.041,-0.105 0.043,-0.114C0.045,-0.123 0.05,-0.131 0.057,-0.137C0.114,-0.176 0.166,-0.22 0.211,-0.27C0.227,-0.288 0.243,-0.307 0.258,-0.326C0.258,-0.327 0.258,-0.327 0.259,-0.328C0.259,-0.329 0.26,-0.331 0.261,-0.332C0.276,-0.351 0.289,-0.371 0.302,-0.393L0.098,-0.393C0.089,-0.393 0.081,-0.396 0.074,-0.403C0.067,-0.41 0.063,-0.418 0.063,-0.428C0.063,-0.438 0.067,-0.447 0.074,-0.454C0.081,-0.461 0.089,-0.465 0.098,-0.465L0.375,-0.465L0.375,-0.541Z" style="fill:white;fill-rule:nonzero;"/>
                </g>
            </g>
            <g transform="matrix(0.758634,0,0,0.648529,355.71,191.13)">
                <g transform="matrix(113.914,0,0,113.914,1762.81,180.036)">
                    <path d="M0.318,0.011C0.272,0.011 0.232,0.001 0.198,-0.018C0.163,-0.037 0.136,-0.064 0.117,-0.099C0.098,-0.134 0.088,-0.174 0.088,-0.22L0.088,-0.575L0.179,-0.575L0.179,-0.214C0.179,-0.168 0.191,-0.132 0.217,-0.104C0.243,-0.076 0.276,-0.062 0.318,-0.062C0.36,-0.062 0.393,-0.076 0.418,-0.104C0.444,-0.132 0.457,-0.168 0.457,-0.214L0.457,-0.407C0.457,-0.438 0.45,-0.462 0.436,-0.479C0.422,-0.496 0.402,-0.505 0.377,-0.505C0.366,-0.505 0.354,-0.503 0.342,-0.5C0.33,-0.496 0.318,-0.492 0.307,-0.486L0.292,-0.547C0.309,-0.557 0.327,-0.566 0.346,-0.572C0.366,-0.578 0.385,-0.581 0.403,-0.581C0.448,-0.581 0.483,-0.566 0.509,-0.536C0.535,-0.506 0.547,-0.465 0.547,-0.414L0.547,-0.22C0.547,-0.174 0.538,-0.134 0.519,-0.099C0.5,-0.064 0.473,-0.037 0.439,-0.018C0.404,0.001 0.364,0.011 0.318,0.011Z" style="fill:white;fill-rule:nonzero;"/>
                </g>
                <g transform="matrix(113.914,0,0,113.914,1833.06,180.036)">
                    <path d="M0.116,-0L0.116,-0.502L0.049,-0.502L0.049,-0.575L0.207,-0.575L0.207,-0L0.116,-0Z" style="fill:white;fill-rule:nonzero;"/>
                </g>
                <g transform="matrix(113.914,0,0,113.914,1866.65,180.036)">
                    <path d="M0.285,0.01C0.257,0.01 0.227,0.007 0.194,0.001C0.161,-0.004 0.128,-0.012 0.097,-0.023L0.115,-0.091C0.145,-0.082 0.174,-0.075 0.204,-0.071C0.233,-0.067 0.259,-0.064 0.281,-0.064C0.335,-0.065 0.376,-0.079 0.405,-0.105C0.434,-0.131 0.448,-0.169 0.448,-0.218L0.448,-0.502L0.218,-0.502C0.207,-0.485 0.199,-0.462 0.193,-0.434C0.186,-0.406 0.183,-0.379 0.183,-0.352L0.183,-0.308C0.191,-0.305 0.2,-0.303 0.212,-0.301C0.224,-0.3 0.24,-0.299 0.259,-0.299L0.259,-0.221C0.232,-0.221 0.209,-0.222 0.19,-0.224C0.172,-0.226 0.155,-0.229 0.14,-0.234C0.125,-0.239 0.11,-0.246 0.095,-0.254L0.093,-0.328C0.093,-0.361 0.097,-0.393 0.105,-0.425C0.114,-0.456 0.125,-0.482 0.139,-0.502L0.069,-0.502L0.069,-0.575L0.539,-0.575L0.539,-0.235C0.539,-0.18 0.528,-0.134 0.506,-0.097C0.484,-0.061 0.454,-0.034 0.416,-0.016C0.378,0.001 0.334,0.01 0.285,0.01Z" style="fill:white;fill-rule:nonzero;"/>
                </g>
                <g transform="matrix(113.914,0,0,113.914,1938.07,180.036)">
                    <path d="M0.326,0.011C0.278,0.011 0.236,-0 0.2,-0.022C0.163,-0.044 0.135,-0.075 0.115,-0.115C0.094,-0.154 0.084,-0.201 0.083,-0.253L0.083,-0.312C0.083,-0.337 0.087,-0.362 0.094,-0.387C0.101,-0.412 0.11,-0.434 0.123,-0.453C0.135,-0.473 0.149,-0.488 0.165,-0.499C0.166,-0.499 0.167,-0.5 0.168,-0.501C0.169,-0.502 0.17,-0.502 0.171,-0.502L0.171,-0.504C0.159,-0.503 0.143,-0.5 0.124,-0.495C0.105,-0.49 0.086,-0.485 0.068,-0.48L0.05,-0.548C0.076,-0.556 0.104,-0.562 0.134,-0.568C0.164,-0.574 0.195,-0.578 0.225,-0.581C0.256,-0.584 0.285,-0.586 0.312,-0.586C0.365,-0.586 0.411,-0.575 0.45,-0.554C0.488,-0.533 0.518,-0.503 0.538,-0.464C0.559,-0.425 0.569,-0.378 0.569,-0.322L0.569,-0.253C0.569,-0.201 0.559,-0.154 0.539,-0.115C0.519,-0.075 0.491,-0.044 0.454,-0.022C0.418,-0 0.375,0.011 0.326,0.011ZM0.326,-0.066C0.357,-0.066 0.384,-0.074 0.406,-0.089C0.429,-0.105 0.447,-0.127 0.46,-0.155C0.473,-0.183 0.479,-0.215 0.479,-0.253L0.479,-0.321C0.479,-0.36 0.473,-0.394 0.46,-0.422C0.447,-0.45 0.429,-0.472 0.405,-0.487C0.382,-0.502 0.353,-0.51 0.321,-0.51C0.292,-0.51 0.266,-0.502 0.244,-0.487C0.223,-0.471 0.206,-0.449 0.194,-0.42C0.181,-0.391 0.175,-0.357 0.174,-0.317L0.174,-0.253C0.174,-0.215 0.18,-0.183 0.193,-0.155C0.206,-0.127 0.223,-0.105 0.246,-0.089C0.269,-0.074 0.296,-0.066 0.326,-0.066Z" style="fill:white;fill-rule:nonzero;"/>
                </g>
                <g transform="matrix(113.914,0,0,113.914,2038.91,180.036)">
                    <path d="M0.423,-0L0.423,-0.361C0.423,-0.411 0.412,-0.447 0.389,-0.469C0.367,-0.491 0.331,-0.502 0.281,-0.502L0.072,-0.502L0.072,-0.575L0.285,-0.575C0.36,-0.575 0.417,-0.557 0.456,-0.521C0.494,-0.484 0.514,-0.43 0.514,-0.358L0.514,-0L0.423,-0ZM0.073,-0L0.073,-0.196C0.073,-0.23 0.076,-0.255 0.082,-0.273C0.087,-0.291 0.093,-0.306 0.099,-0.318L0.173,-0.318C0.169,-0.303 0.166,-0.287 0.164,-0.269C0.162,-0.251 0.161,-0.229 0.161,-0.202L0.161,-0L0.073,-0Z" style="fill:white;fill-rule:nonzero;"/>
                </g>
                <g transform="matrix(113.914,0,0,113.914,2105.88,180.036)">
                    <path d="M0.326,-0L0.326,-0.401C0.326,-0.433 0.316,-0.457 0.298,-0.475C0.28,-0.493 0.255,-0.502 0.223,-0.502L0.029,-0.502L0.029,-0.575L0.226,-0.575C0.285,-0.575 0.332,-0.559 0.365,-0.528C0.399,-0.496 0.416,-0.451 0.416,-0.395L0.416,-0L0.326,-0Z" style="fill:white;fill-rule:nonzero;"/>
                </g>
                <g transform="matrix(113.914,0,0,113.914,2161.78,180.036)">
                    <path d="M0.176,-0.575L0.176,-0.102C0.207,-0.089 0.24,-0.079 0.274,-0.071C0.309,-0.063 0.342,-0.06 0.374,-0.06C0.419,-0.06 0.461,-0.066 0.498,-0.079C0.534,-0.093 0.564,-0.113 0.585,-0.14C0.607,-0.167 0.618,-0.201 0.618,-0.243L0.618,-0.575L0.706,-0.575L0.706,-0.235C0.706,-0.193 0.697,-0.156 0.68,-0.125C0.662,-0.094 0.639,-0.068 0.608,-0.048C0.578,-0.027 0.543,-0.012 0.504,-0.001C0.465,0.009 0.423,0.014 0.378,0.014C0.331,0.014 0.283,0.008 0.232,-0.003C0.182,-0.014 0.134,-0.031 0.088,-0.053L0.088,-0.575L0.176,-0.575ZM0.314,-0.159C0.327,-0.172 0.336,-0.189 0.342,-0.212C0.348,-0.234 0.351,-0.26 0.351,-0.289L0.351,-0.575L0.439,-0.575L0.439,-0.305C0.439,-0.272 0.435,-0.243 0.427,-0.219C0.42,-0.194 0.407,-0.173 0.39,-0.156L0.314,-0.159Z" style="fill:white;fill-rule:nonzero;"/>
                </g>
                <g transform="matrix(113.914,0,0,113.914,2252.23,180.036)">
                    <path d="M0.083,-0L0.127,-0.366C0.131,-0.393 0.139,-0.418 0.15,-0.441C0.162,-0.465 0.176,-0.483 0.192,-0.496C0.194,-0.497 0.2,-0.501 0.202,-0.502L0.201,-0.504C0.186,-0.502 0.168,-0.498 0.146,-0.492C0.124,-0.486 0.104,-0.48 0.085,-0.474L0.064,-0.542C0.09,-0.551 0.117,-0.558 0.146,-0.565C0.176,-0.571 0.206,-0.577 0.236,-0.58C0.266,-0.584 0.294,-0.586 0.321,-0.586C0.398,-0.586 0.457,-0.565 0.498,-0.524C0.539,-0.483 0.56,-0.423 0.56,-0.343L0.56,-0L0.323,-0L0.323,-0.073L0.47,-0.073L0.47,-0.353C0.47,-0.404 0.458,-0.443 0.435,-0.47C0.412,-0.497 0.378,-0.51 0.334,-0.51C0.303,-0.51 0.277,-0.498 0.255,-0.473C0.234,-0.449 0.221,-0.416 0.216,-0.375L0.173,-0L0.083,-0Z" style="fill:white;fill-rule:nonzero;"/>
                </g>
                <g transform="matrix(113.914,0,0,113.914,2324.48,180.036)">
                    <path d="M0.423,-0L0.423,-0.361C0.423,-0.411 0.412,-0.447 0.389,-0.469C0.367,-0.491 0.331,-0.502 0.281,-0.502L0.072,-0.502L0.072,-0.575L0.285,-0.575C0.36,-0.575 0.417,-0.557 0.456,-0.521C0.494,-0.484 0.514,-0.43 0.514,-0.358L0.514,-0L0.423,-0ZM0.073,-0L0.073,-0.196C0.073,-0.23 0.076,-0.255 0.082,-0.273C0.087,-0.291 0.093,-0.306 0.099,-0.318L0.173,-0.318C0.169,-0.303 0.166,-0.287 0.164,-0.269C0.162,-0.251 0.161,-0.229 0.161,-0.202L0.161,-0L0.073,-0Z" style="fill:white;fill-rule:nonzero;"/>
                </g>
                <g transform="matrix(113.914,0,0,113.914,2419.7,180.036)">
                    <path d="M0.041,-0.502L0.041,-0.75L0.131,-0.75L0.131,-0.575L0.443,-0.575L0.443,-0.502L0.041,-0.502ZM0.478,-0.518L0.267,-0L0.169,-0L0.408,-0.575L0.478,-0.575L0.478,-0.518Z" style="fill:white;fill-rule:nonzero;"/>
                </g>
                <g transform="matrix(113.914,0,0,113.914,2478.22,180.036)">
                    <path d="M0.123,0.01C0.106,0.01 0.09,0.009 0.075,0.007C0.06,0.005 0.045,0.002 0.029,-0.001L0.032,-0.072C0.053,-0.068 0.077,-0.065 0.103,-0.065C0.129,-0.065 0.149,-0.073 0.163,-0.088C0.176,-0.103 0.183,-0.127 0.183,-0.159L0.183,-0.502L0.07,-0.502L0.07,-0.575L0.274,-0.575L0.274,-0.152C0.274,-0.099 0.261,-0.059 0.235,-0.031C0.208,-0.004 0.171,0.01 0.123,0.01Z" style="fill:white;fill-rule:nonzero;"/>
                </g>
                <g transform="matrix(113.914,0,0,113.914,2519.49,180.036)">
                    <path d="M0.234,0.012C0.204,0.012 0.172,0.009 0.138,0.003C0.104,-0.004 0.068,-0.014 0.03,-0.028L0.052,-0.096C0.084,-0.083 0.115,-0.074 0.144,-0.067C0.172,-0.061 0.199,-0.058 0.223,-0.058C0.276,-0.058 0.319,-0.072 0.351,-0.101C0.384,-0.13 0.4,-0.172 0.4,-0.227L0.4,-0.575L0.49,-0.575L0.49,-0.23C0.49,-0.178 0.479,-0.133 0.458,-0.097C0.436,-0.061 0.406,-0.034 0.368,-0.016C0.329,0.003 0.285,0.012 0.234,0.012ZM0.061,-0.575L0.152,-0.575L0.245,-0.151C0.25,-0.126 0.256,-0.106 0.263,-0.089C0.269,-0.072 0.278,-0.056 0.29,-0.042L0.218,-0.043C0.205,-0.057 0.192,-0.073 0.181,-0.091C0.17,-0.109 0.162,-0.13 0.156,-0.156L0.061,-0.575Z" style="fill:white;fill-rule:nonzero;"/>
                </g>
                <g transform="matrix(113.914,0,0,113.914,2585.4,180.036)">
                    <path d="M0.326,-0L0.326,-0.401C0.326,-0.433 0.316,-0.457 0.298,-0.475C0.28,-0.493 0.255,-0.502 0.223,-0.502L0.029,-0.502L0.029,-0.575L0.226,-0.575C0.285,-0.575 0.332,-0.559 0.365,-0.528C0.399,-0.496 0.416,-0.451 0.416,-0.395L0.416,-0L0.326,-0Z" style="fill:white;fill-rule:nonzero;"/>
                </g>
                <g transform="matrix(113.914,0,0,113.914,2641.3,180.036)">
                    <path d="M0.423,-0L0.423,-0.361C0.423,-0.411 0.412,-0.447 0.389,-0.469C0.367,-0.491 0.331,-0.502 0.281,-0.502L0.072,-0.502L0.072,-0.575L0.285,-0.575C0.36,-0.575 0.417,-0.557 0.456,-0.521C0.494,-0.484 0.514,-0.43 0.514,-0.358L0.514,-0L0.423,-0ZM0.073,-0L0.073,-0.196C0.073,-0.23 0.076,-0.255 0.082,-0.273C0.087,-0.291 0.093,-0.306 0.099,-0.318L0.173,-0.318C0.169,-0.303 0.166,-0.287 0.164,-0.269C0.162,-0.251 0.161,-0.229 0.161,-0.202L0.161,-0L0.073,-0Z" style="fill:white;fill-rule:nonzero;"/>
                </g>
                <g transform="matrix(113.914,0,0,113.914,2736.53,180.036)">
                    <path d="M0.282,-0L0.282,-0.071C0.33,-0.073 0.369,-0.088 0.398,-0.117C0.428,-0.145 0.442,-0.185 0.442,-0.235L0.442,-0.502L0.087,-0.502L0.087,-0.575L0.533,-0.575L0.533,-0.237C0.533,-0.189 0.523,-0.147 0.502,-0.112C0.481,-0.077 0.452,-0.05 0.414,-0.031C0.376,-0.011 0.332,-0.001 0.282,-0ZM0.099,0.203L0.099,-0.216C0.099,-0.249 0.101,-0.274 0.107,-0.292C0.112,-0.309 0.118,-0.324 0.124,-0.336L0.198,-0.336C0.194,-0.322 0.191,-0.306 0.189,-0.288C0.187,-0.27 0.187,-0.248 0.187,-0.221L0.187,0.203L0.099,0.203Z" style="fill:white;fill-rule:nonzero;"/>
                </g>
                <g transform="matrix(113.914,0,0,113.914,2807.33,180.036)">
                    <path d="M0.326,0.011C0.278,0.011 0.236,-0 0.2,-0.022C0.163,-0.044 0.135,-0.075 0.115,-0.115C0.094,-0.154 0.084,-0.201 0.083,-0.253L0.083,-0.312C0.083,-0.337 0.087,-0.362 0.094,-0.387C0.101,-0.412 0.11,-0.434 0.123,-0.453C0.135,-0.473 0.149,-0.488 0.165,-0.499C0.166,-0.499 0.167,-0.5 0.168,-0.501C0.169,-0.502 0.17,-0.502 0.171,-0.502L0.171,-0.504C0.159,-0.503 0.143,-0.5 0.124,-0.495C0.105,-0.49 0.086,-0.485 0.068,-0.48L0.05,-0.548C0.076,-0.556 0.104,-0.562 0.134,-0.568C0.164,-0.574 0.195,-0.578 0.225,-0.581C0.256,-0.584 0.285,-0.586 0.312,-0.586C0.365,-0.586 0.411,-0.575 0.45,-0.554C0.488,-0.533 0.518,-0.503 0.538,-0.464C0.559,-0.425 0.569,-0.378 0.569,-0.322L0.569,-0.253C0.569,-0.201 0.559,-0.154 0.539,-0.115C0.519,-0.075 0.491,-0.044 0.454,-0.022C0.418,-0 0.375,0.011 0.326,0.011ZM0.326,-0.066C0.357,-0.066 0.384,-0.074 0.406,-0.089C0.429,-0.105 0.447,-0.127 0.46,-0.155C0.473,-0.183 0.479,-0.215 0.479,-0.253L0.479,-0.321C0.479,-0.36 0.473,-0.394 0.46,-0.422C0.447,-0.45 0.429,-0.472 0.405,-0.487C0.382,-0.502 0.353,-0.51 0.321,-0.51C0.292,-0.51 0.266,-0.502 0.244,-0.487C0.223,-0.471 0.206,-0.449 0.194,-0.42C0.181,-0.391 0.175,-0.357 0.174,-0.317L0.174,-0.253C0.174,-0.215 0.18,-0.183 0.193,-0.155C0.206,-0.127 0.223,-0.105 0.246,-0.089C0.269,-0.074 0.296,-0.066 0.326,-0.066Z" style="fill:white;fill-rule:nonzero;"/>
                </g>
                <g transform="matrix(113.914,0,0,113.914,2879.92,180.036)">
                    <path d="M0.116,-0L0.116,-0.502L0.049,-0.502L0.049,-0.575L0.207,-0.575L0.207,-0L0.116,-0Z" style="fill:white;fill-rule:nonzero;"/>
                </g>
                <g transform="matrix(113.914,0,0,113.914,2913.52,180.036)">
                    <path d="M0.083,-0L0.127,-0.366C0.131,-0.393 0.139,-0.418 0.15,-0.441C0.162,-0.465 0.176,-0.483 0.192,-0.496C0.194,-0.497 0.2,-0.501 0.202,-0.502L0.201,-0.504C0.186,-0.502 0.168,-0.498 0.146,-0.492C0.124,-0.486 0.104,-0.48 0.085,-0.474L0.064,-0.542C0.09,-0.551 0.117,-0.558 0.146,-0.565C0.176,-0.571 0.206,-0.577 0.236,-0.58C0.266,-0.584 0.294,-0.586 0.321,-0.586C0.398,-0.586 0.457,-0.565 0.498,-0.524C0.539,-0.483 0.56,-0.423 0.56,-0.343L0.56,-0L0.323,-0L0.323,-0.073L0.47,-0.073L0.47,-0.353C0.47,-0.404 0.458,-0.443 0.435,-0.47C0.412,-0.497 0.378,-0.51 0.334,-0.51C0.303,-0.51 0.277,-0.498 0.255,-0.473C0.234,-0.449 0.221,-0.416 0.216,-0.375L0.173,-0L0.083,-0Z" style="fill:white;fill-rule:nonzero;"/>
                </g>
                <g transform="matrix(113.914,0,0,113.914,2985.77,180.036)">
                    <path d="M0.423,-0L0.423,-0.361C0.423,-0.411 0.412,-0.447 0.389,-0.469C0.367,-0.491 0.331,-0.502 0.281,-0.502L0.072,-0.502L0.072,-0.575L0.285,-0.575C0.36,-0.575 0.417,-0.557 0.456,-0.521C0.494,-0.484 0.514,-0.43 0.514,-0.358L0.514,-0L0.423,-0ZM0.073,-0L0.073,-0.196C0.073,-0.23 0.076,-0.255 0.082,-0.273C0.087,-0.291 0.093,-0.306 0.099,-0.318L0.173,-0.318C0.169,-0.303 0.166,-0.287 0.164,-0.269C0.162,-0.251 0.161,-0.229 0.161,-0.202L0.161,-0L0.073,-0Z" style="fill:white;fill-rule:nonzero;"/>
                </g>
                <g transform="matrix(113.914,0,0,113.914,3080.99,180.036)">
                    <path d="M0.491,-0L0.074,-0.575L0.176,-0.575L0.592,-0L0.491,-0ZM0.095,-0L0.095,-0.208C0.095,-0.262 0.105,-0.306 0.125,-0.338C0.144,-0.371 0.175,-0.395 0.217,-0.411L0.253,-0.364C0.206,-0.343 0.183,-0.302 0.183,-0.241L0.183,-0L0.095,-0ZM0.595,-0.575L0.396,-0.228L0.336,-0.298L0.493,-0.575L0.595,-0.575Z" style="fill:white;fill-rule:nonzero;"/>
                </g>
                <g transform="matrix(113.914,0,0,113.914,3154.08,180.036)">
                    <path d="M0.282,-0L0.282,-0.071C0.33,-0.073 0.369,-0.088 0.398,-0.117C0.428,-0.145 0.442,-0.185 0.442,-0.235L0.442,-0.502L0.087,-0.502L0.087,-0.575L0.533,-0.575L0.533,-0.237C0.533,-0.189 0.523,-0.147 0.502,-0.112C0.481,-0.077 0.452,-0.05 0.414,-0.031C0.376,-0.011 0.332,-0.001 0.282,-0ZM0.099,0.203L0.099,-0.216C0.099,-0.249 0.101,-0.274 0.107,-0.292C0.112,-0.309 0.118,-0.324 0.124,-0.336L0.198,-0.336C0.194,-0.322 0.191,-0.306 0.189,-0.288C0.187,-0.27 0.187,-0.248 0.187,-0.221L0.187,0.203L0.099,0.203Z" style="fill:white;fill-rule:nonzero;"/>
                </g>
                <g transform="matrix(113.914,0,0,113.914,3224.89,180.036)">
                    <path d="M0.318,0.011C0.272,0.011 0.232,0.001 0.198,-0.018C0.163,-0.037 0.136,-0.064 0.117,-0.099C0.098,-0.134 0.088,-0.174 0.088,-0.22L0.088,-0.575L0.179,-0.575L0.179,-0.214C0.179,-0.168 0.191,-0.132 0.217,-0.104C0.243,-0.076 0.276,-0.062 0.318,-0.062C0.36,-0.062 0.393,-0.076 0.418,-0.104C0.444,-0.132 0.457,-0.168 0.457,-0.214L0.457,-0.407C0.457,-0.438 0.45,-0.462 0.436,-0.479C0.422,-0.496 0.402,-0.505 0.377,-0.505C0.366,-0.505 0.354,-0.503 0.342,-0.5C0.33,-0.496 0.318,-0.492 0.307,-0.486L0.292,-0.547C0.309,-0.557 0.327,-0.566 0.346,-0.572C0.366,-0.578 0.385,-0.581 0.403,-0.581C0.448,-0.581 0.483,-0.566 0.509,-0.536C0.535,-0.506 0.547,-0.465 0.547,-0.414L0.547,-0.22C0.547,-0.174 0.538,-0.134 0.519,-0.099C0.5,-0.064 0.473,-0.037 0.439,-0.018C0.404,0.001 0.364,0.011 0.318,0.011Z" style="fill:white;fill-rule:nonzero;"/>
                </g>
                <g transform="matrix(113.914,0,0,113.914,3295.14,180.036)">
                    <path d="M0.132,-0.254L0.132,-0.502L0.027,-0.502L0.027,-0.575L0.223,-0.575L0.223,-0.254L0.132,-0.254Z" style="fill:white;fill-rule:nonzero;"/>
                </g>
                <g transform="matrix(113.914,0,0,113.914,3329.51,180.036)">
                    <path d="M0.03,-0L0.03,-0.073L0.342,-0.073L0.433,-0.077L0.502,-0.069L0.502,-0L0.03,-0ZM0.342,-0.021L0.342,-0.361C0.342,-0.411 0.331,-0.447 0.309,-0.469C0.287,-0.491 0.25,-0.502 0.2,-0.502L0.061,-0.502L0.061,-0.575L0.205,-0.575C0.28,-0.575 0.337,-0.557 0.375,-0.521C0.413,-0.484 0.433,-0.43 0.433,-0.358L0.433,-0.021L0.342,-0.021Z" style="fill:white;fill-rule:nonzero;"/>
                </g>
                <g transform="matrix(113.914,0,0,113.914,3389.53,180.036)">
                    <path d="M0.132,-0.254L0.132,-0.502L0.027,-0.502L0.027,-0.575L0.223,-0.575L0.223,-0.254L0.132,-0.254Z" style="fill:white;fill-rule:nonzero;"/>
                </g>
                <g transform="matrix(113.914,0,0,113.914,3423.9,180.036)">
                    <path d="M0.323,-0.575C0.399,-0.575 0.456,-0.557 0.494,-0.521C0.531,-0.484 0.55,-0.429 0.55,-0.355L0.55,-0L0.46,-0L0.459,-0.36C0.459,-0.41 0.449,-0.446 0.427,-0.469C0.406,-0.491 0.372,-0.502 0.324,-0.502L0.243,-0.502C0.232,-0.485 0.223,-0.462 0.217,-0.435C0.211,-0.407 0.208,-0.379 0.208,-0.35L0.208,-0.156C0.208,-0.103 0.195,-0.063 0.17,-0.036C0.144,-0.009 0.108,0.005 0.061,0.005C0.051,0.005 0.041,0.004 0.032,0.004C0.024,0.003 0.014,0.002 0.004,0L0.004,-0.072C0.01,-0.072 0.016,-0.071 0.022,-0.071C0.027,-0.07 0.033,-0.07 0.038,-0.07C0.067,-0.07 0.087,-0.078 0.1,-0.092C0.113,-0.107 0.119,-0.13 0.119,-0.162L0.119,-0.343C0.119,-0.372 0.123,-0.402 0.131,-0.431C0.138,-0.461 0.149,-0.485 0.163,-0.502L0.055,-0.502L0.055,-0.575L0.323,-0.575Z" style="fill:white;fill-rule:nonzero;"/>
                </g>
            </g>
        </g>
    </g>
</svg>
