<?xml version="1.0" encoding="UTF-8" standalone="no"?>
<!DOCTYPE svg PUBLIC "-//W3C//DTD SVG 1.1//EN" "http://www.w3.org/Graphics/SVG/1.1/DTD/svg11.dtd">
<svg width="100%" height="100%" viewBox="0 0 300 70" version="1.1" xmlns="http://www.w3.org/2000/svg" xmlns:xlink="http://www.w3.org/1999/xlink" xml:space="preserve" xmlns:serif="http://www.serif.com/" style="fill-rule:evenodd;clip-rule:evenodd;stroke-linejoin:round;stroke-miterlimit:2;">
    <g transform="matrix(1,0,0,1,-1954.39,-364.074)">
        <g id="图层1">
        </g>
        <g id="Artboard2" transform="matrix(0.20629,0,0,0.255517,1619.46,344.937)">
            <rect x="1623.58" y="74.895" width="1454.26" height="273.954" style="fill:none;"/>
            <g transform="matrix(1.63947,0,0,1.40152,-1138.84,-34.967)">
                <g transform="matrix(113.914,0,0,113.914,1762.81,180.036)">
                    <path d="M0.33,-0.297C0.327,-0.297 0.326,-0.301 0.326,-0.308C0.326,-0.311 0.326,-0.317 0.327,-0.325C0.328,-0.333 0.33,-0.344 0.333,-0.357C0.336,-0.37 0.34,-0.381 0.343,-0.389C0.346,-0.393 0.348,-0.398 0.351,-0.404C0.353,-0.409 0.355,-0.414 0.357,-0.419C0.359,-0.423 0.361,-0.427 0.362,-0.432C0.325,-0.416 0.302,-0.408 0.293,-0.408C0.29,-0.408 0.289,-0.408 0.289,-0.409C0.288,-0.41 0.288,-0.41 0.287,-0.41C0.286,-0.41 0.285,-0.408 0.285,-0.405C0.285,-0.402 0.273,-0.4 0.249,-0.4C0.21,-0.4 0.191,-0.403 0.191,-0.408C0.191,-0.413 0.195,-0.416 0.204,-0.419C0.212,-0.42 0.219,-0.424 0.226,-0.431C0.232,-0.438 0.244,-0.445 0.263,-0.453C0.282,-0.46 0.299,-0.465 0.315,-0.468C0.358,-0.474 0.379,-0.485 0.379,-0.501C0.379,-0.51 0.38,-0.515 0.383,-0.515C0.385,-0.515 0.387,-0.517 0.39,-0.521L0.408,-0.555C0.411,-0.561 0.414,-0.566 0.417,-0.569C0.421,-0.576 0.426,-0.58 0.431,-0.58C0.436,-0.58 0.44,-0.579 0.442,-0.577C0.443,-0.574 0.444,-0.572 0.444,-0.57C0.444,-0.567 0.442,-0.565 0.437,-0.565C0.432,-0.565 0.429,-0.557 0.426,-0.542C0.425,-0.535 0.424,-0.528 0.423,-0.521L0.418,-0.494C0.418,-0.491 0.42,-0.49 0.425,-0.49L0.465,-0.496L0.481,-0.499C0.49,-0.5 0.501,-0.502 0.515,-0.503C0.529,-0.504 0.543,-0.506 0.557,-0.507C0.571,-0.507 0.581,-0.508 0.588,-0.508L0.595,-0.508C0.595,-0.507 0.592,-0.505 0.585,-0.502C0.576,-0.497 0.556,-0.492 0.524,-0.487C0.506,-0.485 0.489,-0.482 0.473,-0.478C0.469,-0.475 0.466,-0.474 0.464,-0.474C0.461,-0.473 0.458,-0.472 0.455,-0.471C0.452,-0.47 0.448,-0.468 0.443,-0.466C0.432,-0.461 0.421,-0.457 0.412,-0.454C0.402,-0.45 0.387,-0.428 0.368,-0.389C0.35,-0.353 0.339,-0.327 0.336,-0.312C0.335,-0.302 0.333,-0.297 0.33,-0.297ZM0.476,-0.321C0.472,-0.321 0.47,-0.322 0.47,-0.324L0.472,-0.328C0.476,-0.332 0.478,-0.335 0.478,-0.338C0.478,-0.341 0.474,-0.344 0.465,-0.348C0.456,-0.352 0.448,-0.358 0.441,-0.367C0.43,-0.38 0.424,-0.392 0.424,-0.403C0.424,-0.411 0.427,-0.415 0.434,-0.415C0.441,-0.415 0.452,-0.411 0.465,-0.402C0.478,-0.393 0.487,-0.385 0.493,-0.378C0.498,-0.371 0.502,-0.363 0.504,-0.352L0.505,-0.342C0.505,-0.337 0.502,-0.333 0.496,-0.328C0.489,-0.323 0.483,-0.321 0.476,-0.321ZM0.052,-0.054C0.049,-0.054 0.044,-0.055 0.039,-0.058C0.033,-0.061 0.027,-0.065 0.023,-0.072C0.017,-0.079 0.015,-0.085 0.015,-0.091C0.015,-0.102 0.02,-0.109 0.03,-0.11C0.039,-0.111 0.05,-0.112 0.061,-0.115C0.088,-0.12 0.102,-0.124 0.102,-0.127C0.102,-0.129 0.104,-0.131 0.108,-0.133C0.111,-0.134 0.115,-0.135 0.12,-0.136L0.156,-0.147L0.16,-0.149L0.226,-0.172C0.232,-0.175 0.236,-0.177 0.239,-0.179C0.241,-0.18 0.253,-0.183 0.276,-0.188C0.293,-0.191 0.306,-0.195 0.315,-0.198C0.326,-0.206 0.358,-0.217 0.412,-0.231C0.439,-0.237 0.454,-0.241 0.455,-0.245C0.456,-0.247 0.462,-0.249 0.471,-0.249C0.476,-0.249 0.491,-0.253 0.516,-0.26C0.534,-0.266 0.551,-0.271 0.566,-0.274C0.581,-0.277 0.605,-0.281 0.637,-0.286C0.676,-0.291 0.702,-0.295 0.715,-0.298C0.728,-0.301 0.749,-0.303 0.778,-0.303C0.802,-0.303 0.815,-0.302 0.817,-0.299C0.818,-0.296 0.819,-0.293 0.819,-0.289C0.819,-0.281 0.815,-0.274 0.807,-0.267C0.798,-0.26 0.788,-0.255 0.775,-0.252L0.758,-0.248L0.779,-0.264C0.792,-0.274 0.798,-0.281 0.798,-0.285C0.798,-0.287 0.796,-0.288 0.792,-0.288C0.781,-0.288 0.756,-0.282 0.719,-0.269C0.681,-0.256 0.659,-0.247 0.652,-0.244C0.645,-0.24 0.633,-0.235 0.616,-0.23C0.565,-0.213 0.536,-0.205 0.527,-0.204C0.518,-0.203 0.512,-0.2 0.509,-0.197C0.505,-0.193 0.5,-0.191 0.494,-0.191L0.491,-0.191C0.484,-0.191 0.479,-0.19 0.478,-0.187C0.476,-0.184 0.47,-0.182 0.46,-0.182C0.45,-0.181 0.445,-0.179 0.445,-0.178C0.445,-0.176 0.444,-0.175 0.441,-0.174C0.438,-0.173 0.434,-0.172 0.43,-0.172C0.419,-0.172 0.413,-0.171 0.41,-0.168C0.407,-0.165 0.4,-0.162 0.389,-0.16C0.382,-0.159 0.376,-0.157 0.37,-0.154C0.367,-0.151 0.361,-0.15 0.352,-0.15C0.346,-0.15 0.337,-0.149 0.326,-0.146C0.314,-0.142 0.303,-0.139 0.294,-0.135C0.284,-0.131 0.279,-0.128 0.279,-0.127C0.279,-0.126 0.278,-0.125 0.275,-0.124C0.272,-0.123 0.267,-0.122 0.262,-0.122C0.256,-0.122 0.245,-0.12 0.229,-0.116C0.189,-0.105 0.162,-0.095 0.149,-0.086C0.136,-0.08 0.126,-0.076 0.119,-0.075C0.108,-0.074 0.096,-0.07 0.085,-0.063C0.077,-0.06 0.072,-0.058 0.07,-0.058C0.069,-0.058 0.069,-0.058 0.069,-0.059C0.069,-0.06 0.069,-0.06 0.068,-0.06C0.067,-0.06 0.066,-0.059 0.063,-0.057C0.059,-0.055 0.056,-0.054 0.052,-0.054ZM0.543,0.183C0.53,0.183 0.524,0.179 0.524,0.17C0.524,0.167 0.525,0.165 0.526,0.162C0.527,0.159 0.528,0.157 0.53,0.157C0.532,0.157 0.535,0.158 0.538,0.161C0.541,0.164 0.543,0.165 0.546,0.165C0.547,0.165 0.548,0.165 0.55,0.164C0.551,0.163 0.553,0.158 0.554,0.148C0.555,0.138 0.556,0.122 0.556,0.099L0.555,-0.032C0.555,-0.109 0.557,-0.15 0.56,-0.157C0.565,-0.166 0.569,-0.171 0.573,-0.171C0.588,-0.171 0.596,-0.111 0.597,0.008C0.597,0.066 0.596,0.102 0.594,0.116C0.588,0.161 0.571,0.183 0.543,0.183ZM0.334,0.108C0.318,0.108 0.302,0.101 0.287,0.086C0.279,0.079 0.274,0.072 0.271,0.065C0.266,0.055 0.264,0.041 0.264,0.022C0.264,-0.009 0.271,-0.036 0.286,-0.061C0.301,-0.085 0.321,-0.099 0.346,-0.102C0.353,-0.102 0.359,-0.102 0.365,-0.103C0.37,-0.104 0.374,-0.104 0.377,-0.104C0.388,-0.104 0.4,-0.097 0.415,-0.084C0.438,-0.063 0.449,-0.038 0.449,-0.01C0.449,0.03 0.422,0.066 0.369,0.097C0.358,0.104 0.346,0.108 0.334,0.108ZM0.33,0.052C0.357,0.052 0.377,0.045 0.388,0.032C0.395,0.024 0.4,0.011 0.403,-0.007L0.404,-0.02C0.404,-0.038 0.395,-0.051 0.378,-0.059C0.372,-0.062 0.367,-0.064 0.363,-0.064C0.355,-0.064 0.351,-0.057 0.351,-0.043C0.351,-0.038 0.349,-0.035 0.346,-0.035L0.345,-0.035C0.34,-0.036 0.337,-0.045 0.337,-0.06C0.337,-0.075 0.336,-0.083 0.333,-0.083C0.33,-0.083 0.328,-0.077 0.325,-0.064C0.322,-0.05 0.319,-0.035 0.317,-0.019C0.314,-0.001 0.313,0.014 0.313,0.028C0.313,0.041 0.314,0.049 0.317,0.052L0.33,0.052Z" style="fill:white;fill-rule:nonzero;"/>
                </g>
                <g transform="matrix(113.914,0,0,113.914,1857.81,180.036)">
                    <path d="M0.169,-0.158C0.156,-0.158 0.149,-0.162 0.149,-0.17C0.149,-0.173 0.151,-0.179 0.154,-0.188C0.157,-0.197 0.171,-0.21 0.195,-0.228L0.229,-0.253L0.221,-0.275C0.216,-0.286 0.214,-0.304 0.214,-0.327L0.215,-0.342C0.215,-0.351 0.214,-0.355 0.211,-0.355C0.21,-0.355 0.209,-0.355 0.208,-0.354C0.199,-0.35 0.183,-0.346 0.158,-0.341C0.143,-0.337 0.133,-0.333 0.128,-0.33C0.117,-0.326 0.099,-0.324 0.073,-0.324C0.052,-0.324 0.038,-0.325 0.032,-0.328C0.021,-0.335 0.015,-0.344 0.015,-0.356C0.015,-0.373 0.029,-0.384 0.057,-0.388C0.074,-0.391 0.104,-0.392 0.146,-0.393C0.167,-0.394 0.184,-0.395 0.199,-0.396C0.214,-0.397 0.222,-0.397 0.223,-0.398C0.226,-0.404 0.229,-0.416 0.233,-0.433C0.239,-0.46 0.245,-0.483 0.252,-0.503C0.258,-0.522 0.263,-0.534 0.267,-0.539C0.269,-0.541 0.271,-0.544 0.272,-0.547C0.273,-0.55 0.274,-0.552 0.274,-0.555C0.274,-0.557 0.275,-0.56 0.276,-0.564C0.281,-0.577 0.285,-0.583 0.287,-0.583C0.288,-0.583 0.291,-0.58 0.295,-0.576C0.298,-0.571 0.3,-0.565 0.3,-0.559C0.3,-0.558 0.3,-0.556 0.299,-0.553C0.298,-0.55 0.296,-0.545 0.295,-0.536C0.293,-0.527 0.292,-0.518 0.291,-0.509C0.29,-0.5 0.288,-0.488 0.286,-0.475C0.283,-0.462 0.281,-0.45 0.28,-0.439C0.278,-0.428 0.276,-0.419 0.275,-0.411L0.275,-0.398C0.283,-0.398 0.292,-0.399 0.303,-0.401C0.323,-0.405 0.343,-0.407 0.364,-0.407C0.374,-0.407 0.384,-0.408 0.394,-0.409C0.404,-0.41 0.411,-0.411 0.415,-0.412C0.419,-0.413 0.422,-0.414 0.425,-0.415C0.428,-0.415 0.429,-0.414 0.429,-0.413C0.429,-0.404 0.405,-0.397 0.357,-0.39C0.352,-0.389 0.342,-0.387 0.326,-0.385C0.308,-0.382 0.298,-0.379 0.296,-0.377C0.288,-0.374 0.282,-0.373 0.277,-0.373C0.265,-0.372 0.259,-0.352 0.258,-0.312C0.258,-0.288 0.261,-0.276 0.267,-0.276C0.27,-0.276 0.273,-0.278 0.276,-0.282C0.288,-0.293 0.308,-0.304 0.337,-0.317C0.376,-0.334 0.412,-0.344 0.445,-0.347L0.457,-0.348C0.457,-0.347 0.454,-0.345 0.447,-0.342C0.434,-0.335 0.42,-0.33 0.403,-0.327C0.386,-0.323 0.37,-0.316 0.355,-0.307C0.348,-0.302 0.341,-0.299 0.335,-0.296C0.329,-0.293 0.325,-0.291 0.323,-0.291C0.32,-0.291 0.319,-0.289 0.319,-0.285C0.319,-0.281 0.316,-0.279 0.311,-0.279C0.305,-0.279 0.299,-0.275 0.293,-0.266L0.281,-0.253L0.314,-0.238C0.331,-0.23 0.347,-0.226 0.36,-0.226C0.377,-0.226 0.39,-0.232 0.401,-0.245L0.414,-0.26L0.411,-0.244C0.404,-0.221 0.389,-0.209 0.366,-0.207L0.347,-0.207C0.31,-0.207 0.285,-0.21 0.27,-0.217L0.252,-0.225C0.241,-0.214 0.229,-0.202 0.218,-0.191C0.206,-0.179 0.196,-0.171 0.189,-0.166C0.182,-0.161 0.175,-0.158 0.169,-0.158ZM0.59,-0.263C0.587,-0.263 0.584,-0.265 0.581,-0.27C0.578,-0.274 0.575,-0.279 0.572,-0.284C0.569,-0.289 0.568,-0.294 0.568,-0.299C0.568,-0.303 0.569,-0.305 0.57,-0.305C0.571,-0.305 0.571,-0.304 0.572,-0.303C0.573,-0.301 0.574,-0.299 0.576,-0.298C0.577,-0.297 0.579,-0.296 0.58,-0.296C0.585,-0.296 0.588,-0.339 0.588,-0.426C0.588,-0.513 0.587,-0.556 0.584,-0.556C0.581,-0.556 0.58,-0.559 0.58,-0.566C0.58,-0.573 0.581,-0.577 0.583,-0.579C0.584,-0.581 0.586,-0.582 0.587,-0.582C0.595,-0.582 0.604,-0.57 0.613,-0.546C0.618,-0.534 0.621,-0.521 0.623,-0.507C0.624,-0.493 0.625,-0.472 0.625,-0.443C0.625,-0.395 0.622,-0.353 0.615,-0.317C0.608,-0.281 0.599,-0.263 0.59,-0.263ZM0.859,-0.409L0.856,-0.41C0.844,-0.417 0.829,-0.42 0.811,-0.42C0.801,-0.42 0.791,-0.419 0.781,-0.417C0.771,-0.414 0.763,-0.413 0.756,-0.413C0.749,-0.413 0.738,-0.417 0.723,-0.424C0.702,-0.434 0.691,-0.443 0.691,-0.451C0.691,-0.458 0.698,-0.462 0.711,-0.462C0.724,-0.462 0.741,-0.459 0.762,-0.453L0.811,-0.44C0.825,-0.437 0.835,-0.435 0.841,-0.432C0.846,-0.428 0.851,-0.424 0.854,-0.419C0.857,-0.414 0.859,-0.41 0.859,-0.409ZM0.466,-0.313C0.464,-0.313 0.462,-0.314 0.46,-0.317L0.46,-0.318C0.46,-0.323 0.464,-0.334 0.472,-0.353C0.48,-0.371 0.487,-0.382 0.492,-0.386C0.495,-0.388 0.5,-0.389 0.506,-0.39C0.514,-0.39 0.52,-0.388 0.525,-0.384C0.527,-0.382 0.528,-0.38 0.528,-0.378C0.528,-0.375 0.524,-0.374 0.517,-0.374C0.51,-0.374 0.501,-0.364 0.49,-0.344C0.479,-0.323 0.471,-0.313 0.466,-0.313ZM0.177,0.183C0.174,0.183 0.172,0.182 0.172,0.179C0.172,0.178 0.173,0.175 0.175,0.173C0.177,0.17 0.18,0.167 0.184,0.164C0.187,0.161 0.19,0.16 0.193,0.16L0.195,0.16C0.202,0.16 0.221,0.145 0.253,0.116C0.288,0.085 0.306,0.069 0.309,0.069C0.312,0.069 0.313,0.068 0.313,0.065C0.313,0.062 0.32,0.052 0.335,0.036C0.349,0.022 0.356,0.015 0.357,0.015L0.357,0.016C0.36,0.016 0.364,0.013 0.37,0.007C0.418,-0.036 0.465,-0.076 0.511,-0.112C0.519,-0.119 0.523,-0.124 0.523,-0.129C0.523,-0.131 0.524,-0.133 0.527,-0.136C0.53,-0.139 0.533,-0.141 0.537,-0.142C0.546,-0.147 0.551,-0.15 0.551,-0.152C0.551,-0.153 0.562,-0.162 0.583,-0.179C0.608,-0.199 0.645,-0.233 0.692,-0.282C0.744,-0.335 0.774,-0.362 0.781,-0.362C0.783,-0.362 0.784,-0.36 0.784,-0.357C0.784,-0.356 0.783,-0.354 0.782,-0.353C0.78,-0.352 0.778,-0.351 0.776,-0.351C0.774,-0.351 0.772,-0.35 0.77,-0.349C0.767,-0.347 0.766,-0.345 0.765,-0.342C0.762,-0.335 0.757,-0.328 0.752,-0.322C0.747,-0.315 0.738,-0.304 0.726,-0.289C0.713,-0.271 0.688,-0.244 0.651,-0.208C0.623,-0.18 0.597,-0.153 0.573,-0.126C0.558,-0.11 0.55,-0.102 0.549,-0.102C0.547,-0.102 0.542,-0.099 0.535,-0.093C0.527,-0.087 0.518,-0.08 0.509,-0.071C0.447,-0.012 0.393,0.035 0.346,0.069C0.334,0.078 0.321,0.088 0.308,0.099C0.295,0.11 0.283,0.119 0.274,0.126C0.253,0.146 0.227,0.163 0.197,0.176C0.188,0.181 0.182,0.183 0.177,0.183Z" style="fill:white;fill-rule:nonzero;"/>
                </g>
                <g transform="matrix(113.914,0,0,113.914,1957.37,180.036)">
                    <path d="M0.346,0.048C0.341,0.048 0.338,0.041 0.338,0.028C0.338,0.017 0.34,0 0.344,-0.021C0.352,-0.071 0.356,-0.101 0.356,-0.11C0.356,-0.118 0.354,-0.124 0.349,-0.128C0.337,-0.143 0.331,-0.17 0.331,-0.208C0.331,-0.233 0.334,-0.262 0.339,-0.297L0.34,-0.311C0.34,-0.315 0.339,-0.317 0.336,-0.317C0.329,-0.317 0.312,-0.312 0.285,-0.301C0.266,-0.294 0.248,-0.29 0.231,-0.29C0.225,-0.29 0.22,-0.29 0.215,-0.289C0.21,-0.288 0.208,-0.286 0.208,-0.284C0.208,-0.282 0.201,-0.279 0.187,-0.276C0.168,-0.272 0.151,-0.267 0.136,-0.261C0.115,-0.254 0.092,-0.251 0.066,-0.251C0.032,-0.251 0.015,-0.256 0.015,-0.266C0.015,-0.271 0.017,-0.273 0.021,-0.273C0.025,-0.273 0.031,-0.277 0.038,-0.284C0.046,-0.29 0.061,-0.297 0.082,-0.305C0.102,-0.312 0.123,-0.318 0.142,-0.321C0.153,-0.322 0.162,-0.325 0.169,-0.328C0.172,-0.331 0.183,-0.336 0.202,-0.342C0.249,-0.356 0.292,-0.366 0.329,-0.371C0.341,-0.371 0.349,-0.373 0.352,-0.376C0.355,-0.379 0.358,-0.392 0.361,-0.415C0.364,-0.438 0.367,-0.455 0.372,-0.464C0.375,-0.471 0.377,-0.477 0.377,-0.484C0.376,-0.485 0.376,-0.486 0.376,-0.487C0.376,-0.488 0.377,-0.49 0.379,-0.491C0.38,-0.492 0.382,-0.495 0.383,-0.498C0.384,-0.501 0.385,-0.505 0.385,-0.508C0.385,-0.517 0.387,-0.523 0.39,-0.525C0.393,-0.527 0.397,-0.539 0.404,-0.561C0.41,-0.583 0.414,-0.596 0.416,-0.601C0.417,-0.602 0.419,-0.603 0.42,-0.603C0.423,-0.603 0.427,-0.6 0.43,-0.596C0.433,-0.591 0.435,-0.586 0.435,-0.583C0.435,-0.576 0.433,-0.572 0.43,-0.57C0.426,-0.568 0.424,-0.561 0.424,-0.549C0.424,-0.536 0.423,-0.528 0.42,-0.525C0.417,-0.521 0.413,-0.503 0.408,-0.472C0.405,-0.451 0.4,-0.429 0.395,-0.407C0.393,-0.4 0.392,-0.394 0.392,-0.389C0.392,-0.387 0.392,-0.386 0.393,-0.386C0.394,-0.385 0.395,-0.385 0.397,-0.385C0.402,-0.385 0.416,-0.387 0.441,-0.39C0.47,-0.393 0.489,-0.397 0.498,-0.4C0.503,-0.403 0.518,-0.407 0.545,-0.412C0.567,-0.415 0.581,-0.418 0.586,-0.422C0.591,-0.426 0.612,-0.433 0.649,-0.442C0.652,-0.443 0.658,-0.447 0.667,-0.453C0.675,-0.459 0.683,-0.466 0.692,-0.475C0.7,-0.483 0.708,-0.491 0.718,-0.499C0.727,-0.506 0.734,-0.512 0.739,-0.517C0.75,-0.524 0.76,-0.532 0.771,-0.543L0.79,-0.558C0.799,-0.565 0.809,-0.572 0.822,-0.578C0.84,-0.587 0.862,-0.591 0.888,-0.591C0.891,-0.591 0.895,-0.591 0.898,-0.591C0.901,-0.59 0.904,-0.589 0.906,-0.587C0.908,-0.585 0.91,-0.582 0.912,-0.579C0.913,-0.576 0.914,-0.573 0.914,-0.571C0.914,-0.57 0.913,-0.57 0.912,-0.57C0.91,-0.57 0.907,-0.571 0.903,-0.573C0.899,-0.575 0.895,-0.576 0.892,-0.576C0.886,-0.576 0.878,-0.572 0.867,-0.565C0.856,-0.558 0.84,-0.549 0.817,-0.538C0.78,-0.523 0.752,-0.506 0.731,-0.487L0.699,-0.459C0.686,-0.446 0.678,-0.439 0.676,-0.439C0.674,-0.439 0.663,-0.435 0.644,-0.426C0.625,-0.417 0.612,-0.412 0.606,-0.412C0.605,-0.412 0.601,-0.411 0.596,-0.409C0.59,-0.406 0.584,-0.404 0.577,-0.401C0.562,-0.393 0.547,-0.388 0.533,-0.387C0.518,-0.384 0.51,-0.381 0.508,-0.378C0.505,-0.375 0.502,-0.373 0.497,-0.373C0.492,-0.373 0.482,-0.37 0.466,-0.365C0.426,-0.351 0.4,-0.34 0.387,-0.333C0.379,-0.326 0.373,-0.272 0.368,-0.171C0.372,-0.178 0.376,-0.185 0.38,-0.193C0.383,-0.201 0.39,-0.212 0.401,-0.227C0.409,-0.236 0.413,-0.244 0.413,-0.25C0.413,-0.255 0.414,-0.261 0.417,-0.266L0.423,-0.278C0.429,-0.291 0.434,-0.3 0.439,-0.305C0.443,-0.309 0.448,-0.311 0.453,-0.311C0.456,-0.311 0.457,-0.311 0.457,-0.31C0.457,-0.309 0.456,-0.308 0.454,-0.306C0.448,-0.296 0.439,-0.269 0.428,-0.226C0.419,-0.19 0.414,-0.167 0.414,-0.156C0.414,-0.153 0.415,-0.151 0.416,-0.15C0.417,-0.149 0.422,-0.148 0.433,-0.148C0.444,-0.148 0.456,-0.148 0.47,-0.149C0.484,-0.15 0.497,-0.151 0.51,-0.152C0.523,-0.153 0.531,-0.155 0.536,-0.157C0.541,-0.158 0.544,-0.159 0.547,-0.159C0.55,-0.159 0.551,-0.158 0.551,-0.157C0.551,-0.148 0.534,-0.139 0.5,-0.131C0.49,-0.129 0.48,-0.127 0.469,-0.124C0.458,-0.121 0.43,-0.114 0.423,-0.113C0.416,-0.111 0.411,-0.11 0.406,-0.109C0.401,-0.108 0.397,-0.105 0.393,-0.099C0.388,-0.093 0.383,-0.082 0.378,-0.067C0.373,-0.055 0.37,-0.043 0.367,-0.03C0.364,-0.017 0.361,-0.007 0.36,0.001C0.357,0.032 0.353,0.048 0.346,0.048ZM0.587,-0.026C0.585,-0.026 0.584,-0.029 0.584,-0.036C0.584,-0.041 0.586,-0.049 0.589,-0.061C0.592,-0.072 0.595,-0.084 0.599,-0.095C0.602,-0.106 0.605,-0.112 0.607,-0.115C0.608,-0.118 0.61,-0.122 0.611,-0.129C0.612,-0.135 0.614,-0.142 0.615,-0.151C0.616,-0.159 0.617,-0.168 0.619,-0.178C0.621,-0.188 0.623,-0.196 0.626,-0.203C0.628,-0.21 0.63,-0.216 0.632,-0.221C0.633,-0.226 0.634,-0.229 0.634,-0.23C0.634,-0.233 0.621,-0.234 0.594,-0.234L0.576,-0.233C0.558,-0.233 0.541,-0.237 0.525,-0.246C0.509,-0.254 0.501,-0.261 0.501,-0.268C0.501,-0.271 0.503,-0.273 0.507,-0.276C0.51,-0.279 0.525,-0.281 0.55,-0.282L0.586,-0.285C0.596,-0.286 0.618,-0.288 0.652,-0.292L0.66,-0.32C0.667,-0.34 0.672,-0.351 0.676,-0.353C0.68,-0.357 0.686,-0.371 0.693,-0.396C0.7,-0.421 0.705,-0.435 0.708,-0.439C0.711,-0.443 0.715,-0.445 0.72,-0.445C0.725,-0.445 0.728,-0.443 0.728,-0.44C0.728,-0.439 0.728,-0.437 0.727,-0.436C0.725,-0.434 0.724,-0.433 0.723,-0.433C0.72,-0.43 0.714,-0.408 0.707,-0.365C0.701,-0.331 0.698,-0.309 0.698,-0.299L0.698,-0.296C0.698,-0.295 0.699,-0.295 0.7,-0.295C0.704,-0.295 0.726,-0.299 0.767,-0.307C0.807,-0.314 0.835,-0.321 0.85,-0.326C0.855,-0.328 0.863,-0.33 0.873,-0.332C0.898,-0.336 0.915,-0.338 0.924,-0.338L0.925,-0.337C0.925,-0.336 0.922,-0.334 0.916,-0.331C0.9,-0.324 0.888,-0.32 0.879,-0.318C0.87,-0.316 0.848,-0.309 0.811,-0.296C0.782,-0.286 0.758,-0.278 0.739,-0.273C0.716,-0.268 0.7,-0.262 0.692,-0.255C0.684,-0.248 0.677,-0.235 0.67,-0.216C0.661,-0.191 0.656,-0.177 0.656,-0.172C0.656,-0.167 0.655,-0.164 0.652,-0.162C0.649,-0.16 0.639,-0.137 0.621,-0.093C0.603,-0.048 0.592,-0.026 0.587,-0.026ZM1.076,0.206C1.073,0.206 1.064,0.201 1.047,0.192C1.025,0.181 1.012,0.174 1.007,0.17C1,0.165 0.992,0.16 0.983,0.153C0.916,0.11 0.868,0.068 0.837,0.029C0.825,0.016 0.813,0.001 0.802,-0.016C0.795,-0.025 0.787,-0.036 0.779,-0.049C0.77,-0.062 0.762,-0.074 0.754,-0.085C0.746,-0.096 0.74,-0.103 0.737,-0.108C0.73,-0.116 0.724,-0.125 0.717,-0.135L0.694,-0.163C0.686,-0.17 0.682,-0.176 0.682,-0.18L0.682,-0.181C0.684,-0.184 0.687,-0.185 0.69,-0.185C0.701,-0.185 0.72,-0.17 0.747,-0.141C0.769,-0.118 0.787,-0.096 0.801,-0.076C0.836,-0.026 0.882,0.028 0.939,0.087C0.964,0.112 1.001,0.144 1.048,0.181L1.077,0.205L1.076,0.206Z" style="fill:white;fill-rule:nonzero;"/>
                </g>
                <g transform="matrix(113.914,0,0,113.914,2081.77,180.036)">
                    <path d="M0.029,0.144C0.026,0.144 0.024,0.141 0.021,0.135C0.017,0.126 0.015,0.118 0.015,0.109C0.015,0.104 0.015,0.1 0.016,0.096C0.019,0.082 0.028,0.062 0.044,0.036C0.05,0.027 0.054,0.022 0.056,0.022C0.057,0.022 0.064,0.017 0.076,0.007C0.12,-0.03 0.144,-0.05 0.147,-0.053C0.172,-0.073 0.186,-0.084 0.189,-0.087C0.192,-0.09 0.193,-0.094 0.194,-0.1C0.195,-0.105 0.195,-0.114 0.195,-0.127C0.195,-0.137 0.195,-0.148 0.194,-0.159C0.193,-0.17 0.192,-0.179 0.191,-0.187C0.19,-0.194 0.188,-0.199 0.187,-0.201C0.186,-0.202 0.184,-0.203 0.182,-0.203L0.176,-0.202C0.168,-0.199 0.163,-0.196 0.162,-0.194C0.157,-0.189 0.139,-0.183 0.106,-0.175C0.085,-0.17 0.071,-0.167 0.064,-0.167C0.054,-0.167 0.044,-0.171 0.035,-0.178C0.024,-0.187 0.018,-0.195 0.018,-0.202C0.018,-0.215 0.037,-0.225 0.076,-0.23C0.099,-0.233 0.112,-0.236 0.116,-0.239C0.12,-0.242 0.133,-0.244 0.155,-0.245C0.177,-0.246 0.19,-0.249 0.193,-0.252C0.196,-0.255 0.199,-0.284 0.202,-0.34C0.212,-0.547 0.226,-0.65 0.243,-0.65C0.247,-0.653 0.251,-0.66 0.254,-0.673C0.257,-0.686 0.26,-0.692 0.265,-0.692L0.27,-0.691C0.273,-0.69 0.276,-0.682 0.279,-0.666L0.28,-0.656C0.28,-0.649 0.279,-0.646 0.276,-0.646L0.275,-0.646C0.264,-0.643 0.253,-0.546 0.242,-0.355C0.241,-0.338 0.24,-0.323 0.239,-0.308C0.238,-0.293 0.237,-0.282 0.236,-0.277C0.235,-0.271 0.234,-0.267 0.234,-0.264C0.234,-0.261 0.234,-0.259 0.235,-0.258C0.236,-0.257 0.237,-0.257 0.239,-0.257C0.242,-0.257 0.245,-0.258 0.249,-0.259C0.253,-0.26 0.258,-0.261 0.264,-0.263C0.27,-0.264 0.275,-0.266 0.28,-0.267C0.285,-0.268 0.292,-0.27 0.303,-0.271C0.314,-0.272 0.325,-0.274 0.338,-0.275C0.35,-0.276 0.362,-0.277 0.375,-0.278C0.368,-0.275 0.361,-0.273 0.354,-0.27C0.347,-0.267 0.339,-0.265 0.33,-0.262C0.321,-0.259 0.313,-0.257 0.306,-0.255C0.299,-0.253 0.291,-0.251 0.282,-0.248C0.273,-0.245 0.264,-0.242 0.257,-0.239C0.25,-0.236 0.242,-0.233 0.234,-0.23L0.234,-0.18C0.234,-0.151 0.235,-0.137 0.237,-0.137C0.238,-0.137 0.243,-0.143 0.251,-0.155L0.272,-0.144C0.286,-0.137 0.296,-0.127 0.303,-0.112C0.309,-0.096 0.314,-0.088 0.317,-0.086C0.32,-0.083 0.322,-0.08 0.322,-0.077C0.322,-0.074 0.32,-0.072 0.316,-0.072C0.313,-0.072 0.304,-0.078 0.287,-0.089C0.27,-0.1 0.259,-0.106 0.254,-0.106C0.249,-0.106 0.244,-0.108 0.24,-0.112L0.233,-0.117L0.225,-0.014C0.219,0.072 0.214,0.115 0.209,0.115C0.208,0.115 0.207,0.103 0.207,0.079C0.206,0.066 0.206,0.05 0.205,0.031C0.204,0.011 0.203,-0.007 0.202,-0.024L0.199,-0.083L0.157,-0.039C0.127,-0.006 0.105,0.021 0.091,0.042C0.077,0.062 0.064,0.078 0.052,0.09C0.04,0.1 0.034,0.112 0.034,0.125C0.034,0.138 0.032,0.144 0.029,0.144ZM0.346,-0.185C0.344,-0.185 0.34,-0.185 0.335,-0.186C0.33,-0.187 0.324,-0.191 0.317,-0.198C0.31,-0.205 0.306,-0.211 0.306,-0.217C0.306,-0.225 0.314,-0.23 0.331,-0.232C0.343,-0.232 0.354,-0.234 0.364,-0.238L0.419,-0.258L0.48,-0.279C0.522,-0.294 0.547,-0.305 0.555,-0.31C0.556,-0.313 0.56,-0.315 0.567,-0.317C0.574,-0.319 0.577,-0.327 0.577,-0.34C0.577,-0.351 0.578,-0.36 0.58,-0.368L0.581,-0.372C0.581,-0.373 0.58,-0.374 0.579,-0.374C0.578,-0.374 0.576,-0.374 0.574,-0.373C0.571,-0.372 0.565,-0.371 0.558,-0.368C0.551,-0.365 0.545,-0.362 0.54,-0.359C0.535,-0.356 0.533,-0.355 0.533,-0.354C0.533,-0.351 0.529,-0.349 0.522,-0.349C0.515,-0.349 0.507,-0.35 0.499,-0.352C0.49,-0.353 0.484,-0.356 0.481,-0.36C0.478,-0.363 0.476,-0.367 0.476,-0.371C0.476,-0.382 0.489,-0.388 0.514,-0.388C0.534,-0.388 0.55,-0.39 0.562,-0.394C0.571,-0.396 0.577,-0.399 0.58,-0.402C0.582,-0.405 0.583,-0.411 0.583,-0.42L0.583,-0.439C0.563,-0.437 0.551,-0.436 0.546,-0.436C0.535,-0.436 0.523,-0.438 0.508,-0.441C0.493,-0.444 0.481,-0.45 0.473,-0.457C0.472,-0.458 0.471,-0.46 0.471,-0.461C0.471,-0.465 0.477,-0.469 0.488,-0.474C0.499,-0.479 0.517,-0.483 0.541,-0.486L0.58,-0.49L0.583,-0.54C0.586,-0.574 0.59,-0.597 0.595,-0.609C0.599,-0.62 0.602,-0.626 0.605,-0.626C0.618,-0.626 0.625,-0.602 0.626,-0.553L0.628,-0.498C0.671,-0.502 0.695,-0.505 0.7,-0.508L0.704,-0.508C0.708,-0.508 0.71,-0.506 0.71,-0.502C0.71,-0.497 0.705,-0.493 0.695,-0.49C0.68,-0.487 0.659,-0.478 0.633,-0.463C0.624,-0.457 0.617,-0.447 0.613,-0.433L0.606,-0.412L0.63,-0.412C0.643,-0.412 0.649,-0.409 0.649,-0.402C0.649,-0.401 0.648,-0.401 0.647,-0.401C0.646,-0.401 0.645,-0.402 0.644,-0.403C0.642,-0.404 0.64,-0.404 0.637,-0.404C0.635,-0.404 0.632,-0.403 0.627,-0.402C0.622,-0.4 0.617,-0.397 0.612,-0.393C0.607,-0.388 0.603,-0.384 0.602,-0.379C0.601,-0.374 0.599,-0.368 0.597,-0.362C0.594,-0.356 0.592,-0.35 0.59,-0.345C0.586,-0.338 0.584,-0.332 0.584,-0.328C0.584,-0.325 0.586,-0.323 0.589,-0.323C0.592,-0.323 0.597,-0.325 0.604,-0.328C0.611,-0.331 0.639,-0.34 0.688,-0.355C0.73,-0.366 0.755,-0.374 0.762,-0.38C0.776,-0.387 0.79,-0.391 0.805,-0.391C0.81,-0.391 0.815,-0.391 0.82,-0.39C0.831,-0.387 0.837,-0.385 0.837,-0.383C0.837,-0.381 0.83,-0.38 0.817,-0.38C0.803,-0.379 0.786,-0.374 0.766,-0.364C0.758,-0.36 0.754,-0.357 0.754,-0.356C0.754,-0.354 0.752,-0.352 0.749,-0.351C0.745,-0.349 0.74,-0.348 0.735,-0.347C0.722,-0.344 0.711,-0.339 0.704,-0.333C0.693,-0.326 0.683,-0.321 0.675,-0.319C0.667,-0.317 0.66,-0.313 0.654,-0.308C0.647,-0.303 0.634,-0.296 0.613,-0.289C0.574,-0.273 0.535,-0.256 0.497,-0.238C0.476,-0.229 0.462,-0.225 0.457,-0.224C0.445,-0.221 0.439,-0.219 0.439,-0.217C0.439,-0.215 0.427,-0.21 0.404,-0.202C0.394,-0.199 0.385,-0.197 0.378,-0.194C0.371,-0.191 0.366,-0.19 0.364,-0.189C0.359,-0.186 0.353,-0.185 0.346,-0.185ZM0.254,-0.34C0.253,-0.34 0.252,-0.341 0.252,-0.342C0.252,-0.345 0.255,-0.352 0.261,-0.364C0.274,-0.389 0.286,-0.418 0.297,-0.449C0.303,-0.465 0.313,-0.48 0.327,-0.494C0.339,-0.506 0.348,-0.513 0.354,-0.515C0.359,-0.515 0.361,-0.511 0.361,-0.502C0.361,-0.494 0.358,-0.488 0.353,-0.483C0.347,-0.478 0.344,-0.473 0.344,-0.469C0.344,-0.465 0.338,-0.455 0.327,-0.439C0.315,-0.423 0.305,-0.408 0.297,-0.394C0.289,-0.379 0.284,-0.371 0.281,-0.368C0.276,-0.363 0.272,-0.358 0.269,-0.353C0.26,-0.344 0.255,-0.34 0.254,-0.34ZM0.176,-0.324C0.173,-0.324 0.163,-0.331 0.148,-0.346C0.139,-0.355 0.131,-0.363 0.124,-0.369C0.116,-0.374 0.11,-0.377 0.107,-0.377C0.096,-0.377 0.091,-0.387 0.091,-0.407C0.091,-0.411 0.092,-0.414 0.094,-0.417C0.095,-0.42 0.099,-0.421 0.105,-0.421C0.11,-0.421 0.115,-0.42 0.12,-0.417C0.125,-0.413 0.132,-0.406 0.141,-0.393C0.15,-0.38 0.158,-0.366 0.166,-0.353C0.174,-0.339 0.178,-0.33 0.178,-0.326C0.178,-0.325 0.177,-0.324 0.176,-0.324ZM0.651,0.297C0.649,0.297 0.648,0.26 0.648,0.187L0.648,0.106C0.649,0.015 0.652,-0.049 0.655,-0.086C0.658,-0.108 0.66,-0.128 0.66,-0.146C0.66,-0.161 0.658,-0.171 0.655,-0.176C0.651,-0.181 0.645,-0.183 0.636,-0.183C0.627,-0.183 0.614,-0.182 0.595,-0.18C0.572,-0.178 0.56,-0.174 0.56,-0.17C0.56,-0.165 0.558,-0.162 0.555,-0.162L0.554,-0.162C0.546,-0.161 0.538,-0.131 0.529,-0.072C0.528,-0.056 0.523,-0.038 0.515,-0.017C0.512,-0.008 0.509,0 0.507,0.009C0.504,0.017 0.502,0.023 0.501,0.027C0.496,0.046 0.49,0.055 0.482,0.055C0.479,0.055 0.478,0.043 0.478,0.019L0.478,-0.01C0.478,-0.045 0.481,-0.072 0.486,-0.092C0.495,-0.137 0.509,-0.165 0.528,-0.175C0.537,-0.183 0.542,-0.188 0.542,-0.191L0.542,-0.195C0.542,-0.198 0.544,-0.204 0.548,-0.214C0.552,-0.223 0.561,-0.229 0.576,-0.23L0.584,-0.232C0.594,-0.234 0.601,-0.236 0.604,-0.237C0.607,-0.238 0.612,-0.238 0.619,-0.238C0.632,-0.238 0.643,-0.236 0.653,-0.232C0.669,-0.227 0.681,-0.217 0.688,-0.203C0.698,-0.184 0.703,-0.156 0.703,-0.119C0.703,-0.106 0.702,-0.086 0.7,-0.061C0.694,0.014 0.688,0.058 0.682,0.072C0.68,0.076 0.674,0.128 0.663,0.228C0.661,0.243 0.66,0.256 0.659,0.265C0.656,0.286 0.654,0.297 0.651,0.297ZM0.592,-0.06C0.587,-0.06 0.581,-0.062 0.576,-0.067C0.57,-0.072 0.567,-0.078 0.567,-0.086C0.567,-0.09 0.568,-0.094 0.571,-0.097C0.575,-0.102 0.579,-0.105 0.582,-0.105C0.585,-0.105 0.594,-0.101 0.609,-0.094C0.609,-0.093 0.609,-0.093 0.61,-0.093C0.628,-0.083 0.637,-0.076 0.637,-0.071C0.637,-0.066 0.627,-0.063 0.608,-0.062L0.592,-0.06ZM0.582,0.015C0.576,0.015 0.569,0.013 0.561,0.01C0.553,0.006 0.549,-0.001 0.549,-0.01C0.549,-0.015 0.55,-0.018 0.551,-0.02C0.552,-0.021 0.554,-0.022 0.557,-0.022L0.574,-0.021C0.592,-0.018 0.606,-0.014 0.616,-0.009C0.625,-0.004 0.63,-0 0.63,0.001C0.63,0.002 0.628,0.003 0.625,0.004C0.621,0.005 0.617,0.006 0.612,0.007C0.607,0.008 0.603,0.01 0.598,0.012C0.592,0.014 0.587,0.015 0.582,0.015Z" style="fill:white;fill-rule:nonzero;"/>
                </g>
                <g transform="matrix(113.914,0,0,113.914,2178.82,180.036)">
                    <path d="M0.276,0.059C0.269,0.059 0.265,0.053 0.265,0.04C0.265,0.031 0.268,0.023 0.273,0.016C0.276,0.011 0.278,0.009 0.28,0.009C0.281,0.009 0.281,0.014 0.281,0.023C0.281,0.032 0.282,0.037 0.283,0.037C0.284,0.037 0.286,0.036 0.289,0.033C0.292,0.03 0.294,0.028 0.296,0.026C0.297,0.023 0.298,0.021 0.298,0.02C0.298,0.019 0.3,0.014 0.304,0.005C0.308,-0.005 0.313,-0.016 0.32,-0.029C0.326,-0.042 0.331,-0.054 0.336,-0.065C0.341,-0.076 0.343,-0.085 0.345,-0.09C0.346,-0.095 0.349,-0.107 0.354,-0.124C0.359,-0.141 0.365,-0.159 0.372,-0.178C0.378,-0.196 0.383,-0.209 0.387,-0.217C0.388,-0.221 0.4,-0.25 0.403,-0.259C0.406,-0.267 0.408,-0.273 0.409,-0.276C0.41,-0.279 0.41,-0.281 0.41,-0.282C0.41,-0.285 0.408,-0.287 0.404,-0.287C0.398,-0.287 0.386,-0.282 0.368,-0.273C0.35,-0.264 0.338,-0.259 0.332,-0.259C0.325,-0.259 0.318,-0.256 0.31,-0.251C0.296,-0.244 0.283,-0.238 0.271,-0.233C0.258,-0.228 0.249,-0.226 0.245,-0.226C0.24,-0.226 0.237,-0.225 0.237,-0.223C0.237,-0.22 0.232,-0.217 0.221,-0.213C0.197,-0.204 0.17,-0.197 0.141,-0.193C0.112,-0.189 0.087,-0.184 0.066,-0.178C0.045,-0.171 0.031,-0.165 0.025,-0.158L0.015,-0.147L0.015,-0.159C0.015,-0.165 0.02,-0.172 0.031,-0.179C0.041,-0.186 0.054,-0.193 0.069,-0.199C0.084,-0.204 0.101,-0.212 0.118,-0.222C0.132,-0.231 0.151,-0.242 0.176,-0.253C0.199,-0.262 0.216,-0.269 0.228,-0.276C0.251,-0.285 0.266,-0.291 0.274,-0.292C0.29,-0.297 0.298,-0.3 0.298,-0.303C0.298,-0.306 0.307,-0.309 0.324,-0.314L0.353,-0.325C0.357,-0.329 0.385,-0.339 0.436,-0.354C0.453,-0.411 0.467,-0.466 0.478,-0.519C0.487,-0.564 0.491,-0.595 0.491,-0.611C0.491,-0.627 0.493,-0.635 0.498,-0.635C0.5,-0.635 0.503,-0.633 0.506,-0.629C0.507,-0.627 0.509,-0.62 0.51,-0.607C0.512,-0.582 0.513,-0.558 0.513,-0.535C0.513,-0.526 0.513,-0.517 0.512,-0.506C0.511,-0.495 0.509,-0.479 0.506,-0.459C0.502,-0.439 0.496,-0.412 0.488,-0.377L0.487,-0.371C0.487,-0.369 0.488,-0.368 0.491,-0.368C0.493,-0.368 0.5,-0.37 0.513,-0.373C0.528,-0.377 0.547,-0.381 0.57,-0.384C0.587,-0.385 0.6,-0.388 0.607,-0.391C0.614,-0.394 0.63,-0.398 0.655,-0.403C0.674,-0.406 0.695,-0.41 0.72,-0.415C0.777,-0.427 0.812,-0.436 0.825,-0.442C0.829,-0.445 0.833,-0.446 0.836,-0.446C0.839,-0.446 0.84,-0.445 0.841,-0.443C0.841,-0.442 0.84,-0.44 0.837,-0.437C0.83,-0.431 0.806,-0.422 0.767,-0.41C0.752,-0.405 0.741,-0.403 0.737,-0.403C0.732,-0.403 0.721,-0.401 0.706,-0.396C0.696,-0.392 0.678,-0.387 0.652,-0.381C0.631,-0.376 0.62,-0.373 0.618,-0.37C0.616,-0.367 0.611,-0.364 0.603,-0.363C0.595,-0.362 0.585,-0.358 0.574,-0.353C0.564,-0.346 0.553,-0.342 0.54,-0.339C0.527,-0.335 0.515,-0.331 0.502,-0.324C0.489,-0.317 0.481,-0.314 0.477,-0.314C0.473,-0.314 0.465,-0.296 0.452,-0.261C0.441,-0.224 0.434,-0.205 0.432,-0.204C0.43,-0.203 0.428,-0.2 0.426,-0.195C0.424,-0.19 0.422,-0.184 0.419,-0.178C0.414,-0.162 0.41,-0.154 0.407,-0.154C0.406,-0.154 0.406,-0.153 0.405,-0.152C0.404,-0.151 0.403,-0.149 0.403,-0.147C0.403,-0.144 0.401,-0.138 0.396,-0.127C0.385,-0.101 0.376,-0.084 0.37,-0.076L0.345,-0.032C0.314,0.029 0.291,0.059 0.276,0.059ZM0.787,0.115C0.782,0.115 0.767,0.103 0.743,0.08L0.713,0.053C0.646,-0.006 0.606,-0.04 0.595,-0.049C0.584,-0.057 0.565,-0.069 0.539,-0.086C0.498,-0.112 0.477,-0.133 0.477,-0.148C0.477,-0.152 0.478,-0.156 0.481,-0.159C0.486,-0.166 0.492,-0.17 0.497,-0.17C0.501,-0.17 0.503,-0.167 0.503,-0.162C0.503,-0.16 0.506,-0.157 0.513,-0.152C0.519,-0.147 0.527,-0.142 0.537,-0.137C0.562,-0.124 0.584,-0.111 0.603,-0.097C0.622,-0.082 0.641,-0.064 0.662,-0.043C0.676,-0.028 0.694,-0.008 0.716,0.02C0.737,0.046 0.754,0.069 0.767,0.088C0.77,0.093 0.774,0.098 0.778,0.101C0.781,0.104 0.784,0.106 0.785,0.106C0.786,0.106 0.788,0.107 0.789,0.108C0.79,0.109 0.79,0.111 0.79,0.112C0.79,0.114 0.789,0.115 0.787,0.115Z" style="fill:white;fill-rule:nonzero;"/>
                </g>
                <g transform="matrix(113.914,0,0,113.914,2276.33,180.036)">
                    <path d="M0.683,0.179C0.674,0.179 0.665,0.173 0.654,0.163C0.643,0.152 0.636,0.14 0.633,0.129C0.63,0.117 0.628,0.109 0.628,0.106C0.628,0.105 0.628,0.104 0.629,0.104C0.63,0.104 0.634,0.11 0.64,0.121C0.645,0.132 0.652,0.14 0.659,0.145C0.663,0.148 0.667,0.15 0.67,0.15C0.683,0.15 0.69,0.123 0.69,0.068L0.689,-0.004C0.689,-0.061 0.692,-0.129 0.698,-0.206C0.701,-0.245 0.703,-0.268 0.706,-0.274L0.708,-0.309C0.711,-0.365 0.713,-0.415 0.713,-0.458L0.712,-0.486C0.711,-0.5 0.705,-0.507 0.692,-0.507C0.685,-0.507 0.676,-0.506 0.665,-0.503C0.663,-0.503 0.661,-0.503 0.66,-0.502C0.635,-0.497 0.621,-0.494 0.617,-0.491C0.612,-0.488 0.604,-0.484 0.591,-0.48C0.562,-0.469 0.535,-0.463 0.512,-0.46C0.477,-0.457 0.46,-0.453 0.46,-0.447C0.46,-0.444 0.453,-0.434 0.438,-0.417L0.438,-0.432C0.438,-0.442 0.448,-0.457 0.469,-0.477C0.49,-0.497 0.505,-0.511 0.515,-0.519C0.525,-0.527 0.534,-0.532 0.542,-0.533C0.55,-0.536 0.554,-0.539 0.554,-0.542C0.554,-0.544 0.555,-0.545 0.556,-0.545L0.559,-0.544C0.564,-0.544 0.577,-0.55 0.598,-0.561C0.613,-0.569 0.625,-0.574 0.633,-0.576C0.638,-0.577 0.644,-0.578 0.65,-0.578C0.671,-0.578 0.692,-0.573 0.713,-0.562C0.729,-0.553 0.74,-0.544 0.747,-0.534C0.762,-0.507 0.77,-0.453 0.77,-0.374C0.77,-0.335 0.768,-0.289 0.764,-0.236C0.759,-0.168 0.757,-0.122 0.756,-0.098C0.755,-0.057 0.752,-0.026 0.748,-0.004C0.745,0.013 0.744,0.024 0.744,0.03L0.744,0.04C0.744,0.055 0.737,0.088 0.722,0.14C0.719,0.151 0.713,0.16 0.706,0.168C0.698,0.175 0.69,0.179 0.683,0.179ZM0.251,-0.348C0.25,-0.348 0.249,-0.352 0.249,-0.359C0.249,-0.363 0.248,-0.369 0.246,-0.378C0.243,-0.387 0.24,-0.395 0.236,-0.404C0.231,-0.415 0.226,-0.424 0.22,-0.431C0.214,-0.438 0.206,-0.444 0.196,-0.45C0.179,-0.461 0.166,-0.471 0.155,-0.481C0.144,-0.491 0.139,-0.499 0.139,-0.504C0.139,-0.509 0.141,-0.513 0.146,-0.518C0.151,-0.522 0.156,-0.524 0.163,-0.524C0.183,-0.524 0.204,-0.512 0.225,-0.487C0.248,-0.459 0.26,-0.425 0.26,-0.386C0.26,-0.37 0.258,-0.359 0.255,-0.352C0.254,-0.349 0.252,-0.348 0.251,-0.348ZM0.53,-0.181C0.529,-0.181 0.528,-0.184 0.527,-0.189C0.526,-0.194 0.523,-0.196 0.518,-0.196L0.503,-0.194C0.494,-0.194 0.484,-0.198 0.475,-0.205C0.465,-0.212 0.46,-0.22 0.46,-0.231C0.46,-0.237 0.461,-0.241 0.463,-0.245C0.464,-0.247 0.473,-0.249 0.488,-0.249L0.537,-0.247L0.537,-0.325L0.517,-0.325C0.502,-0.325 0.49,-0.33 0.479,-0.339L0.462,-0.352C0.468,-0.357 0.474,-0.363 0.479,-0.368C0.484,-0.373 0.489,-0.376 0.494,-0.377C0.498,-0.378 0.502,-0.379 0.507,-0.379L0.532,-0.377C0.532,-0.406 0.533,-0.422 0.534,-0.425C0.535,-0.428 0.537,-0.43 0.542,-0.43C0.549,-0.43 0.555,-0.426 0.562,-0.419C0.569,-0.411 0.573,-0.401 0.575,-0.39L0.579,-0.372L0.62,-0.369C0.642,-0.367 0.653,-0.366 0.653,-0.365C0.653,-0.364 0.65,-0.362 0.645,-0.361C0.613,-0.352 0.594,-0.345 0.589,-0.342C0.584,-0.338 0.579,-0.327 0.576,-0.309C0.573,-0.291 0.569,-0.278 0.564,-0.271C0.561,-0.267 0.56,-0.261 0.56,-0.252C0.561,-0.247 0.563,-0.243 0.567,-0.241C0.571,-0.238 0.579,-0.237 0.59,-0.236C0.598,-0.235 0.606,-0.234 0.613,-0.232C0.62,-0.23 0.626,-0.228 0.629,-0.227C0.632,-0.225 0.633,-0.223 0.633,-0.222C0.633,-0.221 0.624,-0.22 0.607,-0.22C0.59,-0.219 0.574,-0.216 0.56,-0.211C0.546,-0.206 0.537,-0.199 0.534,-0.19C0.533,-0.184 0.531,-0.181 0.53,-0.181ZM0.363,-0.038L0.36,-0.038C0.353,-0.038 0.345,-0.041 0.336,-0.047C0.327,-0.053 0.32,-0.06 0.317,-0.069C0.313,-0.078 0.311,-0.09 0.311,-0.107C0.311,-0.151 0.318,-0.207 0.333,-0.275C0.341,-0.315 0.349,-0.342 0.358,-0.357C0.368,-0.369 0.376,-0.375 0.382,-0.375C0.385,-0.375 0.388,-0.374 0.389,-0.372C0.39,-0.369 0.392,-0.365 0.393,-0.359C0.394,-0.353 0.395,-0.344 0.396,-0.332C0.397,-0.32 0.398,-0.307 0.398,-0.294C0.398,-0.281 0.398,-0.27 0.397,-0.262C0.394,-0.241 0.391,-0.219 0.39,-0.197C0.387,-0.172 0.384,-0.157 0.382,-0.153C0.38,-0.149 0.378,-0.129 0.375,-0.095C0.372,-0.059 0.368,-0.041 0.363,-0.038ZM0.136,0.046C0.134,0.046 0.131,0.045 0.126,0.042C0.121,0.039 0.115,0.034 0.109,0.03C0.103,0.024 0.099,0.019 0.097,0.014C0.094,0.009 0.093,0.001 0.093,-0.008C0.093,-0.024 0.096,-0.035 0.102,-0.042C0.108,-0.049 0.111,-0.054 0.111,-0.057C0.111,-0.06 0.122,-0.08 0.144,-0.116C0.153,-0.132 0.161,-0.145 0.166,-0.156C0.171,-0.167 0.174,-0.173 0.174,-0.175C0.174,-0.177 0.171,-0.178 0.164,-0.178C0.153,-0.178 0.142,-0.177 0.132,-0.175C0.122,-0.173 0.114,-0.171 0.109,-0.168C0.1,-0.165 0.09,-0.163 0.077,-0.163C0.075,-0.163 0.07,-0.163 0.061,-0.164C0.052,-0.165 0.043,-0.167 0.032,-0.172C0.021,-0.176 0.015,-0.18 0.015,-0.185L0.015,-0.188C0.021,-0.208 0.06,-0.225 0.131,-0.238C0.137,-0.24 0.141,-0.242 0.142,-0.243C0.143,-0.244 0.146,-0.245 0.15,-0.245C0.163,-0.245 0.178,-0.242 0.194,-0.235C0.21,-0.228 0.221,-0.22 0.226,-0.209C0.23,-0.201 0.232,-0.19 0.232,-0.177L0.231,-0.161C0.23,-0.138 0.227,-0.123 0.222,-0.117C0.219,-0.114 0.216,-0.109 0.211,-0.101C0.193,-0.069 0.184,-0.049 0.184,-0.04C0.184,-0.037 0.186,-0.035 0.189,-0.035C0.194,-0.035 0.205,-0.041 0.22,-0.052C0.238,-0.063 0.248,-0.069 0.251,-0.069L0.253,-0.068C0.253,-0.063 0.236,-0.043 0.201,-0.009C0.163,0.028 0.141,0.046 0.136,0.046ZM0.499,0.007C0.497,0.007 0.495,0.005 0.492,0.001C0.489,-0.003 0.484,-0.015 0.477,-0.036C0.47,-0.054 0.467,-0.068 0.467,-0.078C0.467,-0.079 0.467,-0.083 0.468,-0.089C0.468,-0.095 0.472,-0.105 0.481,-0.118C0.485,-0.125 0.489,-0.129 0.494,-0.131C0.499,-0.133 0.507,-0.134 0.518,-0.134C0.533,-0.133 0.546,-0.131 0.555,-0.126C0.564,-0.121 0.573,-0.112 0.583,-0.099C0.592,-0.085 0.596,-0.072 0.596,-0.061C0.596,-0.038 0.576,-0.021 0.536,-0.012C0.52,-0.009 0.51,-0.005 0.507,-0C0.504,0.005 0.501,0.007 0.499,0.007ZM0.517,-0.015L0.533,-0.023C0.55,-0.033 0.558,-0.045 0.558,-0.058C0.558,-0.061 0.557,-0.065 0.555,-0.069C0.553,-0.072 0.549,-0.076 0.543,-0.08C0.536,-0.083 0.53,-0.086 0.524,-0.087C0.521,-0.088 0.519,-0.089 0.517,-0.089C0.515,-0.089 0.514,-0.089 0.513,-0.088C0.512,-0.087 0.512,-0.085 0.512,-0.082C0.512,-0.067 0.514,-0.045 0.517,-0.015Z" style="fill:white;fill-rule:nonzero;"/>
                </g>
                <g transform="matrix(113.914,0,0,113.914,2365.75,180.036)">
                    <path d="M0.433,0.031L0.427,0.031C0.424,0.03 0.418,0.025 0.409,0.016C0.4,0.006 0.396,-0.002 0.396,-0.009C0.396,-0.012 0.397,-0.016 0.4,-0.019C0.403,-0.022 0.406,-0.024 0.411,-0.024C0.417,-0.024 0.424,-0.021 0.433,-0.016C0.436,-0.014 0.442,-0.012 0.449,-0.01C0.456,-0.008 0.472,-0.006 0.496,-0.004L0.505,-0.035C0.512,-0.055 0.517,-0.086 0.518,-0.129C0.519,-0.144 0.519,-0.163 0.519,-0.186C0.518,-0.19 0.517,-0.193 0.516,-0.195C0.511,-0.2 0.501,-0.203 0.486,-0.204L0.448,-0.203C0.414,-0.201 0.397,-0.198 0.397,-0.193C0.397,-0.188 0.394,-0.183 0.387,-0.176C0.383,-0.17 0.38,-0.167 0.377,-0.167C0.375,-0.167 0.373,-0.168 0.372,-0.171C0.37,-0.174 0.369,-0.175 0.368,-0.175C0.366,-0.175 0.365,-0.167 0.364,-0.151C0.363,-0.117 0.355,-0.078 0.34,-0.035C0.335,-0.02 0.332,-0.009 0.332,-0C0.332,0.003 0.335,0.004 0.342,0.004C0.349,0.004 0.352,0.006 0.353,0.011C0.353,0.019 0.347,0.023 0.334,0.023C0.32,0.023 0.309,0.012 0.301,-0.01C0.296,-0.025 0.293,-0.04 0.293,-0.054L0.293,-0.069C0.294,-0.078 0.298,-0.094 0.306,-0.118C0.314,-0.141 0.323,-0.16 0.333,-0.174C0.343,-0.187 0.351,-0.194 0.357,-0.194L0.361,-0.193L0.368,-0.193C0.369,-0.194 0.37,-0.195 0.37,-0.197C0.37,-0.202 0.372,-0.206 0.376,-0.211C0.38,-0.216 0.384,-0.238 0.389,-0.278C0.392,-0.305 0.394,-0.323 0.394,-0.334C0.394,-0.337 0.394,-0.339 0.393,-0.339L0.391,-0.338C0.388,-0.336 0.385,-0.334 0.384,-0.332C0.376,-0.325 0.366,-0.317 0.354,-0.308C0.323,-0.285 0.305,-0.273 0.301,-0.273C0.297,-0.273 0.293,-0.271 0.289,-0.266C0.284,-0.261 0.275,-0.255 0.262,-0.248C0.249,-0.241 0.242,-0.236 0.242,-0.233C0.242,-0.23 0.24,-0.228 0.236,-0.228C0.235,-0.228 0.231,-0.226 0.224,-0.222C0.213,-0.215 0.199,-0.205 0.18,-0.19C0.164,-0.175 0.155,-0.167 0.152,-0.167C0.149,-0.167 0.142,-0.163 0.134,-0.154C0.125,-0.145 0.118,-0.14 0.115,-0.14C0.111,-0.14 0.106,-0.138 0.101,-0.134C0.096,-0.13 0.082,-0.119 0.06,-0.102C0.052,-0.096 0.045,-0.093 0.038,-0.093C0.035,-0.093 0.03,-0.094 0.025,-0.097C0.019,-0.099 0.016,-0.107 0.015,-0.121C0.015,-0.129 0.023,-0.138 0.038,-0.148C0.053,-0.157 0.062,-0.162 0.065,-0.162C0.067,-0.162 0.076,-0.167 0.093,-0.178C0.1,-0.183 0.107,-0.186 0.113,-0.189L0.124,-0.191L0.126,-0.191C0.126,-0.191 0.126,-0.192 0.126,-0.195C0.126,-0.197 0.137,-0.204 0.158,-0.215C0.184,-0.228 0.217,-0.245 0.256,-0.268C0.295,-0.29 0.326,-0.309 0.35,-0.325C0.377,-0.342 0.391,-0.35 0.393,-0.35C0.394,-0.35 0.395,-0.353 0.396,-0.36C0.397,-0.367 0.397,-0.382 0.397,-0.405C0.396,-0.412 0.395,-0.415 0.392,-0.415C0.391,-0.415 0.39,-0.415 0.388,-0.414C0.386,-0.413 0.382,-0.412 0.376,-0.411C0.37,-0.41 0.364,-0.409 0.357,-0.408C0.35,-0.407 0.344,-0.405 0.339,-0.404C0.334,-0.403 0.33,-0.401 0.328,-0.4C0.325,-0.398 0.317,-0.395 0.304,-0.391C0.291,-0.386 0.277,-0.382 0.263,-0.378C0.248,-0.374 0.239,-0.372 0.236,-0.372C0.229,-0.372 0.222,-0.377 0.215,-0.387C0.208,-0.396 0.204,-0.406 0.204,-0.415C0.204,-0.423 0.205,-0.429 0.208,-0.432C0.21,-0.435 0.215,-0.438 0.224,-0.441C0.232,-0.445 0.24,-0.447 0.249,-0.447L0.251,-0.447C0.256,-0.447 0.26,-0.448 0.265,-0.45C0.269,-0.452 0.28,-0.456 0.297,-0.461C0.345,-0.476 0.373,-0.483 0.382,-0.483C0.4,-0.483 0.409,-0.49 0.409,-0.504C0.409,-0.51 0.41,-0.517 0.411,-0.524C0.412,-0.531 0.413,-0.538 0.414,-0.544C0.417,-0.555 0.421,-0.569 0.425,-0.588L0.432,-0.606C0.438,-0.619 0.447,-0.626 0.458,-0.627C0.465,-0.627 0.47,-0.625 0.472,-0.621L0.472,-0.62C0.472,-0.619 0.472,-0.619 0.471,-0.618C0.47,-0.616 0.467,-0.616 0.464,-0.616C0.457,-0.616 0.454,-0.61 0.454,-0.598C0.453,-0.589 0.453,-0.557 0.453,-0.5C0.528,-0.504 0.572,-0.507 0.587,-0.51C0.606,-0.513 0.616,-0.517 0.616,-0.524C0.616,-0.527 0.612,-0.53 0.604,-0.535C0.596,-0.539 0.592,-0.541 0.592,-0.542C0.592,-0.543 0.595,-0.544 0.602,-0.544C0.611,-0.544 0.619,-0.541 0.626,-0.535C0.632,-0.528 0.636,-0.52 0.636,-0.511C0.635,-0.507 0.634,-0.505 0.631,-0.505C0.628,-0.505 0.624,-0.503 0.618,-0.499C0.612,-0.492 0.59,-0.479 0.552,-0.459C0.535,-0.45 0.512,-0.443 0.485,-0.437C0.473,-0.435 0.464,-0.433 0.458,-0.432C0.452,-0.43 0.448,-0.428 0.446,-0.426C0.444,-0.423 0.443,-0.42 0.443,-0.415C0.442,-0.41 0.44,-0.4 0.437,-0.385C0.43,-0.352 0.422,-0.32 0.414,-0.289C0.408,-0.266 0.405,-0.25 0.405,-0.24C0.405,-0.233 0.407,-0.229 0.41,-0.229C0.413,-0.229 0.417,-0.232 0.422,-0.237C0.427,-0.242 0.432,-0.245 0.438,-0.245C0.443,-0.245 0.447,-0.247 0.45,-0.25C0.453,-0.253 0.461,-0.255 0.473,-0.255C0.492,-0.255 0.506,-0.252 0.517,-0.247C0.552,-0.232 0.569,-0.194 0.569,-0.133C0.569,-0.127 0.569,-0.12 0.568,-0.113C0.567,-0.105 0.564,-0.095 0.559,-0.084C0.554,-0.072 0.545,-0.056 0.534,-0.037C0.51,0.005 0.493,0.026 0.482,0.026C0.479,0.026 0.477,0.026 0.477,0.025L0.477,0.024C0.477,0.023 0.478,0.021 0.481,0.018C0.484,0.015 0.485,0.012 0.485,0.011C0.485,0.01 0.484,0.01 0.482,0.01L0.478,0.01C0.475,0.011 0.468,0.014 0.458,0.021C0.447,0.028 0.438,0.031 0.433,0.031ZM0.636,-0.306C0.635,-0.306 0.633,-0.307 0.632,-0.309C0.631,-0.311 0.63,-0.314 0.63,-0.318C0.63,-0.322 0.629,-0.325 0.626,-0.326C0.623,-0.327 0.618,-0.328 0.61,-0.328C0.591,-0.328 0.571,-0.332 0.55,-0.34C0.528,-0.348 0.511,-0.358 0.498,-0.369C0.483,-0.384 0.475,-0.394 0.475,-0.398C0.475,-0.401 0.477,-0.402 0.482,-0.402C0.501,-0.402 0.536,-0.389 0.587,-0.362C0.614,-0.347 0.63,-0.338 0.635,-0.333C0.639,-0.328 0.641,-0.322 0.641,-0.315C0.641,-0.309 0.639,-0.306 0.636,-0.306ZM0.438,-0.068C0.433,-0.068 0.427,-0.07 0.42,-0.073C0.413,-0.076 0.407,-0.081 0.402,-0.087C0.399,-0.091 0.398,-0.095 0.398,-0.098C0.398,-0.106 0.403,-0.11 0.413,-0.11C0.424,-0.11 0.441,-0.107 0.464,-0.1C0.469,-0.098 0.475,-0.096 0.48,-0.095C0.485,-0.093 0.489,-0.092 0.491,-0.092C0.492,-0.091 0.493,-0.091 0.493,-0.09C0.493,-0.087 0.477,-0.08 0.446,-0.069L0.438,-0.068ZM0.238,0.225C0.237,0.225 0.235,0.225 0.232,0.225C0.228,0.224 0.222,0.22 0.213,0.211C0.204,0.204 0.199,0.195 0.199,0.185C0.199,0.179 0.2,0.174 0.203,0.169C0.205,0.164 0.216,0.159 0.236,0.152C0.247,0.149 0.263,0.144 0.282,0.137L0.379,0.107C0.384,0.106 0.393,0.104 0.406,0.101C0.437,0.094 0.468,0.088 0.501,0.082L0.544,0.073C0.577,0.069 0.614,0.067 0.657,0.067L0.694,0.067C0.71,0.067 0.723,0.068 0.732,0.071C0.735,0.072 0.736,0.072 0.736,0.073C0.736,0.074 0.72,0.075 0.688,0.076C0.643,0.076 0.6,0.081 0.56,0.092C0.52,0.102 0.47,0.121 0.411,0.148L0.263,0.217C0.254,0.222 0.245,0.225 0.238,0.225Z" style="fill:white;fill-rule:nonzero;"/>
                </g>
                <g transform="matrix(113.914,0,0,113.914,2451.3,180.036)">
                    <path d="M0.195,-0.013L0.194,-0.014C0.194,-0.015 0.195,-0.018 0.197,-0.022C0.199,-0.026 0.202,-0.036 0.206,-0.053C0.211,-0.077 0.217,-0.107 0.226,-0.142C0.231,-0.161 0.236,-0.182 0.241,-0.205C0.246,-0.227 0.25,-0.246 0.253,-0.261C0.273,-0.368 0.291,-0.447 0.306,-0.499L0.309,-0.513C0.309,-0.518 0.311,-0.522 0.314,-0.525C0.317,-0.528 0.321,-0.53 0.326,-0.53C0.327,-0.53 0.329,-0.53 0.331,-0.529C0.332,-0.528 0.334,-0.528 0.337,-0.528C0.339,-0.527 0.341,-0.527 0.343,-0.527C0.344,-0.527 0.346,-0.525 0.349,-0.521C0.352,-0.517 0.354,-0.512 0.357,-0.507C0.359,-0.501 0.36,-0.496 0.361,-0.491L0.361,-0.485C0.361,-0.476 0.358,-0.461 0.352,-0.439C0.344,-0.408 0.339,-0.391 0.337,-0.389C0.334,-0.387 0.331,-0.378 0.326,-0.361C0.321,-0.344 0.317,-0.334 0.314,-0.33C0.311,-0.323 0.308,-0.315 0.307,-0.308C0.304,-0.298 0.3,-0.287 0.295,-0.275L0.267,-0.197C0.252,-0.156 0.244,-0.134 0.242,-0.131C0.238,-0.125 0.235,-0.114 0.232,-0.098C0.23,-0.09 0.228,-0.083 0.226,-0.077C0.223,-0.07 0.222,-0.066 0.221,-0.064C0.217,-0.061 0.213,-0.053 0.21,-0.038C0.208,-0.032 0.206,-0.026 0.203,-0.021C0.2,-0.016 0.197,-0.013 0.195,-0.013ZM0.183,0.126C0.178,0.126 0.171,0.121 0.162,0.112C0.153,0.103 0.148,0.094 0.148,0.085C0.148,0.078 0.15,0.072 0.155,0.065C0.159,0.058 0.164,0.055 0.171,0.055C0.176,0.055 0.183,0.056 0.191,0.059C0.199,0.061 0.203,0.068 0.203,0.079C0.203,0.087 0.201,0.097 0.198,0.109C0.194,0.12 0.189,0.126 0.183,0.126Z" style="fill:white;fill-rule:nonzero;"/>
                </g>
            </g>
            <g transform="matrix(0.456911,0,0,0.390597,1034.38,237.507)">
                <g transform="matrix(113.914,0,0,113.914,1762.81,180.036)">
                    <path d="M0.326,0.011C0.278,0.011 0.236,-0 0.2,-0.022C0.163,-0.044 0.135,-0.075 0.115,-0.115C0.094,-0.154 0.084,-0.201 0.083,-0.253L0.083,-0.312C0.083,-0.337 0.087,-0.362 0.094,-0.387C0.101,-0.412 0.11,-0.434 0.123,-0.453C0.135,-0.473 0.149,-0.488 0.165,-0.499C0.166,-0.499 0.167,-0.5 0.168,-0.501C0.169,-0.502 0.17,-0.502 0.171,-0.502L0.171,-0.504C0.159,-0.503 0.143,-0.5 0.124,-0.495C0.105,-0.49 0.086,-0.485 0.068,-0.48L0.05,-0.548C0.076,-0.556 0.104,-0.562 0.134,-0.568C0.164,-0.574 0.195,-0.578 0.225,-0.581C0.256,-0.584 0.285,-0.586 0.312,-0.586C0.365,-0.586 0.411,-0.575 0.45,-0.554C0.488,-0.533 0.518,-0.503 0.538,-0.464C0.559,-0.425 0.569,-0.378 0.569,-0.322L0.569,-0.253C0.569,-0.201 0.559,-0.154 0.539,-0.115C0.519,-0.075 0.491,-0.044 0.454,-0.022C0.418,-0 0.375,0.011 0.326,0.011ZM0.326,-0.066C0.357,-0.066 0.384,-0.074 0.406,-0.089C0.429,-0.105 0.447,-0.127 0.46,-0.155C0.473,-0.183 0.479,-0.215 0.479,-0.253L0.479,-0.321C0.479,-0.36 0.473,-0.394 0.46,-0.422C0.447,-0.45 0.429,-0.472 0.405,-0.487C0.382,-0.502 0.353,-0.51 0.321,-0.51C0.292,-0.51 0.266,-0.502 0.244,-0.487C0.223,-0.471 0.206,-0.449 0.194,-0.42C0.181,-0.391 0.175,-0.357 0.174,-0.317L0.174,-0.253C0.174,-0.215 0.18,-0.183 0.193,-0.155C0.206,-0.127 0.223,-0.105 0.246,-0.089C0.269,-0.074 0.296,-0.066 0.326,-0.066Z" style="fill:white;fill-rule:nonzero;"/>
                </g>
                <g transform="matrix(113.914,0,0,113.914,1835.39,180.036)">
                    <path d="M0.282,-0L0.282,-0.071C0.33,-0.073 0.369,-0.088 0.398,-0.117C0.428,-0.145 0.442,-0.185 0.442,-0.235L0.442,-0.502L0.087,-0.502L0.087,-0.575L0.533,-0.575L0.533,-0.237C0.533,-0.189 0.523,-0.147 0.502,-0.112C0.481,-0.077 0.452,-0.05 0.414,-0.031C0.376,-0.011 0.332,-0.001 0.282,-0ZM0.099,0.203L0.099,-0.216C0.099,-0.249 0.101,-0.274 0.107,-0.292C0.112,-0.309 0.118,-0.324 0.124,-0.336L0.198,-0.336C0.194,-0.322 0.191,-0.306 0.189,-0.288C0.187,-0.27 0.187,-0.248 0.187,-0.221L0.187,0.203L0.099,0.203Z" style="fill:white;fill-rule:nonzero;"/>
                </g>
                <g transform="matrix(113.914,0,0,113.914,1906.2,180.036)">
                    <path d="M0.326,-0L0.326,-0.401C0.326,-0.433 0.316,-0.457 0.298,-0.475C0.28,-0.493 0.255,-0.502 0.223,-0.502L0.029,-0.502L0.029,-0.575L0.226,-0.575C0.285,-0.575 0.332,-0.559 0.365,-0.528C0.399,-0.496 0.416,-0.451 0.416,-0.395L0.416,-0L0.326,-0Z" style="fill:white;fill-rule:nonzero;"/>
                </g>
                <g transform="matrix(113.914,0,0,113.914,1990.36,180.036)">
                    <path d="M0.423,-0L0.423,-0.361C0.423,-0.411 0.412,-0.447 0.389,-0.469C0.367,-0.491 0.331,-0.502 0.281,-0.502L0.072,-0.502L0.072,-0.575L0.285,-0.575C0.36,-0.575 0.417,-0.557 0.456,-0.521C0.494,-0.484 0.514,-0.43 0.514,-0.358L0.514,-0L0.423,-0ZM0.073,-0L0.073,-0.196C0.073,-0.23 0.076,-0.255 0.082,-0.273C0.087,-0.291 0.093,-0.306 0.099,-0.318L0.173,-0.318C0.169,-0.303 0.166,-0.287 0.164,-0.269C0.162,-0.251 0.161,-0.229 0.161,-0.202L0.161,-0L0.073,-0Z" style="fill:white;fill-rule:nonzero;"/>
                </g>
                <g transform="matrix(113.914,0,0,113.914,2057.33,180.036)">
                    <path d="M0.285,0.01C0.257,0.01 0.227,0.007 0.194,0.001C0.161,-0.004 0.128,-0.012 0.097,-0.023L0.115,-0.091C0.145,-0.082 0.174,-0.075 0.204,-0.071C0.233,-0.067 0.259,-0.064 0.281,-0.064C0.335,-0.065 0.376,-0.079 0.405,-0.105C0.434,-0.131 0.448,-0.169 0.448,-0.218L0.448,-0.502L0.218,-0.502C0.207,-0.485 0.199,-0.462 0.193,-0.434C0.186,-0.406 0.183,-0.379 0.183,-0.352L0.183,-0.308C0.191,-0.305 0.2,-0.303 0.212,-0.301C0.224,-0.3 0.24,-0.299 0.259,-0.299L0.259,-0.221C0.232,-0.221 0.209,-0.222 0.19,-0.224C0.172,-0.226 0.155,-0.229 0.14,-0.234C0.125,-0.239 0.11,-0.246 0.095,-0.254L0.093,-0.328C0.093,-0.361 0.097,-0.393 0.105,-0.425C0.114,-0.456 0.125,-0.482 0.139,-0.502L0.069,-0.502L0.069,-0.575L0.539,-0.575L0.539,-0.235C0.539,-0.18 0.528,-0.134 0.506,-0.097C0.484,-0.061 0.454,-0.034 0.416,-0.016C0.378,0.001 0.334,0.01 0.285,0.01Z" style="fill:white;fill-rule:nonzero;"/>
                </g>
                <g transform="matrix(113.914,0,0,113.914,2128.74,180.036)">
                    <path d="M0.132,-0.254L0.132,-0.502L0.027,-0.502L0.027,-0.575L0.223,-0.575L0.223,-0.254L0.132,-0.254Z" style="fill:white;fill-rule:nonzero;"/>
                </g>
                <g transform="matrix(113.914,0,0,113.914,2163.12,180.036)">
                    <path d="M0.116,-0L0.116,-0.502L0.049,-0.502L0.049,-0.575L0.207,-0.575L0.207,-0L0.116,-0Z" style="fill:white;fill-rule:nonzero;"/>
                </g>
                <g transform="matrix(113.914,0,0,113.914,2196.71,180.036)">
                    <path d="M0.323,-0.575C0.399,-0.575 0.456,-0.557 0.494,-0.521C0.531,-0.484 0.55,-0.429 0.55,-0.355L0.55,-0L0.46,-0L0.459,-0.36C0.459,-0.41 0.449,-0.446 0.427,-0.469C0.406,-0.491 0.372,-0.502 0.324,-0.502L0.243,-0.502C0.232,-0.485 0.223,-0.462 0.217,-0.435C0.211,-0.407 0.208,-0.379 0.208,-0.35L0.208,-0.156C0.208,-0.103 0.195,-0.063 0.17,-0.036C0.144,-0.009 0.108,0.005 0.061,0.005C0.051,0.005 0.041,0.004 0.032,0.004C0.024,0.003 0.014,0.002 0.004,0L0.004,-0.072C0.01,-0.072 0.016,-0.071 0.022,-0.071C0.027,-0.07 0.033,-0.07 0.038,-0.07C0.067,-0.07 0.087,-0.078 0.1,-0.092C0.113,-0.107 0.119,-0.13 0.119,-0.162L0.119,-0.343C0.119,-0.372 0.123,-0.402 0.131,-0.431C0.138,-0.461 0.149,-0.485 0.163,-0.502L0.055,-0.502L0.055,-0.575L0.323,-0.575Z" style="fill:white;fill-rule:nonzero;"/>
                </g>
                <g transform="matrix(113.914,0,0,113.914,2296.11,180.036)">
                    <path d="M0.423,-0L0.423,-0.361C0.423,-0.411 0.412,-0.447 0.389,-0.469C0.367,-0.491 0.331,-0.502 0.281,-0.502L0.072,-0.502L0.072,-0.575L0.285,-0.575C0.36,-0.575 0.417,-0.557 0.456,-0.521C0.494,-0.484 0.514,-0.43 0.514,-0.358L0.514,-0L0.423,-0ZM0.073,-0L0.073,-0.196C0.073,-0.23 0.076,-0.255 0.082,-0.273C0.087,-0.291 0.093,-0.306 0.099,-0.318L0.173,-0.318C0.169,-0.303 0.166,-0.287 0.164,-0.269C0.162,-0.251 0.161,-0.229 0.161,-0.202L0.161,-0L0.073,-0Z" style="fill:white;fill-rule:nonzero;"/>
                </g>
                <g transform="matrix(113.914,0,0,113.914,2363.08,180.036)">
                    <path d="M0.083,-0L0.127,-0.366C0.131,-0.393 0.139,-0.418 0.15,-0.441C0.162,-0.465 0.176,-0.483 0.192,-0.496C0.194,-0.497 0.2,-0.501 0.202,-0.502L0.201,-0.504C0.186,-0.502 0.168,-0.498 0.146,-0.492C0.124,-0.486 0.104,-0.48 0.085,-0.474L0.064,-0.542C0.09,-0.551 0.117,-0.558 0.146,-0.565C0.176,-0.571 0.206,-0.577 0.236,-0.58C0.266,-0.584 0.294,-0.586 0.321,-0.586C0.398,-0.586 0.457,-0.565 0.498,-0.524C0.539,-0.483 0.56,-0.423 0.56,-0.343L0.56,-0L0.323,-0L0.323,-0.073L0.47,-0.073L0.47,-0.353C0.47,-0.404 0.458,-0.443 0.435,-0.47C0.412,-0.497 0.378,-0.51 0.334,-0.51C0.303,-0.51 0.277,-0.498 0.255,-0.473C0.234,-0.449 0.221,-0.416 0.216,-0.375L0.173,-0L0.083,-0Z" style="fill:white;fill-rule:nonzero;"/>
                </g>
                <g transform="matrix(113.914,0,0,113.914,2435.33,180.036)">
                    <path d="M0.326,0.011C0.278,0.011 0.236,-0 0.2,-0.022C0.163,-0.044 0.135,-0.075 0.115,-0.115C0.094,-0.154 0.084,-0.201 0.083,-0.253L0.083,-0.312C0.083,-0.337 0.087,-0.362 0.094,-0.387C0.101,-0.412 0.11,-0.434 0.123,-0.453C0.135,-0.473 0.149,-0.488 0.165,-0.499C0.166,-0.499 0.167,-0.5 0.168,-0.501C0.169,-0.502 0.17,-0.502 0.171,-0.502L0.171,-0.504C0.159,-0.503 0.143,-0.5 0.124,-0.495C0.105,-0.49 0.086,-0.485 0.068,-0.48L0.05,-0.548C0.076,-0.556 0.104,-0.562 0.134,-0.568C0.164,-0.574 0.195,-0.578 0.225,-0.581C0.256,-0.584 0.285,-0.586 0.312,-0.586C0.365,-0.586 0.411,-0.575 0.45,-0.554C0.488,-0.533 0.518,-0.503 0.538,-0.464C0.559,-0.425 0.569,-0.378 0.569,-0.322L0.569,-0.253C0.569,-0.201 0.559,-0.154 0.539,-0.115C0.519,-0.075 0.491,-0.044 0.454,-0.022C0.418,-0 0.375,0.011 0.326,0.011ZM0.326,-0.066C0.357,-0.066 0.384,-0.074 0.406,-0.089C0.429,-0.105 0.447,-0.127 0.46,-0.155C0.473,-0.183 0.479,-0.215 0.479,-0.253L0.479,-0.321C0.479,-0.36 0.473,-0.394 0.46,-0.422C0.447,-0.45 0.429,-0.472 0.405,-0.487C0.382,-0.502 0.353,-0.51 0.321,-0.51C0.292,-0.51 0.266,-0.502 0.244,-0.487C0.223,-0.471 0.206,-0.449 0.194,-0.42C0.181,-0.391 0.175,-0.357 0.174,-0.317L0.174,-0.253C0.174,-0.215 0.18,-0.183 0.193,-0.155C0.206,-0.127 0.223,-0.105 0.246,-0.089C0.269,-0.074 0.296,-0.066 0.326,-0.066Z" style="fill:white;fill-rule:nonzero;"/>
                </g>
                <g transform="matrix(113.914,0,0,113.914,2507.92,180.036)">
                    <path d="M0.323,-0.575C0.399,-0.575 0.456,-0.557 0.494,-0.521C0.531,-0.484 0.55,-0.429 0.55,-0.355L0.55,-0L0.46,-0L0.459,-0.36C0.459,-0.41 0.449,-0.446 0.427,-0.469C0.406,-0.491 0.372,-0.502 0.324,-0.502L0.243,-0.502C0.232,-0.485 0.223,-0.462 0.217,-0.435C0.211,-0.407 0.208,-0.379 0.208,-0.35L0.208,-0.156C0.208,-0.103 0.195,-0.063 0.17,-0.036C0.144,-0.009 0.108,0.005 0.061,0.005C0.051,0.005 0.041,0.004 0.032,0.004C0.024,0.003 0.014,0.002 0.004,0L0.004,-0.072C0.01,-0.072 0.016,-0.071 0.022,-0.071C0.027,-0.07 0.033,-0.07 0.038,-0.07C0.067,-0.07 0.087,-0.078 0.1,-0.092C0.113,-0.107 0.119,-0.13 0.119,-0.162L0.119,-0.343C0.119,-0.372 0.123,-0.402 0.131,-0.431C0.138,-0.461 0.149,-0.485 0.163,-0.502L0.055,-0.502L0.055,-0.575L0.323,-0.575Z" style="fill:white;fill-rule:nonzero;"/>
                </g>
                <g transform="matrix(113.914,0,0,113.914,2579.06,180.036)">
                    <path d="M0.116,-0L0.116,-0.502L0.049,-0.502L0.049,-0.575L0.207,-0.575L0.207,-0L0.116,-0Z" style="fill:white;fill-rule:nonzero;"/>
                </g>
                <g transform="matrix(113.914,0,0,113.914,2612.66,180.036)">
                    <path d="M0.326,-0L0.326,-0.401C0.326,-0.433 0.316,-0.457 0.298,-0.475C0.28,-0.493 0.255,-0.502 0.223,-0.502L0.029,-0.502L0.029,-0.575L0.226,-0.575C0.285,-0.575 0.332,-0.559 0.365,-0.528C0.399,-0.496 0.416,-0.451 0.416,-0.395L0.416,-0L0.326,-0Z" style="fill:white;fill-rule:nonzero;"/>
                </g>
                <g transform="matrix(113.914,0,0,113.914,2668.56,180.036)">
                    <path d="M0.132,-0.254L0.132,-0.502L0.027,-0.502L0.027,-0.575L0.223,-0.575L0.223,-0.254L0.132,-0.254Z" style="fill:white;fill-rule:nonzero;"/>
                </g>
                <g transform="matrix(113.914,0,0,113.914,2702.93,180.036)">
                    <path d="M0.116,-0L0.116,-0.502L0.049,-0.502L0.049,-0.575L0.207,-0.575L0.207,-0L0.116,-0Z" style="fill:white;fill-rule:nonzero;"/>
                </g>
                <g transform="matrix(113.914,0,0,113.914,2736.53,180.036)">
                    <path d="M0.323,-0.575C0.399,-0.575 0.456,-0.557 0.494,-0.521C0.531,-0.484 0.55,-0.429 0.55,-0.355L0.55,-0L0.46,-0L0.459,-0.36C0.459,-0.41 0.449,-0.446 0.427,-0.469C0.406,-0.491 0.372,-0.502 0.324,-0.502L0.243,-0.502C0.232,-0.485 0.223,-0.462 0.217,-0.435C0.211,-0.407 0.208,-0.379 0.208,-0.35L0.208,-0.156C0.208,-0.103 0.195,-0.063 0.17,-0.036C0.144,-0.009 0.108,0.005 0.061,0.005C0.051,0.005 0.041,0.004 0.032,0.004C0.024,0.003 0.014,0.002 0.004,0L0.004,-0.072C0.01,-0.072 0.016,-0.071 0.022,-0.071C0.027,-0.07 0.033,-0.07 0.038,-0.07C0.067,-0.07 0.087,-0.078 0.1,-0.092C0.113,-0.107 0.119,-0.13 0.119,-0.162L0.119,-0.343C0.119,-0.372 0.123,-0.402 0.131,-0.431C0.138,-0.461 0.149,-0.485 0.163,-0.502L0.055,-0.502L0.055,-0.575L0.323,-0.575Z" style="fill:white;fill-rule:nonzero;"/>
                </g>
                <g transform="matrix(113.914,0,0,113.914,2835.92,180.036)">
                    <path d="M0.176,-0.575L0.176,-0.102C0.207,-0.089 0.24,-0.079 0.274,-0.071C0.309,-0.063 0.342,-0.06 0.374,-0.06C0.419,-0.06 0.461,-0.066 0.498,-0.079C0.534,-0.093 0.564,-0.113 0.585,-0.14C0.607,-0.167 0.618,-0.201 0.618,-0.243L0.618,-0.575L0.706,-0.575L0.706,-0.235C0.706,-0.193 0.697,-0.156 0.68,-0.125C0.662,-0.094 0.639,-0.068 0.608,-0.048C0.578,-0.027 0.543,-0.012 0.504,-0.001C0.465,0.009 0.423,0.014 0.378,0.014C0.331,0.014 0.283,0.008 0.232,-0.003C0.182,-0.014 0.134,-0.031 0.088,-0.053L0.088,-0.575L0.176,-0.575ZM0.314,-0.159C0.327,-0.172 0.336,-0.189 0.342,-0.212C0.348,-0.234 0.351,-0.26 0.351,-0.289L0.351,-0.575L0.439,-0.575L0.439,-0.305C0.439,-0.272 0.435,-0.243 0.427,-0.219C0.42,-0.194 0.407,-0.173 0.39,-0.156L0.314,-0.159Z" style="fill:white;fill-rule:nonzero;"/>
                </g>
                <g transform="matrix(113.914,0,0,113.914,2926.36,180.036)">
                    <path d="M0.041,-0.502L0.041,-0.75L0.131,-0.75L0.131,-0.575L0.443,-0.575L0.443,-0.502L0.041,-0.502ZM0.478,-0.518L0.267,-0L0.169,-0L0.408,-0.575L0.478,-0.575L0.478,-0.518Z" style="fill:white;fill-rule:nonzero;"/>
                </g>
                <g transform="matrix(113.914,0,0,113.914,3013.14,180.036)">
                    <path d="M0.423,-0L0.423,-0.361C0.423,-0.411 0.412,-0.447 0.389,-0.469C0.367,-0.491 0.331,-0.502 0.281,-0.502L0.072,-0.502L0.072,-0.575L0.285,-0.575C0.36,-0.575 0.417,-0.557 0.456,-0.521C0.494,-0.484 0.514,-0.43 0.514,-0.358L0.514,-0L0.423,-0ZM0.073,-0L0.073,-0.196C0.073,-0.23 0.076,-0.255 0.082,-0.273C0.087,-0.291 0.093,-0.306 0.099,-0.318L0.173,-0.318C0.169,-0.303 0.166,-0.287 0.164,-0.269C0.162,-0.251 0.161,-0.229 0.161,-0.202L0.161,-0L0.073,-0Z" style="fill:white;fill-rule:nonzero;"/>
                </g>
                <g transform="matrix(113.914,0,0,113.914,3080.1,180.036)">
                    <path d="M0.083,-0L0.127,-0.366C0.131,-0.393 0.139,-0.418 0.15,-0.441C0.162,-0.465 0.176,-0.483 0.192,-0.496C0.194,-0.497 0.2,-0.501 0.202,-0.502L0.201,-0.504C0.186,-0.502 0.168,-0.498 0.146,-0.492C0.124,-0.486 0.104,-0.48 0.085,-0.474L0.064,-0.542C0.09,-0.551 0.117,-0.558 0.146,-0.565C0.176,-0.571 0.206,-0.577 0.236,-0.58C0.266,-0.584 0.294,-0.586 0.321,-0.586C0.398,-0.586 0.457,-0.565 0.498,-0.524C0.539,-0.483 0.56,-0.423 0.56,-0.343L0.56,-0L0.323,-0L0.323,-0.073L0.47,-0.073L0.47,-0.353C0.47,-0.404 0.458,-0.443 0.435,-0.47C0.412,-0.497 0.378,-0.51 0.334,-0.51C0.303,-0.51 0.277,-0.498 0.255,-0.473C0.234,-0.449 0.221,-0.416 0.216,-0.375L0.173,-0L0.083,-0Z" style="fill:white;fill-rule:nonzero;"/>
                </g>
                <g transform="matrix(113.914,0,0,113.914,3152.36,180.036)">
                    <path d="M0.202,0.008C0.178,0.008 0.152,0.006 0.125,0.002C0.098,-0.003 0.069,-0.009 0.04,-0.018L0.054,-0.085C0.108,-0.071 0.155,-0.064 0.196,-0.064C0.249,-0.065 0.29,-0.079 0.317,-0.105C0.345,-0.132 0.359,-0.169 0.359,-0.218L0.359,-0.502L0.06,-0.502L0.06,-0.575L0.449,-0.575L0.449,-0.238C0.449,-0.182 0.439,-0.136 0.419,-0.1C0.399,-0.063 0.37,-0.036 0.333,-0.018C0.296,-0.001 0.253,0.008 0.202,0.008Z" style="fill:white;fill-rule:nonzero;"/>
                </g>
                <g transform="matrix(113.914,0,0,113.914,3213.6,180.036)">
                    <path d="M0.116,-0L0.116,-0.502L0.049,-0.502L0.049,-0.575L0.207,-0.575L0.207,-0L0.116,-0Z" style="fill:white;fill-rule:nonzero;"/>
                </g>
                <g transform="matrix(113.914,0,0,113.914,3247.19,180.036)">
                    <path d="M0.11,0.203L0.11,-0.502L0.042,-0.502L0.042,-0.575L0.199,-0.575L0.199,0.203L0.11,0.203Z" style="fill:white;fill-rule:nonzero;"/>
                </g>
                <g transform="matrix(113.914,0,0,113.914,3308.21,180.036)">
                    <path d="M0.423,-0L0.423,-0.361C0.423,-0.411 0.412,-0.447 0.389,-0.469C0.367,-0.491 0.331,-0.502 0.281,-0.502L0.072,-0.502L0.072,-0.575L0.285,-0.575C0.36,-0.575 0.417,-0.557 0.456,-0.521C0.494,-0.484 0.514,-0.43 0.514,-0.358L0.514,-0L0.423,-0ZM0.073,-0L0.073,-0.196C0.073,-0.23 0.076,-0.255 0.082,-0.273C0.087,-0.291 0.093,-0.306 0.099,-0.318L0.173,-0.318C0.169,-0.303 0.166,-0.287 0.164,-0.269C0.162,-0.251 0.161,-0.229 0.161,-0.202L0.161,-0L0.073,-0Z" style="fill:white;fill-rule:nonzero;"/>
                </g>
                <g transform="matrix(113.914,0,0,113.914,3375.18,180.036)">
                    <path d="M0.041,-0.502L0.041,-0.75L0.131,-0.75L0.131,-0.575L0.443,-0.575L0.443,-0.502L0.041,-0.502ZM0.478,-0.518L0.267,-0L0.169,-0L0.408,-0.575L0.478,-0.575L0.478,-0.518Z" style="fill:white;fill-rule:nonzero;"/>
                </g>
                <g transform="matrix(113.914,0,0,113.914,3433.69,180.036)">
                    <path d="M0.491,-0L0.074,-0.575L0.176,-0.575L0.592,-0L0.491,-0ZM0.095,-0L0.095,-0.208C0.095,-0.262 0.105,-0.306 0.125,-0.338C0.144,-0.371 0.175,-0.395 0.217,-0.411L0.253,-0.364C0.206,-0.343 0.183,-0.302 0.183,-0.241L0.183,-0L0.095,-0ZM0.595,-0.575L0.396,-0.228L0.336,-0.298L0.493,-0.575L0.595,-0.575Z" style="fill:white;fill-rule:nonzero;"/>
                </g>
                <g transform="matrix(113.914,0,0,113.914,3506.78,180.036)">
                    <path d="M0.116,-0L0.116,-0.502L0.049,-0.502L0.049,-0.575L0.207,-0.575L0.207,-0L0.116,-0Z" style="fill:white;fill-rule:nonzero;"/>
                </g>
                <g transform="matrix(113.914,0,0,113.914,3540.38,180.036)">
                    <path d="M0.083,-0L0.127,-0.366C0.131,-0.393 0.139,-0.418 0.15,-0.441C0.162,-0.465 0.176,-0.483 0.192,-0.496C0.194,-0.497 0.2,-0.501 0.202,-0.502L0.201,-0.504C0.186,-0.502 0.168,-0.498 0.146,-0.492C0.124,-0.486 0.104,-0.48 0.085,-0.474L0.064,-0.542C0.09,-0.551 0.117,-0.558 0.146,-0.565C0.176,-0.571 0.206,-0.577 0.236,-0.58C0.266,-0.584 0.294,-0.586 0.321,-0.586C0.398,-0.586 0.457,-0.565 0.498,-0.524C0.539,-0.483 0.56,-0.423 0.56,-0.343L0.56,-0L0.323,-0L0.323,-0.073L0.47,-0.073L0.47,-0.353C0.47,-0.404 0.458,-0.443 0.435,-0.47C0.412,-0.497 0.378,-0.51 0.334,-0.51C0.303,-0.51 0.277,-0.498 0.255,-0.473C0.234,-0.449 0.221,-0.416 0.216,-0.375L0.173,-0L0.083,-0Z" style="fill:white;fill-rule:nonzero;"/>
                </g>
                <g transform="matrix(113.914,0,0,113.914,3612.63,180.036)">
                    <path d="M0.132,-0.254L0.132,-0.502L0.027,-0.502L0.027,-0.575L0.223,-0.575L0.223,-0.254L0.132,-0.254Z" style="fill:white;fill-rule:nonzero;"/>
                </g>
                <g transform="matrix(113.914,0,0,113.914,3675.26,180.036)">
                    <path d="M0.041,-0.502L0.041,-0.75L0.131,-0.75L0.131,-0.575L0.443,-0.575L0.443,-0.502L0.041,-0.502ZM0.478,-0.518L0.267,-0L0.169,-0L0.408,-0.575L0.478,-0.575L0.478,-0.518Z" style="fill:white;fill-rule:nonzero;"/>
                </g>
                <g transform="matrix(113.914,0,0,113.914,3733.77,180.036)">
                    <path d="M0.083,-0L0.127,-0.366C0.131,-0.393 0.139,-0.418 0.15,-0.441C0.162,-0.465 0.176,-0.483 0.192,-0.496C0.194,-0.497 0.2,-0.501 0.202,-0.502L0.201,-0.504C0.186,-0.502 0.168,-0.498 0.146,-0.492C0.124,-0.486 0.104,-0.48 0.085,-0.474L0.064,-0.542C0.09,-0.551 0.117,-0.558 0.146,-0.565C0.176,-0.571 0.206,-0.577 0.236,-0.58C0.266,-0.584 0.294,-0.586 0.321,-0.586C0.398,-0.586 0.457,-0.565 0.498,-0.524C0.539,-0.483 0.56,-0.423 0.56,-0.343L0.56,-0L0.323,-0L0.323,-0.073L0.47,-0.073L0.47,-0.353C0.47,-0.404 0.458,-0.443 0.435,-0.47C0.412,-0.497 0.378,-0.51 0.334,-0.51C0.303,-0.51 0.277,-0.498 0.255,-0.473C0.234,-0.449 0.221,-0.416 0.216,-0.375L0.173,-0L0.083,-0Z" style="fill:white;fill-rule:nonzero;"/>
                </g>
                <g transform="matrix(113.914,0,0,113.914,3806.03,180.036)">
                    <path d="M0.088,-0L0.089,-0.575L0.305,-0.575C0.381,-0.575 0.438,-0.557 0.476,-0.521C0.513,-0.484 0.532,-0.429 0.532,-0.355L0.532,-0L0.442,-0L0.442,-0.36C0.442,-0.41 0.431,-0.446 0.41,-0.469C0.388,-0.491 0.354,-0.502 0.306,-0.502L0.179,-0.502L0.179,-0L0.088,-0Z" style="fill:white;fill-rule:nonzero;"/>
                </g>
                <g transform="matrix(113.914,0,0,113.914,3875.17,180.036)">
                    <path d="M0.282,-0L0.282,-0.071C0.33,-0.073 0.369,-0.088 0.398,-0.117C0.428,-0.145 0.442,-0.185 0.442,-0.235L0.442,-0.502L0.087,-0.502L0.087,-0.575L0.533,-0.575L0.533,-0.237C0.533,-0.189 0.523,-0.147 0.502,-0.112C0.481,-0.077 0.452,-0.05 0.414,-0.031C0.376,-0.011 0.332,-0.001 0.282,-0ZM0.099,0.203L0.099,-0.216C0.099,-0.249 0.101,-0.274 0.107,-0.292C0.112,-0.309 0.118,-0.324 0.124,-0.336L0.198,-0.336C0.194,-0.322 0.191,-0.306 0.189,-0.288C0.187,-0.27 0.187,-0.248 0.187,-0.221L0.187,0.203L0.099,0.203Z" style="fill:white;fill-rule:nonzero;"/>
                </g>
                <g transform="matrix(113.914,0,0,113.914,3945.97,180.036)">
                    <path d="M0.326,-0L0.326,-0.401C0.326,-0.433 0.316,-0.457 0.298,-0.475C0.28,-0.493 0.255,-0.502 0.223,-0.502L0.029,-0.502L0.029,-0.575L0.226,-0.575C0.285,-0.575 0.332,-0.559 0.365,-0.528C0.399,-0.496 0.416,-0.451 0.416,-0.395L0.416,-0L0.326,-0Z" style="fill:white;fill-rule:nonzero;"/>
                </g>
            </g>
        </g>
    </g>
</svg>
