<?xml version="1.0" encoding="UTF-8" standalone="no"?>
<!DOCTYPE svg PUBLIC "-//W3C//DTD SVG 1.1//EN" "http://www.w3.org/Graphics/SVG/1.1/DTD/svg11.dtd">
<svg width="100%" height="100%" viewBox="0 0 638 163" version="1.1" xmlns="http://www.w3.org/2000/svg" xmlns:xlink="http://www.w3.org/1999/xlink" xml:space="preserve" xmlns:serif="http://www.serif.com/" style="fill-rule:evenodd;clip-rule:evenodd;stroke-linejoin:round;stroke-miterlimit:2;">
    <g transform="matrix(1,0,0,1,-4823.55,-2714.07)">
        <g id="图层1">
        </g>
        <g id="Artboard5" transform="matrix(1.27298,0,0,1,-476.687,563.235)">
            <rect x="4163.65" y="2150.84" width="501.139" height="162.726" style="fill:none;"/>
            <g transform="matrix(1.03215,0,0,1,-153.951,0.892833)">
                <path d="M4224.38,2293.06L4192.86,2293.06L4208.16,2235.86C4208.35,2236.1 4208.55,2236.34 4208.76,2236.57L4236.83,2268.18L4229.9,2276C4226.18,2280.18 4224.31,2285.7 4224.31,2291.19C4224.31,2291.81 4224.33,2292.44 4224.38,2293.06ZM4219.19,2194.59L4225.89,2169.56L4241.34,2169.56L4219.19,2194.59ZM4284.42,2169.56L4662.74,2169.56L4629.71,2293.06L4268.73,2293.06L4300.17,2257.65C4303.89,2253.48 4305.77,2247.94 4305.76,2242.46C4305.77,2236.98 4303.89,2231.45 4300.17,2227.26L4295.75,2222.28L4272.1,2195.65L4279.04,2187.85C4282.75,2183.67 4284.63,2178.12 4284.62,2172.66C4284.62,2171.61 4284.55,2170.58 4284.42,2169.56ZM4212.67,2218.99L4213.1,2217.39C4213.57,2216.01 4214.31,2214.71 4215.32,2213.58C4217.25,2211.39 4219.73,2210.34 4222.25,2210.33C4224.78,2210.34 4227.27,2211.39 4229.2,2213.56C4231.11,2215.73 4232.05,2218.54 4232.06,2221.38C4232.05,2224.22 4231.11,2227.01 4229.2,2229.18L4235.74,2236.57L4265.54,2203.04L4289.19,2229.67L4293.62,2234.66C4295.54,2236.81 4296.5,2239.62 4296.5,2242.46C4296.5,2245.3 4295.54,2248.09 4293.62,2250.27L4261.89,2285.98C4261.07,2282.2 4259.34,2278.75 4256.9,2276L4252.46,2271.01L4215.32,2229.18C4213.39,2227.01 4212.44,2224.22 4212.44,2221.38C4212.44,2220.58 4212.52,2219.78 4212.67,2218.99ZM4254.44,2169.56L4274.95,2169.56C4275.21,2170.57 4275.34,2171.61 4275.35,2172.66C4275.33,2175.5 4274.4,2178.29 4272.47,2180.46L4269.73,2183.54L4240.77,2216.15C4239.95,2212.5 4238.28,2209.03 4235.74,2206.18C4233.25,2203.37 4230.21,2201.5 4227.01,2200.57L4254.44,2169.56ZM4253.07,2293.06L4233.73,2293.06C4233.64,2292.44 4233.59,2291.82 4233.59,2291.19C4233.59,2288.35 4234.53,2285.54 4236.46,2283.39L4243.39,2275.57L4245.9,2278.4L4250.34,2283.37C4252.27,2285.54 4253.2,2288.35 4253.21,2291.19C4253.21,2291.82 4253.16,2292.44 4253.07,2293.06ZM4525.13,2196.07L4525.37,2195.75L4525.13,2195.43C4524.97,2195.43 4524.69,2195.41 4524.28,2195.38C4523.88,2195.34 4523.46,2195.33 4523.03,2195.33C4522.6,2195.33 4522.2,2195.34 4521.82,2195.38C4521.44,2195.41 4521.23,2195.47 4521.17,2195.54L4521.33,2195.86C4521.49,2196 4521.74,2196.09 4522.06,2196.12C4522.38,2196.16 4522.75,2196.18 4523.15,2196.18C4523.56,2196.18 4523.93,2196.16 4524.28,2196.12C4524.63,2196.09 4524.92,2196.07 4525.13,2196.07ZM4549.05,2266.46L4548.81,2266.03C4547.68,2265.82 4546.14,2265.27 4544.2,2264.39C4542.26,2263.5 4540.3,2262.58 4538.3,2261.63C4536.31,2260.67 4534.48,2259.8 4532.81,2259.03C4531.14,2258.25 4530.03,2257.86 4529.49,2257.86C4529.28,2257.86 4529.16,2257.98 4529.13,2258.23C4529.1,2258.48 4529.09,2258.67 4529.09,2258.81C4529.09,2260.51 4529.47,2262.58 4530.22,2265.03C4530.98,2267.47 4531.96,2269.84 4533.17,2272.14C4534.38,2274.44 4535.73,2276.38 4537.21,2277.98C4538.69,2279.57 4540.16,2280.37 4541.61,2280.37C4541.99,2280.37 4542.36,2279.82 4542.71,2278.72C4543.06,2277.62 4543.49,2276.33 4544,2274.85C4544.51,2273.36 4545.14,2271.87 4545.9,2270.39C4546.65,2268.9 4547.62,2267.77 4548.81,2266.99L4549.05,2266.46ZM4458.07,2278.24C4459.74,2278.24 4461.06,2277.68 4462.03,2276.54C4462.99,2275.41 4463.48,2273.71 4463.48,2271.45C4463.48,2268.4 4462.66,2266.01 4461.02,2264.28C4459.37,2262.55 4457.39,2261.22 4455.08,2260.3C4452.76,2259.38 4450.36,2258.8 4447.89,2258.55C4445.41,2258.3 4443.33,2258.18 4441.66,2258.18C4441.45,2258.18 4441.34,2258.32 4441.34,2258.6C4441.34,2258.74 4441.52,2259.06 4441.86,2259.56C4442.22,2260.05 4442.61,2260.58 4443.04,2261.15C4443.47,2261.72 4443.89,2262.25 4444.29,2262.74C4444.69,2263.24 4444.95,2263.59 4445.06,2263.8C4445.76,2264.8 4446.62,2266.1 4447.64,2267.73C4448.67,2269.36 4449.77,2270.95 4450.95,2272.51C4452.14,2274.07 4453.35,2275.41 4454.59,2276.54C4455.83,2277.68 4456.99,2278.24 4458.07,2278.24ZM4497.01,2279.41L4496.77,2280.05L4497.01,2280.26C4500.14,2279.55 4503.13,2278.64 4505.98,2277.51C4508.84,2276.38 4511.49,2274.88 4513.94,2273.01C4516.39,2271.13 4518.61,2268.8 4520.61,2266.02C4522.6,2263.23 4524.32,2259.86 4525.78,2255.9C4526.42,2254.07 4526.9,2252.2 4527.19,2250.29C4527.49,2248.38 4527.74,2246.44 4527.96,2244.47C4527.96,2244.25 4527.99,2243.9 4528.04,2243.41C4528.09,2242.91 4528.16,2242.37 4528.24,2241.77C4528.32,2241.16 4528.39,2240.64 4528.44,2240.18C4528.5,2239.72 4528.55,2239.45 4528.61,2239.38C4528.82,2238.96 4529.06,2238.71 4529.33,2238.64C4529.6,2238.57 4529.93,2238.54 4530.3,2238.54C4531.65,2238.54 4532.47,2238.76 4532.77,2239.21C4533.06,2239.66 4533.24,2240.14 4533.29,2240.66C4533.35,2241.18 4533.43,2241.66 4533.53,2242.11C4533.64,2242.56 4534.18,2242.78 4535.15,2242.78C4535.42,2242.78 4535.8,2242.71 4536.28,2242.57C4536.77,2242.43 4537.25,2242.32 4537.74,2242.25C4538.22,2242.18 4538.68,2242.18 4539.11,2242.25C4539.54,2242.32 4539.81,2242.61 4539.92,2243.1C4539.97,2243.24 4539.92,2243.51 4539.76,2243.9C4539.6,2244.29 4539.41,2244.69 4539.19,2245.12C4538.98,2245.54 4538.75,2245.95 4538.5,2246.34C4538.26,2246.73 4538.11,2246.99 4538.06,2247.14C4537.36,2248.41 4536.73,2249.38 4536.16,2250.05C4535.6,2250.73 4535,2251.24 4534.38,2251.6C4533.76,2251.95 4533.08,2252.2 4532.32,2252.34C4531.57,2252.48 4530.63,2252.62 4529.49,2252.76C4529.39,2252.76 4529.31,2252.8 4529.25,2252.87L4529.41,2253.19C4529.63,2253.33 4529.82,2253.4 4529.98,2253.4C4530.19,2253.47 4530.81,2253.51 4531.84,2253.51L4540,2253.51C4541.61,2253.51 4543.1,2253.49 4544.44,2253.45C4545.79,2253.42 4546.92,2253.38 4547.84,2253.35C4548.75,2253.31 4549.24,2253.26 4549.29,2253.19C4549.4,2253.05 4549.45,2252.87 4549.45,2252.66C4549.45,2252.37 4549.03,2251.84 4548.2,2251.06C4547.36,2250.28 4546.44,2249.38 4545.41,2248.36C4544.39,2247.33 4543.46,2246.25 4542.62,2245.12C4541.79,2243.99 4541.37,2242.92 4541.37,2241.93C4541.37,2241.08 4541.61,2240.5 4542.1,2240.18C4542.59,2239.86 4542.83,2239.42 4542.83,2238.86L4542.83,2215.82C4542.83,2215.46 4543.06,2215.04 4543.51,2214.54C4543.97,2214.05 4544.31,2213.66 4544.52,2213.38L4544.77,2212.63C4544.71,2211.57 4544.24,2210.67 4543.35,2209.92C4542.46,2209.18 4541.51,2208.4 4540.48,2207.59C4539.46,2206.78 4538.53,2205.8 4537.7,2204.67C4536.86,2203.54 4536.44,2202.05 4536.44,2200.21C4536.44,2200 4536.46,2199.68 4536.48,2199.26C4536.51,2198.83 4536.57,2198.41 4536.65,2197.98C4536.73,2197.56 4536.85,2197.2 4537.01,2196.92C4537.17,2196.64 4537.39,2196.49 4537.66,2196.49L4548.08,2196.49C4548.46,2196.49 4548.69,2196.32 4548.77,2195.96C4548.85,2195.61 4548.83,2195.26 4548.73,2194.9C4548.67,2194.83 4548.3,2194.35 4547.59,2193.47C4546.89,2192.58 4546.11,2191.63 4545.25,2190.6C4544.39,2189.58 4543.58,2188.64 4542.83,2187.79C4542.07,2186.94 4541.61,2186.51 4541.45,2186.51C4541.13,2186.66 4540.75,2187.15 4540.32,2188L4539.03,2190.55C4538.6,2191.4 4538.18,2192.09 4537.78,2192.62C4537.37,2193.15 4537.06,2193.24 4536.85,2192.89C4536.74,2192.74 4536.67,2192.35 4536.65,2191.72C4536.62,2191.08 4536.61,2190.37 4536.61,2189.59C4536.61,2188.82 4536.62,2188.07 4536.65,2187.36C4536.67,2186.66 4536.69,2186.16 4536.69,2185.88L4536.93,2185.14L4537.41,2184.5C4537.57,2184.28 4537.71,2184.04 4537.82,2183.75C4537.55,2183.54 4536.93,2183.33 4535.96,2183.12C4534.99,2182.91 4533.93,2182.69 4532.77,2182.48C4531.61,2182.27 4530.52,2182.11 4529.49,2182C4528.47,2181.9 4527.77,2181.84 4527.39,2181.84C4527.18,2181.84 4527.03,2182.02 4526.95,2182.37C4526.87,2182.73 4526.82,2183.14 4526.79,2183.6C4526.76,2184.05 4526.76,2184.5 4526.79,2184.92C4526.82,2185.35 4526.83,2185.66 4526.83,2185.88C4526.83,2186.73 4526.82,2187.97 4526.79,2189.59C4526.76,2191.22 4526.76,2192.94 4526.79,2194.74C4526.82,2196.55 4526.87,2198.21 4526.95,2199.73C4527.03,2201.25 4527.18,2202.33 4527.39,2202.97C4527.66,2203.61 4527.93,2203.93 4528.2,2203.93L4529.25,2203.93C4530.17,2203.93 4531.1,2203.82 4532.04,2203.61C4532.98,2203.39 4533.91,2203.29 4534.83,2203.29C4535.2,2203.29 4535.43,2203.47 4535.51,2203.82C4535.6,2204.17 4535.61,2204.53 4535.56,2204.88C4535.56,2205.09 4535.37,2205.5 4534.99,2206.1C4534.61,2206.7 4534.19,2207.31 4533.74,2207.91C4533.28,2208.51 4532.83,2209.06 4532.4,2209.55C4531.97,2210.05 4531.68,2210.3 4531.52,2210.3L4514.55,2210.3C4513.41,2210.3 4512.27,2210.05 4511.11,2209.55C4509.95,2209.06 4508.8,2208.44 4507.64,2207.7C4506.48,2206.95 4505.38,2206.14 4504.32,2205.25C4503.27,2204.37 4502.32,2203.5 4501.46,2202.65C4501.03,2202.23 4500.58,2201.71 4500.12,2201.11C4499.66,2200.51 4499.19,2200.03 4498.71,2199.68L4498.31,2200C4498.2,2200.35 4498.04,2200.87 4497.82,2201.54C4497.61,2202.21 4497.34,2202.86 4497.01,2203.5C4496.69,2204.14 4496.35,2204.69 4496,2205.15C4495.65,2205.61 4495.32,2205.84 4494.99,2205.84C4494.72,2205.84 4494.59,2205.59 4494.59,2205.09C4494.32,2202.55 4494.17,2200 4494.14,2197.45C4494.12,2194.9 4494.1,2192.32 4494.1,2189.7C4494.1,2189.35 4494.09,2188.96 4494.06,2188.53C4494.04,2188.11 4494.05,2187.72 4494.1,2187.36C4494.16,2187.08 4494.29,2186.76 4494.51,2186.41C4494.72,2186.05 4494.97,2185.7 4495.23,2185.35L4495.96,2184.39C4496.18,2184.11 4496.28,2183.86 4496.28,2183.65C4496.28,2183.29 4496.06,2183.1 4495.6,2183.06C4495.14,2183.03 4494.83,2183.01 4494.67,2183.01C4493,2182.94 4491.34,2182.73 4489.7,2182.37C4488.06,2182.02 4486.37,2181.84 4484.65,2181.84C4484.11,2181.84 4483.84,2182.2 4483.84,2182.91L4483.84,2208.17C4483.84,2211.14 4483.67,2214.22 4483.32,2217.41C4482.97,2220.59 4482.48,2223.78 4481.86,2226.96C4481.24,2230.15 4480.52,2233.28 4479.68,2236.36C4478.85,2239.44 4477.94,2242.29 4476.97,2244.91L4474.23,2252.55C4474.17,2252.69 4474.15,2252.9 4474.15,2253.19C4474.15,2253.47 4474.2,2253.68 4474.31,2253.82C4474.52,2253.61 4474.9,2253.19 4475.44,2252.55C4475.98,2251.91 4476.54,2251.19 4477.14,2250.37C4477.73,2249.56 4478.31,2248.78 4478.87,2248.04L4480.12,2246.39C4480.66,2245.68 4481.14,2244.94 4481.54,2244.16C4481.94,2243.38 4482.36,2242.57 4482.79,2241.72C4482.95,2241.37 4483.14,2241.01 4483.36,2240.66C4483.57,2240.31 4483.84,2240.06 4484.16,2239.92C4484.33,2240.13 4484.41,2240.34 4484.41,2240.55L4484.41,2279.52C4484.41,2280.22 4484.68,2280.58 4485.22,2280.58C4485.65,2280.58 4486.36,2280.51 4487.36,2280.37C4488.35,2280.22 4489.38,2280.01 4490.43,2279.73C4491.48,2279.45 4492.39,2279.06 4493.17,2278.56C4493.95,2278.07 4494.35,2277.46 4494.35,2276.76L4494.35,2226.22C4494.35,2225.94 4494.49,2225.67 4494.79,2225.43C4495.09,2225.18 4495.32,2225.05 4495.48,2225.05C4495.8,2225.05 4496.06,2225.36 4496.24,2225.96C4496.43,2226.57 4496.57,2227.28 4496.65,2228.1C4496.73,2228.92 4496.78,2229.72 4496.81,2230.51C4496.84,2231.3 4496.88,2231.83 4496.93,2232.12C4497.09,2233.54 4497.34,2234.66 4497.66,2235.49C4497.98,2236.31 4498.41,2236.95 4498.95,2237.41C4499.49,2237.88 4500.11,2238.25 4500.81,2238.53C4501.51,2238.82 4502.32,2239.1 4503.23,2239.39C4503.77,2239.6 4504.04,2240.09 4504.04,2240.87L4504.04,2243.31C4504.04,2244.16 4504.2,2244.94 4504.53,2245.65C4504.85,2246.36 4505.63,2246.71 4506.87,2246.71C4507.79,2246.71 4508.65,2246.29 4509.46,2245.44C4510.26,2244.59 4511.03,2243.67 4511.76,2242.68C4512.49,2241.69 4513.19,2240.77 4513.86,2239.92C4514.53,2239.07 4515.17,2238.64 4515.76,2238.64C4516.46,2238.64 4516.89,2238.82 4517.05,2239.17C4517.21,2239.52 4517.29,2240.12 4517.29,2240.97C4517.29,2245.77 4516.84,2250.11 4515.92,2254C4515,2257.88 4513.68,2261.37 4511.96,2264.48C4510.24,2267.59 4508.12,2270.36 4505.62,2272.79C4503.11,2275.23 4500.24,2277.44 4497.01,2279.41ZM4494.67,2210.3L4502.99,2210.3C4503.32,2210.3 4503.5,2210.38 4503.56,2210.56L4503.8,2211.36C4503.96,2212.35 4504.08,2213.48 4504.16,2214.76C4504.24,2216.03 4504.3,2217.32 4504.32,2218.63C4504.35,2219.94 4504.36,2221.23 4504.36,2222.51L4504.36,2226.01C4504.36,2226.58 4504.12,2226.86 4503.64,2226.86C4503.37,2226.86 4502.76,2226.54 4501.82,2225.9C4500.88,2225.26 4499.91,2224.52 4498.91,2223.67C4497.91,2222.82 4496.98,2221.99 4496.12,2221.18C4495.26,2220.36 4494.78,2219.78 4494.67,2219.43C4494.56,2219.21 4494.48,2218.74 4494.43,2217.99C4494.37,2217.25 4494.33,2216.47 4494.31,2215.66L4494.23,2213.27C4494.2,2212.49 4494.18,2211.92 4494.18,2211.57L4494.18,2210.72C4494.18,2210.44 4494.35,2210.3 4494.67,2210.3ZM4532.57,2236.84L4532,2237.16L4529.98,2237.16C4529.01,2237.16 4527.91,2237.14 4526.67,2237.1C4525.43,2237.07 4524.12,2237.03 4522.75,2237C4521.37,2236.96 4520.1,2236.91 4518.91,2236.84C4517.72,2236.77 4516.73,2236.7 4515.92,2236.62C4515.11,2236.55 4514.6,2236.48 4514.39,2236.41C4514.17,2236.27 4513.97,2236.13 4513.78,2235.99C4513.59,2235.85 4513.5,2235.6 4513.5,2235.24L4513.5,2213.48C4513.5,2212.77 4513.77,2212.42 4514.3,2212.42L4532.08,2212.42C4532.62,2212.42 4532.89,2212.77 4532.89,2213.48L4532.89,2235.99L4532.65,2236.73L4532.57,2236.84ZM4515.44,2224.31C4515.49,2224.38 4515.57,2224.42 4515.68,2224.42L4527.19,2224.42C4528.24,2224.42 4529.1,2224.4 4529.78,2224.36C4530.45,2224.33 4530.84,2224.31 4530.95,2224.31C4530.9,2224.1 4530.75,2223.94 4530.51,2223.83C4530.26,2223.73 4530.09,2223.67 4529.98,2223.67L4516.4,2223.67C4516.3,2223.67 4516.12,2223.73 4515.88,2223.83C4515.64,2223.94 4515.49,2224.1 4515.44,2224.31ZM4474.47,2208.81L4474.15,2209.13L4474.47,2209.55L4481.5,2209.55L4481.74,2209.13L4481.5,2208.81L4474.47,2208.81ZM4520.12,2185.24C4520.34,2185.1 4520.54,2184.91 4520.73,2184.66C4520.92,2184.41 4521.04,2184.11 4521.09,2183.75C4520.98,2183.54 4520.46,2183.31 4519.52,2183.06C4518.57,2182.82 4517.54,2182.62 4516.4,2182.48C4515.27,2182.34 4514.18,2182.22 4513.13,2182.11C4512.08,2182 4511.4,2181.95 4511.07,2181.95C4510.53,2181.95 4510.26,2182.3 4510.26,2183.01L4510.26,2204.56C4510.26,2205.06 4510.43,2205.31 4510.75,2205.31L4511.64,2205.31C4512.12,2205.31 4512.74,2205.29 4513.5,2205.25C4514.25,2205.22 4515,2205.11 4515.76,2204.93C4516.51,2204.76 4517.2,2204.51 4517.82,2204.19C4518.44,2203.87 4518.91,2203.39 4519.23,2202.76C4519.34,2202.55 4519.39,2201.68 4519.39,2200.16L4519.39,2194.95C4519.39,2193.01 4519.44,2191.12 4519.52,2189.28C4519.6,2187.43 4519.8,2186.09 4520.12,2185.24ZM4498.63,2252.76L4498.39,2253.08L4498.63,2253.4L4513.9,2253.4L4514.79,2252.87C4514.47,2252.8 4513.56,2252.74 4512.08,2252.71C4510.6,2252.67 4508.96,2252.66 4507.15,2252.66C4505.35,2252.66 4503.62,2252.67 4501.98,2252.71C4500.34,2252.74 4499.22,2252.76 4498.63,2252.76ZM4501.38,2195.43L4501.13,2195.75L4501.38,2196.07C4501.65,2196.07 4502.13,2196.09 4502.83,2196.12C4503.53,2196.16 4504.26,2196.18 4505.01,2196.18C4505.77,2196.18 4506.47,2196.16 4507.11,2196.12C4507.76,2196.09 4508.16,2196 4508.32,2195.86L4508.49,2195.54C4508.38,2195.47 4507.99,2195.41 4507.31,2195.38C4506.64,2195.34 4505.91,2195.33 4505.13,2195.33C4504.35,2195.33 4503.6,2195.34 4502.87,2195.38C4502.14,2195.41 4501.65,2195.43 4501.38,2195.43ZM4609.09,2207.43L4628.48,2207.43L4629.04,2207.11L4629.37,2206.58C4629.31,2206.16 4628.95,2205.68 4628.28,2205.15L4626.05,2203.39C4625.24,2202.76 4624.5,2202.03 4623.83,2201.22C4623.16,2200.41 4622.82,2199.54 4622.82,2198.62C4622.82,2197.63 4623.01,2196.69 4623.39,2195.8C4623.76,2194.92 4623.95,2193.98 4623.95,2192.99C4623.95,2191.08 4623.53,2189.61 4622.7,2188.59C4621.86,2187.56 4620.86,2186.8 4619.67,2186.3C4618.48,2185.81 4617.22,2185.51 4615.87,2185.4C4614.53,2185.29 4613.34,2185.24 4612.32,2185.24C4611.99,2185.24 4611.66,2185.26 4611.31,2185.29C4610.96,2185.33 4610.78,2185.66 4610.78,2186.3C4610.78,2187.15 4611.08,2188.04 4611.67,2188.96C4612.26,2189.88 4612.91,2190.87 4613.61,2191.93C4614.31,2192.99 4614.96,2194.12 4615.55,2195.33C4616.14,2196.53 4616.44,2197.84 4616.44,2199.26C4616.44,2200.39 4616.26,2201.36 4615.91,2202.17C4615.56,2202.99 4615.1,2203.68 4614.54,2204.24C4613.97,2204.81 4613.33,2205.27 4612.6,2205.62C4611.87,2205.98 4611.16,2206.26 4610.46,2206.47C4610.08,2206.62 4609.69,2206.69 4609.29,2206.69C4608.88,2206.69 4608.49,2206.76 4608.11,2206.9C4608.22,2207.04 4608.37,2207.16 4608.56,2207.27C4608.75,2207.38 4608.92,2207.43 4609.09,2207.43ZM4596.16,2255.84C4596.05,2255.63 4595.89,2255.52 4595.67,2255.52C4594.59,2255.52 4593.52,2255.66 4592.44,2255.95C4591.36,2256.23 4590.28,2256.53 4589.21,2256.85C4588.13,2257.17 4587.05,2257.47 4585.98,2257.75C4584.9,2258.03 4583.82,2258.18 4582.74,2258.18C4582.2,2258.18 4581.94,2257.82 4581.94,2257.12L4581.94,2229.41C4581.94,2228.7 4582.2,2228.34 4582.74,2228.34L4593.65,2228.34C4593.87,2228.34 4594.08,2228.31 4594.3,2228.24C4594.51,2228.17 4594.62,2227.95 4594.62,2227.6C4594.62,2227.32 4594.26,2226.63 4593.53,2225.53C4592.8,2224.43 4591.99,2223.3 4591.11,2222.13C4590.22,2220.97 4589.34,2219.92 4588.48,2219C4587.62,2218.08 4587.08,2217.62 4586.86,2217.62C4586.65,2217.62 4586.27,2218.1 4585.73,2219.05C4585.19,2220.01 4584.61,2221.07 4584,2222.24C4583.38,2223.41 4582.78,2224.47 4582.22,2225.43C4581.65,2226.38 4581.26,2226.86 4581.05,2226.86L4558.83,2226.86C4558.72,2226.86 4558.57,2226.91 4558.38,2227.02C4558.19,2227.12 4558.1,2227.28 4558.1,2227.49C4558.1,2227.71 4558.15,2227.95 4558.26,2228.24C4558.37,2228.52 4558.53,2228.66 4558.74,2228.66L4570.3,2228.66C4570.84,2228.66 4571.11,2229.02 4571.11,2229.72L4571.11,2259.77C4571.11,2260.12 4570.81,2260.41 4570.22,2260.62C4569.63,2260.83 4569.22,2260.97 4569.01,2261.04C4567.34,2261.54 4565.67,2261.95 4564,2262.26C4562.33,2262.58 4560.63,2262.81 4558.91,2262.95C4558.8,2262.95 4558.56,2262.97 4558.18,2263.01L4557.05,2263.11C4556.67,2263.15 4556.33,2263.24 4556.04,2263.38C4555.74,2263.52 4555.59,2263.7 4555.59,2263.91C4555.59,2264.55 4555.88,2265.61 4556.44,2267.1C4557.01,2268.58 4557.68,2270.1 4558.46,2271.66C4559.24,2273.22 4560.04,2274.58 4560.85,2275.75C4561.65,2276.91 4562.3,2277.5 4562.78,2277.5C4563.43,2277.5 4564.02,2277.11 4564.56,2276.33C4565.1,2275.55 4565.67,2274.99 4566.26,2274.63C4567.66,2273.64 4569.13,2272.76 4570.66,2271.98C4572.2,2271.2 4573.69,2270.39 4575.15,2269.54C4577.84,2267.98 4580.51,2266.39 4583.15,2264.76L4591.07,2259.88C4591.34,2259.66 4591.74,2259.41 4592.28,2259.13C4592.82,2258.85 4593.36,2258.51 4593.89,2258.12C4594.43,2257.74 4594.92,2257.35 4595.35,2256.96C4595.78,2256.57 4596.05,2256.2 4596.16,2255.84ZM4555.84,2207.11L4556.4,2207.43L4593.41,2207.43L4593.98,2207.11L4594.14,2206.79C4594.08,2206.72 4594,2206.69 4593.89,2206.69L4555.92,2206.69C4555.81,2206.69 4555.73,2206.72 4555.67,2206.79L4555.84,2207.11ZM4595.43,2206.37L4595.43,2207.01C4596.02,2209.06 4596.35,2211.2 4596.4,2213.43C4596.45,2215.66 4596.61,2217.87 4596.88,2220.06C4597.21,2223.18 4597.69,2226.8 4598.34,2230.95C4598.98,2235.09 4599.82,2239.37 4600.84,2243.79C4601.87,2248.22 4603.09,2252.59 4604.52,2256.9C4605.95,2261.22 4607.63,2265.06 4609.57,2268.42C4611.51,2271.78 4613.72,2274.51 4616.19,2276.6C4618.67,2278.68 4621.45,2279.73 4624.52,2279.73C4626.94,2279.73 4628.48,2279.18 4629.12,2278.08C4629.77,2276.99 4629.98,2275.62 4629.77,2274C4629.55,2272.37 4629.15,2270.6 4628.56,2268.69C4627.97,2266.78 4627.67,2265.01 4627.67,2263.38C4627.67,2261.47 4627.76,2259.56 4627.95,2257.65C4628.14,2255.74 4628.23,2253.82 4628.23,2251.91C4628.23,2251.7 4628.21,2251.47 4628.15,2251.22C4628.1,2250.97 4627.97,2250.82 4627.75,2250.74C4627.43,2250.67 4627.1,2251.14 4626.78,2252.12C4626.46,2253.12 4626.08,2254.23 4625.65,2255.47C4625.22,2256.71 4624.68,2257.86 4624.03,2258.92C4623.39,2259.98 4622.55,2260.51 4621.53,2260.51C4621.26,2260.51 4621.07,2260.44 4620.96,2260.3C4618.7,2257.89 4616.79,2255.12 4615.23,2251.97C4613.66,2248.82 4612.36,2245.49 4611.31,2241.99C4610.26,2238.48 4609.41,2234.86 4608.76,2231.1C4608.11,2227.35 4607.6,2223.67 4607.23,2220.06C4607.01,2218.22 4606.78,2216.42 4606.54,2214.65C4606.3,2212.88 4606.18,2211.07 4606.18,2209.23C4606.18,2208.74 4606.26,2208.31 4606.42,2207.96C4606.58,2207.61 4606.66,2207.18 4606.66,2206.69C4606.66,2206.19 4606.57,2205.73 4606.38,2205.31C4606.19,2204.88 4606.1,2204.39 4606.1,2203.82C4606.1,2203.25 4606.11,2202.7 4606.14,2202.17C4606.16,2201.64 4606.2,2201.1 4606.26,2200.53C4606.31,2199.89 4606.34,2198.92 4606.34,2197.61C4606.34,2196.3 4606.35,2194.94 4606.38,2193.52C4606.4,2192.11 4606.43,2190.8 4606.46,2189.59C4606.48,2188.39 4606.55,2187.61 4606.66,2187.26C4606.82,2186.62 4607.02,2186.18 4607.27,2185.93C4607.51,2185.68 4607.75,2185.51 4607.99,2185.4C4608.24,2185.29 4608.47,2185.2 4608.68,2185.14C4608.9,2185.06 4609.09,2184.89 4609.25,2184.6L4608.6,2183.97C4607.15,2183.61 4605.66,2183.42 4604.16,2183.38C4602.65,2183.35 4601.17,2183.19 4599.71,2182.91C4599.12,2182.76 4598.57,2182.62 4598.06,2182.48C4597.54,2182.34 4596.99,2182.27 4596.4,2182.27C4596.07,2182.27 4595.82,2182.32 4595.63,2182.43C4595.44,2182.53 4595.35,2182.83 4595.35,2183.33C4595.35,2186.73 4595.46,2190.14 4595.67,2193.58C4595.89,2197.01 4595.99,2200.42 4595.99,2203.82C4595.99,2204.39 4595.98,2204.85 4595.95,2205.2C4595.93,2205.55 4595.75,2205.94 4595.43,2206.37ZM4354.8,2207.22C4354.69,2207.08 4354.55,2206.95 4354.36,2206.85C4354.17,2206.74 4353.99,2206.69 4353.83,2206.69L4343.97,2206.69C4343.44,2206.69 4343.22,2206.93 4343.33,2207.43C4343.44,2207.93 4343.68,2208.17 4344.05,2208.17C4344.48,2208.17 4344.89,2208.16 4345.27,2208.12C4345.64,2208.08 4346.05,2208.03 4346.48,2207.96C4346.8,2207.96 4347.39,2207.94 4348.26,2207.91C4349.12,2207.87 4350.01,2207.84 4350.92,2207.8C4351.84,2207.77 4352.67,2207.71 4353.43,2207.64C4354.18,2207.57 4354.64,2207.43 4354.8,2207.22ZM4369.35,2241.72L4368.78,2241.4L4356.42,2241.4C4356.26,2241.4 4356.08,2241.46 4355.89,2241.56C4355.7,2241.67 4355.56,2241.83 4355.45,2242.04L4356.46,2242.09C4357.13,2242.13 4357.98,2242.16 4359,2242.2C4360.03,2242.23 4361.13,2242.25 4362.32,2242.25L4365.63,2242.25C4366.65,2242.25 4367.53,2242.23 4368.25,2242.2C4368.98,2242.16 4369.4,2242.11 4369.51,2242.04L4369.35,2241.72ZM4369.35,2229.41L4355.12,2229.41C4354.15,2229.41 4353.21,2229.11 4352.3,2228.5C4351.38,2227.9 4350.49,2227.25 4349.63,2226.54C4348.77,2225.83 4347.92,2225.18 4347.08,2224.58C4346.25,2223.97 4345.43,2223.67 4344.62,2223.67C4344.08,2223.67 4343.81,2223.99 4343.81,2224.63L4343.81,2279.62C4343.81,2279.98 4343.91,2280.21 4344.1,2280.31C4344.28,2280.42 4344.48,2280.47 4344.7,2280.47C4345.29,2280.47 4346.02,2280.4 4346.88,2280.26C4347.74,2280.12 4348.61,2279.89 4349.47,2279.57C4350.33,2279.25 4351.11,2278.83 4351.81,2278.3C4352.51,2277.76 4353.02,2277.11 4353.35,2276.33C4353.45,2276.05 4353.55,2275.06 4353.63,2273.36C4353.71,2271.66 4353.78,2269.59 4353.83,2267.15C4353.89,2264.71 4353.93,2262.07 4353.95,2259.24C4353.98,2256.41 4354.01,2253.7 4354.03,2251.12C4354.06,2248.53 4354.07,2246.23 4354.07,2244.22L4354.07,2240.02C4354.07,2239.6 4354.06,2238.94 4354.03,2238.06C4354.01,2237.17 4353.99,2236.29 4353.99,2235.4C4353.99,2234.52 4354.01,2233.69 4354.03,2232.91C4354.06,2232.13 4354.13,2231.57 4354.23,2231.21C4354.29,2231.07 4354.4,2230.96 4354.56,2230.89C4354.72,2230.82 4354.86,2230.79 4354.96,2230.79L4369.99,2230.79C4370.42,2230.79 4370.72,2230.91 4370.88,2231.16C4371.04,2231.41 4371.18,2231.74 4371.28,2232.17C4371.39,2232.59 4371.46,2233.48 4371.49,2234.82C4371.51,2236.16 4371.51,2237.63 4371.49,2239.23C4371.46,2240.82 4371.43,2242.34 4371.41,2243.79C4371.38,2245.24 4371.36,2246.32 4371.36,2247.03L4371.36,2250.69C4371.36,2252.5 4371.35,2254.39 4371.32,2256.37C4371.3,2258.35 4371.23,2260.18 4371.12,2261.84C4371.02,2263.5 4370.88,2264.48 4370.72,2264.76C4370.34,2265.4 4369.84,2265.77 4369.22,2265.87C4368.61,2265.98 4368,2266 4367.41,2265.93C4366.81,2265.86 4366.3,2265.82 4365.87,2265.82C4365.44,2265.82 4365.22,2266.07 4365.22,2266.56C4365.22,2266.85 4365.28,2267.06 4365.39,2267.2C4365.49,2267.34 4365.6,2267.52 4365.71,2267.73C4366.46,2268.93 4367.02,2270 4367.37,2270.92C4367.72,2271.84 4367.98,2272.78 4368.17,2273.73C4368.36,2274.69 4368.5,2275.68 4368.58,2276.7C4368.66,2277.73 4368.83,2278.91 4369.1,2280.26C4369.16,2280.4 4369.21,2280.58 4369.26,2280.79C4369.32,2281 4369.43,2281.11 4369.59,2281.11C4370.5,2281.11 4371.64,2280.86 4372.98,2280.37C4374.33,2279.87 4375.61,2279.18 4376.82,2278.3C4378.03,2277.41 4379.07,2276.37 4379.93,2275.16C4380.79,2273.96 4381.22,2272.62 4381.22,2271.13L4381.22,2234.71C4381.22,2234.43 4381.36,2234.18 4381.63,2233.97C4381.9,2233.76 4382.18,2233.55 4382.48,2233.33C4382.77,2233.12 4383.06,2232.91 4383.32,2232.7C4383.59,2232.49 4383.73,2232.2 4383.73,2231.85C4383.73,2231.35 4383.32,2230.64 4382.52,2229.72C4381.71,2228.8 4380.79,2227.9 4379.77,2227.02C4378.74,2226.13 4377.75,2225.35 4376.78,2224.68C4375.81,2224.01 4375.16,2223.67 4374.84,2223.67C4374.57,2223.67 4374.18,2223.97 4373.67,2224.58C4373.16,2225.18 4372.63,2225.83 4372.09,2226.54C4371.55,2227.25 4371.03,2227.9 4370.52,2228.5C4370.01,2229.11 4369.61,2229.41 4369.35,2229.41ZM4317.79,2203.08C4317.52,2203.08 4317.38,2203.18 4317.35,2203.39C4317.32,2203.61 4317.28,2203.82 4317.23,2204.03C4316.9,2205.87 4316.47,2207.66 4315.94,2209.39C4315.4,2211.13 4314.83,2212.84 4314.24,2214.54C4314.02,2215.18 4313.77,2215.92 4313.47,2216.77C4313.17,2217.62 4312.88,2218.52 4312.58,2219.48C4312.29,2220.43 4312.03,2221.34 4311.81,2222.19C4311.6,2223.04 4311.49,2223.78 4311.49,2224.42C4311.49,2225.55 4311.77,2226.43 4312.34,2227.07C4312.9,2227.71 4313.59,2228.03 4314.4,2228.03C4315.8,2228.03 4316.86,2227.48 4317.59,2226.38C4318.32,2225.28 4318.83,2223.97 4319.13,2222.45C4319.42,2220.93 4319.57,2219.3 4319.57,2217.57L4319.57,2213.06C4319.57,2212.63 4319.54,2211.89 4319.49,2210.83C4319.44,2209.76 4319.36,2208.65 4319.25,2207.48C4319.14,2206.32 4318.97,2205.29 4318.72,2204.4C4318.48,2203.52 4318.17,2203.08 4317.79,2203.08ZM4379.53,2210.83C4379.26,2210.83 4378.84,2211.2 4378.27,2211.94C4377.71,2212.68 4377.16,2213.55 4376.62,2214.54C4376.08,2215.53 4375.61,2216.51 4375.2,2217.46C4374.8,2218.42 4374.6,2219.11 4374.6,2219.53C4374.6,2219.89 4374.81,2220.13 4375.24,2220.28C4376.97,2220.84 4378.77,2221.09 4380.66,2221.02C4382.54,2220.95 4384.37,2220.91 4386.15,2220.91C4386.42,2220.91 4386.7,2220.81 4387,2220.59C4387.3,2220.38 4387.44,2220.1 4387.44,2219.74C4387.44,2219.6 4387.07,2219.05 4386.31,2218.1C4385.56,2217.14 4384.71,2216.14 4383.77,2215.07C4382.83,2214.01 4381.92,2213.04 4381.06,2212.15C4380.2,2211.27 4379.69,2210.83 4379.53,2210.83ZM4331.93,2198.19L4331.93,2186.62L4332.18,2185.88C4332.45,2185.6 4332.82,2185.26 4333.31,2184.87C4333.79,2184.48 4334.09,2184.11 4334.2,2183.75C4334.14,2183.68 4333.98,2183.54 4333.71,2183.33C4333.66,2183.33 4333.08,2183.22 4331.97,2183.01C4330.87,2182.8 4329.65,2182.59 4328.3,2182.37C4326.74,2182.09 4324.98,2181.81 4323.05,2181.53C4322.78,2181.6 4322.57,2181.68 4322.44,2181.79C4322.31,2181.9 4322.24,2182.16 4322.24,2182.59L4322.24,2279.62C4322.24,2280.26 4322.48,2280.58 4322.97,2280.58C4323.34,2280.58 4324,2280.54 4324.94,2280.47C4325.89,2280.4 4326.86,2280.24 4327.85,2279.99C4328.85,2279.75 4329.74,2279.43 4330.52,2279.04C4331.3,2278.65 4331.69,2278.14 4331.69,2277.5L4331.69,2206.79C4331.69,2206.65 4331.73,2206.37 4331.81,2205.94C4331.89,2205.52 4331.99,2205.09 4332.1,2204.67C4332.2,2204.24 4332.32,2203.86 4332.46,2203.5C4332.59,2203.15 4332.72,2202.97 4332.82,2202.97C4333.36,2202.97 4333.75,2203.48 4333.99,2204.51C4334.24,2205.54 4334.43,2206.72 4334.56,2208.07C4334.69,2209.41 4334.79,2210.7 4334.84,2211.94C4334.9,2213.18 4335,2214.05 4335.17,2214.54C4335.38,2215.18 4335.66,2215.59 4336.01,2215.76C4336.36,2215.94 4336.78,2216.03 4337.27,2216.03C4338.51,2216.03 4339.48,2215.71 4340.18,2215.07C4340.88,2214.44 4341.23,2213.23 4341.23,2211.46C4341.23,2209.41 4340.74,2207.68 4339.77,2206.26C4338.8,2204.85 4337.74,2203.64 4336.58,2202.65C4335.42,2201.66 4334.36,2200.81 4333.39,2200.1C4332.42,2199.4 4331.93,2198.76 4331.93,2198.19ZM4343,2221.97C4343.11,2221.83 4343.29,2221.67 4343.53,2221.5C4343.77,2221.32 4343.95,2221.23 4344.05,2221.23L4370.96,2221.23L4371.53,2220.91C4371.8,2220.56 4371.96,2220.31 4372.01,2220.17C4371.85,2219.89 4371.5,2219.76 4370.96,2219.8C4370.42,2219.83 4369.86,2219.87 4369.26,2219.9C4368.67,2219.94 4368.15,2219.9 4367.69,2219.8C4367.23,2219.69 4367,2219.36 4367,2218.79L4367,2209.45C4367,2208.88 4367.27,2208.53 4367.81,2208.39C4368.89,2208.03 4370.06,2207.87 4371.32,2207.91C4372.59,2207.94 4373.79,2207.96 4374.92,2207.96C4375.68,2207.96 4376.44,2208.1 4377.22,2208.39C4378.01,2208.67 4378.77,2208.81 4379.53,2208.81C4380.17,2208.81 4380.82,2208.65 4381.47,2208.33C4382.11,2208.01 4382.73,2207.78 4383.32,2207.64C4383.49,2207.57 4383.66,2207.52 4383.85,2207.48C4384.04,2207.45 4384.13,2207.25 4384.13,2206.9C4384.13,2206.55 4383.82,2206.05 4383.2,2205.41C4382.58,2204.78 4381.9,2204.05 4381.14,2203.24C4380.39,2202.42 4379.7,2201.5 4379.08,2200.48C4378.46,2199.45 4378.15,2198.37 4378.15,2197.24C4378.15,2196.67 4378.6,2196.39 4379.49,2196.39C4380.38,2196.39 4381.36,2196.42 4382.44,2196.49C4383.51,2196.57 4384.48,2196.57 4385.34,2196.49C4386.21,2196.42 4386.64,2196.03 4386.64,2195.33C4386.64,2194.97 4386.29,2194.35 4385.59,2193.47C4384.89,2192.58 4384.09,2191.66 4383.2,2190.71C4382.31,2189.75 4381.45,2188.87 4380.62,2188.05C4379.78,2187.24 4379.2,2186.69 4378.88,2186.41L4378.4,2186.3C4377.69,2186.8 4377.06,2187.42 4376.5,2188.16C4375.93,2188.9 4375.38,2189.66 4374.84,2190.44C4374.3,2191.22 4373.72,2191.98 4373.1,2192.72C4372.48,2193.47 4371.74,2194.09 4370.88,2194.58C4370.72,2194.72 4370.46,2194.87 4370.11,2195.01C4369.76,2195.15 4369.59,2195.4 4369.59,2195.75C4369.59,2195.89 4369.67,2196 4369.83,2196.07C4369.99,2196.14 4370.13,2196.21 4370.23,2196.28C4371.15,2196.64 4372.05,2196.76 4372.94,2196.65C4373.83,2196.55 4374.73,2196.6 4375.65,2196.81L4376.05,2197.24C4376.21,2197.73 4376.17,2198.42 4375.93,2199.31C4375.69,2200.19 4375.34,2201.11 4374.88,2202.07C4374.42,2203.02 4373.92,2203.89 4373.39,2204.67C4372.85,2205.45 4372.42,2205.94 4372.09,2206.16C4371.93,2206.23 4371.69,2206.3 4371.36,2206.37C4371.04,2206.44 4370.69,2206.51 4370.32,2206.58C4369.94,2206.65 4369.56,2206.7 4369.18,2206.74C4368.81,2206.78 4368.54,2206.79 4368.38,2206.79C4368.16,2206.79 4367.88,2206.76 4367.53,2206.69C4367.18,2206.62 4367,2206.4 4367,2206.05L4367,2186.62L4367.24,2185.88C4367.35,2185.74 4367.53,2185.52 4367.77,2185.24C4368.01,2184.96 4368.13,2184.68 4368.13,2184.39C4368.13,2184.18 4368.05,2184.04 4367.89,2183.97C4367.73,2183.9 4367.6,2183.82 4367.49,2183.75C4367.11,2183.61 4366.46,2183.45 4365.55,2183.28C4364.63,2183.1 4363.65,2182.94 4362.6,2182.8C4361.55,2182.66 4360.54,2182.53 4359.57,2182.43C4358.6,2182.32 4357.93,2182.27 4357.55,2182.27C4357.01,2182.27 4356.74,2182.62 4356.74,2183.33L4356.74,2218.37C4356.74,2219.07 4356.47,2219.43 4355.93,2219.43C4355.23,2219.43 4353.98,2219.41 4352.18,2219.37C4350.37,2219.34 4348.5,2219.3 4346.56,2219.27C4344.62,2219.23 4342.83,2219.23 4341.19,2219.27C4339.54,2219.3 4338.53,2219.43 4338.16,2219.64L4337.91,2220.06L4337.91,2220.49L4338.16,2220.91C4338.91,2220.91 4339.74,2220.98 4340.66,2221.12C4341.58,2221.27 4342.36,2221.55 4343,2221.97ZM4343,2221.97L4342.92,2222.08L4343,2222.29L4343.09,2222.08L4343,2221.97ZM4340.26,2196.07L4353.91,2196.07L4354.8,2195.54C4354.64,2195.47 4354.22,2195.41 4353.55,2195.38C4352.88,2195.34 4352.05,2195.33 4351.08,2195.33L4347.97,2195.33C4346.87,2195.33 4345.81,2195.34 4344.78,2195.38C4343.76,2195.41 4342.83,2195.43 4341.99,2195.43L4340.26,2195.43L4340.01,2195.75L4340.26,2196.07ZM4444.9,2253.29C4444.95,2253.29 4445,2253.31 4445.06,2253.35C4445.11,2253.38 4445.16,2253.4 4445.22,2253.4C4445.54,2253.47 4446.24,2253.42 4447.32,2253.24C4448.4,2253.06 4449.5,2252.82 4450.63,2252.5C4451.76,2252.18 4452.79,2251.79 4453.7,2251.33C4454.62,2250.87 4455.08,2250.43 4455.08,2250L4455.08,2239.07C4455.08,2238.71 4455.18,2238.39 4455.4,2238.11C4455.61,2237.83 4455.86,2237.56 4456.13,2237.32C4456.4,2237.07 4456.64,2236.82 4456.85,2236.57C4457.07,2236.32 4457.18,2236.02 4457.18,2235.67C4457.18,2235.1 4456.73,2234.48 4455.84,2233.81C4454.95,2233.14 4453.98,2232.4 4452.94,2231.58C4451.88,2230.77 4450.93,2229.9 4450.07,2228.98C4449.2,2228.06 4448.77,2227.07 4448.77,2226.01C4448.77,2225.72 4448.81,2225.34 4448.9,2224.84C4448.98,2224.35 4449.15,2224.1 4449.42,2224.1L4467.84,2224.1C4468.11,2224.1 4468.25,2223.89 4468.25,2223.46L4468,2222.72C4467.73,2222.43 4467.17,2221.82 4466.31,2220.86C4465.45,2219.9 4464.56,2218.89 4463.64,2217.83C4462.73,2216.77 4461.88,2215.82 4461.1,2214.97C4460.32,2214.12 4459.87,2213.69 4459.76,2213.69C4459.55,2213.69 4459.24,2214.14 4458.83,2215.02C4458.43,2215.91 4457.97,2216.9 4457.46,2217.99C4456.95,2219.09 4456.41,2220.08 4455.84,2220.97C4455.28,2221.85 4454.75,2222.29 4454.27,2222.29L4436.73,2222.29C4436.3,2222.29 4436.05,2221.99 4435.97,2221.39C4435.89,2220.79 4435.85,2220.28 4435.85,2219.85L4435.85,2218.95C4435.85,2218.7 4435.87,2218.4 4435.93,2218.05C4435.93,2217.91 4436.09,2217.6 4436.41,2217.14C4436.73,2216.68 4437.07,2216.19 4437.42,2215.66C4437.77,2215.13 4438.12,2214.65 4438.47,2214.22C4438.82,2213.8 4439.05,2213.55 4439.16,2213.48C4439.37,2213.41 4439.76,2213.32 4440.33,2213.22C4440.9,2213.11 4441.5,2213.04 4442.15,2213C4442.79,2212.97 4443.4,2212.97 4443.97,2213C4444.53,2213.04 4444.92,2213.09 4445.14,2213.16C4445.46,2213.3 4445.65,2213.48 4445.7,2213.69C4445.76,2213.91 4445.8,2214.15 4445.82,2214.44C4445.85,2214.72 4445.9,2214.95 4445.99,2215.13C4446.07,2215.3 4446.3,2215.39 4446.67,2215.39C4447.05,2215.39 4447.79,2215.36 4448.9,2215.29C4450,2215.22 4451.13,2215.07 4452.29,2214.86C4453.45,2214.65 4454.47,2214.35 4455.36,2213.96C4456.25,2213.57 4456.69,2213.06 4456.69,2212.42L4456.69,2193.95C4456.69,2193.52 4456.99,2193.04 4457.58,2192.51C4458.17,2191.98 4458.6,2191.61 4458.87,2191.4L4459.12,2190.76L4459.12,2190.44L4458.87,2190.02C4458.55,2189.74 4457.92,2189.12 4456.98,2188.16C4456.03,2187.2 4455.05,2186.2 4454.03,2185.14C4453,2184.07 4452.06,2183.14 4451.2,2182.32C4450.34,2181.51 4449.82,2181.14 4449.66,2181.21C4449.56,2181.28 4449.49,2181.31 4449.46,2181.31C4449.43,2181.31 4449.37,2181.35 4449.26,2181.42C4449.1,2181.7 4448.83,2182.18 4448.45,2182.85C4448.07,2183.52 4447.66,2184.21 4447.2,2184.92C4446.74,2185.63 4446.31,2186.25 4445.9,2186.78C4445.5,2187.31 4445.22,2187.58 4445.06,2187.58L4416.53,2187.58C4415.62,2187.58 4414.61,2187.31 4413.5,2186.78C4412.4,2186.25 4411.35,2185.68 4410.35,2185.08C4409.36,2184.48 4408.49,2183.91 4407.77,2183.38C4407.04,2182.85 4406.6,2182.59 4406.43,2182.59C4406.16,2182.59 4405.99,2182.71 4405.91,2182.96C4405.83,2183.21 4405.79,2183.47 4405.79,2183.75L4405.79,2216.88C4405.79,2216.95 4405.81,2217.07 4405.87,2217.25C4405.92,2217.43 4405.95,2217.55 4405.95,2217.62C4406.22,2217.91 4406.53,2218.06 4406.88,2218.1C4407.23,2218.14 4407.54,2218.15 4407.81,2218.15C4409.53,2218.15 4410.94,2217.91 4412.05,2217.41C4413.15,2216.91 4414.06,2216.35 4414.76,2215.71C4415.46,2215.07 4416.01,2214.49 4416.41,2213.96C4416.82,2213.43 4417.18,2213.13 4417.5,2213.06C4418.58,2212.77 4419.69,2212.58 4420.82,2212.47C4421.95,2212.37 4423.08,2212.31 4424.21,2212.31C4424.43,2212.31 4424.64,2212.35 4424.86,2212.42C4425.07,2212.49 4425.18,2212.7 4425.18,2213.06L4425.18,2221.97C4425.18,2222.68 4424.91,2223.04 4424.37,2223.04L4394.15,2223.04L4393.91,2223.35L4394.15,2223.78C4396.79,2224.35 4399.43,2224.59 4402.07,2224.52C4404.71,2224.45 4407.38,2224.42 4410.07,2224.42L4446.67,2224.42C4447,2224.42 4447.2,2224.59 4447.28,2224.95C4447.36,2225.3 4447.4,2225.66 4447.4,2226.01C4447.4,2226.36 4447.23,2226.91 4446.88,2227.65C4446.53,2228.4 4446.11,2229.16 4445.62,2229.94C4445.14,2230.72 4444.67,2231.41 4444.21,2232.01C4443.75,2232.61 4443.41,2232.91 4443.2,2232.91L4418.15,2232.91C4417.29,2232.91 4416.32,2232.64 4415.24,2232.11C4414.16,2231.58 4413.14,2231.02 4412.17,2230.41C4411.2,2229.81 4410.32,2229.25 4409.54,2228.72C4408.76,2228.18 4408.27,2227.92 4408.05,2227.92C4407.78,2227.92 4407.61,2228.04 4407.52,2228.29C4407.44,2228.54 4407.4,2228.8 4407.4,2229.09L4407.4,2253.4C4407.4,2253.97 4407.63,2254.41 4408.09,2254.73C4408.55,2255.05 4408.83,2255.56 4408.94,2256.27C4408.83,2256.97 4408.57,2257.8 4408.17,2258.76C4407.77,2259.72 4407.24,2260.72 4406.6,2261.79C4405.95,2262.85 4405.23,2263.96 4404.45,2265.13C4403.67,2266.3 4402.88,2267.41 4402.07,2268.47C4400.19,2271.02 4398.08,2273.71 4395.77,2276.54C4395.77,2276.68 4395.88,2276.77 4396.09,2276.81C4396.31,2276.84 4396.47,2276.86 4396.57,2276.86C4397.98,2276.86 4399.59,2276.54 4401.42,2275.91C4403.26,2275.27 4405.1,2274.46 4406.96,2273.47C4408.82,2272.47 4410.6,2271.39 4412.29,2270.23C4413.99,2269.06 4415.4,2267.94 4416.53,2266.88C4417.07,2266.39 4417.53,2265.82 4417.91,2265.18C4418.28,2264.55 4418.72,2263.95 4419.2,2263.38C4419.52,2263.03 4419.9,2262.74 4420.33,2262.53C4420.76,2262.32 4421.14,2262.03 4421.46,2261.68C4421.36,2261.26 4420.84,2260.78 4419.93,2260.25C4419.01,2259.72 4418.02,2259.15 4416.94,2258.55C4415.86,2257.95 4414.89,2257.36 4414.03,2256.8C4413.17,2256.23 4412.74,2255.7 4412.74,2255.2C4412.74,2254.78 4413.03,2254.27 4413.62,2253.66C4414.22,2253.06 4414.89,2252.48 4415.65,2251.91C4416.4,2251.35 4417.14,2250.87 4417.87,2250.48C4418.59,2250.09 4419.12,2249.9 4419.44,2249.9L4424.86,2249.9C4425.4,2249.9 4425.66,2250.25 4425.66,2250.96C4425.66,2251.45 4425.68,2252.43 4425.7,2253.88C4425.73,2255.33 4425.74,2256.83 4425.74,2258.39C4425.74,2259.95 4425.73,2261.38 4425.7,2262.69C4425.68,2264 4425.64,2264.76 4425.58,2264.97C4425.48,2265.33 4425.31,2265.78 4425.1,2266.35C4424.88,2266.92 4424.61,2267.2 4424.29,2267.2L4419.6,2267.2C4419.34,2267.2 4419.2,2267.38 4419.2,2267.73C4419.2,2267.87 4419.35,2268.16 4419.64,2268.58C4419.94,2269.01 4420.28,2269.47 4420.65,2269.96C4421.03,2270.46 4421.4,2270.95 4421.74,2271.45C4422.1,2271.94 4422.32,2272.3 4422.43,2272.51C4422.59,2272.86 4422.73,2273.5 4422.84,2274.42C4422.94,2275.34 4423.05,2276.28 4423.16,2277.23C4423.27,2278.19 4423.4,2279.04 4423.56,2279.78C4423.73,2280.53 4423.94,2280.93 4424.21,2281C4424.53,2281.07 4424.99,2281 4425.58,2280.79C4426.18,2280.58 4426.66,2280.4 4427.04,2280.26C4428.01,2279.98 4429.03,2279.59 4430.11,2279.09C4431.19,2278.6 4432.17,2277.98 4433.06,2277.23C4433.95,2276.49 4434.69,2275.57 4435.28,2274.47C4435.87,2273.38 4436.17,2272.01 4436.17,2270.39L4436.17,2250.96C4436.17,2250.25 4436.44,2249.9 4436.98,2249.9L4443.2,2249.9C4443.52,2249.9 4443.76,2250.02 4443.93,2250.27C4444.09,2250.51 4444.22,2250.83 4444.33,2251.22C4444.44,2251.61 4444.53,2252 4444.61,2252.39C4444.69,2252.78 4444.79,2253.08 4444.9,2253.29ZM4443.68,2248.2L4443.12,2248.52L4418.96,2248.52C4418.42,2248.52 4418.15,2248.16 4418.15,2247.45L4418.15,2236.09C4418.15,2235.39 4418.42,2235.03 4418.96,2235.03L4443.76,2235.03C4444.3,2235.03 4444.57,2235.39 4444.57,2236.09L4444.57,2246.61L4444.33,2247.35L4443.68,2248.2ZM4415.97,2209.87L4415.97,2190.76C4415.97,2190.05 4416.24,2189.7 4416.78,2189.7L4445.38,2189.7C4445.92,2189.7 4446.19,2190.05 4446.19,2190.76L4446.19,2209.87C4446.19,2210.58 4445.92,2210.93 4445.38,2210.93L4416.78,2210.93C4416.24,2210.93 4415.97,2210.58 4415.97,2209.87ZM4417.99,2200.32C4418.1,2200.46 4418.31,2200.62 4418.63,2200.79C4418.96,2200.97 4419.2,2201.06 4419.36,2201.06L4442.79,2201.06C4442.9,2201.06 4443.16,2200.97 4443.56,2200.79C4443.97,2200.62 4444.17,2200.46 4444.17,2200.32C4444.06,2200.18 4443.87,2200.03 4443.6,2199.89C4443.33,2199.75 4443.12,2199.68 4442.96,2199.68L4419.2,2199.68C4419.09,2199.68 4418.86,2199.75 4418.51,2199.89C4418.16,2200.03 4417.99,2200.18 4417.99,2200.32ZM4368.78,2254.89L4369.35,2254.57L4369.51,2254.25L4368.5,2254.2C4367.82,2254.16 4366.98,2254.12 4365.95,2254.09C4364.93,2254.05 4363.82,2254.04 4362.64,2254.04L4359.33,2254.04C4358.3,2254.04 4357.43,2254.05 4356.7,2254.09C4355.97,2254.12 4355.56,2254.18 4355.45,2254.25C4355.56,2254.46 4355.7,2254.62 4355.89,2254.73C4356.08,2254.83 4356.26,2254.89 4356.42,2254.89L4368.78,2254.89ZM4258.38,2262.39L4264.94,2269.79L4289.68,2241.92L4283.13,2234.54L4258.38,2262.39ZM4263.33,2212.26L4238.6,2240.12L4245.14,2247.49L4269.89,2219.64L4263.33,2212.26ZM4273.23,2223.4L4248.49,2251.27L4255.04,2258.64L4279.79,2230.78L4273.23,2223.4Z" style="fill:white;"/>
            </g>
        </g>
    </g>
</svg>
