<?xml version="1.0" encoding="UTF-8" standalone="no"?>
<!DOCTYPE svg PUBLIC "-//W3C//DTD SVG 1.1//EN" "http://www.w3.org/Graphics/SVG/1.1/DTD/svg11.dtd">
<svg width="100%" height="100%" viewBox="0 0 1471 693" version="1.1" xmlns="http://www.w3.org/2000/svg" xmlns:xlink="http://www.w3.org/1999/xlink" xml:space="preserve" xmlns:serif="http://www.serif.com/" style="fill-rule:evenodd;clip-rule:evenodd;stroke-linejoin:round;stroke-miterlimit:2;">
    <g transform="matrix(1,0,0,1,-1554.38,-4513.32)">
        <g id="图层1">
        </g>
        <g id="Artboard1" transform="matrix(0.761044,0,0,0.487399,1752.21,4647.28)">
            <rect x="-259.945" y="-274.828" width="1932.33" height="1421.78" style="fill:none;"/>
            <g transform="matrix(1.15853,-0.104745,0.067082,1.80897,179.135,57.6335)">
                <path d="M839.528,305.036C838.992,302.112 838.85,301.05 839.216,300.05C839.364,299.588 839.666,299.118 840.25,298.206L840.318,298.25C843.203,297.094 845.778,296.89 848.898,296.676L852.989,296.366L855.214,296.207C859.519,295.884 863.815,295.475 868.113,295.078L870.633,294.852C875.241,294.435 879.837,293.96 884.433,293.429C887.654,293.068 890.877,292.736 894.101,292.406L897.876,292.016C900.474,291.749 903.071,291.484 905.669,291.22L909.416,290.832L912.822,290.483C915.472,290.247 915.472,290.247 917.623,289.353C919.036,289.319 920.451,289.333 921.864,289.373L924.435,289.428L927.162,289.489C933.672,289.601 939.733,289.558 946.068,287.846C946.701,287.751 947.262,287.721 947.785,287.745C948.47,287.694 949.08,287.864 950.182,288.171L951.856,288.978L953.168,286.1C953.996,286.032 954.812,285.981 955.621,285.947C958.662,285.758 961.704,285.571 964.746,285.385L968.027,285.179C972.928,284.882 977.798,284.63 982.71,284.655C986.254,285.021 957.196,286.593 958.554,285.308C961.104,285.178 963.635,285.095 966.186,285.053L968.358,285.007C970.132,284.971 971.907,284.939 973.681,284.909C975.128,281.69 975.167,279.295 974.876,275.8L974.644,272.714L974.385,269.459C973.174,252.205 973.174,252.205 975.042,243.821C975.353,243.57 975.714,243.354 976.117,243.169L976.142,242.933C976.324,242.935 976.505,242.937 976.687,242.939C982.296,240.942 994.363,243.809 999.333,244.33C1000.8,244.489 1002.27,244.649 1003.73,244.811C1006.83,245.145 1009.93,245.501 1013.04,245.858L1013.15,244.864L1013.8,243.425L1014.17,242.268C1008.83,241.376 1032.56,238.389 1027.52,236.44C1018.96,233.463 1011,228.457 1005.28,221.697C1003.15,218.825 1001.5,216.021 1000.21,212.671L999.069,209.976C997.571,205.513 996.882,201.119 996.218,196.469L995.814,193.824C994.861,187.376 994.861,187.376 995.223,183.981L992.069,185.193C962.424,196.494 962.424,196.494 955.954,193.877C954.313,191.296 953.213,188.751 952.101,185.904C951.137,183.435 950.049,182.004 948.381,179.996C947.703,177.894 947.051,175.784 946.421,173.667C946.316,173.454 946.211,173.241 946.107,173.029L944.708,170.228C943.982,168.237 943.739,166.808 943.837,165.161C943.882,164.029 944.075,162.852 944.322,161.462L941.339,161.144L941.086,154.078L938.209,152.765C938.143,150.433 938.143,150.433 938.739,147.793C940.666,146.507 942.167,145.71 943.776,145.621C945.338,145.363 946.979,145.478 949,145.87L949.318,142.887L951.596,142.27C955.025,141.337 958.452,140.392 961.878,139.448L965.462,138.478C971.263,136.871 976.398,135.215 981.627,132.25C983.494,131.666 983.973,131.516 985.029,131.287C986.12,130.983 987.254,130.753 988.435,130.563L988.703,130.505C988.979,130.469 989.22,130.438 989.439,130.411C989.916,130.343 990.401,130.28 990.894,130.22L994.871,130.644L994.957,128.765C995.257,122.204 995.568,115.644 995.879,109.084C995.995,106.648 996.108,104.212 996.219,101.777C996.764,89.828 997.34,77.901 998.584,66.001L998.845,63.473C999.619,56.614 999.619,56.614 1005.46,57.191L1008.51,57.487L1011.83,57.827L1015.22,58.171C1017.59,58.414 1019.96,58.661 1022.33,58.908C1025.96,59.287 1029.59,59.631 1033.23,59.997C1035.53,60.229 1037.82,60.475 1040.12,60.716L1043.43,61.031L1046.5,61.366L1049.2,61.643C1051.91,62.38 1052.69,63.149 1054.1,65.552C1054.25,66.533 1054.34,67.511 1054.39,68.488C1055.5,82.042 1053.49,96.183 1052.42,109.622C1058.27,109.72 1062.92,108.512 1068.4,106.548L1070.7,105.772C1075.63,104.043 1079.47,101.868 1083.74,98.879C1085.41,98.031 1087.12,97.232 1088.83,96.468C1091.04,95.485 1093.23,94.465 1095.39,93.403C1097.37,92.093 1098.19,91.651 1099.04,91.557C1101.64,90.202 1104.2,88.78 1106.74,87.282L1109.6,85.607L1112.21,84.034C1112.3,83.995 1112.39,83.958 1112.48,83.922L1112.49,83.841C1114.59,83.058 1114.59,83.058 1116.44,83.381C1116.46,83.392 1116.48,83.403 1116.5,83.414C1116.57,83.427 1116.64,83.44 1116.71,83.453C1119.46,85.063 1120.51,87.054 1121.91,89.872C1121.86,92.695 1121.86,92.695 1121.38,94.844L1124.36,95.162L1125.54,97.943C1129.17,106.416 1133.12,114.601 1137.52,122.71C1137.37,122.984 1137.22,123.243 1137.07,123.49L1137.41,123.705C1137.01,124.051 1136.64,124.373 1136.3,124.673C1134.92,126.58 1133.37,127.622 1130.8,128.831L1128.26,130.033L1125.61,131.247L1122.96,132.509C1118.85,134.423 1117.33,135.132 1115.93,135.305C1115.19,135.417 1114.39,135.332 1113.06,135.189L1111.74,138.067C1109.02,139.473 1109.02,139.473 1106.45,140.52L1106.46,140.436C1104.18,141.371 1101.98,142.414 1099.76,143.484L1097.34,144.644C1095.71,145.43 1094.08,146.221 1092.45,147.006C1087.97,149.162 1083.47,151.025 1078.81,152.749C1076.13,153.738 1073.62,155.003 1071.08,156.299L1068.08,157.806C1066.33,158.701 1064.59,159.619 1062.85,160.541C1061.48,161.272 1060.22,161.863 1058.99,162.326C1058.94,162.413 1058.89,162.505 1058.85,162.601C1055.38,164.024 1053.49,164.041 1049.68,163.636C1049.45,169.134 1049.54,173.022 1052.18,177.981L1052.59,181.23C1053.26,184.37 1053.26,184.37 1056.12,185.818C1061.78,187.649 1070.67,189.693 1076.3,187.59C1078.17,187.614 1080.04,187.689 1081.91,187.791L1085.34,187.946C1087.71,188.061 1090.09,188.172 1092.46,188.321C1101.86,188.908 1102.14,188.976 1109.98,185.557C1112.09,182.961 1112.3,179.851 1112.96,176.223L1113.46,173.701C1113.87,171.65 1114.26,169.595 1114.64,167.539C1122.62,166.631 1130.54,166.454 1138.58,166.444L1142.19,166.42C1147.82,166.402 1153.33,166.451 1158.92,167.229C1159.01,167.533 1159.1,167.837 1159.18,168.138C1161.2,175.53 1160.79,182.023 1159.88,189.721L1159.87,189.776C1159.63,191.778 1159.42,193.781 1159.22,195.786L1159.21,195.873C1159.17,196.196 1159.14,196.516 1159.1,196.833C1156.56,219.473 1156.45,219.576 1148.59,226.467C1133.68,236.789 1115.58,238.657 1097.97,239.817C1095.82,239.958 1093.68,240.119 1091.54,240.282C1073.24,241.651 1039.58,243.568 1034.42,243.148C1033.4,243.196 1032.39,243.255 1031.37,243.325C1030.39,243.373 1029.39,243.401 1028.39,243.409L1028.17,245.459L1030.01,245.844C1032.04,246.877 1032.04,246.877 1032.86,248.901C1033.75,253.318 1033.9,257.681 1034.05,262.177L1034.17,264.9C1034.34,269.092 1034.35,273.065 1033.83,277.238C1035.64,277.231 1037.44,277.224 1039.24,277.211C1045.54,277.155 1051.8,277.006 1058.08,276.535C1058.49,276.502 1058.9,276.468 1059.31,276.432C1059.56,276.414 1059.8,276.397 1060.04,276.381C1065.28,275.988 1067.85,275.804 1069.74,275.981C1073.39,275.864 1120.82,271.403 1124.43,270.819C1129.12,270.164 1133.59,270.145 1138.31,270.35L1141.52,270.455L1144.75,270.659L1147.75,270.828C1150.24,271.621 1150.24,271.621 1151.78,274.008C1153.45,279.313 1153.09,283.768 1152.45,289.266L1152.02,293.043L1151.68,295.91L1153.67,296.121C1154.7,298.884 1154.56,301.236 1154.57,304.188L1154.59,307.814L1154.59,311.619L1154.61,315.391C1154.64,325.545 1154.64,325.545 1154.04,330.354C1146.73,332.09 1139.71,332.501 1132.2,332.525C1130.41,332.546 1129.55,332.557 1128.71,332.669C1127.91,332.779 1127.13,332.988 1125.56,333.416C1125,333.526 1124.47,333.612 1123.94,333.676C1120,334.308 1072.23,338.636 1068.2,338.725C1064.21,338.819 1060.26,338.977 1056.31,339.287L1055.56,339.38C1053.93,339.571 1052.31,339.723 1050.69,339.84C1050.54,339.858 1050.39,339.877 1050.24,339.896C1046.55,340.311 1042.9,340.202 1039.2,340.16C1038.42,351.93 1038.23,363.565 1038.62,375.353C1038.71,377.874 1038.78,380.394 1038.85,382.915L1039,387.751L1039.06,390.021C1039.16,393.875 1039.16,393.875 1040.12,397.581C1040.11,399.108 1040.04,400.635 1039.95,402.159L1039.79,404.872L1039.61,407.709L1039.43,410.57C1039.29,412.905 1039.14,415.24 1038.99,417.574C1034.95,417.766 1030.91,417.921 1026.88,418.028L1026.85,418.292C1023.79,418.409 1020.75,418.353 1017.72,418.187C1012.5,418.226 1007.27,418.176 1002.03,418.014L999.221,417.933L996.733,417.849C994.655,417.774 994.655,417.774 992.618,418.667C990.581,418.521 988.548,418.319 986.521,418.081L983.222,417.702L980.685,417.396C978.684,409.091 978.549,401.117 978.675,392.606C978.702,390.096 978.726,387.586 978.747,385.075L978.793,381.747C978.834,378.899 978.834,378.899 978.068,375.885C977.584,365.887 979.103,355.859 980.252,345.948L978.263,345.736L978.475,343.748L976.737,343.992C974.228,344.337 971.732,344.661 969.242,344.952C967.307,345.341 965.334,345.555 963.238,345.77L959.522,346.167C957.764,346.28 956.135,346.302 954.488,346.21C950.472,346.399 975.494,344.874 971.408,344.729C967.368,344.602 964.623,344.762 960.839,346.251C959.983,346.243 959.13,346.221 958.278,346.188C957.073,346.21 955.762,346.091 954.08,345.971C950.861,345.784 949.435,345.701 947.841,345.882C945.772,346.143 943.983,346.681 941.745,347.449C936.634,348.732 931.244,348.593 926.002,348.763L922.387,348.918C915.906,349.158 909.738,349.055 903.312,348.168L903.1,350.157C898.889,350.736 894.864,350.888 890.821,350.728L889.961,350.768L889.996,350.692C887.046,350.545 884.077,350.238 881.012,349.815L880.8,351.804C874.8,352.618 869.148,352.882 863.098,352.589C860.5,352.671 858.808,353.311 856.405,354.233C854.078,354.063 851.754,353.827 849.445,353.491C846.944,347.421 845.649,341.91 844.897,335.408C843.893,327.492 842.572,319.735 840.913,311.932L840.185,308.256L840.039,307.57C839.933,307.281 839.838,306.917 839.709,306.418L839.528,305.036ZM49.488,189.836C53.645,188.827 57.532,188.734 61.801,188.773L65.602,188.801L68.488,188.836L68.488,186.836C71.965,185.767 75.16,185.721 78.785,185.738L82.438,185.748L86.238,185.773L90.086,185.787C93.22,185.799 96.354,185.815 99.488,185.836L99.488,183.836L110.488,183.836L109.988,179.836C109.398,174.064 109.377,168.285 109.434,162.496L109.437,161.821C109.453,158.178 109.481,154.534 109.509,150.891C109.536,147.01 109.542,143.137 109.509,139.266C109.502,139.123 109.495,138.979 109.488,138.836L109.343,135.976C108.017,108.953 108.392,81.883 108.488,54.836C112.488,54.807 116.488,54.789 120.488,54.773L123.898,54.748C129.875,54.731 135.578,54.969 141.488,55.836C143.159,55.954 144.831,56.051 146.504,56.117L149.105,56.23L154.418,56.441L157.004,56.555L159.325,56.646C161.475,56.835 163.405,57.291 165.488,57.836C165.761,61.199 165.978,64.557 166.15,67.915C166.448,73.701 166.614,79.484 166.699,85.286C166.747,88.183 166.779,91.084 166.805,93.988L166.868,99.977C166.922,105.18 166.972,110.383 167.021,115.586C167.071,120.916 167.127,126.246 167.182,131.576C167.257,138.953 167.33,146.33 167.401,153.707C167.563,156.774 167.931,159.753 168.488,162.836C168.555,165.472 168.584,168.077 168.551,170.711L168.537,172.797C168.525,174.477 168.508,176.156 168.488,177.836L170.488,176.836C171.813,176.636 173.142,176.459 174.472,176.297C177.618,175.911 180.773,175.605 183.926,175.273L187.607,174.854C190.067,174.594 192.517,174.39 194.963,174.234C200.698,173.822 206.432,173.59 212.207,173.418C219.986,173.173 227.713,172.659 235.434,171.988C249.534,170.475 263.639,169.031 277.756,167.699C290.01,166.487 302.275,165.442 314.551,164.461L317.718,164.203C341.343,162.287 341.343,162.287 347.488,162.836C349.186,164.534 348.94,166.802 349.207,169.129L349.593,172.458L349.988,176.023L350.394,179.632C351.56,190.18 352.539,200.602 352.508,211.227L352.499,214.993L352.488,217.836C346.53,218.279 340.572,218.716 334.613,219.148L331.843,219.35C320.1,220.2 308.355,220.981 296.602,221.668L293.137,221.871C287.501,222.199 281.865,222.52 276.229,222.833L270.047,223.187L267.152,223.342L264.525,223.495L262.224,223.622C260.46,223.659 260.46,223.659 259.488,224.836C257.822,224.877 256.154,224.879 254.488,224.836C254.704,225.45 254.917,226.028 255.137,226.576C255.526,227.514 255.96,228.403 256.435,229.259C257.192,230.527 258.14,231.672 259.488,232.836L259.196,233.421C259.84,234.266 260.522,235.106 261.238,235.961L262.504,237.551C264.717,240.215 266.508,241.846 269.629,243.391C272.488,244.836 272.488,244.836 273.895,247.222C275.626,250.061 277.097,251.283 279.848,253.105L282.46,254.849L285.238,256.648L288.069,258.51C295.643,263.43 303.397,267.834 311.488,271.836L311.488,274.836L313.176,275.316L315.488,276.023L317.738,276.691C320.068,277.661 321.819,278.654 323.906,280.027C324.84,280.627 325.786,281.2 326.743,281.752C329.91,282.957 333.066,284.524 336.228,286.526C336.377,286.613 336.526,286.698 336.675,286.783C338.076,287.431 339.483,288.069 340.89,288.712C342.817,289.593 344.74,290.481 346.662,291.371C347.505,291.768 348.236,292.111 348.885,292.415C349.273,292.576 349.662,292.737 350.051,292.898L352.888,294.092C355.085,295.013 357.285,295.928 359.488,296.836L359.488,298.836C359.352,299.176 359.214,299.515 359.074,299.851C358.056,304.549 355.463,308.251 352.801,312.523C351.399,314.828 350.026,317.142 348.68,319.468C344.885,326.147 341.227,332.9 337.676,339.711L336.731,341.551C334.974,344.975 333.227,348.403 331.488,351.836C329.721,351.626 328.081,351.21 326.505,350.657C325.196,350.232 323.914,349.701 322.582,349.008L321.593,348.494C321.183,348.283 320.772,348.069 320.361,347.854C319.574,347.436 318.784,347.011 317.988,346.586L315.479,345.251C299.032,336.373 281.387,326.469 267.047,314C265.502,312.81 263.968,311.607 262.445,310.391C261.601,309.72 260.748,309.06 259.888,308.409C259.266,308.224 258.657,307.998 258.063,307.727L256.176,306.086L253.969,304.176L251.488,301.836L249.94,300.391C248.274,298.826 246.627,297.242 244.988,295.648L243.385,294.101C242.413,293.126 241.597,292.261 240.916,291.378C238.017,288.274 235.221,285.073 232.488,281.836L230.043,279.055C219.673,267.186 210.876,254.383 202.738,240.898L201.145,238.26C197.488,232.093 197.488,232.093 197.488,229.836L195.715,230.055C186.639,231.036 177.603,230.926 168.488,230.836L168.672,233.034C170.371,254.005 170.732,274.804 170.488,295.836C180.777,293.364 190.82,290.572 200.834,287.129C201.805,286.807 202.741,286.511 203.659,286.245C207.567,285.109 211.124,284.525 215.488,284.836C215.913,285.793 216.325,286.751 216.726,287.711C218.369,291.634 219.837,295.585 221.176,299.648L221.857,301.67C222.68,304.148 223.088,305.376 223.29,306.273C223.734,307.576 224.188,308.874 224.656,310.168C225.903,312.655 226.878,314.958 227.801,317.586L228.639,319.758C229.73,322.748 230.454,325.423 230.719,328.602C229.778,330.309 228.487,331.434 226.994,332.281C225.068,333.379 222.794,334.004 220.488,334.836L217.584,335.904C214.165,337.136 210.733,338.328 207.301,339.523C191.079,345.176 174.985,351.17 158.89,357.173L153.145,359.309L150.503,360.298C145.871,362.019 141.26,363.552 136.488,364.836C126.007,344.342 122.317,337.127 121.066,330.134C112.131,300.773 111.873,265.911 112.488,236.836L109.849,237.095L99.958,238.063L95.714,238.479C70.135,240.994 70.135,240.994 60.676,240.898L57.094,240.871L54.488,240.836C53.616,238.218 53.252,236.233 53.008,233.52L52.765,230.89L52.516,228.059L52.251,225.141C52.067,223.104 51.885,221.067 51.704,219.031C51.427,215.914 51.145,212.798 50.861,209.682L50.784,208.822C50.456,207.086 50.264,205.357 50.172,203.508L50.045,201.086L49.995,200.047L49.84,198.281L49.633,195.967C49.495,193.928 49.488,191.88 49.488,189.836ZM823.538,143.565C824.101,142.557 824.718,141.602 825.381,140.693C827.497,137.556 830.377,133.931 833.556,132.503C835.774,130.716 838.09,129.017 840.361,127.256C844.264,124.228 847.536,120.852 850.895,117.241C852.676,115.494 852.676,115.494 854.771,114.712L855.811,112.623C856.326,111.692 856.882,110.856 857.477,110.077C858.865,107.996 860.846,106.41 862.897,104.515C863.204,104.191 863.51,103.866 863.817,103.541C864.653,102.652 865.484,101.759 866.304,100.856L866.332,100.983L867.404,99.967L869.393,100.179L870.372,98.586C873.244,94.233 876.651,90.266 879.931,86.217L881.179,84.659C882.422,83.109 883.675,81.566 884.928,80.024L887.231,77.178L889.157,75.132L891.146,75.344L891.957,73.042C894.51,68.181 898.094,64.415 901.791,60.387L906.656,61.911L906.445,63.9L909.272,64.429C914.303,65.706 918.494,68.399 922.904,71.059L925.428,72.546C929.423,74.919 933.221,77.353 936.887,80.217L939.447,81.558C941.647,82.735 941.647,82.735 943.424,84.936C942.677,88.527 941.164,91.215 939.123,94.228L937.447,96.719L935.669,99.32L933.864,101.99C932.162,104.504 930.451,107.012 928.737,109.519L927.477,111.367C924.973,115.037 922.475,118.695 919.76,122.213C917.89,124.75 916.692,127.333 915.469,130.229L917.686,130.654C921.297,132.153 922.003,133.674 923.782,137.149C923.965,137.955 924.12,138.76 924.253,139.567C924.626,140.971 924.845,142.513 925.029,144.322C925.001,144.773 924.976,145.156 924.954,145.487C924.976,145.726 924.996,145.966 925.017,146.206L925.263,148.601C925.362,149.605 925.452,150.609 925.534,151.612C925.633,152.046 925.712,152.576 925.816,153.276L925.858,154.617C926.204,157.108 926.622,159.59 927.16,162.085C929.537,173.568 930.946,185.605 930.169,197.328L930.247,199.183L932.13,200.389C932.292,202.614 932.351,204.846 932.36,207.076C932.439,210.803 932.802,213.962 933.578,217.251L934.306,217.717C934.611,219.107 934.761,220.236 934.727,221.341C934.776,221.493 934.826,221.647 934.877,221.801C935.151,224.439 935.291,227.073 935.439,229.721C935.455,229.917 935.471,230.113 935.488,230.308C936.136,236.74 937.056,243.143 938.337,249.483C938.39,249.746 938.444,250.008 938.498,250.271L938.5,250.286C938.758,253.68 938.228,256.955 937.812,260.329C933.379,260.845 928.945,261.356 924.511,261.866L920.719,262.308L917.03,262.73L913.653,263.121C907.369,263.714 901.542,263.615 895.306,262.84L895.095,264.828L887.14,263.981C885.783,260.824 885.368,258.249 885.318,254.822L885.254,251.995L885.166,246.117L885.101,243.297L885.063,240.721C884.986,238.402 884.986,238.402 883.039,236.391C882.596,234.072 882.596,234.072 882.293,231.232L881.956,228.123L881.628,224.864L881.272,221.639C880.427,213.587 880.427,213.587 880.852,210.297C881.31,207.846 881.31,207.846 879.257,205.819C878.911,203.758 878.911,203.758 878.736,201.265L878.528,198.499L878.334,195.601C878.2,193.731 878.064,191.861 877.926,189.991L877.725,187.212C877.515,184.646 877.242,182.098 876.938,179.542C876.579,176.51 876.361,173.565 876.419,170.507C876.448,168.853 876.405,167.262 876.276,165.668L875.539,165.196L875.857,162.213L872.874,161.895L871.897,163.991C871.754,164.237 871.61,164.477 871.465,164.71L871.562,164.772L871.129,165.237C869.631,167.521 867.967,169.239 865.849,171.203L863.795,173.373C861.447,174.757 861.447,174.757 858.327,174.55C851.094,172.19 845.299,166.315 840.35,160.76C838.838,159.076 838.838,159.076 836.224,157.236L834.306,155.775L834.517,153.786L832.255,152.602C829.757,151.268 829.757,151.268 827.875,150.061L828.086,148.073L826.253,146.997C824.321,145.66 824.321,145.66 823.538,143.565ZM379.223,163.111C379.187,162.924 379.153,162.73 379.121,162.527C379.145,162.35 379.172,162.177 379.202,162.009C379.238,161.488 379.333,160.86 379.488,159.836C380.072,159.103 380.489,158.579 380.85,158.145C381.715,157.007 382.858,156.016 384.238,154.711L386.91,152.141C389.741,149.61 391.222,148.286 392.392,147.594C392.752,147.334 393.117,147.081 393.488,146.836L396.488,146.836L396.863,144.961C397.152,143.979 397.307,143.451 397.588,142.969C397.929,142.275 398.336,141.768 398.904,141.422C399.077,141.247 399.271,141.053 399.488,140.836L401.424,140.836C401.519,140.834 401.616,140.832 401.715,140.832C401.718,140.833 401.722,140.835 401.726,140.836L402.488,140.836C402.451,140.92 402.413,141.004 402.375,141.087C405.964,142.57 408.142,145.03 410.863,147.898L412.604,149.688C414.229,151.37 415.83,153.069 417.407,154.789C419.82,157.421 422.18,160.1 424.488,162.836L426.238,164.77L427.926,166.648L429.422,168.293C429.598,168.548 429.745,168.761 429.868,168.952C431.773,170.89 433.778,172.699 435.965,174.48C437.488,175.836 437.488,175.836 439.051,178.211C439.69,179.075 440.037,179.542 440.488,179.836L442.988,180.273C444.891,180.036 446.456,179.458 447.853,178.646C449.55,177.548 450.981,176.099 452.754,174.367C453.306,173.88 453.682,173.547 454.004,173.321C454.163,173.16 454.325,172.998 454.488,172.836L454.728,172.956C455.144,172.836 455.633,172.836 456.488,172.836L457.215,171.086C457.719,170.196 458.247,169.433 458.813,168.739C459.059,168.241 459.492,167.79 460.254,166.996L462.738,164.898C467.326,160.919 471.635,156.751 475.881,152.417C476.046,152.248 476.211,152.08 476.376,151.91C483.302,144.866 483.302,144.866 486.926,144.773C489.952,146.028 491.294,147.796 493.25,150.367C494.503,152.014 494.502,152.015 496.801,153.211C501.006,155.753 504.53,158.902 507.488,162.836C507.926,165.898 507.926,165.898 506.488,168.836C506.294,169.073 506.097,169.308 505.899,169.539C505.689,169.838 505.454,170.151 505.194,170.483C505.043,170.602 504.897,170.713 504.755,170.817C503.104,172.59 501.333,174.21 499.488,175.836L497.668,177.449C496.38,178.578 495.086,179.702 493.789,180.82C490.981,183.281 488.234,185.806 485.488,188.336C478.962,194.342 472.33,200.192 465.488,205.836C471.97,215.209 480.356,222.925 488.426,230.898L492.811,235.256C496.364,238.788 499.925,242.314 503.488,245.836C502.24,249.437 500.911,251.74 498.217,254.369C497.963,254.633 497.691,254.903 497.398,255.184L495.521,257.018L493.551,258.898C492.269,260.137 490.989,261.378 489.711,262.621L487.984,264.273C486.277,265.963 486.264,265.983 484.488,268.836C481.786,268.382 480.262,267.632 478.598,266.086C477.086,264.827 475.76,263.254 474.176,261.523L472.471,259.76C471.218,258.405 470.949,258.115 469.735,256.503C468.316,254.95 466.902,253.394 465.488,251.836C463.947,250.148 462.405,248.461 460.862,246.775C459.526,245.314 458.191,243.852 456.855,242.391C453.819,239.114 450.684,235.957 447.488,232.836C446.508,231.858 445.529,230.879 444.551,229.898L442.488,227.836C437.502,230.935 433.36,234.546 429.113,238.586L427.105,240.477C423.078,244.282 419.134,248.158 415.246,252.105C412.131,255.172 408.813,258 405.488,260.836L403.43,262.605C403.057,262.926 402.684,263.246 402.31,263.566C401.4,264.743 400.333,265.606 398.488,266.836C395.988,265.023 395.988,265.023 393.488,262.836L393.488,262.556C387.892,257.552 382.628,252.026 378.488,245.836C378.488,242.35 379.284,241.064 381.613,238.461L384.488,235.836C385.532,234.754 386.573,233.671 387.613,232.586C390.485,229.709 393.511,227.136 396.676,224.586C400.873,221.2 404.941,217.717 408.926,214.086L411.859,211.414C414.304,209.017 416.418,206.558 418.488,203.836C416.303,201.48 414.115,199.126 411.926,196.773L410.08,194.783C404.036,188.292 397.933,182.068 391.09,176.414C389.612,174.958 389.498,174.845 388.703,172.479C386.639,171.831 384.73,170.712 382.488,168.836C381.348,167.658 380.591,166.772 380.062,165.731C379.875,165.447 379.685,165.149 379.488,164.836C379.357,164.068 379.268,163.551 379.223,163.111ZM492.628,374.406C492.314,375.634 491.988,376.857 491.649,378.084L491.085,380.164C490.624,381.864 490.157,383.562 489.689,385.259L485.82,384.427C476.65,382.466 467.494,380.543 458.239,379.022C457.79,381.273 457.347,383.527 456.907,385.78L456.157,389.582C455.46,392.647 455.46,392.647 456.087,395.002C459.242,395.865 462.4,396.718 465.558,397.568L468.273,398.311L470.886,399.011L473.291,399.663C475.577,400.24 475.577,400.24 478.58,399.908C482.807,400.885 486.964,402.078 491.149,403.228L490.474,417.53C486.84,417.761 483.547,417.192 479.984,416.573L477.781,416.196C476.236,415.929 474.69,415.661 473.145,415.391C470.838,414.989 468.529,414.598 466.22,414.208C456.394,412.518 446.838,410.324 437.243,407.608C437.047,404.524 437.348,402.124 437.867,399.09L438.43,395.771L439.053,392.175L439.693,388.449C440.144,385.837 440.597,383.224 441.051,380.612C441.738,376.669 442.409,372.722 443.081,368.776C445.301,355.899 447.616,343.193 451.36,330.662C457.334,331.792 463.307,332.928 469.279,334.069C471.307,334.455 473.334,334.84 475.362,335.224C478.294,335.779 481.225,336.339 484.156,336.899L486.86,337.408C493.087,338.606 499.191,340.117 505.303,341.806C504.136,346.509 502.947,350.737 500.761,355.086C488.494,353.09 476.432,351.018 464.477,347.572L459.881,364.975C468.164,367.445 468.164,367.445 476.116,366.16C476.353,366.139 476.589,366.124 476.824,366.113C477.094,366.061 477.423,366.028 477.864,365.983C478.589,366.054 479.301,366.149 480.005,366.263C482.261,366.556 484.454,367.193 486.737,367.802L490.134,368.691C492.808,369.535 492.808,369.535 493.519,370.757C493.24,371.977 492.941,373.194 492.628,374.406ZM249.665,432.566L249.828,430.701C249.563,427.828 248.714,427.244 246.644,425.292C239.204,416.617 239.368,405.216 240.061,394.424L240.294,391.741C240.765,385.94 241.055,379.421 237.869,374.241C237.96,372.887 238.109,371.537 238.284,370.191L238.596,367.746L238.937,365.179L239.269,362.598C239.541,360.487 239.819,358.377 240.098,356.267C245.348,355.493 249.144,356.183 254.18,357.569C254.846,369.815 255.111,381.611 253.408,393.771C252.812,398.134 252.509,402.183 252.776,406.579L255.462,408.247L254.303,413.111L257.221,413.807L258.239,418.162L264.076,419.553L263.612,421.498C272.641,421.764 272.641,421.764 280.799,418.4C286.013,409.855 288.651,394.907 287.711,385.095L286.252,382.048C284.584,378.451 285.415,376.861 286.499,373.18C287.627,367.946 287.269,362.537 287.163,357.207L292.026,358.367L292.722,355.449L301.477,357.536L301.297,361.304C300.823,372.058 300.726,382.723 301.079,393.482C301.455,406.235 298.531,417.629 290.848,427.992C288.789,430.085 286.671,431.812 284.361,433.641C283.243,435.519 283.232,435.538 282.484,437.248C282.791,437.34 283.107,437.434 283.434,437.532C277.848,438.925 273.575,439.556 267.912,438.145L264.639,437.344L261.259,436.487L257.817,435.638C255.02,434.947 252.226,434.247 249.433,433.539L249.665,432.566ZM615.864,252.176L612.221,251.894C600.166,250.839 588.402,248.928 576.552,246.542L574.351,246.102C562.078,243.634 562.078,243.634 558.614,242.054C559.111,237.153 559.615,232.254 560.125,227.355C560.297,225.692 560.467,224.03 560.635,222.368C563.198,197.093 563.198,197.093 566.894,192.653C573.641,192.19 580.688,194.146 587.368,195.912C589.81,196.461 592.254,197.041 594.711,197.628L599.243,198.692C600.883,199.077 602.522,199.464 604.161,199.852C613.362,201.798 622.598,203.412 631.993,204.617L632.26,201.444C633.429,188.604 633.429,188.604 635.849,182.471C637.791,176.25 638.455,169.603 639.425,163.171L637.587,163.16C631.741,163.117 625.897,163.025 620.052,162.886C617.821,162.839 615.59,162.826 613.359,162.822C610.463,162.711 608.12,162.569 605.405,161.558C603.039,158.997 602.225,156.385 601.28,153.073L599.84,148.783C598.123,143.455 596.821,138.068 595.604,132.607L594.922,129.733L594.301,126.952L593.734,124.465C593.69,123.97 593.672,123.502 593.677,123.055C593.539,121.907 593.608,121.256 593.944,118.099C594.165,118.146 594.385,118.192 594.605,118.239C594.734,117.904 594.88,117.561 595.045,117.211C599.699,116.034 603.988,115.67 608.783,115.614L613.331,115.541L615.747,115.507C634.817,115.221 654.454,114.891 673.898,113.319C675.851,112.508 677.452,112.23 680.013,111.995L682.645,111.73C684.04,111.726 685.154,111.85 686.26,112.137C687.067,112.047 687.873,111.954 688.678,111.859C690.596,111.25 692.5,110.841 694.617,110.573L697.163,110.238L699.847,109.897C707.123,108.942 714.242,107.78 721.398,106.136C721.921,106.069 722.392,106.02 722.829,105.995C725.365,105.647 725.726,105.876 727.85,107.224C727.951,107.354 728.049,107.483 728.145,107.613C728.616,108.252 729.007,108.87 729.331,109.485C730.841,112.263 731.463,115.256 732.242,118.503C733.539,123.903 735.009,129.22 736.656,134.525L737.697,137.896C738.387,140.113 739.088,142.327 739.8,144.537L740.762,147.643L741.643,150.411C742.148,153.378 741.669,155.092 740.558,157.855C739.985,157.947 739.413,158.038 738.841,158.129C737.339,158.964 736.081,159.052 733.745,159.266L731.228,159.509L729.302,159.673L729.341,159.587C724.871,160.119 720.846,159.945 716.269,159.29L716.057,161.279C710.149,162.015 705.925,162.542 702.661,162.874C701.208,163.16 699.697,163.25 698.169,163.243C693.325,163.503 690.738,163.038 684.808,161.972L684.384,165.95L687.101,166.993C690.434,168.728 691.193,169.52 692.698,172.869C692.946,179.985 690.965,186.944 689.045,193.732C686.947,201.797 685.454,210.012 683.847,218.187C684.57,218.253 685.284,218.318 685.987,218.383C705.766,220.196 709.426,220.57 716.292,222.336C717.735,222.707 719.326,223.142 721.254,223.669C726.19,225.001 731.204,225.872 736.231,226.784L736.761,221.813L736.968,221.835C738.578,211.663 740.804,201.811 743.534,191.862L744.834,187.043C745.775,183.557 746.721,180.072 747.67,176.589L747.911,175.68C750.553,165.714 753.22,155.755 755.949,145.812L757.188,141.194C758.012,138.123 758.841,135.053 759.671,131.984L760.41,129.217C760.943,127.26 761.506,125.344 762.121,123.451C762.845,120.232 763.549,118.745 765.212,115.227C771.366,116.457 777.051,118.096 782.891,120.379L785.273,121.299L785.275,121.3C799.808,126.985 803.963,128.611 806.227,130.408C806.414,130.509 806.607,130.613 806.805,130.72L806.913,131.009C807.481,131.558 807.968,132.16 808.582,132.921C808.368,138.59 806.941,143.919 805.509,149.376L804.803,152.13C804.307,154.06 803.805,155.988 803.295,157.913C802.663,160.312 802.022,162.709 801.37,165.104C800.296,169.078 799.292,173.066 798.337,177.063C797.448,180.931 796.626,184.811 795.842,188.703C795.642,189.747 795.45,190.793 795.265,191.842L795.218,191.837C794.729,194.329 794.251,196.825 793.779,199.327C791.425,211.788 788.709,224.115 785.585,236.407C791.462,238.006 797.33,239.595 803.224,241.072C805.135,241.488 807.047,241.9 808.961,242.307L812.543,243.077C814.905,243.583 817.269,244.084 819.635,244.579L822.961,245.296L825.932,245.924C826.28,246.022 826.632,246.122 826.984,246.226C831.815,247.239 832.224,247.745 834.291,250.305C833.214,258.516 830.985,266.572 828.817,274.549L827.99,277.7C824.364,291.116 824.364,291.116 821.463,295.199C821.202,295.328 820.949,295.447 820.703,295.556L820.362,296.087C819.849,296.143 819.349,296.187 818.86,296.22C816.806,296.77 815.02,296.554 812.397,295.93L812.27,295.901C810.19,295.547 808.122,294.958 805.821,294.172C805.6,294.101 805.38,294.029 805.159,293.956C804.378,293.729 803.593,293.522 802.805,293.333C800.529,292.803 798.249,292.458 795.897,292.098C794.969,291.942 794.045,291.775 793.125,291.598C792.49,291.505 791.855,291.412 791.219,291.317C790.175,291.101 789.194,290.851 788.247,290.562C782.941,289.335 777.729,287.822 772.485,286.22L771.152,285.927L770.817,287.607C769.558,293.791 768.085,299.893 766.486,305.998L764.948,311.931L764.145,315.02C760.076,330.694 756.101,346.36 752.659,362.185C751.067,369.501 749.317,376.779 747.571,384.058L746.678,387.784C746.105,390.17 745.53,392.556 744.953,394.941C744.419,397.153 743.89,399.366 743.363,401.579L749.714,403.256L746.905,413.892L740.753,412.267C740.39,413.522 740.122,414.109 739.185,416.163C737.126,416.049 735.154,415.811 733.231,415.472C732.872,417.073 732.516,418.674 732.161,420.276L731.535,423.013C730.251,428.863 729.642,434.352 729.576,440.343L745.556,442.496C745.032,452.312 745.032,452.312 744.17,455.575C736.325,457.078 729.571,455.707 722.134,452.858C717.898,449.435 716.163,445.935 715.019,440.636C714.682,430.894 717.482,421.045 719.619,411.58C718.96,411.341 718.296,411.097 717.627,410.849C713.169,409.198 708.644,407.903 704.073,406.757C703.989,407.217 703.905,407.677 703.821,408.136L703.224,411.33C702.229,416.838 701.565,422.112 701.457,427.705C701.268,430.974 700.421,433.987 699.526,437.126L698.531,440.681L697.762,443.318L697.689,443.285C698.089,443.834 698.498,444.478 698.994,445.26L699.896,446.985C702.231,448.348 702.231,448.348 704.475,449.228L703.964,451.162L706.609,452.895L706.354,453.862C702.464,453.134 698.576,452.401 694.688,451.664C692.726,451.293 690.765,450.926 688.803,450.559C681.833,449.236 674.958,447.794 668.136,445.836C663.106,446.107 658.885,444.171 654.856,441.294C651.155,437.287 650.124,433.32 649.301,428.062L648.914,425.932C647.828,419.515 648.441,414.16 650.123,407.925L650.99,404.679L651.898,401.339L652.813,397.929C653.556,395.162 654.305,392.397 655.055,389.632L668.591,393.207L667.627,398.019L666.411,404.397L665.771,407.553C664.595,413.851 664.322,419.195 665.401,425.525C665.71,427.612 665.71,427.612 665.199,429.546C670.308,431.117 674.84,432.455 680.212,431.443C685.065,428.397 686.451,424.529 687.821,419.215C688.72,414.438 689.064,409.639 689.389,404.793C689.623,401.346 689.996,398.314 690.883,394.958C691.975,394.83 693.07,394.715 694.165,394.607C695.348,386.586 697.368,378.89 699.696,370.858C701.23,365.565 702.591,360.251 703.853,354.888L705.149,349.389L705.906,346.18C707.769,338.359 709.681,330.551 711.585,322.74L713.704,314.041L714.384,311.245L715.709,305.799C716.681,301.797 717.659,297.796 718.661,293.8L719.165,291.774C719.6,290.03 720.067,288.295 720.477,286.546C721.135,283.74 721.464,280.974 721.722,278.118C720.079,277.432 718.447,276.658 716.797,275.783C715.843,275.537 714.855,275.322 713.78,275.105L710.615,274.463L707.202,273.782L703.705,273.076C700.014,272.331 696.322,271.591 692.63,270.851L685.129,269.339C682.391,268.787 679.653,268.236 676.915,267.685C673.499,267.195 670.107,266.557 666.723,265.64C666.411,266.23 666.098,266.82 665.787,267.41C664.698,269.476 663.62,271.546 662.557,273.626C661.806,275.089 661.036,276.527 660.248,277.943C659.808,278.837 659.339,279.731 658.84,280.639L657.334,283.417C653.212,290.275 648.367,296.546 643.342,302.747C642.913,303.287 642.48,303.827 642.044,304.368L640.156,306.713C632.985,315.496 625.097,323.253 616.55,330.69L614.551,332.453C613.073,333.713 611.517,334.878 609.948,336.021L606.965,335.703L605.998,337.847C601.815,344.9 593.027,348.825 585.886,352.439L584.051,353.368C574.012,358.268 574.012,358.268 569.09,357.878C566.561,355.883 566.673,353.589 566.171,350.465C566.099,347.532 566.206,344.609 566.29,341.678C566.384,332.815 565.546,325.145 559.214,318.422L556.741,316.273C559.417,312.159 562.515,310.013 566.71,307.656C577.536,301.284 589.702,293.011 596.564,282.301L599.547,282.618L600.613,280.061C600.844,279.586 601.08,279.129 601.32,278.686C602.757,276.005 604.388,273.697 606.294,271.207C607.318,269.864 608.28,268.541 609.188,267.196C610.928,264.298 612.328,261.333 613.596,258.212C613.832,256.226 614.663,254.512 615.864,252.176ZM-281.512,350.836C-281.076,343.237 -278.355,336.998 -275.449,330.023C-267.302,309.98 -261.656,289.34 -256.816,268.296C-254.662,256.192 -253.745,244.014 -252.951,231.513C-252.931,231.199 -252.911,230.885 -252.89,230.572C-252.179,216.002 -252.111,201.44 -252.189,186.827C-252.203,183.366 -252.197,179.905 -252.192,176.445C-252.189,173.05 -252.195,169.655 -252.205,166.26C-252.209,164.671 -252.21,163.083 -252.209,161.494C-252.207,153.047 -252.597,144.909 -254.048,136.559C-254.59,133.377 -254.839,130.244 -254.961,127.02L-255.092,123.646L-255.199,120.273L-255.342,116.795C-255.669,107.628 -255.669,107.628 -254.512,103.836L-256.512,103.836L-257.512,91.836L-241.512,91.836L-240.512,89.836L-231.512,90.836L-231.512,88.836L-215.512,89.836L-215.512,87.836C-212.42,86.805 -210.1,86.652 -206.855,86.555L-203.508,86.441L-196.516,86.23L-193.168,86.117L-190.1,86.025C-187.396,85.934 -187.396,85.934 -184.512,84.836C-183.031,84.793 -181.548,84.814 -180.067,84.842C-174.199,84.95 -168.458,84.354 -162.625,83.742L-159.288,83.406C-155.8,83.054 -152.312,82.695 -148.824,82.336C-145.326,81.976 -141.827,81.619 -138.328,81.266C-136.16,81.047 -133.992,80.821 -131.824,80.598C-126.69,80.07 -121.673,79.709 -116.512,79.836L-117.062,77.152L-117.824,73.398L-118.245,71.335C-118.935,67.908 -119.564,64.495 -120.098,61.039C-121.779,50.157 -124.685,39.738 -127.819,29.193L-128.867,25.656L-129.825,22.477C-130.512,19.836 -130.512,19.836 -130.512,16.836C-118.462,14.552 -106.397,12.367 -94.324,10.211L-86.455,8.804L-81.614,7.94C-77.905,7.276 -74.203,6.594 -70.512,5.836L-70.316,7.598C-68.746,21.373 -66.382,34.697 -63.135,48.169C-61.926,53.341 -60.903,58.554 -59.856,63.761C-59.059,67.722 -58.027,71.047 -56.512,74.836L-6.512,75.836C-8.263,71.457 -9.512,69.371 -12.449,65.898C-15.996,61.705 -19.4,57.429 -22.762,53.086C-27.387,47.11 -32.285,41.408 -37.36,35.81L-38.957,34.016L-40.379,32.445C-41.674,30.606 -42.097,29.031 -42.512,26.836C-40.914,25.661 -39.308,24.496 -37.699,23.336L-34.992,21.367C-32.512,19.836 -32.512,19.836 -29.512,19.836L-28.739,17.984C-27.346,15.545 -26.31,14.813 -23.879,13.469L-21.696,12.232L-19.387,10.961C-14.604,8.265 -10.013,5.653 -5.762,2.148C-2.512,-0.164 -2.512,-0.164 0,0C11.869,3.987 23.871,28.04 31.031,37.804L32.75,40.145L34.28,42.232C35.393,43.788 35.393,43.788 36.488,44.836C36.529,46.502 36.531,48.17 36.488,49.836L34.355,50.797C27.491,54.041 21.504,57.726 15.474,62.32C11.631,65.203 7.942,67.032 3.488,68.836C0.062,70.634 0.062,70.634 -0.512,74.836L26.488,74.836L26.488,72.836C27.905,72.809 29.322,72.789 30.738,72.773L33.129,72.738C35.402,72.832 37.3,73.252 39.488,73.836C41.3,89.216 41.739,104.356 41.488,119.836C35.487,120.519 29.532,120.951 23.496,121.127C13.131,121.43 2.861,122.174 -7.449,123.273L-10.982,123.644C-16.624,124.273 -22.107,125.046 -27.612,126.453C-29.512,126.836 -29.512,126.836 -33.512,126.836L-33.512,129.836L-43.512,131.836C-41.19,141.51 -38.66,151.121 -36.012,160.711L-35.15,163.877C-33.543,169.646 -31.701,175.166 -29.337,180.672C-28.171,183.73 -27.794,186.585 -27.512,189.836L-22.512,187.836L-22.469,186.176C-22.123,180.433 -20.894,175.322 -19.074,169.898L-18.415,167.927C-17.367,164.911 -16.295,162.511 -14.512,159.836C-14.052,158.392 -13.65,156.929 -13.293,155.457L-12.656,152.916L-11.367,147.619L-10.73,145.082L-10.166,142.76C-9.774,141.607 -9.617,141.145 -9.123,140.529C-8.936,140.007 -8.733,139.447 -8.512,138.836L-7.819,139.143C-7.722,139.046 -7.62,138.944 -7.512,138.836L-4.27,140.453C-2.052,141.54 0.171,142.595 2.403,143.622C11.535,147.564 20.718,151.355 30.035,154.879C31.92,155.598 33.398,156.163 34.596,156.632L34.835,156.72C34.905,156.749 34.974,156.779 35.043,156.808C39.008,158.376 39.688,158.857 42.488,160.836L42.488,161.836L42.292,161.836C41.905,163.796 41.511,165.754 41.113,167.711L40.34,171.578C39.488,174.836 39.488,174.836 37.488,176.836C36.706,179.378 36.005,181.884 35.363,184.461L34.813,186.602C34.365,188.345 33.926,190.09 33.488,191.836L31.488,191.836L31.121,193.988L30.613,196.773L30.121,199.551L29.488,201.836L27.488,202.836C26.833,205.363 26.833,205.363 26.488,207.836L23.488,207.836L23.155,209.96C22.408,213.182 21.236,215.859 19.828,218.852L18.182,222.371L17.312,224.211C16.42,226.098 15.536,227.989 14.654,229.881C12.088,235.373 9.497,240.85 6.813,246.285L5.666,248.63C4.985,250.017 4.292,251.398 3.586,252.772C3.063,253.838 2.626,254.79 2.296,255.736C1.874,257.449 2.039,259.042 2.44,262.428C2.704,262.957 2.992,263.482 3.301,264.003C6.05,267.843 9.662,271.851 13.733,275.318C17.44,278.256 21.465,280.775 25.162,282.69C27.031,283.503 28.917,284.123 30.793,284.5L33.488,284.836L33.453,281.391C33.287,257.845 33.287,257.845 35.488,247.836L36.488,249.836L40.488,249.836L41.488,252.836C43.077,253.902 43.077,253.902 45.047,254.719C47.957,256.082 50.722,257.521 53.461,259.203C62.521,264.769 71.475,269.251 81.488,272.836C82.023,285.986 79.173,297.816 74.988,310.211L72.582,317.484L71.451,320.866C70.702,323.175 70.035,325.463 69.434,327.813C67.446,334.17 63.42,340.15 58.484,344.928C57.789,345.624 57.08,346.302 56.363,346.961C55.931,347.304 55.5,347.626 55.07,347.928C54.225,348.601 53.363,349.238 52.488,349.836C41.875,355.261 26.781,351.091 15.926,347.734C6.51,344.292 -2.423,339.263 -10.206,332.874C-10.305,332.862 -10.406,332.849 -10.512,332.836C-10.734,332.569 -10.927,332.338 -11.098,332.132C-17.662,326.593 -23.37,320.07 -27.809,312.707C-29.382,310.601 -29.382,310.601 -32.004,310.371C-34.966,310.92 -35.873,311.635 -37.887,313.836L-39.703,315.789L-41.512,317.836L-43.164,319.695C-44.303,320.992 -45.432,322.298 -46.562,323.602C-48.834,326.221 -51.174,328.775 -53.512,331.336C-54.559,332.483 -55.599,333.635 -56.636,334.79C-56.595,334.805 -56.553,334.82 -56.512,334.836L-58.637,337.145C-59.562,338.151 -60.487,339.159 -61.41,340.168C-62.155,341.014 -62.898,341.862 -63.641,342.711C-67.524,347.151 -71.533,351.481 -75.512,355.836C-79.372,353.906 -82.487,351.795 -85.63,349.035C-87.118,347.782 -88.583,346.454 -90.082,345.055C-90.171,344.971 -90.256,344.891 -90.339,344.814C-94.5,341.231 -98.851,337.926 -103.271,334.617C-108.225,330.909 -112.908,326.97 -117.512,322.836L-115.262,321.148C-112.506,318.992 -112.506,318.992 -110.699,316.523C-108.864,314.268 -107.183,312.649 -104.996,310.777C-99.947,306.457 -95.269,301.785 -90.574,297.086L-87.892,294.403C-82.014,288.474 -76.616,282.444 -71.512,275.836C-70.254,274.325 -68.984,272.824 -67.699,271.336L-66.117,269.492C-64.512,267.836 -64.512,267.836 -62.312,266.555C-60.177,264.872 -60.177,264.872 -60.062,261.613C-60.561,257.422 -61.828,254.123 -63.699,250.398L-64.656,248.415C-66.408,244.845 -68.303,241.438 -70.449,238.086C-72.524,234.844 -72.512,234.836 -72.512,231.836L-75.512,230.836C-76.703,228.625 -77.692,226.524 -78.637,224.211L-80.207,220.547C-81.477,216.933 -81.98,213.612 -82.512,209.836L-84.512,207.836C-85.301,205.604 -86.01,203.342 -86.676,201.07L-87.273,199.037C-87.688,197.616 -88.099,196.193 -88.508,194.77C-89.131,192.605 -89.77,190.445 -90.41,188.285L-91.613,184.133L-92.717,180.331C-93.469,177.025 -93.669,174.21 -93.512,170.836L-95.512,170.836C-102.775,144.842 -102.775,144.842 -102.512,132.836C-105.262,132.977 -108.012,133.124 -110.762,133.273L-113.117,133.393L-115.402,133.52L-117.497,133.631C-119.504,133.782 -119.504,133.782 -121.372,134.326C-123.535,134.842 -125.541,135.055 -127.758,135.193L-130.266,135.355L-132.949,135.52L-138.598,135.893C-141.56,136.085 -144.522,136.274 -147.485,136.458C-150.349,136.638 -153.212,136.828 -156.074,137.02L-158.758,137.178L-161.266,137.349L-163.463,137.488C-165.776,137.881 -167.444,138.753 -169.512,139.836C-171.985,140.155 -171.985,140.155 -174.715,140.25L-177.392,140.358L-180.762,140.461L-191.512,140.836L-192.512,176.836L-181.074,175.336C-169.994,174.019 -159.039,173.526 -147.887,173.523L-145.756,173.514C-138.1,173.492 -130.931,173.781 -123.512,175.836L-123.512,177.836L-120.449,178.086C-116.134,178.676 -113.164,180.525 -109.512,182.836L-109.512,185.836L-106.512,185.836C-105.387,190.295 -104.564,194.654 -103.983,199.028C-103.374,201.375 -103.172,203.704 -103.098,206.477L-103.039,208.474C-103.023,209.051 -103.007,209.628 -102.993,210.206C-102.907,212 -102.852,213.812 -102.824,215.648L-102.727,220.225C-102.637,224.801 -102.58,229.377 -102.531,233.953C-102.422,242.159 -102.366,250.366 -102.337,258.573L-102.337,258.582C-102.334,259.122 -102.332,259.663 -102.33,260.203C-102.323,261.816 -102.314,263.428 -102.303,265.04L-102.303,265.043C-102.259,272.543 -102.225,278.265 -102.285,282.753C-102.41,297.107 -103.36,298.466 -108.512,305.836C-111.262,306.898 -111.262,306.898 -113.512,306.836L-114.027,308.699C-116.311,316.316 -116.311,316.316 -120.512,318.836L-121.512,321.836C-123.656,323.406 -123.656,323.406 -126.324,324.961L-128.969,326.531C-133.741,328.98 -138.49,329.105 -143.777,329.371L-146.182,329.501C-148.708,329.637 -151.235,329.768 -153.762,329.898L-158.91,330.174C-163.11,330.399 -167.311,330.619 -171.512,330.836C-174.14,320.515 -176.557,310.18 -178.754,299.758C-179.566,295.906 -180.418,292.208 -181.66,288.469C-182.556,285.773 -182.678,283.657 -182.512,280.836L-180.098,280.102C-174.262,278.256 -169.434,276.463 -164.512,272.836L-162.512,272.836C-162.028,271.942 -161.572,271.04 -161.138,270.128C-158.766,265.11 -157.403,260.173 -156.691,254.692C-156.309,250.273 -156.411,245.805 -156.449,241.336L-156.512,230.836L-192.512,230.836L-192.512,251.836L-194.512,251.836L-194.411,253.485C-194.144,261.598 -195.76,269.251 -197.387,277.148C-197.935,279.809 -198.468,282.473 -199.004,285.137L-199.406,287.115C-200.004,290.101 -200.525,293.087 -200.993,296.088C-201.172,297.234 -201.343,298.381 -201.508,299.531L-201.508,299.535C-202.461,305.958 -203.977,312.142 -205.699,318.398L-206.625,321.796C-209.245,331.235 -212.346,340.447 -215.714,349.642C-216.158,350.855 -216.588,352.073 -217.009,353.293C-217.66,355.291 -218.328,357.284 -219.012,359.273L-220.23,362.832C-220.266,362.916 -220.301,362.998 -220.336,363.078C-220.347,363.114 -220.359,363.149 -220.371,363.184C-221.301,365.345 -221.768,366.432 -222.282,367.139C-222.818,367.892 -223.382,368.206 -224.512,368.836C-230.846,368.395 -236.483,366.771 -242.488,364.781L-245.303,363.865C-247.256,363.228 -249.207,362.588 -251.157,361.944C-254.132,360.962 -257.11,359.994 -260.09,359.027L-265.801,357.156L-268.481,356.285C-273.03,354.776 -277.278,353.122 -281.512,350.836ZM296.856,106.412C284.815,119.454 272.129,131.662 257.488,141.836L255.694,143.111C247.358,149.019 238.605,154.222 229.801,159.398L226.611,161.279L223.602,163.027L220.907,164.596C218.694,165.73 216.959,166.567 214.488,166.836C210.38,163.453 207.466,159.216 204.426,154.898C200.013,148.724 195.294,142.94 190.197,137.317C186.488,133.149 186.488,133.149 186.488,129.836C189.425,126.215 192.896,124.407 196.988,122.273C203.377,118.793 208.385,114.616 213.598,109.586C218.004,105.394 222.737,101.627 227.488,97.836L230.18,95.645C232.488,93.836 232.488,93.836 234.488,92.836L235.613,90.711C237.349,88.05 238.709,86.695 241.113,84.711C246.297,80.32 250.31,75.167 254.488,69.836L257.469,66.086L260.488,62.273L261.947,60.431C264.447,57.285 264.447,57.285 266.488,53.836C272.398,54.234 275.935,56.835 280.613,60.148C288.182,65.366 295.913,70.188 303.85,74.825C307.982,77.257 311.838,79.697 315.488,82.836C315.181,84.939 314.518,86.465 313.554,87.87C313.756,87.798 313.96,87.726 314.164,87.654C318.129,86.095 322.415,83.681 324.36,79.791C324.501,77.918 324.586,76.04 324.641,74.162L324.754,70.777L324.965,63.668L325.079,60.287L325.17,57.168C325.36,54.791 325.36,54.791 326.36,53.791C326.571,50.975 326.736,48.174 326.86,45.353C327.225,37.06 327.225,37.06 328.36,34.791C331.322,36.272 331.588,38.38 332.797,41.416C336.322,50.188 340.185,58.698 344.307,67.203L345.496,69.685L346.581,71.931C347.36,73.791 347.36,73.791 347.36,75.791C349.023,76.467 350.691,77.13 352.36,77.791L355.735,79.166C361.466,81.31 367.409,82.598 373.36,83.978L376.864,84.805C379.695,85.471 382.527,86.133 385.36,86.791C383.044,90.264 382.109,90.328 378.36,91.791C376.309,93.142 374.29,94.543 372.297,95.978C366.944,99.791 361.49,103.121 355.723,106.283C353.112,107.725 353.112,107.725 351.36,110.791C350.937,112.728 350.937,112.728 350.797,114.863L350.575,117.331L350.36,119.982L350.114,122.713C349.766,126.57 349.439,130.429 349.11,134.288C348.867,137.103 348.614,139.918 348.36,142.732L348.145,145.39C347.585,151.565 347.585,151.565 345.36,153.791L345.055,151.939C343.482,144.29 340.649,137.505 337.422,130.416L336.116,127.535C332.431,118.439 332.431,118.439 325.279,112.499L321.688,111.744L319.745,111.313C317.704,110.866 315.658,110.453 313.61,110.041C312.25,109.75 310.891,109.457 309.532,109.162C306.946,108.602 304.358,108.055 301.768,107.516C300.124,107.166 298.487,106.797 296.856,106.412ZM454.627,-44.138L455.614,-44.297C456.733,-39.917 457.848,-35.536 458.959,-31.155L460.128,-26.553C462.619,-16.744 464.985,-6.953 466.829,3.002C468.266,8.122 470.049,12.438 474.458,15.586L477.236,16.803L480.441,18.288L482.211,19.093C485.981,20.867 489.646,22.847 493.328,24.796L495.569,25.969C499.982,28.288 504.289,30.726 508.553,33.308C506.224,36.526 503.066,37.466 499.511,38.974L497.272,39.936C495.706,40.608 494.138,41.276 492.57,41.941C490.184,42.953 487.805,43.981 485.427,45.011L480.852,46.962L478.714,47.89C474.41,49.697 470.497,50.732 465.859,51.286L465.626,52.959C464.682,59.247 463.165,65.228 461.344,71.315L460.478,74.245C458.412,81.115 456.104,87.862 453.501,94.547C450.319,102.762 447.942,111.03 449.077,119.857C449.139,120.355 447.577,111.884 446.233,104.541C445.29,99.386 444.455,94.787 444.364,94.234C443.574,89.418 442.791,84.6 442.01,79.782C441.671,77.696 441.33,75.61 440.987,73.524C440.495,70.529 440.009,67.532 439.525,64.535L439.055,61.704L438.633,59.069L438.255,56.751C438.053,54.727 438.053,54.727 438.566,51.606L435.445,51.093C433.912,49.995 432.385,48.889 430.863,47.776C429.161,46.968 427.433,46.214 425.689,45.503C419.516,42.914 413.489,40.071 407.462,37.163C403.666,35.34 399.88,33.61 395.945,32.101L396.458,28.98C398.954,27.54 398.954,27.54 402.346,26.075L404.176,25.272C406.119,24.422 408.069,23.59 410.019,22.758C411.296,22.204 412.572,21.648 413.847,21.092C416.336,20.008 418.826,18.928 421.318,17.85L424.815,16.337L427.965,14.974L430.768,13.738L433.192,12.677C436.42,11.004 437.713,9.548 438.988,6.147L440.027,2.634L441.087,-0.899L441.875,-3.612L443.85,-3.928L443.856,-6.134C444.054,-9.136 444.661,-11.618 445.528,-14.495L446.468,-17.642L447.462,-20.9L448.418,-24.094C450.431,-30.793 452.511,-37.471 454.627,-44.138ZM121.488,-89.164L123.488,-89.164C124.438,-78.568 124.584,-68.104 124.488,-57.477C124.462,-54.452 124.442,-51.427 124.426,-48.402L124.391,-44.404C124.333,-41.15 124.333,-41.15 125.488,-38.164C126.904,-37.104 128.374,-36.117 129.863,-35.164C136.879,-30.276 142.583,-24.184 148.41,-17.955C153.604,-12.548 158.547,-9.031 165.488,-6.164L165.488,-3.164L161.64,-3.228C156.876,-3.301 152.113,-3.346 147.349,-3.384C145.296,-3.404 143.244,-3.431 141.192,-3.466C123.539,-4.436 123.539,-4.436 107.812,2.223C106.263,3.892 106.263,3.892 104.488,6.836L102.418,9.809L100.363,12.898C96.673,18.354 92.626,23.377 88.316,28.353C85.855,31.199 83.514,34.059 81.363,37.148L79.488,39.836L78.488,39.836C77.729,31.766 77.435,23.809 77.488,15.711C77.488,13.005 77.484,10.299 77.48,7.592C77.486,5.74 77.506,3.888 77.54,2.037C78.207,-8.327 78.207,-8.327 74.625,-17.559C72.306,-19.074 70.043,-20.11 67.488,-21.164C65.802,-22.467 65.802,-22.467 64.371,-23.84C55.571,-32.253 46.323,-39.978 36.488,-47.164L37.488,-50.164L41.445,-50.101C46.333,-50.028 51.221,-49.982 56.11,-49.944C58.218,-49.924 60.325,-49.897 62.432,-49.862C80.535,-48.96 80.535,-48.96 96.25,-56.609L98.176,-59.289L100.367,-62.223L102.488,-65.164C103.853,-66.901 105.228,-68.631 106.613,-70.352L108.574,-72.816C110.952,-75.732 113.449,-78.529 115.953,-81.336C117.391,-83.048 118.606,-84.777 119.801,-86.664L121.488,-89.164ZM831.416,4.115L831.077,6.702C826.631,33.712 826.631,33.712 834.516,59.054L836.327,61.27L838.125,63.524C840.054,65.445 841.316,65.949 843.847,66.785C846.033,69.28 846.033,69.28 848.289,72.286C849.766,74.124 851.246,75.958 852.731,77.788C848.716,77.53 844.702,77.263 840.688,76.99C839.324,76.898 837.96,76.808 836.596,76.721C834.628,76.594 832.66,76.459 830.692,76.324L827.111,76.086C823.891,75.722 821.02,75.027 817.928,74.08C813.614,73.125 810.803,72.901 806.625,74.573C803.516,76.54 803.516,76.54 800.62,79.024C798.082,81.017 798.082,81.017 795.099,80.699L794.887,82.688L792.898,82.476L792.474,86.453L788.497,86.029L787.185,88.907L784.202,88.589L783.568,90.407C782.783,92.46 782.783,92.46 781.577,94.343L779.588,94.131L782.832,54.25L777.183,50.632L775.406,48.431L775.724,45.448L772.741,45.13L773.059,42.147L770.076,41.829L770.394,38.846L768.671,38.344C766.198,37.29 764.922,36.075 763.104,34.11L761.424,32.332C760.197,30.72 760.197,30.72 760.409,28.731L758.624,27.787C756.294,26.06 755.965,24.825 755.078,22.129C761.631,22.667 767.611,23.9 773.937,25.647C782.469,27.919 790.696,29.309 799.507,29.88L799.935,28.154C801.248,25.309 802.832,24.396 805.431,22.654C811.474,18.456 817.146,13.874 822.826,9.199L824.895,7.506L826.747,5.979C829.5,3.911 829.5,3.911 831.416,4.115ZM349.322,385.39C356.191,389.491 361.529,395.713 364.569,403.096C365.172,410.983 362.393,419.945 358.019,426.528C353.797,430.78 349,434.339 343.331,436.391L341.386,435.927L340.922,437.873C337.585,438.653 334.57,437.492 331.313,436.674L329.234,436.165C327.539,435.749 325.846,435.326 324.154,434.903L323.758,438.451L323.228,443.099L322.968,445.433C322.526,449.287 322.02,453.014 320.997,456.767C319.671,456.947 318.344,457.122 317.016,457.296L314.777,457.593C312.634,457.818 310.55,457.867 308.397,457.876L308.512,455.151C308.911,445.09 309.093,435.039 309.173,424.971L309.194,422.612C309.301,410.43 309.295,398.254 309.066,386.073C313.238,385.837 317.221,385.778 321.376,386.181C325.256,386.389 327.156,385.997 330.355,383.824C336.444,380.23 343.18,382.991 349.322,385.39ZM326.298,398.149C322.554,401.498 321.604,405.36 321.212,410.184C321.24,414.449 321.411,417.107 323.966,420.595C329.083,423.252 334.517,425.707 340.318,424.152C345.29,421.753 346.903,419.595 348.929,414.543C350.611,409.126 350.611,409.126 349.542,403.702C347.164,400.122 344.879,397.897 341.232,395.605C335.69,394.594 331.42,396.051 326.298,398.149ZM831.442,423.743C835.718,430.608 836.433,438.62 834.839,446.462C833.661,451.381 832.407,456.252 829.726,460.589L827.793,460.078L826.533,462.093C824.204,464.85 822.434,465.575 819.048,466.754L816.136,467.807C806.937,470.28 796.997,467.828 788.626,463.539C781.413,458.548 776.163,451.2 774.345,442.564C773.979,434.572 776.405,426.515 781.58,420.4C782.834,419.176 784.116,417.981 785.433,416.827L788.257,414.212C803.055,404.425 821.351,410.926 831.442,423.743ZM795.413,426.768C791.18,430.139 790.327,432.143 789.283,437.496C789.545,443.641 791.139,446.781 794.92,451.396C797.822,453.951 801.547,454.544 805.3,455.172C810.294,454.741 813.253,453.28 817.011,449.991C819.881,445.61 822.074,439.899 821.209,434.603C819.325,430.109 816.296,427.477 812.249,424.944C805.897,422.531 801.003,422.893 795.413,426.768ZM609.373,387.595C610.895,389.578 611.725,391.571 612.551,393.921L615.196,395.654C618.684,403.856 615.634,412.947 612.679,420.846C608.915,427.779 601.825,430.795 594.595,433.148C585.786,435.572 577.237,434.863 569.116,430.353C561.179,424.797 556.958,418.103 554.869,408.68C554.422,401.653 556.599,393.2 560.595,387.37C567.525,380.355 576.333,376.348 586.224,376.01C595.586,376.577 603.214,380.7 609.373,387.595ZM576.267,392.264C572.787,395.086 570.871,397.505 570.027,401.953C569.623,407.157 570.891,411.22 573.804,415.556C577.388,419.307 581.739,420.41 586.721,421.23C591.376,420.621 595.442,418.493 598.687,415.082C601.04,411.281 602.43,407.707 601.938,403.202C600.716,398.765 599.247,395.107 595.348,392.48C588.776,389.968 582.54,388.175 576.267,392.264ZM889.48,429.125C893.797,434.531 893.934,440.293 893.534,446.866L893.4,449.357C892.665,459.791 890.166,469.9 887.683,480.034L874.147,476.459C873.858,471.918 873.724,469.238 874.551,465.031L875.074,462.217C875.445,460.298 875.82,458.38 876.198,456.462C877.23,450.872 877.671,446.387 876.316,440.831C874.058,438.843 871.914,438.421 869.022,437.612L865.967,436.724C862.576,436.221 861.318,436.403 858.402,438.169C857.286,440.952 857.286,440.952 856.825,444.325L856.15,448.104L855.505,452.077C855.06,454.646 854.613,457.215 854.164,459.783L853.538,463.433C852.845,467.182 851.954,470.795 850.888,474.453L837.097,471.844C836.511,467.078 836.743,463.467 837.579,458.849L837.964,456.635C838.235,455.09 838.509,453.545 838.787,452.002C839.204,449.682 839.606,447.361 840.007,445.039C841.533,436.333 843.351,427.827 845.796,419.325C852.323,419.471 857.681,419.657 863.455,422.954L866.356,423.721L866.866,421.787C876.214,421.132 882.349,422.92 889.48,429.125ZM54.569,384.98C58.674,388.864 62.538,393.746 63.266,399.438C62.636,403.072 61.739,406.596 60.715,410.138C53.929,411.055 47.147,411.65 40.318,412.15L37.155,412.394L34.143,412.618L31.414,412.821C29.214,412.908 29.214,412.908 27.269,412.445L25.877,418.281C37.692,421.811 47.853,422.569 60.11,421.302C63.231,429.298 63.231,429.298 62.191,434.134C60.873,435.619 60.873,435.619 58.577,436.357C52.69,436.602 47.089,436.208 41.255,435.44L38.943,435.158C32.037,434.278 26.012,433.303 20.176,429.258L20.64,427.313L18.689,426.334C14.117,422.365 12.256,416.549 11.377,410.648C11.016,403.221 12.337,393.275 17.293,387.45C28.797,378.848 42.234,375.604 54.569,384.98ZM28.524,396.938C26.257,398.629 26.257,398.629 25.929,400.817C32.666,401.99 39.526,402.86 46.311,401.564L48.952,399.109C48.605,396.788 48.605,396.788 46.962,394.523C39.993,391.283 34.736,392.676 28.524,396.938ZM594.316,20.575C595.755,23.8 595.986,25.977 595.541,29.466L595.214,32.202L594.844,35.087C593.83,43.639 593.155,52.05 593.061,60.668L596.933,62.086L596.921,63.97L597.503,66.169C599.067,67.051 600.66,67.881 602.263,68.688C604.359,70.01 606.435,71.365 608.494,72.745L611.701,74.871C614.295,76.905 615.593,78.388 617.008,81.321C613.177,82.29 609.404,82.864 605.48,83.259L602.537,83.558C600.517,83.758 598.496,83.948 596.474,84.13L593.538,84.438L590.882,84.691C586.829,85.72 584.714,87.886 582.344,91.254L580.776,93.94L579.033,96.864C577.84,98.899 576.649,100.936 575.459,102.973L573.721,105.885L572.157,108.561C570.648,110.574 570.648,110.574 567.559,111.251L567.657,108.479C567.767,105.068 567.856,101.658 567.932,98.247C567.968,96.774 568.013,95.301 568.067,93.828C568.142,91.704 568.188,89.582 568.228,87.457L568.337,83.591C567.757,79.353 566.384,77.621 563.418,74.606C561.111,73.085 561.111,73.085 558.664,72.025C554.154,69.795 551.053,67.352 548.03,63.287C546.273,61.295 544.303,60.374 541.925,59.242L542.03,58.248L543.773,58.144C554.292,57.485 564.294,56.737 574.404,53.604C576.793,52.9 576.793,52.9 578.781,53.112L579.312,51.232C582.876,40.522 587.632,29.695 594.316,20.575ZM146.238,379.125C163.068,382.607 163.068,382.607 168.208,389.117C172.045,394.98 173.918,400.461 173.54,407.495L173.404,410.235L173.282,412.301C149.585,413.379 149.585,413.379 140.068,413.635L138.908,418.498C142.98,422.099 147.704,423.465 153.035,423.922C155.918,423.443 158.643,422.73 161.453,421.933C164.556,421.235 166.805,421.641 169.759,422.769C172.09,430.577 172.09,430.577 170.856,434.339L169.662,436.11L165.705,436.002C162.267,435.934 158.943,436.085 155.522,436.402C148.93,436.858 142.62,435.55 136.17,434.294L136.634,432.349L134.856,431.62L132.552,430.605L130.256,429.623C127.798,427.943 127.874,426.798 127.325,423.961L124.639,422.293C122.06,417.065 121.911,413.089 123.022,407.515L123.747,403.648C124.038,402.237 124.333,400.827 124.631,399.417L125.033,397.339C125.796,393.974 126.314,392.266 129.115,390.158L131.551,388.988L134.07,386.504C137.137,383.812 139.698,382.702 143.597,381.579L145.543,382.043L146.238,379.125ZM142.528,394.689C139.686,397.33 139.394,398.346 138.727,402.007C143.721,402.57 148.446,402.643 153.482,402.376L157.38,402.177L160.314,402.013L161.242,398.122C156.452,392.968 148.991,392.258 142.528,394.689ZM-27.238,352.161L-29.602,357.766L-27.888,359.203L-29.557,361.889L-27.843,363.325C-27.878,365.899 -27.878,365.899 -28.189,369.09C-28.668,374.836 -28.899,379.673 -26.876,385.144C-27.278,386.682 -27.683,388.219 -28.107,389.75C-28.8,393.638 -28.504,397.544 -28.36,401.476C-28.364,404.322 -28.364,404.322 -29.292,408.213L-27.346,408.677C-28.171,416.447 -28.171,416.447 -28.693,418.636L-25.928,418.882C-19.142,419.494 -12.379,420.162 -5.624,421.052L-5.16,419.106L-1.72,418.962C0.61,418.854 2.939,418.711 5.263,418.507L5.452,420.242L5.716,422.534L5.971,424.8C6.294,427.232 6.294,427.232 7.576,430.366L6.648,434.257C-2.742,434.979 -11.533,435.594 -20.83,433.63L-22.953,433.369L-24.389,435.082C-27.134,434.854 -27.134,434.854 -30.431,434.285L-33.74,433.729L-36.294,433.272L-36.758,435.218L-42.594,433.827L-41.944,426.785L-43.889,426.322C-43.943,423.912 -43.988,421.502 -44.029,419.092L-44.075,417.121C-44.151,412.238 -43.949,407.405 -43.67,402.529C-43.305,395.877 -43.234,389.252 -43.282,382.591L-43.301,379.739C-43.329,375.846 -43.362,371.954 -43.409,368.061C-43.442,365.179 -43.46,362.297 -43.475,359.414L-43.52,356.73C-43.526,354.617 -43.408,352.505 -43.265,350.397C-38.84,347.675 -31.227,348.817 -27.238,352.161ZM560.651,375.042L559.488,376.754C557.719,379.362 555.954,381.972 554.188,384.582L552.359,387.275C549.029,392.204 545.828,397.179 542.75,402.269C541.426,404.401 539.973,406.378 538.41,408.341C535.262,412.451 532.923,416.816 530.615,421.441C529.203,423.622 529.203,423.622 525.792,424.789C518.993,423.804 518.993,423.804 515.714,420.099C512.894,415.843 511.971,411.24 510.892,406.309C510.432,404.342 509.968,402.376 509.5,400.411L508.773,397.346C507.495,392.171 506.022,387.055 504.529,381.939L503.703,379.082C502.27,374.149 502.27,374.149 500.45,369.351C499.63,367.199 499.63,367.199 500.141,365.266C503.921,365.09 507.175,365.985 510.806,366.983L514.228,367.916L516.833,368.64L517.478,371.341C518.275,374.652 519.083,377.961 519.899,381.267C520.249,382.698 520.596,384.13 520.937,385.563C521.429,387.624 521.938,389.681 522.449,391.738L523.361,395.492C524.433,398.554 525.155,399.744 527.798,401.53L528.331,399.827C530.613,393.112 533.946,387.745 538.062,382.004L539.881,379.39C544.323,373.092 544.323,373.092 547.115,371.467C549.643,371.67 549.643,371.67 552.548,372.19L555.451,372.686C558.006,373.309 558.006,373.309 560.651,375.042ZM122.519,383.751C121.972,387.086 121.553,389.132 119.214,391.637C115.75,396.106 114.037,401.058 112.003,406.302C111.129,408.491 110.254,410.68 109.378,412.868L108.096,416.088C106.516,420.049 104.92,424 103.25,427.924L101.819,431.369C100.053,434.322 98.972,435.081 95.683,435.95L93.737,435.487L93.273,437.432C90.587,437.113 90.587,437.113 87.437,436.041C84.116,431.332 81.749,426.118 79.282,420.925L78.143,418.555C72.759,407.293 67.747,396.104 66.004,383.642L68.42,383.58L71.566,383.49L74.694,383.405C77.332,383.359 77.332,383.359 79.577,382.766L78.881,385.684L81.8,386.38C83.019,389.078 84.047,391.681 85.011,394.47L85.835,396.739C87.378,401.058 88.576,405.34 89.575,409.822C91.031,412.941 92.419,413.853 95.457,415.336L96.428,412.502C97.625,409.032 98.85,405.572 100.084,402.114C100.613,400.617 101.135,399.117 101.649,397.614C102.39,395.453 103.158,393.303 103.932,391.154L104.611,389.115C105.31,387.224 105.31,387.224 107,384.163C111.28,382.194 118.631,380.491 122.519,383.751ZM199.333,354.774C198.869,388.541 198.869,388.541 196.89,401.368C195.845,408.176 195.66,414.872 195.701,421.757L199.591,422.685L199.128,424.63L204.964,426.022L204.321,428.181C203.622,430.82 203.622,430.82 204.36,433.138C204.942,435.782 204.237,436.618 202.922,438.899C201.028,438.677 199.136,438.437 197.245,438.188L194.051,437.788C190.808,437.041 189.068,436.215 186.618,433.984C185.15,430.983 184.023,427.616 184.814,424.302L182.127,422.633L183.519,416.797L180.832,415.129L183.428,408.551L181.483,408.088C181.584,403.658 182.358,400.414 184.266,396.415L181.347,395.719L181.43,393.067L181.73,383.299L181.86,379.076L182.046,372.996L182.16,369.303C182.204,367.456 182.228,365.607 182.2,363.758C182.183,360.472 183.235,357.38 184.046,354.213C185.498,354.033 186.952,353.869 188.406,353.711L190.859,353.428C193.882,353.375 196.412,354.033 199.333,354.774ZM633.2,354.9C634.876,355.489 636.551,356.083 638.224,356.679L641.051,357.681C643.58,358.676 643.58,358.676 646.225,360.409C645.075,367.588 643.703,374.679 642.098,381.77L640.804,387.596C640.132,390.609 639.458,393.622 638.777,396.633C638.114,399.572 637.462,402.514 636.812,405.455L636.19,408.171C635.175,412.795 634.451,416.883 635.227,421.63L636.905,423.107L635.373,428.909L643.108,430.951L640.043,442.554C637.187,441.939 634.347,441.291 631.503,440.621L629.054,440.106C623.181,438.681 623.181,438.681 620.812,435.515C619.03,427.543 619.687,419.928 621.31,411.999L621.831,409.319C622.385,406.486 622.955,403.657 623.526,400.827L624.677,394.989C627.328,381.585 630.116,368.212 633.2,354.9ZM774.396,407.707L773.844,410.032C769.949,426.523 766.42,442.97 763.762,459.716C760.607,459.916 760.607,459.916 749.971,457.107L759.638,404.843C773.429,407.451 773.429,407.451 774.396,407.707ZM776.402,384.448C778.064,385.986 778.064,385.986 778.536,388.114C778.021,392.007 777.541,394.155 774.616,396.84C770.795,398.072 768.758,397.491 765.092,395.941C763.15,393.747 763.15,393.747 762.246,391.052C762.586,387.417 763.154,385.832 765.835,383.338C770.073,381.942 772.249,382.842 776.402,384.448Z" style="fill:white;"/>
            </g>
        </g>
    </g>
</svg>
